<svg width="43" height="43" viewBox="0 0 43 43" fill="none" xmlns="http://www.w3.org/2000/svg">
<g clip-path="url(#clip0_544_1644)">
<path d="M22.2168 29.3833H22.9621C24.4837 29.3802 25.9731 29.8211 27.2478 30.6518C28.3431 31.362 29.2434 32.3348 29.8667 33.4817C30.49 34.6287 30.8167 35.9133 30.8168 37.2186V41.6312C30.8164 41.804 30.7476 41.9697 30.6254 42.0919C30.5031 42.2141 30.3375 42.2829 30.1646 42.2833H1.36896C1.19611 42.2829 1.03045 42.2141 0.90823 42.0919C0.786007 41.9697 0.717176 41.804 0.716797 41.6312V37.238C0.716797 35.1548 1.54434 33.1569 3.01738 31.6839C4.49041 30.2109 6.48828 29.3833 8.57146 29.3833H22.2168Z" fill="#295474"/>
<path d="M22.2173 29.3833C22.2173 29.3833 22.5039 40.3204 18.6339 42.2833H12.9006C9.03061 40.9747 9.31727 29.3833 9.31727 29.3833H22.2173Z" fill="white"/>
<path d="M19.3503 24.3667V30.1H12.1836V24.3846L19.3503 24.3667Z" fill="#E2AC7F"/>
<path d="M26.5176 9.22348V12.9L25.8009 13.6167H5.73424L5.01758 12.9V9.87565C5.05118 7.41338 6.06137 5.06527 7.82598 3.3477C9.59059 1.63013 11.9651 0.683735 14.4274 0.716651H21.5439C21.703 0.713363 21.8601 0.752614 21.9989 0.830347C22.1378 0.908081 22.2534 1.02148 22.3337 1.15882C22.4141 1.29617 22.4563 1.45248 22.4561 1.6116C22.4558 1.77073 22.4131 1.9269 22.3322 2.06398L21.7732 2.86665L20.7842 4.29998C22.228 4.29256 23.6312 4.77796 24.7617 5.67598C25.3027 6.09683 25.7417 6.63448 26.0457 7.24877C26.3497 7.86306 26.511 8.5381 26.5176 9.22348Z" fill="#8E6852"/>
<path d="M15.7664 30.1C15.0047 30.1619 14.2821 30.4637 13.7027 30.962C13.1232 31.4604 12.7167 32.1295 12.5414 32.8735C12.5414 32.8735 9.31641 31.9991 9.31641 29.3833C9.96141 28.0718 12.1831 27.95 12.1831 27.95C12.1831 27.95 12.5414 29.4478 15.7664 30.1Z" fill="#D6DBE3"/>
<path d="M22.2176 29.3833C22.2176 31.9991 18.9926 32.8735 18.9926 32.8735C18.8173 32.1295 18.4108 31.4604 17.8313 30.962C17.2518 30.4637 16.5293 30.1619 15.7676 30.1C18.9926 29.4478 19.3509 27.95 19.3509 27.95C19.3509 27.95 21.5726 28.0718 22.2176 29.3833Z" fill="#D6DBE3"/>
<path d="M18.6252 31.9346L17.1991 33.6833H14.3324L12.9062 31.9346C13.2034 31.4241 13.6176 30.9915 14.1148 30.6725C14.6119 30.3535 15.1778 30.1573 15.7657 30.1C16.3537 30.1573 16.9196 30.3535 17.4167 30.6725C17.9139 30.9915 18.3281 31.4241 18.6252 31.9346Z" fill="#EC3A48"/>
<path d="M18.6337 42.2833L17.2004 33.6833H14.3337L12.9004 42.2833H18.6337Z" fill="#D92936"/>
<path d="M26.5176 12.9001V13.2441C26.5176 14.8566 26.5176 15.7882 25.8869 17.0496C25.7453 17.3429 25.541 17.6015 25.2883 17.8071C25.0357 18.0127 24.7409 18.1602 24.4249 18.2392C24.2984 18.2789 24.1871 18.3566 24.1063 18.4617C24.0255 18.5669 23.9791 18.6944 23.9734 18.8269C23.8384 20.9114 22.9151 22.8664 21.3911 24.2949C19.867 25.7234 17.8564 26.5183 15.7676 26.5183C13.6787 26.5183 11.6681 25.7234 10.1441 24.2949C8.62005 22.8664 7.69678 20.9114 7.56174 18.8269C7.55603 18.6944 7.50961 18.5669 7.42882 18.4617C7.34803 18.3566 7.23679 18.2789 7.11024 18.2392C6.79424 18.1602 6.49948 18.0127 6.24683 17.8071C5.99418 17.6015 5.78983 17.3429 5.64824 17.0496C5.01758 15.7882 5.01758 14.8566 5.01758 13.2441V12.9001C5.01871 12.5203 5.17009 12.1563 5.43864 11.8878C5.7072 11.6192 6.07112 11.4679 6.45091 11.4667C6.83019 11.4695 7.19313 11.6214 7.46132 11.8896C7.72952 12.1578 7.88143 12.5208 7.88424 12.9001V12.1332C7.88509 11.8088 8.00664 11.4963 8.22521 11.2565C8.44379 11.0167 8.74376 10.8668 9.06674 10.8361C10.6362 10.6856 13.2019 10.5136 14.9147 8.94405C15.1562 8.724 15.4704 8.60083 15.7971 8.59819C16.1238 8.59554 16.4399 8.7136 16.6849 8.92972C17.6739 9.79689 19.3437 10.6139 22.4182 10.8576C22.7492 10.8791 23.0598 11.0246 23.2883 11.2651C23.5167 11.5055 23.6462 11.8231 23.6509 12.1547V12.9001C23.652 12.5203 23.8034 12.1563 24.072 11.8878C24.3405 11.6192 24.7044 11.4679 25.0842 11.4667C25.4635 11.4695 25.8265 11.6214 26.0947 11.8896C26.3628 12.1578 26.5148 12.5208 26.5176 12.9001Z" fill="#EEBD91"/>
<path d="M27.9492 30.8167H39.4159V40.1333H27.9492V30.8167Z" fill="#9CA3AD"/>
<path d="M26.5176 30.8167H29.3842V40.1333H26.5176V30.8167Z" fill="#AEB5C1"/>
<path d="M32.25 30.8167H35.1167V40.1333H32.25V30.8167Z" fill="#AEB5C1"/>
<path d="M37.9844 30.8167H40.851V40.1333H37.9844V30.8167Z" fill="#AEB5C1"/>
<path d="M25.8008 28.6666L32.9144 23.8865C33.1415 23.7324 33.4097 23.65 33.6841 23.65C33.9586 23.65 34.2267 23.7324 34.4538 23.8865L41.5674 28.6666L40.8508 29.3833H26.5174L25.8008 28.6666Z" fill="#B9BFCC"/>
<path d="M26.5173 39.4166H40.8507C41.2308 39.4166 41.5954 39.5676 41.8642 39.8364C42.133 40.1052 42.284 40.4698 42.284 40.85V42.2833H25.084V40.85C25.084 40.4698 25.235 40.1052 25.5038 39.8364C25.7726 39.5676 26.1372 39.4166 26.5173 39.4166Z" fill="#CCD0DA"/>
<path d="M25.8008 28.6666H41.5674V30.8166C41.5674 31.0067 41.4919 31.189 41.3575 31.3234C41.2231 31.4578 41.0409 31.5333 40.8508 31.5333H26.5174C26.3274 31.5333 26.1451 31.4578 26.0107 31.3234C25.8763 31.189 25.8008 31.0067 25.8008 30.8166V28.6666Z" fill="#CCD0DA"/>
<path d="M21.7716 2.8667L20.7826 4.30003H17.9159C17.7258 4.30003 17.5435 4.22453 17.4091 4.09013C17.2747 3.95572 17.1992 3.77344 17.1992 3.58337C17.1992 3.39329 17.2747 3.21101 17.4091 3.07661C17.5435 2.94221 17.7258 2.8667 17.9159 2.8667H21.7716Z" fill="#7F5B49"/>
</g>
<defs>
<clipPath id="clip0_544_1644">
<rect width="43" height="43" fill="white"/>
</clipPath>
</defs>
</svg>
