<svg width="21" height="16" viewBox="0 0 21 16" fill="none" xmlns="http://www.w3.org/2000/svg">
<path d="M9.60149 3.59321V0L3.41318 2.19585C0.627704 3.30777 -0.138259 5.98287 0.0195931 7.18642V12.177C0.0195931 14.8919 2.28199 15.1713 3.41318 14.9717L10.4 12.3766V8.7834L3.41318 11.3785V7.58567C3.41318 6.14838 4.21167 5.5229 4.61092 5.38981L9.60149 3.59321Z" fill="#49D49D"/>
<path d="M11.3985 12.377V15.9702L17.5868 13.7744C20.3723 12.6624 21.1383 9.98735 20.9804 8.7838V3.79323C20.9804 1.07836 18.718 0.798884 17.5868 0.998507L10.6 3.5936V7.18681L17.5868 4.59172V8.38455C17.5868 9.82183 16.7883 10.4473 16.3891 10.5804L11.3985 12.377Z" fill="#A882DD"/>
</svg>
