<svg width="16" height="16" viewBox="0 0 16 16" fill="none" xmlns="http://www.w3.org/2000/svg">
<rect width="16" height="16" fill="#1E1E1E"/>
<g id="Report_004">
<rect width="595" height="842" transform="translate(-519 -152)" fill="white"/>
<g id="Union">
<path fill-rule="evenodd" clip-rule="evenodd" d="M-380.935 7.70962L-398.789 25.5639L-351.178 47.3855C-344.565 52.0145 -334.712 64.645 -348.202 78.1351L-373.001 102.933C-378.197 109.698 -395.295 119.184 -414.661 110.869L-456.322 91.0301L-438.468 73.1759L-486.079 51.3542C-492.691 46.7252 -502.545 34.0948 -489.054 20.6046L-464.256 -4.19344C-459.06 -10.9582 -441.962 -20.4447 -422.596 -12.1288L-380.935 7.70962ZM-404.742 89.0463L-438.468 73.1759L-420.612 55.3219L-468.224 33.4996L-449.378 14.6531C-442.236 7.51124 -435.16 8.37091 -432.515 9.69347L-398.789 25.5639L-416.645 43.4178L-369.033 65.2401L-387.879 84.0867C-395.021 91.2285 -402.097 90.3688 -404.742 89.0463Z" fill="#F8F8F8"/>
<path fill-rule="evenodd" clip-rule="evenodd" d="M-313.15 179.131C-307.357 173.338 -305.294 164.45 -314.261 152.468C-303.786 158.975 -295.533 157.547 -289.264 151.278C-280.773 142.787 -281.726 130.725 -292.359 120.092L-316.562 95.8887L-372.11 151.436L-345.764 177.782C-335.607 187.939 -322.831 188.812 -313.15 179.131ZM-329.417 129.376L-315.451 115.41L-302.754 128.106C-298.152 132.709 -297.438 137.549 -301.882 141.993C-306.881 146.993 -311.721 147.072 -316.641 142.152L-329.417 129.376ZM-322.831 166.91C-328.148 172.227 -333.226 171.91 -338.702 166.434L-352.589 152.547L-338.067 138.026L-324.815 151.278C-319.26 156.832 -318.228 162.308 -322.831 166.91Z" fill="#F8F8F8"/>
<path fill-rule="evenodd" clip-rule="evenodd" d="M-245.941 199.838L-256.019 189.76L-264.748 198.489C-261.098 189.919 -262.526 181.666 -269.192 175C-280.064 164.129 -294.506 165.874 -306.726 178.095C-318.788 190.157 -320.296 204.837 -309.186 215.947C-302.759 222.374 -294.744 223.723 -286.412 220.152L-294.903 228.643L-284.825 238.721L-245.941 199.838ZM-275.223 209.598C-282.841 217.216 -289.507 217.375 -297.045 209.836C-304.346 202.536 -304.187 195.87 -296.569 188.252C-288.793 180.476 -282.127 180.317 -274.826 187.617C-267.288 195.156 -267.446 201.822 -275.223 209.598Z" fill="#F8F8F8"/>
<path d="M-216.584 260.46C-205.633 249.51 -204.84 239.352 -214.045 230.147C-221.028 223.164 -228.567 222.767 -236.74 227.132L-227.694 218.086L-237.772 208.008L-276.655 246.891L-266.577 256.969L-248.008 238.4C-239.994 230.385 -232.534 229.909 -226.9 235.543C-222.06 240.384 -221.98 245.701 -227.218 250.938L-249.913 273.633L-239.835 283.711L-216.584 260.46Z" fill="#F8F8F8"/>
<path d="M-199.082 291.929L-205.827 317.719L-193.765 329.781L-186.147 291.532L-155.358 290.421L-167.975 277.804L-189.718 280.185L-203.922 283.438L-166.467 245.983L-176.545 235.905L-232.093 291.453L-222.015 301.531L-212.889 292.405L-199.082 291.929Z" fill="#F8F8F8"/>
<path d="M-175.736 314.164C-186.528 328.289 -182.799 342.334 -170.578 354.555C-157.644 367.489 -142.487 368.68 -131.933 358.126C-123.045 349.238 -124.156 339.24 -131.457 328.606L-138.519 318.211C-143.281 311.386 -144.788 307.657 -139.868 302.737C-134.948 297.817 -130.505 298.452 -123.839 305.117C-117.173 311.783 -114.396 318.052 -123.204 327.813L-110.428 335.034C-99.7154 322.258 -102.493 308.371 -114.713 296.15C-126.696 284.168 -141.376 282.502 -151.216 292.341C-161.929 303.054 -158.755 314.005 -153.121 322.337L-145.503 333.605C-140.583 340.906 -139.392 344.001 -144.154 348.762C-149.312 353.92 -154.231 353.126 -161.453 345.905C-168.674 338.684 -170.658 332.256 -162.167 322.02L-175.736 314.164Z" fill="#F8F8F8"/>
<path fill-rule="evenodd" clip-rule="evenodd" d="M-66.0657 379.714L-76.1436 369.636L-84.8725 378.365C-81.2222 369.794 -82.6506 361.542 -89.3163 354.876C-100.188 344.005 -114.63 345.75 -126.851 357.971C-138.912 370.033 -140.42 384.713 -129.311 395.823C-122.883 402.25 -114.868 403.599 -106.536 400.028L-115.027 408.519L-104.949 418.597L-66.0657 379.714ZM-95.3472 389.474C-102.965 397.092 -109.631 397.251 -117.17 389.712C-124.47 382.412 -124.311 375.746 -116.693 368.128C-108.917 360.351 -102.251 360.193 -94.9504 367.493C-87.4118 375.032 -87.5705 381.698 -95.3472 389.474Z" fill="#F8F8F8"/>
<path d="M-53.5315 410.023L-42.2632 421.291L-33.3756 412.404L-44.6438 401.136L-33.0582 389.55L-43.1361 379.472L-54.7218 391.058L-62.181 383.598L-71.0687 392.486L-63.6094 399.945L-81.5434 417.879C-88.7646 425.1 -88.7646 434.782 -81.5433 442.003L-73.2112 450.335L-64.3236 441.447L-74.6396 431.131L-53.5315 410.023Z" fill="#F8F8F8"/>
<path d="M-7.33521 469.71C3.61562 458.759 4.40916 448.601 -4.79587 439.396C-11.779 432.413 -19.3176 432.017 -27.4911 436.381L-1.78043 410.67L-11.8583 400.592L-67.406 456.14L-57.3281 466.218L-38.7593 447.649C-30.7446 439.634 -23.2853 439.158 -17.6512 444.792C-12.8106 449.633 -12.7312 454.95 -17.9686 460.187L-40.6638 482.882L-30.5859 492.96L-7.33521 469.71Z" fill="#F8F8F8"/>
<path d="M27.3871 447.297C23.2607 451.423 23.34 456.105 27.5457 460.311C31.7515 464.517 36.4334 464.596 40.5598 460.47C44.5275 456.502 44.3688 451.9 40.163 447.694C35.8779 443.409 31.3547 443.329 27.3871 447.297Z" fill="#F8F8F8"/>
<path d="M16.0394 461.819L-22.8439 500.702L-12.766 510.78L26.1174 471.897L16.0394 461.819Z" fill="#F8F8F8"/>
</g>
<rect id="Rectangle 9493" width="16" height="16" rx="8" fill="#844FCF"/>
<g id="chevron-left">
<path id="Vector" d="M6.75 5.5L9.25 8L6.75 10.5" stroke="white" stroke-linecap="round" stroke-linejoin="round"/>
</g>
</g>
</svg>
