<?xml version="1.0" encoding="UTF-8"?>
<svg xmlns="http://www.w3.org/2000/svg" id="Layer_2" data-name="Layer 2" viewBox="0 0 16 16" width="512" height="512"><path d="M13,.5H3A2.5026,2.5026,0,0,0,.5,3V9A2.5026,2.5026,0,0,0,3,11.5H6.5505A4.4881,4.4881,0,0,0,15.5,11a4.443,4.443,0,0,0-.1672-1.149A2.3616,2.3616,0,0,0,15.5,9V3A2.5026,2.5026,0,0,0,13,.5ZM3,1.5H13A1.5017,1.5017,0,0,1,14.5,3v.5H1.5V3A1.5017,1.5017,0,0,1,3,1.5Zm8,13A3.5,3.5,0,1,1,14.5,11,3.5042,3.5042,0,0,1,11,14.5Zm0-8a4.49,4.49,0,0,0-4.4495,4H3A1.5017,1.5017,0,0,1,1.5,9V4.5h13V8.2065A4.4751,4.4751,0,0,0,11,6.5Z"/><path d="M12.5,10.5h-1v-1a.5.5,0,0,0-1,0v1h-1a.5.5,0,0,0,0,1h1v1a.5.5,0,0,0,1,0v-1h1a.5.5,0,0,0,0-1Z"/><path d="M5,6.5H3a.5.5,0,0,0,0,1H5a.5.5,0,0,0,0-1Z"/></svg>
