<svg width="20" height="20" viewBox="0 0 20 20" fill="none" xmlns="http://www.w3.org/2000/svg">
<path d="M6.33333 2.5H4.5C3.39543 2.5 2.5 3.39543 2.5 4.5V6.33333C2.5 7.4379 3.39543 8.33333 4.5 8.33333H8.33333V4.5C8.33333 3.39543 7.4379 2.5 6.33333 2.5Z" fill="#49D49D" stroke="#49D49D" stroke-width="1.5" stroke-linecap="round" stroke-linejoin="round"/>
<path d="M15.4998 2.5H13.6665C12.5619 2.5 11.6665 3.39543 11.6665 4.5V8.33333H15.4998C16.6044 8.33333 17.4998 7.4379 17.4998 6.33333V4.5C17.4998 3.39543 16.6044 2.5 15.4998 2.5Z" fill="#49D49D" stroke="#49D49D" stroke-width="1.5" stroke-linecap="round" stroke-linejoin="round"/>
<path d="M15.4998 11.6667H11.6665V15.5C11.6665 16.6046 12.5619 17.5 13.6665 17.5H15.4998C16.6044 17.5 17.4998 16.6046 17.4998 15.5V13.6667C17.4998 12.5621 16.6044 11.6667 15.4998 11.6667Z" fill="#49D49D" stroke="#49D49D" stroke-width="1.5" stroke-linecap="round" stroke-linejoin="round"/>
<path d="M8.33333 11.6667H4.5C3.39543 11.6667 2.5 12.5621 2.5 13.6667V15.5C2.5 16.6046 3.39543 17.5 4.5 17.5H6.33333C7.4379 17.5 8.33333 16.6046 8.33333 15.5V11.6667Z" fill="#49D49D" stroke="#49D49D" stroke-width="1.5" stroke-linecap="round" stroke-linejoin="round"/>
</svg>
