<svg width="50" height="50" viewBox="0 0 50 50" fill="none" xmlns="http://www.w3.org/2000/svg">
<path d="M27.5999 21.3999V16.6C27.5999 15.6452 27.2206 14.7295 26.5455 14.0544C25.8703 13.3793 24.9547 13 23.9999 13L19 23.7999V36.9998H32.7358C33.3146 37.0064 33.8763 36.8035 34.3173 36.4287C34.7584 36.0538 35.049 35.5321 35.1358 34.9599L36.7918 24.1599C36.844 23.816 36.8208 23.4648 36.7238 23.1306C36.6268 22.7965 36.4583 22.4875 36.2301 22.225C36.0018 21.9624 35.7191 21.7527 35.4017 21.6102C35.0843 21.4677 34.7397 21.396 34.3918 21.3999H27.5999Z" fill="#7BE0B8"/>
<path d="M13.7029 36.1938C14.153 36.6439 16.3635 36.9968 17 36.9968V23.7969C16.3635 23.7969 14.153 23.9497 13.7029 24.3998C13.2529 24.8499 13 25.4603 13 26.0968V34.4968C13 35.1333 13.2529 35.7437 13.7029 36.1938Z" fill="#7BE0B8"/>
<circle cx="25" cy="25" r="24.25" stroke="#212529" stroke-width="1.5"/>
</svg>
