<svg width="129" height="31" viewBox="0 0 129 31" fill="none" xmlns="http://www.w3.org/2000/svg">
<g id="#ae285dff">
<path id="path5" d="M18.624 0C20.431 3.10427 22.2537 6.19942 24.0411 9.31542C21.152 14.4118 18.3045 19.533 15.3176 24.5734C14.1716 26.5082 13.0569 28.4613 11.9239 30.4026C8.24989 30.4247 4.57587 30.4234 0.901855 30.4182C1.01398 30.1666 1.1248 29.9136 1.26039 29.6738C7.04521 19.7808 12.8522 9.90081 18.624 0Z" fill="#AE285D"/>
<path id="path7" d="M98.5699 7.63098C100.601 11.4171 102.631 15.202 104.66 18.9894C103.944 19.0037 103.228 18.9672 102.514 18.992C102.034 18.1576 101.618 17.288 101.149 16.4484C99.3443 16.3949 97.5386 16.4314 95.7329 16.4275C95.2974 17.2919 94.8228 18.1341 94.3613 18.9829C93.656 18.9764 92.9506 18.9972 92.2466 18.9907C94.3248 15.1876 96.4095 11.3871 98.5699 7.63098ZM96.6364 14.8082C97.8671 14.8252 99.0992 14.8226 100.331 14.833C99.7146 13.6857 99.1592 12.5058 98.4981 11.3832C97.8645 12.5188 97.2439 13.6596 96.6364 14.8082Z" fill="#AE285D"/>
<path id="path9" d="M105.843 7.58661C108.91 10.2515 111.976 12.9177 115.005 15.6269C115.088 13.1824 114.995 10.7378 115.069 8.29325C115.725 8.30629 116.381 8.31672 117.036 8.32845C117.015 12.0937 117.026 15.8603 117.022 19.6256C115.008 17.9503 113.073 16.181 111.083 14.4744C109.976 13.5279 108.88 12.5709 107.823 11.5709C107.797 14.0468 107.834 16.5239 107.781 18.9998C107.129 19.0024 106.477 18.9854 105.827 18.9907C105.832 15.1889 105.799 11.3884 105.843 7.58661Z" fill="#AE285D"/>
<path id="path11" d="M41.0317 18.975C43.1504 15.1928 45.2142 11.3806 47.3811 7.62701C49.3993 11.4171 51.4293 15.2019 53.471 18.9789C52.7448 18.9959 52.0199 18.9946 51.2937 18.9802C50.853 18.1341 50.4019 17.2931 49.9808 16.4366C48.1699 16.4131 46.3602 16.4327 44.5493 16.4327C44.0773 17.2866 43.651 18.168 43.1412 19.0011C42.4372 18.9815 41.7345 18.9959 41.0317 18.975ZM45.4293 14.8186C46.6666 14.8134 47.9052 14.8303 49.1438 14.8264C48.5206 13.6856 47.973 12.5044 47.3042 11.3884C46.6744 12.5305 46.0525 13.6739 45.4293 14.8186Z" fill="#AE285D"/>
<path id="path13" d="M71.1812 8.60747C72.2164 8.0977 73.4289 8.03121 74.5488 8.25676C75.5188 8.46145 76.2985 9.15115 76.8904 9.91515C76.365 10.1811 75.8435 10.451 75.3272 10.7339C74.631 9.64527 72.9739 9.29847 71.9635 10.1472C71.4276 10.5305 71.4706 11.4745 72.0756 11.7665C73.4315 12.5136 75.0808 12.6739 76.2829 13.7078C77.5084 14.7469 77.4615 16.8238 76.3259 17.9138C75.1068 19.1497 73.176 19.4183 71.5554 18.9555C70.1982 18.6126 69.1773 17.3649 68.9961 15.9933C69.6519 15.8499 70.3142 15.7313 70.9778 15.6283C71.0574 16.271 71.3012 16.979 71.9074 17.3023C72.867 17.8173 74.2581 17.6882 74.9204 16.7586C75.3872 16.1263 75.249 15.155 74.6114 14.6922C73.279 13.7991 71.5098 13.7443 70.3142 12.6192C69.6832 12.082 69.4211 11.185 69.6362 10.3884C69.807 9.57617 70.4707 8.97514 71.1812 8.60747Z" fill="#AE285D"/>
<path id="path15" d="M54.1048 8.36759C54.8493 8.26981 55.6015 8.30371 56.3499 8.31153C57.1504 9.50318 57.9496 10.6948 58.7514 11.8852C59.595 10.7092 60.415 9.51621 61.2468 8.33239C62.0148 8.30762 62.7827 8.29458 63.5506 8.31805C62.3329 10.0116 61.1073 11.7013 59.887 13.3936C61.1295 15.2776 62.4854 17.0872 63.6992 18.9907C62.9678 18.9946 62.2364 18.9881 61.505 18.9816C60.5741 17.6426 59.6497 16.2984 58.7188 14.9594C57.7567 16.3036 56.7867 17.6413 55.8362 18.9933C55.0957 19.0076 54.3538 18.9972 53.6133 18.9985C54.9014 17.1107 56.2573 15.271 57.5963 13.4184C56.4451 11.7261 55.2717 10.0495 54.1048 8.36759Z" fill="#AE285D"/>
<path id="path17" d="M65.3547 8.32066C66.0144 8.3011 66.6728 8.3024 67.3325 8.31674C67.3364 11.8747 67.3338 15.4327 67.3338 18.9907C66.6637 18.992 65.9948 18.9907 65.3247 18.9907C65.3495 15.434 65.3377 11.8773 65.3547 8.32066Z" fill="#AE285D"/>
<path id="path19" d="M84.6036 8.31152C86.2959 8.38453 88.1211 8.07815 89.6804 8.90735C91.2006 9.7209 91.5513 12.1342 90.1498 13.2267C91.0324 13.5748 91.8864 14.2306 92.1185 15.1967C92.4901 16.3818 91.8343 17.6934 90.7978 18.3075C88.9086 19.3453 86.6831 18.8616 84.6322 19.0024C84.5684 15.4392 84.6088 11.876 84.6036 8.31152ZM86.567 9.84736C86.571 10.8643 86.5683 11.8799 86.5618 12.8956C87.2971 12.8656 88.112 12.9099 88.7391 12.4562C89.3793 11.8865 89.3558 10.7065 88.6492 10.1994C88.0312 9.80825 87.2685 9.85258 86.567 9.84736ZM86.5788 14.2919C86.5709 15.3284 86.5749 16.3662 86.5944 17.4027C87.5814 17.3505 88.6439 17.5331 89.554 17.0442C90.361 16.6478 90.5096 15.3519 89.76 14.8225C88.8565 14.1211 87.644 14.3141 86.5788 14.2919Z" fill="#AE285D"/>
<path id="path21" d="M119.315 8.31149C119.973 8.30628 120.63 8.30889 121.288 8.31019C121.291 9.71565 121.275 11.1224 121.305 12.5292C122.924 11.1042 124.575 9.71565 126.203 8.30237C127.103 8.30758 128.002 8.31149 128.902 8.30889C126.959 9.90209 125.032 11.5122 123.124 13.1446C125.001 15.1263 126.946 17.0415 128.867 18.9815C127.975 18.9724 127.082 19.0428 126.194 18.9398C124.666 17.3805 123.149 15.8121 121.635 14.2397C121.524 14.3857 121.415 14.5318 121.306 14.6778C121.267 16.1158 121.302 17.5526 121.278 18.9907C120.617 18.9867 119.956 19.0037 119.296 18.9998C119.301 15.4379 119.31 11.8747 119.315 8.31149Z" fill="#AE285D"/>
<path id="path23" d="M18.6255 18.9255C22.3125 18.9242 25.9996 18.8981 29.6867 18.9594C31.8822 22.7873 34.1481 26.5734 36.3241 30.4117C32.6371 30.4299 28.9513 30.4156 25.2643 30.413C23.07 26.5721 20.778 22.7899 18.6255 18.9255Z" fill="#AE285D"/>
</g>
</svg>
