<svg width="48" height="48" viewBox="0 0 48 48" fill="none" xmlns="http://www.w3.org/2000/svg">
<g filter="url(#filter0_d_8628_20356)">
<path d="M24 41C35.0457 41 44 32.0457 44 21C44 9.9543 35.0457 1 24 1C12.9543 1 4 9.9543 4 21C4 32.0457 12.9543 41 24 41Z" fill="white"/>
<path d="M24 41C35.0457 41 44 32.0457 44 21C44 9.9543 35.0457 1 24 1C12.9543 1 4 9.9543 4 21C4 32.0457 12.9543 41 24 41Z" stroke="#E6ECF1" stroke-linecap="round" stroke-linejoin="round"/>
</g>
<path d="M31 21H16" stroke="#212529" stroke-width="1.5"/>
<path d="M21.5 16C20.8333 17.3333 18.8 20.2 16 21C17.6667 21.6667 21.1 23.6 21.5 26" stroke="#212529" stroke-width="1.5" stroke-linejoin="bevel"/>
<defs>
<filter id="filter0_d_8628_20356" x="0.5" y="0.5" width="47" height="47" filterUnits="userSpaceOnUse" color-interpolation-filters="sRGB">
<feFlood flood-opacity="0" result="BackgroundImageFix"/>
<feColorMatrix in="SourceAlpha" type="matrix" values="0 0 0 0 0 0 0 0 0 0 0 0 0 0 0 0 0 0 127 0" result="hardAlpha"/>
<feOffset dy="3"/>
<feGaussianBlur stdDeviation="1.5"/>
<feComposite in2="hardAlpha" operator="out"/>
<feColorMatrix type="matrix" values="0 0 0 0 0 0 0 0 0 0 0 0 0 0 0 0 0 0 0.1 0"/>
<feBlend mode="normal" in2="BackgroundImageFix" result="effect1_dropShadow_8628_20356"/>
<feBlend mode="normal" in="SourceGraphic" in2="effect1_dropShadow_8628_20356" result="shape"/>
</filter>
</defs>
</svg>
