<svg width="41" height="36" viewBox="0 0 41 36" fill="none" xmlns="http://www.w3.org/2000/svg">
<path d="M5.00005 13.7998V18.1554H5.60005L4.80005 30.5998" stroke="white"/>
<path d="M5.00005 13.7998V18.1554H5.60005L4.80005 30.5998" stroke="white"/>
<path d="M29 13.7998V18.1554H29.6L28.8 30.5998" stroke="white"/>
<path d="M11 13.7998V18.1554H10.4L11.2 30.5998" stroke="white"/>
<path d="M35 13.7998V18.1554H34.4L35.2 30.5998" stroke="white"/>
<path d="M2.3999 30.6001H37.5999" stroke="white"/>
<path d="M1.6001 33H38.4001" stroke="white"/>
<path d="M0 35.3999H40" stroke="white"/>
<path d="M2.05445 13.8L0.800049 9.63256L19.9296 1L40 9.63256L38.432 13.8H2.05445Z" fill="#9C68E7" stroke="white"/>
<path d="M21.6501 19.3999C22.4001 20.8544 22.8001 23.8363 18.4001 24.1272L22.4001 27.3999" stroke="white"/>
<path d="M16.8 19.3999H24" stroke="white"/>
<path d="M16.8 21.7998H24" stroke="white"/>
</svg>
