<svg width="20" height="20" viewBox="0 0 20 20" fill="none" xmlns="http://www.w3.org/2000/svg">
<path d="M16.6641 5.83398H3.33073C2.41025 5.83398 1.66406 6.58018 1.66406 7.50065V15.834C1.66406 16.7545 2.41025 17.5007 3.33073 17.5007H16.6641C17.5845 17.5007 18.3307 16.7545 18.3307 15.834V7.50065C18.3307 6.58018 17.5845 5.83398 16.6641 5.83398Z" stroke="#844FCF" stroke-width="2" stroke-linecap="round" stroke-linejoin="round"/>
<path d="M13.3307 17.5V4.16667C13.3307 3.72464 13.1551 3.30072 12.8426 2.98816C12.53 2.67559 12.1061 2.5 11.6641 2.5H8.33073C7.8887 2.5 7.46478 2.67559 7.15222 2.98816C6.83966 3.30072 6.66406 3.72464 6.66406 4.16667V17.5" stroke="#844FCF" stroke-width="2" stroke-linecap="round" stroke-linejoin="round"/>
</svg>
