<svg width="20" height="20" viewBox="0 0 20 20" fill="none" xmlns="http://www.w3.org/2000/svg">
<path d="M16.666 5.83398H3.33268C2.41221 5.83398 1.66602 6.58018 1.66602 7.50065V15.834C1.66602 16.7545 2.41221 17.5007 3.33268 17.5007H16.666C17.5865 17.5007 18.3327 16.7545 18.3327 15.834V7.50065C18.3327 6.58018 17.5865 5.83398 16.666 5.83398Z" stroke="#212529" stroke-width="2" stroke-linecap="round" stroke-linejoin="round"/>
<path d="M13.3327 17.5V4.16667C13.3327 3.72464 13.1571 3.30072 12.8445 2.98816C12.532 2.67559 12.108 2.5 11.666 2.5H8.33268C7.89065 2.5 7.46673 2.67559 7.15417 2.98816C6.84161 3.30072 6.66602 3.72464 6.66602 4.16667V17.5" stroke="#212529" stroke-width="2" stroke-linecap="round" stroke-linejoin="round"/>
</svg>
