<svg width="85" height="85" viewBox="0 0 85 85" fill="none" xmlns="http://www.w3.org/2000/svg">
<g id="Group 48095784">
<circle id="Ellipse 783" cx="42.5" cy="42.5" r="42.5" fill="#7BE0B8"/>
<g id="Group 48095785">
<path id="Rectangle 9806" d="M24.75 57C24.75 58.2426 25.7574 59.25 27 59.25H57C58.2426 59.25 59.25 58.2426 59.25 57V27C59.25 25.7574 58.2426 24.75 57 24.75H27C25.7574 24.75 24.75 25.7574 24.75 27V57Z" fill="#49D49D" stroke="#212529" stroke-width="1.5"/>
<path id="Vector 3536" d="M24.8984 42H59.0984" stroke="#212529" stroke-width="1.5" stroke-linecap="round" stroke-linejoin="round"/>
<path id="Vector 3537" d="M42 24.9004L42 59.1004" stroke="#212529" stroke-width="1.5" stroke-linecap="round" stroke-linejoin="round"/>
<path id="Vector 3538" d="M33 30L33 36" stroke="#212529" stroke-width="1.5" stroke-linecap="round" stroke-linejoin="round"/>
<path id="Vector 3539" d="M36 33L30 33" stroke="#212529" stroke-width="1.5" stroke-linecap="round" stroke-linejoin="round"/>
<g id="Group 48095786">
<path id="Vector 3541" d="M30.8828 47.8789L35.1255 52.1215" stroke="#212529" stroke-width="1.5" stroke-linecap="round" stroke-linejoin="round"/>
<path id="Vector 3542" d="M35.125 47.8789L30.8824 52.1215" stroke="#212529" stroke-width="1.5" stroke-linecap="round" stroke-linejoin="round"/>
</g>
<path id="Vector 3540" d="M54 33L48 33" stroke="#212529" stroke-width="1.5" stroke-linecap="round" stroke-linejoin="round"/>
<g id="Group 48095787">
<path id="Vector 3541_2" d="M54 49L48 49" stroke="#212529" stroke-width="1.5" stroke-linecap="round" stroke-linejoin="round"/>
<path id="Vector 3542_2" d="M54 51.5L48 51.5" stroke="#212529" stroke-width="1.5" stroke-linecap="round" stroke-linejoin="round"/>
</g>
</g>
</g>
</svg>
