<svg width="512" height="512" viewBox="0 0 512 512" fill="none" xmlns="http://www.w3.org/2000/svg">
<path d="M360.217 41.5463V396.933C360.217 412.614 347.505 425.327 331.823 425.327H52.9487C37.2677 425.327 24.5547 412.615 24.5547 396.933V41.5463C24.5547 25.8653 37.2667 13.1523 52.9487 13.1523H331.823C347.504 13.1523 360.217 25.8653 360.217 41.5463Z" fill="#FEFDFE"/>
<path d="M285.38 53.3209V76.2779C285.38 82.2969 280.501 87.1769 274.481 87.1769H110.297C104.278 87.1769 99.3984 82.2969 99.3984 76.2779V53.3209C99.3984 47.3019 104.278 42.4219 110.297 42.4219H274.481C280.5 42.4229 285.38 47.3019 285.38 53.3209Z" fill="white"/>
<path d="M378.54 498.896C438.661 498.896 487.4 450.157 487.4 390.036C487.4 329.914 438.661 281.176 378.54 281.176C318.418 281.176 269.68 329.914 269.68 390.036C269.68 450.157 318.418 498.896 378.54 498.896Z" fill="white"/>
<path d="M251.729 419.622H52.953C40.44 419.622 30.26 409.442 30.26 396.93V41.5369C30.26 29.0259 40.44 18.8449 52.953 18.8449H331.841C344.354 18.8449 354.534 29.0249 354.534 41.5369V259.707C354.534 262.85 357.082 265.399 360.226 265.399C363.37 265.399 365.918 262.849 365.918 259.707V41.5369C365.918 22.7479 350.631 7.46094 331.84 7.46094H52.953C34.162 7.46094 18.875 22.7479 18.875 41.5369V396.931C18.875 415.72 34.162 431.007 52.953 431.007H251.729C254.874 431.007 257.421 428.457 257.421 425.315C257.422 422.172 254.874 419.622 251.729 419.622Z" fill="#A882DD"/>
<path d="M56.1641 122.981C56.1641 126.124 58.7121 128.673 61.8561 128.673H206.564C209.709 128.673 212.256 126.123 212.256 122.981C212.256 119.839 209.708 117.289 206.564 117.289H61.8561C58.7111 117.289 56.1641 119.838 56.1641 122.981Z" fill="#A882DD"/>
<path d="M309.499 172.266H61.8561C58.7111 172.266 56.1641 174.816 56.1641 177.958C56.1641 181.101 58.7121 183.65 61.8561 183.65H309.499C312.644 183.65 315.191 181.1 315.191 177.958C315.191 174.815 312.643 172.266 309.499 172.266Z" fill="#A882DD"/>
<path d="M309.499 221.879H61.8561C58.7111 221.879 56.1641 224.429 56.1641 227.571C56.1641 230.714 58.7121 233.263 61.8561 233.263H309.499C312.644 233.263 315.191 230.713 315.191 227.571C315.191 224.429 312.643 221.879 309.499 221.879Z" fill="#A882DD"/>
<path d="M309.499 271.5H61.8561C58.7111 271.5 56.1641 274.05 56.1641 277.192C56.1641 280.335 58.7121 282.884 61.8561 282.884H309.499C312.644 282.884 315.191 280.334 315.191 277.192C315.191 274.05 312.643 271.5 309.499 271.5Z" fill="#A882DD"/>
<path d="M268.807 326.797C268.807 323.654 266.259 321.105 263.115 321.105H61.8717C58.7267 321.105 56.1797 323.655 56.1797 326.797C56.1797 329.94 58.7277 332.489 61.8717 332.489H263.115C266.26 332.49 268.807 329.94 268.807 326.797Z" fill="#A882DD"/>
<path d="M247.708 382.13C250.853 382.13 253.4 379.58 253.4 376.438C253.4 373.295 250.852 370.746 247.708 370.746H61.8717C58.7267 370.746 56.1797 373.296 56.1797 376.438C56.1797 379.581 58.7277 382.13 61.8717 382.13H247.708Z" fill="#A882DD"/>
<path d="M274.478 92.8725C283.626 92.8725 291.07 85.4305 291.07 76.2805V53.3225C291.07 44.1725 283.627 36.7305 274.478 36.7305H110.293C101.145 36.7305 93.7031 44.1725 93.7031 53.3225V76.2805C93.7031 85.4305 101.145 92.8725 110.293 92.8725H274.478ZM105.088 76.2815V53.3225C105.088 50.4505 107.423 48.1155 110.293 48.1155H274.478C277.348 48.1155 279.685 50.4505 279.685 53.3225V76.2805C279.685 79.1525 277.348 81.4875 274.478 81.4875H110.293C107.423 81.4875 105.088 79.1535 105.088 76.2815Z" fill="#A882DD"/>
<path d="M462.921 312.564C420.208 266.039 347.601 262.938 301.065 305.656C254.539 348.371 251.439 420.978 294.157 467.51C336.751 513.9 409.352 517.259 456.013 474.418C502.651 431.599 505.745 359.206 462.921 312.564ZM448.313 466.035C406.41 504.503 341.016 501.716 302.545 459.809C264.072 417.906 266.864 352.514 308.767 314.039C350.581 275.652 415.814 278.086 454.535 320.265C493.1 362.261 490.323 427.46 448.313 466.035Z" fill="#A882DD"/>
<path d="M344.119 341.378L342.156 355.538C341.724 358.651 343.9 361.527 347.013 361.957C350.133 362.39 353.003 360.211 353.434 357.102L357.234 329.671C357.666 326.558 355.49 323.682 352.377 323.252L324.946 319.45C321.839 319.016 318.957 321.188 318.525 324.305C318.093 327.418 320.269 330.294 323.382 330.724L336.89 332.598C308.293 356.497 299.536 398.435 319.231 432.545C320.808 435.278 324.298 436.194 327.006 434.628C329.728 433.057 330.662 429.577 329.089 426.853C312.451 398.028 319.401 362.104 344.119 341.378Z" fill="#A882DD"/>
<path d="M441.453 415.234C438.731 413.659 435.253 414.593 433.678 417.317C417.07 446.081 382.378 457.965 352.171 447.027L365.385 441.658C368.298 440.476 369.701 437.155 368.517 434.242C367.333 431.325 364.009 429.925 361.101 431.11L335.443 441.535C332.53 442.717 331.127 446.038 332.311 448.951L342.734 474.607C343.93 477.551 347.277 478.909 350.15 477.739C353.063 476.557 354.466 473.236 353.282 470.323L348.157 457.708C384.194 470.836 424.433 456.1 443.537 423.009C445.109 420.285 444.175 416.805 441.453 415.234Z" fill="#A882DD"/>
<path d="M373.122 320.121C369.977 320.121 367.43 322.671 367.43 325.813C367.43 328.955 369.978 331.505 373.122 331.505C406.339 331.505 433.973 355.614 439.603 387.237L428.348 378.478C425.867 376.547 422.291 376.988 420.36 379.475C418.429 381.954 418.874 385.531 421.355 387.461L443.211 404.471C444.409 405.403 445.924 405.815 447.412 405.627C448.911 405.442 450.273 404.667 451.2 403.474L468.21 381.616C470.141 379.137 469.696 375.56 467.215 373.63C464.732 371.699 461.156 372.144 459.227 374.627L450.829 385.416C444.322 348.38 411.996 320.121 373.122 320.121Z" fill="#A882DD"/>
</svg>
