<svg width="36" height="36" viewBox="0 0 36 36" fill="none" xmlns="http://www.w3.org/2000/svg">
<path d="M10.8494 0H5.14286C2.30254 0 0 2.30254 0 5.14286V10.2857C0 24.4873 11.5127 36 25.7143 36H30.8571C33.6975 36 36 33.6975 36 30.8571V27.3035C36 26.3295 35.4497 25.4391 34.5785 25.0036L28.3662 21.8974C26.9665 21.1975 25.2716 21.8996 24.7767 23.3842L24.011 25.6812C23.515 27.1691 21.9887 28.0549 20.4508 27.7473C14.2953 26.5162 9.48379 21.7047 8.2527 15.5492C7.94511 14.0113 8.83086 12.485 10.3188 11.989L13.1695 11.0387C14.4443 10.6138 15.1769 9.27914 14.851 7.97559L13.3441 1.94777C13.0579 0.80305 12.0294 0 10.8494 0Z" fill="#7BE0B8"/>
<path d="M19 9C21.1667 9.66667 25.8 12.5 27 18.5" stroke="#212529"/>
<path d="M20 3C23.25 3.98246 30.2 8.15789 32 17" stroke="#212529"/>
</svg>
