<svg width="60" height="60" viewBox="0 0 60 60" fill="none" xmlns="http://www.w3.org/2000/svg">
<circle cx="30" cy="30" r="30" fill="#7BE0B8"/>
<path d="M43.6016 27.6003H16.6016C14.3924 27.6003 12.6016 29.3912 12.6016 31.6003V32.764C12.6016 34.9731 14.3924 36.764 16.6016 36.764H17.0197H42.8743H48.6016V32.6003C48.6016 29.8389 46.363 27.6003 43.6016 27.6003Z" fill="#49D49D"/>
<path d="M28.3125 20.4009V26.9463" stroke="black" stroke-linecap="round"/>
<path d="M28.9688 29.5645H32.896" stroke="black" stroke-linecap="round"/>
<path d="M23.0781 36.7637L37.1509 36.7637" stroke="black" stroke-linecap="round"/>
<path d="M23.4486 20.4009C18.935 21.2774 17.3887 25.5661 17.1797 27.6009H39.4342C39.4342 22.2165 34.6281 20.5574 32.225 20.4009H23.4486Z" stroke="black" stroke-linecap="round"/>
<path d="M42.8743 36.764H48.6016V32.6003C48.6016 29.8389 46.363 27.6003 43.6016 27.6003H16.6016C14.3924 27.6003 12.6016 29.3912 12.6016 31.6003V32.764C12.6016 34.9731 14.3924 36.764 16.6016 36.764H17.0197" stroke="#212529"/>
<circle cx="19.8001" cy="36.7649" r="3.27273" fill="#49D49D" stroke="#212529"/>
<circle cx="40.0891" cy="36.7648" r="3.27273" fill="#49D49D" stroke="#212529"/>
<circle cx="19.7406" cy="36.7104" r="0.6" stroke="#212529" stroke-width="1.5"/>
<circle cx="40.092" cy="36.7649" r="0.654545" stroke="#212529"/>
<path d="M48.5987 34.8015H47.435C46.6317 34.8015 45.9805 34.0689 45.9805 33.1652C45.9805 32.2614 46.6317 31.5288 47.435 31.5288H48.2714" stroke="#212529"/>
</svg>
