<svg width="316" height="280" viewBox="0 0 316 280" fill="none" xmlns="http://www.w3.org/2000/svg">
<g filter="url(#filter0_f_0_194)">
<ellipse cx="158" cy="246" rx="124" ry="9" fill="#CFCFCF" fill-opacity="0.7"/>
</g>
<circle opacity="0.2" cx="118.5" cy="118.905" r="118" stroke="#844FCF"/>
<circle opacity="0.2" cx="261" cy="138.405" r="54.5" stroke="#844FCF"/>
<path d="M19 14.4053L22.5112 23.5292L32 26.9053L22.5112 30.2814L19 39.4053L15.4888 30.2814L6 26.9053L15.4888 23.5292L19 14.4053Z" fill="#844FCF"/>
<path d="M294.5 138.405L295.985 142.42L300 143.905L295.985 145.391L294.5 149.405L293.015 145.391L289 143.905L293.015 142.42L294.5 138.405Z" fill="#844FCF"/>
<rect x="279" y="164.251" width="205.866" height="143.741" rx="11.2637" transform="rotate(159.934 279 164.251)" fill="#9364D6"/>
<rect x="270.224" y="140.224" width="205.866" height="26.7991" transform="rotate(159.934 270.224 140.224)" fill="#7D49C6"/>
<rect x="32" y="119.169" width="205.734" height="144.3" rx="11.2637" transform="rotate(-35.397 32 119.169)" fill="url(#paint0_linear_0_194)"/>
<g clip-path="url(#clip0_0_194)">
<path d="M187.442 37.3445C185.135 38.9834 183.917 41.655 185.482 43.8573C187.284 46.3937 191.066 43.9675 191.962 45.2295C192.34 45.7615 192.063 46.6846 191.022 47.4248C189.534 48.4821 187.943 48.607 187.943 48.607L189.054 51.1689C189.054 51.1689 190.736 50.8305 192.447 49.6145C194.977 47.817 196.073 45.1576 194.473 42.9058C192.574 40.2334 188.78 42.6683 187.945 41.4929C187.646 41.0722 187.829 40.2532 188.871 39.5131C190.049 38.676 191.359 38.4712 191.359 38.4712L190.3 35.9836C190.288 35.9924 188.917 36.296 187.442 37.3445ZM166.426 52.5198L166.593 52.8855C166.593 52.8855 167.683 52.3715 168.819 52.1047C170.237 51.7111 170.478 51.8933 171.196 52.4823L178.919 58.9663L181.697 56.9926L178.715 43.7878L175.95 45.7527L178.132 54.6286L172.84 49.5447C172.266 48.9471 171.473 48.9336 170.828 49.3918L166.426 52.5198ZM179.831 42.9948L184.896 54.7193L187.537 52.8424L182.46 41.1268L179.831 42.9948ZM194.537 32.5446C193.905 32.994 193.807 33.5659 193.981 34.336L196.689 46.3397L199.454 44.3748L198.888 42.4494L202.261 40.0527L203.682 41.3701L206.125 39.6343L196.769 30.9586L194.537 32.5446ZM196.857 35.0481L200.392 38.2896L198.198 39.8492L196.857 35.0481Z" fill="url(#paint1_linear_0_194)"/>
</g>
<path d="M97.7651 179.935L99.6326 178.608C101.649 177.176 101.614 174.974 100.575 173.512C99.5591 172.082 97.5799 171.362 95.6214 172.753L93.6547 174.151L97.7651 179.935ZM98.0969 178.232L95.3723 174.398L96.3143 173.729C97.5704 172.836 98.8843 173.32 99.5655 174.279C100.258 175.254 100.303 176.664 99.0141 177.58L98.0969 178.232ZM105.932 171.446L105.626 171.017C104.657 169.653 103.428 169.445 102.287 170.255C100.957 171.201 100.854 172.754 101.735 173.993C102.627 175.249 104.07 175.53 105.359 174.614C106.103 174.085 106.468 173.391 106.544 172.553L105.587 172.326C105.559 172.83 105.346 173.317 104.825 173.687C104.173 174.151 103.522 174.128 102.948 173.566L105.932 171.446ZM102.418 172.836C102.094 172.171 102.219 171.56 102.831 171.125C103.451 170.685 103.992 170.835 104.417 171.415L102.418 172.836ZM107.62 166.615L108.602 170.22L105.513 168.112L104.43 168.882L109.107 171.876L109.983 171.253L108.703 165.846L107.62 166.615ZM114.543 165.328L114.237 164.898C113.268 163.534 112.039 163.326 110.898 164.137C109.568 165.082 109.465 166.635 110.346 167.874C111.238 169.13 112.681 169.411 113.97 168.495C114.714 167.966 115.079 167.272 115.155 166.434L114.197 166.207C114.17 166.711 113.957 167.199 113.436 167.569C112.784 168.032 112.133 168.01 111.559 167.447L114.543 165.328ZM111.029 166.718C110.705 166.052 110.83 165.441 111.442 165.006C112.061 164.566 112.603 164.716 113.028 165.297L111.029 166.718ZM113.535 162.412L116.518 166.61L117.518 165.899L115.921 163.652C115.381 162.891 115.556 162.158 116.109 161.764C116.605 161.412 117.136 161.495 117.542 162.065L119.344 164.602L120.344 163.891L118.383 161.131C117.667 160.123 116.671 160.034 115.795 160.657C115.101 161.15 114.919 161.752 114.962 162.355L114.51 161.719L113.535 162.412ZM122.947 155.475L123.117 154.297C122.249 154.056 121.347 154.274 120.67 154.756C119.595 155.519 119.164 156.82 119.992 157.985C120.72 159.01 121.717 158.837 123.022 158.382C123.724 158.144 124.393 157.93 124.739 158.418C125.039 158.839 124.866 159.384 124.321 159.772C123.809 160.136 123.06 160.307 122.346 160.056L122.158 161.296C123.197 161.603 124.232 161.327 124.976 160.799C126.05 160.035 126.55 158.76 125.698 157.562C124.958 156.521 123.977 156.733 122.716 157.181C122.012 157.433 121.319 157.665 120.925 157.111C120.602 156.656 120.815 156.132 121.327 155.768C121.773 155.451 122.402 155.303 122.947 155.475ZM123.492 152.949L127.603 158.733L128.603 158.023L127 155.767C126.459 155.007 126.64 154.281 127.194 153.888C127.69 153.535 128.221 153.618 128.626 154.188L130.429 156.725L131.429 156.015L129.467 153.255C128.751 152.246 127.755 152.158 126.88 152.78C126.202 153.262 126.008 153.847 126.054 154.437L124.492 152.238L123.492 152.949ZM135.574 151.092L133.525 148.208L132.55 148.901L132.996 149.529C132.442 149.239 131.752 149.318 131.074 149.8C129.794 150.71 129.793 152.215 130.633 153.396C131.479 154.586 132.907 155.039 134.155 154.152C134.857 153.653 135.197 152.976 135.11 152.242C135.569 152.712 136.221 152.684 136.725 152.326C136.989 152.138 137.22 151.85 137.353 151.494L136.599 150.923C136.538 151.066 136.448 151.167 136.341 151.243C136.11 151.408 135.809 151.422 135.574 151.092ZM131.627 152.678C131.122 151.967 131.124 151.095 131.876 150.561C132.595 150.05 133.459 150.232 133.999 150.992C134.545 151.761 134.427 152.628 133.717 153.133C133.014 153.632 132.167 153.438 131.627 152.678ZM135.014 147.149L137.997 151.347L138.997 150.637L137.435 148.439C136.901 147.687 137.06 147.001 137.647 146.584C137.804 146.473 138.009 146.377 138.23 146.319L137.723 145.274C137.484 145.357 137.262 145.465 137.08 145.594C136.576 145.952 136.297 146.487 136.459 147.118L135.989 146.457L135.014 147.149ZM138.214 144.876L141.197 149.074L142.197 148.363L140.564 146.066C140.012 145.289 140.152 144.68 140.639 144.334C141.152 143.97 141.607 144.156 141.983 144.685L143.792 147.23L144.783 146.525L143.151 144.228C142.599 143.451 142.747 142.836 143.234 142.49C143.746 142.126 144.202 142.312 144.578 142.841L146.386 145.386L147.378 144.681L145.446 141.963C144.724 140.946 143.821 140.742 142.928 141.377C142.3 141.823 142.049 142.449 142.171 143.146C141.591 142.75 140.945 142.786 140.333 143.22C139.747 143.637 139.544 144.192 139.635 144.811L139.189 144.183L138.214 144.876ZM151.525 139.757L149.475 136.873L148.5 137.566L148.947 138.194C148.392 137.904 147.703 137.984 147.025 138.465C145.744 139.376 145.744 140.88 146.584 142.062C147.429 143.252 148.858 143.705 150.105 142.818C150.808 142.319 151.148 141.642 151.061 140.908C151.52 141.378 152.171 141.35 152.675 140.992C152.94 140.804 153.17 140.516 153.303 140.16L152.549 139.589C152.489 139.732 152.399 139.833 152.292 139.909C152.06 140.073 151.76 140.088 151.525 139.757ZM147.578 141.343C147.073 140.633 147.075 139.761 147.827 139.226C148.546 138.715 149.409 138.898 149.949 139.658C150.495 140.427 150.378 141.294 149.667 141.799C148.965 142.298 148.118 142.104 147.578 141.343Z" fill="white"/>
<path d="M178.613 141.124L179.413 140.555L178.449 134.64L177.964 133.957L174.284 136.572L174.79 137.284L177.714 135.207L178.613 141.124ZM182.655 138.251L183.456 137.682L182.492 131.768L182.006 131.085L178.326 133.7L178.833 134.412L181.756 132.335L182.655 138.251ZM185.672 131.066C185.209 131.395 184.919 131.811 184.828 132.274L183.8 130.827L186.106 129.188L185.626 128.513L182.695 130.595L184.726 133.452L185.313 133.035C185.314 132.57 185.556 132.133 185.968 131.84C186.636 131.365 187.322 131.552 187.739 132.14C188.131 132.691 188.11 133.424 187.434 133.904C186.942 134.254 186.262 134.339 185.726 133.958L185.284 134.736C186.12 135.291 187.136 135.133 187.885 134.601C188.994 133.813 189.149 132.553 188.45 131.569C187.834 130.702 186.759 130.294 185.672 131.066ZM191.81 128.85L189.576 125.706L188.819 126.243L188.782 131.045L189.237 131.684L191.558 130.035L192.45 131.291L193.177 130.774L192.285 129.518L193.203 128.866L192.728 128.197L191.81 128.85ZM189.496 130.494L189.517 127.163L191.083 129.366L189.496 130.494Z" fill="white"/>
<path opacity="0.5" d="M117.594 201.162L117.098 200.464L113.903 202.735L117.557 207.877L120.825 205.554L120.33 204.856L117.803 206.652L116.712 205.116L118.791 203.639L118.295 202.941L116.216 204.419L115.141 202.905L117.594 201.162ZM126.018 201.864L122.184 200.576L122.21 196.832L121.328 197.459L121.337 200.271L118.677 199.343L117.788 199.974L121.339 201.176L121.295 205.221L122.205 204.573L122.193 201.476L125.107 202.512L126.018 201.864ZM124.799 194.992L122.977 196.287L126.631 201.428L127.373 200.901L125.885 198.808L126.862 198.114C127.942 197.346 127.982 196.158 127.408 195.35C126.87 194.593 125.864 194.235 124.799 194.992ZM125.405 198.132L124.205 196.443L125.24 195.707C125.813 195.3 126.368 195.458 126.681 195.899C127.01 196.362 126.999 196.999 126.382 197.438L125.405 198.132Z" fill="white"/>
<path opacity="0.5" d="M157.185 178.824C156.215 179.513 154.867 179.42 153.959 178.142C153.087 176.916 153.35 175.59 154.371 174.865C154.988 174.426 155.736 174.326 156.432 174.638L156.714 173.775C155.747 173.378 154.766 173.523 153.907 174.133C152.431 175.182 152.077 177.081 153.241 178.719C154.327 180.247 156.104 180.664 157.625 179.583C158.683 178.832 159.11 177.721 158.828 176.407L157.978 176.58C158.185 177.494 157.912 178.307 157.185 178.824ZM160.388 169.705L161.751 174.905L157.281 171.913L156.481 172.481L162.132 176.204L162.837 175.702L161.189 169.136L160.388 169.705ZM165.27 166.236L166.633 171.436L162.163 168.444L161.362 169.013L167.014 172.735L167.719 172.234L166.071 165.667L165.27 166.236Z" fill="white"/>
<path d="M130.308 191.08C129.096 191.941 129.103 193.351 130.22 194.923L130.335 195.085C131.451 196.657 132.781 197.127 133.993 196.266C135.197 195.41 135.19 194 134.073 192.428L133.958 192.266C132.842 190.695 131.512 190.224 130.308 191.08ZM131.076 194.558L130.962 194.396C130.1 193.184 130.024 192.299 130.788 191.756C131.544 191.218 132.363 191.576 133.224 192.788L133.339 192.95C134.2 194.162 134.269 195.053 133.512 195.59C132.749 196.133 131.938 195.77 131.076 194.558ZM136.628 190.325C137.12 189.711 137.178 188.906 136.766 188.326C136.239 187.584 135.216 187.592 134.401 188.171C133.725 188.652 133.306 189.447 133.427 190.301L134.194 190.275C134.137 189.697 134.419 189.176 134.823 188.889C135.271 188.571 135.812 188.539 136.141 189.002C136.543 189.568 136.273 190.246 135.414 190.857L135.837 191.452L136.05 191.3C136.916 190.684 137.643 190.665 138.045 191.231C138.4 191.73 138.167 192.305 137.668 192.66C137.176 193.009 136.557 193.073 135.954 192.706L135.553 193.51C136.41 193.985 137.366 193.869 138.101 193.347C139.004 192.705 139.388 191.581 138.762 190.699C138.292 190.038 137.511 189.919 136.628 190.325ZM138.924 184.803L140.697 191.436L140.065 191.885L138.292 185.252L138.924 184.803ZM143.142 185.697C143.633 185.082 143.692 184.278 143.28 183.697C142.752 182.956 141.73 182.964 140.915 183.543C140.239 184.023 139.82 184.818 139.941 185.672L140.707 185.647C140.65 185.069 140.932 184.548 141.336 184.26C141.784 183.942 142.326 183.911 142.655 184.374C143.057 184.939 142.787 185.617 141.927 186.228L142.35 186.823L142.563 186.672C143.43 186.056 144.157 186.037 144.559 186.602C144.914 187.102 144.681 187.676 144.181 188.031C143.689 188.381 143.071 188.444 142.468 188.077L142.066 188.882C142.923 189.356 143.88 189.24 144.614 188.718C145.518 188.076 145.902 186.952 145.276 186.071C144.806 185.41 144.025 185.29 143.142 185.697ZM145.035 180.615C143.823 181.476 143.83 182.886 144.947 184.458L145.062 184.62C146.179 186.192 147.508 186.662 148.72 185.801C149.925 184.945 149.918 183.535 148.801 181.963L148.686 181.802C147.569 180.23 146.24 179.759 145.035 180.615ZM145.804 184.093L145.689 183.931C144.828 182.719 144.751 181.834 145.515 181.291C146.272 180.753 147.09 181.112 147.951 182.324L148.066 182.485C148.927 183.697 148.996 184.588 148.24 185.125C147.476 185.668 146.665 185.305 145.804 184.093Z" fill="white"/>
<path d="M169.517 163.218C168.305 164.079 168.312 165.489 169.429 167.061L169.543 167.222C170.66 168.794 171.99 169.265 173.202 168.403C174.406 167.547 174.399 166.137 173.282 164.566L173.167 164.404C172.05 162.832 170.721 162.362 169.517 163.218ZM170.285 166.695L170.171 166.533C169.309 165.321 169.233 164.436 169.997 163.893C170.753 163.356 171.572 163.714 172.433 164.926L172.548 165.087C173.409 166.299 173.478 167.19 172.721 167.728C171.958 168.27 171.147 167.907 170.285 166.695ZM175.837 162.463C176.329 161.848 176.387 161.044 175.975 160.463C175.448 159.721 174.425 159.729 173.61 160.309C172.934 160.789 172.515 161.584 172.636 162.438L173.403 162.413C173.346 161.834 173.628 161.313 174.032 161.026C174.48 160.708 175.021 160.677 175.35 161.14C175.752 161.705 175.482 162.383 174.623 162.994L175.046 163.589L175.259 163.438C176.125 162.822 176.852 162.803 177.254 163.368C177.609 163.868 177.376 164.442 176.877 164.797C176.385 165.147 175.766 165.21 175.163 164.843L174.762 165.648C175.619 166.122 176.575 166.006 177.31 165.484C178.213 164.842 178.597 163.718 177.971 162.837C177.501 162.176 176.72 162.056 175.837 162.463ZM180.203 163.362L180.93 162.845L177.329 157.777L175.838 158.836L176.318 159.512L177.082 158.969L180.203 163.362ZM182.407 160.779L182.937 158.413C183.065 157.846 183.216 156.954 182.652 156.161C181.973 155.206 180.872 155.149 179.983 155.78C179.116 156.396 178.646 157.571 179.417 158.78L180.132 158.339C179.634 157.576 179.903 156.865 180.424 156.495C180.902 156.156 181.542 156.154 181.954 156.734C182.377 157.329 182.216 158.129 182.095 158.69L181.495 161.471L181.954 162.118L185.436 159.643L184.956 158.968L182.407 160.779Z" fill="white"/>
<path d="M104.497 186.254C105.566 186.983 106.9 187.208 108.15 186.872C107.421 187.941 107.195 189.275 107.532 190.524C106.463 189.795 105.129 189.569 103.88 189.906C104.609 188.837 104.834 187.503 104.497 186.254Z" fill="white"/>
<path d="M127.789 169.702C128.858 170.431 130.192 170.656 131.442 170.32C130.713 171.389 130.487 172.723 130.824 173.972C129.755 173.243 128.421 173.017 127.171 173.354C127.901 172.285 128.126 170.951 127.789 169.702Z" fill="white"/>
<path d="M151.082 153.15C152.151 153.879 153.485 154.105 154.735 153.768C154.006 154.837 153.78 156.171 154.117 157.42C153.048 156.691 151.714 156.465 150.464 156.802C151.194 155.733 151.419 154.399 151.082 153.15Z" fill="white"/>
<path d="M109.544 182.668C110.613 183.397 111.947 183.623 113.197 183.286C112.468 184.355 112.242 185.689 112.579 186.938C111.51 186.209 110.176 185.984 108.926 186.321C109.655 185.252 109.881 183.917 109.544 182.668Z" fill="white"/>
<path d="M132.836 166.116C133.905 166.845 135.239 167.071 136.489 166.734C135.76 167.803 135.534 169.137 135.871 170.387C134.802 169.657 133.468 169.432 132.218 169.769C132.947 168.7 133.173 167.366 132.836 166.116Z" fill="white"/>
<path d="M156.129 149.564C157.198 150.293 158.532 150.519 159.782 150.182C159.053 151.251 158.827 152.585 159.164 153.835C158.095 153.105 156.761 152.88 155.511 153.217C156.24 152.148 156.466 150.814 156.129 149.564Z" fill="white"/>
<path d="M114.591 179.08C115.66 179.809 116.994 180.035 118.244 179.698C117.514 180.767 117.289 182.101 117.626 183.351C116.557 182.622 115.223 182.396 113.973 182.733C114.702 181.664 114.928 180.33 114.591 179.08Z" fill="white"/>
<path d="M137.884 162.531C138.953 163.26 140.287 163.486 141.537 163.149C140.807 164.218 140.582 165.552 140.919 166.801C139.85 166.072 138.516 165.846 137.266 166.183C137.995 165.114 138.221 163.78 137.884 162.531Z" fill="white"/>
<path d="M161.175 145.979C162.244 146.708 163.578 146.934 164.828 146.597C164.098 147.666 163.873 149 164.21 150.249C163.141 149.52 161.807 149.294 160.557 149.631C161.286 148.562 161.512 147.228 161.175 145.979Z" fill="white"/>
<path d="M119.637 175.495C120.706 176.224 122.04 176.45 123.289 176.113C122.56 177.182 122.335 178.516 122.671 179.765C121.603 179.036 120.268 178.81 119.019 179.147C119.748 178.078 119.974 176.744 119.637 175.495Z" fill="white"/>
<path d="M142.93 158.943C143.999 159.672 145.333 159.898 146.582 159.561C145.853 160.63 145.628 161.964 145.964 163.213C144.896 162.484 143.561 162.258 142.312 162.595C143.041 161.526 143.267 160.192 142.93 158.943Z" fill="white"/>
<path d="M166.223 142.393C167.292 143.123 168.626 143.348 169.875 143.011C169.146 144.08 168.921 145.414 169.257 146.664C168.188 145.935 166.854 145.709 165.605 146.046C166.334 144.977 166.56 143.643 166.223 142.393Z" fill="white"/>
<rect x="57.6738" y="124.879" width="30.9553" height="20.4782" transform="rotate(-35.397 57.6738 124.879)" fill="white"/>
<defs>
<filter id="filter0_f_0_194" x="9" y="212" width="298" height="68" filterUnits="userSpaceOnUse" color-interpolation-filters="sRGB">
<feFlood flood-opacity="0" result="BackgroundImageFix"/>
<feBlend mode="normal" in="SourceGraphic" in2="BackgroundImageFix" result="shape"/>
<feGaussianBlur stdDeviation="12.5" result="effect1_foregroundBlur_0_194"/>
</filter>
<linearGradient id="paint0_linear_0_194" x1="35.9838" y1="125.28" x2="228.376" y2="272.814" gradientUnits="userSpaceOnUse">
<stop stop-color="#CFADFF"/>
<stop offset="1" stop-color="#935FDC"/>
</linearGradient>
<linearGradient id="paint1_linear_0_194" x1="182.513" y1="40.847" x2="189.986" y2="51.3635" gradientUnits="userSpaceOnUse">
<stop stop-color="white"/>
<stop offset="1" stop-color="#F4F4F4"/>
</linearGradient>
<clipPath id="clip0_0_194">
<rect width="39.9007" height="12.9012" fill="white" transform="translate(166.25 52.403) rotate(-35.397)"/>
</clipPath>
</defs>
</svg>
