<svg width="37" height="29" viewBox="0 0 37 29" fill="none" xmlns="http://www.w3.org/2000/svg">
<g id="Group 2610450">
<path id="Rectangle 9348" d="M0.5 4C0.5 2.06701 2.067 0.5 4 0.5H30.0351C31.9681 0.5 33.5351 2.067 33.5351 4V24.2171C33.5351 26.1501 31.9681 27.7171 30.0351 27.7171H4C2.067 27.7171 0.5 26.1501 0.5 24.2171V4Z" fill="#7BE0B8" stroke="#212529"/>
<path id="Rectangle 9349" d="M23.9998 8.5C20.9624 8.5 18.5 10.9624 18.5 13.9998C18.5 17.0373 20.9623 19.4996 23.9998 19.4996H30.9996C34.037 19.4996 36.4994 17.0373 36.4994 13.9998C36.4994 10.9624 34.037 8.5 30.9996 8.5H23.9998Z" fill="#7BE0B8" stroke="#212529"/>
<path id="Ellipse 887" d="M26.4998 13.9989C26.4998 15.3796 25.3805 16.4988 23.9999 16.4988C22.6192 16.4988 21.5 15.3796 21.5 13.9989C21.5 12.6183 22.6192 11.499 23.9999 11.499C25.3805 11.499 26.4998 12.6183 26.4998 13.9989Z" fill="#7BE0B8" stroke="#212529"/>
</g>
</svg>
