<svg width="22" height="21" viewBox="0 0 22 21" fill="none" xmlns="http://www.w3.org/2000/svg">
<path d="M14.7502 7.84501L12.0577 10.5L14.7502 13.155C14.8252 13.2252 14.8849 13.3099 14.9257 13.4041C14.9666 13.4983 14.9876 13.5999 14.9876 13.7025C14.9876 13.8052 14.9666 13.9067 14.9257 14.0009C14.8849 14.0951 14.8252 14.1798 14.7502 14.25C14.6801 14.3195 14.597 14.3745 14.5056 14.4118C14.4143 14.4492 14.3164 14.4681 14.2177 14.4675C14.021 14.4667 13.8324 14.3886 13.6927 14.25L11.0002 11.5575L8.34522 14.25C8.20552 14.3886 8.01697 14.4667 7.82022 14.4675C7.72151 14.4681 7.62367 14.4492 7.53229 14.4118C7.44091 14.3745 7.3578 14.3195 7.28772 14.25C7.14803 14.1095 7.06962 13.9194 7.06962 13.7213C7.06962 13.5231 7.14803 13.333 7.28772 13.1925L9.94272 10.5L7.28772 7.84501C7.16485 7.70153 7.10064 7.51697 7.10794 7.32821C7.11523 7.13946 7.19348 6.9604 7.32705 6.82683C7.46062 6.69326 7.63967 6.61501 7.82843 6.60772C8.01719 6.60043 8.20174 6.66464 8.34522 6.78751L11.0002 9.4425L13.6552 6.78751C13.7247 6.71561 13.8076 6.65809 13.8992 6.61823C13.9909 6.57838 14.0895 6.55697 14.1895 6.55523C14.2894 6.55349 14.3887 6.57145 14.4817 6.60809C14.5747 6.64472 14.6596 6.69932 14.7315 6.76875C14.8034 6.83819 14.8609 6.92111 14.9007 7.01277C14.9406 7.10444 14.962 7.20306 14.9637 7.303C14.9655 7.40294 14.9475 7.50224 14.9109 7.59524C14.8742 7.68823 14.8197 7.77311 14.7502 7.84501ZM18.4252 17.925C16.9567 19.3933 15.0858 20.3933 13.049 20.7983C11.0123 21.2034 8.90112 20.9954 6.98255 20.2006C5.06399 19.4059 3.42418 18.0601 2.27047 16.3334C1.11676 14.6067 0.500977 12.5767 0.500977 10.5C0.500977 8.42335 1.11676 6.39332 2.27047 4.66663C3.42418 2.93994 5.06399 1.59412 6.98255 0.799372C8.90112 0.00462055 11.0123 -0.203377 13.049 0.201681C15.0858 0.606739 16.9567 1.60666 18.4252 3.075C19.4003 4.05003 20.1739 5.20759 20.7016 6.48158C21.2293 7.75557 21.501 9.12104 21.501 10.5C21.501 11.879 21.2293 13.2444 20.7016 14.5184C20.1739 15.7924 19.4003 16.95 18.4252 17.925ZM17.3677 4.1325C16.1078 2.87696 14.5041 2.02289 12.7591 1.67816C11.0142 1.33342 9.20616 1.51348 7.56345 2.19558C5.92073 2.87769 4.51697 4.03126 3.52942 5.51062C2.54187 6.98999 2.01482 8.7288 2.01482 10.5075C2.01482 12.2862 2.54187 14.025 3.52942 15.5044C4.51697 16.9838 5.92073 18.1373 7.56345 18.8194C9.20616 19.5015 11.0142 19.6816 12.7591 19.3368C14.5041 18.9921 16.1078 18.1381 17.3677 16.8825C18.2068 16.0464 18.8725 15.0528 19.3267 13.9589C19.781 12.8649 20.0148 11.692 20.0148 10.5075C20.0148 9.32298 19.781 8.1501 19.3267 7.05614C18.8725 5.96217 18.2068 4.96864 17.3677 4.1325Z" fill="white"/>
</svg>
