<svg width="68" height="62" viewBox="0 0 68 62" fill="none" xmlns="http://www.w3.org/2000/svg">
<g id="Group 2610788">
<g id="Group" opacity="0.4">
<g id="Group_2">
<path id="Vector" d="M59.2692 46.7369C56.1537 49.1829 52.2746 50.4959 48.361 51.1395C48.0177 51.1995 47.6746 51.2511 47.3313 51.294C46.5395 51.4056 45.7448 51.492 44.9482 51.5603C42.8628 51.7392 41.2638 53.4855 41.2638 55.5784V61.081C41.2638 61.913 40.2321 62.3217 39.6822 61.6975C37.7149 59.4629 34.5483 57.515 31.2312 55.9198C30.2615 55.4477 29.2745 55.0102 28.2961 54.6068C22.8378 52.324 17.7829 51.0366 17.7829 51.0366C16.942 50.8393 16.1093 50.6075 15.294 50.333C15.2425 50.3158 15.1996 50.3073 15.1565 50.2901C14.9248 50.2129 14.7018 50.1356 14.4785 50.0584C14.41 50.0325 14.3841 50.024 14.3841 50.024V50.0155C10.9427 48.7538 7.77595 46.7972 5.43311 44.0081C2.1375 40.0774 0.747203 34.8852 0.223721 29.7874C-0.445764 23.1964 0.275294 16.0645 3.92272 10.3832C7.62147 4.60748 13.8008 1.48354 20.4606 0.496628C26.1419 -0.353001 31.9176 0.118908 37.6677 0.239246C44.6792 0.393724 52.2145 0.153291 58.076 4.01524C61.4231 6.22079 63.8861 9.6193 65.3793 13.344C66.8812 17.0686 67.4563 21.1022 67.542 25.1187C67.7224 33.1169 65.5769 41.7936 59.2692 46.7369Z" fill="url(#paint0_linear_1237_792)"/>
<path id="Vector_2" opacity="0.51" d="M18.6076 39.7519C20.4613 41.2073 22.7695 41.9885 25.0981 42.3715C25.3024 42.4073 25.5066 42.4378 25.7109 42.4635C25.7228 42.4652 25.7349 42.4669 25.7468 42.4686C27.778 42.7516 29.3213 44.4291 29.3213 46.4802V47.3838C29.3213 48.1741 30.2632 48.5993 30.8419 48.061C32.0065 46.9775 33.6164 46.0214 35.291 45.216C35.868 44.9352 36.4554 44.6746 37.0374 44.4347C40.2851 43.0763 43.2928 42.3105 43.2928 42.3105C43.7933 42.1931 44.2887 42.055 44.7737 41.8918C44.8044 41.8817 44.8299 41.8766 44.8555 41.8664C44.9933 41.8204 45.1262 41.7744 45.2589 41.7287C45.2998 41.7134 45.3151 41.7083 45.3151 41.7083V41.7032C47.3628 40.9526 49.247 39.7882 50.6412 38.1287C52.6022 35.79 53.4295 32.7004 53.7409 29.667C54.1392 25.7453 53.7102 21.5017 51.54 18.1211C49.339 14.6844 45.6623 12.8255 41.6996 12.2384C38.319 11.7328 34.8825 12.0137 31.461 12.0851C27.2889 12.1771 22.8054 12.034 19.3175 14.3321C17.326 15.6444 15.8604 17.6667 14.9718 19.8829C14.0781 22.0991 13.736 24.4993 13.6849 26.8891C13.5776 31.6479 14.8544 36.8105 18.6076 39.7519Z" fill="url(#paint1_linear_1237_792)"/>
<path id="Vector_3" opacity="0.51" d="M36.93 51.91L31.2315 55.9199C30.2618 55.4477 29.2749 55.0102 28.2964 54.6068C22.8381 52.324 17.7832 51.0366 17.7832 51.0366C17.7832 51.0366 23.1902 52.4507 36.93 51.91Z" fill="url(#paint2_linear_1237_792)"/>
</g>
<g id="Group_3">
<path id="Vector_4" d="M18.6066 37.5102C20.4604 38.9657 22.7686 39.747 25.0971 40.1298C25.3015 40.1656 25.5056 40.1961 25.7099 40.2218C25.7218 40.2235 25.7339 40.2252 25.7458 40.2269C27.777 40.5099 29.3203 42.1874 29.3203 44.2385V45.1421C29.3203 45.9324 30.2622 46.3576 30.8409 45.8193C32.0055 44.7358 33.6154 43.7796 35.29 42.9743C35.867 42.6935 36.4544 42.4329 37.0365 42.193C40.2841 40.8346 43.2919 40.0688 43.2919 40.0688C43.7923 39.9514 44.2877 39.8133 44.7727 39.6502C44.8035 39.64 44.8289 39.6349 44.8546 39.6247C44.9923 39.5787 45.1253 39.5327 45.2579 39.487C45.2989 39.4717 45.3141 39.4666 45.3141 39.4666V39.4615C47.3618 38.7109 49.246 37.5465 50.6402 35.887C52.6012 33.5483 53.4286 30.4587 53.7399 27.4253C54.1382 23.5036 53.7092 19.26 51.539 15.8794C49.3381 12.4427 45.6613 10.5838 41.6987 9.99668C38.3181 9.49111 34.8815 9.77198 31.46 9.84341C27.2879 9.93542 22.8044 9.79232 19.3165 12.0904C17.325 13.4027 15.8594 15.425 14.9708 17.6412C14.0771 19.8574 13.735 22.2576 13.6839 24.6474C13.5766 29.4062 14.8534 34.5688 18.6066 37.5102Z" fill="white"/>
<path id="Vector_5" opacity="0.51" d="M31.8994 40.5885L35.2902 42.9744C35.8672 42.6935 36.4546 42.433 37.0367 42.193C40.2843 40.8347 43.292 40.0688 43.292 40.0688C43.292 40.0688 40.0749 40.9102 31.8994 40.5885Z" fill="url(#paint3_linear_1237_792)"/>
</g>
<path id="Vector_6" opacity="0.51" d="M23.1438 29.704C25.2883 29.704 27.0268 27.9655 27.0268 25.821C27.0268 23.6765 25.2883 21.938 23.1438 21.938C20.9992 21.938 19.2607 23.6765 19.2607 25.821C19.2607 27.9655 20.9992 29.704 23.1438 29.704Z" fill="url(#paint4_linear_1237_792)"/>
<path id="Vector_7" opacity="0.51" d="M33.7766 29.704C35.9211 29.704 37.6596 27.9655 37.6596 25.821C37.6596 23.6765 35.9211 21.938 33.7766 21.938C31.632 21.938 29.8936 23.6765 29.8936 25.821C29.8936 27.9655 31.632 29.704 33.7766 29.704Z" fill="url(#paint5_linear_1237_792)"/>
<path id="Vector_8" opacity="0.51" d="M44.4084 29.704C46.5529 29.704 48.2914 27.9655 48.2914 25.821C48.2914 23.6765 46.5529 21.938 44.4084 21.938C42.2639 21.938 40.5254 23.6765 40.5254 25.821C40.5254 27.9655 42.2639 29.704 44.4084 29.704Z" fill="url(#paint6_linear_1237_792)"/>
</g>
</g>
<defs>
<linearGradient id="paint0_linear_1237_792" x1="11.9578" y1="88.8911" x2="37.7701" y2="14.4554" gradientUnits="userSpaceOnUse">
<stop stop-color="#19004D"/>
<stop offset="1" stop-color="#A58CF4"/>
</linearGradient>
<linearGradient id="paint1_linear_1237_792" x1="33.5984" y1="18.5004" x2="34.2939" y2="52.8146" gradientUnits="userSpaceOnUse">
<stop offset="0.6056" stop-color="#19004D" stop-opacity="0.9118"/>
<stop offset="0.6491" stop-color="#4C338A" stop-opacity="0.6288"/>
<stop offset="0.6941" stop-color="#7C63C3" stop-opacity="0.3351"/>
<stop offset="0.7276" stop-color="#9A81E7" stop-opacity="0.1167"/>
<stop offset="0.7456" stop-color="#A58CF4" stop-opacity="0"/>
</linearGradient>
<linearGradient id="paint2_linear_1237_792" x1="25.8054" y1="47.2072" x2="29.6786" y2="57.8584" gradientUnits="userSpaceOnUse">
<stop offset="0.5125" stop-color="#19004D" stop-opacity="0.9118"/>
<stop offset="0.5426" stop-color="#1E0553" stop-opacity="0.8007"/>
<stop offset="0.583" stop-color="#2C1364" stop-opacity="0.6518"/>
<stop offset="0.6293" stop-color="#442B80" stop-opacity="0.4814"/>
<stop offset="0.6798" stop-color="#654CA7" stop-opacity="0.295"/>
<stop offset="0.7333" stop-color="#8E75D9" stop-opacity="0.0978"/>
<stop offset="0.7599" stop-color="#A58CF4" stop-opacity="0"/>
</linearGradient>
<linearGradient id="paint3_linear_1237_792" x1="38.5187" y1="37.7902" x2="36.2141" y2="44.1279" gradientUnits="userSpaceOnUse">
<stop offset="0.5125" stop-color="#19004D" stop-opacity="0.9118"/>
<stop offset="0.5426" stop-color="#1E0553" stop-opacity="0.8007"/>
<stop offset="0.583" stop-color="#2C1364" stop-opacity="0.6518"/>
<stop offset="0.6293" stop-color="#442B80" stop-opacity="0.4814"/>
<stop offset="0.6798" stop-color="#654CA7" stop-opacity="0.295"/>
<stop offset="0.7333" stop-color="#8E75D9" stop-opacity="0.0978"/>
<stop offset="0.7599" stop-color="#A58CF4" stop-opacity="0"/>
</linearGradient>
<linearGradient id="paint4_linear_1237_792" x1="19.7692" y1="33.6086" x2="28.0835" y2="14.422" gradientUnits="userSpaceOnUse">
<stop offset="0.2667" stop-color="#19004D" stop-opacity="0.9118"/>
<stop offset="0.3139" stop-color="#301769" stop-opacity="0.7934"/>
<stop offset="0.4227" stop-color="#6249A4" stop-opacity="0.5205"/>
<stop offset="0.5155" stop-color="#866DD0" stop-opacity="0.2878"/>
<stop offset="0.5876" stop-color="#9D84EA" stop-opacity="0.1069"/>
<stop offset="0.6302" stop-color="#A58CF4" stop-opacity="0"/>
</linearGradient>
<linearGradient id="paint5_linear_1237_792" x1="30.402" y1="33.6086" x2="38.7162" y2="14.422" gradientUnits="userSpaceOnUse">
<stop offset="0.2667" stop-color="#19004D" stop-opacity="0.9118"/>
<stop offset="0.3139" stop-color="#301769" stop-opacity="0.7934"/>
<stop offset="0.4227" stop-color="#6249A4" stop-opacity="0.5205"/>
<stop offset="0.5155" stop-color="#866DD0" stop-opacity="0.2878"/>
<stop offset="0.5876" stop-color="#9D84EA" stop-opacity="0.1069"/>
<stop offset="0.6302" stop-color="#A58CF4" stop-opacity="0"/>
</linearGradient>
<linearGradient id="paint6_linear_1237_792" x1="41.0339" y1="33.6086" x2="49.3481" y2="14.422" gradientUnits="userSpaceOnUse">
<stop offset="0.2667" stop-color="#19004D" stop-opacity="0.9118"/>
<stop offset="0.3139" stop-color="#301769" stop-opacity="0.7934"/>
<stop offset="0.4227" stop-color="#6249A4" stop-opacity="0.5205"/>
<stop offset="0.5155" stop-color="#866DD0" stop-opacity="0.2878"/>
<stop offset="0.5876" stop-color="#9D84EA" stop-opacity="0.1069"/>
<stop offset="0.6302" stop-color="#A58CF4" stop-opacity="0"/>
</linearGradient>
</defs>
</svg>
