<svg width="156" height="143" viewBox="0 0 156 143" fill="none" xmlns="http://www.w3.org/2000/svg">
<g id="Group" opacity="0.4">
<g id="Group_2">
<path id="Vector" d="M136.701 107.796C129.516 113.438 120.569 116.466 111.542 117.951C110.751 118.089 109.959 118.208 109.167 118.307C107.341 118.565 105.508 118.764 103.671 118.921C98.8609 119.334 95.1729 123.362 95.1729 128.189V140.88C95.1729 142.799 92.7933 143.742 91.525 142.302C86.9876 137.148 79.6841 132.656 72.0332 128.976C69.7966 127.887 67.5203 126.878 65.2636 125.948C52.6743 120.683 41.0153 117.713 41.0153 117.713C39.0758 117.258 37.1553 116.724 35.275 116.091C35.156 116.051 35.0572 116.031 34.9578 115.992C34.4233 115.814 33.909 115.635 33.3941 115.457C33.236 115.397 33.1763 115.378 33.1763 115.378V115.358C25.2389 112.448 17.9348 107.935 12.5312 101.503C4.93005 92.4365 1.72339 80.461 0.516001 68.7032C-1.02813 53.5014 0.634952 37.052 9.04756 23.9484C17.5786 10.6269 31.831 3.42172 47.1913 1.14545C60.295 -0.81418 73.6164 0.274256 86.8787 0.55181C103.05 0.908106 120.43 0.353558 133.949 9.26096C141.67 14.3479 147.35 22.1865 150.794 30.7772C154.258 39.368 155.585 48.6713 155.782 57.935C156.198 76.3825 151.25 96.3949 136.701 107.796Z" fill="url(#paint0_linear_1242_3491)"/>
<path id="Vector_2" opacity="0.51" d="M42.918 91.6864C47.1936 95.0432 52.5174 96.8448 57.8881 97.7283C58.3594 97.811 58.8302 97.8813 59.3015 97.9405C59.3289 97.9444 59.3568 97.9483 59.3842 97.9522C64.0691 98.6051 67.6287 102.474 67.6287 107.205V109.289C67.6287 111.112 69.8011 112.092 71.1358 110.851C73.822 108.352 77.5351 106.147 81.3974 104.289C82.7282 103.641 84.0831 103.04 85.4256 102.487C92.9162 99.354 99.8534 97.5876 99.8534 97.5876C101.008 97.3167 102.15 96.9984 103.269 96.622C103.34 96.5986 103.398 96.5868 103.458 96.5634C103.775 96.4573 104.082 96.3512 104.388 96.2456C104.482 96.2104 104.518 96.1987 104.518 96.1987V96.187C109.24 94.4557 113.586 91.7701 116.802 87.9425C121.325 82.5483 123.233 75.4224 123.951 68.426C124.87 59.3807 123.88 49.5932 118.875 41.796C113.799 33.8692 105.318 29.582 96.1787 28.2277C88.3815 27.0616 80.4553 27.7095 72.5638 27.8742C62.941 28.0864 52.6 27.7564 44.5554 33.0567C39.9621 36.0835 36.5818 40.7478 34.5322 45.8593C32.471 50.9709 31.6819 56.5069 31.564 62.0189C31.3166 72.9948 34.2614 84.9022 42.918 91.6864Z" fill="url(#paint1_linear_1242_3491)"/>
<path id="Vector_3" opacity="0.51" d="M85.1763 119.728L72.033 128.977C69.7964 127.888 67.5201 126.879 65.2634 125.948C52.6741 120.683 41.0151 117.714 41.0151 117.714C41.0151 117.714 53.4861 120.975 85.1763 119.728Z" fill="url(#paint2_linear_1242_3491)"/>
</g>
<g id="Group_3">
<path id="Vector_4" d="M42.918 86.5167C47.1936 89.8736 52.5174 91.6757 57.8881 92.5586C58.3594 92.6413 58.8302 92.7117 59.3015 92.7709C59.3289 92.7748 59.3568 92.7787 59.3842 92.7826C64.0691 93.4354 67.6287 97.3044 67.6287 102.035V104.119C67.6287 105.942 69.8011 106.923 71.1358 105.681C73.822 103.182 77.5351 100.977 81.3974 99.1194C82.7282 98.4716 84.0831 97.8707 85.4256 97.3173C92.9162 94.1843 99.8534 92.4179 99.8534 92.4179C101.008 92.147 102.15 91.8287 103.269 91.4523C103.34 91.4289 103.398 91.4171 103.458 91.3937C103.775 91.2876 104.082 91.1815 104.388 91.0759C104.482 91.0407 104.518 91.029 104.518 91.029V91.0173C109.24 89.2861 113.586 86.6004 116.802 82.7728C121.325 77.3786 123.233 70.2527 123.951 63.2564C124.87 54.211 123.88 44.4235 118.875 36.6263C113.799 28.6996 105.318 24.4123 96.1787 23.058C88.3815 21.892 80.4553 22.5398 72.5638 22.7045C62.941 22.9167 52.6 22.5867 44.5554 27.887C39.9621 30.9139 36.5818 35.5781 34.5322 40.6896C32.471 45.8012 31.6819 51.3372 31.564 56.8492C31.3166 67.8251 34.2614 79.7325 42.918 86.5167Z" fill="white"/>
<path id="Vector_5" opacity="0.51" d="M73.5771 93.6162L81.3978 99.1192C82.7286 98.4714 84.0834 97.8705 85.4259 97.3171C92.9165 94.1841 99.8537 92.4177 99.8537 92.4177C99.8537 92.4177 92.4335 94.3584 73.5771 93.6162Z" fill="url(#paint3_linear_1242_3491)"/>
</g>
<path id="Vector_6" opacity="0.51" d="M53.3798 68.5113C58.3261 68.5113 62.3358 64.5016 62.3358 59.5554C62.3358 54.6091 58.3261 50.5994 53.3798 50.5994C48.4336 50.5994 44.4238 54.6091 44.4238 59.5554C44.4238 64.5016 48.4336 68.5113 53.3798 68.5113Z" fill="url(#paint4_linear_1242_3491)"/>
<path id="Vector_7" opacity="0.51" d="M77.9033 68.5113C82.8495 68.5113 86.8592 64.5016 86.8592 59.5554C86.8592 54.6091 82.8495 50.5994 77.9033 50.5994C72.957 50.5994 68.9473 54.6091 68.9473 59.5554C68.9473 64.5016 72.957 68.5113 77.9033 68.5113Z" fill="url(#paint5_linear_1242_3491)"/>
<path id="Vector_8" opacity="0.51" d="M102.427 68.5113C107.373 68.5113 111.383 64.5016 111.383 59.5554C111.383 54.6091 107.373 50.5994 102.427 50.5994C97.4809 50.5994 93.4712 54.6091 93.4712 59.5554C93.4712 64.5016 97.4809 68.5113 102.427 68.5113Z" fill="url(#paint6_linear_1242_3491)"/>
</g>
<defs>
<linearGradient id="paint0_linear_1242_3491" x1="27.5801" y1="205.023" x2="87.115" y2="33.3406" gradientUnits="userSpaceOnUse">
<stop stop-color="#19004D"/>
<stop offset="1" stop-color="#A58CF4"/>
</linearGradient>
<linearGradient id="paint1_linear_1242_3491" x1="77.4936" y1="42.6708" x2="79.0978" y2="121.815" gradientUnits="userSpaceOnUse">
<stop offset="0.6056" stop-color="#19004D" stop-opacity="0.9118"/>
<stop offset="0.6491" stop-color="#4C338A" stop-opacity="0.6288"/>
<stop offset="0.6941" stop-color="#7C63C3" stop-opacity="0.3351"/>
<stop offset="0.7276" stop-color="#9A81E7" stop-opacity="0.1167"/>
<stop offset="0.7456" stop-color="#A58CF4" stop-opacity="0"/>
</linearGradient>
<linearGradient id="paint2_linear_1242_3491" x1="59.518" y1="108.881" x2="68.4512" y2="133.448" gradientUnits="userSpaceOnUse">
<stop offset="0.5125" stop-color="#19004D" stop-opacity="0.9118"/>
<stop offset="0.5426" stop-color="#1E0553" stop-opacity="0.8007"/>
<stop offset="0.583" stop-color="#2C1364" stop-opacity="0.6518"/>
<stop offset="0.6293" stop-color="#442B80" stop-opacity="0.4814"/>
<stop offset="0.6798" stop-color="#654CA7" stop-opacity="0.295"/>
<stop offset="0.7333" stop-color="#8E75D9" stop-opacity="0.0978"/>
<stop offset="0.7599" stop-color="#A58CF4" stop-opacity="0"/>
</linearGradient>
<linearGradient id="paint3_linear_1242_3491" x1="88.8443" y1="87.1622" x2="83.5288" y2="101.78" gradientUnits="userSpaceOnUse">
<stop offset="0.5125" stop-color="#19004D" stop-opacity="0.9118"/>
<stop offset="0.5426" stop-color="#1E0553" stop-opacity="0.8007"/>
<stop offset="0.583" stop-color="#2C1364" stop-opacity="0.6518"/>
<stop offset="0.6293" stop-color="#442B80" stop-opacity="0.4814"/>
<stop offset="0.6798" stop-color="#654CA7" stop-opacity="0.295"/>
<stop offset="0.7333" stop-color="#8E75D9" stop-opacity="0.0978"/>
<stop offset="0.7599" stop-color="#A58CF4" stop-opacity="0"/>
</linearGradient>
<linearGradient id="paint4_linear_1242_3491" x1="45.5966" y1="77.5171" x2="64.773" y2="33.264" gradientUnits="userSpaceOnUse">
<stop offset="0.2667" stop-color="#19004D" stop-opacity="0.9118"/>
<stop offset="0.3139" stop-color="#301769" stop-opacity="0.7934"/>
<stop offset="0.4227" stop-color="#6249A4" stop-opacity="0.5205"/>
<stop offset="0.5155" stop-color="#866DD0" stop-opacity="0.2878"/>
<stop offset="0.5876" stop-color="#9D84EA" stop-opacity="0.1069"/>
<stop offset="0.6302" stop-color="#A58CF4" stop-opacity="0"/>
</linearGradient>
<linearGradient id="paint5_linear_1242_3491" x1="70.1199" y1="77.5171" x2="89.2962" y2="33.264" gradientUnits="userSpaceOnUse">
<stop offset="0.2667" stop-color="#19004D" stop-opacity="0.9118"/>
<stop offset="0.3139" stop-color="#301769" stop-opacity="0.7934"/>
<stop offset="0.4227" stop-color="#6249A4" stop-opacity="0.5205"/>
<stop offset="0.5155" stop-color="#866DD0" stop-opacity="0.2878"/>
<stop offset="0.5876" stop-color="#9D84EA" stop-opacity="0.1069"/>
<stop offset="0.6302" stop-color="#A58CF4" stop-opacity="0"/>
</linearGradient>
<linearGradient id="paint6_linear_1242_3491" x1="94.6441" y1="77.5171" x2="113.82" y2="33.264" gradientUnits="userSpaceOnUse">
<stop offset="0.2667" stop-color="#19004D" stop-opacity="0.9118"/>
<stop offset="0.3139" stop-color="#301769" stop-opacity="0.7934"/>
<stop offset="0.4227" stop-color="#6249A4" stop-opacity="0.5205"/>
<stop offset="0.5155" stop-color="#866DD0" stop-opacity="0.2878"/>
<stop offset="0.5876" stop-color="#9D84EA" stop-opacity="0.1069"/>
<stop offset="0.6302" stop-color="#A58CF4" stop-opacity="0"/>
</linearGradient>
</defs>
</svg>
