<svg width="150" height="141" viewBox="0 0 150 141" fill="none" xmlns="http://www.w3.org/2000/svg">
<circle opacity="0.2" cx="79.7244" cy="70.2752" r="69.7752" stroke="#844FCF"/>
<path d="M8.41579 24.2109L10.6888 30.3537L16.8316 32.6267L10.6888 34.8998L8.41579 41.0425L6.14276 34.8998L0 32.6267L6.14276 30.3537L8.41579 24.2109Z" fill="#844FCF"/>
<path d="M135.943 121.531L138.176 127.566L144.211 129.799L138.176 132.032L135.943 138.067L133.71 132.032L127.676 129.799L133.71 127.566L135.943 121.531Z" fill="#844FCF"/>
<circle cx="79.7248" cy="70.2756" r="50.924" fill="white"/>
<circle cx="79.7248" cy="70.2756" r="50.924" fill="#844FCF"/>
<g opacity="0.2">
<circle cx="80.0909" cy="69.9112" r="19.2784" fill="#F2F5FA"/>
<circle cx="80.0909" cy="69.9112" r="19.2784" fill="url(#paint0_linear_11474_11650)"/>
</g>
<path d="M79.7254 28.0781C56.4222 28.0781 37.5312 46.9691 37.5312 70.2723C37.5312 87.1661 47.4596 101.741 61.7999 108.481C49.5628 102.315 41.1687 89.6383 41.1687 75.001C41.1687 54.3094 57.9426 37.5354 78.6342 37.5354C88.1852 37.5354 96.9015 41.1093 103.519 46.9928L109.916 40.7956C102.254 32.9492 91.5586 28.0781 79.7254 28.0781Z" fill="url(#paint1_linear_11474_11650)"/>
<path d="M79.7254 28.0781C56.4222 28.0781 37.5312 46.9691 37.5312 70.2723C37.5312 87.1661 47.4596 101.741 61.7999 108.481C49.5628 102.315 41.1687 89.6383 41.1687 75.001C41.1687 54.3094 57.9426 37.5354 78.6342 37.5354C88.1852 37.5354 96.9015 41.1093 103.519 46.9928L109.916 40.7956C102.254 32.9492 91.5586 28.0781 79.7254 28.0781Z" fill="url(#paint2_linear_11474_11650)"/>
<path d="M76.7198 63.3639L112.003 38.2656C104.486 48.8142 88.578 71.0025 85.0861 75.3674C82.2605 78.8994 78.2917 77.9062 75.7235 76.435C74.6381 75.8132 73.7548 74.874 73.224 73.7413C70.8608 68.6985 74.4158 64.7902 76.7198 63.3639Z" fill="white"/>
<defs>
<linearGradient id="paint0_linear_11474_11650" x1="61.5591" y1="52.2656" x2="105.971" y2="76.1524" gradientUnits="userSpaceOnUse">
<stop stop-color="#CFADFF"/>
<stop offset="1" stop-color="#935FDC"/>
</linearGradient>
<linearGradient id="paint1_linear_11474_11650" x1="37.5313" y1="90.1127" x2="108.71" y2="55.3736" gradientUnits="userSpaceOnUse">
<stop stop-color="#49D49D"/>
<stop offset="1" stop-color="#844FCF"/>
</linearGradient>
<linearGradient id="paint2_linear_11474_11650" x1="38.9329" y1="31.4831" x2="126.012" y2="73.6481" gradientUnits="userSpaceOnUse">
<stop stop-color="#CFADFF"/>
<stop offset="1" stop-color="#935FDC"/>
</linearGradient>
</defs>
</svg>
