<svg width="76" height="73" viewBox="0 0 76 73" fill="none" xmlns="http://www.w3.org/2000/svg">
<circle cx="39.0577" cy="36.0576" r="36.0577" fill="white"/>
<path d="M18 31.1748C18 29.3596 19.4716 27.888 21.2868 27.888H52.1828C53.9981 27.888 55.4696 29.3596 55.4696 31.1748V48.7592C55.4696 50.5745 53.9981 52.046 52.1828 52.046H21.2868C19.4716 52.046 18 50.5745 18 48.7592V31.1748Z" fill="#986ADA"/>
<path d="M22.9302 23.2868C22.9302 21.4716 24.4017 20 26.217 20H57.113C58.9282 20 60.3998 21.4716 60.3998 23.2868V42.8433C60.3998 44.6586 58.9282 46.1301 57.113 46.1301H26.217C24.4017 46.1301 22.9302 44.6586 22.9302 42.8433V23.2868Z" fill="#986ADA"/>
<path d="M22.9302 28.8742H60.3998V42.8431C60.3998 44.6584 58.9282 46.1299 57.113 46.1299H26.217C24.4017 46.1299 22.9302 44.6584 22.9302 42.8431V28.8742Z" fill="#B28CE8"/>
<path d="M22.9302 23.2868C22.9302 21.4716 24.4017 20 26.217 20H57.113C58.9282 20 60.3998 21.4716 60.3998 23.2868V25.4232H22.9302V23.2868Z" fill="#B28CE8"/>
<path d="M64.5385 3.46149L65.7851 6.8303L69.1539 8.07687L65.7851 9.32344L64.5385 12.6923L63.2919 9.32344L59.9231 8.07687L63.2919 6.8303L64.5385 3.46149Z" fill="#A882DD"/>
<path d="M3.38462 32.3076L4.16372 34.4131L6.26923 35.1922L4.16372 35.9713L3.38462 38.0768L2.60551 35.9713L0.5 35.1922L2.60551 34.4131L3.38462 32.3076Z" fill="#A882DD"/>
<path d="M48.3846 62.3076L48.852 63.5709L50.1153 64.0384L48.852 64.5059L48.3846 65.7692L47.9171 64.5059L46.6538 64.0384L47.9171 63.5709L48.3846 62.3076Z" fill="#A882DD"/>
</svg>
