<svg width="69" height="19" viewBox="0 0 69 19" fill="none" xmlns="http://www.w3.org/2000/svg">
<path d="M9.59652 0.867188C13.2893 0.867188 17.1166 2.77998 18.1139 6.75813H15.0959C14.1513 4.56939 12.0502 3.56048 9.57014 3.53549C5.7157 3.53549 3.15237 6.15328 3.15237 9.90598C3.15237 13.4039 5.7157 16.197 9.57014 16.197C12.1583 16.197 14.3405 15.0149 15.1756 12.673H18.2226C17.2788 16.9794 13.3974 18.8672 9.57014 18.8672C4.44835 18.8672 0 15.5696 0 9.90598C0 4.21497 4.44835 0.867188 9.59652 0.867188Z" fill="#00A2D1"/>
<path d="M28.0786 16.3251V18.6905H18.9688V16.3251H21.961V3.41017H19.2107V1.06641H27.8366V3.41017H25.0871V16.3251H28.0786Z" fill="#00A2D1"/>
<path d="M41.4846 9.42628C43.4541 10.0558 44.5309 11.5159 44.5309 13.5042C44.5309 16.6522 42.2129 18.6907 38.5465 18.6907H30.1094V1.06836H37.7647C41.1881 1.06836 43.6934 2.70485 43.6934 6.02834C43.6934 7.51278 42.9677 8.7461 41.4846 9.42628ZM33.2369 3.60995V8.46927H37.5494C39.3558 8.46927 40.5949 7.81495 40.6233 6.10209C40.6233 4.36528 39.3822 3.60995 37.5494 3.60995H33.2369ZM33.2369 10.8593V16.122H38.36C40.1104 16.122 41.349 15.1919 41.4313 13.5042C41.4313 12.6234 41.1078 11.9175 40.4611 11.4163C39.7315 10.9118 38.8721 10.8593 38.0072 10.8593H33.2369Z" fill="#00A2D1"/>
<path d="M54.8989 16.3251V18.6905H45.7891V16.3251H48.7807V3.41017H46.0321V1.06641H54.6571V3.41017H51.9074V16.3251H54.8989Z" fill="#00A2D1"/>
<path d="M60.0754 16.0463H68.189V18.6905H56.9219V1.06641H60.0754V16.0463Z" fill="#00A2D1"/>
</svg>
