<svg width="158" height="158" viewBox="0 0 158 158" fill="none" xmlns="http://www.w3.org/2000/svg">
<g id="Group 48095792">
<g id="Ellipse 1003" filter="url(#filter0_d_5777_19470)">
<circle cx="79" cy="73" r="55" fill="white"/>
</g>
<g id="Group 48095780">
<path id="Rectangle 9403" d="M56 53.7388L56 92.6953C56 94.9045 57.7909 96.6953 60 96.6953L76 96.6953L76 49.7388L60 49.7388C57.7909 49.7388 56 51.5297 56 53.7388Z" fill="white" stroke="#212529" stroke-width="1.5" stroke-linecap="round"/>
<path id="Rectangle 9405" d="M102.957 53.7388L102.957 92.6953C102.957 94.9045 101.166 96.6953 98.9565 96.6953L82.9565 96.6953L82.9565 49.7388L98.9565 49.7388C101.166 49.7388 102.957 51.5297 102.957 53.7388Z" fill="#7BE0B8" stroke="#212529" stroke-width="1.5" stroke-linecap="round"/>
<path id="Vector 3446" d="M79.4783 48V98" stroke="black" stroke-width="1.5" stroke-linecap="round"/>
<path id="Vector 3447" d="M94.6956 68L90.7826 71.913L94.6956 75.8261" stroke="black" stroke-width="1.5" stroke-linecap="round"/>
<path id="Vector 3448" d="M66.4348 68L70.3478 71.913L66.4348 75.8261" stroke="black" stroke-width="1.5" stroke-linecap="round"/>
</g>
</g>
<defs>
<filter id="filter0_d_5777_19470" x="0" y="0" width="158" height="158" filterUnits="userSpaceOnUse" color-interpolation-filters="sRGB">
<feFlood flood-opacity="0" result="BackgroundImageFix"/>
<feColorMatrix in="SourceAlpha" type="matrix" values="0 0 0 0 0 0 0 0 0 0 0 0 0 0 0 0 0 0 127 0" result="hardAlpha"/>
<feOffset dy="6"/>
<feGaussianBlur stdDeviation="12"/>
<feComposite in2="hardAlpha" operator="out"/>
<feColorMatrix type="matrix" values="0 0 0 0 0 0 0 0 0 0 0 0 0 0 0 0 0 0 0.1 0"/>
<feBlend mode="normal" in2="BackgroundImageFix" result="effect1_dropShadow_5777_19470"/>
<feBlend mode="normal" in="SourceGraphic" in2="effect1_dropShadow_5777_19470" result="shape"/>
</filter>
</defs>
</svg>
