<svg width="85" height="85" viewBox="0 0 85 85" fill="none" xmlns="http://www.w3.org/2000/svg">
<g id="Group 48095783">
<circle id="Ellipse 783" cx="42.5" cy="42.5" r="42.5" fill="#7BE0B8"/>
<path id="Rectangle 9807" d="M30.75 58C30.75 59.2426 31.7574 60.25 33 60.25H61C62.2426 60.25 63.25 59.2426 63.25 58V38C63.25 36.7574 62.2426 35.75 61 35.75H33C31.7574 35.75 30.75 36.7574 30.75 38V58Z" fill="#49D49D" stroke="#212529" stroke-width="1.5"/>
<path id="Rectangle 9806" d="M21.75 47C21.75 48.2426 22.7574 49.25 24 49.25H52C53.2426 49.25 54.25 48.2426 54.25 47V27C54.25 25.7574 53.2426 24.75 52 24.75H24C22.7574 24.75 21.75 25.7574 21.75 27V47Z" fill="#49D49D" stroke="#212529" stroke-width="1.5"/>
<path id="Vector 3536" d="M22.5 31.5H54" stroke="#212529" stroke-width="1.5" stroke-linecap="round" stroke-linejoin="round"/>
<path id="Vector 3537" d="M22.5 36H54" stroke="#212529" stroke-width="1.5" stroke-linecap="round" stroke-linejoin="round"/>
</g>
</svg>
