<svg width="54" height="54" viewBox="0 0 54 54" fill="none" xmlns="http://www.w3.org/2000/svg">
<path d="M51.75 13V20.5H44.25" stroke="#212529" strokeLinecap="round" strokeLinejoin="round"/>
<path d="M2.25 41V33.5H9.75" stroke="#212529" strokeLinecap="round" strokeLinejoin="round"/>
<path d="M7.8975 18.25C9.03863 15.0253 10.978 12.1422 13.5348 9.86974C16.0916 7.59727 19.1823 6.00952 22.5186 5.25463C25.855 4.49974 29.3282 4.60232 32.6142 5.55279C35.9002 6.50326 38.8918 8.27065 41.31 10.69L51.75 20.5M2.25 33.5L12.69 43.31C15.1082 45.7294 18.0998 47.4968 21.3858 48.4473C24.6718 49.3978 28.145 49.5004 31.4814 48.7455C34.8177 47.9906 37.9084 46.4028 40.4652 44.1304C43.0219 41.8579 44.9614 38.9748 46.1025 35.75" stroke="#212529" strokeLinecap="round" strokeLinejoin="round"/>
<path d="M29.5999 21.3999V16.6C29.5999 15.6452 29.2206 14.7295 28.5455 14.0544C27.8703 13.3793 26.9547 13 25.9999 13L21 23.7999V36.9998H34.7358C35.3146 37.0064 35.8763 36.8035 36.3173 36.4287C36.7584 36.0538 37.049 35.5321 37.1358 34.9599L38.7918 24.1599C38.844 23.816 38.8208 23.4648 38.7238 23.1306C38.6268 22.7965 38.4583 22.4875 38.2301 22.225C38.0018 21.9624 37.7191 21.7527 37.4017 21.6102C37.0843 21.4677 36.7397 21.396 36.3918 21.3999H29.5999Z" fill="#7BE0B8"/>
<path d="M15.7029 36.197C16.153 36.6471 18.3635 37 19 37V23.8C18.3635 23.8 16.153 23.9529 15.7029 24.4029C15.2529 24.853 15 25.4635 15 26.1V34.4999C15 35.1364 15.2529 35.7469 15.7029 36.197Z" fill="#7BE0B8"/>
</svg>
