<svg width="30" height="30" viewBox="0 0 30 30" fill="none" xmlns="http://www.w3.org/2000/svg">
<path d="M9.04119 0H4.28571C1.91878 0 0 1.91878 0 4.28571V8.57143C0 20.4061 9.5939 30 21.4286 30H25.7143C28.0812 30 30 28.0812 30 25.7143V22.7529C30 21.9413 29.5414 21.1993 28.8155 20.8363L23.6385 18.2478C22.4721 17.6646 21.0596 18.2497 20.6473 19.4868L20.0092 21.401C19.5959 22.6409 18.3239 23.3791 17.0423 23.1227C11.9128 22.0968 7.90316 18.0872 6.87725 12.9577C6.62092 11.6761 7.35905 10.4041 8.59898 9.99081L10.9746 9.19894C12.0369 8.84485 12.6474 7.73261 12.3759 6.64632L11.1201 1.62314C10.8816 0.669209 10.0245 0 9.04119 0Z" fill="#7BE0B8"/>
<path d="M15.832 7.5C17.6376 8.05556 21.4987 10.4167 22.4987 15.4167" stroke="#212529"/>
<path d="M16.668 2.5C19.3763 3.31871 25.168 6.79825 26.668 14.1667" stroke="#212529"/>
</svg>
