<svg width="65" height="53" viewBox="0 0 65 53" fill="none" xmlns="http://www.w3.org/2000/svg">
<rect width="65" height="53" fill="#1E1E1E"/>
<rect width="595" height="842" transform="translate(-53 -751)" fill="white"/>
<rect x="-33" y="-14" width="555" height="90" rx="4" fill="#844FCF"/>
<rect x="-4.77734" y="20.2188" width="56.7174" height="39.7812" rx="2.62581" fill="#9364D6"/>
<rect x="-4.77734" y="27.4414" width="56.7174" height="7.3523" fill="#7D49C6"/>
<rect width="56.7174" height="39.7812" rx="2.62581" transform="matrix(0.963305 -0.268411 0.268408 0.963305 -0.578125 15.2227)" fill="url(#paint0_linear_111_1332)"/>
<g clip-path="url(#clip0_111_1332)">
<path d="M47.3883 8.53725C46.6369 8.74661 46.0712 9.32558 46.2712 10.0431C46.5014 10.8694 47.7089 10.5937 47.8234 11.0049C47.8717 11.1782 47.7135 11.3917 47.3742 11.4862C46.8894 11.6213 46.4652 11.505 46.4652 11.505L46.5138 12.2733C46.5138 12.2733 46.9816 12.3427 47.5391 12.1874C48.3632 11.9578 48.8961 11.3706 48.6917 10.637C48.4491 9.76632 47.2376 10.0431 47.1309 9.66015C47.0927 9.52311 47.2168 9.32782 47.5562 9.23327C47.9399 9.12633 48.2988 9.19573 48.2988 9.19573L48.2569 8.4516C48.2529 8.45273 47.8691 8.4033 47.3883 8.53725ZM40.5192 10.5077L40.5282 10.6181C40.5282 10.6181 40.859 10.5868 41.1784 10.6237C41.5831 10.6543 41.6287 10.7242 41.7596 10.944L43.1564 13.3478L44.0613 13.0956L44.5226 9.39222L43.6217 9.64323L43.3579 12.1492L42.4608 10.3359C42.3678 10.1273 42.1634 10.0496 41.9533 10.1081L40.5192 10.5077ZM44.8862 9.29091L45.1035 12.8052L45.964 12.5655L45.7426 9.05228L44.8862 9.29091ZM49.6773 7.95592C49.4713 8.01333 49.3926 8.15255 49.3657 8.36854L48.9453 11.7348L49.8462 11.4837L49.8795 10.9315L50.9784 10.6253L51.2238 11.0999L52.0196 10.8782L50.4045 7.75331L49.6773 7.95592ZM50.0449 8.82214L50.6586 9.99336L49.9436 10.1926L50.0449 8.82214Z" fill="url(#paint1_linear_111_1332)"/>
</g>
<path d="M10.562 36.4123L10.118 34.8187L10.6598 34.6678C11.1994 34.5174 11.5765 34.8319 11.6862 35.2257C11.7985 35.6286 11.632 36.1142 11.0765 36.2689L10.562 36.4123ZM10.7695 36.065L11.0222 35.9946C11.3773 35.8956 11.479 35.5827 11.4042 35.3141C11.3306 35.05 11.0807 34.84 10.7347 34.9364L10.4752 35.0087L10.7695 36.065ZM13.0242 35.1963L12.2024 35.4253C12.2838 35.594 12.4246 35.6504 12.6044 35.6003C12.7479 35.5604 12.8332 35.4704 12.879 35.3619L13.071 35.4875C12.9881 35.6652 12.8532 35.7886 12.6483 35.8457C12.2931 35.9447 11.9989 35.7691 11.9025 35.423C11.8073 35.0816 11.9527 34.7491 12.3192 34.647C12.6334 34.5595 12.8866 34.7023 12.9913 35.078L13.0242 35.1963ZM12.1437 35.2233L12.6946 35.0698C12.6473 34.9088 12.5403 34.8332 12.3696 34.8807C12.2011 34.9277 12.1253 35.0518 12.1437 35.2233ZM13.7766 34.2704L14.0748 34.1873L13.928 35.4744L13.6867 35.5416L12.8978 34.5152L13.196 34.4321L13.7069 35.1386L13.7766 34.2704ZM15.3964 34.5354L14.5746 34.7643C14.656 34.933 14.7968 34.9895 14.9766 34.9394C15.1201 34.8994 15.2054 34.8094 15.2512 34.7009L15.4432 34.8265C15.3602 35.0042 15.2254 35.1276 15.0205 35.1847C14.6653 35.2837 14.3711 35.1081 14.2747 34.7621C14.1795 34.4206 14.3249 34.0881 14.6914 33.986C15.0055 33.8985 15.2588 34.0414 15.3635 34.417L15.3964 34.5354ZM14.5159 34.5624L15.0668 34.4089C15.0195 34.2479 14.9125 34.1722 14.7418 34.2197C14.5733 34.2667 14.4975 34.3908 14.5159 34.5624ZM15.4061 33.8163L15.6747 33.7415L15.7235 33.9168C15.7618 33.781 15.8492 33.6634 16.0404 33.6101C16.2817 33.5429 16.4931 33.641 16.5705 33.9187L16.7823 34.6791L16.5069 34.7559L16.3121 34.057C16.2684 33.8999 16.1584 33.8398 16.0218 33.8778C15.8693 33.9203 15.7729 34.0674 15.8312 34.2768L16.0038 34.896L15.7283 34.9728L15.4061 33.8163ZM18.0185 33.0393C17.9126 32.9585 17.7631 32.9412 17.6401 32.9755C17.499 33.0148 17.411 33.1129 17.4459 33.2381C17.4884 33.3907 17.6588 33.3947 17.8331 33.3952C18.1451 33.3966 18.377 33.4277 18.4569 33.7145C18.5489 34.0446 18.3386 34.2847 18.0426 34.3672C17.8377 34.4243 17.5889 34.4028 17.3854 34.2535L17.5247 33.9963C17.6613 34.1079 17.839 34.1295 17.9802 34.0902C18.1304 34.0483 18.2113 33.9424 18.1789 33.8263C18.1415 33.692 17.9779 33.686 17.8053 33.6826C17.4829 33.6792 17.2508 33.6384 17.1721 33.3561C17.0827 33.0351 17.2801 32.7839 17.576 32.7014C17.7627 32.6494 17.9778 32.6729 18.149 32.7944L18.0185 33.0393ZM18.3379 32.5284L18.6134 32.4516L18.7821 33.0572C18.8187 32.9243 18.9074 32.8113 19.0941 32.7593C19.3354 32.692 19.5467 32.7902 19.6241 33.0679L19.836 33.8282L19.5605 33.905L19.3658 33.2061C19.322 33.049 19.212 32.9889 19.0754 33.027C18.9229 33.0695 18.8259 33.2143 18.8842 33.4237L19.0574 34.0452L18.7819 34.1219L18.3379 32.5284ZM21.1343 33.0764C21.1597 33.1675 21.2268 33.188 21.2905 33.1703C21.3201 33.162 21.3478 33.147 21.3723 33.1205L21.4925 33.3053C21.4353 33.3728 21.3619 33.4178 21.2891 33.4381C21.1502 33.4768 21.0051 33.4313 20.9417 33.292C20.9026 33.4599 20.7746 33.5814 20.5811 33.6354C20.2373 33.7311 19.9599 33.519 19.8685 33.1911C19.7778 32.8656 19.8968 32.5356 20.2497 32.4373C20.4364 32.3853 20.5939 32.4223 20.6925 32.5298L20.6443 32.3568L20.913 32.2819L21.1343 33.0764ZM20.1434 33.1121C20.2017 33.3216 20.3721 33.4311 20.5656 33.3772C20.7613 33.3226 20.8557 33.1418 20.7967 32.9301C20.7384 32.7206 20.5634 32.6124 20.3654 32.6675C20.1582 32.7253 20.0888 32.9163 20.1434 33.1121ZM21.3232 32.1676L21.5919 32.0927L21.6426 32.2749C21.6569 32.1237 21.7604 32.0286 21.8993 31.9899C21.9494 31.9759 22.0066 31.9698 22.0656 31.9705L22.0941 32.2398C22.0412 32.235 21.9886 32.2398 21.9453 32.2519C21.7837 32.2969 21.6945 32.4346 21.7522 32.6418L21.9209 33.2473L21.6455 33.3241L21.3232 32.1676ZM22.2048 31.922L22.4734 31.8471L22.5216 32.0201C22.5504 31.8772 22.6388 31.7716 22.8004 31.7266C22.9689 31.6796 23.1134 31.7228 23.2092 31.8555C23.2376 31.6931 23.3422 31.5756 23.5152 31.5274C23.7611 31.4589 23.9431 31.575 24.0211 31.855L24.2298 32.604L23.9566 32.6801L23.7613 31.9789C23.7207 31.8332 23.6355 31.7564 23.4943 31.7957C23.36 31.8331 23.279 31.9563 23.3387 32.1703L23.515 32.8031L23.2418 32.8793L23.0464 32.1781C23.0058 32.0324 22.9206 31.9556 22.7795 31.9949C22.6452 32.0323 22.5665 32.1548 22.6261 32.3688L22.8024 33.0017L22.527 33.0784L22.2048 31.922ZM25.5285 31.852C25.5539 31.9431 25.621 31.9637 25.6847 31.9459C25.7143 31.9377 25.742 31.9226 25.7665 31.8961L25.8867 32.081C25.8295 32.1484 25.7561 32.1934 25.6833 32.2137C25.5444 32.2524 25.3993 32.207 25.3359 32.0676C25.2968 32.2355 25.1688 32.3571 24.9753 32.411C24.6315 32.5068 24.3541 32.2946 24.2627 31.9668C24.172 31.6412 24.2911 31.3112 24.6439 31.2129C24.8306 31.1609 24.9881 31.1979 25.0867 31.3054L25.0385 31.1324L25.3072 31.0575L25.5285 31.852ZM24.5376 31.8877C24.5959 32.0972 24.7663 32.2067 24.9598 32.1528C25.1556 32.0982 25.2499 31.9174 25.1909 31.7057C25.1326 31.4962 24.9576 31.388 24.7596 31.4432C24.5524 31.5009 24.483 31.692 24.5376 31.8877Z" fill="white"/>
<path d="M35.2229 34.1759L35.4936 32.8074L34.6882 33.0318L34.6336 32.8355L35.6474 32.553L35.6998 32.7412L35.4435 34.1145L35.2229 34.1759ZM36.3365 33.8656L36.6072 32.4971L35.8018 32.7215L35.7472 32.5252L36.761 32.2427L36.8134 32.4309L36.5571 33.8042L36.3365 33.8656ZM37.5663 32.5286C37.8658 32.4451 38.0692 32.6196 38.1358 32.8584C38.2113 33.1295 38.0777 33.3936 37.7722 33.4787C37.5657 33.5362 37.3306 33.4905 37.191 33.3026L37.3494 33.1669C37.4369 33.293 37.5928 33.3281 37.7284 33.2903C37.9145 33.2384 37.977 33.0792 37.9348 32.9275C37.8897 32.7656 37.7541 32.6703 37.5699 32.7217C37.4566 32.7532 37.369 32.83 37.3319 32.9319L37.1701 32.977L36.9507 32.1898L37.7581 31.9649L37.81 32.151L37.1746 32.3281L37.2857 32.7267C37.3423 32.6324 37.4388 32.5641 37.5663 32.5286ZM39.0876 32.5277L39.3406 32.4573L39.3919 32.6414L39.1389 32.7119L39.2353 33.0579L39.035 33.1137L38.9386 32.7677L38.2992 32.9459L38.2501 32.7698L38.6379 31.7197L38.8463 31.6617L39.0876 32.5277ZM38.4502 32.7054L38.8873 32.5836L38.7181 31.9765L38.4502 32.7054Z" fill="white"/>
<path opacity="0.5" d="M13.6989 44.3054L13.023 44.4937L13.1392 44.9106L13.7119 44.751L13.7654 44.9432L13.1928 45.1028L13.3106 45.5257L14.0067 45.3318L14.0603 45.524L13.1598 45.7749L12.7651 44.3584L13.6453 44.1131L13.6989 44.3054ZM15.4907 45.1254L15.2397 45.1954L14.6827 44.7378L14.4404 45.4181L14.1895 45.488L14.5191 44.6046L13.8353 44.0602L14.0801 43.992L14.5902 44.4059L14.8107 43.7884L15.0535 43.7208L14.7518 44.5397L15.4907 45.1254ZM15.7668 43.522C16.0603 43.4403 16.2525 43.5982 16.3106 43.8066C16.3726 44.0292 16.27 44.2868 15.9725 44.3697L15.7034 44.4447L15.8641 45.0214L15.6597 45.0783L15.265 43.6619L15.7668 43.522ZM15.6515 44.2585L15.9206 44.1835C16.0906 44.1362 16.1435 43.9971 16.1079 43.8697C16.0741 43.7482 15.965 43.6696 15.8071 43.7136L15.5218 43.7931L15.6515 44.2585Z" fill="white"/>
<path opacity="0.5" d="M26.0394 42.0092C26.2398 41.9534 26.364 41.7967 26.3908 41.5798L26.5909 41.6091C26.5487 41.9196 26.3673 42.1294 26.0759 42.2106C25.657 42.3273 25.3002 42.0953 25.1829 41.6744C25.0571 41.2231 25.2848 40.8348 25.6915 40.7214C25.9283 40.6555 26.1548 40.7014 26.3355 40.8647L26.2054 41.0318C26.0772 40.9083 25.9055 40.8712 25.7355 40.9185C25.4542 40.9969 25.2917 41.2668 25.3859 41.6047C25.484 41.9568 25.7723 42.0836 26.0394 42.0092ZM27.463 40.2627L27.6836 40.2013L27.5259 41.7717L27.3316 41.8258L26.3865 40.5627L26.6071 40.5012L27.3507 41.5108L27.463 40.2627ZM28.8079 39.888L29.0284 39.8265L28.8707 41.397L28.6764 41.4511L27.7313 40.188L27.9519 40.1265L28.6955 41.1361L28.8079 39.888Z" fill="white"/>
<path d="M18.0251 42.8917C18.357 42.7992 18.6112 43.0075 18.7319 43.4405L18.7443 43.4851C18.865 43.9181 18.755 44.2279 18.4232 44.3203C18.0893 44.4134 17.835 44.2051 17.7143 43.7721L17.7019 43.7275C17.5812 43.2945 17.6912 42.9847 18.0251 42.8917ZM17.9187 43.7151C18.0117 44.049 18.1608 44.1928 18.3713 44.1342C18.5797 44.0761 18.635 43.8753 18.542 43.5415L18.5295 43.4969C18.4365 43.163 18.2854 43.0198 18.077 43.0779C17.8665 43.1365 17.8133 43.3367 17.9063 43.6706L17.9187 43.7151ZM19.4708 43.2259C19.6966 43.2066 19.8585 43.2946 19.9092 43.4767C19.9769 43.7195 19.8038 43.9356 19.5549 44.005C19.3525 44.0614 19.1336 44.0112 18.9832 43.8394L19.1348 43.6946C19.2381 43.8229 19.3787 43.8578 19.5143 43.8201C19.6519 43.7817 19.7484 43.6741 19.71 43.5365C19.6666 43.3807 19.5057 43.3274 19.2669 43.394L19.2082 43.4103L19.1625 43.2464C19.3993 43.1804 19.5121 43.0531 19.4687 42.8973C19.4331 42.7698 19.3119 42.7338 19.1885 42.7682C19.0772 42.7992 18.9741 42.8911 18.941 43.0225L18.7708 42.9674C18.8119 42.7706 18.9666 42.6294 19.1528 42.5775C19.3774 42.5149 19.6022 42.594 19.6592 42.7984C19.7037 42.9582 19.6273 43.13 19.4708 43.2259ZM20.411 42.1964L20.2753 43.7912L20.1013 43.8397L20.237 42.2449L20.411 42.1964ZM21.2653 42.7259C21.491 42.7066 21.6529 42.7946 21.7037 42.9767C21.7713 43.2195 21.5982 43.4357 21.3493 43.505C21.147 43.5614 20.928 43.5112 20.7776 43.3394L20.9292 43.1947C21.0325 43.3229 21.1731 43.3578 21.3087 43.3201C21.4463 43.2817 21.5428 43.1742 21.5044 43.0366C21.461 42.8807 21.3001 42.8275 21.0613 42.894L21.0026 42.9103L20.9569 42.7464C21.1937 42.6805 21.3065 42.5531 21.2631 42.3973C21.2276 42.2698 21.1063 42.2338 20.9829 42.2682C20.8716 42.2992 20.7685 42.3911 20.7354 42.5225L20.5652 42.4674C20.6063 42.2706 20.761 42.1294 20.9472 42.0775C21.1718 42.0149 21.3967 42.094 21.4536 42.2984C21.4981 42.4583 21.4217 42.63 21.2653 42.7259ZM22.0823 41.7612C22.4141 41.6688 22.6684 41.877 22.7891 42.3101L22.8015 42.3546C22.9221 42.7876 22.8122 43.0974 22.4803 43.1899C22.1464 43.2829 21.8921 43.0746 21.7715 42.6416L21.7591 42.5971C21.6384 42.164 21.7484 41.8543 22.0823 41.7612ZM21.9759 42.5846C22.0689 42.9185 22.218 43.0623 22.4285 43.0037C22.6369 42.9456 22.6922 42.7449 22.5991 42.411L22.5867 42.3665C22.4937 42.0326 22.3426 41.8893 22.1341 41.9474C21.9237 42.006 21.8704 42.2062 21.9635 42.5401L21.9759 42.5846Z" fill="white"/>
<path d="M30.7985 39.3331C31.1304 39.2406 31.3847 39.4489 31.5053 39.882L31.5177 39.9265C31.6384 40.3595 31.5285 40.6693 31.1966 40.7617C30.8627 40.8548 30.6084 40.6465 30.4878 40.2135L30.4753 40.1689C30.3547 39.7359 30.4646 39.4261 30.7985 39.3331ZM30.6921 40.1565C30.7852 40.4904 30.9343 40.6342 31.1447 40.5756C31.3531 40.5175 31.4084 40.3167 31.3154 39.9829L31.303 39.9383C31.21 39.6044 31.0588 39.4612 30.8504 39.5193C30.6399 39.5779 30.5867 39.7781 30.6797 40.112L30.6921 40.1565ZM32.2443 39.6673C32.4701 39.648 32.6319 39.736 32.6827 39.9181C32.7503 40.1609 32.5772 40.3771 32.3283 40.4464C32.126 40.5028 31.907 40.4526 31.7566 40.2808L31.9082 40.1361C32.0115 40.2643 32.1521 40.2992 32.2877 40.2615C32.4253 40.2231 32.5218 40.1155 32.4835 39.9779C32.4401 39.8221 32.2791 39.7688 32.0403 39.8354L31.9816 39.8517L31.936 39.6878C32.1727 39.6219 32.2855 39.4945 32.2421 39.3387C32.2066 39.2112 32.0853 39.1752 31.9619 39.2096C31.8506 39.2406 31.7476 39.3325 31.7144 39.4639L31.5442 39.4088C31.5853 39.212 31.7401 39.0708 31.9262 39.0189C32.1508 38.9563 32.3757 39.0354 32.4326 39.2398C32.4772 39.3996 32.4007 39.5714 32.2443 39.6673ZM33.1306 40.2098L32.7935 38.9997L32.583 39.0583L32.5312 38.8721L32.9419 38.7577L33.331 40.1539L33.1306 40.2098ZM33.8182 39.8176L34.5204 39.6219L34.5723 39.8081L33.6131 40.0753L33.5635 39.8973L33.9149 39.3349C33.9857 39.2214 34.0843 39.0587 34.0387 38.8948C33.9941 38.7349 33.8537 38.6846 33.7221 38.7213C33.5784 38.7613 33.4633 38.8959 33.5121 39.1025L33.3206 39.1428C33.2471 38.8166 33.443 38.5963 33.6818 38.5297C33.9267 38.4615 34.1638 38.5612 34.2371 38.8242C34.298 39.0428 34.1943 39.2265 34.1215 39.3406L33.8182 39.8176Z" fill="white"/>
<path d="M11.9534 39.3999C12.1625 39.689 12.4873 39.8723 12.8428 39.9017C12.5538 40.1108 12.3705 40.4356 12.341 40.7911C12.132 40.5021 11.8071 40.3188 11.4516 40.2894C11.7407 40.0803 11.924 39.7554 11.9534 39.3999Z" fill="white"/>
<path d="M19.5393 37.2867C19.7484 37.5757 20.0733 37.759 20.4288 37.7884C20.1397 37.9975 19.9564 38.3224 19.927 38.6779C19.7179 38.3888 19.3931 38.2055 19.0376 38.1761C19.3266 37.967 19.5099 37.6421 19.5393 37.2867Z" fill="white"/>
<path d="M27.1292 35.1695C27.3382 35.4585 27.6631 35.6418 28.0186 35.6712C27.7296 35.8803 27.5463 36.2052 27.5168 36.5607C27.3078 36.2716 26.9829 36.0883 26.6274 36.0589C26.9164 35.8498 27.0997 35.525 27.1292 35.1695Z" fill="white"/>
<path d="M13.5979 38.9429C13.807 39.2319 14.1319 39.4152 14.4874 39.4447C14.1983 39.6537 14.015 39.9786 13.9856 40.3341C13.7765 40.0451 13.4517 39.8618 13.0962 39.8323C13.3852 39.6233 13.5685 39.2984 13.5979 38.9429Z" fill="white"/>
<path d="M21.1839 36.8296C21.3929 37.1187 21.7178 37.3019 22.0733 37.3314C21.7843 37.5404 21.601 37.8653 21.5715 38.2208C21.3625 37.9318 21.0376 37.7485 20.6821 37.719C20.9711 37.51 21.1544 37.1851 21.1839 36.8296Z" fill="white"/>
<path d="M28.7737 34.7124C28.9828 35.0015 29.3076 35.1848 29.6631 35.2142C29.3741 35.4233 29.1908 35.7481 29.1614 36.1036C28.9523 35.8146 28.6274 35.6313 28.2719 35.6019C28.561 35.3928 28.7443 35.0679 28.7737 34.7124Z" fill="white"/>
<path d="M15.2425 38.482C15.4515 38.771 15.7764 38.9543 16.1319 38.9837C15.8429 39.1928 15.6596 39.5177 15.6301 39.8732C15.4211 39.5841 15.0962 39.4008 14.7407 39.3714C15.0297 39.1623 15.213 38.8375 15.2425 38.482Z" fill="white"/>
<path d="M22.8284 36.3726C23.0375 36.6616 23.3623 36.8449 23.7178 36.8744C23.4288 37.0834 23.2455 37.4083 23.216 37.7638C23.007 37.4748 22.6821 37.2915 22.3266 37.262C22.6157 37.053 22.799 36.7281 22.8284 36.3726Z" fill="white"/>
<path d="M30.4183 34.2554C30.6273 34.5444 30.9522 34.7277 31.3077 34.7572C31.0186 34.9662 30.8353 35.2911 30.8059 35.6466C30.5968 35.3576 30.272 35.1743 29.9165 35.1448C30.2055 34.9358 30.3888 34.6109 30.4183 34.2554Z" fill="white"/>
<path d="M16.887 38.0249C17.096 38.314 17.4209 38.4973 17.7764 38.5267C17.4874 38.7358 17.3041 39.0606 17.2746 39.4161C17.0656 39.1271 16.7407 38.9438 16.3852 38.9144C16.6743 38.7053 16.8576 38.3804 16.887 38.0249Z" fill="white"/>
<path d="M24.4729 35.9117C24.682 36.2007 25.0069 36.384 25.3624 36.4134C25.0733 36.6225 24.89 36.9474 24.8606 37.3029C24.6515 37.0138 24.3267 36.8305 23.9712 36.8011C24.2602 36.592 24.4435 36.2671 24.4729 35.9117Z" fill="white"/>
<path d="M32.0628 33.7984C32.2718 34.0874 32.5967 34.2707 32.9522 34.3002C32.6632 34.5092 32.4799 34.8341 32.4504 35.1896C32.2414 34.9005 31.9165 34.7172 31.561 34.6878C31.85 34.4787 32.0333 34.1539 32.0628 33.7984Z" fill="white"/>
<rect width="8.53387" height="5.64551" transform="matrix(0.963305 -0.268411 0.268408 0.963305 5.54688 19.1016)" fill="white"/>
<path d="M60.9363 45.8047L61.9752 48.6123L64.7828 49.6512L61.9752 50.6901L60.9363 53.4977L59.8974 50.6901L57.0898 49.6512L59.8974 48.6123L60.9363 45.8047Z" fill="white"/>
<defs>
<linearGradient id="paint0_linear_111_1332" x1="1.09828" y1="1.68468" x2="54.1378" y2="42.3572" gradientUnits="userSpaceOnUse">
<stop stop-color="#CFADFF"/>
<stop offset="1" stop-color="#935FDC"/>
</linearGradient>
<linearGradient id="paint1_linear_111_1332" x1="45.7825" y1="8.98468" x2="46.7372" y2="12.4108" gradientUnits="userSpaceOnUse">
<stop stop-color="white"/>
<stop offset="1" stop-color="#F4F4F4"/>
</linearGradient>
<clipPath id="clip0_111_1332">
<rect width="11" height="3.55667" fill="white" transform="matrix(0.963305 -0.268411 0.268408 0.963305 40.4844 10.4609)"/>
</clipPath>
</defs>
</svg>
