<svg width="51" height="42" viewBox="0 0 51 42" fill="none" xmlns="http://www.w3.org/2000/svg">
<path d="M41 16V5C41 2.79086 39.2091 1 37 1H5C2.79086 1 1 2.79086 1 5V27C1 29.2091 2.79086 31 5 31H24" stroke="#212529"/>
<path d="M1 11H40.5" stroke="black"/>
<circle cx="37.5" cy="28.5" r="13" fill="#7BE0B8" stroke="black"/>
<mask id="path-4-inside-1_5588_12736" fill="white">
<path d="M51 28.5C51 30.2728 50.6508 32.0283 49.9724 33.6662C49.2939 35.3041 48.2995 36.7924 47.0459 38.0459C45.7924 39.2995 44.3041 40.2939 42.6662 40.9724C41.0283 41.6508 39.2728 42 37.5 42L37.5 28.5H51Z"/>
</mask>
<path d="M51 28.5C51 30.2728 50.6508 32.0283 49.9724 33.6662C49.2939 35.3041 48.2995 36.7924 47.0459 38.0459C45.7924 39.2995 44.3041 40.2939 42.6662 40.9724C41.0283 41.6508 39.2728 42 37.5 42L37.5 28.5H51Z" fill="white" stroke="black" stroke-width="2" mask="url(#path-4-inside-1_5588_12736)"/>
</svg>
