<svg width="47" height="39" viewBox="0 0 47 39" fill="none" xmlns="http://www.w3.org/2000/svg">
<path d="M37.8 14.8V5C37.8 2.79086 36.0091 1 33.8 1H5C2.79086 1 1 2.79087 1 5V24.6C1 26.8091 2.79087 28.6 5 28.6H22.16" stroke="#212529"/>
<path d="M1 10.2002H37.34" stroke="black"/>
<circle cx="34.5762" cy="26.2999" r="11.92" fill="#7BE0B8" stroke="black"/>
<mask id="path-4-inside-1_5588_13668" fill="white">
<path d="M46.9963 26.2999C46.9963 27.9309 46.675 29.5459 46.0508 31.0528C45.4267 32.5597 44.5118 33.9288 43.3585 35.0821C42.2052 36.2355 40.836 37.1503 39.3292 37.7745C37.8223 38.3986 36.2073 38.7199 34.5762 38.7199L34.5763 26.2999H46.9963Z"/>
</mask>
<path d="M46.9963 26.2999C46.9963 27.9309 46.675 29.5459 46.0508 31.0528C45.4267 32.5597 44.5118 33.9288 43.3585 35.0821C42.2052 36.2355 40.836 37.1503 39.3292 37.7745C37.8223 38.3986 36.2073 38.7199 34.5762 38.7199L34.5763 26.2999H46.9963Z" fill="white" stroke="black" stroke-width="2" mask="url(#path-4-inside-1_5588_13668)"/>
</svg>
