<svg width="129" height="120" viewBox="0 0 129 120" fill="none" xmlns="http://www.w3.org/2000/svg">
<circle opacity="0.2" cx="68.0701" cy="59.9998" r="59.5729" stroke="#844FCF" stroke-width="0.853784"/>
<path d="M7.18526 20.6719L9.12594 25.9165L14.3705 27.8571L9.12594 29.7978L7.18526 35.0424L5.24459 29.7978L0 27.8571L5.24459 25.9165L7.18526 20.6719Z" fill="#844FCF"/>
<path d="M116.067 103.766L117.973 108.918L123.125 110.824L117.973 112.731L116.067 117.883L114.16 112.731L109.008 110.824L114.16 108.918L116.067 103.766Z" fill="#844FCF"/>
<circle cx="68.0719" cy="60.0016" r="43.4781" fill="white"/>
<circle cx="68.0719" cy="60.0016" r="43.4781" fill="#844FCF"/>
<g opacity="0.2">
<circle cx="68.3893" cy="59.69" r="16.4596" fill="#F2F5FA"/>
<circle cx="68.3893" cy="59.69" r="16.4596" fill="url(#paint0_linear_3517_15768)"/>
</g>
<path d="M68.0794 23.9766C48.1835 23.9766 32.0547 40.1054 32.0547 60.0013C32.0547 74.4249 40.5314 86.8688 52.7748 92.6228C42.3271 87.3591 35.1603 76.5357 35.1603 64.0385C35.1603 46.3724 49.4815 32.0511 67.1477 32.0511C75.3022 32.0511 82.744 35.1024 88.3937 40.1256L93.8557 34.8346C87.314 28.1354 78.1824 23.9766 68.0794 23.9766Z" fill="url(#paint1_linear_3517_15768)"/>
<path d="M68.0794 23.9766C48.1835 23.9766 32.0547 40.1054 32.0547 60.0013C32.0547 74.4249 40.5314 86.8688 52.7748 92.6228C42.3271 87.3591 35.1603 76.5357 35.1603 64.0385C35.1603 46.3724 49.4815 32.0511 67.1477 32.0511C75.3022 32.0511 82.744 35.1024 88.3937 40.1256L93.8557 34.8346C87.314 28.1354 78.1824 23.9766 68.0794 23.9766Z" fill="url(#paint2_linear_3517_15768)"/>
<path d="M65.5011 54.1023L95.6252 32.6738C89.207 41.68 75.6254 60.624 72.6441 64.3507C70.2316 67.3663 66.8431 66.5183 64.6504 65.2622C63.7237 64.7313 62.9696 63.9295 62.5164 62.9624C60.4987 58.657 63.5339 55.3201 65.5011 54.1023Z" fill="white"/>
<defs>
<linearGradient id="paint0_linear_3517_15768" x1="52.5671" y1="44.6246" x2="90.4849" y2="65.0187" gradientUnits="userSpaceOnUse">
<stop stop-color="#CFADFF"/>
<stop offset="1" stop-color="#935FDC"/>
</linearGradient>
<linearGradient id="paint1_linear_3517_15768" x1="32.0547" y1="76.9407" x2="92.8258" y2="47.281" gradientUnits="userSpaceOnUse">
<stop stop-color="#49D49D"/>
<stop offset="1" stop-color="#844FCF"/>
</linearGradient>
<linearGradient id="paint2_linear_3517_15768" x1="33.2514" y1="26.8836" x2="107.598" y2="62.8835" gradientUnits="userSpaceOnUse">
<stop stop-color="#CFADFF"/>
<stop offset="1" stop-color="#935FDC"/>
</linearGradient>
</defs>
</svg>
