<svg width="28" height="32" viewBox="0 0 28 32" fill="none" xmlns="http://www.w3.org/2000/svg">
<g id="Group 48095799">
<path id="Vector 3550" d="M19.2356 1.19997C19.3226 1.00064 19.2708 0.767952 19.1074 0.624399C18.944 0.480847 18.7066 0.459361 18.5201 0.571254C13.6987 3.46414 10.0848 1.74551 8.93839 0.640078C8.76873 0.47648 8.50787 0.453573 8.3123 0.585099C8.11672 0.716625 8.03955 0.966866 8.12709 1.1857L11.0716 8.54693C9.13523 10.4163 6.40752 13.3526 4.21291 16.3872C3.06889 17.9691 2.05923 19.5921 1.38383 21.1149C0.714274 22.6244 0.342882 24.1022 0.563925 25.3653C0.981351 27.7506 2.27036 29.2835 3.7115 30.2163C5.13748 31.1392 6.7091 31.4747 7.74192 31.4999L7.74192 31.5H7.75412H19.0564V31.5002L19.0686 31.4999C21.0896 31.4506 25.4445 30.1732 26.521 25.3888C26.8069 24.1182 26.468 22.6324 25.8151 21.1195C25.1565 19.5935 24.1471 17.9685 22.9943 16.3859C20.786 13.354 18.0097 10.4209 16.028 8.55083L19.2356 1.19997Z" fill="#7BE0B8" stroke="#212529" stroke-linecap="round" stroke-linejoin="round"/>
<path id="Vector 3549" d="M9.42969 8.81445H17.8018" stroke="#212529" stroke-linecap="round" stroke-linejoin="round"/>
<path id="Vector 3547" d="M15.2874 16.3496C16.0723 18.024 15.9328 21.4566 11.3281 21.7915L15.5142 25.5589" stroke="#212529" stroke-linecap="round" stroke-linejoin="round"/>
<path id="Vector 3548" d="M9.64844 16.3496H17.7415" stroke="#212529" stroke-linecap="round" stroke-linejoin="round"/>
<path id="Vector 3551" d="M9.64844 19.1387H17.7415" stroke="#212529" stroke-linecap="round" stroke-linejoin="round"/>
</g>
</svg>
