<svg width="54" height="49" viewBox="0 0 54 49" fill="none" xmlns="http://www.w3.org/2000/svg">
<circle cx="33" cy="28" r="20" fill="white" stroke="#212529" stroke-width="1.5" stroke-linecap="round" stroke-linejoin="round" stroke-dasharray="2 4"/>
<path d="M20 40C31.0457 40 40 31.0457 40 20C40 8.9543 31.0457 0 20 0C8.9543 0 0 8.9543 0 20C0 31.0457 8.9543 40 20 40Z" fill="#7BE0B8"/>
<path d="M20 9.04429L23.2993 15.094L23.413 15.3024L23.6463 15.3461L30.4195 16.6145L25.6854 21.6218L25.5223 21.7943L25.5529 22.0297L26.4396 28.8634L20.2144 25.9083L20 25.8065L19.7856 25.9083L13.5604 28.8634L14.4471 22.0297L14.4777 21.7943L14.3146 21.6218L9.5805 16.6145L16.3537 15.3461L16.587 15.3024L16.7007 15.094L20 9.04429Z" stroke="#212529"/>
</svg>
