<svg width="36" height="32" viewBox="0 0 36 32" fill="none" xmlns="http://www.w3.org/2000/svg">
<g id="Group 48095803">
<rect id="Rectangle 9827" x="8.85938" y="0.5" width="18.0642" height="31" rx="2.5" fill="#7BE0B8" stroke="#212529"/>
<path id="Vector 3556" d="M19.7708 11.7344C20.4703 13.2857 20.346 16.4658 16.2422 16.7761L19.9729 20.2665" stroke="#212529" stroke-linecap="round" stroke-linejoin="round"/>
<path id="Vector 3557" d="M14.5859 11.7344H22.0171" stroke="#212529" stroke-linecap="round"/>
<path id="Vector 3551" d="M14.5859 14.2109H22.0171" stroke="#212529" stroke-linecap="round"/>
<path id="Vector 3554" d="M17.0625 26.8711H18.8515" stroke="#212529" stroke-linecap="round" stroke-linejoin="round"/>
<path id="Vector 3555" d="M13.3516 1.13672L14.7277 3.61378H21.058L22.4341 1.13672" stroke="#212529" stroke-linecap="round" stroke-linejoin="round"/>
<path id="Ellipse 1227" d="M29.0244 11.0577C30.6904 12.7237 30.6904 15.4248 29.0244 17.0908" stroke="#212529" stroke-linecap="round" stroke-linejoin="round"/>
<path id="Ellipse 1229" d="M6.34282 17.0908C4.67682 15.4248 4.67682 12.7237 6.34282 11.0577" stroke="#212529" stroke-linecap="round" stroke-linejoin="round"/>
<path id="Ellipse 1228" d="M30.6742 9.38435C33.2644 11.9745 33.2644 16.1739 30.6742 18.7641" stroke="#212529" stroke-linecap="round" stroke-linejoin="round"/>
<path id="Ellipse 1230" d="M4.69295 18.7641C2.10281 16.1739 2.10281 11.9745 4.69295 9.38435" stroke="#212529" stroke-linecap="round" stroke-linejoin="round"/>
</g>
</svg>
