<svg width="43" height="27" viewBox="0 0 43 27" fill="none" xmlns="http://www.w3.org/2000/svg">
<g id="Group 48095773">
<path id="Ellipse 1213" d="M34.1147 13.9284C34.1147 20.7925 28.5503 26.3569 21.6862 26.3569C14.8222 26.3569 9.25781 20.7925 9.25781 13.9284C9.25781 7.0644 14.8222 1.5 21.6862 1.5C28.5503 1.5 34.1147 7.0644 34.1147 13.9284Z" fill="#7BE0B8" stroke="#212529"/>
<path id="Ellipse 1214" d="M30.3793 13.9274C30.3793 18.7288 26.4871 22.621 21.6857 22.621C16.8844 22.621 12.9922 18.7288 12.9922 13.9274C12.9922 9.12612 16.8844 5.23389 21.6857 5.23389C26.4871 5.23389 30.3793 9.12612 30.3793 13.9274Z" fill="#7BE0B8" stroke="#212529"/>
<path id="Vector 3523" d="M37.3438 26.7139V14.0728M37.3438 14.0728V1.43164C38.8281 1.62317 41.7969 2.86813 41.7969 6.31572V14.0728H37.3438Z" stroke="#212529"/>
<path id="Ellipse 1215" d="M1 2.00488V7.8945C1 9.63988 2.41491 11.0548 4.16028 11.0548C5.90566 11.0548 7.32057 9.63988 7.32057 7.8945V2.00488" stroke="#212529"/>
<path id="Vector 3524" d="M4.16406 27.001V1.86768" stroke="#212529"/>
</g>
</svg>
