<svg width="19" height="20" viewBox="0 0 19 20" fill="#49D49D" xmlns="http://www.w3.org/2000/svg">
<path d="M13.1654 10.8333L9.83203 18.3333C9.16899 18.3333 8.53311 18.0699 8.06426 17.601C7.59542 17.1322 7.33203 16.4963 7.33203 15.8333V12.4999H2.61537C2.37378 12.5027 2.13448 12.4528 1.91406 12.3539C1.69363 12.255 1.49735 12.1093 1.33882 11.927C1.18028 11.7447 1.06328 11.5301 0.995915 11.298C0.928553 11.066 0.912442 10.8221 0.948698 10.5833L2.0987 3.08325C2.15897 2.68583 2.36084 2.32358 2.66711 2.06325C2.97338 1.80291 3.36342 1.66204 3.76536 1.66659H13.1654M13.1654 10.8333V1.66659M13.1654 10.8333H15.6654C16.1074 10.8333 16.5313 10.6577 16.8439 10.3451C17.1564 10.0325 17.332 9.60861 17.332 9.16659V3.33325C17.332 2.89122 17.1564 2.4673 16.8439 2.15474C16.5313 1.84218 16.1074 1.66659 15.6654 1.66659H13.1654" stroke="#212529" stroke-width="1" stroke-linecap="round" stroke-linejoin="round" fill="#49D49D"/>
</svg>
