<svg width="159" height="156" viewBox="0 0 159 156" fill="none" xmlns="http://www.w3.org/2000/svg">
<circle cx="79.5" cy="78.5" r="50.5" fill="#F4EFFB"/>
<circle cx="79" cy="149" r="2" fill="white"/>
<path d="M52.2697 149.069L51.9027 150.149L58.0094 152.225L61.3894 142.284L55.1549 140.164L54.788 141.244L59.8721 142.972L58.7229 146.352L54.5334 144.928L54.1665 146.007L58.3559 147.431L57.226 150.755L52.2697 149.069Z" fill="white"/>
<path d="M43.4569 133.987L44.1977 140.67L38.5315 143.265L39.7967 143.984L44.3086 141.872L44.8181 146.836L46.0702 147.548L45.4106 141.359L51.5302 138.573L50.226 137.832L45.2866 140.15L44.7481 134.721L43.4569 133.987Z" fill="white"/>
<path d="M30.1396 136.739L32.8689 139.063L39.6768 131.069L38.7518 130.282L35.8536 133.685L34.2091 132.284C32.5418 130.864 30.6574 131.249 29.6167 132.471C28.6247 133.636 28.4951 135.338 30.1396 136.739ZM35.1339 134.53L32.6636 137.431L30.8821 135.913C29.8886 135.067 29.9404 133.988 30.5726 133.246C31.2437 132.458 32.3931 132.196 33.4552 133.1L35.1339 134.53Z" fill="white"/>
<path d="M29.6673 123.001L22.4807 128.998L23.2591 129.931L31.321 123.204L27.4193 118.528L26.544 119.258L29.6673 123.001Z" fill="white"/>
<path d="M13.1171 115.737C14.5849 118.422 17.7173 119.274 20.4813 117.763C23.2453 116.252 24.2194 113.155 22.7517 110.47C21.284 107.785 18.1587 106.946 15.3947 108.457C12.6307 109.968 11.6494 113.052 13.1171 115.737ZM19.8842 116.67C17.6993 117.865 15.247 117.256 14.1175 115.19C12.9879 113.123 13.7998 110.731 15.9847 109.537C18.1696 108.342 20.6218 108.951 21.7514 111.017C22.881 113.083 22.0691 115.476 19.8842 116.67Z" fill="white"/>
<path d="M7.38154 101.116L8.41531 104.549L18.4693 101.521L18.1189 100.358L13.6377 101.708L13.0538 99.7686L16.7348 95.7619L16.3239 94.3975L12.4593 98.6787C11.6806 97.3937 10.3311 96.9698 9.13898 97.3288C7.73143 97.7527 6.75436 99.0339 7.38154 101.116ZM12.6036 102.019L9.1278 103.066L8.48764 100.94C8.09836 99.6474 8.64626 98.7618 9.62293 98.4676C10.5422 98.1908 11.5871 98.6437 11.9678 99.9076L12.6036 102.019Z" fill="white"/>
<path d="M5.50254 84.2031L4.36942 84.3282L5.07723 90.7392L15.5138 89.587L14.7912 83.0418L13.6581 83.1669L14.2474 88.5044L10.6989 88.8962L10.2133 84.4979L9.08022 84.623L9.56581 89.0213L6.07701 89.4065L5.50254 84.2031Z" fill="white"/>
<path d="M8.06993 55.6514C7.11288 58.5579 8.63177 61.4268 11.6237 62.412C14.6157 63.3972 17.542 61.992 18.4991 59.0855C19.4561 56.179 17.9325 53.3243 14.9406 52.3391C11.9486 51.3539 9.02698 52.7449 8.06993 55.6514ZM12.0131 61.2295C9.64805 60.4507 8.41618 58.2448 9.15274 56.0079C9.88929 53.7711 12.1908 52.7286 14.5559 53.5074C16.921 54.2861 18.1528 56.4921 17.4163 58.7289C16.6797 60.9658 14.3782 62.0083 12.0131 61.2295Z" fill="white"/>
<path d="M16.3864 38.8224L22.2548 42.2776C23.7283 43.1452 24.0981 44.6162 23.2381 46.0769C22.3781 47.5375 20.9124 47.9278 19.4389 47.0602L13.5705 43.605L12.954 44.652L18.8483 48.1224C20.8647 49.3097 22.9777 48.7957 24.2334 46.6629C25.4891 44.5301 24.9135 42.4331 22.8971 41.2458L17.0028 37.7754L16.3864 38.8224Z" fill="white"/>
<path d="M23.8241 29.2336L21.4406 31.9116L29.2841 38.8924L30.0918 37.9848L26.5959 34.8734L27.9422 33.3607L33.283 34.3992L34.2304 33.3348L28.5595 32.2836C29.2467 30.9474 28.9013 29.5757 27.9713 28.7479C26.8732 27.7706 25.2701 27.6089 23.8241 29.2336ZM25.7892 34.1553L23.0776 31.742L24.5535 30.0837C25.451 29.0752 26.4924 29.0784 27.2544 29.7565C27.9715 30.3947 28.1327 31.5222 27.2551 32.5082L25.7892 34.1553Z" fill="white"/>
<path d="M49.0306 10.9207L45.7691 12.4089L50.1277 21.9615L51.233 21.4571L49.2904 17.1994L51.1327 16.3588L55.6 19.4646L56.8964 18.8731L52.1322 15.6225C53.3002 14.6773 53.5378 13.2829 53.021 12.1502C52.4108 10.8128 51.0094 10.0179 49.0306 10.9207ZM48.842 16.2168L47.3352 12.9144L49.3549 11.9928C50.5831 11.4324 51.5346 11.8556 51.958 12.7836C52.3565 13.657 52.049 14.7536 50.8481 15.3015L48.842 16.2168Z" fill="white"/>
<path d="M68.6149 15.706L69.8846 15.4048L63.4037 6.15085L62.2799 6.41744L60.6314 17.5999L61.9012 17.2987L62.3269 14.284L66.8805 13.2038L68.6149 15.706ZM62.4904 13.089L63.2015 7.83294L66.2122 12.2061L62.4904 13.089Z" fill="white"/>
<path d="M81.4559 4.2755L81.6722 12.8678L75.4278 4.42732L74.0932 4.46093L74.3575 14.9576L75.5722 14.927L75.3573 6.39472L81.6002 14.7752L82.9348 14.7416L82.6705 4.24491L81.4559 4.2755Z" fill="white"/>
<path d="M93.4888 11.8666L96.406 12.4241L95.9414 14.8551C95.2388 15.2553 94.3026 15.5193 93.1681 15.3024C91.0612 14.8998 89.4871 13.1481 90.0306 10.3046C90.5712 7.47578 92.6973 6.3397 94.7452 6.73112C96.0123 6.97329 97.0369 7.76471 97.5035 8.99924L98.6082 8.49263C97.9504 6.90083 96.683 5.94085 95.0476 5.62828C92.263 5.09607 89.461 6.65272 88.8049 10.0856C88.2361 13.0617 89.583 15.7626 92.8096 16.3793C94.4892 16.7003 95.8156 16.3124 97.0271 15.5666L97.7959 11.5444L93.7 10.7616L93.4888 11.8666Z" fill="white"/>
<path d="M111.323 12.3426L111.75 11.2856L105.769 8.86925L101.836 18.6046L107.941 21.0715L108.368 20.0145L103.389 18.0028L104.727 14.6928L108.83 16.3505L109.257 15.2935L105.154 13.6358L106.469 10.3814L111.323 12.3426Z" fill="white"/>
<path d="M135.246 28.1404C133.14 25.9198 129.894 25.8969 127.608 28.0641C125.322 30.2314 125.172 33.4741 127.278 35.6948C129.383 37.9154 132.619 37.9274 134.905 35.7602C137.191 33.5929 137.351 30.361 135.246 28.1404ZM128.465 28.9676C130.272 27.2545 132.798 27.2157 134.419 28.9247C136.039 30.6338 135.865 33.1544 134.058 34.8676C132.251 36.5807 129.725 36.6195 128.105 34.9104C126.485 33.2014 126.658 30.6808 128.465 28.9676Z" fill="white"/>
<path d="M140.641 45.5989L141.609 44.996L139.268 41.2405L142.285 39.3603L145.054 43.8031L146.022 43.2002L142.61 37.7262L133.699 43.2797L134.342 44.3108L138.301 41.8435L140.641 45.5989Z" fill="white"/>
<path d="M154.664 69.2409L154.113 65.6986L143.738 67.3136L143.925 68.5142L148.341 67.8266L148.674 69.9609C149.011 72.1249 150.69 73.0627 152.276 72.8159C153.787 72.5805 154.996 71.3752 154.664 69.2409ZM149.438 67.6559L153.203 67.0699L153.563 69.382C153.764 70.6715 153.02 71.4551 152.057 71.6051C151.034 71.7643 149.992 71.2131 149.777 69.8347L149.438 67.6559Z" fill="white"/>
<path d="M155.365 82.5663L155.466 78.9827L144.97 78.6874L144.936 79.902L149.614 80.0336L149.557 82.0578L144.801 84.7001L144.76 86.1245L149.777 83.2795C150.111 84.7444 151.259 85.572 152.503 85.607C153.972 85.6484 155.304 84.7404 155.365 82.5663ZM150.693 80.0639L154.322 80.166L154.259 82.3851C154.221 83.7346 153.422 84.4024 152.403 84.3737C151.443 84.3467 150.594 83.5875 150.631 82.2681L150.693 80.0639Z" fill="white"/>
<path d="M153.422 98.1213C154.137 95.146 152.388 92.4115 149.325 91.6754C146.262 90.9394 143.461 92.5803 142.746 95.5555C142.031 98.5308 143.784 101.251 146.847 101.987C149.909 102.723 152.707 101.097 153.422 98.1213ZM149.034 92.886C151.455 93.4678 152.864 95.5651 152.314 97.8549C151.763 100.145 149.555 101.373 147.134 100.791C144.713 100.209 143.304 98.1117 143.854 95.8219C144.405 93.5321 146.613 92.3041 149.034 92.886Z" fill="white"/>
<path d="M139.938 105.052L138.536 107.956C136.944 111.252 138.553 114.061 140.944 115.216C143.28 116.344 146.386 115.845 147.952 112.603L149.393 109.618L139.938 105.052ZM140.436 106.642L147.838 110.217L146.932 112.094C145.732 114.58 143.288 114.982 141.424 114.082C139.56 113.182 138.316 111.032 139.53 108.52L140.436 106.642Z" fill="white"/>
<path d="M138.027 128.188L132.611 124.06C131.251 123.023 131.059 121.518 132.087 120.17C133.114 118.822 134.616 118.609 135.976 119.646L141.392 123.774L142.128 122.808L136.689 118.661C134.828 117.243 132.668 117.502 131.168 119.47C129.668 121.438 129.99 123.589 131.851 125.008L137.29 129.154L138.027 128.188Z" fill="white"/>
<path d="M122.216 130.469C123.761 129.137 126.165 128.985 128.027 131.143C129.859 133.267 129.481 135.653 127.868 137.044C126.891 137.887 125.615 138.176 124.369 137.765L124.088 138.978C125.711 139.459 127.295 139.044 128.555 137.957C130.702 136.105 131.211 132.952 128.929 130.305C126.842 127.886 123.826 127.536 121.543 129.505C119.987 130.847 119.413 132.709 120.058 134.788L121.187 134.467C120.685 132.92 121.058 131.469 122.216 130.469Z" fill="white"/>
<path d="M115.416 145.24L112.262 147.005L112.819 148L120.188 143.875L119.631 142.88L116.477 144.646L111.905 136.479L110.845 137.072L115.416 145.24Z" fill="white"/>
<path d="M101.056 150.349L100.56 151.405C101.593 152.02 102.827 152.108 103.949 151.726C105.71 151.128 106.725 149.547 106.112 147.743C105.508 145.968 103.9 145.897 102.135 145.927C100.826 145.944 99.5928 145.951 99.2065 144.815C98.8782 143.849 99.4085 142.893 100.63 142.478C101.595 142.149 102.763 142.228 103.73 142.929L104.302 141.815C103.021 140.983 101.522 140.954 100.329 141.36C98.568 141.959 97.4529 143.479 98.0903 145.353C98.6939 147.128 100.259 147.166 101.986 147.118C103.295 147.101 104.595 147.102 105.01 148.324C105.362 149.36 104.741 150.237 103.634 150.614C102.796 150.899 101.837 150.828 101.056 150.349Z" fill="white"/>
</svg>
