<svg width="72" height="42" viewBox="0 0 72 42" fill="none" xmlns="http://www.w3.org/2000/svg">
<path d="M60.7487 11.2513C67.3125 17.815 71 26.7174 71 36L1 36C1 26.7174 4.68749 17.815 11.2513 11.2513C17.815 4.68749 26.7174 1 36 1C45.2826 1 54.185 4.68749 60.7487 11.2513Z" stroke="#212529" stroke-width="1.5"/>
<path d="M54.9739 17.0253C60.0061 22.0575 62.8332 28.8827 62.8332 35.9993L9.1665 35.9993C9.1665 28.8827 11.9936 22.0575 17.0258 17.0253C22.058 11.9931 28.8832 9.16602 35.9998 9.16602C43.1165 9.16602 49.9416 11.9931 54.9739 17.0253Z" fill="#7BE0B8" stroke="#212529" stroke-width="1.5"/>
<path d="M38.0329 36.3849C37.3878 36.9753 36.3863 36.9309 35.796 36.2858C35.2056 35.6407 35.25 34.6392 35.8951 34.0488C35.9694 33.9808 36.3002 33.735 36.8967 33.3149C37.4686 32.9123 38.2363 32.3826 39.1339 31.7694C40.9285 30.5434 43.2335 28.9893 45.5104 27.4613C46.6362 26.7058 47.7547 25.957 48.8008 25.2577C47.9503 26.1434 47.0422 27.0885 46.1272 28.04C42.3427 31.9753 38.4849 35.9713 38.0329 36.3849Z" fill="#212529" stroke="#212529" stroke-width="1.5"/>
<circle cx="35.9998" cy="35.9993" r="5.08333" fill="white" stroke="#212529" stroke-width="1.5"/>
<circle cx="36" cy="36" r="1.25" fill="#212529" stroke="#212529" stroke-width="1.5"/>
<path d="M36 1.58398V5.66732V8.75065" stroke="black" stroke-width="1.5" stroke-linecap="round"/>
<path d="M11 12L16.5 17.5" stroke="black" stroke-width="1.5" stroke-linecap="round"/>
<path d="M61.6118 12.667L56.5024 18.001" stroke="black" stroke-width="1.5" stroke-linecap="round"/>
</svg>
