<svg width="101" height="80" viewBox="0 0 101 80" fill="none" xmlns="http://www.w3.org/2000/svg">
<path d="M9.8985 9.77441L12.4369 16.3601L19.297 18.797L12.4369 21.2339L9.8985 27.8195L7.36005 21.2339L0.5 18.797L7.36005 16.3601L9.8985 9.77441Z" fill="#49D49D"/>
<path d="M89.5594 69.9248L90.8689 73.4637L94.4079 74.7733L90.8689 76.0828L89.5594 79.6217L88.2499 76.0828L84.7109 74.7733L88.2499 73.4637L89.5594 69.9248Z" fill="#49D49D"/>
<path d="M96.3639 6.01465L97.4808 9.03307L100.499 10.15L97.4808 11.2669L96.3639 14.2853L95.2469 11.2669L92.2285 10.15L95.2469 9.03307L96.3639 6.01465Z" fill="#49D49D"/>
<circle cx="56.8906" cy="39.8496" r="39.4737" stroke="#49D49D" stroke-width="0.75188"/>
<circle cx="56.8917" cy="39.8497" r="28.5714" fill="#49D49D"/>
<path d="M68.1697 32.3311L52.6622 47.3686L45.6133 40.5334" stroke="white" stroke-width="4.51128" stroke-linejoin="round"/>
</svg>
