<svg width="85" height="85" viewBox="0 0 85 85" fill="none" xmlns="http://www.w3.org/2000/svg">
<g id="Group 48095782">
<circle id="Ellipse 783" cx="42.5" cy="42.5" r="42.5" fill="#7BE0B8"/>
<path id="Rectangle 9805" d="M23.75 29C23.75 27.7574 24.7574 26.75 26 26.75H52C53.2426 26.75 54.25 27.7574 54.25 29V32.25H23.75V29Z" fill="#49D49D" stroke="#212529" stroke-width="1.5"/>
<path id="Rectangle 9806" d="M23.75 50C23.75 51.2426 24.7574 52.25 26 52.25H52C53.2426 52.25 54.25 51.2426 54.25 50V35.75H23.75V50Z" fill="#49D49D" stroke="#212529" stroke-width="1.5"/>
<path id="Vector" d="M54 61C58.9706 61 63 56.9706 63 52C63 47.0294 58.9706 43 54 43C49.0294 43 45 47.0294 45 52C45 56.9706 49.0294 61 54 61Z" fill="#49D49D" stroke="#212529" stroke-width="1.5" stroke-linecap="round" stroke-linejoin="round"/>
<path id="Vector 3535" d="M50.5 52.5L52.5 55L58 50" stroke="#212529" stroke-width="1.5" stroke-linecap="round" stroke-linejoin="round"/>
</g>
</svg>
