<svg width="300" height="281" viewBox="0 0 300 281" fill="none" xmlns="http://www.w3.org/2000/svg">
<path d="M27.8597 265.547C27.0683 264.868 25.3025 262.717 26.6639 260.216C27.1631 259.298 28.2233 258.845 29.1833 258.441C30.1427 258.036 31.1513 257.685 31.9457 257.01C33.4433 255.735 33.8567 253.619 34.8503 251.919C35.9915 249.968 38.1215 248.507 40.3721 248.609C42.9491 248.726 45.0989 250.83 46.0727 253.23C47.0471 255.63 47.0813 258.295 47.1011 260.887C47.1125 262.32 47.0489 263.936 45.9965 264.903C45.0263 265.796 43.5659 265.806 42.2513 265.766C37.5569 265.622 32.8619 265.478 28.1675 265.334" fill="#F5F5F5"/>
<path d="M54.7968 226.818H17.7582L24.4302 266.602C24.7218 268.34 25.9788 269.679 27.5922 270.144C27.6348 270.157 27.6786 270.167 27.7218 270.179C27.8322 270.207 27.9384 270.245 28.0518 270.264C28.296 270.315 28.5486 270.341 28.8048 270.351C28.8066 270.363 28.809 270.377 28.8108 270.389L28.9914 270.36H28.9926H45.4998C45.8106 270.36 46.1136 270.329 46.407 270.27C48.3564 269.968 49.917 268.404 50.154 266.382L53.3706 238.97L53.5158 237.881H53.4984L54.7722 227.025L54.7968 226.818ZM47.8098 252.195H44.0088L44.3922 240.65H48.7962L47.8098 252.195ZM49.1652 240.65H52.8042L51.4494 252.195H48.1788L49.1652 240.65ZM38.3058 264.995L38.0748 254.964H43.5486L43.2156 264.995H38.3058ZM32.3886 254.964H37.707L37.938 264.995H33.168L32.3886 254.964ZM32.7996 264.995H28.3404C27.9168 262.286 27.3654 258.767 26.7684 254.964H32.0202L32.7996 264.995ZM32.1732 252.195L31.2762 240.65H37.3776L37.6434 252.195H32.1732ZM38.0112 252.195L37.7454 240.65H44.0244L43.641 252.195H38.0112ZM37.6812 237.881L37.4352 227.188H44.4714L44.1162 237.881H37.6812ZM37.3134 237.881H31.0608L30.2298 227.188H37.0674L37.3134 237.881ZM30.6918 237.881H24.0762C23.8422 236.404 23.6196 235.006 23.4192 233.748C22.7292 229.425 22.4694 227.8 22.3254 227.188H29.8608L30.6918 237.881ZM30.9072 240.65L31.8042 252.195H26.3328C26.1486 251.024 25.9626 249.839 25.776 248.653C25.347 245.927 24.9174 243.203 24.5142 240.65H30.9072ZM25.9614 252.195H22.3872L20.4504 240.65H24.1422C24.7062 244.218 25.332 248.189 25.9614 252.195ZM26.3958 254.964C26.9406 258.435 27.477 261.858 27.9678 264.995H24.534L22.8516 254.964H26.3958ZM43.5834 264.995L43.9164 254.964H47.5728L46.716 264.995H43.5834ZM44.484 237.881L44.8392 227.188H49.9464L49.0332 237.881H44.484ZM21.9756 227.188C22.1226 227.961 22.7982 232.169 23.7042 237.881H19.986L18.1926 227.188H21.9756ZM49.9476 264.995H47.085L47.9418 254.964H51.1242L49.9476 264.995ZM53.1288 237.881H49.4016L50.3154 227.188H54.384L53.1288 237.881Z" fill="#E0E0E0"/>
<path d="M288.086 270.405C288.086 270.491 226.258 270.561 150.007 270.561C73.7292 270.561 11.9142 270.491 11.9142 270.405C11.9142 270.319 73.7286 270.249 150.007 270.249C226.258 270.249 288.086 270.319 288.086 270.405Z" fill="#263238"/>
<path d="M213.756 206.889H87.677C84.617 206.889 82.136 204.408 82.136 201.348V17.75C82.136 14.6894 84.617 12.209 87.677 12.209H213.756C216.816 12.209 219.297 14.69 219.297 17.75V201.348C219.297 204.408 216.816 206.889 213.756 206.889Z" fill="#E0E0E0"/>
<path d="M213.756 206.892C213.756 206.892 213.898 206.88 214.18 206.863C214.462 206.844 214.881 206.78 215.415 206.624C215.943 206.451 216.584 206.159 217.228 205.641C217.862 205.122 218.499 204.363 218.891 203.349C219.097 202.848 219.214 202.277 219.251 201.674C219.283 201.069 219.258 200.425 219.264 199.754C219.262 198.409 219.26 196.939 219.258 195.346C219.255 192.16 219.25 188.485 219.246 184.347C219.236 167.794 219.222 143.844 219.204 114.25C219.199 99.4532 219.194 83.2448 219.188 65.8448C219.186 57.1448 219.184 48.1466 219.181 38.8784C219.18 34.244 219.18 29.5424 219.178 24.776C219.175 22.394 219.172 19.9964 219.168 17.5832C219.145 16.3994 218.691 15.2384 217.945 14.315C217.183 13.4048 216.127 12.728 214.956 12.4724C214.371 12.3392 213.775 12.3272 213.157 12.335C212.544 12.335 211.929 12.335 211.314 12.335C210.084 12.335 208.85 12.3356 207.612 12.3356C205.137 12.3362 202.647 12.3362 200.142 12.3368C195.132 12.3374 190.066 12.338 184.945 12.3386C174.705 12.3398 164.248 12.341 153.603 12.3422C132.313 12.3428 110.271 12.344 87.6938 12.3446C86.3126 12.3398 84.9458 12.8846 83.954 13.838C82.9538 14.7818 82.3418 16.1174 82.2836 17.486C82.256 20.2784 82.2758 23.0852 82.2698 25.8704C82.2698 31.4462 82.2692 36.9854 82.2692 42.4838C82.2686 53.4812 82.268 64.3172 82.2674 74.9648C82.265 96.26 82.262 116.8 82.2596 136.368C82.2554 155.935 82.2512 174.529 82.247 191.93C82.2464 194.105 82.2458 196.262 82.2452 198.399C82.25 199.466 82.2326 200.537 82.256 201.586C82.2908 202.626 82.6478 203.641 83.2394 204.481C83.8322 205.325 84.6662 205.983 85.607 206.377C86.0804 206.568 86.5772 206.692 87.0806 206.754C87.5828 206.798 88.1012 206.788 88.6166 206.788C90.6758 206.789 92.7158 206.79 94.7348 206.79C102.812 206.793 110.563 206.796 117.962 206.799C147.556 206.817 171.504 206.831 188.055 206.841C196.329 206.851 202.753 206.86 207.112 206.866C209.289 206.872 210.949 206.876 212.068 206.879C213.183 206.883 213.756 206.892 213.756 206.892C213.756 206.892 213.184 206.901 212.067 206.905C210.949 206.908 209.288 206.913 207.111 206.919C202.753 206.924 196.328 206.932 188.055 206.944C171.503 206.954 147.555 206.968 117.961 206.986C110.563 206.989 102.811 206.991 94.7342 206.994C92.7152 206.995 90.6752 206.995 88.616 206.996C88.1018 206.995 87.5864 207.007 87.0572 206.961C86.534 206.896 86.0174 206.769 85.526 206.57C84.548 206.162 83.6816 205.479 83.0654 204.603C82.4498 203.73 82.0784 202.674 82.0412 201.594C82.0166 200.526 82.034 199.469 82.028 198.398C82.0274 196.261 82.0268 194.104 82.0262 191.929C82.0226 174.528 82.0184 155.934 82.0142 136.366C82.0118 116.799 82.0094 96.2582 82.0064 74.9636C82.0058 64.316 82.0052 53.48 82.0046 42.4826C82.0046 36.9842 82.004 31.445 82.004 25.8692C82.01 23.0786 81.9902 20.2904 82.0178 17.4722C82.079 16.0364 82.7216 14.6342 83.7704 13.6448C84.8102 12.6452 86.2466 12.0728 87.6932 12.0782C110.27 12.0788 132.313 12.08 153.603 12.0812C164.248 12.0824 174.704 12.0836 184.945 12.0842C190.065 12.0848 195.132 12.0854 200.141 12.0866C202.645 12.0872 205.136 12.0872 207.612 12.0878C208.849 12.0878 210.084 12.0884 211.314 12.0884C211.929 12.0884 212.543 12.0884 213.156 12.0884C213.763 12.0812 214.401 12.0926 215.01 12.2324C216.234 12.5012 217.338 13.208 218.133 14.1596C218.911 15.1238 219.385 16.3388 219.409 17.5748C219.412 19.9904 219.414 22.391 219.417 24.7754C219.415 29.5412 219.415 34.2434 219.414 38.8778C219.411 48.1466 219.409 57.1442 219.407 65.8442C219.401 83.2442 219.396 99.4526 219.391 114.25C219.373 143.844 219.358 167.793 219.349 184.347C219.344 188.484 219.34 192.16 219.337 195.346C219.334 196.939 219.333 198.409 219.331 199.753C219.322 200.426 219.345 201.065 219.311 201.676C219.271 202.286 219.151 202.861 218.941 203.368C218.541 204.39 217.895 205.152 217.254 205.671C216.603 206.19 215.956 206.479 215.424 206.649C214.885 206.802 214.464 206.861 214.182 206.876C213.898 206.889 213.756 206.892 213.756 206.892Z" fill="#263238"/>
<g opacity="0.3">
<path d="M94.1023 202.491H209.218L207.956 178.547V165.803L94.1023 183.593V202.491Z" fill="black"/>
</g>
<g opacity="0.3">
<path d="M185.326 12.6074L187.942 20.366V24.167H184.993L185.326 12.6074Z" fill="black"/>
</g>
<path d="M88.2529 20.0107V198.844H181.546H213.179V20.0107H88.2529Z" fill="white"/>
<path d="M213.179 166.868C213.179 166.868 213.172 166.636 213.169 166.18C213.167 165.722 213.164 165.042 213.16 164.148C213.155 162.353 213.149 159.695 213.142 156.232C213.134 149.301 213.123 139.152 213.109 126.268C213.097 100.494 213.08 63.7817 213.061 20.0123L213.178 20.1299C176.268 20.1341 133.555 20.1395 88.2516 20.1449L88.3842 20.0123C88.3842 20.0627 88.3842 20.1167 88.3842 20.1713C88.3716 88.9181 88.3602 151.699 88.3512 198.845L88.2516 198.746C116.99 198.764 140.313 198.779 156.453 198.789C164.521 198.801 170.793 198.81 175.051 198.816C177.177 198.822 178.799 198.827 179.893 198.831C180.985 198.836 181.544 198.846 181.544 198.846C181.544 198.846 180.985 198.855 179.893 198.861C178.799 198.864 177.176 198.869 175.051 198.875C170.793 198.881 164.521 198.89 156.453 198.902C140.312 198.912 116.99 198.928 88.2516 198.946H88.152V198.846C88.143 151.7 88.1316 88.9193 88.119 20.1725C88.119 20.1179 88.119 20.0633 88.119 20.0135V19.8809H88.2516C133.555 19.8863 176.268 19.8917 213.178 19.8959H213.296V20.0135C213.276 63.7829 213.26 100.496 213.248 126.269C213.234 139.154 213.223 149.303 213.215 156.233C213.207 159.696 213.201 162.354 213.197 164.149C213.193 165.044 213.19 165.723 213.187 166.181C213.185 166.636 213.179 166.868 213.179 166.868Z" fill="#263238"/>
<path d="M185.326 25.6949H122.117V11.1569C122.117 9.06113 123.816 7.36133 125.912 7.36133H181.531C183.626 7.36133 185.326 9.06053 185.326 11.1569V25.6949Z" fill="#263238"/>
<path d="M161.765 0.466797H145.678L147.558 14.2566H159.676L161.765 0.466797Z" fill="#263238"/>
<path d="M181.265 7.36112C181.265 7.43432 168.932 7.49372 153.722 7.49372C138.507 7.49372 126.177 7.43432 126.177 7.36112C126.177 7.28792 138.507 7.22852 153.722 7.22852C168.932 7.22852 181.265 7.28792 181.265 7.36112Z" fill="#455A64"/>
<path d="M123.532 22.7346C123.459 22.7346 123.399 20.1414 123.399 16.9428C123.399 13.743 123.459 11.1504 123.532 11.1504C123.605 11.1504 123.664 13.743 123.664 16.9428C123.664 20.1414 123.605 22.7346 123.532 22.7346Z" fill="#455A64"/>
<path d="M183.28 21.3645C183.206 21.3645 183.147 19.0101 183.147 16.1061C183.147 13.2015 183.206 10.8477 183.28 10.8477C183.353 10.8477 183.412 13.2015 183.412 16.1061C183.412 19.0101 183.353 21.3645 183.28 21.3645Z" fill="#455A64"/>
<path d="M180.232 23.8045C180.232 23.8777 167.572 23.9371 151.959 23.9371C136.341 23.9371 123.684 23.8777 123.684 23.8045C123.684 23.7313 136.341 23.6719 151.959 23.6719C167.572 23.6719 180.232 23.7313 180.232 23.8045Z" fill="#455A64"/>
<path d="M197.362 54.3301H128.371V58.5709H197.362V54.3301Z" fill="#E0E0E0"/>
<path d="M159.67 62.9932H128.371V67.2046H159.67V62.9932Z" fill="#E0E0E0"/>
<path d="M119.032 68.4692H107.716C106.436 68.4692 105.398 67.4318 105.398 66.1514V54.8354C105.398 53.5556 106.436 52.5176 107.716 52.5176H119.032C120.312 52.5176 121.35 53.555 121.35 54.8354V66.1514C121.35 67.4318 120.313 68.4692 119.032 68.4692Z" fill="#49D49D"/>
<path d="M113.146 64.2945L108.677 60.8415L109.882 59.2821L112.879 61.5975L117.14 56.6943L118.627 57.9873L113.146 64.2945Z" fill="white"/>
<path d="M197.362 80.5869H128.371V84.8277H197.362V80.5869Z" fill="#E0E0E0"/>
<path d="M159.67 89.25H128.371V93.4614H159.67V89.25Z" fill="#E0E0E0"/>
<path d="M119.032 94.727H107.716C106.437 94.727 105.399 93.6896 105.399 92.4092V81.0932C105.399 79.8134 106.436 78.7754 107.716 78.7754H119.032C120.312 78.7754 121.35 79.8128 121.35 81.0932V92.4092C121.35 93.6896 120.313 94.727 119.032 94.727Z" fill="#49D49D"/>
<path d="M113.146 90.5514L108.678 87.0984L109.882 85.539L112.879 87.8544L117.14 82.9512L118.627 84.2442L113.146 90.5514Z" fill="white"/>
<path d="M197.362 108.72H128.371V112.961H197.362V108.72Z" fill="#E0E0E0"/>
<path d="M159.67 117.384H128.371V121.595H159.67V117.384Z" fill="#E0E0E0"/>
<path d="M197.362 134.729H128.371V138.97H197.362V134.729Z" fill="#E0E0E0"/>
<path d="M159.67 143.392H128.371V147.603H159.67V143.392Z" fill="#E0E0E0"/>
<path d="M119.032 122.861H107.716C106.437 122.861 105.399 121.823 105.399 120.543V109.227C105.399 107.947 106.436 106.909 107.716 106.909H119.032C120.312 106.909 121.35 107.947 121.35 109.227V120.543C121.35 121.823 120.313 122.861 119.032 122.861Z" fill="#49D49D"/>
<path d="M113.146 118.685L108.678 115.232L109.882 113.673L112.879 115.988L117.14 111.085L118.627 112.377L113.146 118.685Z" fill="white"/>
<path d="M119.26 149.88H107.488C106.187 149.88 105.128 148.822 105.128 147.52V135.748C105.128 134.447 106.187 133.389 107.488 133.389H119.26C120.562 133.389 121.621 134.447 121.621 135.748V147.52C121.621 148.822 120.562 149.88 119.26 149.88ZM107.489 133.929C106.486 133.929 105.67 134.745 105.67 135.748V147.52C105.67 148.523 106.486 149.34 107.489 149.34H119.261C120.264 149.34 121.08 148.524 121.08 147.52V135.748C121.08 134.746 120.264 133.929 119.261 133.929H107.489Z" fill="#49D49D"/>
<path d="M197.362 164.48H128.371V168.721H197.362V164.48Z" fill="#E0E0E0"/>
<path d="M159.67 173.143H128.371V177.354H159.67V173.143Z" fill="#E0E0E0"/>
<path d="M119.26 179.631H107.488C106.187 179.631 105.128 178.573 105.128 177.271V165.499C105.128 164.198 106.187 163.14 107.488 163.14H119.26C120.562 163.14 121.621 164.198 121.621 165.499V177.271C121.621 178.573 120.562 179.631 119.26 179.631ZM107.489 163.68C106.486 163.68 105.67 164.496 105.67 165.499V177.271C105.67 178.274 106.486 179.091 107.489 179.091H119.261C120.264 179.091 121.08 178.275 121.08 177.271V165.499C121.08 164.497 120.264 163.68 119.261 163.68H107.489Z" fill="#49D49D"/>
<path d="M188.852 37.9092H120.067V43.7982H188.852V37.9092Z" fill="#49D49D"/>
<path d="M131.936 256.254C131.936 256.254 129.866 242.018 130.039 233.735C130.211 225.453 130.028 216.135 130.028 216.135H130.982C130.982 216.135 130.336 232.575 131.039 242.49C131.742 252.398 133.594 256.254 133.594 256.254H131.936Z" fill="#263238"/>
<path d="M138.104 200.117C137.912 199.631 137.677 199.124 137.235 198.845C136.63 198.461 135.836 198.621 135.16 198.86C132.277 199.879 129.722 205.254 128.556 208.082L132.383 220.978C139.292 214.569 140.489 206.161 138.104 200.117Z" fill="#455A64"/>
<path d="M137.011 199.366C137.016 199.369 136.997 199.426 136.955 199.534C136.906 199.658 136.844 199.813 136.768 200.004C136.6 200.41 136.365 201 136.084 201.733C135.52 203.197 134.802 205.244 134.16 207.551C133.521 209.859 133.081 211.984 132.809 213.529C132.673 214.302 132.57 214.929 132.505 215.363C132.472 215.566 132.445 215.731 132.423 215.863C132.403 215.977 132.389 216.036 132.384 216.035C132.379 216.035 132.381 215.974 132.392 215.858C132.406 215.726 132.423 215.56 132.444 215.355C132.491 214.918 132.577 214.288 132.699 213.511C132.943 211.957 133.367 209.823 134.008 207.508C134.652 205.195 135.388 203.147 135.98 201.691C136.275 200.963 136.526 200.378 136.712 199.979C136.799 199.793 136.87 199.642 136.927 199.521C136.978 199.417 137.006 199.364 137.011 199.366Z" fill="#263238"/>
<path d="M130.683 224.07C127.096 222.088 124.981 218.358 124.784 214.265C124.646 211.403 125.525 208.595 126.521 205.908C126.608 205.675 126.71 205.424 126.926 205.301C127.228 205.131 127.604 205.283 127.904 205.454C130.511 206.938 132.091 209.768 132.931 212.648C133.49 214.565 133.78 216.585 133.522 218.564C133.263 220.544 132.131 222.698 130.683 224.07Z" fill="#455A64"/>
<path d="M130.683 224.069C130.678 224.069 130.673 224.01 130.669 223.896C130.667 223.765 130.664 223.602 130.66 223.401C130.658 222.972 130.641 222.35 130.606 221.583C130.537 220.05 130.336 217.935 129.94 215.625C129.542 213.315 129.059 211.247 128.703 209.752C128.528 209.02 128.384 208.421 128.278 207.981C128.233 207.786 128.197 207.626 128.168 207.498C128.144 207.387 128.134 207.328 128.14 207.327C128.145 207.326 128.165 207.382 128.198 207.49C128.235 207.616 128.281 207.773 128.338 207.966C128.456 208.379 128.618 208.98 128.811 209.725C129.195 211.214 129.696 213.282 130.095 215.599C130.492 217.915 130.676 220.039 130.717 221.578C130.738 222.348 130.738 222.971 130.72 223.401C130.712 223.602 130.705 223.766 130.7 223.896C130.694 224.01 130.688 224.07 130.683 224.069Z" fill="#263238"/>
<g opacity="0.3">
<path d="M130.683 224.069C127.096 222.087 124.981 218.357 124.784 214.264C124.646 211.402 125.525 208.594 126.521 205.907C126.608 205.674 126.71 205.423 126.926 205.3C127.228 205.13 127.604 205.282 127.904 205.453C130.511 206.937 132.091 209.767 132.931 212.647C133.49 214.564 133.78 216.584 133.522 218.563C133.263 220.543 132.131 222.697 130.683 224.069Z" fill="black"/>
</g>
<path d="M134.731 245.852C138.262 246.628 141.169 249.118 144.575 250.329C146.829 251.13 149.378 251.414 151.177 252.989C150.745 251.899 149.722 251.173 148.727 250.552C145.926 248.803 142.927 247.37 139.805 246.293C138.202 245.74 136.463 245.277 134.83 245.733" fill="#455A64"/>
<path d="M129.625 248.997C125.203 248.926 120.547 245.162 116.146 244.937C120.752 243.449 127.347 244.664 129.625 248.997Z" fill="#455A64"/>
<path d="M131.353 238.391C133.598 237.581 136.064 237.543 138.422 237.909C140.781 238.276 143.059 239.032 145.324 239.785C145.097 238.251 143.854 237.097 142.687 236.076C141.809 235.307 140.924 234.534 139.916 233.946C138.908 233.357 137.758 232.959 136.592 233.008C135.186 233.067 133.847 233.793 132.924 234.857C132.002 235.92 131.506 236.991 131.353 238.391Z" fill="#455A64"/>
<path d="M122.278 233.507C119.494 231.131 115.278 231.363 111.619 231.446C117.244 234.135 123.305 237.822 128.149 241.747C128.298 239.161 125.794 236.51 122.278 233.507Z" fill="#455A64"/>
<g opacity="0.3">
<path d="M122.278 233.506C119.494 231.13 115.278 231.362 111.619 231.445C117.244 234.134 123.305 237.821 128.149 241.746C128.298 239.16 125.794 236.509 122.278 233.506Z" fill="black"/>
</g>
<path d="M132.605 230.228C134.005 229.295 135.421 228.405 136.886 227.739C138.351 227.074 139.718 226.013 141.133 225.247C142.967 224.253 144.557 222.872 146.241 221.641C147.925 220.409 149.775 219.297 151.836 218.971C150.155 218.624 148.4 218.813 146.744 219.266C145.089 219.717 143.516 220.425 141.952 221.13C139.781 222.108 137.572 223.111 135.797 224.699C134.022 226.286 132.418 227.853 132.605 230.228Z" fill="#455A64"/>
<path d="M144.494 248.998C144.491 249.002 144.443 248.981 144.354 248.937C144.25 248.883 144.122 248.817 143.968 248.737C143.635 248.56 143.157 248.297 142.555 247.995C142.257 247.838 141.927 247.673 141.569 247.505C141.214 247.329 140.829 247.156 140.42 246.979C139.604 246.63 138.692 246.266 137.698 246.029C136.706 245.786 135.718 245.732 134.861 245.958C134.429 246.062 134.022 246.166 133.66 246.317C133.296 246.464 132.972 246.637 132.689 246.815C132.123 247.171 131.727 247.55 131.47 247.822C131.214 248.096 131.089 248.264 131.078 248.256C131.074 248.253 131.101 248.208 131.157 248.126C131.212 248.043 131.302 247.926 131.424 247.781C131.669 247.493 132.059 247.096 132.628 246.721C132.912 246.533 133.24 246.352 133.609 246.196C133.978 246.035 134.395 245.925 134.827 245.816C135.703 245.577 136.73 245.628 137.734 245.876C138.743 246.116 139.66 246.487 140.478 246.845C140.887 247.027 141.272 247.205 141.625 247.387C141.983 247.561 142.311 247.732 142.606 247.895C143.203 248.212 143.674 248.489 143.998 248.683C144.146 248.773 144.269 248.848 144.369 248.909C144.454 248.963 144.497 248.993 144.494 248.998Z" fill="#263238"/>
<path d="M126.327 246.807C126.331 246.796 126.429 246.826 126.604 246.888C126.78 246.947 127.027 247.053 127.325 247.201C127.92 247.495 128.702 247.995 129.437 248.699C130.171 249.405 130.702 250.168 131.019 250.75C131.179 251.041 131.294 251.284 131.361 251.458C131.43 251.63 131.463 251.727 131.453 251.731C131.428 251.743 131.262 251.368 130.922 250.807C130.584 250.245 130.048 249.508 129.328 248.813C128.605 248.121 127.847 247.615 127.272 247.3C126.698 246.982 126.317 246.832 126.327 246.807Z" fill="#263238"/>
<path d="M116.543 233.285C116.545 233.28 116.61 233.299 116.732 233.341C116.869 233.389 117.044 233.452 117.263 233.53C117.499 233.617 117.778 233.72 118.1 233.838C118.426 233.959 118.78 234.138 119.181 234.315C120.773 235.038 122.891 236.254 124.938 237.982C125.947 238.861 126.859 239.754 127.622 240.626C128.383 241.5 129.026 242.323 129.528 243.04C130.033 243.755 130.416 244.351 130.678 244.763C130.802 244.957 130.903 245.115 130.981 245.237C131.049 245.346 131.083 245.404 131.078 245.408C131.074 245.411 131.032 245.359 130.954 245.256C130.877 245.152 130.765 244.999 130.627 244.797C130.348 244.395 129.952 243.81 129.437 243.105C128.926 242.398 128.276 241.587 127.514 240.723C126.749 239.86 125.839 238.976 124.835 238.103C122.802 236.385 120.707 235.162 119.134 234.416C118.738 234.234 118.388 234.048 118.066 233.92C117.749 233.792 117.474 233.681 117.241 233.587C117.028 233.499 116.855 233.427 116.722 233.371C116.603 233.32 116.542 233.29 116.543 233.285Z" fill="#263238"/>
<path d="M137.988 235.905C137.985 235.915 137.86 235.899 137.635 235.859C137.513 235.837 137.379 235.812 137.229 235.784C137.071 235.753 136.886 235.753 136.686 235.732C135.891 235.674 134.732 235.74 133.647 236.331C133.099 236.608 132.64 236.982 132.264 237.357C131.882 237.729 131.593 238.117 131.375 238.456C130.931 239.136 130.794 239.626 130.767 239.617C130.759 239.614 130.783 239.49 130.857 239.272C130.938 239.058 131.063 238.747 131.28 238.398C131.49 238.045 131.776 237.642 132.16 237.255C132.539 236.866 133.009 236.478 133.573 236.192C134.692 235.582 135.89 235.533 136.695 235.621C136.898 235.649 137.085 235.658 137.243 235.697C137.393 235.735 137.527 235.768 137.648 235.799C137.87 235.857 137.991 235.894 137.988 235.905Z" fill="#263238"/>
<path d="M142.432 222.117C142.435 222.122 142.377 222.157 142.265 222.22C142.138 222.289 141.974 222.378 141.772 222.488C141.343 222.719 140.725 223.06 139.975 223.502C139.229 223.95 138.349 224.5 137.414 225.169C136.481 225.839 135.479 226.619 134.554 227.565C134.098 228.042 133.677 228.539 133.384 229.08C133.094 229.636 132.817 230.174 132.563 230.69C132.052 231.721 131.635 232.671 131.334 233.486C131.034 234.302 130.847 234.982 130.736 235.455C130.623 235.929 130.582 236.196 130.567 236.193C130.561 236.192 130.567 236.125 130.584 235.997C130.6 235.87 130.627 235.682 130.676 235.442C130.769 234.963 130.94 234.274 131.228 233.448C131.518 232.623 131.926 231.664 132.431 230.626C132.683 230.106 132.958 229.566 133.246 229.008C133.55 228.443 133.977 227.939 134.439 227.456C135.376 226.498 136.386 225.718 137.329 225.05C138.274 224.385 139.162 223.843 139.918 223.406C140.678 222.975 141.304 222.648 141.743 222.433C141.951 222.334 142.119 222.254 142.25 222.191C142.367 222.138 142.43 222.112 142.432 222.117Z" fill="#263238"/>
<path d="M130.033 235.505C130.022 235.507 129.992 235.374 129.946 235.132C129.894 234.859 129.829 234.517 129.752 234.111C129.584 233.25 129.326 232.065 128.916 230.793C128.509 229.519 128.015 228.411 127.653 227.611C127.481 227.235 127.337 226.918 127.222 226.665C127.121 226.44 127.07 226.314 127.08 226.309C127.09 226.304 127.159 226.421 127.277 226.637C127.394 226.853 127.559 227.169 127.754 227.563C128.142 228.352 128.656 229.46 129.066 230.744C129.479 232.026 129.721 233.223 129.862 234.091C129.931 234.526 129.98 234.878 130.006 235.123C130.034 235.368 130.044 235.503 130.033 235.505Z" fill="#263238"/>
<path d="M129.713 225.445C129.602 223.775 129.058 222.151 128.275 220.672C126.128 216.614 122.095 213.605 117.593 212.706C120.889 217.619 124.186 222.532 127.482 227.445L128.759 230.075C129.631 228.646 129.824 227.116 129.713 225.445Z" fill="#455A64"/>
<path d="M143.898 254.492H120.904V258.568H143.898V254.492Z" fill="#7986B3"/>
<path d="M122.621 257.76L124.579 270.405H139.844L142.181 257.76H122.621Z" fill="#7986B3"/>
<path d="M143.886 258.573C143.886 258.618 138.699 258.654 132.302 258.654C125.903 258.654 120.717 258.618 120.717 258.573C120.717 258.529 125.903 258.492 132.302 258.492C138.699 258.492 143.886 258.528 143.886 258.573Z" fill="#263238"/>
<path d="M228.942 112.753L227.723 109.859C228.448 107.599 228.511 105.093 227.737 102.624C225.911 96.8014 219.841 93.259 213.871 94.5214C206.972 95.9806 202.805 103.049 204.935 109.826C206.742 115.579 212.692 119.113 218.611 117.958C221.548 117.384 223.999 115.797 225.703 113.645L225.7 113.651L228.942 112.753Z" fill="white"/>
<path d="M228.942 112.752C228.946 112.755 228.88 112.776 228.745 112.818C228.593 112.863 228.391 112.923 228.133 113.001C227.567 113.166 226.757 113.401 225.715 113.705C225.685 113.714 225.653 113.696 225.645 113.666C225.641 113.653 225.643 113.639 225.647 113.627L225.65 113.621L225.748 113.679C224.832 114.85 223.37 116.279 221.188 117.246C220.105 117.731 218.853 118.079 217.486 118.226C216.118 118.362 214.634 118.26 213.147 117.855C211.663 117.443 210.182 116.719 208.856 115.678C207.535 114.638 206.349 113.288 205.547 111.661C204.734 110.045 204.27 108.191 204.248 106.28C204.213 104.366 204.697 102.408 205.617 100.644C206.54 98.854 207.895 97.3287 209.501 96.2529C211.097 95.1603 212.914 94.5015 214.721 94.2471C216.533 93.9825 218.335 94.2088 219.952 94.72C221.572 95.2372 223.012 96.0675 224.192 97.0749C225.369 98.0877 226.288 99.2692 226.943 100.485C227.092 100.796 227.239 101.102 227.383 101.403C227.52 101.708 227.615 102.023 227.731 102.323C227.951 102.929 228.089 103.535 228.194 104.12C228.605 106.475 228.233 108.48 227.776 109.876L227.774 109.838C228.153 110.772 228.448 111.501 228.656 112.014C228.748 112.247 228.821 112.431 228.876 112.569C228.924 112.692 228.946 112.754 228.942 112.752C228.938 112.75 228.906 112.684 228.848 112.557C228.787 112.419 228.704 112.234 228.599 111.999C228.381 111.501 228.07 110.79 227.671 109.88C227.666 109.868 227.666 109.853 227.669 109.841C228.098 108.45 228.441 106.466 228.016 104.15C227.907 103.575 227.766 102.979 227.545 102.385C227.43 102.09 227.334 101.781 227.197 101.483C227.054 101.188 226.907 100.888 226.759 100.583C226.107 99.3933 225.199 98.2395 224.039 97.2513C222.877 96.2691 221.462 95.4615 219.874 94.9611C218.29 94.4661 216.527 94.2502 214.756 94.513C212.99 94.7662 211.216 95.4135 209.659 96.4815C208.091 97.5333 206.769 99.0238 205.867 100.773C204.968 102.496 204.494 104.408 204.526 106.277C204.546 108.143 204.997 109.958 205.787 111.538C206.567 113.13 207.723 114.453 209.012 115.476C210.307 116.5 211.756 117.216 213.209 117.627C214.666 118.031 216.121 118.139 217.464 118.015C218.808 117.879 220.042 117.546 221.113 117.078C223.27 116.145 224.73 114.752 225.656 113.608C225.676 113.583 225.712 113.579 225.737 113.598C225.758 113.614 225.764 113.643 225.754 113.666L225.752 113.672L225.684 113.594C226.719 113.322 227.524 113.112 228.085 112.964C228.352 112.896 228.561 112.843 228.717 112.803C228.862 112.767 228.937 112.75 228.942 112.752Z" fill="#263238"/>
<path d="M212.248 107.847C212.97 107.847 213.555 107.262 213.555 106.54C213.555 105.818 212.97 105.232 212.248 105.232C211.525 105.232 210.94 105.818 210.94 106.54C210.94 107.262 211.525 107.847 212.248 107.847Z" fill="#263238"/>
<path d="M217.96 106.54C217.96 107.262 217.375 107.847 216.653 107.847C215.93 107.847 215.345 107.262 215.345 106.54C215.345 105.817 215.93 105.232 216.653 105.232C217.375 105.232 217.96 105.818 217.96 106.54Z" fill="#263238"/>
<path d="M220.941 107.847C221.663 107.847 222.248 107.262 222.248 106.54C222.248 105.818 221.663 105.232 220.941 105.232C220.219 105.232 219.634 105.818 219.634 106.54C219.634 107.262 220.219 107.847 220.941 107.847Z" fill="#263238"/>
<path d="M70.1454 88.0976L70.7142 84.7598C69.7074 82.9964 69.1596 80.942 69.2322 78.7634C69.441 72.4988 74.6886 67.5896 80.9532 67.7984C87.2178 68.0072 92.127 73.2548 91.9182 79.5194C91.7094 85.784 86.4618 90.6932 80.1972 90.4844C77.5812 90.3974 75.204 89.429 73.3344 87.878L73.338 87.8834L70.1454 88.0976Z" fill="white"/>
<path d="M70.1455 88.0978C70.1425 88.1008 70.2091 88.099 70.3447 88.093C70.4923 88.0858 70.6933 88.0756 70.9519 88.063C71.5075 88.0324 72.3091 87.988 73.3423 87.9304C73.3681 87.9292 73.3885 87.9064 73.3867 87.8806C73.3861 87.8716 73.3825 87.8626 73.3777 87.8554L73.3741 87.85L73.3051 87.9142C74.3911 88.8262 76.0429 89.8612 78.2701 90.3328C78.8245 90.4474 79.4107 90.526 80.0215 90.5572C80.3269 90.5776 80.6389 90.5554 80.9557 90.5566C81.1141 90.5512 81.2743 90.559 81.4351 90.5428C81.5953 90.5242 81.7567 90.5056 81.9193 90.487C83.2195 90.3406 84.5857 89.9566 85.8889 89.2744C87.1909 88.5952 88.4275 87.6196 89.4451 86.374C90.4633 85.1314 91.2583 83.617 91.6873 81.943C92.1217 80.2714 92.1475 78.4426 91.7587 76.6624C91.5859 75.7648 91.2397 74.902 90.8527 74.0554C90.4141 73.2346 89.9269 72.4198 89.2915 71.7106C88.6945 70.9798 87.9775 70.3708 87.2413 69.8146C86.4751 69.2998 85.6861 68.8228 84.8359 68.509C83.1577 67.8382 81.3631 67.5694 79.6561 67.7224C77.9479 67.8646 76.3327 68.3896 74.9467 69.1786C73.5571 69.9664 72.3949 71.0134 71.5081 72.1726C69.7219 74.506 69.0793 77.2168 69.1561 79.4626C69.2275 81.733 69.9535 83.548 70.6729 84.7852L70.6669 84.7528C70.4947 85.837 70.3621 86.6758 70.2697 87.256C70.2283 87.5272 70.1965 87.7372 70.1731 87.8908C70.1515 88.0306 70.1425 88.1008 70.1455 88.0978C70.1455 88.0978 70.1641 88.0192 70.1923 87.8734C70.2217 87.718 70.2619 87.505 70.3135 87.2302C70.4173 86.6596 70.5679 85.8346 70.7623 84.7684C70.7647 84.757 70.7617 84.745 70.7563 84.736C70.0603 83.4988 69.3613 81.6982 69.3079 79.4578C69.2485 77.2408 69.8977 74.5774 71.6623 72.292C72.5389 71.1562 73.6843 70.1326 75.0499 69.3634C76.4131 68.593 77.9971 68.0818 79.6723 67.9462C81.3463 67.7986 83.1049 68.0656 84.7477 68.7238C85.5805 69.031 86.3527 69.5002 87.1033 70.0042C87.8239 70.5496 88.5271 71.146 89.1115 71.8624C89.7343 72.5572 90.2113 73.3558 90.6415 74.1592C91.0201 74.9884 91.3609 75.8332 91.5307 76.7122C91.9129 78.4552 91.8907 80.2486 91.4683 81.8878C91.0513 83.5294 90.2749 85.0162 89.2795 86.239C88.2847 87.4648 87.0739 88.4278 85.7965 89.1004C84.5185 89.7766 83.1775 90.1612 81.8977 90.3124C81.7375 90.3322 81.5785 90.3514 81.4207 90.3706C81.2629 90.3874 81.1045 90.3808 80.9491 90.3868C80.6371 90.3874 80.3293 90.412 80.0281 90.3934C79.4251 90.3664 78.8467 90.2932 78.2989 90.1846C76.0987 89.7364 74.4547 88.7302 73.3645 87.8416C73.3441 87.8248 73.3147 87.8272 73.2973 87.8476C73.2829 87.8644 73.2829 87.889 73.2949 87.9058L73.2985 87.9106L73.3339 87.8356C72.3157 87.9166 71.5261 87.979 70.9783 88.0228C70.7149 88.045 70.5103 88.0624 70.3603 88.075C70.2223 88.0876 70.1455 88.0978 70.1455 88.0978Z" fill="#263238"/>
<path d="M75.6695 79.9194L76.9223 78.6666L79.3385 80.8146L84.0809 76.251L85.2443 77.5038L79.1597 83.2302L75.6695 79.9194Z" fill="#49D49D"/>
<path d="M276.85 210.751C276.865 210.61 276.878 210.47 276.884 210.329C277.005 207.629 275.908 205.042 274.853 202.553C272.023 195.88 269.285 188.801 270.08 181.599C271.132 172.077 278.134 164.201 280.634 154.991C280.928 153.907 281.923 153.161 283.049 153.161C284.74 153.161 285.967 154.799 285.448 156.404C282.664 165.017 276.313 172.567 275.315 181.599C274.52 188.801 277.258 195.88 280.088 202.553C281.143 205.041 282.24 207.629 282.119 210.329C281.999 213.029 280.262 215.867 277.587 216.299H277.328H272.353H237.795C236.408 216.299 235.285 215.178 235.285 213.797V213.254C235.285 211.872 236.408 210.751 237.795 210.751H276.85Z" fill="#455A64"/>
<path d="M284.852 270.406H227.108C226.302 270.406 225.551 270.01 225.05 269.318C224.474 268.525 224.317 267.482 224.628 266.528L241.065 216.159L241.922 216.439L225.485 266.808C225.263 267.489 225.373 268.229 225.779 268.788C226.109 269.243 226.594 269.504 227.108 269.504H284.852C285.359 269.504 285.823 269.262 286.156 268.822C286.561 268.288 286.69 267.569 286.502 266.898L272.376 216.421L273.244 216.178L287.37 266.655C287.633 267.597 287.448 268.611 286.874 269.367C286.374 270.027 285.637 270.406 284.852 270.406Z" fill="#E0E0E0"/>
<path d="M203.864 178.982C203.864 178.982 205.967 173.872 208.044 172.79C210.121 171.71 212.767 171.019 212.767 171.019H222.015L222.107 177.006C222.107 177.006 220.771 178.345 218.941 178.092C217.11 177.839 212.54 176.709 212.54 176.709L210.284 176.833L208.205 179.499C208.205 179.499 206.517 180.012 207.111 178.415C207.705 176.818 207.97 176.114 207.97 176.114C207.97 176.114 205.973 179.221 205.207 179.364C204.441 179.507 203.864 178.982 203.864 178.982Z" fill="#6F4439"/>
<path d="M242.087 159.71L234.728 170.296L222.016 171.019L221.842 176.827L231.421 178.713C236.396 179.692 241.535 178.167 245.169 174.631L246.571 161.827L242.087 159.71Z" fill="#EBA38B"/>
<path d="M236.38 247.505L244.934 255.87C244.934 255.87 238.758 267.794 240.179 269.501L258.036 252.698L245.276 239.091L236.38 247.505Z" fill="#263238"/>
<path d="M249.764 249.945C250.194 249.709 250.78 249.851 251.012 250.256C251.245 250.661 251.072 251.263 250.645 251.507C250.219 251.75 249.509 251.601 249.325 251.171C249.142 250.74 249.383 250.042 249.85 249.904" fill="#E0E0E0"/>
<path d="M258.036 252.699L256.693 251.38L240.074 267.984C240.074 267.984 239.588 269.058 240.179 269.502L258.036 252.699Z" fill="#455A64"/>
<path d="M244.564 256.058C244.645 256.137 245.116 255.764 245.795 255.625C246.473 255.468 247.031 255.617 247.081 255.509C247.146 255.417 246.55 255.048 245.729 255.231C244.907 255.405 244.473 256 244.564 256.058Z" fill="white"/>
<path d="M243.383 258.55C243.439 258.649 243.949 258.434 244.574 258.503C245.203 258.554 245.635 258.86 245.718 258.774C245.812 258.71 245.416 258.171 244.635 258.1C243.856 258.022 243.311 258.47 243.383 258.55Z" fill="white"/>
<path d="M244.323 261.672C244.419 261.615 244.151 261.09 243.5 260.85C242.851 260.605 242.271 260.814 242.3 260.917C242.315 261.031 242.808 261.024 243.339 261.229C243.876 261.421 244.229 261.745 244.323 261.672Z" fill="white"/>
<path d="M242.838 253.917C242.946 253.958 243.239 253.468 243.761 253.036C244.276 252.594 244.807 252.388 244.785 252.275C244.779 252.168 244.116 252.216 243.507 252.733C242.895 253.246 242.734 253.893 242.838 253.917Z" fill="white"/>
<path d="M237.385 187.88C235.821 187.88 197.716 198.98 193.593 202.732C189.47 206.484 186.385 252.916 186.385 252.916L202.363 258.394C202.363 258.394 205.73 235.717 207.771 228.393C209.393 222.571 209.02 217.135 209.02 217.135L240.656 203.357L237.385 187.88Z" fill="#263238"/>
<path d="M238.346 190.335C237.635 190.647 209.95 202.468 207.347 210.387C205.227 216.841 207.692 222.523 210.654 226.964C213.998 231.978 238.519 254.354 238.519 254.354L252.359 244.458L228.631 219.954C228.631 219.954 241.081 212.268 241.507 212.268C241.934 212.268 254.875 211.413 258.977 210.948C262.808 210.515 264.904 205.022 264.904 205.022L268.321 189.272L242.645 183.347L238.346 190.335Z" fill="#263238"/>
<path d="M238.346 190.334C238.346 190.334 238.434 190.176 238.616 189.874C238.801 189.569 239.072 189.121 239.43 188.531C240.152 187.347 241.22 185.6 242.609 183.323L242.625 183.297L242.655 183.304C248.382 184.616 257.204 186.638 268.341 189.191L268.42 189.209L268.403 189.288C267.38 194.023 266.231 199.342 264.999 205.041L264.998 205.049L264.995 205.055C264.41 206.464 263.619 207.82 262.557 209.003C262.025 209.591 261.398 210.113 260.68 210.497C260.503 210.597 260.321 210.692 260.124 210.753C259.929 210.815 259.745 210.915 259.538 210.941C259.336 210.978 259.133 211.026 258.93 211.055L258.323 211.119C255.082 211.44 251.729 211.679 248.281 211.931C246.557 212.048 244.808 212.168 243.038 212.288C242.594 212.315 242.15 212.342 241.703 212.369L241.532 212.376C241.495 212.375 241.499 212.388 241.483 212.39C241.472 212.391 241.438 212.409 241.417 212.418C241.322 212.459 241.222 212.515 241.124 212.565L240.538 212.889C239.759 213.332 238.982 213.792 238.202 214.257C235.083 216.122 231.915 218.064 228.692 220.05L228.714 219.873C234.623 225.974 240.848 232.402 247.244 239.005C248.991 240.81 250.726 242.601 252.443 244.375L252.538 244.473L252.428 244.552C247.708 247.926 243.085 251.231 238.586 254.446L238.511 254.5L238.442 254.437C233.487 249.895 228.728 245.451 224.21 241.131C221.952 238.972 219.755 236.842 217.643 234.729C215.531 232.616 213.48 230.541 211.633 228.379C211.391 228.119 211.191 227.821 210.972 227.543C210.757 227.261 210.537 226.984 210.356 226.683C209.973 226.097 209.609 225.503 209.272 224.9C208.593 223.696 208.009 222.46 207.552 221.198C207.097 219.936 206.766 218.649 206.598 217.36C206.435 216.07 206.432 214.784 206.572 213.539C206.707 212.291 206.996 211.087 207.435 209.957C207.921 208.835 208.691 207.91 209.477 207.066C211.091 205.404 212.86 204.062 214.584 202.86C218.048 200.471 221.356 198.619 224.272 197.057C227.192 195.498 229.742 194.252 231.83 193.261C233.918 192.27 235.549 191.54 236.654 191.054C237.206 190.815 237.627 190.633 237.914 190.509C238.199 190.39 238.346 190.334 238.346 190.334C238.346 190.334 238.203 190.404 237.922 190.53C237.637 190.658 237.219 190.847 236.671 191.093C235.571 191.592 233.947 192.334 231.865 193.335C229.783 194.337 227.24 195.594 224.327 197.161C221.418 198.732 218.119 200.592 214.669 202.985C212.952 204.186 211.191 205.529 209.595 207.181C208.819 208.017 208.061 208.936 207.592 210.024C207.166 211.127 206.878 212.33 206.748 213.561C206.612 214.793 206.617 216.063 206.781 217.338C206.948 218.613 207.278 219.887 207.731 221.136C208.185 222.386 208.767 223.611 209.443 224.806C209.777 225.405 210.141 225.995 210.522 226.578C210.704 226.877 210.921 227.15 211.133 227.427C211.35 227.701 211.544 227.993 211.787 228.252C213.627 230.4 215.68 232.474 217.792 234.582C219.905 236.692 222.103 238.818 224.362 240.975C228.881 245.289 233.642 249.731 238.598 254.269L238.454 254.261C242.951 251.044 247.573 247.738 252.292 244.363L252.276 244.54C250.558 242.766 248.823 240.975 247.076 239.17C240.682 232.565 234.458 226.136 228.55 220.034L228.451 219.931L228.572 219.857C231.797 217.872 234.967 215.931 238.088 214.068C238.869 213.603 239.647 213.143 240.43 212.699L241.021 212.372C241.123 212.321 241.218 212.267 241.328 212.219C241.359 212.206 241.373 212.195 241.417 212.181C241.454 212.171 241.511 212.156 241.53 212.158L241.693 212.151C242.138 212.124 242.582 212.097 243.024 212.071C244.794 211.952 246.542 211.834 248.266 211.718C251.713 211.47 255.068 211.233 258.303 210.917C259.121 210.865 259.892 210.701 260.586 210.32C261.278 209.951 261.89 209.445 262.412 208.87C263.453 207.715 264.241 206.367 264.816 204.987L264.812 205.001C266.052 199.305 267.21 193.988 268.242 189.255L268.304 189.353C257.176 186.767 248.359 184.718 242.637 183.388L242.683 183.369C241.275 185.639 240.194 187.382 239.462 188.562C239.097 189.146 238.821 189.59 238.632 189.891C238.445 190.187 238.346 190.334 238.346 190.334Z" fill="#455A64"/>
<path d="M240.864 114.609C239.617 114.862 238.245 114.05 237.867 112.836C237.489 111.621 238.159 110.174 239.33 109.675C238.477 108.942 238.165 107.642 238.594 106.601C239.021 105.56 240.157 104.856 241.279 104.934C241.229 103.824 241.797 102.705 242.724 102.091C243.65 101.478 244.902 101.391 245.905 101.871C247.036 100.716 249.004 100.504 250.355 101.392C251.413 101.1 252.635 101.57 253.225 102.496C253.814 103.422 253.722 104.728 253.009 105.562" fill="#263238"/>
<path d="M251.134 103.892L250.566 103.942C244.848 104.447 240.476 109.259 240.52 114.999C240.562 120.339 240.676 126.237 240.962 129.078C241.555 134.96 247.527 135.355 247.527 135.355L247.654 142.474L261.907 140.767L260.903 114.996C260.889 108.835 257.293 103.708 251.134 103.892Z" fill="#EBA38B"/>
<path d="M247.519 135.352C247.519 135.352 251.258 135.243 254.994 132.408C254.994 132.408 253.478 136.914 247.555 136.903L247.519 135.352Z" fill="#6F4439"/>
<path d="M242.646 120.462C242.669 120.907 243.066 121.255 243.532 121.239C243.997 121.222 244.355 120.849 244.332 120.404C244.308 119.959 243.912 119.611 243.447 119.626C242.981 119.643 242.622 120.016 242.646 120.462Z" fill="#263238"/>
<path d="M242.042 117.775C242.156 117.876 242.751 117.348 243.657 117.27C244.56 117.18 245.265 117.586 245.353 117.467C245.397 117.414 245.274 117.225 244.966 117.04C244.663 116.855 244.159 116.694 243.595 116.746C243.032 116.799 242.576 117.049 242.322 117.285C242.062 117.525 241.986 117.731 242.042 117.775Z" fill="#263238"/>
<path d="M250.782 119.993C250.806 120.438 251.203 120.786 251.669 120.769C252.134 120.754 252.492 120.38 252.468 119.935C252.445 119.49 252.048 119.142 251.583 119.158C251.118 119.173 250.759 119.548 250.782 119.993Z" fill="#263238"/>
<path d="M250.952 117.153C251.066 117.253 251.662 116.726 252.566 116.648C253.469 116.558 254.174 116.965 254.263 116.845C254.307 116.792 254.184 116.603 253.875 116.419C253.572 116.234 253.069 116.073 252.506 116.125C251.942 116.178 251.486 116.428 251.232 116.664C250.973 116.902 250.896 117.109 250.952 117.153Z" fill="#263238"/>
<path d="M248.261 124.154C248.261 124.101 247.689 124.054 246.767 124.018C246.534 124.014 246.311 123.988 246.258 123.834C246.189 123.672 246.264 123.414 246.352 123.135C246.52 122.557 246.695 121.951 246.879 121.316C247.607 118.727 248.112 116.606 248.007 116.577C247.903 116.549 247.229 118.625 246.501 121.214C246.327 121.851 246.161 122.46 246.003 123.041C245.939 123.312 245.814 123.623 245.963 123.959C246.041 124.126 246.221 124.236 246.373 124.263C246.525 124.295 246.656 124.286 246.77 124.283C247.692 124.251 248.262 124.205 248.261 124.154Z" fill="#263238"/>
<path d="M249.859 113.743C249.999 113.962 250.752 113.644 251.704 113.529C252.654 113.392 253.474 113.501 253.54 113.255C253.568 113.138 253.38 112.947 253.02 112.793C252.662 112.64 252.13 112.544 251.56 112.619C250.99 112.695 250.51 112.925 250.215 113.165C249.917 113.406 249.796 113.638 249.859 113.743Z" fill="#263238"/>
<path d="M241.668 114.042C241.877 114.231 242.604 113.952 243.502 113.862C244.397 113.747 245.173 113.854 245.329 113.624C245.397 113.513 245.259 113.317 244.909 113.152C244.565 112.987 244.002 112.877 243.387 112.947C242.771 113.018 242.253 113.252 241.959 113.49C241.66 113.729 241.574 113.95 241.668 114.042Z" fill="#263238"/>
<path d="M240.849 112.248C240.849 112.248 242.076 108.423 243.778 107.404C245.838 106.173 246.974 108.453 248.975 107.698C250.976 106.944 252.943 105.762 255.18 107.163C257.628 108.696 256.66 110.008 257.033 112.609C258.544 123.151 260.744 125.976 260.853 120.937C260.865 120.385 262.344 119.817 262.365 117.487C262.391 114.466 262.185 110.82 261.328 108.753C260.607 107.011 259.476 105.864 257.523 104.661C254.442 102.763 250.466 103.068 247.793 103.578C245.12 104.088 240.195 107.652 240.849 112.248Z" fill="#263238"/>
<path d="M260.463 120.814C260.42 119.902 261.14 119.115 262.053 119.121C263.16 119.128 264.438 119.644 264.566 121.92C264.793 125.958 260.693 125.353 260.679 125.238C260.67 125.159 260.544 122.505 260.463 120.814Z" fill="#EBA38B"/>
<path d="M261.472 123.666C261.489 123.652 261.546 123.711 261.667 123.759C261.786 123.805 261.988 123.831 262.194 123.74C262.611 123.559 262.932 122.862 262.911 122.133C262.901 121.765 262.804 121.42 262.657 121.137C262.518 120.849 262.315 120.653 262.098 120.627C261.882 120.589 261.737 120.727 261.694 120.843C261.646 120.959 261.676 121.038 261.655 121.047C261.645 121.057 261.565 120.984 261.588 120.815C261.6 120.734 261.642 120.636 261.733 120.553C261.825 120.469 261.966 120.421 262.116 120.429C262.428 120.433 262.725 120.703 262.885 121.013C263.064 121.323 263.181 121.711 263.193 122.124C263.212 122.94 262.839 123.724 262.265 123.925C261.985 124.015 261.744 123.943 261.616 123.855C261.485 123.763 261.459 123.674 261.472 123.666Z" fill="#6F4439"/>
<path d="M259.695 113.024C259.204 113.427 258.684 113.844 258.059 113.962C257.435 114.081 256.682 113.782 256.521 113.167C256.448 112.891 256.488 112.56 256.285 112.36C256.042 112.121 255.643 112.237 255.31 112.303C254.15 112.531 252.668 111.359 252.269 110.247C252.01 110.72 251.369 110.913 250.891 110.662C250.413 110.41 250.234 110.259 249.844 109.885C249.455 109.512 248.927 109.194 248.401 109.316C248.107 109.384 247.844 109.587 247.543 109.587C247.01 109.587 246.697 108.99 246.571 108.472C246.444 107.955 246.328 107.348 245.855 107.103C245.417 106.875 244.892 107.075 244.412 107.19C243.932 107.305 243.293 107.246 243.127 106.781C243.039 106.537 243.123 106.265 243.242 106.035C243.782 104.993 245.11 104.434 246.233 104.776C246.509 103.411 247.661 102.265 249.029 101.998C250.396 101.73 251.895 102.357 252.665 103.516C253.448 102.669 254.656 102.236 255.799 102.393C256.942 102.549 257.988 103.291 258.514 104.317C259.471 103.973 260.621 104.253 261.312 104.998C262.003 105.744 262.195 106.912 261.78 107.839C262.54 108.189 263.224 108.853 263.312 109.685C263.401 110.517 262.662 111.419 261.839 111.271C262.221 111.891 262.034 112.795 261.438 113.213C260.841 113.631 259.928 113.498 259.475 112.927" fill="#263238"/>
<path d="M246.038 105.984C246.035 105.984 246.038 106.009 246.045 106.057C246.055 106.105 246.064 106.178 246.09 106.27C246.143 106.453 246.242 106.722 246.451 107.02C246.66 107.314 246.974 107.647 247.428 107.893C247.874 108.144 248.47 108.311 249.119 108.218L249.042 108.135C248.948 108.49 249.018 108.901 249.221 109.24C249.416 109.585 249.699 109.882 249.998 110.169C250.149 110.306 250.286 110.471 250.489 110.592C250.687 110.707 250.917 110.763 251.148 110.772C251.607 110.79 252.107 110.604 252.402 110.193L252.248 110.164C252.422 110.955 252.947 111.715 253.714 112.14C254.121 112.383 254.61 112.51 255.074 112.456C255.54 112.411 255.961 112.236 256.352 112.055L256.24 112.017C256.5 112.498 256.871 112.896 257.303 113.176C257.727 113.455 258.272 113.593 258.739 113.434C259.671 113.149 260.232 112.303 260.293 111.547L260.205 111.598C260.7 111.813 261.208 111.793 261.607 111.679C262.012 111.567 262.319 111.36 262.533 111.163C262.749 110.963 262.869 110.767 262.94 110.632C263.003 110.493 263.028 110.416 263.023 110.415C263.001 110.4 262.917 110.733 262.488 111.113C262.273 111.295 261.972 111.487 261.581 111.585C261.197 111.686 260.714 111.693 260.257 111.486L260.178 111.45L260.169 111.536C260.103 112.242 259.561 113.032 258.696 113.287C258.272 113.427 257.793 113.303 257.391 113.038C256.987 112.774 256.634 112.391 256.391 111.939L256.353 111.867L256.279 111.9C255.894 112.077 255.488 112.242 255.057 112.282C254.627 112.33 254.189 112.217 253.8 111.987C253.076 111.586 252.583 110.874 252.415 110.125L252.373 109.937L252.261 110.095C252.012 110.447 251.565 110.622 251.153 110.607C250.946 110.6 250.742 110.551 250.569 110.452C250.401 110.357 250.26 110.194 250.106 110.056C249.808 109.775 249.532 109.49 249.348 109.168C249.155 108.852 249.092 108.492 249.171 108.17L249.196 108.071L249.095 108.087C248.485 108.183 247.912 108.033 247.477 107.8C247.034 107.572 246.723 107.257 246.51 106.978C246.092 106.399 246.066 105.972 246.038 105.984Z" fill="#455A64"/>
<path d="M248.339 127.049C248.348 126.897 249.357 127.016 250.177 126.239C250.999 125.463 251.015 124.374 251.157 124.384C251.221 124.377 251.324 124.647 251.281 125.102C251.243 125.549 251.022 126.182 250.521 126.657C250.018 127.131 249.405 127.287 248.988 127.272C248.561 127.26 248.325 127.117 248.339 127.049Z" fill="#263238"/>
<path d="M190.018 246.94L188.157 259.857C188.157 259.857 173.683 262.093 173.094 264.443L199.383 269.352L203.153 249.359L190.018 246.94Z" fill="#263238"/>
<path d="M196.484 260.296C196.969 260.523 197.221 261.13 197.014 261.595C196.807 262.06 196.165 262.295 195.676 262.076C195.188 261.858 194.861 261.136 195.122 260.698C195.383 260.259 196.153 260.022 196.576 260.345" fill="#E0E0E0"/>
<path d="M199.383 269.351L199.679 267.32L174.363 263.373C174.363 263.373 173.104 263.637 173.094 264.442L199.383 269.351Z" fill="#455A64"/>
<path d="M187.754 259.657C187.736 259.779 188.368 259.955 188.928 260.463C189.501 260.959 189.731 261.546 189.858 261.52C189.98 261.518 189.922 260.756 189.232 260.151C188.55 259.54 187.747 259.54 187.754 259.657Z" fill="white"/>
<path d="M184.799 260.223C184.748 260.335 185.267 260.646 185.609 261.241C185.969 261.828 185.977 262.405 186.106 262.423C186.223 262.465 186.442 261.769 186.002 261.036C185.569 260.299 184.823 260.107 184.799 260.223Z" fill="white"/>
<path d="M182.662 263.049C182.774 263.097 183.063 262.523 182.855 261.795C182.653 261.066 182.096 260.691 182.023 260.782C181.932 260.868 182.256 261.299 182.417 261.898C182.593 262.494 182.536 263.013 182.662 263.049Z" fill="white"/>
<path d="M188.524 256.762C188.558 256.884 189.177 256.825 189.894 257.008C190.615 257.176 191.138 257.512 191.223 257.421C191.314 257.346 190.845 256.794 189.998 256.59C189.152 256.381 188.478 256.656 188.524 256.762Z" fill="white"/>
<path d="M247.009 143.393L247.549 140.949L261.908 133.818L263.16 135.773C263.16 135.773 268.534 140.145 270.591 143.94C272.648 147.735 270.208 178.812 269.865 183.347C269.173 192.486 265.758 204.448 265.758 204.448C265.758 204.448 261.151 201.24 247.595 195.675C234.04 190.109 233.314 187.59 233.314 187.59L241.301 177.46L247.009 143.393Z" fill="#ADC0FF"/>
<path d="M247.225 144.248C247.145 144.699 240.655 160.284 240.655 160.284C240.655 160.284 244.027 162.165 244.498 162.259C244.967 162.353 247.225 144.248 247.225 144.248Z" fill="#ADC0FF"/>
<path d="M246.571 146.803C246.635 146.813 246.059 150.773 245.285 155.647C244.511 160.523 243.832 164.466 243.767 164.455C243.703 164.445 244.279 160.486 245.053 155.61C245.828 150.736 246.507 146.793 246.571 146.803Z" fill="#263238"/>
<path d="M201.02 177.982C201.02 177.982 204.887 172.275 207.193 171.273C209.497 170.271 212.381 169.729 212.381 169.729L222.107 171.029L221.934 176.836C221.934 176.836 220.404 178.17 218.463 177.762C216.522 177.354 211.713 175.803 211.713 175.803L209.288 175.766L206.863 178.466C206.863 178.466 205.018 178.889 205.773 177.223C206.528 175.558 206.865 174.824 206.865 174.824C206.865 174.824 204.495 178.001 203.664 178.097C202.833 178.194 201.02 177.982 201.02 177.982Z" fill="#EBA38B"/>
<path d="M251.843 155.125L245.1 170.794L222.015 171.019L221.842 176.826C221.842 176.826 244.103 184.676 250.031 183.151C255.959 181.626 265.79 160.664 265.79 160.664L251.843 155.125Z" fill="#EBA38B"/>
<path d="M257.302 141.905C256.672 142.477 254.586 144.927 252.359 150.254C250.133 155.58 247.009 161.805 247.009 161.805L262.924 168.149C262.924 168.149 266.552 159.801 268.235 156.087C269.518 153.26 270.415 147.698 269.247 145.006C268.079 142.314 262.845 136.88 257.302 141.905Z" fill="#ADC0FF"/>
<path d="M257.302 141.906C257.302 141.906 257.349 141.855 257.448 141.766C257.549 141.679 257.692 141.539 257.897 141.379C258.305 141.056 258.937 140.598 259.859 140.219C260.779 139.861 262.038 139.62 263.43 139.954C264.818 140.267 266.263 141.12 267.508 142.393C268.129 143.031 268.714 143.771 269.17 144.637C269.618 145.517 269.81 146.541 269.863 147.584C269.963 149.679 269.665 151.918 269.035 154.183C268.729 155.323 268.206 156.424 267.718 157.542C267.225 158.664 266.722 159.809 266.209 160.975C265.183 163.308 264.12 165.723 263.032 168.197L262.985 168.301L262.88 168.259C262.807 168.231 262.728 168.199 262.649 168.168C257.013 165.916 251.675 163.785 246.969 161.905L246.862 161.862L246.914 161.759C248.401 158.78 249.717 156.004 250.844 153.517C251.981 151.036 252.838 148.792 253.779 147.044C254.692 145.285 255.553 143.973 256.207 143.127C256.532 142.702 256.803 142.393 256.994 142.193C257.187 141.993 257.302 141.906 257.302 141.906C257.304 141.908 257.28 141.934 257.231 141.985C257.177 142.044 257.108 142.119 257.019 142.215C256.837 142.422 256.575 142.737 256.26 143.166C255.626 144.021 254.785 145.34 253.892 147.101C252.971 148.849 252.131 151.095 251.005 153.588C249.89 156.084 248.584 158.865 247.103 161.853L247.048 161.707C251.756 163.58 257.097 165.705 262.737 167.948C262.816 167.98 262.895 168.011 262.967 168.04L262.816 168.102C263.907 165.628 264.971 163.213 265.999 160.881C266.514 159.715 267.019 158.57 267.514 157.449C268.008 156.323 268.522 155.248 268.828 154.122C269.458 151.884 269.761 149.658 269.67 147.594C269.622 146.563 269.438 145.568 269.01 144.719C268.57 143.873 267.998 143.139 267.39 142.507C266.171 141.246 264.757 140.399 263.401 140.081C262.04 139.742 260.805 139.963 259.892 140.304C258.977 140.664 258.341 141.106 257.926 141.416C257.717 141.569 257.57 141.703 257.464 141.784C257.36 141.867 257.302 141.906 257.302 141.906Z" fill="#263238"/>
<path d="M211.224 172.661C211.23 172.736 210.028 172.63 208.763 173.284C207.485 173.915 206.858 174.946 206.801 174.896C206.779 174.883 206.897 174.609 207.199 174.235C207.497 173.862 208 173.408 208.657 173.074C209.315 172.743 209.979 172.608 210.457 172.589C210.936 172.568 211.227 172.635 211.224 172.661Z" fill="#6F4439"/>
<path d="M248.682 162.471C248.687 162.473 248.67 162.528 248.631 162.633C248.584 162.755 248.524 162.905 248.452 163.09C248.279 163.511 248.042 164.087 247.747 164.805C247.117 166.296 246.238 168.375 245.198 170.835L245.171 170.898L245.102 170.899C243.002 170.923 240.615 170.951 238.09 170.979C233.663 171.009 229.655 171.036 226.724 171.056C225.289 171.054 224.119 171.053 223.279 171.052C222.891 171.047 222.58 171.042 222.343 171.039C222.128 171.033 222.016 171.026 222.016 171.018C222.016 171.01 222.128 171.001 222.342 170.991C222.579 170.984 222.89 170.973 223.278 170.96C224.118 170.943 225.287 170.919 226.722 170.889C229.654 170.852 233.66 170.801 238.088 170.744C240.613 170.724 243 170.705 245.099 170.688L245.003 170.751C246.075 168.305 246.98 166.238 247.63 164.754C247.949 164.046 248.204 163.478 248.39 163.063C248.475 162.884 248.543 162.737 248.599 162.619C248.648 162.519 248.677 162.468 248.682 162.471Z" fill="#6F4439"/>
<path d="M44.4211 183.345H39.9774V270.291H44.4211V183.345Z" fill="#455A64"/>
<path d="M226.819 183.958H222.375V270.302H226.819V183.958Z" fill="#455A64"/>
<path d="M231.221 182.487H28.8756V187.734H231.221V182.487Z" fill="#455A64"/>
<path d="M229.272 187.734C229.272 187.799 205.66 187.851 176.54 187.851C147.409 187.851 123.802 187.799 123.802 187.734C123.802 187.669 147.409 187.616 176.54 187.616C205.661 187.617 229.272 187.669 229.272 187.734Z" fill="#263238"/>
<path d="M171.03 151.797C171.562 151.697 172.075 152.047 172.176 152.579L177.652 181.596H204.278C204.677 181.596 204.999 181.919 204.999 182.317C204.999 182.715 204.676 183.038 204.278 183.038H176.039V182.922L175.91 182.946L170.248 152.943C170.147 152.411 170.498 151.898 171.03 151.797Z" fill="#263238"/>
<path d="M37.5864 84.0889C40.1202 80.3599 43.761 78.0181 48.2442 77.5435C50.7738 77.2759 51.8688 77.7085 53.7372 78.0385C55.6056 78.3679 57.339 79.2001 58.5648 80.6479C60.021 82.3675 61.29 84.3253 61.7334 86.5345C62.1888 88.8037 62.2134 91.0615 61.9428 92.9479C61.6134 95.2387 60.3792 98.8063 59.1918 100.793L55.3458 101.612C52.125 102.01 48.8592 102.408 45.6462 101.952C42.4332 101.495 39.2244 100.075 37.293 97.4671C34.6098 93.8437 35.0526 87.8185 37.5864 84.0889Z" fill="#263238"/>
<path d="M42.7878 83.587L50.3094 79.792L52.3674 79.8472C56.9526 79.4548 60.5646 84.2284 60.9258 87.9382C61.3266 92.0596 61.6542 97.1074 61.2696 100.206C60.4968 106.437 55.3248 107.411 55.3248 107.411C55.3248 107.411 56.1918 114.677 56.4138 116.726L43.9284 112.91L40.9128 85.864C40.8522 84.7336 41.6664 83.7442 42.7878 83.587Z" fill="#FFBF9D"/>
<path d="M51.9726 99.5922C51.9864 99.2664 52.14 98.9652 52.3512 98.7492C52.773 98.3172 53.4372 98.2194 53.9562 98.5134C54.4752 98.8074 54.8166 99.474 54.7818 100.126C54.5412 100.527 54.144 100.819 53.6826 100.901C53.6112 100.913 53.5386 100.922 53.4654 100.927C53.112 100.949 52.743 100.862 52.4508 100.627C52.1592 100.391 51.9558 99.9948 51.9726 99.5922Z" fill="#FF9A6C"/>
<path d="M59.7317 93.5045C59.7611 93.9239 59.4299 94.2941 58.9925 94.3325C58.5563 94.3709 58.1777 94.0631 58.1489 93.6443C58.1195 93.2249 58.4507 92.8541 58.8869 92.8157C59.3243 92.7773 59.7023 93.0857 59.7317 93.5045Z" fill="#263238"/>
<path d="M59.7126 90.1247C59.6178 90.2315 59.0004 89.8067 58.1448 89.8379C57.2904 89.8571 56.6772 90.3185 56.5812 90.2165C56.5338 90.1715 56.628 89.9813 56.8944 89.7731C57.1566 89.5661 57.609 89.3579 58.1418 89.3417C58.6746 89.3267 59.1294 89.5073 59.394 89.6993C59.664 89.8925 59.76 90.0767 59.7126 90.1247Z" fill="#263238"/>
<path d="M54.8387 97.2862C54.8333 97.2376 55.3613 97.1278 56.2193 96.9886C56.4371 96.9586 56.6423 96.9082 56.6741 96.7576C56.7203 96.598 56.6207 96.3658 56.5061 96.1156C56.2829 95.5942 56.0489 95.0476 55.8035 94.4746C54.8261 92.1376 54.1103 90.2128 54.2051 90.1744C54.2999 90.136 55.1687 91.999 56.1461 94.336C56.3819 94.9126 56.6075 95.4622 56.8217 95.9878C56.9129 96.2332 57.0647 96.5098 56.9645 96.841C56.9111 97.006 56.7551 97.1302 56.6165 97.1728C56.4779 97.2202 56.3555 97.2268 56.2475 97.237C55.3811 97.3126 54.8435 97.3348 54.8387 97.2862Z" fill="#263238"/>
<path d="M55.3343 107.402C55.3343 107.402 51.1745 107.813 46.9595 105.472C46.9595 105.472 49.3169 109.692 55.4993 108.901L55.3343 107.402Z" fill="#FF9A6C"/>
<path d="M59.7162 87.5047C59.5794 87.7183 58.92 87.6013 58.1568 87.6907C57.3912 87.7561 56.7666 88.0033 56.592 87.8209C56.514 87.7315 56.5908 87.5251 56.8488 87.3061C57.1032 87.0883 57.5478 86.8789 58.0734 86.8255C58.5984 86.7727 59.0748 86.8879 59.3658 87.0511C59.661 87.2143 59.775 87.4015 59.7162 87.5047Z" fill="#263238"/>
<path d="M50.9526 94.1452C50.9676 94.5652 51.336 94.8988 51.7746 94.8904C52.2126 94.8826 52.5564 94.537 52.5408 94.117C52.5252 93.697 52.1574 93.3634 51.7194 93.3712C51.2808 93.379 50.9376 93.7252 50.9526 94.1452Z" fill="#263238"/>
<path d="M48.1655 90.8218C48.2711 90.9178 48.8405 90.4306 49.6943 90.3712C50.5463 90.3004 51.2039 90.6946 51.2891 90.583C51.3311 90.5338 51.2177 90.3538 50.9309 90.175C50.6483 89.9968 50.1761 89.8372 49.6451 89.8774C49.1135 89.9188 48.6803 90.1462 48.4379 90.3652C48.1895 90.5854 48.1139 90.7786 48.1655 90.8218Z" fill="#263238"/>
<path d="M49.2917 87.8061C49.4705 87.9909 50.1191 87.7533 50.9111 87.7005C51.7013 87.6231 52.3823 87.7509 52.5257 87.5397C52.5881 87.4377 52.4717 87.2493 52.1681 87.0813C51.8693 86.9139 51.3779 86.7909 50.8337 86.8353C50.2901 86.8809 49.8275 87.0819 49.5629 87.2961C49.2935 87.5103 49.2125 87.7155 49.2917 87.8061Z" fill="#263238"/>
<path d="M42.8964 96.1321C42.8796 95.6707 42.309 94.6009 41.8506 94.5451C40.6272 94.3969 38.4366 94.5691 38.5218 97.6609C38.6382 101.887 42.8574 100.899 42.8616 100.777C42.864 100.683 42.9546 97.7257 42.8964 96.1321Z" fill="#FFBF9D"/>
<path d="M41.6525 99.2663C41.6333 99.2531 41.5805 99.3197 41.4575 99.3803C41.3375 99.4391 41.1299 99.4835 40.9073 99.4067C40.4561 99.2549 40.0613 98.5565 40.0199 97.7957C39.9983 97.4111 40.0691 97.0427 40.1969 96.7355C40.3175 96.4229 40.5113 96.2015 40.7351 96.1553C40.9571 96.0977 41.1203 96.2279 41.1749 96.3449C41.2349 96.4619 41.2103 96.5471 41.2325 96.5537C41.2445 96.5639 41.3213 96.4805 41.2829 96.3071C41.2631 96.2237 41.2109 96.1253 41.1089 96.0467C41.0051 95.9669 40.8551 95.9291 40.6991 95.9501C40.3739 95.9819 40.0889 96.2897 39.9479 96.6263C39.7895 96.9653 39.7013 97.3793 39.7253 97.8113C39.7757 98.6621 40.2335 99.4469 40.8491 99.6071C41.1485 99.6761 41.3939 99.5801 41.5193 99.4763C41.6477 99.3683 41.6675 99.2729 41.6525 99.2663Z" fill="#FF9A6C"/>
<path d="M41.6802 94.5735L42.8472 95.5863C49.5744 91.1613 56.415 79.1163 54.648 79.6089C54.648 79.6089 51.3731 78.5913 47.9957 79.4811C44.6189 80.3709 38.2679 82.6671 38.7281 86.7027C39.1883 90.7371 41.6802 94.5735 41.6802 94.5735Z" fill="#263238"/>
<path d="M39.7038 77.6785C41.3412 78.6355 42.8004 81.4261 42.1308 83.2009C42.4332 85.0567 41.7174 87.0469 40.302 88.2847C38.8866 89.5225 36.819 89.9671 35.0202 89.4199C33.7776 89.0419 32.6718 88.2073 32.004 87.0937C31.2114 85.7731 31.0626 84.1363 31.3458 82.6225C31.6938 80.7577 32.7168 78.9787 34.3062 77.9443C35.8956 76.9099 38.0664 76.7209 39.7038 77.6785Z" fill="#263238"/>
<path d="M39.3329 94.5831C39.3425 94.6017 39.6179 94.4859 40.1027 94.2501C40.5881 94.0149 41.2811 93.6555 42.1193 93.1761C43.7897 92.2185 46.0535 90.7563 48.1805 88.6947C50.3099 86.6337 51.7889 84.3435 52.5659 82.5711C52.9607 81.6861 53.2103 80.9415 53.3489 80.4189C53.4887 79.8963 53.5379 79.6011 53.5193 79.5969C53.4587 79.5789 53.1953 80.7507 52.3607 82.4757C51.5411 84.2013 50.0579 86.4321 47.9573 88.4661C45.8585 90.5013 43.6373 91.9797 42.0041 92.9823C41.1851 93.4839 40.5107 93.8721 40.0445 94.1409C39.5777 94.4085 39.3221 94.5621 39.3329 94.5831Z" fill="#455A64"/>
<path d="M35.6454 91.4106C35.7036 91.413 35.7282 90.6234 35.964 89.3826C36.1962 88.143 36.6984 86.4576 37.6122 84.7626C38.5332 83.0706 39.6708 81.729 40.5822 80.8572C41.493 79.9812 42.1404 79.5294 42.1068 79.4826C42.0942 79.4646 41.9238 79.5636 41.6244 79.7604C41.322 79.9518 40.9098 80.2686 40.428 80.6916C39.4632 81.5334 38.2704 82.8822 37.3308 84.6102C36.3972 86.3412 35.919 88.0764 35.7408 89.3448C35.6496 89.979 35.6094 90.4974 35.6142 90.8556C35.6136 91.2132 35.6232 91.41 35.6454 91.4106Z" fill="#455A64"/>
<path d="M40.1339 101.214C40.1339 102.088 40.8425 102.796 41.7167 102.796C42.5909 102.796 43.2995 102.088 43.2995 101.214C43.2995 100.339 42.5909 99.6309 41.7167 99.6309C40.8425 99.6309 40.1339 100.339 40.1339 101.214Z" fill="#263238"/>
<path d="M55.0373 100.263C55.0199 100.114 54.0317 100.286 53.1815 99.5643C52.3289 98.8443 52.2545 97.7715 52.1153 97.7883C52.0511 97.7853 51.9647 98.0571 52.0313 98.5035C52.0931 98.9421 52.3451 99.5541 52.8653 99.9963C53.3867 100.436 53.9993 100.557 54.4103 100.519C54.8297 100.483 55.0553 100.33 55.0373 100.263Z" fill="#263238"/>
<path d="M32.4876 154.073C32.4876 154.073 27.768 170.725 30.5718 179.765C32.2536 185.188 55.8594 215.064 56.9964 216.349C57.7878 217.244 46.9032 245.467 44.9118 251.345L57.4266 257.411C57.4266 257.411 73.0872 224.112 74.0442 218.276C75.2736 210.782 57.6564 178.722 58.3038 178.292L64.6362 165.084L59.3808 151.481C59.3808 151.481 37.2318 151.721 32.709 152.083L32.4876 154.073Z" fill="#263238"/>
<path d="M59.8655 163.893C59.8655 163.893 90.3971 174.725 93.8393 176.559C97.5923 178.557 100.427 185.569 97.2977 191.53C94.1687 197.49 66.7199 214.555 66.7199 214.555L59.8655 204.125L79.7297 188.479L58.2263 183.412L51.2231 175.113L59.8655 163.893Z" fill="#263238"/>
<path d="M74.0453 218.086C74.0027 218.082 74.1863 217.327 74.0303 215.964C73.8893 214.601 73.3595 212.677 72.4847 210.386C72.0497 209.238 71.5283 207.998 70.9787 206.66C70.6997 205.994 70.4357 205.286 70.1603 204.57C69.8885 203.856 69.5663 203.13 69.2465 202.385C67.9445 199.408 66.4619 196.155 64.9031 192.744C62.3843 187.269 60.0569 182.213 58.1897 178.155L58.1711 178.115L58.1813 178.073C58.9757 174.783 59.6753 172.092 60.2057 170.231C60.4733 169.301 60.6995 168.578 60.8753 168.094C60.9701 167.853 61.0373 167.669 61.1045 167.552C61.1729 167.435 61.2095 167.379 61.2149 167.383C61.2197 167.387 61.1933 167.451 61.1387 167.569C61.0847 167.687 61.0283 167.877 60.9461 168.118C60.7937 168.608 60.5903 169.334 60.3437 170.268C59.8553 172.138 59.1923 174.837 58.4261 178.131L58.4177 178.049C60.3185 182.078 62.6753 187.128 65.1869 192.614C66.7457 196.027 68.2211 199.283 69.5105 202.271C69.8279 203.021 70.1447 203.745 70.4171 204.474C70.6901 205.197 70.9439 205.892 71.2187 206.562C71.7563 207.903 72.2675 209.151 72.6911 210.308C73.5431 212.619 74.0453 214.57 74.1509 215.952C74.2715 217.335 74.0453 218.086 74.0453 218.086Z" fill="#455A64"/>
<path opacity="0.3" d="M60.2988 170.162C60.2388 170.382 60.2988 178.184 60.2988 178.184L64.2162 184.823L61.0878 184.086L58.3044 178.292L60.2988 170.162Z" fill="black"/>
<path d="M77.6231 168.97C76.7417 168.106 74.1575 165.679 72.3413 163.978C71.6465 163.328 72.0947 162.164 73.0463 162.144L93.9551 161.717C94.2653 161.71 94.5629 161.841 94.7693 162.072L99.1397 166.981C99.7403 167.656 99.2777 168.724 98.3747 168.748L78.3917 169.272C78.1049 169.279 77.8283 169.171 77.6231 168.97Z" fill="#455A64"/>
<path d="M71.7048 165.213C71.7048 165.213 74.1348 164.135 76.5642 163.893C78.9942 163.651 80.2092 164.674 81.5106 164.553C82.812 164.432 86.3699 164.779 86.3699 165.734C86.3699 166.688 81.4235 167.035 81.4235 167.035L85.7621 168.423C85.7621 168.423 90.7086 167.816 90.7956 168.423C90.8826 169.031 86.37 169.638 84.2874 169.899C82.2048 170.159 70.1424 170.333 68.4072 169.899C66.6714 169.465 54.3492 162.002 54.3492 162.002L60.2502 155.928L71.7048 165.213Z" fill="#FFBF9D"/>
<path d="M41.3166 110.895C41.3166 110.895 35.6412 111.762 33.7002 117.942C32.0862 123.08 35.1648 144.195 36.4734 148.007C37.782 151.818 51.8724 164.088 53.1108 163.044C54.3492 162.001 61.2156 155.927 61.2156 155.927L50.1918 142.898C50.1918 142.898 50.7756 127.428 50.046 124.509C49.3164 121.591 44.3814 110.603 41.3166 110.895Z" fill="#A882DD"/>
<path d="M34.4256 136.647C35.232 143.98 33.6576 147.132 33.6576 147.132C32.3826 148.097 31.743 149.693 31.6056 150.89C31.5306 151.542 32.0538 152.105 32.7096 152.082L59.3814 151.48C59.3814 151.48 63.114 151.836 63.0348 148.298C62.946 144.347 64.0344 130.467 62.6004 125.011C62.1054 123.128 56.0148 113.947 56.0148 113.947L43.3002 106.737L41.955 110.202C41.955 110.202 37.9212 111.675 36.0786 114.05C34.6218 115.927 34.11 117.222 33.5262 119.234C32.4228 123.033 33.993 132.714 34.4256 136.647Z" fill="#A882DD"/>
<path d="M101.486 124.408C101.486 124.408 101.253 124.199 100.444 124.46C99.6354 124.721 97.3362 125.85 96.2934 126.119C95.2506 126.388 92.9898 127.258 92.9898 127.258C92.9898 127.258 91.7309 127.113 90.1325 128.218C88.5335 129.323 84.0222 132.304 84.0222 132.304L85.572 136.691C85.572 136.691 87.315 136.399 87.8106 136.546C88.3062 136.693 89.7815 136.784 91.0079 136.415C92.2343 136.047 93.8946 135.383 93.8946 135.383C93.8946 135.383 95.5116 135.516 95.9358 134.929C96.36 134.342 95.904 133.283 95.904 133.283C95.904 133.283 97.491 131.827 96.8088 131.009C96.1272 130.19 95.2788 129.284 95.2788 129.284C95.2788 129.284 99.9858 126.79 100.875 126.128C101.763 125.468 101.938 124.937 101.486 124.408Z" fill="#FFBF9D"/>
<path d="M84.0221 132.304L69.3833 137.23L63.4685 140.219L71.7713 144.695L85.5719 136.692L84.0221 132.304Z" fill="#FFBF9D"/>
<path d="M92.8895 128.687C92.9627 128.661 93.2855 130.403 92.7095 132.459C92.6867 132.538 92.6639 132.617 92.6423 132.691L92.5205 132.492C93.4913 132.667 94.3559 132.838 94.9781 132.977C95.6177 133.105 95.9555 133.374 95.9237 133.407C95.9003 133.439 95.5661 133.257 94.9391 133.187C94.3103 133.103 93.4367 132.968 92.4659 132.799L92.2955 132.769L92.3441 132.6C92.3645 132.529 92.3867 132.452 92.4083 132.376C92.9669 130.391 92.7923 128.689 92.8895 128.687Z" fill="#FF9A6C"/>
<path d="M92.8194 130.768C92.8302 130.742 92.9502 130.755 93.1212 130.867C93.288 130.976 93.5052 131.2 93.5982 131.549L93.441 131.44C93.6864 131.395 93.9696 131.365 94.2696 131.359C95.3436 131.335 96.1656 131.665 96.1362 131.741C96.1122 131.829 95.2926 131.647 94.2756 131.671C93.9894 131.677 93.7182 131.695 93.4806 131.719L93.3474 131.732L93.3234 131.609C93.2112 131.041 92.7774 130.822 92.8194 130.768Z" fill="#FF9A6C"/>
<path d="M95.0243 129.645C95.0747 129.72 94.6805 130.054 94.3259 130.561C93.9647 131.065 93.7811 131.546 93.6935 131.524C93.6125 131.511 93.6713 130.94 94.0709 130.381C94.4663 129.818 94.9847 129.573 95.0243 129.645Z" fill="#FF9A6C"/>
<path d="M55.7376 110.728L57.2076 114.677C58.8078 116.194 62.7924 120.458 63.549 123.392C64.5384 127.23 68.9988 136.877 68.9988 136.877C68.9988 136.877 79.1136 132.565 79.8114 133.273C80.5092 133.981 84.0528 142.293 82.887 144.037C81.7212 145.781 71.3916 150.354 67.2132 149.327C63.0348 148.299 59.0724 142.25 59.0724 142.25L55.7376 110.728Z" fill="#A882DD"/>
<path d="M62.379 123.432C62.3994 123.425 62.5158 123.745 62.7096 124.332C62.8128 124.625 62.9238 124.986 63.0138 125.417C63.1116 125.846 63.2418 126.33 63.3132 126.88C63.5142 127.97 63.6114 129.287 63.6612 130.748C63.6852 132.21 63.6348 133.816 63.5298 135.495C63.2994 138.854 63.0612 141.883 63.0882 144.082C63.0768 144.632 63.1098 145.128 63.1212 145.564C63.1284 146.001 63.1566 146.376 63.183 146.682C63.2286 147.295 63.2436 147.636 63.2226 147.639C63.2016 147.642 63.1452 147.306 63.0618 146.694C63.0162 146.388 62.9706 146.013 62.9466 145.574C62.9184 145.137 62.8698 144.638 62.8674 144.086C62.784 141.875 62.988 138.826 63.2178 135.476C63.3228 133.8 63.3816 132.204 63.3732 130.753C63.3396 129.303 63.2664 127.997 63.0948 126.914C62.784 124.74 62.3106 123.452 62.379 123.432Z" fill="#263238"/>
<path d="M68.8458 142.595C68.7594 142.594 68.7084 141.28 68.7318 139.662C68.7552 138.042 68.844 136.731 68.9304 136.732C69.0168 136.734 69.0678 138.047 69.0444 139.666C69.021 141.285 68.9322 142.596 68.8458 142.595Z" fill="#263238"/>
<path d="M49.974 122.744C49.9848 122.745 49.9926 122.867 49.9974 123.099C50.0004 123.365 50.004 123.701 50.0088 124.113C50.0214 125.036 50.0382 126.301 50.0592 127.845C50.0964 130.994 50.2608 135.353 50.1312 140.161C50.1192 141.348 50.2248 142.529 50.7468 143.503C51.2694 144.474 52.0536 145.26 52.7292 146.05C54.0954 147.611 55.329 149.021 56.3754 150.216C57.384 151.385 58.2102 152.343 58.8132 153.042C59.0778 153.359 59.2932 153.617 59.4642 153.821C59.6106 154.002 59.6832 154.1 59.6748 154.107C59.6664 154.114 59.5782 154.029 59.4162 153.863C59.2338 153.668 59.004 153.423 58.7208 153.122C58.0992 152.439 57.2478 151.503 56.208 150.361C55.1472 149.178 53.8956 147.783 52.5108 146.239C51.8322 145.455 51.0384 144.679 50.475 143.646C49.9116 142.602 49.8054 141.36 49.8174 140.159C49.947 135.351 49.8174 131.001 49.8366 127.847C49.8366 126.27 49.8552 124.994 49.8858 124.112C49.899 123.671 49.9176 123.329 49.9332 123.098C49.9494 122.865 49.9632 122.744 49.974 122.744Z" fill="#263238"/>
<path d="M40.815 110.895C40.8282 110.93 40.2102 111.104 39.204 111.649C38.2116 112.196 36.8154 113.161 35.6034 114.808C34.9974 115.624 34.4448 116.606 34.0614 117.738C33.8592 118.3 33.7206 118.903 33.6192 119.53C33.5316 120.156 33.4806 120.82 33.4368 121.493C33.3546 122.843 33.3516 124.266 33.444 125.735C33.5418 127.201 33.7452 128.722 33.9006 130.282C34.23 133.4 34.5444 136.369 34.83 139.075C35.109 141.778 35.328 144.217 35.8872 146.187C36.4242 148.161 37.254 149.625 37.959 150.52C38.3088 150.971 38.616 151.293 38.8302 151.505C39.0462 151.715 39.1626 151.824 39.1548 151.834C39.1512 151.838 39.1182 151.816 39.0558 151.769C38.9946 151.721 38.901 151.652 38.787 151.552C38.5572 151.353 38.2326 151.042 37.8636 150.596C37.1202 149.713 36.246 148.241 35.6742 146.248C35.0808 144.259 34.8378 141.802 34.5438 139.106C34.2504 136.4 33.9282 133.432 33.5898 130.315C33.4344 128.755 33.2334 127.24 33.138 125.754C33.0486 124.271 33.0576 122.836 33.1488 121.475C33.1974 120.793 33.252 120.135 33.3474 119.488C33.456 118.844 33.6042 118.226 33.8166 117.653C34.2204 116.497 34.797 115.5 35.4264 114.676C36.6858 113.014 38.1252 112.063 39.147 111.542C39.6624 111.281 40.08 111.113 40.3704 111.024C40.659 110.929 40.812 110.885 40.815 110.895Z" fill="#263238"/>
<path d="M55.9295 114.809C55.9169 114.826 55.6985 114.695 55.3121 114.44C54.8765 114.145 54.3329 113.775 53.6855 113.336L53.8583 113.249C53.8505 114.08 53.8415 115.052 53.8319 116.123L53.8301 116.351L53.6249 116.248C52.5917 115.728 51.4535 115.156 50.2559 114.554C47.9585 113.389 45.8867 112.318 44.3945 111.529C43.6961 111.153 43.1069 110.836 42.6341 110.581C42.2219 110.35 41.9981 110.214 42.0077 110.195C42.0173 110.176 42.2597 110.275 42.6887 110.472C43.1735 110.703 43.7771 110.99 44.4935 111.332C46.0115 112.07 48.0989 113.11 50.3969 114.275C51.5903 114.886 52.7243 115.466 53.7539 115.993L53.5463 116.117C53.5811 115.048 53.6129 114.075 53.6399 113.245L53.6471 113.033L53.8133 113.158C54.4379 113.63 54.9617 114.026 55.3823 114.343C55.7471 114.628 55.9421 114.792 55.9295 114.809Z" fill="#263238"/>
<path d="M60.6565 248.184L55.7245 258.51C55.7245 258.51 65.1925 267.189 64.4779 269.189L42.9139 259.97L49.8991 243.552L60.6565 248.184Z" fill="#263238"/>
<path d="M49.4371 254.782C48.9733 254.711 48.4933 255.031 48.4183 255.471C48.3433 255.911 48.6961 256.395 49.1593 256.473C49.6219 256.552 50.2111 256.184 50.2345 255.737C50.2579 255.29 49.8115 254.743 49.3465 254.773" fill="#E0E0E0"/>
<path d="M42.9139 259.97L43.6867 258.344L64.0729 267.791C64.0729 267.791 64.8625 268.597 64.4779 269.189L42.9139 259.97Z" fill="#455A64"/>
<path d="M56.1183 258.554C56.0721 258.652 55.5255 258.472 54.8697 258.57C54.2103 258.652 53.7567 258.969 53.6769 258.888C53.5881 258.828 54.0021 258.3 54.7995 258.194C55.5951 258.081 56.1807 258.472 56.1183 258.554Z" fill="white"/>
<path d="M57.9979 260.413C57.9799 260.52 57.4513 260.494 56.9119 260.762C56.3641 261.015 56.0767 261.431 55.9741 261.382C55.8685 261.356 56.0473 260.742 56.7247 260.421C57.3991 260.094 58.0369 260.317 57.9979 260.413Z" fill="white"/>
<path d="M58.1779 263.521C58.0729 263.501 58.1413 262.941 58.6471 262.512C59.1499 262.079 59.7391 262.076 59.7475 262.178C59.7715 262.286 59.3257 262.441 58.9165 262.8C58.4977 263.149 58.2865 263.555 58.1779 263.521Z" fill="white"/>
<path d="M65.4661 31.6315C67.3798 44.8044 58.2285 57.0381 45.0259 58.9574C31.8224 60.8759 19.5673 51.7531 17.6532 38.5799C15.7386 25.4074 24.89 13.1733 38.093 11.2548C51.2961 9.33628 63.5515 18.4595 65.4661 31.6315Z" fill="#EDEEEF"/>
<path d="M59.7775 32.4588C61.2361 42.4966 54.2624 51.8197 44.2004 53.2823C34.1396 54.7445 24.7998 47.7923 23.3412 37.7545C21.8829 27.7159 28.8566 18.3923 38.9178 16.9305C48.9794 15.4683 58.3185 22.4206 59.7775 32.4588Z" fill="#F3F3F3"/>
<path d="M59.6899 31.8885C59.58 31.9087 59.3859 31.1203 58.8899 29.7676C58.3884 28.424 57.5452 26.4984 55.9771 24.489C55.1942 23.4891 54.2359 22.4729 53.084 21.5289C51.9254 20.5964 50.585 19.7234 49.0613 19.0425C48.3014 18.6993 47.5019 18.3926 46.6626 18.1557C45.8254 17.9144 44.9552 17.7149 44.0565 17.6018C43.1597 17.4859 42.2383 17.4169 41.3031 17.4411C40.3682 17.4633 39.4227 17.5534 38.4751 17.7149C37.5299 17.8894 36.6098 18.1303 35.7249 18.4307C34.8381 18.7303 33.9969 19.112 33.1941 19.5294C32.389 19.9457 31.6407 20.4321 30.9375 20.9468C30.2312 21.4578 29.5861 22.0221 28.9909 22.6054C27.7953 23.7696 26.8366 25.0513 26.0708 26.3254C25.3145 27.6074 24.7646 28.8919 24.3737 30.1005C23.594 32.5261 23.4659 34.624 23.4579 36.058C23.4583 37.4984 23.548 38.3055 23.4373 38.3237C23.3563 38.34 23.0818 37.5631 22.9095 36.087C22.7477 34.62 22.7195 32.4202 23.4167 29.8208C23.7666 28.526 24.2936 27.1404 25.0542 25.7484C25.8244 24.3648 26.8128 22.9669 28.0699 21.6908C28.6952 21.0515 29.3777 20.4337 30.1297 19.8719C30.878 19.3064 31.6784 18.7723 32.5414 18.3148C33.4029 17.8553 34.3087 17.4375 35.2638 17.109C36.2177 16.7792 37.2101 16.5173 38.2291 16.3296C39.2505 16.1547 40.2718 16.0598 41.2805 16.0412C42.2899 16.0209 43.2843 16.1019 44.2513 16.2368C45.2191 16.3689 46.1547 16.5955 47.0515 16.8689C47.9506 17.1375 48.8045 17.4827 49.6116 17.8672C51.2306 18.6327 52.6404 19.6044 53.8403 20.6385C55.0327 21.6832 56.006 22.803 56.7802 23.8982C58.3301 26.0988 59.0614 28.174 59.4153 29.6069C59.7621 31.0512 59.7716 31.875 59.6899 31.8885Z" fill="#E0E0E0"/>
<path d="M49.5638 27.0914L49.3382 30.6312L32.2879 34.0933L32.5316 30.5498L49.5638 27.0914ZM45.1005 48.6406L34.0146 39.8997L33.4071 37.0012L37.7241 36.1246C38.7762 35.911 39.6015 35.542 40.2001 35.0175C40.8083 34.4785 41.213 33.836 41.4141 33.0901C41.6273 32.3417 41.6479 31.5443 41.476 30.6978C41.2968 29.8151 40.9812 29.067 40.5293 28.4537C40.075 27.8283 39.4639 27.3921 38.696 27.145C37.9282 26.898 36.9759 26.89 35.8392 27.1208L31.0869 28.0857L31.3216 23.9397L35.04 23.1847C37.1925 22.7476 39.0484 22.7107 40.6079 23.074C42.1771 23.4227 43.4436 24.1413 44.4075 25.2299C45.381 26.3039 46.0434 27.7055 46.3945 29.4347C46.7014 30.9463 46.7188 32.334 46.4466 33.598C46.1841 34.8475 45.5702 35.9479 44.605 36.8994C43.6399 37.8508 42.2749 38.6316 40.5101 39.2418L50.5812 47.2634L50.6328 47.5173L45.1005 48.6406ZM48.2449 20.5034L48.0012 24.0469L33.9801 26.8939L34.2238 23.3504L48.2449 20.5034Z" fill="#E0E0E0"/>
<path d="M262.288 44.4131C266.553 51.4501 264.293 60.6204 257.241 64.896C250.188 69.1716 241.012 66.9334 236.747 59.8964C232.481 52.86 234.741 43.6897 241.794 39.4141C248.847 35.1382 258.022 37.3767 262.288 44.4131Z" fill="#EDEEEF"/>
<path d="M259.249 46.2554C262.5 51.6172 260.778 58.606 255.403 61.8643C250.029 65.1222 243.036 63.4166 239.786 58.0545C236.535 52.692 238.257 45.7032 243.632 42.4453C249.006 39.1873 255.998 40.8929 259.249 46.2554Z" fill="#F3F3F3"/>
<path d="M251.679 45.9345L252.312 47.8467L244.068 53.2925L243.443 51.3745L251.679 45.9345ZM253.907 58.2318L246.211 55.9836L245.275 54.5862L247.363 53.2073C247.871 52.8713 248.228 52.5016 248.431 52.0982C248.637 51.6851 248.714 51.2608 248.661 50.8252C248.614 50.3858 248.456 49.9614 248.186 49.5521C247.904 49.1253 247.579 48.7984 247.21 48.5714C246.838 48.3385 246.424 48.2386 245.967 48.2717C245.51 48.3047 245.007 48.5028 244.457 48.8658L242.159 50.3837L241.402 48.1503L243.2 46.9627C244.24 46.2752 245.21 45.8614 246.109 45.7214C247.009 45.5717 247.829 45.6811 248.568 46.0496C249.309 46.4084 249.955 47.0058 250.508 47.8419C250.99 48.5728 251.294 49.3 251.42 50.0235C251.547 50.7373 251.457 51.4473 251.151 52.1535C250.845 52.8596 250.292 53.5608 249.492 54.2571L256.5 56.3421L256.581 56.4648L253.907 58.2318ZM249.585 42.745L250.209 44.663L243.43 49.1413L242.805 47.2234L249.585 42.745Z" fill="#E0E0E0"/>
<path d="M259.062 45.9521C259.005 45.9899 258.704 45.5879 258.096 44.9378C257.486 44.2941 256.542 43.401 255.165 42.6355C254.478 42.2551 253.688 41.9074 252.804 41.6482C251.92 41.3967 250.947 41.2229 249.915 41.2026C249.4 41.1905 248.871 41.2087 248.336 41.2762C247.801 41.3407 247.258 41.4369 246.719 41.5891C246.181 41.7393 245.639 41.9223 245.113 42.1616C244.586 42.3995 244.07 42.679 243.569 42.9993C243.073 43.3268 242.608 43.6856 242.177 44.0697C241.744 44.4541 241.357 44.874 241.001 45.3051C240.643 45.7361 240.334 46.1935 240.058 46.6559C239.779 47.1173 239.548 47.5939 239.35 48.0695C238.95 49.0204 238.713 49.981 238.585 50.891C238.464 51.8031 238.46 52.6668 238.529 53.4492C238.67 55.0178 239.103 56.2427 239.444 57.0613C239.792 57.8811 240.037 58.3189 239.979 58.3561C239.936 58.3847 239.593 58.0087 239.139 57.2101C238.693 56.4142 238.146 55.1687 237.917 53.5208C237.803 52.6996 237.769 51.7835 237.867 50.808C237.972 49.8345 238.197 48.8006 238.605 47.7711C238.807 47.2564 239.047 46.7403 239.339 46.2391C239.629 45.7368 239.956 45.2399 240.336 44.7711C240.716 44.3016 241.131 43.8456 241.595 43.4284C242.059 43.0105 242.561 42.6223 243.095 42.2699C243.635 41.9243 244.193 41.6239 244.763 41.37C245.333 41.1152 245.918 40.9215 246.501 40.7652C247.084 40.6072 247.671 40.5103 248.247 40.4499C248.823 40.3861 249.393 40.3767 249.945 40.401C251.051 40.4462 252.088 40.6595 253.02 40.9589C253.951 41.2661 254.775 41.6691 255.48 42.1055C256.892 42.9845 257.809 43.9894 258.356 44.7198C258.902 45.4583 259.106 45.9248 259.062 45.9521Z" fill="#E0E0E0"/>
<path d="M242.179 30.5882C238.595 32.8481 233.854 31.7679 231.588 28.1758C229.323 24.5834 230.392 19.8393 233.977 17.5795C237.561 15.3196 242.302 16.3998 244.567 19.9919C246.832 23.584 245.763 28.3284 242.179 30.5882Z" fill="#EDEEEF"/>
<path d="M241.203 29.0402C238.472 30.7623 234.859 29.939 233.132 27.2016C231.406 24.4641 232.221 20.8488 234.952 19.1266C237.683 17.4045 241.297 18.2274 243.023 20.9649C244.749 23.7023 243.934 27.3177 241.203 29.0402Z" fill="#F3F3F3"/>
<path d="M241.358 28.9416C241.338 28.9122 241.542 28.7539 241.871 28.4346C242.198 28.1149 242.648 27.6208 243.03 26.9049C243.22 26.5477 243.391 26.1376 243.517 25.6806C243.639 25.2229 243.72 24.7203 243.721 24.189C243.722 23.9237 243.708 23.6513 243.668 23.3766C243.63 23.1018 243.576 22.823 243.492 22.5469C243.41 22.2711 243.311 21.994 243.183 21.7253C243.056 21.4563 242.907 21.1927 242.738 20.9382C242.565 20.6857 242.376 20.4494 242.174 20.2307C241.972 20.0116 241.753 19.8162 241.528 19.6366C241.302 19.456 241.064 19.3014 240.823 19.1634C240.583 19.024 240.336 18.9092 240.089 18.8117C239.596 18.6145 239.099 18.5015 238.63 18.4434C238.159 18.3894 237.714 18.3951 237.312 18.4377C236.506 18.5244 235.879 18.7583 235.461 18.9416C235.042 19.1279 234.819 19.2582 234.8 19.2285C234.784 19.2069 234.975 19.0267 235.382 18.7857C235.788 18.5491 236.424 18.2564 237.27 18.1227C237.692 18.0573 238.163 18.0313 238.667 18.0728C239.168 18.118 239.703 18.2247 240.237 18.4252C240.503 18.5244 240.771 18.6432 241.032 18.789C241.293 18.9335 241.552 19.0972 241.797 19.2893C242.042 19.4803 242.281 19.6899 242.5 19.9252C242.719 20.1601 242.923 20.415 243.11 20.687C243.293 20.9615 243.452 21.2463 243.588 21.5373C243.725 21.8283 243.83 22.128 243.915 22.4267C244.002 22.7254 244.057 23.0269 244.094 23.3229C244.132 23.6192 244.141 23.9122 244.134 24.1968C244.121 24.7665 244.02 25.3022 243.875 25.7852C243.725 26.2669 243.525 26.6949 243.307 27.0618C242.867 27.797 242.358 28.2783 241.987 28.5662C241.611 28.8541 241.372 28.9635 241.358 28.9416Z" fill="#E0E0E0"/>
<path d="M240.82 25.9811L239.792 26.1846L237.513 21.5785L238.543 21.3799L240.82 25.9811ZM234.329 26.3375L235.986 22.5109L236.768 22.1181L237.345 23.2843C237.485 23.5685 237.653 23.7763 237.848 23.9075C238.048 24.0403 238.262 24.1073 238.49 24.1082C238.72 24.1124 238.949 24.058 239.178 23.9449C239.416 23.8269 239.606 23.6802 239.747 23.5047C239.891 23.3277 239.97 23.1202 239.982 22.8823C239.994 22.6444 239.925 22.3719 239.773 22.0648L239.138 20.781L240.339 20.5342L240.836 21.5387C241.124 22.1202 241.275 22.6473 241.289 23.1201C241.308 23.5945 241.199 24.0104 240.961 24.368C240.728 24.7273 240.378 25.0224 239.911 25.2536C239.503 25.4556 239.108 25.5656 238.726 25.5835C238.35 25.6031 237.989 25.5111 237.644 25.3076C237.3 25.104 236.973 24.7734 236.666 24.3157L235.137 27.7981L235.069 27.8321L234.329 26.3375ZM242.601 25.106L241.571 25.3046L239.697 21.5168L240.727 21.3182L242.601 25.106Z" fill="#E0E0E0"/>
</svg>
