<svg width="22" height="18" viewBox="0 0 22 18" fill="none" xmlns="http://www.w3.org/2000/svg">
<path d="M10.5899 4.46709V0.771484L4.22529 3.02991C1.36044 4.17351 0.572644 6.92484 0.734995 8.16269V13.2955C0.734995 16.0877 3.06186 16.3751 4.22529 16.1698L11.4112 13.5008V9.80518L4.22529 12.4742V8.57331C4.22529 7.09507 5.04653 6.45176 5.45715 6.31489L10.5899 4.46709Z" fill="#49D49D"/>
<path d="M11.412 13.5017V17.1973L17.7767 14.9388C20.6415 13.7952 21.4293 11.0439 21.267 9.80606V4.67328C21.267 1.88105 18.9401 1.59361 17.7767 1.79892L10.5908 4.46797V8.16357L17.7767 5.49453V9.39544C17.7767 10.8737 16.9554 11.517 16.5448 11.6539L11.412 13.5017Z" fill="#A882DD"/>
</svg>
