<svg width="250" height="245" viewBox="0 0 250 245" fill="none" xmlns="http://www.w3.org/2000/svg">
<g clip-path="url(#clip0_2695_7685)">
<path d="M14.4335 240.183C13.7169 239.569 12.1184 237.622 13.3511 235.357C13.8032 234.527 14.7628 234.117 15.6314 233.751C16.5002 233.385 17.4131 233.067 18.132 232.455C19.4877 231.302 19.8617 229.386 20.7617 227.847C21.7947 226.081 23.7231 224.758 25.7603 224.85C28.0932 224.957 30.0387 226.862 30.9209 229.034C31.8029 231.207 31.8336 233.619 31.8518 235.966C31.8621 237.263 31.8043 238.725 30.8517 239.601C29.9738 240.409 28.6516 240.419 27.4614 240.382C23.2118 240.252 18.9621 240.121 14.7123 239.991" fill="#F3F2F1"/>
<path d="M37.3036 215.139H33.9294L34.7564 205.46H38.4391L37.3036 215.139ZM34.4238 239.684H31.8324L32.6083 230.604H35.4892L34.4238 239.684ZM9.10262 205.46C9.23542 206.16 9.84748 209.968 10.6671 215.139H7.30174L5.67831 205.46H9.10262ZM29.478 215.139L29.7997 205.46H34.4225L33.5957 215.139H29.478ZM28.6627 239.684L28.9644 230.604H32.2744L31.4984 239.684H28.6627ZM13.1044 230.604C13.5974 233.746 14.0829 236.844 14.5272 239.684H11.4186L9.89565 230.604H13.1044ZM12.7106 228.097H9.47537L7.72229 217.646H11.064C11.5747 220.876 12.1408 224.47 12.7106 228.097ZM17.1879 217.646L18.0003 228.097H13.0475C12.8808 227.037 12.7121 225.964 12.5432 224.891C12.1552 222.423 11.7663 219.957 11.4012 217.646H17.1879ZM16.9931 215.139H11.0044C10.7925 213.803 10.5911 212.537 10.4095 211.398C9.78491 207.485 9.55005 206.013 9.41976 205.46H16.2408L16.9931 215.139ZM22.9871 215.139H17.3267L16.5745 205.46H22.7642L22.9871 215.139ZM23.32 215.139L23.0971 205.46H29.4664L29.1449 215.139H23.32ZM23.6185 228.097L23.3777 217.646H29.0616L28.7145 228.097H23.6185ZM18.3338 228.097L17.5216 217.646H23.0449L23.2855 228.097H18.3338ZM18.9007 239.684H14.8641C14.4805 237.232 13.9815 234.046 13.4411 230.604H18.195L18.9007 239.684ZM18.5285 230.604H23.3434L23.5524 239.684H19.2342L18.5285 230.604ZM23.8854 239.684L23.6763 230.604H28.6311L28.3296 239.684H23.8854ZM33.7154 217.646H37.0096L35.7831 228.097H32.8223L33.7154 217.646ZM32.4884 228.097H29.0478L29.3949 217.646H33.3814L32.4884 228.097ZM38.8136 205.125H5.28516L11.3248 241.139C11.5889 242.712 12.7267 243.924 14.1873 244.345L14.3048 244.377C14.4048 244.402 14.5008 244.436 14.6033 244.454C14.8244 244.5 15.0529 244.523 15.2852 244.532L15.2905 244.567L15.4541 244.541H15.4552H30.3982C30.6793 244.541 30.9536 244.512 31.2193 244.459C32.984 244.186 34.3966 242.77 34.6113 240.939L37.5228 216.126L37.6541 215.139H37.6384L38.7916 205.312L38.8136 205.125Z" fill="#DADBD8"/>
<path d="M242.643 92.2555H197.453V51.826H242.643V92.2555Z" fill="#FAFAF9"/>
<path d="M242.647 92.2555C242.647 92.2555 242.639 91.9959 242.635 91.5049C242.632 91.009 242.629 90.2833 242.623 89.3388C242.617 87.4406 242.608 84.6657 242.597 81.132C242.584 74.068 242.566 63.9738 242.544 51.8259L242.647 51.9281C229.632 51.9335 214.101 51.94 197.461 51.9465H197.457L197.578 51.8259C197.572 66.5347 197.567 80.3754 197.564 92.2549L197.457 92.149C210.938 92.1713 222.221 92.1898 230.141 92.2028C234.104 92.2148 237.224 92.224 239.36 92.2305C240.424 92.2359 241.242 92.2403 241.8 92.243C242.074 92.2457 242.283 92.2479 242.43 92.249C242.572 92.2511 242.647 92.2555 242.647 92.2555C242.647 92.2555 242.58 92.2593 242.442 92.2615C242.297 92.2625 242.092 92.2647 241.824 92.2674C241.27 92.2701 240.459 92.2745 239.405 92.2799C237.274 92.2864 234.162 92.2957 230.21 92.3076C222.273 92.3207 210.966 92.3391 197.457 92.3614L197.351 92.3619V92.2549C197.346 80.3754 197.341 66.5347 197.336 51.8259V51.7048H197.457H197.461C214.101 51.7119 229.632 51.7179 242.647 51.7233H242.749V51.8259C242.727 64.0009 242.709 74.1174 242.696 81.1967C242.685 84.7211 242.676 87.4878 242.67 89.3806C242.664 90.3165 242.661 91.0356 242.658 91.5271C242.654 92.0111 242.647 92.2555 242.647 92.2555Z" fill="#DADBD8"/>
<path d="M214.781 59.01C214.781 59.0763 212.402 59.1306 209.469 59.1306C206.534 59.1306 204.156 59.0763 204.156 59.01C204.156 58.9432 206.534 58.8889 209.469 58.8889C212.402 58.8889 214.781 58.9432 214.781 59.01Z" fill="#DADBD8"/>
<path d="M233.923 62.0456C233.923 62.1124 227.389 62.1661 219.33 62.1661C211.268 62.1661 204.734 62.1124 204.734 62.0456C204.734 61.9788 211.268 61.9244 219.33 61.9244C227.389 61.9244 233.923 61.9788 233.923 62.0456Z" fill="#DADBD8"/>
<path d="M206.142 69.0912H204.238V67.1875H206.142V69.0912Z" fill="#DADBD8"/>
<path d="M210.826 69.0911H208.922V67.1874H210.826V69.0911Z" fill="#DADBD8"/>
<path d="M215.599 69.005H213.695V67.1013H215.599V69.005Z" fill="#DADBD8"/>
<path d="M220.193 69.0909H218.289V67.1872H220.193V69.0909Z" fill="#DADBD8"/>
<path d="M224.881 69.0909H222.977V67.1872H224.881V69.0909Z" fill="#DADBD8"/>
<path d="M229.564 69.0914H227.66V67.1877H229.564V69.0914Z" fill="#DADBD8"/>
<path d="M234.255 69.0909H232.352V67.1872H234.255V69.0909Z" fill="#E7E8E5"/>
<path d="M206.142 73.1383H204.238V71.2346H206.142V73.1383Z" fill="#E7E8E5"/>
<path d="M210.826 73.1385H208.922V71.2348H210.826V73.1385Z" fill="#DADBD8"/>
<path d="M215.505 73.1383H213.602V71.2346H215.505V73.1383Z" fill="#E7E8E5"/>
<path d="M220.193 73.1383H218.289V71.2346H220.193V73.1383Z" fill="#DADBD8"/>
<path d="M224.881 73.1383H222.977V71.2346H224.881V73.1383Z" fill="#DADBD8"/>
<path d="M229.654 73.0515H227.75V71.1478H229.654V73.0515Z" fill="#DADBD8"/>
<path d="M234.255 73.1383H232.352V71.2346H234.255V73.1383Z" fill="#DADBD8"/>
<path d="M206.142 77.1859H204.238V75.2822H206.142V77.1859Z" fill="#DADBD8"/>
<path d="M210.912 77.0992H209.008V75.1955H210.912V77.0992Z" fill="#DADBD8"/>
<path d="M215.505 77.1857H213.602V75.282H215.505V77.1857Z" fill="#DADBD8"/>
<path d="M220.193 77.1862H218.289V75.2825H220.193V77.1862Z" fill="#E7E8E5"/>
<path d="M224.881 77.1862H222.977V75.2825H224.881V77.1862Z" fill="#DADBD8"/>
<path d="M229.564 77.1857H227.66V75.282H229.564V77.1857Z" fill="#DADBD8"/>
<path d="M234.255 77.1862H232.352V75.2825H234.255V77.1862Z" fill="#DADBD8"/>
<path d="M206.142 81.2334H204.238V79.3297H206.142V81.2334Z" fill="#DADBD8"/>
<path d="M210.826 81.2333H208.922V79.3297H210.826V81.2333Z" fill="#DADBD8"/>
<path d="M215.505 81.2335H213.602V79.3298H215.505V81.2335Z" fill="#DADBD8"/>
<path d="M220.279 81.1468H218.375V79.2431H220.279V81.1468Z" fill="#DADBD8"/>
<path d="M224.881 81.2335H222.977V79.3298H224.881V81.2335Z" fill="#DADBD8"/>
<path d="M229.564 81.2335H227.66V79.3298H229.564V81.2335Z" fill="#E7E8E5"/>
<path d="M234.255 81.2335H232.352V79.3298H234.255V81.2335Z" fill="#DADBD8"/>
<path d="M206.142 85.2809H204.238V83.3772H206.142V85.2809Z" fill="#DADBD8"/>
<path d="M210.826 85.2812H208.922V83.3775H210.826V85.2812Z" fill="#E7E8E5"/>
<path d="M215.505 85.2809H213.602V83.3772H215.505V85.2809Z" fill="#DADBD8"/>
<path d="M220.193 85.2814H218.289V83.3777H220.193V85.2814Z" fill="#DADBD8"/>
<path d="M224.881 85.2814H222.977V83.3777H224.881V85.2814Z" fill="#DADBD8"/>
<path d="M229.654 85.1946H227.75V83.2909H229.654V85.1946Z" fill="#DADBD8"/>
<path d="M234.255 85.2809H232.352V83.3772H234.255V85.2809Z" fill="#DADBD8"/>
<path d="M234.131 23.06C234.131 32.1549 226.758 39.528 217.663 39.528C208.568 39.528 201.195 32.1549 201.195 23.06C201.195 13.9652 208.568 6.5921 217.663 6.5921C226.758 6.5921 234.131 13.9652 234.131 23.06Z" fill="#DADBD8"/>
<path d="M232.743 22.8943C232.743 31.125 226.071 37.7975 217.84 37.7975C209.609 37.7975 202.938 31.125 202.938 22.8943C202.938 14.6636 209.609 7.99174 217.84 7.99174C226.071 7.99174 232.743 14.6636 232.743 22.8943Z" fill="white"/>
<path d="M202.786 22.0004C202.786 22.0004 202.79 22.083 202.791 22.2438C202.79 22.4094 202.789 22.6468 202.788 22.9569C202.787 23.1139 202.786 23.2888 202.784 23.4821C202.792 23.6749 202.818 23.8851 202.837 24.1132C202.858 24.3414 202.88 24.5869 202.904 24.8487C202.918 25.1126 202.997 25.3847 203.046 25.6775C203.232 26.8512 203.683 28.2525 204.44 29.757C205.205 31.2555 206.346 32.8442 207.952 34.2341C208.154 34.4068 208.358 34.5806 208.565 34.7566C208.781 34.9201 209.011 35.0716 209.236 35.2324C209.468 35.385 209.685 35.5664 209.935 35.7C210.183 35.839 210.432 35.9797 210.684 36.122C210.811 36.1921 210.938 36.2632 211.065 36.3344C211.199 36.393 211.334 36.4522 211.469 36.512C211.739 36.6309 212.011 36.751 212.287 36.8721C212.565 36.9851 212.859 37.0655 213.149 37.1648C213.442 37.2523 213.728 37.3761 214.036 37.4283C214.646 37.5559 215.26 37.7237 215.905 37.7699C216.225 37.8019 216.546 37.8546 216.872 37.8715C217.199 37.8758 217.529 37.8802 217.861 37.885C218.027 37.8845 218.194 37.8965 218.36 37.8856C218.527 37.8709 218.694 37.8563 218.861 37.8416C219.196 37.8085 219.536 37.7922 219.874 37.7449C220.542 37.6091 221.232 37.5206 221.896 37.293L222.402 37.1442C222.486 37.1187 222.572 37.0964 222.655 37.0682L222.901 36.9682C223.23 36.8357 223.561 36.7021 223.893 36.5679C224.219 36.418 224.533 36.2393 224.857 36.0753C225.015 35.9879 225.183 35.9151 225.335 35.8146L225.795 35.5153C226.427 35.14 226.99 34.6556 227.577 34.1917C227.846 33.9321 228.116 33.6708 228.388 33.4085L228.592 33.2119L228.778 32.9968L229.148 32.5634L229.52 32.1278L229.852 31.658L230.184 31.1849L230.35 30.9476C230.401 30.8655 230.446 30.7797 230.494 30.6961C230.685 30.3582 230.876 30.0199 231.068 29.6799C231.226 29.3225 231.385 28.9645 231.544 28.6044C232.127 27.1434 232.493 25.5743 232.621 23.9617C232.705 22.3453 232.549 20.7415 232.162 19.2158C232.051 18.8383 231.941 18.4619 231.83 18.0871C231.685 17.7249 231.539 17.3642 231.394 17.0047L231.285 16.7358L231.15 16.4789L230.884 15.9662L230.616 15.4573L230.304 14.9766L229.993 14.4981L229.837 14.2607L229.661 14.0386C229.426 13.7431 229.192 13.4488 228.959 13.156C228.438 12.6194 227.943 12.0654 227.365 11.6102L226.949 11.2534C226.811 11.1339 226.653 11.0399 226.508 10.9324C226.208 10.7276 225.92 10.5093 225.617 10.3181C225.305 10.141 224.994 9.9656 224.686 9.79126L224.455 9.65982C224.376 9.62071 224.294 9.58758 224.214 9.55119L223.732 9.33773C223.103 9.02488 222.431 8.84673 221.786 8.62513C221.456 8.53442 221.122 8.47361 220.794 8.39703C220.63 8.36064 220.466 8.32423 220.303 8.28784C220.139 8.25525 219.972 8.24548 219.808 8.22321C219.478 8.1841 219.151 8.14609 218.826 8.10753C218.5 8.08146 218.175 8.09124 217.853 8.08146C217.208 8.0429 216.577 8.1287 215.956 8.17595C215.643 8.18736 215.343 8.2732 215.042 8.32099C214.742 8.38182 214.44 8.42256 214.149 8.4986C213.86 8.58278 213.574 8.66642 213.29 8.74898C213.149 8.79026 213.008 8.83154 212.867 8.87227C212.732 8.92604 212.597 8.97981 212.462 9.03304C212.193 9.14112 211.928 9.24757 211.664 9.35348C211.399 9.45342 211.16 9.60495 210.91 9.72607C210.665 9.85588 210.418 9.97591 210.182 10.1095C209.954 10.2573 209.729 10.4028 209.506 10.5473C207.733 11.7156 206.394 13.1413 205.439 14.5274C204.492 15.9195 203.862 17.2502 203.524 18.3891C203.438 18.6732 203.324 18.9323 203.276 19.1919C203.217 19.4488 203.163 19.6894 203.113 19.9126C203.065 20.1364 203.01 20.3412 202.978 20.5318C202.954 20.7224 202.932 20.8963 202.913 21.0521C202.874 21.3595 202.843 21.5953 202.822 21.7593C202.801 21.919 202.786 22.0004 202.786 22.0004C202.786 22.0004 202.789 21.9179 202.805 21.7582C202.823 21.5931 202.847 21.3568 202.88 21.0483C202.897 20.8913 202.915 20.717 202.937 20.5247C202.967 20.3336 203.019 20.1277 203.064 19.9023C203.113 19.678 203.165 19.4357 203.22 19.1777C203.266 18.916 203.378 18.6553 203.462 18.369C203.793 17.2225 204.417 15.8809 205.363 14.4747C206.315 13.0751 207.658 11.633 209.441 10.449C209.665 10.3029 209.891 10.1552 210.121 10.0058C210.358 9.87002 210.607 9.74779 210.854 9.61635C211.105 9.4936 211.345 9.34044 211.613 9.23833C211.878 9.13079 212.146 9.02272 212.417 8.91301C212.552 8.85869 212.688 8.80437 212.825 8.74951C212.967 8.70769 213.108 8.66587 213.251 8.62351C213.537 8.53987 213.825 8.4546 214.117 8.36878C214.41 8.29166 214.715 8.24927 215.017 8.18736C215.322 8.13793 215.624 8.05104 215.94 8.03855C216.567 7.98967 217.203 7.90169 217.854 7.93862C218.179 7.9484 218.508 7.93753 218.836 7.9636C219.164 8.00162 219.495 8.03963 219.828 8.0782C219.994 8.09992 220.163 8.11025 220.328 8.1423C220.493 8.17869 220.659 8.21507 220.825 8.25146C221.156 8.32804 221.494 8.38942 221.826 8.48067C222.478 8.70281 223.157 8.88205 223.794 9.19707L224.281 9.41215C224.362 9.44854 224.445 9.48221 224.525 9.52186L224.758 9.65383C225.071 9.8298 225.384 10.0074 225.7 10.185C226.006 10.3778 226.298 10.5978 226.601 10.8048C226.748 10.9134 226.907 11.0079 227.046 11.1285L227.468 11.4886C228.052 11.9481 228.554 12.5075 229.08 13.0495C229.316 13.3455 229.552 13.6427 229.79 13.9414L229.969 14.1657L230.127 14.4058L230.442 14.8886L230.757 15.3742L231.028 15.8891L231.298 16.4072L231.434 16.6668L231.545 16.9384C231.692 17.3018 231.839 17.6667 231.987 18.0328C232.098 18.4119 232.21 18.7921 232.322 19.174C232.714 20.717 232.873 22.3388 232.787 23.9726C232.658 25.6031 232.288 27.1896 231.698 28.6669C231.537 29.0308 231.376 29.3931 231.216 29.7543C231.022 30.0981 230.828 30.4403 230.635 30.7813C230.586 30.8661 230.54 30.953 230.489 31.0355L230.321 31.2756L229.985 31.7536L229.65 32.2283L229.273 32.6682L228.898 33.106L228.71 33.3232L228.504 33.522C228.229 33.7871 227.956 34.051 227.684 34.3134C227.09 34.7816 226.52 35.2704 225.881 35.6495L225.416 35.9509C225.262 36.0525 225.092 36.1253 224.931 36.2138C224.605 36.3795 224.287 36.5592 223.958 36.7102C223.622 36.8455 223.287 36.9802 222.955 37.1138L222.706 37.2143C222.622 37.2425 222.536 37.2653 222.45 37.2914L221.939 37.4408C221.267 37.6694 220.571 37.7585 219.895 37.8937C219.554 37.9404 219.211 37.9573 218.873 37.9899C218.703 38.004 218.534 38.0187 218.366 38.0328C218.198 38.0436 218.029 38.0311 217.862 38.0317C217.527 38.0263 217.194 38.0208 216.864 38.0154C216.535 37.998 216.21 37.9448 215.887 37.9111C215.236 37.8633 214.617 37.6928 214.002 37.5624C213.691 37.5087 213.402 37.3832 213.107 37.2941C212.815 37.1931 212.519 37.1111 212.238 36.9965C211.96 36.8737 211.685 36.7521 211.413 36.6309C211.278 36.5706 211.142 36.5104 211.007 36.4501C210.879 36.3784 210.751 36.3067 210.624 36.235C210.369 36.0911 210.118 35.9488 209.87 35.8075C209.618 35.6718 209.399 35.4882 209.166 35.3334C208.939 35.171 208.708 35.0173 208.49 34.8522C208.283 34.6735 208.077 34.4975 207.874 34.3231C206.261 32.9164 205.118 31.3114 204.357 29.7994C203.603 28.2818 203.159 26.8697 202.982 25.6894C202.936 25.3945 202.859 25.1213 202.848 24.8563C202.826 24.5923 202.806 24.3463 202.788 24.1171C202.772 23.8878 202.747 23.6766 202.742 23.4832C202.747 23.2898 202.751 23.1144 202.754 22.9569C202.763 22.6468 202.769 22.4089 202.774 22.2427C202.779 22.0825 202.786 22.0004 202.786 22.0004Z" fill="#E7E8E5"/>
<path d="M224.628 23.3029C224.628 23.3154 224.44 23.3273 224.098 23.3377C223.723 23.3458 223.234 23.3556 222.641 23.3675C221.405 23.3844 219.682 23.3963 217.738 23.399H217.641V23.3029C217.641 22.9917 217.641 22.6636 217.641 22.3307C217.641 20.1592 217.651 18.1931 217.669 16.7706C217.681 16.0846 217.692 15.5165 217.7 15.0858C217.711 14.6877 217.724 14.4677 217.738 14.4677C217.751 14.4677 217.764 14.6877 217.775 15.0858C217.783 15.5165 217.794 16.0846 217.806 16.7706C217.824 18.1931 217.835 20.1592 217.835 22.3307C217.835 22.6636 217.834 22.9917 217.834 23.3029L217.738 23.2068C219.682 23.2095 221.405 23.2214 222.641 23.2383C223.234 23.2502 223.723 23.2605 224.098 23.2676C224.44 23.2785 224.628 23.2904 224.628 23.3029Z" fill="#DADBD8"/>
<path d="M217.784 10.3122C217.838 10.3122 217.881 10.8759 217.881 11.5712C217.881 12.2669 217.838 12.8307 217.784 12.8307C217.731 12.8307 217.688 12.2669 217.688 11.5712C217.688 10.8759 217.731 10.3122 217.784 10.3122Z" fill="#DADBD8"/>
<path d="M224.618 12.3358C224.656 12.3738 224.293 12.7969 223.808 13.2819C223.324 13.7669 222.9 14.1287 222.862 14.0912C222.824 14.0532 223.186 13.6295 223.671 13.145C224.156 12.66 224.58 12.2977 224.618 12.3358Z" fill="#DADBD8"/>
<path d="M228.611 16.6984C228.635 16.7473 228.159 17.033 227.578 17.3877C226.994 17.7413 226.522 18.0318 226.49 17.9873C226.459 17.9449 226.886 17.5805 227.477 17.222C228.067 16.863 228.587 16.6512 228.611 16.6984Z" fill="#DADBD8"/>
<path d="M230.95 23.1722C230.95 23.226 230.181 23.2695 229.233 23.2695C228.285 23.2695 227.516 23.226 227.516 23.1722C227.516 23.119 228.285 23.0756 229.233 23.0756C230.181 23.0756 230.95 23.119 230.95 23.1722Z" fill="#DADBD8"/>
<path d="M207.134 22.944C207.134 22.9972 206.408 23.0406 205.512 23.0406C204.617 23.0406 203.891 22.9972 203.891 22.944C203.891 22.8902 204.617 22.8467 205.512 22.8467C206.408 22.8467 207.134 22.8902 207.134 22.944Z" fill="#DADBD8"/>
<path d="M208.82 27.7645C208.855 27.8047 208.306 28.3028 207.594 28.8758C206.882 29.4499 206.279 29.8795 206.247 29.8366C206.215 29.7937 206.764 29.2962 207.473 28.7248C208.182 28.1539 208.785 27.7238 208.82 27.7645Z" fill="#DADBD8"/>
<path d="M212.974 31.4918C213.019 31.5243 212.612 32.15 212.14 32.9376C211.666 33.724 211.304 34.3769 211.255 34.353C211.208 34.3307 211.495 33.6328 211.974 32.8377C212.451 32.0414 212.933 31.4608 212.974 31.4918Z" fill="#DADBD8"/>
<path d="M217.784 36.2999C217.731 36.2999 217.688 35.5308 217.688 34.5825C217.688 33.6342 217.731 32.8651 217.784 32.8651C217.838 32.8651 217.881 33.6342 217.881 34.5825C217.881 35.5308 217.838 36.2999 217.784 36.2999Z" fill="#DADBD8"/>
<path d="M225.186 34.0115C225.159 34.0544 224.486 33.6683 223.77 33.0415C223.051 32.4169 222.576 31.8042 222.616 31.7711C222.657 31.7342 223.19 32.2805 223.897 32.8954C224.602 33.5124 225.217 33.9648 225.186 34.0115Z" fill="#DADBD8"/>
<path d="M228.658 30.271C228.62 30.3085 228.112 29.8609 227.522 29.2711C226.931 28.6807 226.484 28.1718 226.522 28.1337C226.559 28.0957 227.069 28.5438 227.659 29.1337C228.249 29.7241 228.696 30.233 228.658 30.271Z" fill="#DADBD8"/>
<path d="M208.665 18.3265C208.628 18.364 208.178 17.9762 207.662 17.4596C207.145 16.9437 206.758 16.4945 206.796 16.4564C206.833 16.4184 207.283 16.8062 207.799 17.3228C208.315 17.8387 208.703 18.2885 208.665 18.3265Z" fill="#DADBD8"/>
<path d="M212.956 13.8105C212.918 13.848 212.476 13.47 211.969 12.9654C211.462 12.4603 211.082 12.0209 211.12 11.9829C211.157 11.9449 211.599 12.3229 212.106 12.828C212.613 13.3326 212.993 13.7725 212.956 13.8105Z" fill="#DADBD8"/>
<path d="M204.494 23.0408C204.494 15.1083 210.694 8.6254 218.512 8.16645C218.218 8.14907 217.923 8.13821 217.626 8.13821C209.395 8.13821 202.723 14.8106 202.723 23.0408C202.723 31.2715 209.395 37.944 217.626 37.944C217.923 37.944 218.218 37.9326 218.512 37.9157C210.694 37.4568 204.494 30.9739 204.494 23.0408Z" fill="#F3F2F1"/>
<path d="M51.8108 76.0721H9.85547V9.76801H51.8108V76.0721Z" fill="#DADBD8"/>
<path d="M50.5359 74.9825H10.9844V11.0134H50.5359V74.9825Z" fill="#F3F2F1"/>
<path d="M46.5289 39.2123H30.7578V14.7396H46.5289V39.2123Z" fill="white"/>
<path d="M39.4819 16.9036C39.4819 17.229 39.2185 17.4918 38.8932 17.4918C38.5682 17.4918 38.3047 17.229 38.3047 16.9036C38.3047 16.5783 38.5682 16.3148 38.8932 16.3148C39.2185 16.3148 39.4819 16.5783 39.4819 16.9036Z" fill="#DADBD8"/>
<path d="M30.6305 70.4956H14.8594V46.0235H30.6305V70.4956Z" fill="white"/>
<path d="M23.5836 48.1863C23.5836 48.5116 23.32 48.775 22.9948 48.775C22.6697 48.775 22.4062 48.5116 22.4062 48.1863C22.4062 47.8615 22.6697 47.598 22.9948 47.598C23.32 47.598 23.5836 47.8615 23.5836 48.1863Z" fill="#DADBD8"/>
<path d="M28.1217 33.8502H14.6523V14.7399H28.1217V33.8502Z" fill="white"/>
<path d="M21.8724 16.4756C21.8724 16.7455 21.6537 16.9644 21.3836 16.9644C21.1135 16.9644 20.8945 16.7455 20.8945 16.4756C20.8945 16.2057 21.1135 15.9868 21.3836 15.9868C21.6537 15.9868 21.8724 16.2057 21.8724 16.4756Z" fill="#DADBD8"/>
<path d="M47.9456 54.3409L33.5408 55.9659L32.6406 47.9851L47.0452 46.36L47.9456 54.3409Z" fill="white"/>
<path d="M40.513 48.6856C40.513 48.961 40.2898 49.1842 40.0144 49.1842C39.7388 49.1842 39.5156 48.961 39.5156 48.6856C39.5156 48.4097 39.7388 48.1865 40.0144 48.1865C40.2898 48.1865 40.513 48.4097 40.513 48.6856Z" fill="#DADBD8"/>
<path d="M28.5307 51.6054C28.5307 51.6706 26.0541 51.7233 23 51.7233C19.9447 51.7233 17.4688 51.6706 17.4688 51.6054C17.4688 51.5408 19.9447 51.4881 23 51.4881C26.0541 51.4881 28.5307 51.5408 28.5307 51.6054Z" fill="#DADBD8"/>
<path d="M28.5307 53.3559C28.5307 53.4211 26.0541 53.4733 23 53.4733C19.9447 53.4733 17.4688 53.4211 17.4688 53.3559C17.4688 53.2913 19.9447 53.2386 23 53.2386C26.0541 53.2386 28.5307 53.2913 28.5307 53.3559Z" fill="#DADBD8"/>
<path d="M28.5307 55.1069C28.5307 55.1716 26.0541 55.2242 23 55.2242C19.9447 55.2242 17.4688 55.1716 17.4688 55.1069C17.4688 55.0417 19.9447 54.9891 23 54.9891C26.0541 54.9891 28.5307 55.0417 28.5307 55.1069Z" fill="#DADBD8"/>
<path d="M28.5307 56.8583C28.5307 56.9235 26.0541 56.9762 23 56.9762C19.9447 56.9762 17.4688 56.9235 17.4688 56.8583C17.4688 56.7937 19.9447 56.741 23 56.741C26.0541 56.741 28.5307 56.7937 28.5307 56.8583Z" fill="#DADBD8"/>
<path d="M28.5307 58.6093C28.5307 58.6745 26.0541 58.7272 23 58.7272C19.9447 58.7272 17.4688 58.6745 17.4688 58.6093C17.4688 58.5447 19.9447 58.492 23 58.492C26.0541 58.492 28.5307 58.5447 28.5307 58.6093Z" fill="#DADBD8"/>
<path d="M28.5307 60.3599C28.5307 60.4245 26.0541 60.4772 23 60.4772C19.9447 60.4772 17.4688 60.4245 17.4688 60.3599C17.4688 60.2947 19.9447 60.242 23 60.242C26.0541 60.242 28.5307 60.2947 28.5307 60.3599Z" fill="#DADBD8"/>
<path d="M28.5307 62.1108C28.5307 62.1755 26.0541 62.2281 23 62.2281C19.9447 62.2281 17.4688 62.1755 17.4688 62.1108C17.4688 62.0457 19.9447 61.993 23 61.993C26.0541 61.993 28.5307 62.0457 28.5307 62.1108Z" fill="#DADBD8"/>
<path d="M45.6957 49.7299C45.7047 49.794 43.2599 50.1921 40.2355 50.619C37.2103 51.0459 34.7511 51.3397 34.7422 51.2756C34.7331 51.211 37.1774 50.8134 40.2026 50.3865C43.227 49.9596 45.6866 49.6658 45.6957 49.7299Z" fill="#DADBD8"/>
<path d="M45.9145 50.825C45.9234 50.8891 43.4786 51.2877 40.4543 51.7141C37.429 52.141 34.9701 52.4348 34.961 52.3707C34.9518 52.3067 37.3962 51.9085 40.4214 51.4816C43.4458 51.0547 45.9054 50.7609 45.9145 50.825Z" fill="#DADBD8"/>
<path d="M46.1215 51.8362C46.1304 51.9008 43.6857 52.299 40.6613 52.7253C37.6361 53.1522 35.1769 53.4461 35.168 53.382C35.1589 53.3179 37.6032 52.9198 40.6286 52.4928C43.6528 52.0659 46.1124 51.7721 46.1215 51.8362Z" fill="#DADBD8"/>
<path d="M45.1378 19.8594C45.1378 19.9246 42.3401 19.9767 38.8896 19.9767C35.438 19.9767 32.6406 19.9246 32.6406 19.8594C32.6406 19.7948 35.438 19.7421 38.8896 19.7421C42.3401 19.7421 45.1378 19.7948 45.1378 19.8594Z" fill="#DADBD8"/>
<path d="M45.1378 20.9009C45.1378 20.9655 42.3401 21.0182 38.8896 21.0182C35.438 21.0182 32.6406 20.9655 32.6406 20.9009C32.6406 20.8357 35.438 20.783 38.8896 20.783C42.3401 20.783 45.1378 20.8357 45.1378 20.9009Z" fill="#DADBD8"/>
<path d="M45.1378 21.9419C45.1378 22.0065 42.3401 22.0592 38.8896 22.0592C35.438 22.0592 32.6406 22.0065 32.6406 21.9419C32.6406 21.8767 35.438 21.824 38.8896 21.824C42.3401 21.824 45.1378 21.8767 45.1378 21.9419Z" fill="#DADBD8"/>
<path d="M45.1378 22.9819C45.1378 23.047 42.3401 23.0997 38.8896 23.0997C35.438 23.0997 32.6406 23.047 32.6406 22.9819C32.6406 22.9172 35.438 22.8645 38.8896 22.8645C42.3401 22.8645 45.1378 22.9172 45.1378 22.9819Z" fill="#DADBD8"/>
<path d="M45.1378 24.0234C45.1378 24.0886 42.3401 24.1412 38.8896 24.1412C35.438 24.1412 32.6406 24.0886 32.6406 24.0234C32.6406 23.9587 35.438 23.9061 38.8896 23.9061C42.3401 23.9061 45.1378 23.9587 45.1378 24.0234Z" fill="#DADBD8"/>
<path d="M45.1378 25.0649C45.1378 25.1301 42.3401 25.1823 38.8896 25.1823C35.438 25.1823 32.6406 25.1301 32.6406 25.0649C32.6406 24.9998 35.438 24.9476 38.8896 24.9476C42.3401 24.9476 45.1378 24.9998 45.1378 25.0649Z" fill="#DADBD8"/>
<path d="M45.1378 26.1059C45.1378 26.1706 42.3401 26.2233 38.8896 26.2233C35.438 26.2233 32.6406 26.1706 32.6406 26.1059C32.6406 26.0413 35.438 25.9881 38.8896 25.9881C42.3401 25.9881 45.1378 26.0413 45.1378 26.1059Z" fill="#DADBD8"/>
<path d="M45.1378 29.1953C45.1378 29.2604 42.3401 29.3131 38.8896 29.3131C35.438 29.3131 32.6406 29.2604 32.6406 29.1953C32.6406 29.1306 35.438 29.0779 38.8896 29.0779C42.3401 29.0779 45.1378 29.1306 45.1378 29.1953Z" fill="#DADBD8"/>
<path d="M45.2277 30.2948C45.2277 30.3594 42.4299 30.4121 38.9795 30.4121C35.5276 30.4121 32.7305 30.3594 32.7305 30.2948C32.7305 30.2302 35.5276 30.1775 38.9795 30.1775C42.4299 30.1775 45.2277 30.2302 45.2277 30.2948Z" fill="#DADBD8"/>
<path d="M45.3175 31.3945C45.3175 31.4596 42.5197 31.5123 39.0691 31.5123C35.6175 31.5123 32.8203 31.4596 32.8203 31.3945C32.8203 31.3298 35.6175 31.2771 39.0691 31.2771C42.5197 31.2771 45.3175 31.3298 45.3175 31.3945Z" fill="#DADBD8"/>
<path d="M45.4074 32.4941C45.4074 32.5588 42.6096 32.6115 39.1592 32.6115C35.7075 32.6115 32.9102 32.5588 32.9102 32.4941C32.9102 32.429 35.7075 32.3763 39.1592 32.3763C42.6096 32.3763 45.4074 32.429 45.4074 32.4941Z" fill="#DADBD8"/>
<path d="M45.4894 33.5937C45.4894 33.6584 42.6916 33.7111 39.241 33.7111C35.7893 33.7111 32.9922 33.6584 32.9922 33.5937C32.9922 33.5286 35.7893 33.4759 39.241 33.4759C42.6916 33.4759 45.4894 33.5286 45.4894 33.5937Z" fill="#DADBD8"/>
<path d="M45.5795 34.6937C45.5795 34.7588 42.7815 34.8115 39.3311 34.8115C35.8794 34.8115 33.082 34.7588 33.082 34.6937C33.082 34.629 35.8794 34.5764 39.3311 34.5764C42.7815 34.5764 45.5795 34.629 45.5795 34.6937Z" fill="#DADBD8"/>
<path d="M249.993 244.582C249.993 244.66 194.025 244.723 125.001 244.723C55.9527 244.723 -0.00390625 244.66 -0.00390625 244.582C-0.00390625 244.504 55.9527 244.44 125.001 244.44C194.025 244.44 249.993 244.504 249.993 244.582Z" fill="#17282F"/>
<path d="M182.704 187.084H68.5745C65.8045 187.084 63.5586 184.838 63.5586 182.068V15.8698C63.5586 13.0998 65.8045 10.8539 68.5745 10.8539H182.704C185.475 10.8539 187.721 13.0998 187.721 15.8698V182.068C187.721 184.838 185.475 187.084 182.704 187.084Z" fill="#DADBD8"/>
<path d="M182.712 187.084C182.712 187.084 182.841 187.073 183.097 187.058C183.351 187.041 183.73 186.983 184.214 186.841C184.692 186.684 185.272 186.42 185.855 185.951C186.429 185.481 187.006 184.794 187.361 183.877C187.548 183.423 187.653 182.906 187.686 182.361C187.715 181.813 187.693 181.23 187.698 180.623C187.696 179.405 187.695 178.075 187.693 176.633C187.689 173.749 187.686 170.421 187.682 166.676C187.673 151.691 187.66 130.011 187.643 103.222C187.639 89.8268 187.634 75.1544 187.629 59.4034C187.627 51.5279 187.625 43.3831 187.623 34.9927C187.622 30.7975 187.621 26.5414 187.62 22.2267C187.617 20.0705 187.614 17.9001 187.611 15.7156C187.59 14.644 187.179 13.593 186.504 12.7571C185.814 11.9332 184.859 11.3206 183.798 11.0886C183.268 10.9681 182.729 10.9577 182.17 10.9643C181.614 10.9643 181.058 10.9643 180.502 10.9643C179.388 10.9648 178.271 10.9648 177.15 10.9648C174.909 10.9653 172.655 10.9653 170.388 10.9659C165.853 10.9664 161.267 10.9675 156.632 10.968C147.362 10.9691 137.896 10.9702 128.26 10.9707C108.988 10.9718 89.0337 10.9724 68.5965 10.9735C67.3462 10.9691 66.109 11.4623 65.2112 12.3254C64.3058 13.1797 63.7518 14.3882 63.6991 15.6276C63.6741 18.1554 63.692 20.6962 63.6866 23.2169C63.686 28.2643 63.686 33.2785 63.686 38.2558C63.6855 48.211 63.685 58.0201 63.6839 67.6586C63.6817 86.9356 63.6795 105.529 63.6774 123.242C63.673 140.955 63.6698 157.787 63.666 173.539C63.6654 175.508 63.6649 177.46 63.6643 179.395C63.6692 180.361 63.6529 181.33 63.6746 182.28C63.7061 183.221 64.0293 184.14 64.5648 184.901C65.1009 185.664 65.8564 186.26 66.7081 186.617C67.136 186.79 67.5858 186.901 68.042 186.958C68.4211 186.991 68.8111 186.99 69.2005 186.989C69.2776 186.989 69.3553 186.989 69.4324 186.989C71.2965 186.99 73.1431 186.99 74.9708 186.991C82.2825 186.994 89.2992 186.996 95.9967 186.999C122.786 187.015 144.464 187.028 159.447 187.037C166.936 187.047 172.752 187.054 176.697 187.059C178.668 187.065 180.171 187.068 181.184 187.071C182.195 187.076 182.712 187.084 182.712 187.084C182.712 187.084 182.195 187.092 181.184 187.096C180.171 187.098 178.668 187.103 176.697 187.108C172.752 187.113 166.936 187.121 159.447 187.13C144.464 187.14 122.786 187.153 95.9967 187.168C89.2992 187.171 82.2825 187.174 74.9708 187.177C73.1431 187.177 71.2965 187.178 69.4324 187.178C69.3515 187.178 69.27 187.178 69.1891 187.178C68.804 187.18 68.4173 187.181 68.0214 187.146C67.5477 187.089 67.0801 186.973 66.6353 186.793C65.75 186.423 64.9657 185.805 64.4073 185.012C63.8506 184.222 63.5139 183.266 63.4802 182.288C63.4579 181.322 63.4737 180.365 63.4688 179.395C63.4683 177.46 63.4677 175.508 63.4672 173.539C63.4634 157.787 63.4596 140.955 63.4558 123.242C63.4536 105.529 63.4514 86.9356 63.4487 67.6586C63.4482 58.0201 63.4476 48.211 63.4471 38.2558C63.4471 33.2785 63.4465 28.2643 63.4465 23.2169C63.452 20.6908 63.434 18.1668 63.459 15.6162C63.515 14.3159 64.0961 13.0466 65.0455 12.151C65.9868 11.2467 67.287 10.7285 68.5965 10.7334C89.0337 10.734 108.988 10.7351 128.26 10.7356C137.896 10.7367 147.362 10.7378 156.632 10.7383C161.267 10.7394 165.853 10.7399 170.388 10.7405C172.655 10.7405 174.909 10.741 177.15 10.7416C178.271 10.7416 179.388 10.7421 180.502 10.7421C181.058 10.7421 181.614 10.7421 182.17 10.7421C182.719 10.7356 183.296 10.7459 183.847 10.873C184.955 11.1158 185.955 11.7561 186.674 12.617C187.379 13.4904 187.808 14.5897 187.83 15.7091C187.832 17.8958 187.834 20.0689 187.837 22.2267C187.836 26.5414 187.834 30.7975 187.834 34.9927C187.832 43.3831 187.83 51.5279 187.828 59.4034C187.822 75.1544 187.818 89.8268 187.813 103.222C187.797 130.011 187.784 151.691 187.775 166.676C187.771 170.421 187.767 173.749 187.764 176.633C187.762 178.075 187.76 179.405 187.758 180.623C187.751 181.232 187.771 181.81 187.74 182.364C187.705 182.915 187.596 183.437 187.406 183.894C187.044 184.819 186.459 185.509 185.878 185.979C185.289 186.449 184.703 186.711 184.221 186.865C183.734 187.003 183.353 187.057 183.097 187.07C182.841 187.082 182.712 187.084 182.712 187.084Z" fill="#17282F"/>
<path d="M178.605 183.102H114.885C114.72 182.358 114.501 181.64 114.23 180.955C114.057 180.515 113.843 180.056 113.443 179.803C113.206 179.652 112.937 179.594 112.658 179.594C112.293 179.594 111.912 179.693 111.566 179.816C110.333 180.252 109.168 181.566 108.169 183.102H74.3984V176.471C75.8046 175.184 76.8349 174.051 77.2917 173.181C77.8799 172.06 78.2357 170.899 78.3992 169.745H177.901L178.605 183.102ZM177.65 164.996H80.789L177.462 149.89V161.427L177.65 164.996Z" fill="#8F9192"/>
<path d="M159.346 21.6774H156.676L156.978 11.2133L159.346 18.2366V21.6774Z" fill="#8F9192"/>
<path d="M69.0977 17.9143V179.799H182.184V17.9143H69.0977Z" fill="white"/>
<path d="M182.191 150.852C182.191 150.852 182.185 150.643 182.183 150.23C182.181 149.815 182.178 149.201 182.174 148.391C182.171 146.766 182.165 144.359 182.158 141.225C182.151 134.951 182.141 125.763 182.128 114.1C182.117 90.7693 182.103 57.5359 182.085 17.9145L182.191 18.021C148.779 18.0253 110.114 18.0296 69.105 18.0345L69.2244 17.9145C69.2244 17.9601 69.2244 18.0096 69.2244 18.0584C69.213 80.2901 69.2027 137.121 69.1951 179.799L69.105 179.709C95.1201 179.726 116.232 179.74 130.843 179.749C138.146 179.76 143.824 179.768 147.678 179.773C149.603 179.779 151.071 179.784 152.061 179.786C153.049 179.791 153.556 179.799 153.556 179.799C153.556 179.799 153.049 179.809 152.061 179.813C151.071 179.816 149.603 179.82 147.678 179.825C143.824 179.831 138.146 179.84 130.843 179.85C116.232 179.859 95.1201 179.873 69.105 179.89L69.0143 179.89V179.799C69.0066 137.121 68.9958 80.2901 68.9844 18.0584C68.9844 18.0096 68.9844 17.9601 68.9844 17.9145V17.7945H69.105C110.114 17.7994 148.779 17.8043 182.191 17.8081H182.298V17.9145C182.28 57.5359 182.265 90.7693 182.254 114.1C182.242 125.763 182.231 134.951 182.225 141.225C182.217 144.359 182.212 146.766 182.208 148.391C182.205 149.201 182.202 149.815 182.2 150.23C182.197 150.643 182.191 150.852 182.191 150.852Z" fill="#17282F"/>
<path d="M156.972 23.0597H99.7539V9.89947C99.7539 8.00229 101.292 6.46412 103.189 6.46412H153.537C155.434 6.46412 156.972 8.00229 156.972 9.89947V23.0597Z" fill="#17282F"/>
<path d="M135.641 0.222753H121.078L122.78 12.7057H133.75L135.641 0.222753Z" fill="#17282F"/>
<path d="M153.297 6.46461C153.297 6.53033 142.133 6.58411 128.365 6.58411C114.591 6.58411 103.43 6.53033 103.43 6.46461C103.43 6.3978 114.591 6.34402 128.365 6.34402C142.133 6.34402 153.297 6.3978 153.297 6.46461Z" fill="#33535F"/>
<path d="M101.034 20.3824C100.968 20.3824 100.914 18.0349 100.914 15.14C100.914 12.2435 100.968 9.89657 101.034 9.89657C101.1 9.89657 101.154 12.2435 101.154 15.14C101.154 18.0349 101.1 20.3824 101.034 20.3824Z" fill="#33535F"/>
<path d="M155.12 19.1407C155.054 19.1407 155 17.0095 155 14.3807C155 11.7514 155.054 9.62062 155.12 9.62062C155.186 9.62062 155.24 11.7514 155.24 14.3807C155.24 17.0095 155.186 19.1407 155.12 19.1407Z" fill="#33535F"/>
<path d="M152.364 21.3478C152.364 21.4146 140.905 21.4684 126.772 21.4684C112.633 21.4684 101.176 21.4146 101.176 21.3478C101.176 21.2821 112.633 21.2283 126.772 21.2283C140.905 21.2283 152.364 21.2821 152.364 21.3478Z" fill="#33535F"/>
<path d="M167.867 52.8209H105.414V48.982H167.867V52.8209Z" fill="#DADBD8"/>
<path d="M133.747 60.6368H105.414V56.8246H133.747V60.6368Z" fill="#DADBD8"/>
<path d="M96.9583 61.7819H86.7148C85.5563 61.7819 84.6172 60.8428 84.6172 59.6837V49.4407C84.6172 48.2816 85.5563 47.3425 86.7148 47.3425H96.9583C98.1168 47.3425 99.0565 48.2816 99.0565 49.4407V59.6837C99.0565 60.8428 98.1168 61.7819 96.9583 61.7819Z" fill="#49D49D"/>
<path d="M91.6307 58.0026L87.5859 54.8768L88.6766 53.4652L91.389 55.5612L95.2463 51.1226L96.5928 52.2931L91.6307 58.0026Z" fill="white"/>
<path d="M167.867 76.59H105.414V72.7511H167.867V76.59Z" fill="#DADBD8"/>
<path d="M133.747 84.4054H105.414V80.5931H133.747V84.4054Z" fill="#DADBD8"/>
<path d="M96.9583 85.5514H86.7148C85.5563 85.5514 84.6172 84.6123 84.6172 83.4533V73.2102C84.6172 72.0512 85.5563 71.1121 86.7148 71.1121H96.9583C98.1168 71.1121 99.0565 72.0512 99.0565 73.2102V83.4533C99.0565 84.6123 98.1168 85.5514 96.9583 85.5514Z" fill="#49D49D"/>
<path d="M91.6307 81.7711L87.5859 78.6454L88.6766 77.2337L91.389 79.3297L95.2463 74.8912L96.5928 76.0616L91.6307 81.7711Z" fill="white"/>
<path d="M167.867 102.057H105.414V98.2184H167.867V102.057Z" fill="#DADBD8"/>
<path d="M133.747 109.873H105.414V106.06H133.747V109.873Z" fill="#DADBD8"/>
<path d="M167.867 125.601H105.414V121.762H167.867V125.601Z" fill="#DADBD8"/>
<path d="M133.747 133.417H105.414V129.604H133.747V133.417Z" fill="#DADBD8"/>
<path d="M96.9583 111.019H86.7148C85.5563 111.019 84.6172 110.079 84.6172 108.921V98.6775C84.6172 97.5184 85.5563 96.5794 86.7148 96.5794H96.9583C98.1168 96.5794 99.0565 97.5184 99.0565 98.6775V108.921C99.0565 110.079 98.1168 111.019 96.9583 111.019Z" fill="#49D49D"/>
<path d="M91.6307 107.238L87.5859 104.113L88.6766 102.701L91.389 104.797L95.2463 100.358L96.5928 101.528L91.6307 107.238Z" fill="white"/>
<path d="M86.5151 121.038C85.6075 121.038 84.8688 121.777 84.8688 122.685V133.34C84.8688 134.249 85.6075 134.988 86.5151 134.988H97.1714C98.0795 134.988 98.8182 134.249 98.8182 133.34V122.685C98.8182 121.777 98.0795 121.038 97.1714 121.038H86.5151ZM97.1714 135.477H86.5151C85.3375 135.477 84.3789 134.519 84.3789 133.34V122.685C84.3789 121.507 85.3375 120.548 86.5151 120.548H97.1714C98.3494 120.548 99.3081 121.507 99.3081 122.685V133.34C99.3081 134.519 98.3494 135.477 97.1714 135.477Z" fill="#844FCF"/>
<path d="M167.867 152.532H105.414V148.694H167.867V152.532Z" fill="#DADBD8"/>
<path d="M133.747 160.348H105.414V156.535H133.747V160.348Z" fill="#DADBD8"/>
<path d="M86.5151 147.97C85.6075 147.97 84.8688 148.709 84.8688 149.616V160.272C84.8688 161.18 85.6075 161.919 86.5151 161.919H97.1714C98.0795 161.919 98.8182 161.18 98.8182 160.272V149.616C98.8182 148.709 98.0795 147.97 97.1714 147.97H86.5151ZM97.1714 162.409H86.5151C85.3375 162.409 84.3789 161.451 84.3789 160.272V149.616C84.3789 148.438 85.3375 147.48 86.5151 147.48H97.1714C98.3494 147.48 99.3081 148.438 99.3081 149.616V160.272C99.3081 161.451 98.3494 162.409 97.1714 162.409Z" fill="#844FCF"/>
<path d="M160.165 39.4489H97.8984V34.1179H160.165V39.4489Z" fill="#844FCF"/>
<path d="M108.646 231.771C108.646 231.771 106.771 218.884 106.927 211.387C107.084 203.889 106.918 195.454 106.918 195.454H107.782C107.782 195.454 107.197 210.336 107.834 219.312C108.47 228.281 110.146 231.771 110.146 231.771H108.646Z" fill="#17282F"/>
<path d="M114.221 180.954C114.047 180.514 113.834 180.055 113.434 179.802C112.887 179.454 112.168 179.599 111.556 179.816C108.947 180.738 106.633 185.604 105.578 188.164L109.043 199.838C115.296 194.036 116.379 186.425 114.221 180.954Z" fill="#33535F"/>
<path d="M113.235 180.274C113.239 180.277 113.222 180.329 113.184 180.427C113.14 180.539 113.084 180.68 113.015 180.852C112.863 181.219 112.65 181.754 112.395 182.417C111.884 183.743 111.235 185.596 110.654 187.684C110.075 189.773 109.676 191.697 109.43 193.096C109.307 193.795 109.214 194.363 109.155 194.756C109.125 194.94 109.1 195.089 109.081 195.208C109.063 195.311 109.05 195.365 109.045 195.364C109.04 195.364 109.043 195.309 109.052 195.204C109.065 195.085 109.081 194.934 109.1 194.749C109.142 194.353 109.22 193.782 109.331 193.079C109.552 191.673 109.936 189.741 110.516 187.646C111.098 185.552 111.765 183.699 112.301 182.38C112.568 181.72 112.796 181.191 112.964 180.831C113.042 180.662 113.107 180.524 113.158 180.416C113.204 180.321 113.23 180.273 113.235 180.274Z" fill="#17282F"/>
<path d="M107.505 202.637C104.258 200.843 102.344 197.467 102.165 193.761C102.041 191.17 102.837 188.628 103.738 186.196C103.816 185.985 103.909 185.758 104.105 185.647C104.377 185.493 104.718 185.63 104.991 185.785C107.351 187.129 108.78 189.691 109.541 192.298C110.047 194.032 110.31 195.861 110.075 197.653C109.841 199.445 108.817 201.394 107.505 202.637Z" fill="#33535F"/>
<path d="M107.506 202.637C107.501 202.637 107.497 202.583 107.494 202.48C107.492 202.362 107.488 202.214 107.485 202.032C107.484 201.643 107.468 201.081 107.436 200.387C107.374 198.998 107.192 197.084 106.834 194.994C106.473 192.903 106.036 191.03 105.714 189.677C105.555 189.014 105.425 188.472 105.33 188.074C105.289 187.897 105.256 187.753 105.229 187.637C105.208 187.537 105.2 187.484 105.204 187.482C105.209 187.481 105.227 187.532 105.258 187.63C105.291 187.744 105.333 187.886 105.384 188.06C105.49 188.435 105.638 188.979 105.812 189.653C106.159 191.001 106.613 192.873 106.975 194.969C107.334 197.066 107.501 198.99 107.537 200.383C107.556 201.079 107.557 201.643 107.54 202.033C107.533 202.214 107.527 202.362 107.523 202.481C107.517 202.584 107.511 202.637 107.506 202.637Z" fill="#17282F"/>
<path d="M107.504 202.637C104.257 200.842 102.344 197.467 102.165 193.761C102.156 193.579 102.152 193.396 102.152 193.215C102.153 190.813 102.9 188.457 103.738 186.196C103.816 185.985 103.909 185.758 104.105 185.647C104.189 185.599 104.28 185.579 104.373 185.579C104.582 185.579 104.802 185.678 104.99 185.785C107.35 187.129 108.78 189.691 109.541 192.298C109.918 193.591 110.16 194.939 110.161 196.283C110.162 196.741 110.134 197.198 110.075 197.653C109.841 199.444 108.817 201.393 107.507 202.636C107.511 202.627 107.516 202.574 107.521 202.481C107.526 202.363 107.532 202.214 107.539 202.033C107.556 201.643 107.555 201.079 107.536 200.383C107.5 198.99 107.332 197.066 106.973 194.969C106.612 192.873 106.158 191.001 105.811 189.653C105.637 188.979 105.489 188.435 105.382 188.06C105.331 187.886 105.29 187.744 105.256 187.63C105.227 187.533 105.208 187.482 105.203 187.482C105.198 187.484 105.207 187.537 105.228 187.637C105.255 187.753 105.288 187.897 105.329 188.074C105.424 188.472 105.554 189.014 105.713 189.677C106.035 191.03 106.472 192.903 106.833 194.994C107.191 197.084 107.372 198.998 107.435 200.387C107.467 201.081 107.483 201.643 107.484 202.032C107.487 202.214 107.49 202.363 107.492 202.48C107.496 202.578 107.5 202.632 107.504 202.637Z" fill="#20353D"/>
<path d="M107.506 202.637H107.506C107.501 202.632 107.497 202.578 107.494 202.48C107.492 202.363 107.488 202.214 107.485 202.032C107.484 201.643 107.468 201.081 107.436 200.387C107.374 198.998 107.192 197.084 106.834 194.994C106.473 192.903 106.036 191.03 105.714 189.677C105.555 189.014 105.425 188.472 105.33 188.074C105.289 187.897 105.256 187.753 105.229 187.637C105.208 187.537 105.2 187.484 105.204 187.482C105.209 187.482 105.228 187.533 105.258 187.63C105.291 187.744 105.333 187.886 105.384 188.06C105.49 188.435 105.638 188.979 105.812 189.653C106.159 191.001 106.613 192.873 106.975 194.969C107.334 197.066 107.501 198.99 107.537 200.383C107.556 201.079 107.557 201.643 107.54 202.033C107.533 202.214 107.527 202.363 107.523 202.481C107.517 202.574 107.512 202.627 107.508 202.636C107.507 202.636 107.507 202.637 107.506 202.637Z" fill="#0F191D"/>
<path d="M111.172 222.355C114.368 223.057 117 225.312 120.084 226.408C122.124 227.133 124.431 227.39 126.06 228.816C125.669 227.829 124.742 227.172 123.842 226.61C121.306 225.026 118.591 223.729 115.765 222.753C114.314 222.253 112.74 221.834 111.262 222.247" fill="#33535F"/>
<path d="M106.546 225.202C102.543 225.138 98.3282 221.729 94.3438 221.526C98.5134 220.18 104.484 221.28 106.546 225.202Z" fill="#33535F"/>
<path d="M108.117 215.6C110.15 214.867 112.382 214.832 114.517 215.164C116.651 215.496 118.714 216.18 120.764 216.862C120.559 215.473 119.434 214.429 118.378 213.504C117.582 212.809 116.781 212.109 115.869 211.576C114.956 211.044 113.916 210.683 112.86 210.728C111.587 210.782 110.375 211.438 109.54 212.401C108.705 213.364 108.256 214.333 108.117 215.6Z" fill="#33535F"/>
<path d="M99.8988 211.18C97.3792 209.029 93.5626 209.239 90.25 209.314C95.3419 211.748 100.829 215.086 105.214 218.639C105.349 216.297 103.082 213.898 99.8988 211.18Z" fill="#33535F"/>
<path d="M105.214 218.639C100.829 215.086 95.3419 211.748 90.25 209.314C91.0305 209.296 91.8381 209.271 92.6512 209.271C95.2881 209.271 97.9728 209.536 99.8988 211.18C102.995 213.823 105.224 216.166 105.219 218.447C105.219 218.511 105.218 218.575 105.214 218.639Z" fill="#20353D"/>
<path d="M109.248 208.211C110.515 207.366 111.797 206.561 113.123 205.959C114.449 205.356 115.687 204.396 116.968 203.702C118.628 202.803 120.067 201.553 121.592 200.438C123.116 199.323 124.791 198.316 126.657 198.021C125.135 197.707 123.546 197.878 122.047 198.288C120.549 198.697 119.125 199.337 117.709 199.975C115.744 200.861 113.744 201.768 112.137 203.205C110.53 204.643 109.078 206.062 109.248 208.211Z" fill="#33535F"/>
<path d="M120.013 225.202C120.01 225.206 119.966 225.187 119.886 225.147C119.792 225.098 119.676 225.038 119.537 224.966C119.235 224.805 118.803 224.568 118.258 224.294C117.988 224.152 117.689 224.003 117.364 223.851C117.043 223.692 116.695 223.534 116.325 223.374C115.586 223.059 114.76 222.729 113.861 222.515C112.963 222.295 112.069 222.247 111.293 222.45C110.901 222.546 110.533 222.639 110.205 222.776C109.876 222.909 109.582 223.065 109.326 223.227C108.814 223.549 108.455 223.891 108.223 224.138C107.991 224.387 107.878 224.539 107.868 224.531C107.864 224.528 107.889 224.488 107.94 224.413C107.99 224.338 108.071 224.232 108.181 224.101C108.404 223.84 108.756 223.481 109.272 223.142C109.528 222.972 109.825 222.807 110.16 222.666C110.494 222.521 110.871 222.421 111.262 222.323C112.055 222.106 112.984 222.152 113.893 222.376C114.807 222.594 115.637 222.93 116.378 223.254C116.748 223.418 117.097 223.58 117.416 223.744C117.74 223.902 118.037 224.056 118.304 224.205C118.845 224.491 119.271 224.742 119.564 224.918C119.698 224.999 119.809 225.067 119.9 225.122C119.976 225.171 120.015 225.198 120.013 225.202Z" fill="#17282F"/>
<path d="M103.567 223.219C103.57 223.21 103.659 223.236 103.817 223.292C103.976 223.346 104.2 223.442 104.469 223.576C105.008 223.842 105.716 224.295 106.382 224.932C107.045 225.571 107.527 226.261 107.814 226.789C107.958 227.052 108.063 227.272 108.123 227.429C108.185 227.585 108.215 227.673 108.207 227.677C108.183 227.687 108.034 227.348 107.726 226.84C107.42 226.331 106.935 225.664 106.283 225.035C105.629 224.408 104.942 223.951 104.422 223.665C103.902 223.378 103.557 223.242 103.567 223.219Z" fill="#17282F"/>
<path d="M94.7032 210.979C94.7048 210.975 94.7634 210.992 94.8737 211.029C94.9975 211.074 95.1567 211.131 95.3538 211.201C95.5673 211.279 95.8204 211.373 96.1115 211.48C96.407 211.59 96.7274 211.751 97.0902 211.912C98.5312 212.566 100.449 213.666 102.301 215.232C103.215 216.026 104.041 216.835 104.732 217.625C105.42 218.416 106.002 219.16 106.456 219.81C106.913 220.457 107.26 220.997 107.497 221.37C107.61 221.546 107.7 221.688 107.771 221.799C107.833 221.898 107.864 221.951 107.86 221.954C107.856 221.956 107.817 221.909 107.748 221.815C107.678 221.722 107.576 221.583 107.451 221.401C107.199 221.036 106.84 220.507 106.374 219.869C105.911 219.229 105.323 218.494 104.633 217.712C103.94 216.931 103.116 216.131 102.209 215.34C100.368 213.785 98.4714 212.678 97.0468 212.003C96.6883 211.838 96.3722 211.67 96.0811 211.554C95.7943 211.438 95.5445 211.338 95.3343 211.253C95.1415 211.172 94.9851 211.107 94.8639 211.057C94.7569 211.011 94.7015 210.984 94.7032 210.979Z" fill="#17282F"/>
<path d="M114.124 213.35C114.121 213.359 114.007 213.344 113.805 213.308C113.694 213.288 113.573 213.265 113.437 213.24C113.294 213.213 113.127 213.212 112.945 213.193C112.225 213.141 111.177 213.201 110.194 213.736C109.699 213.987 109.282 214.326 108.942 214.665C108.597 215.002 108.335 215.353 108.138 215.66C107.736 216.275 107.612 216.719 107.587 216.71C107.58 216.708 107.602 216.595 107.669 216.398C107.743 216.204 107.856 215.924 108.052 215.607C108.242 215.288 108.5 214.922 108.849 214.573C109.192 214.22 109.617 213.868 110.128 213.61C111.141 213.057 112.226 213.013 112.954 213.093C113.138 213.118 113.307 213.127 113.451 213.162C113.586 213.196 113.707 213.226 113.817 213.254C114.018 213.307 114.127 213.34 114.124 213.35Z" fill="#17282F"/>
<path d="M118.137 200.87C118.14 200.874 118.087 200.906 117.986 200.963C117.871 201.026 117.722 201.106 117.539 201.206C117.151 201.415 116.592 201.724 115.913 202.124C115.238 202.529 114.441 203.027 113.594 203.632C112.749 204.239 111.842 204.944 111.005 205.802C110.592 206.233 110.211 206.682 109.946 207.172C109.684 207.676 109.434 208.163 109.203 208.63C108.74 209.563 108.363 210.423 108.091 211.162C107.819 211.9 107.65 212.516 107.55 212.944C107.447 213.372 107.41 213.614 107.396 213.612C107.391 213.611 107.397 213.55 107.412 213.435C107.427 213.319 107.451 213.149 107.496 212.932C107.579 212.498 107.735 211.875 107.996 211.128C108.257 210.38 108.627 209.512 109.085 208.572C109.312 208.102 109.561 207.613 109.822 207.108C110.097 206.596 110.484 206.139 110.902 205.702C111.75 204.835 112.665 204.129 113.518 203.525C114.373 202.922 115.178 202.432 115.862 202.037C116.55 201.647 117.117 201.351 117.514 201.156C117.702 201.067 117.854 200.994 117.973 200.937C118.079 200.889 118.135 200.865 118.137 200.87Z" fill="#17282F"/>
<path d="M106.917 212.989C106.907 212.991 106.879 212.87 106.837 212.652C106.791 212.404 106.732 212.095 106.662 211.727C106.51 210.948 106.277 209.875 105.905 208.723C105.538 207.57 105.089 206.567 104.762 205.843C104.607 205.502 104.476 205.215 104.372 204.986C104.281 204.783 104.235 204.669 104.243 204.664C104.252 204.66 104.315 204.766 104.422 204.962C104.528 205.157 104.677 205.442 104.853 205.8C105.205 206.514 105.67 207.517 106.041 208.679C106.415 209.839 106.634 210.923 106.762 211.709C106.824 212.102 106.869 212.421 106.892 212.643C106.917 212.865 106.926 212.987 106.917 212.989Z" fill="#17282F"/>
<path d="M106.631 203.883C106.53 202.371 106.038 200.901 105.329 199.562C103.386 195.888 99.7348 193.165 95.6602 192.351C98.6441 196.798 101.628 201.245 104.612 205.693L105.768 208.074C106.557 206.78 106.731 205.395 106.631 203.883Z" fill="#33535F"/>
<path d="M119.472 233.866H98.6562V230.177H119.472V233.866Z" fill="#844FCF"/>
<path d="M100.211 233.134L101.983 244.582H115.802L117.917 233.134H100.211Z" fill="#844FCF"/>
<path d="M119.457 233.871C119.457 233.911 114.762 233.944 108.971 233.944C103.179 233.944 98.4844 233.911 98.4844 233.871C98.4844 233.83 103.179 233.798 108.971 233.798C114.762 233.798 119.457 233.83 119.457 233.871Z" fill="#17282F"/>
<path d="M196.456 101.869L195.353 99.2495C196.008 97.2035 196.066 94.9348 195.365 92.6998C193.713 87.4292 188.218 84.222 182.813 85.3647C176.569 86.6857 172.797 93.0838 174.725 99.2186C176.36 104.427 181.746 107.626 187.104 106.58C189.763 106.061 191.982 104.623 193.524 102.676L193.521 102.681L196.456 101.869Z" fill="white"/>
<path d="M196.457 101.869C196.461 101.871 196.401 101.891 196.278 101.929C196.141 101.969 195.958 102.024 195.725 102.094C195.213 102.244 194.479 102.457 193.536 102.731L193.472 102.697L193.475 102.661L193.477 102.655L193.565 102.708C192.736 103.768 191.413 105.061 189.438 105.937C188.457 106.376 187.324 106.69 186.086 106.824C184.848 106.947 183.505 106.854 182.159 106.488C180.815 106.115 179.474 105.46 178.274 104.517C177.078 103.576 176.005 102.353 175.28 100.881C174.544 99.4182 174.123 97.7394 174.103 96.0095C174.072 94.2774 174.51 92.5046 175.343 90.9078C176.179 89.2871 177.405 87.9069 178.859 86.9331C180.304 85.944 181.948 85.3477 183.584 85.1174C185.224 84.8773 186.856 85.0821 188.319 85.5448C189.786 86.013 191.09 86.7647 192.157 87.6766C193.223 88.5935 194.055 89.6629 194.648 90.7633C194.783 91.0452 194.916 91.3227 195.046 91.5954C195.17 91.8702 195.257 92.1559 195.361 92.428C195.56 92.9755 195.685 93.5252 195.78 94.0542C196.152 96.186 195.815 98.0011 195.402 99.265L195.4 99.2303C195.743 100.076 196.01 100.736 196.198 101.2C196.282 101.412 196.348 101.578 196.397 101.703C196.441 101.815 196.461 101.871 196.457 101.869C196.453 101.867 196.425 101.807 196.373 101.692C196.317 101.567 196.242 101.4 196.147 101.187C195.95 100.736 195.668 100.093 195.307 99.2694L195.305 99.2341C195.694 97.9745 196.005 96.1789 195.619 94.0824C195.521 93.5626 195.393 93.0222 195.193 92.485C195.089 92.2184 195.002 91.9381 194.878 91.6687C194.748 91.4015 194.616 91.1299 194.481 90.854C193.891 89.777 193.069 88.7325 192.02 87.838C190.968 86.9488 189.686 86.2178 188.249 85.7648C186.815 85.3167 185.219 85.1206 183.616 85.3591C182.018 85.5883 180.412 86.1743 179.002 87.1411C177.582 88.0938 176.386 89.4429 175.57 91.0256C174.756 92.5855 174.327 94.3165 174.356 96.0078C174.374 97.6975 174.782 99.34 175.498 100.771C176.203 102.212 177.249 103.41 178.417 104.336C179.589 105.262 180.9 105.91 182.216 106.282C183.535 106.648 184.851 106.746 186.068 106.633C187.284 106.51 188.402 106.21 189.371 105.785C191.324 104.941 192.645 103.68 193.484 102.644L193.557 102.635L193.572 102.697L193.57 102.702L193.508 102.631C194.446 102.386 195.174 102.195 195.682 102.061C195.924 102 196.113 101.951 196.254 101.916C196.385 101.883 196.453 101.867 196.457 101.869Z" fill="#17282F"/>
<path d="M182.532 96.2453C182.532 96.8992 182.001 97.4293 181.348 97.4293C180.694 97.4293 180.164 96.8992 180.164 96.2453C180.164 95.5919 180.694 95.0618 181.348 95.0618C182.001 95.0618 182.532 95.5919 182.532 96.2453Z" fill="#17282F"/>
<path d="M186.515 96.2453C186.515 96.8992 185.986 97.4293 185.332 97.4293C184.678 97.4293 184.148 96.8992 184.148 96.2453C184.148 95.5919 184.678 95.0618 185.332 95.0618C185.986 95.0618 186.515 95.5919 186.515 96.2453Z" fill="#17282F"/>
<path d="M190.395 96.2452C190.395 96.8991 189.865 97.4292 189.211 97.4292C188.557 97.4292 188.027 96.8991 188.027 96.2452C188.027 95.5918 188.557 95.0617 189.211 95.0617C189.865 95.0617 190.395 95.5918 190.395 96.2452Z" fill="#17282F"/>
<path d="M52.7072 79.5461L53.2223 76.5246C52.3109 74.9283 51.815 73.0686 51.8808 71.0965C52.0697 65.4256 56.8199 60.9817 62.4908 61.1707C68.1617 61.3597 72.6056 66.11 72.4166 71.7809C72.2276 77.4518 67.4773 81.8957 61.807 81.7067C59.4389 81.628 57.2865 80.7519 55.5946 79.3473L55.5979 79.3517L52.7072 79.5461Z" fill="white"/>
<path d="M52.7144 79.5456C52.7115 79.5483 52.7721 79.5467 52.8943 79.5413C53.0278 79.5348 53.2098 79.5255 53.4438 79.5141C53.9471 79.4864 54.6723 79.4462 55.6076 79.3941L55.6478 79.349L55.6402 79.3262L55.6369 79.3218L55.5739 79.38C56.5576 80.205 58.0523 81.1424 60.0684 81.5688C60.5703 81.6726 61.1003 81.7437 61.6538 81.7719C61.9303 81.7904 62.2127 81.7703 62.4995 81.7714C62.6429 81.7665 62.7879 81.7736 62.9334 81.7589C63.0785 81.7421 63.2246 81.7252 63.3717 81.7078C64.5487 81.5759 65.7854 81.2277 66.9651 80.6102C68.1437 79.9953 69.2631 79.1122 70.1843 77.9846C71.1055 76.8598 71.8257 75.4889 72.2135 73.9736C72.6067 72.4604 72.63 70.8049 72.2786 69.1934C72.1222 68.3809 71.8083 67.5999 71.4585 66.8335C71.0615 66.0905 70.6204 65.3529 70.0453 64.7109C69.5048 64.0488 68.8558 63.4975 68.1888 62.994C67.4958 62.5286 66.781 62.0962 66.0114 61.8127C64.4922 61.2055 62.8677 60.9622 61.3225 61.1007C59.7762 61.2288 58.3146 61.7046 57.0594 62.4189C55.8015 63.1325 54.7495 64.0798 53.9467 65.1291C52.33 67.2414 51.7483 69.6953 51.818 71.7282C51.8823 73.7829 52.5396 75.4259 53.1909 76.5459L53.1858 76.5171C53.0301 77.4985 52.9096 78.2573 52.8264 78.7825C52.7889 79.028 52.7598 79.2181 52.7388 79.3572C52.7197 79.4848 52.7115 79.5483 52.7144 79.5456C52.7144 79.5456 52.7314 79.4745 52.7566 79.3425C52.7831 79.2018 52.8194 79.009 52.8664 78.7603C52.9605 78.2437 53.0968 77.4969 53.2728 76.5318L53.2675 76.5024C52.6374 75.3825 52.0049 73.752 51.9564 71.7244C51.9029 69.7176 52.4902 67.3066 54.0878 65.2377C54.8809 64.2096 55.9177 63.283 57.1545 62.5867C58.3879 61.8893 59.8224 61.4265 61.3388 61.3033C62.8541 61.1702 64.4455 61.4119 65.9332 62.0077C66.687 62.2858 67.3866 62.7105 68.0655 63.1668C68.7178 63.6605 69.3544 64.2004 69.8834 64.8489C70.4472 65.4773 70.879 66.2002 71.2684 66.9274C71.6111 67.6781 71.9202 68.4428 72.0733 69.239C72.4193 70.8169 72.3992 72.4398 72.0163 73.9242C71.6388 75.4102 70.9365 76.7561 70.0349 77.863C69.1344 78.9726 68.0384 79.8443 66.8826 80.4532C65.7257 81.0653 64.5112 81.4135 63.3533 81.5503C63.2083 81.5677 63.0643 81.5856 62.9215 81.603C62.7786 81.6182 62.6358 81.6123 62.4946 81.6177C62.2121 81.6182 61.9335 81.6405 61.6609 81.6237C61.1156 81.5992 60.5914 81.533 60.0955 81.4347C58.1039 81.0284 56.6162 80.1181 55.6293 79.3137L55.5685 79.3186L55.5663 79.3718L55.5696 79.3762L55.6022 79.3083C54.6805 79.3816 53.9656 79.4381 53.4697 79.4777C53.2315 79.4978 53.0462 79.5136 52.9105 79.525C52.7836 79.5364 52.7144 79.5456 52.7144 79.5456Z" fill="#17282F"/>
<path d="M57.7109 72.1443L58.845 71.0102L61.0322 72.9547L65.3252 68.8236L66.3783 69.9571L60.8698 75.1414L57.7109 72.1443Z" fill="#844FCF"/>
<path d="M239.822 190.581C239.835 190.454 239.847 190.326 239.853 190.199C239.962 187.755 238.969 185.413 238.013 183.159C235.452 177.119 232.973 170.711 233.693 164.192C234.645 155.572 240.983 148.443 243.246 140.105C243.512 139.124 244.413 138.449 245.433 138.449C246.963 138.449 248.073 139.931 247.604 141.384C245.084 149.181 239.334 156.016 238.432 164.192C237.712 170.711 240.19 177.119 242.752 183.159C243.708 185.413 244.7 187.755 244.591 190.199C244.482 192.642 242.91 195.211 240.489 195.603H240.254H235.75H204.468C203.213 195.603 202.195 194.589 202.195 193.337V192.847C202.195 191.595 203.213 190.581 204.468 190.581H239.822Z" fill="#33535F"/>
<path d="M247.064 244.581H194.793C194.063 244.581 193.384 244.223 192.93 243.597C192.409 242.879 192.267 241.935 192.548 241.071L207.427 195.476L208.203 195.73L193.324 241.324C193.124 241.94 193.223 242.611 193.591 243.117C193.889 243.529 194.328 243.765 194.793 243.765H247.064C247.524 243.765 247.943 243.546 248.245 243.148C248.611 242.665 248.728 242.014 248.558 241.405L235.771 195.713L236.557 195.493L249.344 241.186C249.583 242.038 249.415 242.956 248.895 243.641C248.442 244.238 247.774 244.581 247.064 244.581Z" fill="#DADBD8"/>
<path d="M173.758 161.82C173.758 161.82 175.662 157.195 177.542 156.216C179.422 155.238 181.817 154.612 181.817 154.612H190.189L190.272 160.032C190.272 160.032 189.063 161.244 187.406 161.014C185.749 160.785 181.612 159.763 181.612 159.763L179.569 159.874L177.687 162.288C177.687 162.288 176.16 162.752 176.697 161.307C177.235 159.861 177.475 159.224 177.475 159.224C177.475 159.224 175.667 162.037 174.974 162.166C174.28 162.295 173.758 161.82 173.758 161.82Z" fill="#6F3530"/>
<path d="M208.357 144.374L201.696 153.956L190.188 154.612L190.031 159.869L198.702 161.576C203.206 162.462 207.857 161.081 211.147 157.881L212.417 146.291L208.357 144.374Z" fill="#F9A78D"/>
<path d="M203.188 223.85L210.931 231.423C210.931 231.423 205.34 242.217 206.627 243.762L222.791 228.552L211.241 216.234L203.188 223.85Z" fill="#17282F"/>
<path d="M215.301 226.059C215.69 225.845 216.221 225.973 216.431 226.34C216.64 226.707 216.484 227.251 216.098 227.472C215.712 227.692 215.07 227.558 214.903 227.168C214.737 226.778 214.956 226.146 215.379 226.022" fill="#DADBD8"/>
<path d="M222.793 228.552L221.577 227.358L206.533 242.388C206.533 242.388 206.094 243.36 206.628 243.762L222.793 228.552Z" fill="#33535F"/>
<path d="M210.593 231.592C210.666 231.664 211.093 231.327 211.708 231.201C212.321 231.059 212.827 231.193 212.872 231.095C212.93 231.012 212.391 230.678 211.648 230.843C210.904 231.002 210.511 231.54 210.593 231.592Z" fill="white"/>
<path d="M209.525 233.849C209.576 233.938 210.038 233.743 210.604 233.805C211.174 233.852 211.564 234.129 211.64 234.051C211.725 233.993 211.366 233.505 210.659 233.441C209.954 233.37 209.46 233.776 209.525 233.849Z" fill="white"/>
<path d="M210.376 236.669C210.463 236.618 210.22 236.142 209.631 235.925C209.043 235.704 208.518 235.893 208.544 235.987C208.557 236.09 209.004 236.084 209.485 236.269C209.97 236.443 210.291 236.736 210.376 236.669Z" fill="white"/>
<path d="M209.038 229.661C209.136 229.697 209.4 229.254 209.874 228.863C210.34 228.462 210.821 228.277 210.801 228.175C210.796 228.077 210.196 228.121 209.644 228.59C209.09 229.053 208.944 229.639 209.038 229.661Z" fill="white"/>
<path d="M204.092 169.876C202.677 169.876 168.183 179.924 164.45 183.32C160.718 186.717 157.926 228.748 157.926 228.748L172.389 233.707C172.389 233.707 175.437 213.179 177.284 206.55C178.753 201.28 178.416 196.358 178.416 196.358L207.053 183.886L204.092 169.876Z" fill="#17282F"/>
<path d="M204.968 172.099C204.325 172.382 179.263 183.082 176.908 190.25C174.989 196.092 177.22 201.236 179.901 205.256C182.928 209.795 205.126 230.05 205.126 230.05L217.654 221.092L196.175 198.91C196.175 198.91 207.445 191.953 207.831 191.953C208.217 191.953 219.932 191.179 223.646 190.758C227.114 190.366 229.011 185.393 229.011 185.393L232.104 171.136L208.86 165.772L204.968 172.099Z" fill="#17282F"/>
<path d="M204.971 172.099C204.971 172.099 205.051 171.956 205.216 171.682C205.383 171.406 205.629 171 205.952 170.466C206.606 169.395 207.573 167.812 208.831 165.752L208.845 165.728L208.872 165.734C214.056 166.923 222.042 168.753 232.123 171.064L232.195 171.08L232.179 171.152C231.253 175.438 230.213 180.253 229.099 185.412L229.097 185.419L229.095 185.424C228.565 186.7 227.849 187.928 226.888 188.999C226.406 189.531 225.838 190.003 225.188 190.351C225.027 190.441 224.864 190.526 224.685 190.582C224.509 190.639 224.342 190.729 224.155 190.752C223.972 190.786 223.787 190.83 223.604 190.856L223.055 190.914C220.121 191.204 217.086 191.421 213.965 191.649C212.403 191.755 210.821 191.863 209.218 191.972C208.817 191.996 208.414 192.021 208.01 192.045L207.855 192.052L207.81 192.064L207.751 192.09C207.664 192.127 207.574 192.178 207.486 192.223L206.956 192.516C206.251 192.917 205.547 193.334 204.841 193.755C202.018 195.442 199.15 197.201 196.233 198.998L196.253 198.838C201.601 204.361 207.237 210.18 213.026 216.157C214.607 217.791 216.178 219.412 217.733 221.018L217.818 221.107L217.718 221.178C213.446 224.233 209.261 227.224 205.189 230.135L205.12 230.184L205.058 230.127C200.572 226.016 196.265 221.992 192.175 218.083C190.131 216.128 188.143 214.2 186.23 212.287C184.318 210.374 182.462 208.496 180.79 206.539C180.571 206.303 180.39 206.034 180.192 205.782C179.997 205.527 179.798 205.276 179.634 205.004C179.287 204.473 178.957 203.936 178.653 203.39C178.039 202.3 177.51 201.181 177.096 200.038C176.685 198.897 176.384 197.732 176.233 196.565C176.084 195.397 176.082 194.233 176.209 193.105C176.331 191.975 176.592 190.886 176.99 189.862C177.43 188.847 178.127 188.01 178.838 187.246C180.299 185.741 181.9 184.526 183.461 183.439C186.597 181.276 189.591 179.6 192.231 178.185C194.875 176.775 197.182 175.646 199.073 174.749C200.963 173.853 202.438 173.192 203.44 172.751C203.939 172.535 204.32 172.37 204.58 172.258C204.838 172.149 204.971 172.099 204.971 172.099C204.971 172.099 204.842 172.161 204.588 172.275C204.33 172.392 203.951 172.562 203.455 172.785C202.459 173.237 200.989 173.909 199.104 174.815C197.219 175.722 194.918 176.859 192.281 178.278C189.648 179.701 186.661 181.384 183.538 183.549C181.984 184.637 180.39 185.853 178.946 187.348C178.243 188.105 177.556 188.937 177.132 189.922C176.746 190.92 176.486 192.009 176.368 193.123C176.244 194.238 176.249 195.389 176.397 196.543C176.549 197.697 176.847 198.85 177.258 199.98C177.669 201.112 178.195 202.221 178.807 203.303C179.11 203.845 179.439 204.379 179.784 204.907C179.948 205.177 180.144 205.424 180.337 205.675C180.533 205.923 180.709 206.187 180.929 206.422C182.594 208.367 184.453 210.244 186.364 212.153C188.277 214.062 190.267 215.987 192.312 217.94C196.403 221.845 200.712 225.865 205.199 229.973L205.068 229.966C209.139 227.054 213.323 224.061 217.595 221.006L217.58 221.166C216.025 219.56 214.455 217.939 212.873 216.305C207.085 210.326 201.452 204.507 196.104 198.983L196.014 198.89L196.123 198.822C199.043 197.026 201.912 195.269 204.738 193.582C205.445 193.161 206.149 192.744 206.857 192.342L207.393 192.047C207.485 192 207.572 191.951 207.671 191.908L207.751 191.874L207.853 191.853L208.001 191.847C208.404 191.823 208.806 191.798 209.205 191.775C210.808 191.667 212.39 191.56 213.951 191.455C217.072 191.23 220.108 191.016 223.036 190.73C223.777 190.683 224.475 190.535 225.103 190.19C225.729 189.856 226.283 189.398 226.756 188.877C227.698 187.831 228.412 186.611 228.932 185.362L228.929 185.375C230.052 180.218 231.1 175.405 232.033 171.121L232.09 171.209C222.016 168.868 214.035 167.013 208.854 165.81L208.896 165.793C207.622 167.847 206.643 169.426 205.981 170.494C205.651 171.022 205.4 171.424 205.23 171.697C205.06 171.966 204.971 172.099 204.971 172.099Z" fill="#33535F"/>
<path d="M207.246 103.545C206.117 103.775 204.875 103.04 204.533 101.94C204.191 100.84 204.797 99.5306 205.857 99.0798C205.085 98.415 204.803 97.2391 205.191 96.2968C205.578 95.3544 206.606 94.7162 207.622 94.7874C207.576 93.7826 208.091 92.7696 208.93 92.2145C209.768 91.6589 210.901 91.5807 211.809 92.0152C212.833 90.9691 214.615 90.7779 215.837 91.5818C216.795 91.3173 217.901 91.7425 218.435 92.5806C218.968 93.4187 218.885 94.6016 218.24 95.3566" fill="#17282F"/>
<path d="M216.546 93.8481L216.032 93.8938C210.855 94.3516 206.898 98.7065 206.938 103.903C206.975 108.737 207.078 114.076 207.338 116.647C207.875 121.972 213.28 122.33 213.28 122.33L213.395 128.774L226.297 127.229L225.388 103.901C225.376 98.3236 222.12 93.6819 216.546 93.8481Z" fill="#F9A78D"/>
<path d="M213.273 122.33C213.273 122.33 216.658 122.23 220.04 119.664C220.04 119.664 218.667 123.743 213.305 123.733L213.273 122.33Z" fill="#F57F62"/>
<path d="M208.86 108.847C208.882 109.25 209.241 109.565 209.663 109.55C210.083 109.535 210.408 109.197 210.387 108.794C210.365 108.391 210.006 108.076 209.585 108.091C209.164 108.105 208.839 108.444 208.86 108.847Z" fill="#17282F"/>
<path d="M208.312 106.41C208.416 106.501 208.954 106.023 209.774 105.953C210.591 105.871 211.23 106.239 211.31 106.131C211.35 106.083 211.238 105.912 210.959 105.745C210.685 105.578 210.229 105.432 209.719 105.479C209.209 105.527 208.796 105.753 208.566 105.967C208.331 106.182 208.262 106.37 208.312 106.41Z" fill="#17282F"/>
<path d="M216.22 108.422C216.241 108.826 216.6 109.14 217.022 109.126C217.442 109.111 217.767 108.773 217.746 108.37C217.724 107.967 217.365 107.652 216.944 107.666C216.523 107.68 216.199 108.019 216.22 108.422Z" fill="#17282F"/>
<path d="M216.379 105.851C216.481 105.942 217.021 105.464 217.84 105.394C218.657 105.312 219.296 105.68 219.376 105.572C219.416 105.524 219.305 105.353 219.025 105.186C218.751 105.019 218.295 104.873 217.785 104.92C217.275 104.968 216.862 105.194 216.632 105.408C216.398 105.624 216.328 105.811 216.379 105.851Z" fill="#17282F"/>
<path d="M213.94 112.189C213.939 112.142 213.422 112.099 212.588 112.067C212.377 112.063 212.175 112.039 212.127 111.9C212.065 111.753 212.132 111.52 212.212 111.267C212.364 110.744 212.523 110.195 212.69 109.62C213.348 107.276 213.805 105.356 213.711 105.331C213.616 105.305 213.006 107.184 212.347 109.527C212.19 110.105 212.039 110.656 211.896 111.182C211.838 111.427 211.726 111.709 211.86 112.013C211.93 112.164 212.094 112.264 212.231 112.288C212.369 112.318 212.487 112.309 212.591 112.306C213.425 112.277 213.94 112.236 213.94 112.189Z" fill="#17282F"/>
<path d="M215.389 102.762C215.516 102.96 216.198 102.673 217.06 102.568C217.919 102.444 218.662 102.543 218.722 102.32C218.747 102.214 218.577 102.041 218.251 101.902C217.928 101.764 217.446 101.676 216.93 101.745C216.414 101.813 215.979 102.022 215.712 102.239C215.442 102.457 215.333 102.667 215.389 102.762Z" fill="#17282F"/>
<path d="M207.978 103.035C208.167 103.206 208.825 102.953 209.638 102.872C210.448 102.767 211.151 102.865 211.292 102.656C211.353 102.556 211.228 102.379 210.912 102.229C210.6 102.08 210.091 101.98 209.534 102.043C208.976 102.108 208.507 102.319 208.241 102.535C207.971 102.752 207.893 102.952 207.978 103.035Z" fill="#17282F"/>
<path d="M207.233 101.413C207.233 101.413 208.344 97.9505 209.885 97.0293C211.75 95.9137 212.778 97.9787 214.589 97.2954C216.401 96.6122 218.181 95.5427 220.206 96.8104C222.422 98.1981 221.547 99.3865 221.884 101.74C223.252 111.284 225.243 113.841 225.342 109.28C225.353 108.78 226.691 108.265 226.71 106.157C226.734 103.422 226.547 100.121 225.772 98.2503C225.119 96.6741 224.095 95.6351 222.328 94.5466C219.538 92.8281 215.939 93.104 213.52 93.5657C211.1 94.0268 206.641 97.2525 207.233 101.413Z" fill="#17282F"/>
<path d="M224.986 109.165C224.947 108.339 225.598 107.627 226.425 107.633C227.427 107.639 228.584 108.106 228.699 110.166C228.905 113.821 225.194 113.274 225.182 113.17C225.173 113.098 225.058 110.696 224.986 109.165Z" fill="#F9A78D"/>
<path d="M225.901 111.749C225.917 111.737 225.967 111.79 226.078 111.833C226.186 111.876 226.368 111.898 226.555 111.816C226.933 111.653 227.223 111.022 227.204 110.362C227.194 110.029 227.107 109.716 226.974 109.461C226.847 109.2 226.664 109.023 226.468 108.999C226.272 108.965 226.141 109.089 226.102 109.195C226.059 109.3 226.086 109.371 226.067 109.379C226.057 109.389 225.985 109.322 226.006 109.169C226.017 109.096 226.055 109.007 226.137 108.932C226.221 108.856 226.348 108.812 226.484 108.819C226.766 108.823 227.035 109.068 227.181 109.348C227.342 109.629 227.448 109.981 227.459 110.354C227.477 111.092 227.138 111.803 226.619 111.985C226.366 112.067 226.147 112.001 226.031 111.921C225.913 111.837 225.889 111.757 225.901 111.749Z" fill="#6F3530"/>
<path d="M224.297 102.11C223.852 102.475 223.381 102.852 222.816 102.959C222.251 103.066 221.57 102.796 221.423 102.239C221.358 101.99 221.394 101.69 221.209 101.509C220.99 101.292 220.629 101.398 220.327 101.457C219.277 101.664 217.935 100.603 217.575 99.5959C217.34 100.024 216.759 100.199 216.327 99.9712C215.894 99.7436 215.732 99.6068 215.379 99.2684C215.027 98.93 214.549 98.6422 214.073 98.753C213.807 98.8154 213.569 98.9979 213.296 98.9979C212.814 98.9979 212.531 98.458 212.416 97.9893C212.301 97.5206 212.196 96.9715 211.768 96.7493C211.372 96.5429 210.897 96.7243 210.462 96.8281C210.027 96.9324 209.449 96.8791 209.298 96.4582C209.219 96.2377 209.295 95.9911 209.403 95.7825C209.892 94.8391 211.094 94.3329 212.11 94.643C212.36 93.4069 213.403 92.37 214.641 92.1283C215.879 91.8855 217.236 92.4526 217.933 93.503C218.641 92.7361 219.735 92.3439 220.769 92.4857C221.804 92.6269 222.751 93.2988 223.228 94.2281C224.094 93.9163 225.135 94.17 225.76 94.8445C226.386 95.5197 226.56 96.5766 226.184 97.4163C226.872 97.733 227.49 98.3342 227.571 99.0875C227.651 99.8403 226.982 100.657 226.237 100.523C226.583 101.084 226.414 101.903 225.874 102.281C225.334 102.659 224.507 102.539 224.098 102.022" fill="#17282F"/>
<path d="M211.93 95.7397L211.936 95.8065C211.945 95.85 211.954 95.9157 211.976 95.9988C212.025 96.1644 212.115 96.4078 212.303 96.6777C212.492 96.9438 212.776 97.2453 213.188 97.468C213.591 97.6945 214.131 97.846 214.718 97.7618L214.649 97.6863C214.564 98.0084 214.627 98.3794 214.812 98.6862C214.987 98.9991 215.244 99.2674 215.514 99.5275C215.652 99.6514 215.775 99.8007 215.959 99.9094C216.138 100.014 216.346 100.065 216.556 100.073C216.971 100.089 217.424 99.9208 217.691 99.5487L217.552 99.5216C217.709 100.238 218.185 100.927 218.879 101.311C219.247 101.53 219.689 101.645 220.11 101.597C220.531 101.556 220.913 101.397 221.266 101.234L221.165 101.199C221.401 101.635 221.736 101.995 222.127 102.248C222.511 102.501 223.004 102.626 223.427 102.482C224.271 102.224 224.779 101.458 224.834 100.774L224.755 100.82C225.202 101.015 225.662 100.996 226.024 100.893C226.39 100.792 226.668 100.604 226.863 100.426C227.058 100.245 227.166 100.067 227.23 99.9447C227.288 99.8187 227.311 99.7497 227.306 99.7481C227.287 99.735 227.21 100.036 226.821 100.38C226.627 100.545 226.354 100.719 226.001 100.807C225.652 100.899 225.216 100.906 224.802 100.718L224.73 100.685L224.723 100.764C224.662 101.402 224.172 102.118 223.389 102.349C223.005 102.475 222.571 102.363 222.207 102.123C221.842 101.885 221.522 101.538 221.303 101.128L221.268 101.063L221.201 101.093C220.852 101.253 220.485 101.402 220.095 101.439C219.705 101.482 219.309 101.38 218.957 101.172C218.302 100.809 217.855 100.165 217.703 99.4868L217.665 99.3168L217.564 99.4602C217.338 99.7779 216.934 99.9365 216.56 99.9224C216.373 99.9164 216.188 99.8719 216.032 99.7823C215.88 99.6965 215.752 99.5493 215.613 99.4244C215.344 99.1691 215.094 98.9111 214.927 98.6205C214.753 98.3337 214.696 98.0073 214.768 97.7167L214.79 97.6271L214.699 97.6412C214.146 97.7281 213.628 97.5934 213.234 97.3822C212.833 97.1752 212.551 96.8901 212.359 96.6375C211.978 96.1161 211.955 95.7288 211.93 95.7397Z" fill="#33535F"/>
<path d="M214.008 114.812C214.017 114.675 214.93 114.783 215.672 114.08C216.416 113.377 216.43 112.392 216.559 112.4C216.618 112.394 216.71 112.639 216.672 113.05C216.637 113.455 216.437 114.028 215.983 114.458C215.528 114.887 214.974 115.028 214.595 115.014C214.209 115.003 213.995 114.874 214.008 114.812Z" fill="#17282F"/>
<path d="M161.218 223.339L159.534 235.031C159.534 235.031 146.432 237.056 145.898 239.183L169.696 243.627L173.108 225.528L161.218 223.339Z" fill="#17282F"/>
<path d="M167.07 235.429C167.509 235.634 167.737 236.184 167.549 236.605C167.362 237.026 166.781 237.239 166.339 237.041C165.897 236.843 165.601 236.19 165.837 235.793C166.074 235.396 166.771 235.182 167.153 235.474" fill="#DADBD8"/>
<path d="M169.696 243.627L169.964 241.788L147.048 238.215C147.048 238.215 145.908 238.454 145.898 239.183L169.696 243.627Z" fill="#33535F"/>
<path d="M159.172 234.845C159.156 234.956 159.728 235.114 160.235 235.575C160.754 236.023 160.962 236.555 161.076 236.531C161.187 236.53 161.135 235.84 160.511 235.292C159.892 234.739 159.165 234.739 159.172 234.845Z" fill="white"/>
<path d="M156.491 235.357C156.445 235.459 156.915 235.74 157.224 236.279C157.549 236.81 157.557 237.332 157.674 237.349C157.78 237.386 157.978 236.757 157.58 236.093C157.188 235.426 156.513 235.252 156.491 235.357Z" fill="white"/>
<path d="M154.561 237.921C154.662 237.964 154.925 237.445 154.737 236.786C154.553 236.126 154.049 235.786 153.983 235.869C153.901 235.947 154.194 236.337 154.34 236.879C154.499 237.418 154.447 237.889 154.561 237.921Z" fill="white"/>
<path d="M159.865 232.227C159.896 232.337 160.456 232.285 161.105 232.449C161.758 232.602 162.231 232.906 162.308 232.823C162.39 232.756 161.966 232.255 161.199 232.071C160.433 231.882 159.824 232.13 159.865 232.227Z" fill="white"/>
<path d="M212.812 129.604L213.3 127.391L226.298 120.937L227.432 122.706C227.432 122.706 232.296 126.665 234.158 130.1C236.021 133.535 233.811 161.667 233.501 165.772C232.875 174.045 229.783 184.873 229.783 184.873C229.783 184.873 225.613 181.97 213.342 176.931C201.071 171.893 200.414 169.613 200.414 169.613L207.645 160.443L212.812 129.604Z" fill="#844FCF"/>
<path d="M213.002 130.378C212.929 130.786 207.055 144.894 207.055 144.894C207.055 144.894 210.107 146.598 210.532 146.683C210.958 146.768 213.002 130.378 213.002 130.378Z" fill="#844FCF"/>
<path d="M212.414 132.691C212.472 132.701 211.95 136.286 211.25 140.698C210.548 145.111 209.933 148.68 209.876 148.671C209.817 148.662 210.338 145.078 211.039 140.664C211.74 136.252 212.355 132.682 212.414 132.691Z" fill="#17282F"/>
<path d="M171.18 160.914C171.18 160.914 174.681 155.748 176.767 154.841C178.854 153.934 181.465 153.443 181.465 153.443L190.268 154.62L190.112 159.877C190.112 159.877 188.726 161.084 186.969 160.715C185.212 160.346 180.859 158.942 180.859 158.942L178.665 158.909L176.469 161.353C176.469 161.353 174.799 161.736 175.482 160.228C176.166 158.721 176.471 158.056 176.471 158.056C176.471 158.056 174.325 160.933 173.573 161.02C172.821 161.106 171.18 160.914 171.18 160.914Z" fill="#F9A78D"/>
<path d="M217.189 140.224L211.085 154.408L190.188 154.612L190.031 159.869C190.031 159.869 210.183 166.974 215.548 165.594C220.915 164.214 229.814 145.238 229.814 145.238L217.189 140.224Z" fill="#F9A78D"/>
<path d="M222.127 128.256C221.556 128.774 219.668 130.992 217.652 135.814C215.637 140.636 212.809 146.27 212.809 146.27L227.215 152.013C227.215 152.013 230.5 144.457 232.024 141.095C233.184 138.535 233.997 133.5 232.939 131.063C231.882 128.627 227.144 123.707 222.127 128.256Z" fill="#844FCF"/>
<path d="M222.126 128.256C222.126 128.256 222.168 128.211 222.258 128.13C222.35 128.052 222.478 127.925 222.665 127.779C223.033 127.487 223.605 127.072 224.441 126.73C225.273 126.405 226.413 126.188 227.673 126.49C228.93 126.773 230.238 127.545 231.365 128.697C231.927 129.275 232.456 129.945 232.87 130.729C233.275 131.526 233.449 132.452 233.497 133.396C233.588 135.293 233.318 137.32 232.747 139.37C232.47 140.402 231.997 141.399 231.555 142.41C231.109 143.426 230.653 144.463 230.189 145.518C229.26 147.63 228.298 149.816 227.313 152.056L227.271 152.15L227.176 152.112C227.11 152.085 227.038 152.057 226.967 152.028C221.865 149.991 217.032 148.061 212.772 146.359L212.676 146.321L212.722 146.227C214.068 143.53 215.26 141.018 216.281 138.766C217.309 136.52 218.085 134.489 218.937 132.907C219.763 131.315 220.543 130.126 221.134 129.361C221.428 128.977 221.674 128.697 221.847 128.515C222.022 128.335 222.126 128.256 222.126 128.256L222.062 128.329C222.013 128.381 221.95 128.45 221.87 128.537C221.705 128.724 221.469 129.009 221.183 129.397C220.609 130.171 219.848 131.365 219.039 132.959C218.206 134.542 217.446 136.575 216.426 138.831C215.416 141.091 214.234 143.609 212.894 146.313L212.844 146.181C217.106 147.877 221.94 149.8 227.046 151.831C227.117 151.86 227.188 151.888 227.254 151.914L227.118 151.97C228.105 149.731 229.069 147.545 229.999 145.434C230.465 144.378 230.922 143.342 231.371 142.327C231.818 141.307 232.283 140.335 232.559 139.316C233.13 137.289 233.403 135.275 233.321 133.406C233.278 132.473 233.111 131.573 232.724 130.804C232.325 130.038 231.807 129.373 231.258 128.802C230.154 127.661 228.874 126.893 227.646 126.605C226.415 126.298 225.297 126.498 224.471 126.807C223.642 127.133 223.066 127.533 222.691 127.813C222.501 127.952 222.369 128.073 222.272 128.146C222.178 128.222 222.126 128.256 222.126 128.256Z" fill="#17282F"/>
<path d="M180.421 156.098C180.425 156.166 179.338 156.07 178.192 156.662C177.036 157.234 176.468 158.167 176.417 158.122C176.396 158.11 176.503 157.862 176.776 157.524C177.047 157.186 177.502 156.775 178.096 156.473C178.692 156.173 179.293 156.05 179.725 156.033C180.159 156.014 180.423 156.075 180.421 156.098Z" fill="#6F3530"/>
<path d="M214.331 146.874C214.335 146.876 214.32 146.926 214.284 147.02C214.241 147.13 214.188 147.267 214.123 147.434C213.966 147.815 213.752 148.337 213.484 148.987C212.913 150.336 212.118 152.218 211.177 154.446L211.153 154.503L211.09 154.503C209.189 154.525 207.028 154.55 204.743 154.576C200.734 154.603 197.107 154.627 194.453 154.645C193.155 154.644 192.096 154.642 191.335 154.642C190.984 154.637 190.702 154.633 190.487 154.63C190.294 154.625 190.191 154.619 190.191 154.611C190.191 154.604 190.293 154.596 190.487 154.587C190.701 154.58 190.983 154.571 191.334 154.559C192.095 154.543 193.154 154.521 194.452 154.495C197.106 154.461 200.733 154.414 204.74 154.363C207.026 154.345 209.187 154.327 211.088 154.312L211.001 154.37C211.971 152.155 212.791 150.284 213.379 148.942C213.667 148.3 213.898 147.786 214.067 147.411C214.144 147.248 214.206 147.115 214.256 147.008C214.301 146.917 214.326 146.872 214.331 146.874Z" fill="#6F3530"/>
<path d="M29.4206 244.478H25.3984V165.772H29.4206V244.478Z" fill="#33535F"/>
<path d="M194.53 244.487H190.508V166.327H194.53V244.487Z" fill="#33535F"/>
<path d="M15.3516 169.745H198.519V164.996H15.3516V169.745Z" fill="#33535F"/>
<path d="M196.76 169.746C196.76 169.805 175.385 169.852 149.025 169.852C122.655 169.852 101.285 169.805 101.285 169.746C101.285 169.687 122.655 169.64 149.025 169.64C175.385 169.64 196.76 169.687 196.76 169.746Z" fill="#17282F"/>
<path d="M144.028 137.215C144.51 137.123 144.975 137.441 145.065 137.922L150.022 164.19H174.125C174.486 164.19 174.778 164.482 174.778 164.842C174.778 165.203 174.486 165.495 174.125 165.495H148.563V165.39L148.446 165.412L143.32 138.252C143.229 137.77 143.546 137.305 144.028 137.215Z" fill="#17282F"/>
<path d="M23.2331 75.9235C25.5268 72.5479 28.8223 70.428 32.8808 69.9984C35.1706 69.7562 36.1621 70.1483 37.8532 70.4465C39.5444 70.7452 41.1133 71.498 42.2231 72.8086C43.5413 74.3652 44.69 76.1375 45.0913 78.1373C45.5034 80.1914 45.5258 82.2353 45.2806 83.9429C44.9825 86.0171 43.8655 89.2466 42.7904 91.045L39.3089 91.7864C36.3936 92.1465 33.4371 92.5066 30.5287 92.0938C27.6204 91.6804 24.7155 90.3943 22.9673 88.0333C20.5382 84.7538 20.9392 79.2991 23.2331 75.9235Z" fill="#17282F"/>
<path d="M27.9461 75.4691L34.755 72.0337L36.6182 72.0837C40.7689 71.7285 44.0386 76.0497 44.3653 79.4079C44.7283 83.1387 45.0245 87.7081 44.6766 90.5134C43.9768 96.1534 39.2951 97.0349 39.2951 97.0349C39.2951 97.0349 40.0798 103.613 40.281 105.468L28.9789 102.013L26.249 77.5303C26.1938 76.507 26.9311 75.6114 27.9461 75.4691Z" fill="#F9A78D"/>
<path d="M36.2548 89.958C36.2671 89.6631 36.4063 89.391 36.5972 89.1949C36.9793 88.8038 37.5806 88.7159 38.0503 88.9814C38.5203 89.2476 38.8296 89.8515 38.7978 90.4408C38.5799 90.8042 38.2205 91.0687 37.803 91.1431C37.738 91.1545 37.6727 91.1627 37.6064 91.167C37.2868 91.1871 36.9526 91.1078 36.688 90.8949C36.4234 90.6809 36.2395 90.3225 36.2548 89.958Z" fill="#F57F62"/>
<path d="M43.282 84.4464C43.3083 84.826 43.0088 85.1612 42.6131 85.1959C42.218 85.2307 41.8758 84.952 41.8493 84.5729C41.823 84.1933 42.1225 83.8576 42.5174 83.8229C42.9135 83.7881 43.2557 84.0673 43.282 84.4464Z" fill="#17282F"/>
<path d="M43.2669 81.3872C43.181 81.4844 42.6222 81.0993 41.848 81.1276C41.0742 81.145 40.5196 81.5626 40.4324 81.4708C40.3898 81.4301 40.475 81.2579 40.7161 81.0695C40.9535 80.8815 41.3632 80.6931 41.8452 80.6784C42.3277 80.6648 42.7393 80.8288 42.9786 81.0021C43.2228 81.177 43.3093 81.3437 43.2669 81.3872Z" fill="#17282F"/>
<path d="M38.851 87.8709C38.8459 87.8274 39.3243 87.7275 40.1006 87.6015C40.2975 87.5743 40.4834 87.5287 40.5122 87.3924C40.5538 87.2479 40.4641 87.0377 40.3603 86.8112C40.1581 86.3387 39.9464 85.8439 39.7242 85.3257C38.8395 83.2102 38.1916 81.4678 38.2771 81.433C38.3626 81.3977 39.1493 83.0847 40.0343 85.1997C40.2474 85.7217 40.4516 86.2192 40.6457 86.695C40.7284 86.9171 40.8657 87.1675 40.7747 87.4673C40.7265 87.6172 40.585 87.7291 40.4596 87.7677C40.3342 87.8106 40.2231 87.8165 40.1255 87.8258C39.3421 87.8948 38.8554 87.9149 38.851 87.8709Z" fill="#17282F"/>
<path d="M39.2997 97.0281C39.2997 97.0281 35.5343 97.4001 31.7188 95.2802C31.7188 95.2802 33.8525 99.1007 39.4493 98.3843L39.2997 97.0281Z" fill="#F57F62"/>
<path d="M43.2683 79.0163C43.1446 79.2097 42.5474 79.1038 41.8568 79.1847C41.1637 79.2439 40.5985 79.4677 40.4404 79.3031C40.3698 79.2222 40.4391 79.0353 40.6727 78.8371C40.9027 78.6394 41.3059 78.4504 41.7815 78.4015C42.2569 78.3542 42.6883 78.4585 42.9513 78.6057C43.2185 78.7534 43.3218 78.9229 43.2683 79.0163Z" fill="#17282F"/>
<path d="M35.3364 85.0271C35.3502 85.4073 35.6834 85.7087 36.0806 85.7017C36.4772 85.6946 36.7882 85.3818 36.7744 85.0016C36.7606 84.6214 36.4273 84.3194 36.0312 84.3264C35.6336 84.3335 35.3228 84.6469 35.3364 85.0271Z" fill="#17282F"/>
<path d="M32.8147 82.0186C32.9103 82.1055 33.4257 81.6639 34.1984 81.6107C34.9696 81.5466 35.5651 81.9035 35.6421 81.8024C35.6803 81.7579 35.5774 81.5955 35.3179 81.4331C35.0621 81.2718 34.6348 81.1273 34.1538 81.1637C33.6726 81.2012 33.2806 81.407 33.0608 81.6053C32.8363 81.8046 32.768 81.9795 32.8147 82.0186Z" fill="#17282F"/>
<path d="M33.831 79.2886C33.9929 79.4558 34.5798 79.2408 35.2966 79.193C36.0123 79.1229 36.6284 79.2386 36.7583 79.0474C36.8149 78.9551 36.7092 78.784 36.4347 78.6324C36.164 78.4809 35.7191 78.3696 35.2266 78.4098C34.7344 78.4505 34.3158 78.633 34.0763 78.8263C33.8323 79.0208 33.7591 79.2065 33.831 79.2886Z" fill="#17282F"/>
<path d="M28.0481 86.826C28.0328 86.4083 27.5164 85.4399 27.1017 85.3894C25.9942 85.2552 24.0113 85.4111 24.0881 88.2099C24.1934 92.0358 28.0125 91.1407 28.0163 91.031C28.019 90.9451 28.1007 88.2686 28.0481 86.826Z" fill="#F9A78D"/>
<path d="M26.912 89.6635C26.895 89.6515 26.8467 89.7118 26.7357 89.7661C26.6271 89.8193 26.4391 89.8595 26.2376 89.7906C25.8291 89.6531 25.4714 89.0209 25.4341 88.3317C25.4145 87.9835 25.4782 87.6501 25.5941 87.3725C25.7033 87.089 25.8788 86.8886 26.0816 86.8473C26.2825 86.7946 26.43 86.9125 26.4799 87.0189C26.5342 87.1243 26.5117 87.2014 26.5323 87.2074C26.5433 87.2166 26.6127 87.1411 26.5776 86.9842C26.5596 86.9087 26.5123 86.8196 26.4202 86.7484C26.3264 86.6762 26.1905 86.642 26.0489 86.661C25.7544 86.6898 25.4965 86.9684 25.3691 87.2737C25.2258 87.5805 25.1457 87.9553 25.1676 88.3464C25.2132 89.1165 25.6276 89.827 26.1851 89.9714C26.4558 90.0344 26.6786 89.947 26.7919 89.8536C26.9078 89.7558 26.9256 89.67 26.912 89.6635Z" fill="#F57F62"/>
<path d="M26.936 85.4149L27.9922 86.3312C34.0819 82.3255 40.274 71.422 38.6748 71.868C38.6748 71.868 35.7102 70.9468 32.6531 71.7523C29.5963 72.5578 23.8472 74.6363 24.2636 78.2889C24.6805 81.9421 26.936 85.4149 26.936 85.4149Z" fill="#17282F"/>
<path d="M25.155 70.1206C26.6374 70.9869 27.9583 73.5135 27.3517 75.1196C27.6256 76.7995 26.9777 78.6011 25.6962 79.7216C24.415 80.8421 22.5435 81.2446 20.915 80.7492C19.7901 80.4076 18.7893 79.6521 18.1844 78.6435C17.4671 77.448 17.3326 75.9669 17.5885 74.596C17.9037 72.9079 18.8292 71.2981 20.2683 70.3612C21.7076 69.4248 23.6726 69.2537 25.155 70.1206Z" fill="#17282F"/>
<path d="M24.8128 85.4237C24.8215 85.4405 25.0706 85.3351 25.5097 85.1222C25.9489 84.9088 26.5765 84.584 27.3352 84.15C28.8473 83.2832 30.8967 81.9595 32.8217 80.0933C34.7494 78.2276 36.0879 76.1545 36.7913 74.5495C37.149 73.7484 37.3747 73.0743 37.5001 72.6013C37.6266 72.1282 37.6711 71.861 37.6545 71.8572C37.5996 71.8403 37.3611 72.9011 36.6056 74.4626C35.8635 76.0252 34.5211 78.0441 32.6197 79.8853C30.7198 81.7276 28.7089 83.0659 27.2303 83.9735C26.4893 84.4276 25.8787 84.779 25.4567 85.0223C25.0347 85.2656 24.8032 85.4047 24.8128 85.4237Z" fill="#33535F"/>
<path d="M21.4774 82.5514C21.5298 82.5536 21.5523 81.8388 21.7657 80.7156C21.9759 79.5935 22.4306 78.0673 23.2578 76.5334C24.0915 75.0018 25.1211 73.7873 25.9462 72.9981C26.7704 72.2057 27.3568 71.7967 27.3263 71.7538C27.315 71.737 27.1606 71.8271 26.8899 72.0053C26.6157 72.1785 26.2428 72.4648 25.8068 72.8477C24.9335 73.6097 23.8538 74.8307 23.003 76.3949C22.158 77.9619 21.7247 79.5332 21.5637 80.6808C21.4812 81.2549 21.4451 81.7242 21.4496 82.0484C21.4483 82.3727 21.4574 82.5508 21.4774 82.5514Z" fill="#33535F"/>
<path d="M25.5469 91.4252C25.5469 92.2166 26.1885 92.858 26.98 92.858C27.7714 92.858 28.413 92.2166 28.413 91.4252C28.413 90.6339 27.7714 89.9919 26.98 89.9919C26.1885 89.9919 25.5469 90.6339 25.5469 91.4252Z" fill="#17282F"/>
<path d="M39.0326 90.5652C39.0166 90.4294 38.1222 90.5853 37.3524 89.9319C36.5808 89.2801 36.5131 88.309 36.3869 88.3242C36.3286 88.3214 36.2507 88.567 36.3107 88.9716C36.3667 89.3686 36.595 89.9226 37.0658 90.3224C37.5376 90.721 38.0924 90.8302 38.4646 90.796C38.8448 90.7639 39.0487 90.6254 39.0326 90.5652Z" fill="#17282F"/>
<path d="M18.6215 139.275C18.6215 139.275 14.3494 154.349 16.8873 162.532C18.4097 167.441 39.7781 194.485 40.8077 195.649C41.524 196.459 31.671 222.007 29.8687 227.329L41.1975 232.82C41.1975 232.82 55.3738 202.676 56.2401 197.393C57.353 190.609 41.4058 161.587 41.9916 161.199L47.7238 149.242L42.9665 136.929C42.9665 136.929 22.9167 137.146 18.8224 137.474L18.6215 139.275Z" fill="#17282F"/>
<path d="M43.3977 148.163C43.3977 148.163 71.0357 157.969 74.1516 159.628C77.5495 161.437 80.1153 167.785 77.2823 173.181C74.4498 178.576 49.6024 194.025 49.6024 194.025L43.3977 184.582L61.3792 170.419L41.9141 165.833L35.5742 158.32L43.3977 148.163Z" fill="#17282F"/>
<path d="M56.2436 197.221C56.205 197.218 56.3712 196.534 56.2306 195.3C56.1029 194.067 55.6233 192.324 54.8315 190.25C54.4377 189.211 53.9655 188.089 53.4682 186.877C53.2157 186.274 52.9766 185.633 52.7273 184.986C52.4814 184.34 52.1895 183.682 51.9005 183.007C50.722 180.313 49.3796 177.369 47.9687 174.28C45.6884 169.325 43.5821 164.747 41.8918 161.074L41.875 161.037L41.8841 161C42.6033 158.022 43.2362 155.585 43.7168 153.901C43.9588 153.058 44.1636 152.404 44.3227 151.966C44.4084 151.748 44.4695 151.581 44.5304 151.475C44.5924 151.37 44.6257 151.319 44.6302 151.322C44.6348 151.326 44.6108 151.384 44.5612 151.491C44.5126 151.597 44.4612 151.769 44.387 151.988C44.2491 152.431 44.0649 153.089 43.8417 153.935C43.3996 155.627 42.7994 158.071 42.1058 161.052L42.0982 160.978C43.8188 164.625 45.9523 169.197 48.2261 174.162C49.6374 177.252 50.9727 180.2 52.1396 182.904C52.4267 183.583 52.7139 184.239 52.9605 184.899C53.2072 185.553 53.437 186.183 53.6859 186.789C54.1726 188.003 54.6354 189.133 55.0188 190.18C55.7901 192.272 56.2447 194.038 56.3397 195.289C56.4484 196.542 56.2436 197.221 56.2436 197.221Z" fill="#33535F"/>
<path d="M47.3409 167.111L45.4895 166.675L44.6731 166.483C43.7511 164.504 42.8882 162.664 42.1094 161.013C42.7705 158.173 43.346 155.823 43.7804 154.149C43.7521 155.542 43.7948 161.101 43.7948 161.101L47.3409 167.111Z" fill="#0F191D"/>
<path d="M44.6719 166.482L44.5077 166.444L41.9883 161.198L43.7931 153.841C43.7872 153.868 43.7825 153.976 43.7792 154.148C43.3448 155.823 42.7693 158.172 42.1082 161.012C42.887 162.664 43.7498 164.503 44.6719 166.482ZM43.7931 153.841C43.7931 153.84 43.7933 153.84 43.7936 153.839L43.7931 153.841Z" fill="#20353D"/>
<path d="M59.4775 152.76C58.6796 151.978 56.3398 149.78 54.6963 148.241C54.067 147.652 54.473 146.598 55.3344 146.581L74.2616 146.194C74.5424 146.188 74.8118 146.306 74.9987 146.516L78.9549 150.96C79.498 151.57 79.0793 152.537 78.2624 152.559L60.1732 153.033C59.9131 153.04 59.6632 152.942 59.4775 152.76Z" fill="#33535F"/>
<path d="M54.1208 149.358C54.1208 149.358 56.3206 148.383 58.5198 148.164C60.7195 147.944 61.8193 148.87 62.9974 148.761C64.1754 148.651 67.3962 148.965 67.3962 149.83C67.3962 150.694 62.9186 151.008 62.9186 151.008L66.8466 152.265C66.8466 152.265 71.3242 151.715 71.4024 152.265C71.4812 152.815 67.3962 153.365 65.511 153.6C63.6258 153.836 52.707 153.993 51.1359 153.6C49.5648 153.207 38.4102 146.452 38.4102 146.452L43.7518 140.953L54.1208 149.358Z" fill="#F9A78D"/>
<path d="M26.6129 100.19C26.6129 100.19 21.4754 100.975 19.7183 106.569C18.2575 111.219 21.0439 130.333 22.2283 133.784C23.4129 137.234 36.1679 148.341 37.2889 147.396C38.4102 146.452 44.6257 140.953 44.6257 140.953L34.6469 129.16C34.6469 129.16 35.1752 115.156 34.5147 112.513C33.854 109.872 29.3871 99.9252 26.6129 100.19Z" fill="#844FCF"/>
<path d="M20.368 123.501C21.0976 130.139 19.6728 132.993 19.6728 132.993C18.5184 133.866 17.9398 135.311 17.8151 136.394C17.7472 136.984 18.2209 137.494 18.8148 137.473L42.9589 136.929C42.9589 136.929 46.3378 137.251 46.2658 134.047C46.1856 130.471 47.1707 117.907 45.8727 112.968C45.4248 111.263 39.9112 102.952 39.9112 102.952L28.4013 96.4258L27.1835 99.5625C27.1835 99.5625 23.5318 100.895 21.8638 103.045C20.5452 104.745 20.082 105.917 19.5535 107.738C18.5551 111.177 19.9765 119.941 20.368 123.501Z" fill="#844FCF"/>
<path d="M81.078 112.422C81.078 112.422 80.8673 112.233 80.1346 112.469C79.4025 112.705 77.3212 113.727 76.3777 113.97C75.4338 114.213 73.3872 115.001 73.3872 115.001C73.3872 115.001 72.2477 114.87 70.8008 115.871C69.3534 116.871 65.2695 119.569 65.2695 119.569L66.6724 123.541C66.6724 123.541 68.2497 123.276 68.6983 123.409C69.1475 123.542 70.4825 123.624 71.5927 123.291C72.7029 122.957 74.2057 122.357 74.2057 122.357C74.2057 122.357 75.6695 122.477 76.0535 121.946C76.4375 121.414 76.0242 120.455 76.0242 120.455C76.0242 120.455 77.4608 119.137 76.8438 118.397C76.2262 117.656 75.4582 116.836 75.4582 116.836C75.4582 116.836 79.7191 114.577 80.524 113.979C81.329 113.381 81.4876 112.901 81.078 112.422Z" fill="#F9A78D"/>
<path d="M65.2659 119.569L52.0141 124.029L46.6602 126.734L54.176 130.786L66.6688 123.541L65.2659 119.569Z" fill="#F9A78D"/>
<path d="M73.2955 116.295C73.3618 116.271 73.654 117.848 73.1326 119.709C73.1119 119.781 73.0913 119.852 73.0717 119.919L72.9615 119.739C73.8403 119.897 74.6229 120.052 75.1867 120.178C75.7657 120.294 76.0709 120.538 76.0427 120.568C76.0215 120.597 75.7184 120.432 75.1509 120.369C74.5817 120.293 73.7914 120.17 72.9121 120.017L72.7578 119.99L72.8018 119.838C72.8203 119.773 72.8398 119.704 72.8599 119.634C73.3656 117.838 73.2075 116.296 73.2955 116.295Z" fill="#F57F62"/>
<path d="M73.2291 118.179C73.2389 118.156 73.3475 118.167 73.5023 118.268C73.6533 118.367 73.8499 118.569 73.9336 118.885L73.7913 118.786C74.0134 118.746 74.2698 118.718 74.5414 118.713C75.5141 118.692 76.2577 118.99 76.2311 119.059C76.2093 119.139 75.468 118.974 74.5468 118.996C74.2877 119.001 74.0428 119.018 73.8271 119.039L73.7066 119.051L73.6848 118.94C73.5838 118.426 73.1911 118.227 73.2291 118.179Z" fill="#F57F62"/>
<path d="M75.2258 117.162C75.2708 117.231 74.914 117.532 74.593 117.991C74.266 118.447 74.0998 118.883 74.0205 118.863C73.9472 118.851 74.001 118.335 74.3627 117.828C74.7206 117.319 75.1899 117.097 75.2258 117.162Z" fill="#F57F62"/>
<path d="M39.6641 100.037L40.995 103.611C42.4434 104.985 46.0504 108.844 46.7352 111.501C47.6309 114.975 51.6686 123.707 51.6686 123.707C51.6686 123.707 60.825 119.804 61.4567 120.445C62.0883 121.086 65.2956 128.61 64.2408 130.189C63.1855 131.769 53.8348 135.907 50.0524 134.978C46.27 134.047 42.6831 128.572 42.6831 128.572L39.6641 100.037Z" fill="#844FCF"/>
<path d="M45.6779 111.537C45.6964 111.53 45.8018 111.82 45.9775 112.352C46.0709 112.616 46.1712 112.944 46.2527 113.334C46.341 113.721 46.4591 114.16 46.5238 114.658C46.7057 115.644 46.7939 116.837 46.8387 118.159C46.8604 119.482 46.8147 120.936 46.7195 122.457C46.5109 125.497 46.2955 128.239 46.3198 130.23C46.3096 130.727 46.3393 131.176 46.3496 131.571C46.3562 131.966 46.3815 132.306 46.4057 132.583C46.4468 133.138 46.4606 133.447 46.4413 133.45C46.422 133.453 46.3713 133.148 46.296 132.594C46.2548 132.317 46.2136 131.977 46.1918 131.58C46.1661 131.184 46.1225 130.733 46.1199 130.233C46.0441 128.232 46.2292 125.472 46.4373 122.439C46.5321 120.922 46.5854 119.478 46.5781 118.164C46.5478 116.852 46.4812 115.669 46.3261 114.688C46.0443 112.722 45.6158 111.555 45.6779 111.537Z" fill="#17282F"/>
<path d="M51.5302 128.884C51.4522 128.883 51.4059 127.694 51.4269 126.229C51.4482 124.763 51.5283 123.576 51.6067 123.577C51.6847 123.578 51.731 124.767 51.7098 126.233C51.6887 127.698 51.6084 128.885 51.5302 128.884Z" fill="#17282F"/>
<path d="M34.4501 110.915C34.4599 110.916 34.4669 111.026 34.4711 111.236C34.4739 111.477 34.4772 111.781 34.4815 112.155C34.4927 112.99 34.508 114.135 34.5269 115.532C34.5608 118.383 34.7094 122.329 34.5922 126.681C34.5812 127.756 34.6767 128.825 35.1496 129.707C35.6225 130.586 36.3324 131.297 36.9445 132.013C38.181 133.425 39.298 134.701 40.2453 135.784C41.1585 136.842 41.9061 137.709 42.452 138.342C42.6917 138.629 42.8867 138.862 43.0412 139.047C43.1736 139.21 43.2395 139.299 43.2322 139.305C43.2247 139.312 43.1445 139.235 42.9981 139.084C42.8333 138.909 42.6249 138.687 42.3688 138.414C41.8062 137.796 41.0354 136.949 40.094 135.915C39.1338 134.844 38.001 133.581 36.7474 132.183C36.133 131.474 35.415 130.771 34.9045 129.836C34.3945 128.891 34.2984 127.767 34.3094 126.68C34.4266 122.327 34.3096 118.389 34.3271 115.534C34.3271 114.107 34.344 112.952 34.3714 112.153C34.3833 111.754 34.3998 111.445 34.4142 111.235C34.4282 111.025 34.4404 110.915 34.4501 110.915Z" fill="#17282F"/>
<path d="M26.154 100.189C26.1661 100.222 25.6064 100.378 24.6958 100.871C23.7971 101.367 22.5337 102.24 21.4362 103.731C20.8877 104.47 20.3872 105.359 20.0403 106.383C19.8572 106.892 19.7316 107.438 19.6402 108.005C19.561 108.572 19.5146 109.174 19.4749 109.782C19.4002 111.005 19.3974 112.293 19.4817 113.622C19.5704 114.949 19.7541 116.327 19.895 117.738C20.1935 120.56 20.4776 123.248 20.7366 125.698C20.9889 128.144 21.1875 130.353 21.6933 132.136C22.1793 133.923 22.9306 135.248 23.5686 136.058C23.8851 136.467 24.1635 136.758 24.3574 136.95C24.553 137.14 24.6585 137.239 24.6512 137.247C24.648 137.251 24.618 137.231 24.5617 137.189C24.5066 137.145 24.4214 137.083 24.3186 136.992C24.1107 136.812 23.8166 136.53 23.4826 136.127C22.8097 135.328 22.0181 133.995 21.5008 132.191C20.9636 130.39 20.7437 128.166 20.4774 125.726C20.2118 123.277 19.92 120.59 19.6139 117.768C19.473 116.355 19.2914 114.984 19.205 113.64C19.124 112.298 19.1324 110.998 19.2148 109.766C19.2587 109.149 19.3084 108.553 19.3945 107.967C19.4925 107.386 19.6266 106.826 19.8188 106.306C20.1844 105.26 20.7065 104.357 21.2761 103.611C22.4161 102.107 23.7194 101.245 24.6442 100.774C25.1108 100.538 25.4887 100.386 25.7515 100.305C26.0129 100.22 26.151 100.18 26.154 100.189Z" fill="#17282F"/>
<path d="M39.8412 103.732C39.83 103.747 39.6322 103.629 39.2824 103.398C38.8877 103.13 38.3959 102.796 37.8099 102.398L37.9665 102.32C37.9595 103.072 37.9515 103.952 37.9426 104.921L37.9407 105.127L37.7546 105.034C36.8192 104.563 35.7887 104.045 34.7048 103.5C32.625 102.445 30.7496 101.476 29.3986 100.762C28.7661 100.421 28.2332 100.134 27.8052 99.9037C27.4318 99.6951 27.2297 99.5719 27.2386 99.5545C27.2473 99.5371 27.4664 99.6273 27.8551 99.8054C28.2938 100.015 28.8404 100.275 29.4889 100.584C30.8633 101.252 32.7531 102.193 34.8327 103.248C35.9128 103.801 36.9397 104.326 37.8717 104.803L37.6839 104.915C37.7153 103.947 37.7442 103.067 37.7686 102.316L37.775 102.124L37.9254 102.238C38.4906 102.664 38.9652 103.022 39.3458 103.31C39.6762 103.567 39.8525 103.717 39.8412 103.732Z" fill="#17282F"/>
<path d="M44.1158 224.472L39.651 233.82C39.651 233.82 48.2218 241.676 47.5749 243.487L28.0547 235.141L34.3778 220.279L44.1158 224.472Z" fill="#17282F"/>
<path d="M33.9592 230.44C33.5391 230.376 33.1048 230.666 33.0365 231.064C32.9684 231.463 33.2883 231.9 33.7073 231.971C34.1262 232.043 34.6595 231.71 34.6803 231.306C34.7013 230.901 34.2974 230.405 33.8764 230.432" fill="#DADBD8"/>
<path d="M28.0547 235.141L28.7541 233.669L47.2083 242.222C47.2083 242.222 47.9228 242.95 47.5749 243.487L28.0547 235.141Z" fill="#33535F"/>
<path d="M40.0101 233.862C39.9678 233.95 39.4735 233.787 38.8797 233.876C38.2824 233.951 37.8721 234.237 37.7997 234.164C37.7196 234.109 38.0942 233.631 38.816 233.536C39.5365 233.434 40.0663 233.788 40.0101 233.862Z" fill="white"/>
<path d="M41.7133 235.537C41.6973 235.633 41.2182 235.61 40.7301 235.853C40.2338 236.081 39.9741 236.458 39.881 236.413C39.7853 236.389 39.9472 235.834 40.5608 235.543C41.1712 235.248 41.7482 235.45 41.7133 235.537Z" fill="white"/>
<path d="M41.874 238.35C41.7792 238.332 41.8407 237.825 42.2985 237.437C42.7534 237.045 43.287 237.042 43.2949 237.134C43.3167 237.231 42.9132 237.373 42.5425 237.697C42.1638 238.013 41.9724 238.381 41.874 238.35Z" fill="white"/>
</g>
<defs>
<clipPath id="clip0_2695_7685">
<rect width="250" height="244.499" fill="white" transform="translate(0 0.225098)"/>
</clipPath>
</defs>
</svg>
