<svg width="60" height="60" viewBox="0 0 60 60" fill="none" xmlns="http://www.w3.org/2000/svg">
<circle cx="30" cy="30" r="30" fill="#7BE0B8"/>
<path d="M35.4479 18.3174H21.9263C20.7481 18.3174 19.793 19.2942 19.793 20.4992V38.0179C19.793 39.2229 20.7481 40.1997 21.9263 40.1997H36.8596C38.0378 40.1997 38.993 39.2229 38.993 38.0179V21.911L35.4479 18.3174Z" fill="#49D49D" stroke="#212529" stroke-linecap="round" stroke-linejoin="round"/>
<path d="M26.8242 29.7584H30.0355C29.9893 30.0526 29.8947 30.2573 29.7622 30.3862L29.7622 30.3862L29.7608 30.3876C29.6175 30.5325 29.3714 30.6392 29.0033 30.6936L29.0031 30.6936C28.6403 30.7482 28.0741 30.7762 27.3007 30.7762H27.2007V30.8762V32.2148C27.2007 32.8347 27.3718 33.3333 27.7253 33.6974L27.7253 33.6974L27.7259 33.698C28.0816 34.0578 28.5976 34.2297 29.2562 34.2297C29.8878 34.2297 30.3888 34.0705 30.744 33.7379L30.744 33.7379L30.7448 33.7372C31.1009 33.3971 31.2751 32.906 31.2819 32.2809L31.283 32.1798H31.1819H30.5367H30.4367V32.2798C30.4367 32.6917 30.3349 32.9924 30.1456 33.1973C29.9588 33.3996 29.6721 33.5091 29.2661 33.5091C28.8464 33.5091 28.5496 33.3978 28.3563 33.1921C28.1619 32.9852 28.0558 32.6656 28.0558 32.2148V31.4406C28.6815 31.4358 29.1868 31.3861 29.5687 31.2892L29.5687 31.2892L29.5701 31.2888C29.9741 31.1798 30.2861 31.0006 30.495 30.7443C30.6955 30.5002 30.8223 30.1689 30.8824 29.7584H32.2242H32.3242V29.6584V29.175V29.075H32.2242H30.9345V28.9891V28.1224H32.2242H32.3242V28.0224V27.5297V27.4297H32.2242H26.8242H26.7242V27.5297V28.0224V28.1224H26.8242H30.0794V28.9798V29.075H26.8242H26.7242V29.175V29.6584V29.7584H26.8242Z" fill="#212529" stroke="#212529" stroke-width="0.2"/>
<path d="M34.2344 19.7651V23.2945H37.7638" stroke="#212529" stroke-linecap="round" stroke-linejoin="round"/>
</svg>
