<svg width="16" height="16" viewBox="0 0 16 16" fill="none" xmlns="http://www.w3.org/2000/svg">
<path d="M6.8566 2.57347L1.20993 12.0001C1.09351 12.2018 1.03191 12.4303 1.03126 12.6631C1.0306 12.896 1.09092 13.1249 1.20621 13.3272C1.3215 13.5294 1.48775 13.698 1.6884 13.816C1.88906 13.9341 2.11713 13.9976 2.34993 14.0001H13.6433C13.8761 13.9976 14.1041 13.9341 14.3048 13.816C14.5054 13.698 14.6717 13.5294 14.787 13.3272C14.9023 13.1249 14.9626 12.896 14.9619 12.6631C14.9613 12.4303 14.8997 12.2018 14.7833 12.0001L9.1366 2.57347C9.01775 2.37754 8.85041 2.21555 8.65073 2.10313C8.45104 1.9907 8.22575 1.93164 7.9966 1.93164C7.76744 1.93164 7.54215 1.9907 7.34247 2.10313C7.14278 2.21555 6.97544 2.37754 6.8566 2.57347Z" stroke="#FF254C" stroke-width="1.5" stroke-linecap="round" stroke-linejoin="round"/>
<path d="M8 6V8.66667" stroke="#FF254C" stroke-width="1.5" stroke-linecap="round" stroke-linejoin="round"/>
<path d="M8 11.333H8.00667" stroke="#FF254C" stroke-width="1.5" stroke-linecap="round" stroke-linejoin="round"/>
</svg>
