<svg width="83" height="25" viewBox="0 0 83 25" fill="none" xmlns="http://www.w3.org/2000/svg">
<g clip-path="url(#clip0_5588_12637)">
<path d="M13.0964 5.875H10.0708C9.16043 5.875 8.4375 5.2 8.4375 4.35V1.525C8.4375 0.675 9.16043 0 10.0708 0H13.0964C14.0067 0 14.7297 0.675 14.7297 1.525V4.35C14.7297 5.2 14.0067 5.875 13.0964 5.875Z" fill="#426DA9"/>
<path d="M5.24794 12.2246H1.84749C0.830031 12.2246 0 11.4496 0 10.5246V7.32461C0 6.37461 0.830031 5.59961 1.84749 5.59961H5.24794C6.26539 5.59961 7.09542 6.37461 7.09542 7.32461V10.5246C7.09542 11.4746 6.26539 12.2246 5.24794 12.2246Z" fill="#6D2077"/>
<path d="M4.92396 18.8498H2.8355C2.21967 18.8498 1.71094 18.3748 1.71094 17.7998V15.8498C1.71094 15.2748 2.21967 14.7998 2.8355 14.7998H4.92396C5.53979 14.7998 6.04852 15.2748 6.04852 15.8498V17.7998C6.04852 18.3748 5.53979 18.8498 4.92396 18.8498Z" fill="#AF1685"/>
<path d="M10.5208 25H8.05751C7.33458 25 6.71875 24.45 6.71875 23.775V21.475C6.71875 20.8 7.3078 20.225 8.05751 20.225H10.5208C11.2438 20.225 11.8596 20.775 11.8596 21.475V23.75C11.8596 24.45 11.2438 25 10.5208 25ZM19.5441 7.05H17.8305C17.3217 7.05 16.9201 6.675 16.9201 6.2V4.6C16.9201 4.125 17.3217 3.75 17.8305 3.75H19.5441C20.0528 3.75 20.4544 4.125 20.4544 4.6V6.2C20.4812 6.65 20.0528 7.05 19.5441 7.05Z" fill="#E63888"/>
<path d="M56.9204 8.1C57.4559 8.1 57.9111 7.7 57.9111 7.175C57.9111 6.675 57.4827 6.25 56.9204 6.25C56.3849 6.25 55.9297 6.65 55.9297 7.175C55.9297 7.7 56.3849 8.1 56.9204 8.1Z" fill="#004691"/>
<path d="M21.0233 17.9004C20.8626 18.1254 20.6216 18.2254 20.3539 18.2254C20.1932 18.2254 20.0326 18.2004 19.8987 18.1254C19.6845 18.0004 19.5239 17.7254 19.5239 17.4754C19.5239 17.3504 19.5506 17.2254 19.631 17.1254L21.9336 13.7504L19.6577 10.4004C19.5774 10.3004 19.5506 10.1504 19.5506 10.0254C19.5506 9.77539 19.6845 9.50039 19.9255 9.37539C20.0594 9.30039 20.1932 9.27539 20.3539 9.27539C20.6216 9.27539 20.8894 9.37539 21.05 9.60039L22.9243 12.3504L24.7986 9.60039C24.9592 9.37539 25.227 9.27539 25.4947 9.27539C25.6554 9.27539 25.7893 9.30039 25.9231 9.37539C26.1641 9.50039 26.298 9.77539 26.298 10.0254C26.298 10.1504 26.2712 10.3004 26.1909 10.4004L23.8347 13.7504L26.1106 17.1004C26.1909 17.2004 26.2177 17.3254 26.2177 17.4504C26.2177 17.7254 26.057 17.9754 25.8428 18.1004C25.7089 18.1754 25.5483 18.2004 25.3876 18.2004C25.1199 18.2004 24.8789 18.1004 24.7182 17.8754L22.844 15.1504C22.8708 15.1754 21.0233 17.9004 21.0233 17.9004ZM29.1629 10.3254C30.0465 9.57539 31.2246 9.15039 32.4295 9.15039C35.1338 9.15039 37.3561 11.1754 37.3561 13.7004C37.3561 13.7254 37.3561 13.7254 37.3561 13.7504C37.3561 16.2754 35.1606 18.3254 32.4295 18.3254C31.1711 18.3254 30.0197 17.8754 29.1629 17.1504V21.0754C29.1629 21.4754 28.7881 21.8004 28.3329 21.8004C27.9313 21.8004 27.5296 21.4754 27.5296 21.0754V9.95039C27.5296 9.55039 27.9313 9.22539 28.3329 9.22539C28.7613 9.22539 29.1629 9.57539 29.1629 9.95039V10.3254ZM32.4295 10.6754C30.6088 10.6754 29.1629 12.0254 29.1629 13.7504C29.1629 15.4504 30.6088 16.8004 32.4295 16.8004C34.277 16.8004 35.7228 15.4504 35.7228 13.7504C35.7228 12.0254 34.277 10.6754 32.4295 10.6754ZM51.2792 12.9254V17.5254C51.2792 17.9254 50.8776 18.2504 50.476 18.2504C50.0476 18.2504 49.6459 17.9254 49.6459 17.5254V9.95039C49.6459 9.55039 50.0208 9.22539 50.476 9.22539C50.8508 9.22539 51.2525 9.55039 51.2792 9.92539C51.9486 9.45039 52.8054 9.17539 53.7425 9.15039C54.2513 9.15039 54.6261 9.52539 54.6261 9.90039C54.6261 10.3004 54.2245 10.6754 53.7425 10.6754C52.4573 10.7254 51.2792 11.1504 51.2792 12.9254ZM56.9556 9.22539C56.5272 9.22539 56.1255 9.55039 56.1255 9.95039V17.5254C56.1255 17.9254 56.5004 18.2504 56.9556 18.2504C57.3572 18.2504 57.7588 17.9254 57.7588 17.5254V9.95039C57.7588 9.55039 57.3572 9.22539 56.9556 9.22539ZM67.2908 9.95039C67.2908 9.55039 67.6656 9.22539 68.1208 9.22539C68.5224 9.22539 68.9241 9.55039 68.9241 9.95039V17.5254C68.9241 17.9254 68.5224 18.2504 68.1208 18.2504C67.6924 18.2504 67.2908 17.9254 67.2908 17.5254V17.1504C66.3804 17.9004 65.2291 18.3254 64.0242 18.3254C61.3199 18.3254 59.0976 16.3004 59.0976 13.7754C59.0976 13.7504 59.0976 13.7504 59.0976 13.7254C59.0976 11.2004 61.2932 9.15039 64.0242 9.15039C65.2827 9.15039 66.434 9.60039 67.2908 10.3254V9.95039ZM63.9974 16.8004C65.8182 16.8004 67.264 15.4504 67.264 13.7254C67.264 12.0504 65.8449 10.6754 64.051 10.6754C64.0242 10.6754 64.0242 10.6754 63.9974 10.6754C62.15 10.6754 60.7041 12.0254 60.7041 13.7254C60.7309 15.4504 62.1767 16.8004 63.9974 16.8004ZM77.1441 13.0004C77.1441 11.7504 75.966 10.6254 74.6004 10.6254C73.2884 10.6254 72.0568 11.1254 72.0568 12.9004V17.5004C72.0568 17.9004 71.6552 18.2254 71.2535 18.2254C70.8251 18.2254 70.4235 17.9004 70.4235 17.5004V9.95039C70.4235 9.55039 70.7983 9.22539 71.2535 9.22539C71.6284 9.22539 72.03 9.55039 72.0568 9.92539C72.7529 9.42539 73.6097 9.15039 74.5736 9.15039C76.7692 9.15039 78.7506 10.7754 78.7506 12.8004V17.5254C78.7506 17.9254 78.3489 18.2504 77.9473 18.2504C77.5189 18.2504 77.1173 17.9254 77.1173 17.5254L77.1441 13.0004ZM19.0687 13.4754C19.0419 11.1504 16.7928 9.15039 14.1688 9.15039C11.4378 9.15039 9.24219 11.2004 9.24219 13.7254C9.24219 16.2504 11.411 18.3254 14.1153 18.3254C14.142 18.3254 14.142 18.3254 14.1688 18.3254C15.4808 18.3254 16.7125 17.8504 17.5693 17.0254C17.7299 16.8754 17.8638 16.6754 17.8638 16.4504C17.8638 16.0504 17.4889 15.6754 17.0338 15.6754C16.7928 15.6754 16.5518 15.8254 16.3912 15.9754C15.8289 16.5254 15.0256 16.7754 14.1688 16.7754C12.5355 16.7754 11.1968 15.7254 10.9022 14.2754H18.2387C18.2387 14.2754 18.2386 14.2754 18.2654 14.2754H18.2922C18.319 14.2754 18.319 14.2754 18.3458 14.2754C18.3725 14.2754 18.3993 14.2754 18.4261 14.2504C18.8277 14.1504 19.0687 13.8254 19.0687 13.4754ZM14.1956 10.6504C15.6682 10.6504 16.8999 11.5254 17.3283 12.7754H11.0361C11.4645 11.5504 12.6962 10.6504 14.1956 10.6504ZM48.3072 13.4754C48.2804 11.1504 46.0313 9.15039 43.4073 9.15039C40.6763 9.15039 38.4807 11.2004 38.4807 13.7254C38.4807 16.2504 40.6495 18.3254 43.3538 18.3254C43.3806 18.3254 43.3806 18.3254 43.4073 18.3254C44.7193 18.3254 45.951 17.8504 46.8078 17.0254C46.9684 16.8754 47.1023 16.6754 47.1023 16.4504C47.1023 16.0504 46.7275 15.6754 46.2723 15.6754C46.0313 15.6754 45.7903 15.8254 45.6297 15.9754C45.0674 16.5254 44.2641 16.7754 43.4073 16.7754C41.774 16.7754 40.4353 15.7254 40.1408 14.2754H47.4772C47.4772 14.2754 47.4772 14.2754 47.5039 14.2754H47.5307C47.5575 14.2754 47.5843 14.2754 47.5843 14.2754H47.611C48.0127 14.1754 48.3072 13.8504 48.3072 13.4754ZM43.4073 10.6504C44.88 10.6504 46.1116 11.5254 46.54 12.7754H40.2746C40.6763 11.5504 41.9079 10.6504 43.4073 10.6504ZM80.4642 18.2504C80.3839 18.2504 80.3303 18.2004 80.3303 18.1254V16.8504H80.0358C79.9555 16.8504 79.9019 16.8004 79.9019 16.7254C79.9019 16.6504 79.9555 16.6004 80.0358 16.6004H80.9194C80.9997 16.6004 81.0532 16.6504 81.0532 16.7254C81.0532 16.8004 80.9997 16.8504 80.9194 16.8504H80.5981V18.1254C80.5981 18.2004 80.5445 18.2504 80.4642 18.2504ZM82.0439 18.2504C81.9636 18.2504 81.9368 18.2004 81.91 18.1504L81.5352 17.1004V18.1254C81.5352 18.2004 81.4816 18.2504 81.4013 18.2504C81.321 18.2504 81.2674 18.2004 81.2674 18.1254V16.7754C81.2674 16.6754 81.3745 16.5754 81.4816 16.5754C81.562 16.5754 81.6423 16.6254 81.6691 16.7254L82.0439 17.7754L82.4188 16.7254C82.4455 16.6504 82.5259 16.6004 82.6062 16.5754C82.7133 16.5754 82.8204 16.6754 82.8204 16.7754V18.1254C82.8204 18.2004 82.7668 18.2504 82.6865 18.2504C82.6062 18.2504 82.5527 18.2004 82.5527 18.1254V17.1004L82.3384 17.7254L82.1778 18.1504C82.151 18.2254 82.1242 18.2504 82.0439 18.2504Z" fill="#1D4F91"/>
</g>
<defs>
<clipPath id="clip0_5588_12637">
<rect width="82.8424" height="25" fill="white"/>
</clipPath>
</defs>
</svg>
