<svg width="98" height="98" viewBox="0 0 98 98" fill="none" xmlns="http://www.w3.org/2000/svg">
<g clip-path="url(#clip0_544_1556)">
<path d="M39.6213 97.9972C42.9003 98.1545 46.4464 90.6822 47.8362 84.706C49.472 77.6714 47.6064 74.9178 50.3194 71.2332C52.5295 68.2316 54.4057 69.6216 58.377 66.5936C58.5269 66.4793 58.68 63.4009 58.836 63.2734C66.648 56.8956 64.639 51.2269 70.0803 51.0791C71.2427 51.0476 72.6479 51.4252 73.0044 50.8133C73.6395 49.7228 69.6983 47.6505 69.8531 44.3688C69.9255 42.837 70.8588 41.737 71.1897 41.3461C71.7316 40.7059 72.5453 40.0358 76.7639 38.8511C79.8891 37.9735 84.3644 34.6234 84.7342 35.0959C85.2791 35.7923 84.628 40.9535 85.0464 43.6359C85.3033 45.282 86.9585 46.3518 87.6918 46.8259C87.9632 47.0012 85.4895 44.9901 86.5103 41.7753C87.0613 40.0396 87.6202 40.3301 88.4595 38.3196C89.8947 34.8818 88.5675 33.197 89.9912 31.674C91.5509 30.0051 93.8323 31.1742 94.7252 29.8131C96.0107 27.8541 96.1395 25.4954 92.6705 25.1949C90.2689 24.9868 88.2042 27.2387 86.5441 29.0492C83.9192 31.9121 84.1661 33.9854 81.9492 34.8975C79.8916 35.7439 77.7046 34.8475 77.2625 34.6662C73.8225 33.2563 73.3151 29.8407 71.7848 29.9797C70.114 30.1314 70.7845 34.1975 68.1622 36.4057C66.074 38.1644 57.5654 33.4326 46.5492 29.8129C45.8192 29.5731 44.3594 29.0626 44.043 27.9521C43.6377 26.5305 45.5941 25.7036 45.5746 24.2306C45.5608 23.1949 47.5344 22.3228 46.246 21.5473C43.7128 20.0223 40.0028 18.871 40.1781 17.585C40.3272 16.492 43.3929 16.6515 43.9375 14.9267C44.3504 13.6182 42.7835 12.9374 42.8128 11.2628C42.862 8.45066 47.333 7.36654 46.9897 5.70494C46.7142 4.3716 43.5019 3.45745 40.8742 3.76217C38.4055 4.04851 37.8896 5.24461 36.2732 4.94525C34.153 4.55267 34.0916 2.31954 31.9631 0.97108C28.2253 -1.39719 21.4519 1.09415 21.381 2.83193C21.3161 4.42539 26.7758 5.18584 26.8112 7.6167C26.8319 9.02794 24.9975 9.39965 25.0011 10.8065C25.0078 13.322 30.8773 14.2388 30.8489 16.5217C30.8348 17.6703 29.3433 17.8845 27.1225 20.4784C26.776 20.8831 26.5364 21.2073 26.314 21.5474C25.8867 22.2001 28.4799 22.9116 27.5411 24.3636C24.1239 29.6495 22.383 32.2748 20.7186 32.0725C19.4358 31.9167 19.1764 33.26 17.9338 33.3025C16.6131 33.3474 15.3544 32.2212 15.0099 33.9333C14.4318 36.806 16.8993 38.5772 16.0201 39.8003C15.0889 41.096 11.4373 40.6835 11.4373 40.6835C11.4185 40.6833 9.4258 40.6647 7.64017 41.046C6.47795 41.2941 4.81769 41.8733 2.95703 43.402C3.02728 43.7513 4.02642 48.2921 8.62112 50.1077C11.5994 51.2847 14.3411 47.6685 15.7642 47.1446C16.2104 46.9804 16.6525 50.342 16.5392 50.8037C16.3388 51.6199 15.96 52.6 15.2346 53.5511C12.5629 57.0543 7.70199 56.868 7.24472 56.8435C11.7975 61.7014 14.8679 56.4779 16.9119 56.0329C20.8744 55.1702 23.0218 52.547 24.3853 53.1486C25.0518 53.4426 24.8931 57.8903 24.896 59.5852C24.901 62.5976 25.3816 65.2013 26.9846 70.2182C27.5546 72.0023 29.0434 75.1978 31.9972 81.5158C33.8142 85.4021 35.3604 88.6196 37.8452 92.5475C41.173 97.8087 39.2086 97.9773 39.6213 97.9972Z" fill="#FD9468"/>
<path d="M24.5844 24.364C21.1672 29.6499 19.4264 32.2752 17.7619 32.0729C16.4791 31.9171 16.2198 30.3028 14.9772 30.3451C13.6565 30.3901 12.3978 32.2214 12.0532 33.9338C11.4752 36.8064 13.9426 38.5776 13.0635 39.8007C12.1323 41.0964 6.46915 40.6653 4.68352 41.0464C3.52092 41.2945 1.86066 41.8737 0 43.4024C0.0702461 43.7517 1.06958 48.2925 5.66409 50.1082C8.64237 51.2851 11.3841 50.6265 12.8072 50.1028C13.2534 49.9386 13.6955 50.3424 13.5822 50.8041C13.3818 51.6203 13.003 52.6005 12.2776 53.5516C9.60591 57.0547 4.74496 56.8684 4.28769 56.8439C8.84048 61.7018 11.9108 62.3938 13.9549 61.9487C17.9173 61.0861 20.0647 55.5052 21.4283 56.1066C22.0948 56.4006 21.9361 57.8905 21.939 59.5854C21.9426 61.7755 22.1981 63.7504 22.9531 66.5926H58.3774C58.5278 66.478 58.6804 66.3589 58.8369 66.2311C66.649 59.8532 67.5978 51.2267 73.0391 51.0792C74.2015 51.0476 75.6066 51.4252 75.9632 50.8133C76.5983 49.7229 72.657 47.6505 72.8119 44.3688C72.8842 42.837 73.8175 41.737 74.1485 41.3461C74.6904 40.7059 75.504 40.0358 79.7226 38.8512C82.8479 37.9736 84.3654 37.5812 84.7352 38.0538C85.2801 38.7501 81.6713 40.9536 82.0897 43.6359C82.3466 45.282 84.0019 46.3518 84.7352 46.8259C85.0066 47.0012 87.7136 48.7509 88.9122 47.8892C89.9481 47.1444 88.4484 44.9901 89.4692 41.7753C90.0203 40.0396 90.5792 40.3302 91.4185 38.3196C92.8537 34.8818 91.5265 33.197 92.9499 31.674C94.5097 30.0051 96.7911 31.1742 97.684 29.8132C98.9695 27.8541 96.1405 22.5376 92.6714 22.2373C90.2699 22.0292 88.2052 24.2811 86.5451 26.0916C83.9202 28.9545 84.1671 31.0278 81.9502 31.9399C79.8926 32.7863 77.7056 31.8899 77.2634 31.7087C73.8235 30.2988 73.3161 26.8831 71.7858 27.0221C70.115 27.1737 70.7855 31.2399 68.1632 33.4482C66.075 35.2068 60.5242 33.4328 49.508 29.8132C48.778 29.5733 47.3181 29.0628 47.0017 27.9523C46.5965 26.5307 48.5529 25.7039 48.5334 24.2308C48.5196 23.1953 47.5352 22.3232 46.247 21.5479H26.3153C25.8883 22.2009 25.5231 22.9118 24.5844 24.364Z" fill="#F9F7F8"/>
<path d="M46.2472 21.548C43.7139 20.0231 40.0039 18.8717 40.1792 17.5857C40.3283 16.4928 43.3941 16.6522 43.9386 14.9274C44.3515 13.619 42.7846 12.9382 42.8139 11.2635C42.8629 8.4514 47.3342 7.36727 46.9908 5.70568C46.7154 4.37234 43.503 3.45818 40.8754 3.7629C40.1471 3.84731 39.5897 4.01116 39.1228 4.19223C40.1756 4.55054 40.9466 5.08227 41.0754 5.70568C41.4186 7.36727 36.9475 8.4514 36.8985 11.2635C36.8694 12.9382 38.4363 13.6192 38.0232 14.9274C37.4787 16.6522 34.4129 16.4928 34.2638 17.5857C34.0885 18.8717 37.7981 20.0231 40.3316 21.548H46.2472Z" fill="#FE7D43"/>
<path d="M40.332 21.5479C41.6206 22.3234 42.6046 23.1957 42.6186 24.2314C42.6381 25.7044 40.6817 26.5313 41.0869 27.9529C41.4033 29.0634 42.8632 29.5739 43.5932 29.8137C54.2432 33.313 59.7846 35.0868 62.0281 33.6118C59.0163 32.9248 54.9243 31.593 49.5086 29.8137C48.7786 29.5739 47.3187 29.0634 47.0023 27.9529C46.5971 26.5313 48.5535 25.7044 48.534 24.2314C48.5202 23.1957 47.5362 22.3236 46.2478 21.548L40.332 21.5479Z" fill="#EFEDEF"/>
<path d="M72.8124 44.3693C72.8847 42.8375 73.818 41.7375 74.149 41.3466C74.6187 40.7915 75.2943 40.2137 78.2139 39.2982C78.6912 38.728 79.0111 38.2983 78.82 38.0542C78.4503 37.5817 76.9328 37.974 73.8075 38.8516C69.5889 40.0362 68.7752 40.7064 68.2334 41.3466C67.9026 41.7375 66.9691 42.8375 66.8968 44.3693C66.7419 47.6508 70.6832 49.7233 70.0481 50.8138C69.6917 51.4257 68.2866 51.048 67.124 51.0796C61.6827 51.2274 60.7339 59.8537 52.9218 66.2315C48.6328 69.7333 46.6988 68.1186 44.4052 71.2336C41.692 74.9181 43.5579 77.6717 41.9221 84.7063C41.0137 88.6127 39.1836 93.1574 37.1094 95.7937C38.7101 97.8867 39.3215 97.983 39.6227 97.9975C42.9017 98.1548 46.4479 90.6825 47.8377 84.7063C49.4735 77.6717 47.6078 74.9181 50.3208 71.2336C52.6144 68.1186 54.5484 69.7331 58.8374 66.2315C66.6495 59.8537 67.5983 51.2272 73.0396 51.0796C74.202 51.048 75.6071 51.4257 75.9637 50.8138C76.5988 49.7233 72.6573 47.651 72.8124 44.3693Z" fill="#EFEDEF"/>
<path d="M92.6712 22.2378C91.474 22.1341 90.3606 22.6419 89.3392 23.4012C91.4445 25.1489 92.7091 28.3796 91.7684 29.8137C90.8754 31.1745 88.5939 30.0056 87.0343 31.6745C85.6108 33.1975 86.9378 34.8825 85.5027 38.3201C84.6634 40.3307 84.1044 40.0401 83.5534 41.7758C83.0508 43.3585 83.1593 44.6836 83.2751 45.7105C83.8016 46.222 84.3774 46.5954 84.7347 46.8264C85.0062 47.0017 87.7132 48.7514 88.9118 47.8897C89.9477 47.1449 88.448 44.9906 89.4688 41.7758C90.0199 40.0401 90.5788 40.3307 91.4181 38.3201C92.8532 34.8823 91.526 33.1975 92.9495 31.6745C94.5093 30.0056 96.7907 31.1747 97.6836 29.8137C98.9692 27.8546 96.1403 22.5381 92.6712 22.2378Z" fill="#EFEDEF"/>
<path d="M22.9531 66.593C23.2366 67.6601 23.5905 68.8495 24.0279 70.2186C24.5979 72.0027 26.0866 75.1983 29.0404 81.5162C30.8574 85.4025 32.4038 88.62 34.8885 92.5479C38.2164 97.8087 39.2098 97.9773 39.6225 97.9972C42.9015 98.1546 46.4477 90.6823 47.8375 84.706C49.4732 77.6714 47.6076 74.9178 50.3206 71.2333C52.5308 68.2316 54.4069 69.6216 58.3782 66.5936L22.9531 66.593Z" fill="#57BE92"/>
<path d="M50.6005 70.8768C52.3677 68.5868 55.1339 69.1365 58.1981 66.7269C58.2575 66.6831 58.3166 66.6393 58.3767 66.5935H52.4613C48.4915 69.6191 46.6148 68.2323 44.4052 71.2332C41.692 74.9178 43.5579 77.6713 41.9221 84.7059C41.0137 88.6123 39.1836 93.1571 37.1094 95.7933C38.0574 97.033 38.6584 97.5722 39.0535 97.8088L39.0592 97.8122C39.118 97.8471 39.1722 97.8752 39.2221 97.8982L39.2307 97.9022C39.2455 97.9087 39.2596 97.9146 39.2736 97.9204C39.279 97.9227 39.2843 97.9246 39.2897 97.9267C39.3301 97.9424 39.3674 97.9545 39.402 97.964C39.4093 97.9659 39.4168 97.9681 39.4239 97.9698C39.4325 97.9719 39.4411 97.974 39.4495 97.9757C39.4579 97.9776 39.4662 97.9792 39.4744 97.9807C39.4811 97.982 39.4878 97.9834 39.4943 97.9843C39.5077 97.9866 39.5207 97.9883 39.5333 97.9899C39.5387 97.9906 39.5437 97.991 39.5488 97.9916C39.5578 97.9926 39.5666 97.9935 39.5753 97.9941C39.5795 97.9945 39.5837 97.9949 39.5879 97.995C39.6 97.996 39.6116 97.9966 39.6227 97.9971C42.9017 98.1545 46.4479 90.6822 47.8377 84.7059C49.4735 77.6713 47.6078 74.9178 50.3208 71.2332C50.4133 71.1076 50.508 70.9964 50.6005 70.8768Z" fill="#22B37F"/>
<path d="M65.5078 48.9548L61.543 38.4491C61.538 38.4357 61.5329 38.4225 61.5275 38.4093C61.2613 37.7612 60.6369 37.3428 59.9364 37.3428C59.9358 37.3428 59.9352 37.3428 59.9346 37.3428C59.2333 37.3435 58.6088 37.7635 58.3437 38.4125C58.3393 38.4235 58.335 38.4344 58.3308 38.4455L54.3297 48.9508C54.0389 49.7139 54.4221 50.5686 55.1853 50.8591C55.9484 51.1497 56.803 50.7669 57.0938 50.0035L57.7275 48.3396H62.1147L62.741 49.9993C62.9644 50.5917 63.5273 50.9565 64.1247 50.9564C64.2981 50.9564 64.4748 50.9257 64.6467 50.8608C65.4106 50.572 65.7963 49.7189 65.5078 48.9548ZM58.8538 45.3816L59.9308 42.5538L60.9981 45.3816H58.8538Z" fill="#6C7FD8"/>
<path d="M33.7564 37.1851C33.7516 37.1851 33.7466 37.1851 33.7418 37.1853C32.9251 37.1931 32.2695 37.8617 32.2774 38.6784L32.3356 44.6924L27.6059 37.8435C27.2382 37.3108 26.567 37.0794 25.9489 37.272C25.3311 37.4647 24.9102 38.0366 24.9102 38.6838V49.3193C24.9102 50.136 25.5722 50.7981 26.389 50.7981C27.2057 50.7981 27.8678 50.136 27.8678 49.3193V43.4278L32.3635 49.9383C32.7925 50.5575 33.5104 50.8197 34.1914 50.6072C34.8857 50.3902 35.3343 49.7438 35.3343 48.946L35.2348 38.6497C35.2271 37.8378 34.5666 37.1851 33.7564 37.1851Z" fill="#6C7FD8"/>
<path d="M20.8636 37.1851C20.0468 37.1851 19.3848 37.8471 19.3848 38.6639V49.3193C19.3848 50.136 20.0468 50.7981 20.8636 50.7981C21.6803 50.7981 22.3424 50.136 22.3424 49.3193V38.6639C22.3426 37.8471 21.6805 37.1851 20.8636 37.1851Z" fill="#6C7FD8"/>
<path d="M50.7815 37.1851C49.9646 37.1851 49.3027 37.8471 49.3027 38.6639V49.3193C49.3027 50.136 49.9648 50.7981 50.7815 50.7981C51.5983 50.7981 52.2603 50.136 52.2603 49.3193V38.6639C52.2603 37.8471 51.5983 37.1851 50.7815 37.1851Z" fill="#6C7FD8"/>
<path d="M41.6944 37.5002H38.7659C38.3732 37.5002 37.9967 37.6564 37.7193 37.9344C37.4418 38.2123 37.2863 38.5892 37.2871 38.9819V38.9896V38.99V49.1515C37.2871 49.2451 37.2969 49.3364 37.3135 49.4252C37.339 49.7807 37.4906 50.1166 37.7451 50.3693C38.0223 50.6443 38.3967 50.7986 38.787 50.7986H38.7925C38.8811 50.7982 40.9705 50.7902 41.806 50.7756C45.018 50.7195 47.3491 47.9328 47.3491 44.1495C47.349 40.1721 45.0766 37.5002 41.6944 37.5002ZM41.7542 47.8178C41.4073 47.8239 40.8212 47.8289 40.2606 47.8325C40.2568 46.6232 40.2522 44.9815 40.2522 44.1376C40.2522 43.4304 40.2495 41.7173 40.2474 40.4579H41.6944C44.1967 40.4579 44.3913 43.2832 44.3913 44.1491C44.3913 46.6516 43.0668 47.7948 41.7542 47.8178Z" fill="#6C7FD8"/>
</g>
<defs>
<clipPath id="clip0_544_1556">
<rect width="98" height="98" fill="white"/>
</clipPath>
</defs>
</svg>
