<svg width="52" height="52" viewBox="0 0 52 52" fill="none" xmlns="http://www.w3.org/2000/svg">
<circle cx="26" cy="26" r="25" stroke="#212529" stroke-width="1.5" stroke-linecap="round" stroke-dasharray="2 4"/>
<path d="M28.5999 20.4009V15.601C28.5999 14.6462 28.2206 13.7305 27.5455 13.0554C26.8703 12.3803 25.9547 12.001 24.9999 12.001L20 22.8009V36.0008H33.7358C34.3146 36.0074 34.8763 35.8045 35.3173 35.4296C35.7584 35.0548 36.049 34.5331 36.1358 33.9608L37.7918 23.1609C37.844 22.8169 37.8208 22.4657 37.7238 22.1316C37.6268 21.7975 37.4583 21.4885 37.2301 21.2259C37.0018 20.9634 36.7191 20.7536 36.4017 20.6112C36.0843 20.4687 35.7397 20.397 35.3918 20.4009H28.5999Z" fill="#7BE0B8"/>
<path d="M14.7029 35.1987C15.153 35.6488 17.3635 36.0017 18 36.0017V22.8018C17.3635 22.8018 15.153 22.9546 14.7029 23.4046C14.2529 23.8547 14 24.4652 14 25.1017V33.5016C14 34.1382 14.2529 34.7486 14.7029 35.1987Z" fill="#7BE0B8"/>
</svg>
