<svg width="145" height="25" viewBox="0 0 145 25" fill="none" xmlns="http://www.w3.org/2000/svg">
<g id="g11008">
<path id="path1556" d="M0 0.835342H145V25H0V0.835342Z" fill="#004C8F"/>
<path id="path1558" d="M24.1675 0.835342H145V25H24.1675V0.835342Z" fill="#004C8F"/>
<path id="path1560" d="M31.8516 18.6344V7.20078H35.6132V11.0596H39.1378V7.20078H42.9054V18.6344H39.1378V14.1983H35.6132V18.6344H31.8516Z" fill="white"/>
<path id="path1562" d="M48.8578 10.0417H49.8331C50.535 10.0417 51.0485 10.1146 51.3766 10.2604C51.6197 10.3668 51.8172 10.5248 51.9904 10.7618C52.1484 10.9958 52.276 11.2906 52.3702 11.6613C52.4553 12.0289 52.5009 12.4177 52.5009 12.8279C52.5009 13.4964 52.4097 14.0555 52.2122 14.5082C52.0208 14.9609 51.7443 15.286 51.3888 15.4866C51.0333 15.6901 50.5046 15.7874 49.8058 15.7874L48.8578 15.7935V10.0417ZM50.3101 18.6344C51.1973 18.6344 51.9327 18.5615 52.5343 18.4005C53.139 18.2455 53.6312 18.0388 54.0079 17.7927C54.3908 17.5405 54.7372 17.2003 55.0562 16.7779C55.3722 16.3404 55.6487 15.7905 55.8644 15.1159C56.0862 14.4444 56.1925 13.6878 56.1925 12.831C56.1925 11.5731 55.9526 10.5096 55.4664 9.6224C54.9742 8.75341 54.3057 8.12448 53.4519 7.75379C52.6012 7.38311 51.5863 7.20078 50.4074 7.20078H45.1782V18.6344H50.3101Z" fill="white"/>
<path id="path1564" d="M57.9155 18.6344V7.20078H66.8364V10.0205H61.6284V11.8526H65.7941V14.5963H61.6284V18.6344H57.9155Z" fill="white"/>
<path id="path1566" d="M79.4338 11.5732H75.8819C75.815 11.005 75.6084 10.5553 75.2651 10.2333C74.9187 9.91727 74.4842 9.76232 73.9494 9.76232C73.284 9.76232 72.7431 10.0206 72.3269 10.531C71.9076 11.0475 71.6979 11.8831 71.6979 13.0316C71.6979 13.8338 71.7922 14.4353 71.9653 14.8455C72.1446 15.2679 72.3968 15.5717 72.7097 15.7753C73.0318 15.9789 73.4238 16.0731 73.9069 16.0731C74.4842 16.0731 74.9461 15.9272 75.2833 15.593C75.6297 15.28 75.8302 14.8122 75.8971 14.1863H79.5128C79.4338 14.8972 79.291 15.4928 79.0843 15.9789C78.8869 16.462 78.5344 16.942 78.0574 17.4252C77.5743 17.9143 76.997 18.2911 76.3316 18.5524C75.6662 18.8168 74.8974 18.9414 74.0162 18.9414C73.1473 18.9414 72.3361 18.8168 71.6038 18.5616C70.8624 18.3003 70.2365 17.9295 69.7382 17.4647C69.2307 16.9815 68.8358 16.4407 68.5532 15.83C68.1461 14.9701 67.9546 14.0252 67.9546 12.9709C67.9546 12.0898 68.0974 11.2541 68.386 10.4884C68.6747 9.72884 69.0727 9.08163 69.5802 8.55902C70.0906 8.03944 70.6466 7.65059 71.2665 7.38928C72.0504 7.05505 72.9134 6.89404 73.8705 6.89404C74.703 6.89404 75.4747 7.01549 76.2039 7.2616C76.9301 7.50771 77.5257 7.8663 77.9906 8.34334C78.4615 8.82037 78.8231 9.36726 79.0753 9.99014C79.2576 10.4246 79.3731 10.9503 79.4338 11.5732Z" fill="white"/>
<path id="path1568" d="M91.4811 9.77438C92.0129 9.77438 92.3562 9.79865 92.5263 9.84726C92.7451 9.91107 92.9274 10.0356 93.058 10.1997C93.1917 10.3699 93.2616 10.5674 93.2616 10.7953C93.2616 11.087 93.1462 11.327 92.9244 11.5093C92.6874 11.7007 92.2833 11.7888 91.7029 11.7888H90.287V9.77438H91.4811ZM92.4261 18.6344C93.3164 18.6344 93.9423 18.5918 94.3099 18.5128C94.6715 18.4278 95.0452 18.2941 95.425 18.1179C95.7957 17.9235 96.0813 17.7411 96.2697 17.5406C96.5614 17.2702 96.7771 16.942 96.9351 16.547C97.0931 16.1489 97.1721 15.6993 97.1721 15.2162C97.1721 14.5264 97.002 13.9582 96.6556 13.4964C96.3092 13.0315 95.8443 12.7246 95.2578 12.5575C96.2514 11.9316 96.7467 11.1234 96.7467 10.139C96.7467 9.1211 96.3092 8.34322 95.4432 7.81453C94.7747 7.40738 93.7326 7.20078 92.3197 7.20078H86.647V18.6344H92.4261ZM91.8214 13.8459C92.5658 13.8459 93.049 13.937 93.2921 14.1284C93.5169 14.3137 93.6384 14.569 93.6384 14.9123C93.6384 15.2587 93.5168 15.5321 93.2707 15.7236C93.0368 15.9271 92.5476 16.0122 91.8214 16.0122H90.287V13.8459H91.8214Z" fill="white"/>
<path id="path1570" d="M105.434 14.7908H103.043L104.222 10.6312L105.434 14.7908ZM101.918 18.6344L102.353 17.1335H106.096L106.534 18.6344H110.274L106.172 7.20078H102.353L98.248 18.6344H101.918Z" fill="white"/>
<path id="path1572" d="M111.854 18.6344V7.20078H115.357L119.31 13.3233V7.20078H122.913V18.6344H119.334L115.466 12.6639V18.6344H111.854Z" fill="white"/>
<path id="path1574" d="M125.42 18.6344V7.20078H129.064V10.9715L132.464 7.20078H136.881L132.691 11.5062L137.316 18.6344H132.813L130.063 14.0798L129.064 15.0672V18.6344H125.42Z" fill="white"/>
<path id="path1576" d="M0 0.835342H24.1647V25H0V0.835342Z" fill="#ED232A"/>
<path id="path1578" d="M4.22949 5.06483H19.9382V20.7736H4.22949V5.06483Z" fill="white"/>
<path id="path1580" d="M10.8745 0.835342H13.29V25H10.8745V0.835342Z" fill="white"/>
<path id="path1582" d="M0 11.713H24.1647V14.1285H0V11.713Z" fill="white"/>
<path id="path1584" d="M8.45898 9.29438H15.7086V16.5441H8.45898V9.29438Z" fill="#004C8F"/>
</g>
</svg>
