<svg width="32" height="32" viewBox="0 0 32 32" fill="none" xmlns="http://www.w3.org/2000/svg">
<g id="Group 1000001772">
<circle id="Ellipse 1267" cx="16" cy="16" r="15.5" fill="#7BE0B8" stroke="#212529"/>
<circle id="Ellipse 1269" cx="16" cy="16" r="12.5" fill="#7BE0B8" stroke="#212529"/>
<path id="Ellipse 1272" d="M12.5 13.5C13.1069 13.5 13.6182 13.1709 13.9607 12.7142C14.303 12.2577 14.5 11.65 14.5 11C14.5 10.35 14.303 9.74227 13.9607 9.28579C13.6182 8.82915 13.1069 8.5 12.5 8.5C11.8931 8.5 11.3818 8.82915 11.0393 9.28579C10.697 9.74227 10.5 10.35 10.5 11C10.5 11.65 10.697 12.2577 11.0393 12.7142C11.3818 13.1709 11.8931 13.5 12.5 13.5Z" fill="#7BE0B8" stroke="#212529"/>
<path id="Ellipse 1273" d="M19.75 24C21.0533 24 22 22.8159 22 21.5C22 20.1841 21.0533 19 19.75 19C18.4467 19 17.5 20.1841 17.5 21.5C17.5 22.8159 18.4467 24 19.75 24Z" fill="#7BE0B8" stroke="#212529"/>
<path id="Vector 3570" d="M22.4846 8.3768C22.4165 8.10917 22.1444 7.94737 21.8768 8.01542L17.5155 9.12421C17.2479 9.19225 17.0861 9.46437 17.1542 9.73199C17.2222 9.99962 17.4943 10.1614 17.7619 10.0934L21.6386 9.10778L22.6242 12.9845C22.6923 13.2521 22.9644 13.4139 23.232 13.3458C23.4996 13.2778 23.6614 13.0057 23.5934 12.7381L22.4846 8.3768ZM16.5 17.75L16.0257 17.9081C16.0875 18.0937 16.2519 18.2262 16.4464 18.2471C16.6409 18.2681 16.8298 18.1737 16.9298 18.0055L16.5 17.75ZM15.5 14.75L15.9743 14.5919C15.9137 14.4101 15.7546 14.2789 15.5646 14.2542C15.3746 14.2294 15.1871 14.3155 15.082 14.4757L15.5 14.75ZM9.83198 22.4757C9.68047 22.7065 9.7448 23.0165 9.97567 23.168C10.2065 23.3195 10.5165 23.2552 10.668 23.0243L9.83198 22.4757ZM21.5702 8.24446L16.0702 17.4945L16.9298 18.0055L22.4298 8.75554L21.5702 8.24446ZM16.9743 17.5919L15.9743 14.5919L15.0257 14.9081L16.0257 17.9081L16.9743 17.5919ZM15.082 14.4757L9.83198 22.4757L10.668 23.0243L15.918 15.0243L15.082 14.4757Z" fill="black"/>
</g>
</svg>
