<svg width="2591" height="195" viewBox="0 0 2591 195" fill="none" xmlns="http://www.w3.org/2000/svg">
<path d="M25.0429 11.875V4L11.4804 8.8125C5.3757 11.2494 3.69699 17.1123 4.04294 19.75V30.6875C4.04294 36.6375 9.00127 37.25 11.4804 36.8125L26.7929 31.125V23.25L11.4804 28.9375V20.625C11.4804 17.475 13.2304 16.1042 14.1054 15.8125L25.0429 11.875Z" fill="#49D49D"/>
<path d="M26.793 31.125V39L40.3555 34.1875C46.4602 31.7506 48.139 25.8877 47.793 23.25V12.3125C47.793 6.3625 42.8347 5.75 40.3555 6.1875L25.043 11.875V19.75L40.3555 14.0625V22.375C40.3555 25.525 38.6055 26.8958 37.7305 27.1875L26.793 31.125Z" fill="#A882DD"/>
<path d="M52.5859 16.8C52.5859 14.5474 52.5865 12.9031 52.6924 11.6067C52.7976 10.3191 53.003 9.44087 53.3761 8.70857C54.0712 7.34439 55.1803 6.23528 56.5445 5.5402C57.2768 5.16708 58.155 4.96171 59.4426 4.8565C60.739 4.75058 62.3834 4.75 64.6359 4.75H95.0359C97.2885 4.75 98.9329 4.75058 100.229 4.8565C101.517 4.96171 102.395 5.16708 103.127 5.5402C104.492 6.23528 105.601 7.34439 106.296 8.70857C106.669 9.44087 106.874 10.3191 106.979 11.6067C107.085 12.9031 107.086 14.5474 107.086 16.8V47.2C107.086 49.4526 107.085 51.0969 106.979 52.3933C106.874 53.6809 106.669 54.5591 106.296 55.2914C105.601 56.6556 104.492 57.7647 103.127 58.4598C102.395 58.8329 101.517 59.0383 100.229 59.1435C98.9329 59.2494 97.2885 59.25 95.0359 59.25H64.6359C62.3834 59.25 60.739 59.2494 59.4426 59.1435C58.155 59.0383 57.2768 58.8329 56.5445 58.4598C55.1803 57.7647 54.0712 56.6556 53.3761 55.2914C53.003 54.5591 52.7976 53.6809 52.6924 52.3933C52.5865 51.0969 52.5859 49.4526 52.5859 47.2V16.8Z" stroke="#212529" stroke-width="1.5"/>
<path d="M79.3359 38.5C83.7542 38.5 87.3359 34.9183 87.3359 30.5C87.3359 26.0817 83.7542 22.5 79.3359 22.5C74.9177 22.5 71.3359 26.0817 71.3359 30.5C71.3359 34.9183 74.9177 38.5 79.3359 38.5Z" stroke="#212529" stroke-width="2" stroke-linecap="round" stroke-linejoin="round"/>
<path d="M89.3363 40.4984L84.9863 36.1484" stroke="#212529" stroke-width="2" stroke-linecap="round" stroke-linejoin="round"/>
<circle cx="190.512" cy="81.7656" r="50.5" fill="#F4EFFB"/>
<path d="M191.012 62.2656L191.012 102.266" stroke="#212529" stroke-width="2"/>
<path d="M199.012 93.4648C196.878 94.5315 192.292 97.7848 191.012 102.265C189.945 99.5982 186.852 94.1048 183.012 93.4648" stroke="#212529" stroke-width="2" stroke-linejoin="bevel"/>
<path d="M163.281 152.335L162.914 153.414L169.021 155.491L172.401 145.55L166.167 143.43L165.8 144.509L170.884 146.238L169.735 149.618L165.545 148.193L165.178 149.273L169.368 150.697L168.238 154.02L163.281 152.335Z" fill="white"/>
<path d="M154.469 137.251L155.209 143.934L149.543 146.529L150.808 147.248L155.32 145.136L155.83 150.1L157.082 150.811L156.422 144.623L162.542 141.837L161.238 141.096L156.298 143.414L155.76 137.984L154.469 137.251Z" fill="white"/>
<path d="M141.151 140.005L143.881 142.329L150.689 134.335L149.764 133.547L146.865 136.95L145.221 135.55C143.554 134.13 141.669 134.515 140.628 135.737C139.636 136.902 139.507 138.604 141.151 140.005ZM146.146 137.796L143.675 140.696L141.894 139.179C140.9 138.333 140.952 137.254 141.584 136.512C142.255 135.724 143.405 135.461 144.467 136.366L146.146 137.796Z" fill="white"/>
<path d="M140.679 126.267L133.492 132.264L134.271 133.197L142.333 126.469L138.431 121.793L137.556 122.524L140.679 126.267Z" fill="white"/>
<path d="M124.129 119.002C125.597 121.687 128.729 122.539 131.493 121.028C134.257 119.518 135.231 116.421 133.763 113.736C132.296 111.051 129.17 110.212 126.406 111.723C123.642 113.234 122.661 116.317 124.129 119.002ZM130.896 119.936C128.711 121.13 126.259 120.522 125.129 118.456C124 116.389 124.812 113.997 126.996 112.802C129.181 111.608 131.634 112.216 132.763 114.283C133.893 116.349 133.081 118.742 130.896 119.936Z" fill="white"/>
<path d="M118.393 104.38L119.427 107.813L129.481 104.785L129.131 103.622L124.649 104.971L124.066 103.032L127.747 99.0256L127.336 97.6611L123.471 101.942C122.692 100.657 121.343 100.233 120.151 100.592C118.743 101.016 117.766 102.298 118.393 104.38ZM123.615 105.283L120.14 106.329L119.499 104.204C119.11 102.911 119.658 102.025 120.635 101.731C121.554 101.454 122.599 101.907 122.979 103.171L123.615 105.283Z" fill="white"/>
<path d="M116.514 87.4687L115.381 87.5938L116.089 94.0049L126.526 92.8526L125.803 86.3074L124.67 86.4325L125.259 91.7701L121.711 92.1618L121.225 87.7635L120.092 87.8887L120.578 92.2869L117.089 92.6721L116.514 87.4687Z" fill="white"/>
<path d="M119.082 58.915C118.125 61.8215 119.643 64.6905 122.635 65.6757C125.627 66.6609 128.554 65.2556 129.511 62.3492C130.468 59.4427 128.944 56.5879 125.952 55.6027C122.96 54.6175 120.039 56.0086 119.082 58.915ZM123.025 64.4932C120.66 63.7144 119.428 61.5084 120.164 59.2716C120.901 57.0347 123.203 55.9923 125.568 56.771C127.933 57.5498 129.165 59.7558 128.428 61.9926C127.691 64.2295 125.39 65.2719 123.025 64.4932Z" fill="white"/>
<path d="M127.398 42.0861L133.266 45.5413C134.74 46.4089 135.11 47.8799 134.25 49.3405C133.39 50.8012 131.924 51.1915 130.451 50.3239L124.582 46.8687L123.966 47.9157L129.86 51.3861C131.876 52.5734 133.989 52.0593 135.245 49.9265C136.501 47.7938 135.925 45.6967 133.909 44.5095L128.015 41.0391L127.398 42.0861Z" fill="white"/>
<path d="M134.836 32.5012L132.452 35.1792L140.296 42.1599L141.104 41.2524L137.608 38.1409L138.954 36.6283L144.295 37.6668L145.242 36.6023L139.571 35.5511C140.258 34.215 139.913 32.8432 138.983 32.0155C137.885 31.0382 136.282 30.8765 134.836 32.5012ZM136.801 37.4229L134.089 35.0096L135.565 33.3512C136.463 32.3428 137.504 32.3459 138.266 33.0241C138.983 33.6623 139.144 34.7898 138.267 35.7758L136.801 37.4229Z" fill="white"/>
<path d="M160.042 14.1824L156.781 15.6706L161.139 25.2232L162.245 24.7188L160.302 20.4611L162.144 19.6205L166.612 22.7263L167.908 22.1348L163.144 18.8842C164.312 17.939 164.55 16.5446 164.033 15.4119C163.423 14.0746 162.021 13.2796 160.042 14.1824ZM159.854 19.4786L158.347 16.1761L160.367 15.2545C161.595 14.6941 162.546 15.1174 162.97 16.0453C163.368 16.9187 163.061 18.0153 161.86 18.5632L159.854 19.4786Z" fill="white"/>
<path d="M179.627 18.9697L180.896 18.6685L174.415 9.41452L173.292 9.68111L171.643 20.8635L172.913 20.5623L173.339 17.5477L177.892 16.4675L179.627 18.9697ZM173.502 16.3527L174.213 11.0966L177.224 15.4698L173.502 16.3527Z" fill="white"/>
<path d="M192.468 7.53917L192.684 16.1314L186.439 7.69099L185.105 7.7246L185.369 18.2213L186.584 18.1907L186.369 9.65839L192.612 18.0389L193.947 18.0053L193.682 7.50858L192.468 7.53917Z" fill="white"/>
<path d="M204.501 15.1283L207.418 15.6858L206.953 18.1168C206.25 18.517 205.314 18.781 204.18 18.5642C202.073 18.1615 200.499 16.4098 201.042 13.5663C201.583 10.7375 203.709 9.60142 205.757 9.99284C207.024 10.235 208.049 11.0264 208.515 12.261L209.62 11.7543C208.962 10.1625 207.695 9.20257 206.059 8.89C203.275 8.35779 200.473 9.91444 199.817 13.3473C199.248 16.3234 200.595 19.0243 203.821 19.641C205.501 19.962 206.827 19.5741 208.039 18.8283L208.808 14.8061L204.712 14.0233L204.501 15.1283Z" fill="white"/>
<path d="M222.334 15.6101L222.761 14.5532L216.781 12.1368L212.848 21.8722L218.953 24.3391L219.38 23.2821L214.401 21.2704L215.739 17.9603L219.841 19.6181L220.268 18.5611L216.166 16.9034L217.481 13.649L222.334 15.6101Z" fill="white"/>
<path d="M246.258 31.406C244.152 29.1854 240.906 29.1625 238.62 31.3297C236.334 33.497 236.184 36.7398 238.289 38.9604C240.395 41.181 243.63 41.193 245.916 39.0258C248.202 36.8585 248.363 33.6267 246.258 31.406ZM239.477 32.2332C241.284 30.5201 243.81 30.4813 245.43 32.1904C247.05 33.8994 246.877 36.42 245.07 38.1332C243.263 39.8463 240.737 39.8851 239.117 38.1761C237.496 36.467 237.67 33.9464 239.477 32.2332Z" fill="white"/>
<path d="M251.653 48.8606L252.62 48.2577L250.28 44.5023L253.297 42.622L256.066 47.0649L257.033 46.4619L253.622 40.9879L244.711 46.5414L245.353 47.5725L249.312 45.1052L251.653 48.8606Z" fill="white"/>
<path d="M265.676 72.5046L265.124 68.9622L254.749 70.5773L254.936 71.7779L259.353 71.0903L259.685 73.2246C260.022 75.3885 261.701 76.3264 263.287 76.0795C264.799 75.8442 266.008 74.6389 265.676 72.5046ZM260.45 70.9196L264.215 70.3335L264.575 72.6457C264.775 73.9351 264.032 74.7188 263.069 74.8688C262.046 75.028 261.004 74.4767 260.789 73.0983L260.45 70.9196Z" fill="white"/>
<path d="M266.376 85.83L266.477 82.2464L255.981 81.9511L255.947 83.1656L260.625 83.2972L260.568 85.3214L255.812 87.9637L255.772 89.3882L260.789 86.5431C261.123 88.0081 262.27 88.8357 263.515 88.8707C264.984 88.912 266.315 88.0041 266.376 85.83ZM261.705 83.3276L265.334 83.4297L265.271 85.6488C265.233 86.9983 264.434 87.6661 263.414 87.6374C262.455 87.6104 261.606 86.8512 261.643 85.5317L261.705 83.3276Z" fill="white"/>
<path d="M264.434 101.387C265.149 98.4117 263.399 95.6772 260.337 94.9411C257.274 94.205 254.473 95.8459 253.758 98.8212C253.043 101.796 254.796 104.516 257.858 105.252C260.921 105.989 263.719 104.362 264.434 101.387ZM260.046 96.1516C262.467 96.7335 263.876 98.8308 263.325 101.121C262.775 103.41 260.567 104.638 258.146 104.057C255.725 103.475 254.316 101.377 254.866 99.0876C255.416 96.7978 257.625 95.5697 260.046 96.1516Z" fill="white"/>
<path d="M250.95 108.318L249.547 111.222C247.956 114.518 249.564 117.327 251.955 118.481C254.292 119.61 257.398 119.111 258.964 115.869L260.405 112.884L250.95 108.318ZM251.448 109.908L258.85 113.482L257.944 115.36C256.743 117.845 254.3 118.248 252.436 117.348C250.572 116.447 249.328 114.298 250.541 111.785L251.448 109.908Z" fill="white"/>
<path d="M249.039 131.454L243.623 127.325C242.263 126.289 242.071 124.784 243.098 123.436C244.126 122.088 245.628 121.875 246.988 122.911L252.403 127.04L253.14 126.074L247.7 121.927C245.839 120.508 243.68 120.767 242.18 122.736C240.679 124.704 241.001 126.855 242.862 128.273L248.302 132.42L249.039 131.454Z" fill="white"/>
<path d="M233.228 133.735C234.773 132.403 237.177 132.25 239.038 134.408C240.87 136.533 240.492 138.919 238.879 140.31C237.903 141.153 236.626 141.441 235.38 141.03L235.099 142.243C236.723 142.725 238.306 142.31 239.567 141.222C241.714 139.371 242.223 136.218 239.94 133.571C237.854 131.152 234.838 130.802 232.555 132.771C230.998 134.113 230.425 135.974 231.069 138.053L232.199 137.733C231.696 136.185 232.069 134.734 233.228 133.735Z" fill="white"/>
<path d="M226.428 148.505L223.274 150.271L223.83 151.266L231.2 147.141L230.643 146.146L227.488 147.912L222.917 139.744L221.856 140.338L226.428 148.505Z" fill="white"/>
<path d="M212.068 153.615L211.572 154.671C212.605 155.286 213.839 155.374 214.96 154.992C216.721 154.393 217.737 152.812 217.123 151.009C216.52 149.234 214.911 149.163 213.147 149.192C211.838 149.21 210.605 149.217 210.218 148.081C209.89 147.115 210.42 146.158 211.642 145.743C212.607 145.415 213.775 145.493 214.742 146.194L215.314 145.081C214.033 144.249 212.534 144.22 211.341 144.626C209.58 145.224 208.465 146.744 209.102 148.619C209.706 150.394 211.271 150.432 212.998 150.384C214.307 150.366 215.606 150.368 216.022 151.589C216.374 152.626 215.753 153.503 214.645 153.879C213.808 154.164 212.849 154.094 212.068 153.615Z" fill="white"/>
<circle cx="329.012" cy="59" r="55" fill="white"/>
<circle cx="329.405" cy="58.6027" r="20.8214" fill="#F2F5FA"/>
<path d="M329.011 13.4297C303.842 13.4297 283.439 33.8327 283.439 59.0011C283.439 77.2471 294.163 92.9886 309.651 100.268C296.434 93.6088 287.368 79.9172 287.368 64.1083C287.368 41.7605 305.484 23.644 327.832 23.644C338.148 23.644 347.562 27.5039 354.709 33.8583L361.618 27.1651C353.343 18.6907 341.791 13.4297 329.011 13.4297Z" fill="url(#paint0_linear_10516_16801)"/>
<path d="M325.771 51.5368L363.878 24.4297C355.759 35.8225 338.578 59.7868 334.807 64.5011C332.097 67.8878 328.415 67.4223 325.682 66.1633C323.785 65.2897 322.244 63.6947 321.582 61.7144C319.929 56.769 323.442 52.9787 325.771 51.5368Z" fill="#2D2D2D"/>
<path d="M388.012 9H413.012" stroke="white" stroke-width="1.5"/>
<path d="M407.512 4C408.178 5.33333 410.212 8.2 413.012 9C411.345 9.66667 407.912 11.6 407.512 14" stroke="white" stroke-width="1.5" stroke-linejoin="bevel"/>
<rect x="422.806" y="9.79688" width="33.7059" height="21.3529" rx="3.5" fill="#9C68E7" stroke="white"/>
<path d="M425.247 21.9375H430.835" stroke="white"/>
<path d="M432.306 21.9375H437.894" stroke="white"/>
<path d="M439.953 21.9375H445.541" stroke="white"/>
<path d="M447.6 21.9375H453.188" stroke="white"/>
<path d="M451.718 9.29412V8C451.718 5.79086 449.927 4 447.718 4H421.012C418.803 4 417.012 5.79086 417.012 8V22.3529C417.012 24.5621 418.803 26.3529 421.012 26.3529H422.6" stroke="white"/>
<rect x="425.747" y="14.5" width="4.88235" height="3.11765" stroke="white"/>
<circle cx="557.35" cy="22" r="18" fill="#9C68E7"/>
<path d="M560.574 18.9376V19.3048H563.361V20.7304H560.466C560.337 21.724 560.049 22.5016 559.602 23.0632C559.17 23.6248 558.537 24.028 557.702 24.2728C556.881 24.5176 555.786 24.64 554.418 24.64V26.3464C554.418 28.2904 555.268 29.2624 556.967 29.2624C558.638 29.2624 559.473 28.3264 559.473 26.4544H561.287C561.273 27.8944 560.891 28.9816 560.142 29.716C559.394 30.4504 558.328 30.8176 556.946 30.8176C555.52 30.8176 554.433 30.4216 553.684 29.6296C552.95 28.8376 552.582 27.7288 552.582 26.3032V23.2576C554.224 23.2576 555.434 23.2072 556.211 23.1064C557.003 22.9912 557.579 22.7608 557.939 22.4152C558.299 22.0552 558.53 21.4936 558.63 20.7304H551.61V19.3048H558.717V18.916V16.972H551.61V15.5248H563.361V16.972H560.574V18.9376Z" fill="white"/>
<circle cx="557.35" cy="22" r="14.5" stroke="white"/>
<path d="M609.822 4H615.325L615.345 4.92163C615.409 7.92602 614.903 12.3555 613.101 15.8176C612.193 17.5603 610.929 19.1123 609.189 20.0803C608.059 20.7089 606.767 21.07 605.306 21.1016" stroke="white"/>
<path d="M584.878 4H579.375L579.355 4.92163C579.291 7.92602 579.797 12.3555 581.6 15.8176C582.507 17.5603 583.772 19.1123 585.512 20.0803C586.641 20.7089 587.934 21.07 589.395 21.1016" stroke="white"/>
<path d="M584.829 4H609.482C609.604 10.5567 607.844 22.7421 600.356 25.31V31.6497H600.095C602.347 31.6556 604.17 33.4828 604.17 35.7358L605.532 35.7358C606.435 35.7358 607.167 36.4676 607.167 37.3703H586.736C586.736 36.4676 587.468 35.7358 588.37 35.7358L589.46 35.7358C589.46 33.4791 591.29 31.6497 593.546 31.6497L593.819 31.6497V25.2494C585.683 22.538 584.829 10.3509 584.829 4Z" fill="#9C68E7" stroke="white"/>
<path d="M620.342 35.6152L622.701 14.4531H646.801L649.401 35.5754C649.658 37.6623 648.03 39.503 645.927 39.503H623.82C621.734 39.503 620.111 37.6889 620.342 35.6152Z" fill="#9C68E7" stroke="white"/>
<path d="M638.35 23L630.35 32" stroke="white"/>
<circle cx="631.35" cy="24" r="1" fill="white"/>
<circle cx="638.35" cy="30" r="1" fill="white"/>
<path d="M639.999 16.45V9.13421C639.999 6.29866 637.683 4 634.824 4C631.966 4 629.649 6.29866 629.649 9.13421V16.45" stroke="white" stroke-width="0.9" stroke-linecap="round"/>
<path d="M665.45 22V40" stroke="white"/>
<path d="M659.45 40H670.45" stroke="white"/>
<path d="M665.45 3.5C659.099 3.5 653.95 8.64873 653.95 15V23.0909C653.95 24.4214 655.029 25.5 656.359 25.5H674.541C675.872 25.5 676.95 24.4214 676.95 23.0909V15C676.95 8.64873 671.801 3.5 665.45 3.5Z" fill="#9C68E7" stroke="white"/>
<path d="M677.45 34.5H677.95V34V31.56C677.95 29.87 676.58 28.5 674.89 28.5H657.01C655.32 28.5 653.95 29.87 653.95 31.56V34V34.5H654.45H677.45Z" fill="#844FCF" stroke="white"/>
<mask id="path-62-outside-1_10516_16801" maskUnits="userSpaceOnUse" x="459.012" y="2" width="38" height="39" fill="black">
<rect fill="white" x="459.012" y="2" width="38" height="39"/>
<path fill-rule="evenodd" clip-rule="evenodd" d="M495.143 4.01621L492.953 5.14105C490.17 6.56997 487.644 8.45044 485.477 10.7059L483.51 12.7763L466.466 7.32592C466.395 7.30328 466.318 7.30942 466.252 7.34301L462.559 9.21304C462.351 9.31845 462.353 9.61628 462.562 9.71923L474.42 15.5503C474.454 15.5671 474.484 15.5906 474.509 15.6193L477.507 19.0923L476.058 20.6163C474.733 21.9957 473.551 23.5059 472.531 25.1238L469.65 29.6908L462.384 28.2832C462.334 28.2738 462.284 28.2908 462.251 28.3281L461.047 29.6822C460.985 29.752 461.007 29.8617 461.091 29.903L467.518 33.0709L466.97 33.9405C466.802 34.2068 467.129 34.507 467.38 34.3169L468.184 33.7076L471.67 39.9262C471.718 40.011 471.835 40.0237 471.899 39.951L473.097 38.6029C473.129 38.5676 473.14 38.5191 473.129 38.4735L471.286 31.3576L476.056 27.7441C477.383 26.7386 478.619 25.6179 479.749 24.395L481.45 22.5172L484.387 24.4015C484.422 24.4245 484.453 24.4553 484.475 24.4916L491.96 36.6851C492.082 36.8844 492.38 36.8576 492.464 36.6397L493.889 32.976C493.915 32.9081 493.915 32.8326 493.887 32.7653L487.078 16.3009L489.398 13.7397C491.37 11.6056 493.001 9.18043 494.235 6.54947L495.335 4.20207C495.393 4.07994 495.263 3.95459 495.143 4.01621Z"/>
</mask>
<path fill-rule="evenodd" clip-rule="evenodd" d="M495.143 4.01621L492.953 5.14105C490.17 6.56997 487.644 8.45044 485.477 10.7059L483.51 12.7763L466.466 7.32592C466.395 7.30328 466.318 7.30942 466.252 7.34301L462.559 9.21304C462.351 9.31845 462.353 9.61628 462.562 9.71923L474.42 15.5503C474.454 15.5671 474.484 15.5906 474.509 15.6193L477.507 19.0923L476.058 20.6163C474.733 21.9957 473.551 23.5059 472.531 25.1238L469.65 29.6908L462.384 28.2832C462.334 28.2738 462.284 28.2908 462.251 28.3281L461.047 29.6822C460.985 29.752 461.007 29.8617 461.091 29.903L467.518 33.0709L466.97 33.9405C466.802 34.2068 467.129 34.507 467.38 34.3169L468.184 33.7076L471.67 39.9262C471.718 40.011 471.835 40.0237 471.899 39.951L473.097 38.6029C473.129 38.5676 473.14 38.5191 473.129 38.4735L471.286 31.3576L476.056 27.7441C477.383 26.7386 478.619 25.6179 479.749 24.395L481.45 22.5172L484.387 24.4015C484.422 24.4245 484.453 24.4553 484.475 24.4916L491.96 36.6851C492.082 36.8844 492.38 36.8576 492.464 36.6397L493.889 32.976C493.915 32.9081 493.915 32.8326 493.887 32.7653L487.078 16.3009L489.398 13.7397C491.37 11.6056 493.001 9.18043 494.235 6.54947L495.335 4.20207C495.393 4.07994 495.263 3.95459 495.143 4.01621Z" fill="#9C68E7"/>
<path d="M492.953 5.14105L492.496 4.25151V4.25151L492.953 5.14105ZM495.143 4.01621L495.6 4.90576V4.90576L495.143 4.01621ZM485.477 10.7059L484.756 10.0131L484.753 10.017L485.477 10.7059ZM483.51 12.7763L483.205 13.7287L483.802 13.9198L484.234 13.4652L483.51 12.7763ZM466.466 7.32592L466.77 6.37344L466.466 7.32592ZM466.252 7.34301L466.703 8.2351L466.703 8.2351L466.252 7.34301ZM462.559 9.21304L463.011 10.1051L463.011 10.1051L462.559 9.21304ZM462.562 9.71923L462.121 10.6166L462.121 10.6166L462.562 9.71923ZM474.42 15.5503L474.861 14.653L474.861 14.653L474.42 15.5503ZM474.509 15.6193L473.752 16.2727L473.752 16.2727L474.509 15.6193ZM477.507 19.0923L478.231 19.7812L478.856 19.1246L478.264 18.4389L477.507 19.0923ZM476.058 20.6163L476.779 21.3091L476.783 21.3052L476.058 20.6163ZM472.531 25.1238L471.685 24.5904L472.531 25.1238ZM469.65 29.6908L469.46 30.6725L470.131 30.8025L470.496 30.2242L469.65 29.6908ZM462.384 28.2832L462.574 27.3015L462.574 27.3015L462.384 28.2832ZM462.251 28.3281L461.503 27.6638L461.503 27.6638L462.251 28.3281ZM461.047 29.6822L461.795 30.3465H461.795L461.047 29.6822ZM461.091 29.903L460.649 30.8L460.649 30.8L461.091 29.903ZM467.518 33.0709L468.364 33.6044L468.957 32.6649L467.96 32.1739L467.518 33.0709ZM466.97 33.9405L467.816 34.474L466.97 33.9405ZM467.38 34.3169L466.776 33.5198L467.38 34.3169ZM468.184 33.7076L469.057 33.2186L468.495 32.2174L467.58 32.9105L468.184 33.7076ZM471.67 39.9262L472.542 39.4373L472.542 39.4372L471.67 39.9262ZM471.899 39.951L471.152 39.2867L471.152 39.2867L471.899 39.951ZM473.097 38.6029L472.35 37.9385L472.35 37.9385L473.097 38.6029ZM473.129 38.4735L472.161 38.7241L472.161 38.7241L473.129 38.4735ZM471.286 31.3576L470.682 30.5605L470.151 30.963L470.318 31.6083L471.286 31.3576ZM476.056 27.7441L475.452 26.947L476.056 27.7441ZM479.749 24.395L480.484 25.0738L480.49 25.0662L479.749 24.395ZM481.45 22.5172L481.99 21.6755L481.277 21.2182L480.708 21.846L481.45 22.5172ZM484.387 24.4015L483.847 25.2432L483.847 25.2432L484.387 24.4015ZM484.475 24.4916L483.623 25.0147L483.623 25.0148L484.475 24.4916ZM491.96 36.6851L491.108 37.2083L491.108 37.2083L491.96 36.6851ZM492.464 36.6397L491.532 36.2773L491.532 36.2773L492.464 36.6397ZM493.889 32.976L492.957 32.6135L492.957 32.6135L493.889 32.976ZM493.887 32.7653L494.811 32.3832L494.811 32.3832L493.887 32.7653ZM487.078 16.3009L486.337 15.6296L485.913 16.0985L486.154 16.683L487.078 16.3009ZM489.398 13.7397L488.663 13.061L488.656 13.0685L489.398 13.7397ZM494.235 6.54947L493.329 6.12496V6.12496L494.235 6.54947ZM495.335 4.20207L496.241 4.62658V4.62658L495.335 4.20207ZM493.409 6.03059L495.6 4.90576L494.686 3.12667L492.496 4.25151L493.409 6.03059ZM486.198 11.3987C488.289 9.22299 490.726 7.409 493.409 6.03059L492.496 4.25151C489.615 5.73094 487 7.67789 484.756 10.0131L486.198 11.3987ZM484.234 13.4652L486.202 11.3948L484.753 10.017L482.785 12.0873L484.234 13.4652ZM483.814 11.8238L466.77 6.37344L466.161 8.27841L483.205 13.7287L483.814 11.8238ZM466.77 6.37344C466.449 6.27076 466.1 6.29859 465.8 6.45091L466.703 8.2351C466.535 8.32025 466.34 8.3358 466.161 8.27841L466.77 6.37344ZM465.8 6.45091L462.108 8.32095L463.011 10.1051L466.703 8.2351L465.8 6.45091ZM462.108 8.32095C461.164 8.79899 461.172 10.1497 462.121 10.6166L463.004 8.82187C463.534 9.08286 463.539 9.83791 463.011 10.1051L462.108 8.32095ZM462.121 10.6166L473.978 16.4477L474.861 14.653L463.004 8.82187L462.121 10.6166ZM473.978 16.4477C473.892 16.4052 473.815 16.3457 473.752 16.2727L475.266 14.9659C475.153 14.8355 475.016 14.729 474.861 14.653L473.978 16.4477ZM473.752 16.2727L476.75 19.7457L478.264 18.4389L475.266 14.9659L473.752 16.2727ZM476.783 21.3052L478.231 19.7812L476.782 18.4034L475.333 19.9274L476.783 21.3052ZM473.376 25.6573C474.361 24.0966 475.501 22.6397 476.779 21.3091L475.337 19.9235C473.965 21.3516 472.741 22.9152 471.685 24.5904L473.376 25.6573ZM470.496 30.2242L473.376 25.6573L471.685 24.5904L468.804 29.1573L470.496 30.2242ZM469.84 28.709L462.574 27.3015L462.193 29.265L469.46 30.6725L469.84 28.709ZM462.574 27.3015C462.178 27.2249 461.771 27.3626 461.503 27.6638L462.998 28.9925C462.797 29.2191 462.491 29.3226 462.193 29.265L462.574 27.3015ZM461.503 27.6638L460.3 29.0179L461.795 30.3465L462.998 28.9925L461.503 27.6638ZM460.3 29.0179C459.799 29.5813 459.972 30.4668 460.649 30.8L461.533 29.0061C462.041 29.2567 462.172 29.9227 461.795 30.3465L460.3 29.0179ZM460.649 30.8L467.076 33.9679L467.96 32.1739L461.533 29.006L460.649 30.8ZM467.816 34.474L468.364 33.6044L466.672 32.5374L466.124 33.4071L467.816 34.474ZM466.776 33.5198C467.412 33.0379 468.241 33.7991 467.816 34.474L466.124 33.4071C465.363 34.6145 466.846 35.976 467.984 35.114L466.776 33.5198ZM467.58 32.9105L466.776 33.5198L467.984 35.114L468.788 34.5047L467.58 32.9105ZM467.312 34.1966L470.798 40.4152L472.542 39.4372L469.057 33.2186L467.312 34.1966ZM470.798 40.4152C471.182 41.0996 472.125 41.2019 472.647 40.6153L471.152 39.2867C471.544 38.8456 472.254 38.9224 472.542 39.4373L470.798 40.4152ZM472.647 40.6153L473.845 39.2672L472.35 37.9385L471.152 39.2867L472.647 40.6153ZM473.845 39.2672C474.098 38.9828 474.192 38.5911 474.097 38.2228L472.161 38.7241C472.089 38.4471 472.16 38.1525 472.35 37.9385L473.845 39.2672ZM474.097 38.2228L472.254 31.1069L470.318 31.6083L472.161 38.7241L474.097 38.2228ZM475.452 26.947L470.682 30.5605L471.89 32.1547L476.66 28.5412L475.452 26.947ZM479.015 23.7163C477.925 24.896 476.732 25.9771 475.452 26.947L476.66 28.5412C478.034 27.5001 479.314 26.3398 480.484 25.0737L479.015 23.7163ZM480.708 21.846L479.008 23.7238L480.49 25.0662L482.191 23.1884L480.708 21.846ZM480.91 23.3588L483.847 25.2432L484.927 23.5599L481.99 21.6755L480.91 23.3588ZM483.847 25.2432C483.756 25.1849 483.679 25.1068 483.623 25.0147L485.327 23.9685C485.226 23.8038 485.089 23.6642 484.927 23.5599L483.847 25.2432ZM483.623 25.0148L491.108 37.2083L492.812 36.162L485.327 23.9685L483.623 25.0148ZM491.108 37.2083C491.662 38.1122 493.012 37.9906 493.396 37.0021L491.532 36.2773C491.747 35.7247 492.502 35.6567 492.812 36.162L491.108 37.2083ZM493.396 37.0021L494.821 33.3384L492.957 32.6135L491.532 36.2773L493.396 37.0021ZM494.821 33.3384C494.941 33.0305 494.937 32.6884 494.811 32.3832L492.963 33.1475C492.892 32.9769 492.89 32.7856 492.957 32.6135L494.821 33.3384ZM494.811 32.3832L488.003 15.9187L486.154 16.683L492.963 33.1475L494.811 32.3832ZM488.656 13.0685L486.337 15.6296L487.82 16.9721L490.139 14.4109L488.656 13.0685ZM493.329 6.12496C492.14 8.66291 490.566 11.0024 488.663 13.061L490.132 14.4184C492.174 12.2089 493.863 9.69795 495.14 6.97398L493.329 6.12496ZM494.43 3.77756L493.329 6.12496L495.14 6.97398L496.241 4.62658L494.43 3.77756ZM495.6 4.90576C494.871 5.27986 494.082 4.51892 494.43 3.77756L496.241 4.62658C496.703 3.64095 495.654 2.62932 494.686 3.12667L495.6 4.90576Z" fill="white" mask="url(#path-62-outside-1_10516_16801)"/>
<path d="M499.85 8C499.85 6.067 501.417 4.5 503.35 4.5H529.386C531.319 4.5 532.886 6.067 532.886 8V28.2182C532.886 30.1512 531.319 31.7182 529.386 31.7182H503.35C501.417 31.7182 499.85 30.1512 499.85 28.2182V8Z" fill="#9C68E7" stroke="white"/>
<path d="M523.35 12.5C520.312 12.5 517.85 14.9624 517.85 18C517.85 21.0376 520.312 23.5 523.35 23.5H530.35C533.387 23.5 535.85 21.0376 535.85 18C535.85 14.9624 533.387 12.5 530.35 12.5H523.35Z" fill="#844FCF" stroke="white"/>
<circle cx="523.35" cy="18" r="2.5" fill="#9C68E7" stroke="white"/>
<path fill-rule="evenodd" clip-rule="evenodd" d="M1600.92 5C1592.08 5 1584.92 12.1634 1584.92 21C1584.92 29.8366 1592.08 37 1600.92 37C1609.75 37 1616.92 29.8366 1616.92 21C1616.92 12.1634 1609.75 5 1600.92 5ZM1602.59 21.7028V30.4077H1598.98V21.7031H1597.18V18.7034H1598.98V16.9024C1598.98 14.4552 1600 13 1602.89 13H1605.29V16.0001H1603.79C1602.66 16.0001 1602.59 16.4193 1602.59 17.2017L1602.59 18.7031H1605.31L1604.99 21.7028H1602.59Z" fill="#A29FAD"/>
<path fill-rule="evenodd" clip-rule="evenodd" d="M1636.92 4C1628.08 4 1620.92 11.1634 1620.92 20C1620.92 28.8366 1628.08 36 1636.92 36C1645.75 36 1652.92 28.8366 1652.92 20C1652.92 11.1634 1645.75 4 1636.92 4ZM1633.4 11.5203C1634.31 11.4789 1634.6 11.4688 1636.92 11.4688H1636.92C1639.23 11.4688 1639.52 11.4789 1640.43 11.5203C1641.34 11.5619 1641.96 11.7057 1642.51 11.9168C1643.07 12.1345 1643.54 12.4261 1644.02 12.9008C1644.49 13.3751 1644.78 13.8512 1645 14.4124C1645.21 14.955 1645.36 15.5751 1645.4 16.4836C1645.44 17.3938 1645.45 17.6846 1645.45 20.0022C1645.45 22.3197 1645.44 22.6098 1645.4 23.5201C1645.36 24.4282 1645.21 25.0484 1645 25.5912C1644.78 26.1523 1644.49 26.6284 1644.02 27.1027C1643.54 27.5774 1643.07 27.8696 1642.51 28.0876C1641.96 28.2986 1641.34 28.4424 1640.44 28.484C1639.53 28.5255 1639.24 28.5356 1636.92 28.5356C1634.6 28.5356 1634.31 28.5255 1633.4 28.484C1632.49 28.4424 1631.87 28.2986 1631.33 28.0876C1630.77 27.8696 1630.29 27.5774 1629.82 27.1027C1629.34 26.6284 1629.05 26.1523 1628.83 25.591C1628.62 25.0484 1628.48 24.4283 1628.44 23.5199C1628.4 22.6097 1628.38 22.3197 1628.38 20.0022C1628.38 17.6846 1628.4 17.3936 1628.44 16.4834C1628.48 15.5753 1628.62 14.955 1628.83 14.4122C1629.05 13.8512 1629.34 13.3751 1629.82 12.9008C1630.29 12.4263 1630.77 12.1347 1631.33 11.9168C1631.87 11.7057 1632.49 11.5619 1633.4 11.5203Z" fill="#A29FAD"/>
<path fill-rule="evenodd" clip-rule="evenodd" d="M1636.15 13.0021C1636.3 13.0019 1636.46 13.002 1636.63 13.002L1636.92 13.0021C1639.2 13.0021 1639.47 13.0103 1640.37 13.0512C1641.2 13.0892 1641.65 13.2283 1641.95 13.3451C1642.35 13.4997 1642.63 13.6846 1642.93 13.9833C1643.23 14.282 1643.42 14.5664 1643.57 14.9646C1643.69 15.2651 1643.83 15.7167 1643.86 16.5487C1643.91 17.4482 1643.91 17.7184 1643.91 19.9958C1643.91 22.2732 1643.91 22.5434 1643.86 23.443C1643.83 24.275 1643.69 24.7265 1643.57 25.027C1643.42 25.4252 1643.23 25.7088 1642.93 26.0072C1642.63 26.3059 1642.35 26.4908 1641.95 26.6455C1641.65 26.7628 1641.2 26.9015 1640.37 26.9395C1639.47 26.9804 1639.2 26.9893 1636.92 26.9893C1634.64 26.9893 1634.37 26.9804 1633.47 26.9395C1632.64 26.9011 1632.19 26.7621 1631.89 26.6453C1631.49 26.4906 1631.2 26.3057 1630.9 26.0071C1630.61 25.7084 1630.42 25.4247 1630.27 25.0263C1630.15 24.7258 1630.01 24.2743 1629.97 23.4422C1629.93 22.5427 1629.92 22.2725 1629.92 19.9937C1629.92 17.7149 1629.93 17.4461 1629.97 16.5465C1630.01 15.7145 1630.15 15.263 1630.27 14.9622C1630.42 14.5639 1630.61 14.2795 1630.9 13.9808C1631.2 13.6821 1631.49 13.4972 1631.89 13.3422C1632.19 13.2249 1632.64 13.0862 1633.47 13.048C1634.26 13.0124 1634.56 13.0018 1636.15 13V13.0021ZM1641.47 14.4222C1640.91 14.4222 1640.45 14.8804 1640.45 15.4459C1640.45 16.0112 1640.91 16.4699 1641.47 16.4699C1642.04 16.4699 1642.5 16.0112 1642.5 15.4459C1642.5 14.8805 1642.04 14.4219 1641.47 14.4219V14.4222ZM1632.54 19.9995C1632.54 17.5794 1634.5 15.6173 1636.92 15.6172C1639.34 15.6172 1641.3 17.5793 1641.3 19.9995C1641.3 22.4196 1639.34 24.3808 1636.92 24.3808C1634.5 24.3808 1632.54 22.4196 1632.54 19.9995Z" fill="#A29FAD"/>
<path d="M1636.92 17.1562C1638.49 17.1562 1639.76 18.4297 1639.76 20.0007C1639.76 21.5716 1638.49 22.8452 1636.92 22.8452C1635.35 22.8452 1634.07 21.5716 1634.07 20.0007C1634.07 18.4297 1635.35 17.1562 1636.92 17.1562Z" fill="#A29FAD"/>
<path fill-rule="evenodd" clip-rule="evenodd" d="M1672.92 4C1664.08 4 1656.92 11.1634 1656.92 20C1656.92 28.8366 1664.08 36 1672.92 36C1681.75 36 1688.92 28.8366 1688.92 20C1688.92 11.1634 1681.75 4 1672.92 4ZM1664.6 17.25H1668.22V28.1445H1664.6V17.25ZM1668.46 13.8818C1668.44 12.8136 1667.68 12 1666.44 12C1665.2 12 1664.38 12.8136 1664.38 13.8818C1664.38 14.9279 1665.17 15.7649 1666.39 15.7649H1666.41C1667.68 15.7649 1668.46 14.9279 1668.46 13.8818ZM1677.13 16.9922C1679.51 16.9922 1681.3 18.5496 1681.3 21.8959L1681.3 28.1425H1677.68V22.3139C1677.68 20.8499 1677.15 19.8509 1675.84 19.8509C1674.84 19.8509 1674.24 20.5244 1673.98 21.1749C1673.88 21.408 1673.86 21.7328 1673.86 22.0584V28.1428H1670.23C1670.23 28.1428 1670.28 18.2706 1670.23 17.2483H1673.86V18.7914C1674.34 18.0496 1675.2 16.9922 1677.13 16.9922Z" fill="#A29FAD"/>
<path fill-rule="evenodd" clip-rule="evenodd" d="M1708.92 36C1700.08 36 1692.92 28.8366 1692.92 20C1692.92 11.1634 1700.08 4 1708.92 4C1717.75 4 1724.92 11.1634 1724.92 20C1724.92 28.8366 1717.75 36 1708.92 36ZM1709.14 19.1036C1710.45 19.1036 1716.82 15.5216 1716.82 15.5216L1716.83 14.8816C1716.83 14.175 1716.26 13.6016 1715.55 13.6016H1702.73C1702.02 13.6016 1701.45 14.175 1701.45 14.8816V15.4518C1701.45 15.4518 1707.89 19.1036 1709.14 19.1036ZM1701.46 17.4375C1701.46 17.4375 1707.89 20.8595 1709.14 20.8595C1710.51 20.8595 1716.82 17.4375 1716.82 17.4375L1716.83 25.1175C1716.83 25.8241 1716.26 26.3975 1715.55 26.3975H1702.73C1702.03 26.3975 1701.45 25.8241 1701.45 25.1175L1701.46 17.4375Z" fill="#A29FAD"/>
<path fill-rule="evenodd" clip-rule="evenodd" d="M1728.92 20C1728.92 28.8366 1736.08 36 1744.92 36C1753.75 36 1760.92 28.8366 1760.92 20C1760.92 11.1634 1753.75 4 1744.92 4C1736.08 4 1728.92 11.1634 1728.92 20ZM1754.96 19.3882C1754.96 24.6327 1750.69 28.9001 1745.45 28.9022H1745.44C1743.85 28.9016 1742.28 28.5021 1740.9 27.7442L1735.85 29.0672L1737.2 24.1371C1736.37 22.6942 1735.93 21.0575 1735.93 19.3807C1735.93 14.135 1740.2 9.86719 1745.45 9.86719C1747.99 9.86829 1750.38 10.8591 1752.18 12.6575C1753.97 14.4557 1754.96 16.8461 1754.96 19.3882Z" fill="#A29FAD"/>
<path fill-rule="evenodd" clip-rule="evenodd" d="M1738.14 26.8093L1741.13 26.0242L1741.42 26.1956C1742.63 26.9161 1744.02 27.2973 1745.44 27.2978H1745.45C1749.8 27.2978 1753.35 23.7504 1753.35 19.3901C1753.35 17.2771 1752.53 15.2903 1751.04 13.7956C1749.55 12.3009 1747.56 11.4773 1745.45 11.4766C1741.09 11.4766 1737.54 15.0237 1737.54 19.3836C1737.54 20.8778 1737.95 22.333 1738.75 23.592L1738.93 23.8912L1738.14 26.8093ZM1749.91 21.4417C1750.08 21.5219 1750.19 21.576 1750.24 21.6558C1750.3 21.7549 1750.3 22.2309 1750.1 22.7863C1749.9 23.3415 1748.95 23.8483 1748.49 23.9166C1748.09 23.9778 1747.57 24.0033 1747 23.8224C1746.65 23.7128 1746.21 23.5666 1745.64 23.3216C1743.41 22.3593 1741.91 20.1993 1741.62 19.791C1741.6 19.7624 1741.59 19.7424 1741.58 19.732L1741.58 19.7295C1741.45 19.5616 1740.61 18.4369 1740.61 17.2729C1740.61 16.1778 1741.15 15.6039 1741.4 15.3397C1741.41 15.3216 1741.43 15.3049 1741.44 15.2897C1741.66 15.0517 1741.92 14.9922 1742.08 14.9922C1742.23 14.9922 1742.39 14.9937 1742.53 15.0006C1742.55 15.0015 1742.57 15.0014 1742.59 15.0013C1742.72 15.0004 1742.9 14.9994 1743.07 15.4087C1743.13 15.5662 1743.23 15.7997 1743.33 16.0459C1743.53 16.544 1743.76 17.0942 1743.8 17.1738C1743.86 17.2928 1743.9 17.4316 1743.82 17.5903C1743.81 17.6141 1743.8 17.6366 1743.79 17.658C1743.73 17.7795 1743.68 17.8689 1743.58 17.9869C1743.54 18.0332 1743.5 18.0832 1743.46 18.1332C1743.38 18.2328 1743.3 18.3324 1743.23 18.4034C1743.11 18.5219 1742.98 18.6505 1743.12 18.8885C1743.26 19.1265 1743.74 19.905 1744.44 20.5353C1745.2 21.2129 1745.86 21.4993 1746.2 21.6445C1746.26 21.6729 1746.32 21.6958 1746.36 21.7153C1746.59 21.8343 1746.73 21.8144 1746.87 21.6558C1747.01 21.4971 1747.46 20.9616 1747.62 20.7236C1747.78 20.4857 1747.94 20.5254 1748.16 20.6047C1748.38 20.6841 1749.54 21.2591 1749.78 21.3781C1749.83 21.4013 1749.87 21.4223 1749.91 21.4417Z" fill="#A29FAD"/>
<path fill-rule="evenodd" clip-rule="evenodd" d="M1780.92 4C1772.08 4 1764.92 11.1634 1764.92 20C1764.92 28.8366 1772.08 36 1780.92 36C1789.75 36 1796.92 28.8366 1796.92 20C1796.92 11.1634 1789.75 4 1780.92 4ZM1780.47 17.5602L1780.44 17.0066C1780.34 15.5716 1781.22 14.261 1782.62 13.7525C1783.14 13.5718 1784.01 13.5492 1784.58 13.7073C1784.8 13.7751 1785.23 14.0011 1785.53 14.2045L1786.08 14.5773L1786.68 14.3853C1787.02 14.2836 1787.47 14.1141 1787.67 14.0011C1787.86 13.8994 1788.03 13.8429 1788.03 13.8768C1788.03 14.0689 1787.61 14.7242 1787.27 15.0858C1786.8 15.5942 1786.93 15.6394 1787.88 15.3005C1788.45 15.1084 1788.46 15.1084 1788.35 15.3231C1788.28 15.436 1787.94 15.8315 1787.57 16.1931C1786.94 16.8145 1786.91 16.8823 1786.91 17.402C1786.91 18.2042 1786.53 19.8764 1786.15 20.7916C1785.44 22.509 1783.93 24.2829 1782.42 25.1755C1780.29 26.4297 1777.46 26.746 1775.08 26.0116C1774.28 25.7631 1772.92 25.1303 1772.92 25.0173C1772.92 24.9834 1773.33 24.9382 1773.84 24.927C1774.89 24.9044 1775.94 24.6106 1776.84 24.0908L1777.44 23.7293L1776.75 23.492C1775.76 23.1531 1774.88 22.3734 1774.65 21.639C1774.59 21.4018 1774.61 21.3905 1775.23 21.3905L1775.88 21.3792L1775.34 21.1193C1774.69 20.7916 1774.09 20.238 1773.8 19.6731C1773.59 19.2663 1773.32 18.2381 1773.4 18.159C1773.42 18.1251 1773.66 18.1929 1773.93 18.2833C1774.7 18.5658 1774.8 18.498 1774.35 18.0234C1773.51 17.1647 1773.25 15.888 1773.66 14.679L1773.85 14.1367L1774.59 14.8711C1776.1 16.3512 1777.88 17.2325 1779.91 17.4924L1780.47 17.5602Z" fill="#A29FAD"/>
<path d="M902.164 17V24.5H894.664" stroke="#212529" stroke-linecap="round" stroke-linejoin="round"/>
<path d="M852.664 45V37.5H860.164" stroke="#212529" stroke-linecap="round" stroke-linejoin="round"/>
<path d="M858.312 22.2525C859.453 19.0278 861.392 16.1446 863.949 13.8722C866.506 11.5997 869.596 10.012 872.933 9.25707C876.269 8.50218 879.742 8.60476 883.028 9.55523C886.314 10.5057 889.306 12.2731 891.724 14.6925L902.164 24.5025M852.664 37.5025L863.104 47.3125C865.522 49.7319 868.514 51.4993 871.8 52.4497C875.086 53.4002 878.559 53.5028 881.895 52.7479C885.232 51.993 888.323 50.4053 890.879 48.1328C893.436 45.8603 895.375 42.9772 896.517 39.7525" stroke="#212529" stroke-linecap="round" stroke-linejoin="round"/>
<path d="M880.014 25.3999V20.6C880.014 19.6452 879.635 18.7295 878.96 18.0544C878.284 17.3793 877.369 17 876.414 17L871.414 27.7999V40.9998H885.15C885.729 41.0064 886.29 40.8035 886.731 40.4287C887.172 40.0538 887.463 39.5321 887.55 38.9599L889.206 28.1599C889.258 27.816 889.235 27.4648 889.138 27.1306C889.041 26.7965 888.872 26.4875 888.644 26.225C888.416 25.9624 888.133 25.7527 887.816 25.6102C887.498 25.4677 887.154 25.396 886.806 25.3999H880.014Z" fill="#7BE0B8"/>
<path d="M866.117 40.1938C866.567 40.6439 868.778 40.9968 869.414 40.9968V27.7969C868.778 27.7969 866.567 27.9497 866.117 28.3998C865.667 28.8499 865.414 29.4603 865.414 30.0968V38.4968C865.414 39.1333 865.667 39.7437 866.117 40.1938Z" fill="#7BE0B8"/>
<rect x="755.45" y="19.1328" width="40.4634" height="34.3659" rx="3.5" stroke="black" stroke-dasharray="2 2"/>
<rect x="740.317" y="4" width="41.4634" height="35.3659" rx="4" fill="#7BE0B8"/>
<path d="M753.731 22.2936L759.219 27.1717L769.585 14.9766" stroke="black" stroke-width="1.5" stroke-linecap="round"/>
<circle cx="714.198" cy="6.90964" r="2.40964" stroke="#212529"/>
<circle cx="703.571" cy="6.90964" r="2.40964" stroke="#212529"/>
<path d="M714.196 9.82031V18.0553" stroke="#212529"/>
<path d="M703.571 9.82031V17.0553" stroke="#212529"/>
<circle cx="733.408" cy="36.7456" r="2.40964" transform="rotate(90 733.408 36.7456)" stroke="#212529"/>
<circle cx="733.408" cy="26.1206" r="2.40964" transform="rotate(90 733.408 26.1206)" stroke="#212529"/>
<path d="M730.497 36.7422L723.262 36.7422" stroke="#212529"/>
<path d="M730.497 26.1172L723.883 26.1172" stroke="#212529"/>
<circle cx="2.90964" cy="2.90964" r="2.40964" transform="matrix(1 0 0 -1 711.288 58.8672)" stroke="#212529"/>
<circle cx="2.90964" cy="2.90964" r="2.40964" transform="matrix(1 0 0 -1 700.661 58.8672)" stroke="#212529"/>
<path d="M714.196 53.0469V45.8119" stroke="#212529"/>
<path d="M703.571 53.0469V45.8119" stroke="#212529"/>
<circle cx="2.90964" cy="2.90964" r="2.40964" transform="matrix(-4.37114e-08 1 1 4.37114e-08 681.45 33.8359)" stroke="#212529"/>
<circle cx="2.90964" cy="2.90964" r="2.40964" transform="matrix(-4.37114e-08 1 1 4.37114e-08 681.45 23.2109)" stroke="#212529"/>
<path d="M687.269 36.75L695.503 36.75" stroke="#212529"/>
<path d="M687.269 26.125L695.503 26.125" stroke="#212529"/>
<rect x="693.921" y="16.4688" width="29.9277" height="29.9277" rx="4" fill="#7BE0B8"/>
<path d="M702.51 35.2891L706.438 26.5601H708.034L711.975 35.2891H710.279L706.899 27.4206H707.548L704.181 35.2891H702.51ZM704.318 33.2689L704.754 31.997H709.468L709.905 33.2689H704.318ZM713.085 35.2891V26.5601H714.706V35.2891H713.085Z" fill="#212529"/>
<rect x="826.914" y="4.5" width="19" height="49" rx="3.5" stroke="black"/>
<rect x="800.414" y="4" width="20" height="50" rx="4" fill="#7BE0B8"/>
<circle cx="810.414" cy="15" r="3" fill="black"/>
<circle cx="836.414" cy="15" r="3" fill="#7BE0B8"/>
<rect x="908.414" y="4" width="36" height="50" rx="4" fill="#7BE0B8"/>
<path d="M915.414 14H937.414" stroke="#212529" stroke-linecap="round" stroke-linejoin="round"/>
<path d="M915.414 19.5H937.414" stroke="#212529" stroke-linecap="round" stroke-linejoin="round"/>
<path d="M915.414 25H937.414" stroke="#212529" stroke-linecap="round" stroke-linejoin="round"/>
<circle cx="944.914" cy="48.5" r="11" fill="white" stroke="#212529" stroke-linecap="round" stroke-linejoin="round"/>
<path d="M942.414 46L948.414 52" stroke="#212529" stroke-linecap="round" stroke-linejoin="round"/>
<path d="M942.414 52L948.414 46" stroke="#212529" stroke-linecap="round" stroke-linejoin="round"/>
<path d="M1141.51 6C1141.51 4.89543 1142.41 4 1143.51 4H1179.51C1180.62 4 1181.51 4.89543 1181.51 6V31C1181.51 32.1046 1180.62 33 1179.51 33H1143.51C1142.41 33 1141.51 32.1046 1141.51 31V6Z" stroke="#212529"/>
<path d="M1136.51 19C1136.51 16.7909 1138.3 15 1140.51 15H1148.34C1148.77 15 1149.2 15.1437 1149.55 15.4091L1155.57 19.9963C1155.92 20.2617 1156.34 20.4054 1156.78 20.4054H1182.51C1184.72 20.4054 1186.51 22.1963 1186.51 24.4054V49.2432C1186.51 51.4524 1184.72 53.2432 1182.51 53.2432H1140.51C1138.3 53.2432 1136.51 51.4524 1136.51 49.2432V19Z" fill="#7BE0B8"/>
<rect x="1210.01" y="53.5" width="19" height="49" rx="3.5" transform="rotate(180 1210.01 53.5)" stroke="black"/>
<rect x="1236.51" y="54" width="20" height="50" rx="4" transform="rotate(180 1236.51 54)" fill="#7BE0B8"/>
<circle cx="1226.51" cy="43" r="3" transform="rotate(180 1226.51 43)" fill="black"/>
<circle cx="1200.51" cy="43" r="3" transform="rotate(180 1200.51 43)" fill="#7BE0B8"/>
<rect x="1033.55" y="24.6328" width="40.4634" height="34.3659" rx="3.5" stroke="black" stroke-dasharray="2 2"/>
<path d="M1018.41 9.5V4L1024.33 8.64527C1025.03 9.199 1025.9 9.5 1026.8 9.5H1055.88C1058.09 9.5 1059.88 11.2909 1059.88 13.5V40.8659C1059.88 43.075 1058.09 44.8659 1055.88 44.8659H1022.41C1020.2 44.8659 1018.41 43.075 1018.41 40.8659V9.5Z" fill="#7BE0B8"/>
<path d="M1038.91 19.6298L1041.26 24.3785L1041.37 24.6142L1041.63 24.652L1046.87 25.4135L1043.08 29.1098L1042.89 29.2933L1042.94 29.5524L1043.83 34.7717L1039.15 32.3074L1038.91 32.1851L1038.68 32.3074L1033.99 34.7717L1034.89 29.5524L1034.93 29.2933L1034.75 29.1098L1030.95 25.4135L1036.19 24.652L1036.45 24.6142L1036.57 24.3785L1038.91 19.6298Z" stroke="#212529"/>
<path d="M983.407 13.3651C984.915 9.83965 989.913 9.83966 991.422 13.3651C992.353 15.542 994.852 16.5772 997.05 15.6966C1000.61 14.2704 1004.14 17.8043 1002.72 21.364C1001.84 23.562 1002.87 26.061 1005.05 26.9925C1008.57 28.5011 1008.57 33.4989 1005.05 35.0075C1002.87 35.939 1001.84 38.438 1002.72 40.636C1004.14 44.1957 1000.61 47.7296 997.05 46.3034C994.852 45.4228 992.353 46.458 991.422 48.6349C989.913 52.1603 984.915 52.1603 983.407 48.6349C982.475 46.458 979.976 45.4228 977.778 46.3034C974.218 47.7296 970.684 44.1957 972.111 40.636C972.991 38.438 971.956 35.939 969.779 35.0075C966.254 33.4989 966.254 28.5011 969.779 26.9925C971.956 26.061 972.991 23.562 972.111 21.364C970.684 17.8043 974.218 14.2704 977.778 15.6966C979.976 16.5772 982.475 15.542 983.407 13.3651Z" fill="#7BE0B8"/>
<path d="M989.858 28.226V28.586H992.378V29.522H989.786C989.69 30.374 989.462 31.034 989.102 31.502C988.754 31.958 988.226 32.288 987.518 32.492C986.81 32.684 985.85 32.78 984.638 32.78V34.472C984.638 36.272 985.43 37.172 987.014 37.172C987.782 37.172 988.358 36.95 988.742 36.506C989.126 36.062 989.318 35.426 989.318 34.598H990.488C990.476 35.774 990.17 36.668 989.57 37.28C988.97 37.88 988.112 38.18 986.996 38.18C985.832 38.18 984.95 37.856 984.35 37.208C983.75 36.548 983.45 35.636 983.45 34.472V31.88C984.854 31.88 985.892 31.826 986.564 31.718C987.248 31.61 987.74 31.394 988.04 31.07C988.352 30.746 988.544 30.23 988.616 29.522H982.586V28.586H988.67V28.208V26.354H982.586V25.4H992.378V26.354H989.858V28.226Z" fill="#212529"/>
<circle cx="987.414" cy="31" r="26.5" stroke="#212529"/>
<path d="M1109.6 26.7429V21.0639C1109.6 19.9343 1109.16 18.851 1108.36 18.0522C1107.56 17.2534 1106.47 16.8047 1105.35 16.8047L1099.43 29.5824V45.1996H1115.68C1116.37 45.2074 1117.03 44.9674 1117.55 44.5239C1118.07 44.0803 1118.42 43.4632 1118.52 42.7861L1120.48 30.0083C1120.54 29.6014 1120.51 29.1859 1120.4 28.7906C1120.28 28.3953 1120.09 28.0296 1119.82 27.719C1119.55 27.4084 1119.21 27.1602 1118.84 26.9917C1118.46 26.8231 1118.05 26.7383 1117.64 26.7429H1109.6Z" fill="#7BE0B8"/>
<path d="M1093.16 44.2453C1093.7 44.7778 1096.31 45.1954 1097.06 45.1954V29.5781C1096.31 29.5781 1093.7 29.7589 1093.16 30.2914C1092.63 30.8239 1092.33 31.5462 1092.33 32.2993V42.2375C1092.33 42.9906 1092.63 43.7128 1093.16 44.2453Z" fill="#7BE0B8"/>
<circle cx="1105.51" cy="31" r="27" stroke="#212529" stroke-linecap="round" stroke-dasharray="2 4"/>
<path d="M1303.88 54.9883H1304.38V54.4883V48.0495C1304.38 43.5061 1300.7 39.8229 1296.15 39.8229C1291.61 39.8229 1287.93 43.5061 1287.93 48.0495V54.4883V54.9883H1288.43H1303.88ZM1283.28 54.9883H1283.78V54.4883V48.0495C1283.78 41.2135 1289.32 35.6719 1296.15 35.6719C1302.99 35.6719 1308.53 41.2135 1308.53 48.0495V54.4883V54.9883H1309.03H1312.76C1314.69 54.9883 1316.26 56.5553 1316.26 58.4883V78.8191C1316.26 80.7521 1314.69 82.3191 1312.76 82.3191H1279.55C1277.62 82.3191 1276.05 80.7521 1276.05 78.8191V58.4883C1276.05 56.5553 1277.62 54.9883 1279.55 54.9883H1283.28ZM1293.08 65.4343C1293.08 67.0637 1294.13 68.4483 1295.59 68.9513L1294.38 74.9946L1294.26 75.5926H1294.87H1298.73H1299.34L1299.22 74.9946L1298.01 68.9513C1299.47 68.4483 1300.52 67.0637 1300.52 65.4343C1300.52 63.3801 1298.85 61.7149 1296.8 61.7149C1294.74 61.7149 1293.08 63.3801 1293.08 65.4343Z" fill="#844FCF" stroke="#212529"/>
<circle cx="1295.51" cy="58.9981" r="50.1544" stroke="#D3C0EE" stroke-width="4" stroke-dasharray="30 10"/>
<circle opacity="0.5" cx="1295.51" cy="59.0011" r="41.3523" transform="rotate(-23.317 1295.51 59.0011)" stroke="#D3C0EE" stroke-dasharray="15 15"/>
<path d="M1356.51 14C1356.51 9.58172 1360.09 6 1364.51 6H1464.51C1468.93 6 1472.51 9.58172 1472.51 14V94C1472.51 98.4183 1468.93 102 1464.51 102H1364.51C1360.09 102 1356.51 98.4183 1356.51 94V14Z" stroke="#D3C0EE" stroke-width="4"/>
<path fill-rule="evenodd" clip-rule="evenodd" d="M1402.84 25.1094H1424.51C1426.73 33.9983 1436.73 36.776 1436.73 36.776V61.776C1435.07 66.5909 1428.18 77.5538 1413.96 82.8872C1408.77 80.6649 1397.18 73.3316 1392.29 61.776V36.776C1395.25 35.8501 1401.51 32.2205 1402.84 25.1094ZM1412.93 62.8572L1429.26 46.5237L1426.43 43.6953L1412.76 57.3618L1404.17 49.7258L1401.52 52.7155L1412.93 62.8572Z" fill="#844FCF"/>
<path d="M1424.51 25.1094L1425 24.9881L1424.9 24.6094H1424.51V25.1094ZM1402.84 25.1094V24.6094H1402.43L1402.35 25.0172L1402.84 25.1094ZM1436.73 36.776H1437.23V36.396L1436.87 36.2943L1436.73 36.776ZM1436.73 61.776L1437.21 61.9396L1437.23 61.8601V61.776H1436.73ZM1413.96 82.8872L1413.76 83.3467L1413.94 83.4258L1414.13 83.3553L1413.96 82.8872ZM1392.29 61.776H1391.79V61.8775L1391.83 61.9709L1392.29 61.776ZM1392.29 36.776L1392.14 36.2988L1391.79 36.4084V36.776H1392.29ZM1429.26 46.5237L1429.61 46.8773L1429.97 46.5237L1429.61 46.1702L1429.26 46.5237ZM1412.93 62.8572L1412.59 63.2309L1412.95 63.5441L1413.28 63.2108L1412.93 62.8572ZM1426.43 43.6953L1426.78 43.3418L1426.43 42.9882L1426.08 43.3418L1426.43 43.6953ZM1412.76 57.3618L1412.43 57.7355L1412.78 58.0488L1413.12 57.7154L1412.76 57.3618ZM1404.17 49.7258L1404.51 49.3521L1404.13 49.0199L1403.8 49.3936L1404.17 49.7258ZM1401.52 52.7155L1401.14 52.3833L1400.81 52.757L1401.18 53.0892L1401.52 52.7155ZM1424.51 24.6094H1402.84V25.6094H1424.51V24.6094ZM1436.73 36.776C1436.87 36.2943 1436.87 36.2943 1436.87 36.2944C1436.87 36.2943 1436.87 36.2944 1436.87 36.2944C1436.87 36.2943 1436.87 36.2943 1436.87 36.2942C1436.87 36.294 1436.86 36.2936 1436.86 36.2931C1436.86 36.292 1436.85 36.2902 1436.84 36.2877C1436.83 36.2828 1436.8 36.2751 1436.77 36.2644C1436.7 36.2432 1436.59 36.2105 1436.46 36.1654C1436.19 36.0751 1435.8 35.9357 1435.33 35.7406C1434.38 35.3501 1433.09 34.7388 1431.73 33.8568C1429.01 32.0897 1426.07 29.2647 1425 24.9881L1424.03 25.2306C1425.18 29.8429 1428.35 32.8513 1431.18 34.6953C1432.6 35.6188 1433.95 36.2575 1434.95 36.6656C1435.44 36.8699 1435.85 37.0169 1436.14 37.1133C1436.28 37.1615 1436.4 37.1971 1436.47 37.2209C1436.51 37.2328 1436.54 37.2418 1436.57 37.2479C1436.58 37.2509 1436.58 37.2533 1436.59 37.2549C1436.59 37.2558 1436.59 37.2564 1436.6 37.2569C1436.6 37.2571 1436.6 37.2573 1436.6 37.2575C1436.6 37.2575 1436.6 37.2576 1436.6 37.2577C1436.6 37.2577 1436.6 37.2578 1436.73 36.776ZM1437.23 61.776V36.776H1436.23V61.776H1437.23ZM1414.13 83.3553C1428.51 77.9631 1435.5 66.8763 1437.21 61.9396L1436.26 61.6125C1434.64 66.3054 1427.85 77.1445 1413.78 82.419L1414.13 83.3553ZM1391.83 61.9709C1394.31 67.8416 1398.49 72.6235 1402.69 76.2116C1406.88 79.7993 1411.12 82.2153 1413.76 83.3467L1414.15 82.4276C1411.61 81.3368 1407.46 78.975 1403.34 75.4516C1399.22 71.9286 1395.15 67.266 1392.75 61.5812L1391.83 61.9709ZM1391.79 36.776V61.776H1392.79V36.776H1391.79ZM1402.35 25.0172C1401.07 31.8728 1395.01 35.4013 1392.14 36.2988L1392.44 37.2533C1395.49 36.2989 1401.95 32.5682 1403.34 25.2015L1402.35 25.0172ZM1428.91 46.1702L1412.57 62.5037L1413.28 63.2108L1429.61 46.8773L1428.91 46.1702ZM1426.08 44.0489L1428.91 46.8773L1429.61 46.1702L1426.78 43.3418L1426.08 44.0489ZM1413.12 57.7154L1426.78 44.0489L1426.08 43.3418L1412.41 57.0083L1413.12 57.7154ZM1403.84 50.0995L1412.43 57.7355L1413.1 56.9881L1404.51 49.3521L1403.84 50.0995ZM1401.89 53.0476L1404.55 50.058L1403.8 49.3936L1401.14 52.3833L1401.89 53.0476ZM1413.26 62.4835L1401.85 52.3418L1401.18 53.0892L1412.59 63.2309L1413.26 62.4835Z" fill="#212529"/>
<circle cx="1375.62" cy="51.7782" r="5.05556" stroke="#D3C0EE"/>
<circle cx="1453.4" cy="51.7782" r="5.05556" stroke="#D3C0EE"/>
<path d="M1506.96 20H1482.07C1480.1 20 1478.51 21.6281 1478.51 23.6364V36.3636C1478.51 38.3719 1480.1 40 1482.07 40H1506.96C1508.92 40 1510.51 38.3719 1510.51 36.3636V23.6364C1510.51 21.6281 1508.92 20 1506.96 20Z" fill="#49D49D" stroke="#212529" stroke-width="1.5" stroke-linecap="round" stroke-linejoin="round"/>
<path d="M1485.51 20V12.8929C1485.51 10.6897 1486.34 8.56438 1487.86 6.92939C1489.37 5.29439 1491.45 4.26641 1493.69 4.045C1495.93 3.82359 1498.18 4.42454 1499.99 5.73121C1501.81 7.03787 1503.06 8.95702 1503.51 11.1161" stroke="#212529" stroke-width="1.5" stroke-linecap="round" stroke-linejoin="round"/>
<path d="M1489.51 29.8L1492.97 33L1499.51 25" stroke="black" stroke-width="1.5" stroke-linecap="round"/>
<path d="M1544.51 26.4608V30.977C1544.51 31.3962 1544.43 31.8112 1544.26 32.1954C1544.09 32.5795 1543.84 32.9243 1543.53 33.2078C1543.22 33.4912 1542.86 33.707 1542.46 33.8413C1542.06 33.9756 1541.64 34.0255 1541.22 33.9878C1536.58 33.4844 1532.12 31.9015 1528.21 29.3662C1524.56 27.0549 1521.47 23.9711 1519.15 20.3338C1516.61 16.4065 1515.02 11.9351 1514.52 7.28192C1514.49 6.86563 1514.54 6.44607 1514.67 6.04994C1514.8 5.65381 1515.02 5.28981 1515.3 4.9811C1515.58 4.67239 1515.93 4.42574 1516.31 4.25685C1516.69 4.08796 1517.11 4.00054 1517.53 4.00015H1522.05C1522.78 3.99296 1523.49 4.25167 1524.05 4.72806C1524.6 5.20445 1524.97 5.86601 1525.07 6.58944C1525.26 8.03473 1525.61 9.45381 1526.12 10.8196C1526.33 11.3584 1526.37 11.944 1526.25 12.507C1526.13 13.07 1525.85 13.5867 1525.44 13.996L1523.53 15.9079C1525.68 19.6767 1528.8 22.7973 1532.58 24.9403L1534.5 23.0284C1534.91 22.6237 1535.42 22.3448 1535.99 22.2247C1536.55 22.1046 1537.14 22.1485 1537.68 22.351C1539.05 22.8607 1540.47 23.2142 1541.92 23.4048C1542.65 23.508 1543.32 23.8763 1543.8 24.4398C1544.27 25.0032 1544.53 25.7225 1544.51 26.4608Z" fill="#49D49D" stroke="#212529" stroke-width="1.5" stroke-linecap="round" stroke-linejoin="round"/>
<path d="M1533.51 5L1542.51 14" stroke="#212529" stroke-width="1.5" stroke-linecap="round" stroke-linejoin="round"/>
<path d="M1533.51 14L1542.51 5" stroke="#212529" stroke-width="1.5" stroke-linecap="round" stroke-linejoin="round"/>
<path d="M1580.92 29.2015V14.7985C1580.92 14.1671 1580.75 13.5469 1580.44 13.0002C1580.12 12.4536 1579.66 11.9996 1579.12 11.6839L1566.52 4.48241C1565.97 4.16638 1565.35 4 1564.72 4C1564.08 4 1563.46 4.16638 1562.91 4.48241L1550.31 11.6839C1549.77 11.9996 1549.31 12.4536 1549 13.0002C1548.68 13.5469 1548.51 14.1671 1548.51 14.7985V29.2015C1548.51 29.8329 1548.68 30.4531 1549 30.9998C1549.31 31.5464 1549.77 32.0004 1550.31 32.3161L1562.91 39.5176C1563.46 39.8336 1564.08 40 1564.72 40C1565.35 40 1565.97 39.8336 1566.52 39.5176L1579.12 32.3161C1579.66 32.0004 1580.12 31.5464 1580.44 30.9998C1580.75 30.4531 1580.92 29.8329 1580.92 29.2015Z" fill="#49D49D" stroke="#212529" stroke-width="1.5" stroke-linecap="round" stroke-linejoin="round"/>
<path d="M1560.51 18L1569.51 27" stroke="#212529" stroke-width="1.5" stroke-linecap="round" stroke-linejoin="round"/>
<path d="M1560.51 27L1569.51 18" stroke="#212529" stroke-width="1.5" stroke-linecap="round" stroke-linejoin="round"/>
<g clip-path="url(#clip0_10516_16801)">
<path d="M1815.25 20.0019C1815.25 20.2008 1815.17 20.3916 1815.03 20.5322C1814.89 20.6729 1814.7 20.7519 1814.5 20.7519H1804C1803.8 20.7519 1803.61 20.6729 1803.47 20.5322C1803.33 20.3916 1803.25 20.2008 1803.25 20.0019V13.2519H1801L1808.75 6.21089C1808.88 6.08525 1809.06 6.01562 1809.25 6.01562C1809.44 6.01562 1809.62 6.08525 1809.75 6.21089L1817.5 13.2519H1815.25V20.0019ZM1809.25 16.2519C1809.75 16.2519 1810.22 16.0543 1810.58 15.7027C1810.93 15.3511 1811.12 14.8742 1811.12 14.3769C1811.12 13.8796 1810.93 13.4027 1810.58 13.0511C1810.22 12.6994 1809.75 12.5019 1809.25 12.5019C1808.75 12.5019 1808.28 12.6994 1807.92 13.0511C1807.57 13.4027 1807.38 13.8796 1807.38 14.3769C1807.38 14.8742 1807.57 15.3511 1807.92 15.7027C1808.28 16.0543 1808.75 16.2519 1809.25 16.2519Z" fill="white"/>
</g>
<path fill-rule="evenodd" clip-rule="evenodd" d="M1823.75 21C1823.75 12.5777 1830.58 5.75 1839 5.75C1847.42 5.75 1854.25 12.5777 1854.25 21C1854.25 29.4223 1847.42 36.25 1839 36.25C1830.58 36.25 1823.75 29.4223 1823.75 21ZM1839 4.25C1829.75 4.25 1822.25 11.7492 1822.25 21C1822.25 30.2508 1829.75 37.75 1839 37.75C1848.25 37.75 1855.75 30.2508 1855.75 21C1855.75 11.7492 1848.25 4.25 1839 4.25ZM1831.7 18.6016H1834.88V28.1466H1831.7V18.6016ZM1835.09 15.6487C1835.07 14.7128 1834.4 14 1833.31 14C1832.23 14 1831.52 14.7128 1831.52 15.6487C1831.52 16.5652 1832.21 17.2986 1833.27 17.2986H1833.29C1834.4 17.2986 1835.09 16.5652 1835.09 15.6487ZM1842.67 18.375C1844.76 18.375 1846.33 19.7395 1846.33 22.6713L1846.33 28.1442H1843.15V23.0376C1843.15 21.7549 1842.69 20.8796 1841.54 20.8796C1840.67 20.8796 1840.14 21.4697 1839.91 22.0396C1839.83 22.2438 1839.81 22.5284 1839.81 22.8137V28.1444H1836.63C1836.63 28.1444 1836.67 19.495 1836.63 18.5994H1839.81V19.9514C1840.23 19.3014 1840.99 18.375 1842.67 18.375Z" fill="#212529"/>
<g clip-path="url(#clip1_10516_16801)">
<path d="M1902 18.2344L1908.19 12.0469L1909.95 13.8144L1903.77 20.0019L1909.95 26.1894L1908.19 27.9569L1902 21.7694L1895.81 27.9569L1894.04 26.1894L1900.23 20.0019L1894.04 13.8144L1895.81 12.0469L1902 18.2344Z" fill="#212529"/>
</g>
<path d="M1870 24C1874.42 24 1878 20.4183 1878 16C1878 11.5817 1874.42 8 1870 8C1865.58 8 1862 11.5817 1862 16C1862 20.4183 1865.58 24 1870 24Z" stroke="#212529" stroke-width="2" stroke-linecap="round" stroke-linejoin="round"/>
<path d="M1880 25.9984L1875.65 21.6484" stroke="#212529" stroke-width="2" stroke-linecap="round" stroke-linejoin="round"/>
<path d="M1941.33 17L1943.58 22.8393L1949.67 25L1943.58 27.1607L1941.33 33L1939.08 27.1607L1933 25L1939.08 22.8393L1941.33 17Z" fill="white"/>
<circle opacity="0.2" cx="1941" cy="25" r="19.6241" stroke="white" stroke-width="0.75188"/>
<path fill-rule="evenodd" clip-rule="evenodd" d="M1990.73 17.8571C1990.73 28.5714 1980.01 35 1977.87 35C1975.72 35 1965 28.5714 1965 17.8571C1965 10.7578 1970.76 5 1977.87 5C1984.97 5 1990.73 10.7578 1990.73 17.8571Z" fill="#7BE0B8"/>
<circle cx="1977.5" cy="17.4948" r="3.66667" stroke="#212529"/>
<path d="M2003.77 5H1999.02C1996.65 5 1994.73 6.91878 1994.73 9.28571V13.5714C1994.73 25.4061 2004.33 35 2016.16 35H2020.45C2022.81 35 2024.73 33.0812 2024.73 30.7143V27.7529C2024.73 26.9413 2024.27 26.1993 2023.55 25.8363L2018.37 23.2478C2017.2 22.6646 2015.79 23.2497 2015.38 24.4868L2014.74 26.401C2014.33 27.6409 2013.06 28.3791 2011.77 28.1227C2006.64 27.0968 2002.63 23.0872 2001.61 17.9577C2001.35 16.6761 2002.09 15.4041 2003.33 14.9908L2005.71 14.1989C2006.77 13.8448 2007.38 12.7326 2007.11 11.6463L2005.85 6.62314C2005.61 5.66921 2004.76 5 2003.77 5Z" fill="#7BE0B8"/>
<path d="M2010.56 12.5C2012.37 13.0556 2016.23 15.4167 2017.23 20.4167" stroke="#212529"/>
<path d="M2011.4 7.5C2014.11 8.31871 2019.9 11.7982 2021.4 19.1667" stroke="#212529"/>
<path d="M2056.59 5H2030.87C2029.69 5 2028.73 5.95939 2028.73 7.14286V28.5714C2028.73 29.7549 2029.69 30.7143 2030.87 30.7143H2056.59C2057.77 30.7143 2058.73 29.7549 2058.73 28.5714V7.14286C2058.73 5.95939 2057.77 5 2056.59 5Z" fill="#7BE0B8"/>
<path d="M2028.73 12.5L2043.73 20.75L2058.73 12.5" stroke="#212529" stroke-width="1.5"/>
<path d="M2075.5 19L2078.88 27.7589L2088 31L2078.88 34.2411L2075.5 43L2072.12 34.2411L2063 31L2072.12 27.7589L2075.5 19Z" fill="#49D49D"/>
<path d="M2181.45 99L2183.19 103.707L2187.9 105.448L2183.19 107.19L2181.45 111.897L2179.71 107.19L2175 105.448L2179.71 103.707L2181.45 99Z" fill="#49D49D"/>
<path d="M2190.5 14L2191.99 18.0145L2196 19.5L2191.99 20.9855L2190.5 25L2189.01 20.9855L2185 19.5L2189.01 18.0145L2190.5 14Z" fill="#49D49D"/>
<circle cx="2138" cy="59" r="52.5" stroke="#49D49D"/>
<circle cx="2138" cy="59" r="38" fill="#49D49D"/>
<path d="M2121.64 55.6451H2126.55V75H2121.64C2121.2 75 2120.79 74.8301 2120.48 74.5276C2120.17 74.2251 2120 73.8149 2120 73.3871V57.258C2120 56.8303 2120.17 56.42 2120.48 56.1175C2120.79 55.815 2121.2 55.6451 2121.64 55.6451ZM2130.3 53.5596L2140.77 43.237C2140.91 43.0994 2141.09 43.016 2141.29 43.0021C2141.49 42.9881 2141.68 43.0447 2141.84 43.1612L2143.24 44.1935C2143.62 44.4803 2143.92 44.8739 2144.08 45.3245C2144.24 45.7752 2144.26 46.2628 2144.14 46.7257L2142.25 54.0322H2152.73C2153.6 54.0322 2154.43 54.3721 2155.04 54.977C2155.66 55.582 2156 56.4025 2156 57.258V60.6516C2156 61.0731 2155.92 61.4907 2155.75 61.8806L2150.69 74.0016C2150.57 74.2971 2150.36 74.5498 2150.09 74.7276C2149.82 74.9053 2149.5 75.0001 2149.18 75H2131.45C2131.02 75 2130.6 74.8301 2130.3 74.5276C2129.99 74.2251 2129.82 73.8149 2129.82 73.3871V54.7C2129.82 54.2722 2129.99 53.862 2130.3 53.5596Z" fill="white"/>
<path d="M2252.91 10.4204C2251.5 9.01898 2249.84 7.9073 2248.01 7.14884C2246.18 6.39038 2244.22 6 2242.24 6C2240.26 6 2238.29 6.39038 2236.46 7.14884C2234.63 7.9073 2232.97 9.01898 2231.57 10.4204L2228.66 13.3274L2225.76 10.4204C2222.93 7.59099 2219.09 6.00147 2215.09 6.00147C2211.09 6.00147 2207.25 7.59099 2204.42 10.4204C2201.59 13.2497 2200 17.0872 2200 21.0885C2200 25.0899 2201.59 28.9273 2204.42 31.7567L2207.33 34.6637L2228.66 56L2250 34.6637L2252.91 31.7567C2254.31 30.356 2255.42 28.6928 2256.18 26.8624C2256.94 25.0319 2257.33 23.0699 2257.33 21.0885C2257.33 19.1071 2256.94 17.1452 2256.18 15.3147C2255.42 13.4842 2254.31 11.8211 2252.91 10.4204Z" fill="#7BE0B8"/>
<path d="M2250.87 39.6212C2250.37 39.137 2249.77 38.7528 2249.12 38.4907C2248.46 38.2286 2247.76 38.0938 2247.05 38.0938C2246.33 38.0938 2245.63 38.2286 2244.97 38.4907C2244.32 38.7528 2243.72 39.137 2243.22 39.6212L2242.17 40.6257L2241.13 39.6212C2240.12 38.6435 2238.74 38.0943 2237.3 38.0943C2235.87 38.0943 2234.49 38.6435 2233.48 39.6212C2232.46 40.5989 2231.89 41.9249 2231.89 43.3076C2231.89 44.6902 2232.46 46.0163 2233.48 46.994L2234.52 47.9985L2242.17 55.3712L2249.83 47.9985L2250.87 46.994C2251.38 46.5099 2251.77 45.9353 2252.05 45.3027C2252.32 44.6702 2252.46 43.9923 2252.46 43.3076C2252.46 42.6229 2252.32 41.945 2252.05 41.3124C2251.77 40.6799 2251.38 40.1052 2250.87 39.6212Z" stroke="#212529" stroke-width="1.5" stroke-linecap="round" stroke-linejoin="round"/>
<path d="M2361.07 21.1094H2363.91C2366.92 21.1094 2369.81 22.3066 2371.94 24.4378C2374.08 26.5689 2375.27 29.4594 2375.27 32.4733C2375.27 35.4872 2374.08 38.3776 2371.94 40.5087C2369.81 42.6399 2366.92 43.8372 2363.91 43.8372H2361.07" stroke="#7BE0B8" stroke-width="3" stroke-linecap="square" stroke-linejoin="round"/>
<path d="M2315.33 19.0703H2360.78V44.6391C2360.78 47.653 2359.58 50.5434 2357.45 52.6745C2355.32 54.8057 2352.43 56.0029 2349.42 56.0029H2326.69C2323.68 56.0029 2320.79 54.8057 2318.65 52.6745C2316.52 50.5434 2315.33 47.653 2315.33 44.6391V19.0703Z" fill="#7BE0B8"/>
<path d="M2326.69 6V14.5229" stroke="#212529" stroke-width="1.5" stroke-linecap="round" stroke-linejoin="round"/>
<path d="M2338.05 6V14.5229" stroke="#212529" stroke-width="1.5" stroke-linecap="round" stroke-linejoin="round"/>
<path d="M2349.42 6V14.5229" stroke="#212529" stroke-width="1.5" stroke-linecap="round" stroke-linejoin="round"/>
<path d="M2288.93 27.3999V22.6C2288.93 21.6452 2288.55 20.7295 2287.87 20.0544C2287.2 19.3793 2286.28 19 2285.33 19L2280.33 29.7999V42.9998H2294.06C2294.64 43.0064 2295.2 42.8035 2295.64 42.4287C2296.08 42.0538 2296.38 41.5321 2296.46 40.9599L2298.12 30.1599C2298.17 29.816 2298.15 29.4648 2298.05 29.1306C2297.95 28.7965 2297.78 28.4875 2297.56 28.225C2297.33 27.9624 2297.05 27.7527 2296.73 27.6102C2296.41 27.4677 2296.07 27.396 2295.72 27.3999H2288.93Z" fill="#7BE0B8"/>
<path d="M2275.03 42.1938C2275.48 42.6439 2277.69 42.9968 2278.33 42.9968V29.7969C2277.69 29.7969 2275.48 29.9497 2275.03 30.3998C2274.58 30.8499 2274.33 31.4603 2274.33 32.0968V40.4968C2274.33 41.1333 2274.58 41.7437 2275.03 42.1938Z" fill="#7BE0B8"/>
<circle cx="2286.33" cy="31" r="24.25" stroke="#212529" stroke-width="1.5"/>
<path d="M2399.27 56C2399.27 56 2419.27 46 2419.27 31V13.5L2399.27 6L2379.27 13.5V31C2379.27 46 2399.27 56 2399.27 56Z" fill="#7BE0B8"/>
<path d="M2391.02 29.05L2398.09 36.25L2409.77 22.75" stroke="#212529" stroke-width="1.5" stroke-linecap="round"/>
<circle cx="2458.27" cy="41" r="25" fill="white"/>
<circle cx="2458.27" cy="41" r="35" stroke="white"/>
<path d="M2466.27 41L2454.27 47.9282L2454.27 34.0718L2466.27 41Z" fill="#49D49D"/>
<path d="M2505.27 6L2501.46 10.5714L2497.27 6" stroke="#C2CACF" stroke-width="2" stroke-linecap="round" stroke-linejoin="round"/>
<path d="M2517.27 10.5703L2513.46 5.99888L2509.27 10.5703" stroke="#212529" stroke-width="2" stroke-linecap="round" stroke-linejoin="round"/>
<g clip-path="url(#clip2_10516_16801)">
<path d="M2537.27 22L2533.27 18L2529.27 22" stroke="#212529" stroke-width="1.5" stroke-linecap="round" stroke-linejoin="round"/>
<path d="M2533.27 18V27" stroke="#212529" stroke-width="1.5" stroke-linecap="round" stroke-linejoin="round"/>
<path d="M2541.66 24.3875C2542.64 23.8558 2543.41 23.0144 2543.85 21.9962C2544.29 20.9779 2544.39 19.8408 2544.11 18.7642C2543.84 17.6877 2543.21 16.7331 2542.34 16.051C2541.46 15.3689 2540.38 14.9983 2539.27 14.9975H2538.01C2537.71 13.8268 2537.14 12.7399 2536.36 11.8185C2535.58 10.8972 2534.6 10.1654 2533.49 9.67815C2532.38 9.19091 2531.18 8.9609 2529.97 9.00542C2528.76 9.04995 2527.58 9.36784 2526.51 9.93521C2525.44 10.5026 2524.52 11.3046 2523.81 12.2811C2523.09 13.2576 2522.61 14.3831 2522.39 15.5729C2522.18 16.7628 2522.24 17.9861 2522.56 19.1508C2522.89 20.3155 2523.47 21.3914 2524.27 22.2975" stroke="#212529" stroke-width="1.5" stroke-linecap="round" stroke-linejoin="round"/>
<path d="M2537.27 22L2533.27 18L2529.27 22" stroke="#212529" stroke-width="1.5" stroke-linecap="round" stroke-linejoin="round"/>
</g>
<defs>
<linearGradient id="paint0_linear_10516_16801" x1="283.439" y1="80.4296" x2="360.315" y2="42.9099" gradientUnits="userSpaceOnUse">
<stop stop-color="#49D49D"/>
<stop offset="1" stop-color="#844FCF"/>
</linearGradient>
<clipPath id="clip0_10516_16801">
<rect width="18" height="18" fill="white" transform="translate(1801 5)"/>
</clipPath>
<clipPath id="clip1_10516_16801">
<rect width="30" height="30" fill="white" transform="translate(1887 5)"/>
</clipPath>
<clipPath id="clip2_10516_16801">
<rect width="24" height="24" fill="white" transform="translate(2521.27 6)"/>
</clipPath>
</defs>
</svg>
