<svg width="15" height="14" viewBox="0 0 15 14" fill="none" xmlns="http://www.w3.org/2000/svg">
<path d="M12.6667 12.8334C12.6667 13.0102 12.5964 13.1797 12.4714 13.3048C12.3464 13.4298 12.1768 13.5 12 13.5H2.66667C2.48986 13.5 2.32029 13.4298 2.19526 13.3048C2.07024 13.1797 2 13.0102 2 12.8334V6.83336H0L6.88467 0.574695C7.00741 0.463013 7.16739 0.401123 7.33333 0.401123C7.49928 0.401123 7.65926 0.463013 7.782 0.574695L14.6667 6.83336H12.6667V12.8334ZM7.33333 9.50003C7.77536 9.50003 8.19928 9.32443 8.51184 9.01187C8.82441 8.69931 9 8.27539 9 7.83336C9 7.39133 8.82441 6.96741 8.51184 6.65485C8.19928 6.34229 7.77536 6.16669 7.33333 6.16669C6.89131 6.16669 6.46738 6.34229 6.15482 6.65485C5.84226 6.96741 5.66667 7.39133 5.66667 7.83336C5.66667 8.27539 5.84226 8.69931 6.15482 9.01187C6.46738 9.32443 6.89131 9.50003 7.33333 9.50003Z" fill="black"/>
</svg>
