<svg width="41" height="31" viewBox="0 0 41 31" fill="none" xmlns="http://www.w3.org/2000/svg">
<path d="M1 15.9565L17.6957 1L34.7391 15.9565" stroke="white"/>
<path d="M5.86963 27.1739V12.1304V11.7826L17.6957 1L30.2175 12.1304V27.1739C30.2175 28.2785 29.322 29.1739 28.2175 29.1739H7.86963C6.76506 29.1739 5.86963 28.2785 5.86963 27.1739Z" fill="#9C68E7" stroke="white"/>
<path d="M14.0217 19.6089C14.0217 17.6759 15.5887 16.1089 17.5217 16.1089H18.5652C20.4982 16.1089 22.0652 17.6759 22.0652 19.6089V29.0219H14.0217V19.6089Z" stroke="white"/>
<circle cx="33.3477" cy="22.5653" r="7.15217" fill="#844FCF" stroke="white"/>
<path d="M34.7826 19.7827C35.4348 21.0475 35.7826 23.6404 31.9565 23.8934L35.4348 26.7392" stroke="white"/>
<path d="M30.5652 19.7827H36.8261" stroke="white"/>
<path d="M30.5652 21.8696H36.8261" stroke="white"/>
</svg>
