<svg width="504" height="497" viewBox="0 0 504 497" fill="none" xmlns="http://www.w3.org/2000/svg">
<path fill-rule="evenodd" clip-rule="evenodd" d="M134.065 0C208.107 0 268.13 59.8584 268.13 133.698C268.13 157.047 262.088 179.858 250.451 200.1C187.887 200.453 130.375 222.074 84.8151 258.084C35.1399 238.506 0 190.195 0 133.698C0 59.8584 60.023 0 134.065 0ZM308.715 393.329C313.929 388.13 322.384 388.13 327.598 393.329C332.812 398.53 332.812 406.96 327.598 412.161L279.138 460.487C279.931 463.093 280.36 465.857 280.36 468.72C280.36 484.339 267.663 497 252.001 497C236.339 497 223.642 484.339 223.642 468.72C223.642 453.101 236.339 440.44 252.001 440.44C254.873 440.44 257.644 440.866 260.255 441.657L308.715 393.329ZM260.69 301.109C285.037 302.344 308.022 308.738 328.56 319.222L370.449 246.865C337.54 229.354 300.273 218.915 260.691 217.576L260.69 301.109ZM343.533 327.871L385.426 255.508C417.926 275.778 445.459 303.232 465.787 335.644L393.226 377.423C380.336 357.632 363.378 340.724 343.533 327.871ZM401.917 392.384C413.665 415.284 420.295 441.23 420.295 468.72H504C504 426.023 493.31 385.821 474.473 350.608L401.917 392.384ZM243.31 217.576C203.727 218.915 166.461 229.35 133.552 246.865L175.443 319.221C195.979 308.739 218.963 302.343 243.311 301.109L243.31 217.576ZM118.574 255.508C86.0756 275.78 58.5407 303.232 38.213 335.643L110.774 377.422C123.664 357.631 140.624 340.725 160.467 327.87L118.574 255.508ZM29.5274 350.608L102.084 392.383C90.3336 415.282 83.708 441.23 83.708 468.72H0C0 426.022 10.6883 385.819 29.5274 350.608ZM186.04 77.2624L109.155 153.938L83.2796 121.464C77.6354 114.383 67.3019 113.205 60.1999 118.836C53.0999 124.465 51.9192 134.771 57.5644 141.851L94.2613 187.907C100.102 196.25 112.126 197.391 119.406 190.133L209.313 100.472C215.739 94.0629 215.739 83.671 209.313 77.2624C202.887 70.8538 192.469 70.8538 186.04 77.2624Z" fill="url(#paint0_linear_5105_12667)"/>
<defs>
<linearGradient id="paint0_linear_5105_12667" x1="28.132" y1="496.774" x2="357.028" y2="166.973" gradientUnits="userSpaceOnUse">
<stop stop-color="#A882DD" stop-opacity="0.48"/>
<stop offset="1" stop-color="#A882DD"/>
</linearGradient>
</defs>
</svg>
