<svg width="175" height="19" viewBox="0 0 175 19" fill="none" xmlns="http://www.w3.org/2000/svg">
<g id="g18">
<g id="g32">
<path id="path34" fill-rule="evenodd" clip-rule="evenodd" d="M22.9738 13.6101L21.939 18.5718H17.4161C17.7599 16.9294 18.1045 15.1683 18.4952 13.488C18.575 13.1233 18.6636 12.7502 18.7477 12.3434C18.7477 12.0553 18.7894 11.769 18.8363 11.4817C19.0073 9.47465 17.5003 9.10406 16.0402 9.71974C15.1711 10.0474 14.7839 10.6193 14.3595 11.3596C13.9671 12.0157 13.8439 12.628 13.6658 13.4476L12.5451 18.5718H8.06299L10.6899 6.35915C12.0702 6.31788 13.4461 6.27661 14.8291 6.23871C14.659 7.01527 14.4428 7.75392 14.3135 8.53217C15.9968 6.60593 18.1426 5.62386 20.6481 6.31788C23.1466 6.974 23.6675 9.35421 23.2732 11.6443C23.2245 12.3434 23.1466 12.9557 22.9738 13.6101Z" fill="#98272A"/>
</g>
<g id="g36">
<path id="path38" fill-rule="evenodd" clip-rule="evenodd" d="M104.716 0.831362H109.113L105.192 18.6105H101.145C101.314 17.9544 101.484 17.3016 101.704 16.6405C100.882 17.3817 100.196 17.994 99.2896 18.4067V15.7418C99.6342 15.6626 99.9833 15.5363 100.281 15.3754C101.579 14.5955 102.087 13.2024 102.087 11.8085L102.004 11.1128C101.92 10.46 101.621 9.88223 100.84 9.55796C100.415 9.30949 99.807 9.3095 99.2896 9.39372V6.23695C99.5456 6.23695 99.7618 6.31781 99.9833 6.31781C101.231 6.60502 102.304 7.38663 102.915 8.57252L104.716 0.831362ZM99.2896 18.4067C98.9901 18.5709 98.649 18.6518 98.253 18.731C97.0543 19.0173 96.3561 19.1007 95.1087 18.6518C93.6468 18.1582 92.9168 17.2174 92.356 15.9473C91.0634 12.8352 92.48 8.40997 95.6695 6.89307C96.7025 6.39951 98.0368 6.11651 99.2896 6.23695V9.39372C98.9467 9.43499 98.5631 9.55796 98.2999 9.71967C97.5664 10.172 97.0906 10.8264 96.8346 11.603C96.5369 12.3795 96.3561 13.4879 96.6193 14.3057C96.7025 14.7168 96.8789 15.0082 97.1331 15.2499C97.7356 15.7418 98.5631 15.8639 99.2896 15.7418" fill="#98272A"/>
</g>
<g id="g40">
<path id="path42" fill-rule="evenodd" clip-rule="evenodd" d="M68.1757 6.52674L67.272 9.14699C66.0246 8.82188 65.1147 8.65343 63.8256 8.57342C63.434 8.57342 63.1399 8.53214 62.8395 8.61132C61.9288 8.82188 61.5398 9.59675 62.2318 10.172C63.0903 10.9898 64.6008 11.192 65.6773 11.8498C65.9404 12.0166 66.239 12.2616 66.5384 12.5067C67.3934 13.776 67.272 15.1287 66.3692 16.4426C64.9437 18.4463 62.2318 18.6518 59.775 18.4876C58.4389 18.4025 57.3173 18.1591 55.9795 17.914L56.8034 14.9628C58.4389 15.3755 59.4755 15.7452 61.0171 15.5759C61.7126 15.5363 62.7093 15.5759 62.7093 14.6781C62.533 14.0211 61.8889 13.6101 61.1952 13.3254C60.1657 12.8748 59.044 12.5884 58.2263 11.8085C57.7452 11.1541 57.6132 10.6622 57.6132 9.84353C57.6132 9.02402 57.8781 8.45297 58.2653 7.91814C60.4669 4.93067 64.9933 5.78977 68.1757 6.52674Z" fill="#98272A"/>
</g>
<g id="g44">
<path id="path46" fill-rule="evenodd" clip-rule="evenodd" d="M42.6239 6.23696L47.1902 6.15611C46.8464 7.67301 46.4982 9.18822 46.1536 10.7835C45.9445 11.8085 45.5121 13.1232 45.8151 14.1449C45.9897 14.7168 46.1952 14.9231 46.7614 15.0857C47.4081 15.2929 48.2321 15.1682 48.7477 14.7993C50.2946 13.7364 50.7261 11.9719 51.1132 10.2511L52.0612 6.15611H56.5017L53.7401 18.5718C52.4493 18.6105 51.1549 18.5305 49.8188 18.5718C49.9473 17.8719 50.1236 16.8477 50.2946 16.1511C49.8188 16.563 49.4343 17.0153 48.916 17.3817C48.2719 17.8719 47.4932 18.2012 46.6763 18.4067C45.7265 18.6105 44.4339 18.6105 43.5285 18.2408C42.5353 17.8719 41.8053 17.0153 41.4163 16.0694C40.9007 14.7993 41.1133 13.9419 41.3313 12.628C41.6741 10.4996 42.1517 8.32744 42.6239 6.23696Z" fill="#98272A"/>
</g>
<g id="g48">
<path id="path50" fill-rule="evenodd" clip-rule="evenodd" d="M37.5373 0.831362H41.9343L37.9714 18.6105H33.919C34.0917 17.9544 34.307 17.3016 34.4763 16.6405C33.7063 17.3817 32.9745 17.994 32.1107 18.4067V15.7418C32.4571 15.6626 32.7973 15.5363 33.1039 15.3754C34.3478 14.5955 34.8705 13.2024 34.8705 11.8085L34.8209 11.1128C34.7376 10.46 34.393 9.88223 33.6248 9.55796C33.1836 9.30949 32.5829 9.3095 32.1107 9.39372V6.23695C32.3269 6.23695 32.536 6.31781 32.7973 6.31781C34.0058 6.60502 35.0823 7.38663 35.729 8.57252L37.5373 0.831362ZM32.1107 18.4067C31.7679 18.5709 31.4206 18.6518 31.0706 18.731C29.8719 19.0173 29.1427 19.1007 27.8918 18.6518C26.4627 18.1582 25.6875 17.2174 25.1249 15.9473C23.8721 12.8352 25.3083 8.40997 28.449 6.89307C29.4821 6.39951 30.8597 6.11651 32.1107 6.23695V9.39372C31.7236 9.43499 31.3807 9.55796 31.0706 9.71967C30.3875 10.172 29.8719 10.8264 29.6088 11.603C29.3111 12.3795 29.1427 13.4879 29.3926 14.3057C29.4821 14.7168 29.6539 15.0082 29.9499 15.2499C30.5603 15.7418 31.3302 15.8639 32.1107 15.7418" fill="#98272A"/>
</g>
<g id="g52">
<path id="path54" fill-rule="evenodd" clip-rule="evenodd" d="M4.74573 0.831423H9.35541L5.52272 18.571H0.869629" fill="#98272A"/>
</g>
<g id="g56">
<path id="path58" fill-rule="evenodd" clip-rule="evenodd" d="M90.2435 13.6101L89.1617 18.5718H84.5955C84.9817 16.9294 85.3689 15.1683 85.7171 13.488C85.803 13.1233 85.8934 12.7502 86.021 12.3863C86.021 12.0553 86.021 11.769 86.0591 11.4817C86.2806 9.47465 84.6752 9.10406 83.2577 9.71974C82.439 10.0878 82.0519 10.6193 81.623 11.3596C81.1951 12.0157 81.0622 12.671 80.9338 13.4476L79.7661 18.5718H75.3726L77.9162 6.35915C79.2903 6.31788 80.6795 6.31788 82.0519 6.23871C81.8817 7.01527 81.7054 7.75392 81.5309 8.53217C83.2125 6.60593 85.3689 5.62386 87.8673 6.31788C90.3702 6.974 90.8894 9.35421 90.5447 11.6873C90.4561 12.3434 90.3702 12.9557 90.2435 13.6101Z" fill="#98272A"/>
</g>
<g id="g60">
<path id="path62" fill-rule="evenodd" clip-rule="evenodd" d="M71.7091 0.831423H76.364L72.5313 18.571H67.8711" fill="#98272A"/>
</g>
<g id="g64">
<path id="path66" fill-rule="evenodd" clip-rule="evenodd" d="M157.978 13.7364L156.904 18.731H152.336C152.68 17.0532 153.113 15.2499 153.462 13.6101C153.538 13.2016 153.628 12.8352 153.718 12.4233C153.718 12.1361 153.754 11.8497 153.801 11.5583C153.977 9.55123 152.423 9.18822 150.954 9.79801C150.136 10.1307 149.752 10.7026 149.283 11.4412C148.89 12.0965 148.762 12.713 148.591 13.5292L147.463 18.6931H142.982L145.573 6.39951C146.944 6.35824 148.371 6.31697 149.752 6.27654C149.578 7.05394 149.402 7.83556 149.233 8.57253C150.873 6.64629 153.113 5.66254 155.571 6.31697C158.153 7.0152 158.627 9.435 158.283 11.7293C158.236 12.4233 158.108 13.0373 157.978 13.7364Z" fill="#98272A"/>
</g>
<g id="g68">
<path id="path70" fill-rule="evenodd" clip-rule="evenodd" d="M163.152 0.831438H167.675L165.347 11.4009L169.918 6.31788H175L169.662 11.9324L173.018 18.6519H168.19L165.222 12.1362L163.798 18.6519H159.361" fill="#98272A"/>
</g>
<g id="g72">
<path id="path74" fill-rule="evenodd" clip-rule="evenodd" d="M142.168 12.1361C141.78 13.8981 141.392 15.6189 141.042 17.3413L140.873 18.731H137.124L137.388 16.8477C136.741 17.4609 136.047 17.994 135.317 18.3646V16.2337C135.356 16.1924 135.441 16.1924 135.525 16.1486C136.006 15.9052 136.352 15.7418 136.606 15.4934C137.212 14.8819 137.516 13.9428 137.766 13.1612H137.124C136.57 13.1612 135.917 13.1233 135.317 13.1612V11.1128C136.218 11.0319 137.254 11.0698 138.284 11.0698C138.284 10.0027 137.856 9.18825 136.692 8.94484C136.177 8.86061 135.706 8.86061 135.317 8.86061V6.31784C138.119 5.99358 141.092 6.4425 142.126 8.86061C142.639 10.0878 142.344 10.866 142.168 12.1361ZM135.317 18.3646C134.626 18.6931 133.848 18.9003 133.118 18.9778C131.434 19.1403 129.67 18.4067 128.938 16.9294C128.417 16.1091 128.553 15.2104 128.761 14.2696C128.983 13.3684 129.416 12.8748 130.527 12.1361C132.124 11.4008 133.684 11.1524 135.317 11.1128V13.1612C134.669 13.2024 134.023 13.3684 133.592 13.6564C132.732 14.2696 132.391 15.4167 133.332 16.1091C133.893 16.4771 134.669 16.4426 135.317 16.2337V18.3646ZM135.317 8.86061C134.71 8.86061 134.19 8.9002 133.507 9.06612C132.732 9.22783 132.171 9.47461 131.434 9.79888L131.952 6.93437C132.992 6.69096 134.102 6.4425 135.317 6.31784" fill="#98272A"/>
</g>
<g id="g76">
<path id="path78" fill-rule="evenodd" clip-rule="evenodd" d="M120.061 2.26579H122.43C124.503 2.26579 127.69 2.55215 128.285 4.84645C128.417 5.21536 128.459 5.5809 128.459 5.94897V5.9936C128.459 7.34037 127.775 8.53132 126.482 9.3542C125.574 9.76017 124.804 9.96652 123.899 10.2116C126.221 10.5797 127.735 12.0966 127.257 14.5147C126.562 17.8719 123.248 18.4017 120.061 18.6106V15.6627C120.232 15.6627 120.409 15.6189 120.536 15.5759C123.205 15.1674 123.806 12.2179 121.27 11.6872C120.876 11.603 120.495 11.5584 120.061 11.603V8.9794C120.578 8.9794 121.139 8.93813 121.609 8.86064C123.035 8.53132 124.926 7.13991 123.374 5.5809C122.727 4.93068 121.181 5.00985 120.061 5.09071V2.26579ZM115.752 2.26579H120.061V5.09071H119.672L118.765 8.93813C119.154 8.93813 119.634 8.9794 120.061 8.9794V11.603C119.456 11.603 118.81 11.6872 118.207 11.7294L117.303 15.8227C118.074 15.7814 119.114 15.7814 120.061 15.6627V18.6106C119.799 18.6518 119.507 18.6518 119.237 18.6931H112.26" fill="#98272A"/>
</g>
</g>
</svg>
