<svg width="103" height="103" viewBox="0 0 103 103" fill="none" xmlns="http://www.w3.org/2000/svg">
<circle cx="51.7248" cy="51.2756" r="50.924" fill="white"/>
<circle cx="51.7248" cy="51.2756" r="50.924" fill="#844FCF"/>
<g opacity="0.2">
<circle cx="52.0909" cy="50.9112" r="19.2784" fill="#F2F5FA"/>
<circle cx="52.0909" cy="50.9112" r="19.2784" fill="url(#paint0_linear_11474_11655)"/>
</g>
<path d="M51.7254 9.07812C28.4222 9.07812 9.53125 27.9691 9.53125 51.2723C9.53125 68.1661 19.4596 82.7411 33.7999 89.4805C21.5628 83.3153 13.1687 70.6383 13.1687 56.001C13.1687 35.3094 29.9426 18.5354 50.6342 18.5354C60.1852 18.5354 68.9015 22.1093 75.5187 27.9928L81.9161 21.7956C74.2541 13.9492 63.5586 9.07812 51.7254 9.07812Z" fill="url(#paint1_linear_11474_11655)"/>
<path d="M51.7254 9.07812C28.4222 9.07812 9.53125 27.9691 9.53125 51.2723C9.53125 68.1661 19.4596 82.7411 33.7999 89.4805C21.5628 83.3153 13.1687 70.6383 13.1687 56.001C13.1687 35.3094 29.9426 18.5354 50.6342 18.5354C60.1852 18.5354 68.9015 22.1093 75.5187 27.9928L81.9161 21.7956C74.2541 13.9492 63.5586 9.07812 51.7254 9.07812Z" fill="url(#paint2_linear_11474_11655)"/>
<path d="M48.7198 44.3639L84.0029 19.2656C76.4856 29.8142 60.578 52.0025 57.0861 56.3674C54.2605 59.8994 50.2917 58.9062 47.7235 57.435C46.6381 56.8132 45.7548 55.874 45.224 54.7413C42.8608 49.6985 46.4158 45.7902 48.7198 44.3639Z" fill="white"/>
<defs>
<linearGradient id="paint0_linear_11474_11655" x1="33.5591" y1="33.2656" x2="77.9706" y2="57.1524" gradientUnits="userSpaceOnUse">
<stop stop-color="#CFADFF"/>
<stop offset="1" stop-color="#935FDC"/>
</linearGradient>
<linearGradient id="paint1_linear_11474_11655" x1="9.53125" y1="71.1127" x2="80.7098" y2="36.3736" gradientUnits="userSpaceOnUse">
<stop stop-color="#49D49D"/>
<stop offset="1" stop-color="#844FCF"/>
</linearGradient>
<linearGradient id="paint2_linear_11474_11655" x1="10.9329" y1="12.4831" x2="98.0115" y2="54.6481" gradientUnits="userSpaceOnUse">
<stop stop-color="#CFADFF"/>
<stop offset="1" stop-color="#935FDC"/>
</linearGradient>
</defs>
</svg>
