<svg width="57" height="56" viewBox="0 0 57 56" fill="none" xmlns="http://www.w3.org/2000/svg">
<rect x="15.1338" y="21.1348" width="40.4634" height="34.3659" rx="3.5" stroke="black" stroke-dasharray="2 2"/>
<path d="M0 6V0.5L5.91217 5.14527C6.61691 5.699 7.4872 6 8.38345 6H37.4634C39.6726 6 41.4634 7.79086 41.4634 10V37.3659C41.4634 39.575 39.6726 41.3659 37.4634 41.3659H4C1.79086 41.3659 0 39.575 0 37.3659V6Z" fill="#7BE0B8"/>
<path d="M20.5 16.1298L22.8436 20.8785L22.9599 21.1142L23.2201 21.152L28.4606 21.9135L24.6685 25.6098L24.4803 25.7933L24.5247 26.0524L25.4199 31.2717L20.7327 28.8074L20.5 28.6851L20.2673 28.8074L15.5801 31.2717L16.4753 26.0524L16.5197 25.7933L16.3315 25.6098L12.5394 21.9135L17.7799 21.152L18.0401 21.1142L18.1564 20.8785L20.5 16.1298Z" stroke="#212529"/>
</svg>
