<svg width="56" height="56" viewBox="0 0 56 56" fill="none" xmlns="http://www.w3.org/2000/svg">
<path d="M32.0928 23.7405V18.0615C32.0928 16.9319 31.644 15.8485 30.8452 15.0497C30.0465 14.251 28.9631 13.8022 27.8335 13.8022L21.918 26.58V42.1972H38.1693C38.8541 42.2049 39.5186 41.9649 40.0404 41.5214C40.5622 41.0779 40.9061 40.4607 41.0088 39.7836L42.968 27.0059C43.0298 26.5989 43.0023 26.1834 42.8876 25.7881C42.7728 25.3928 42.5735 25.0272 42.3034 24.7166C42.0333 24.406 41.6989 24.1578 41.3233 23.9892C40.9478 23.8207 40.5401 23.7358 40.1285 23.7405H32.0928Z" fill="#7BE0B8"/>
<path d="M15.651 41.2482C16.1835 41.7808 18.7988 42.1983 19.5519 42.1983V26.5811C18.7988 26.5811 16.1835 26.7618 15.651 27.2944C15.1185 27.8269 14.8193 28.5491 14.8193 29.3022V39.2404C14.8193 39.9935 15.1185 40.7157 15.651 41.2482Z" fill="#7BE0B8"/>
<circle cx="28" cy="28" r="27" stroke="#212529" strokeLinecap="round" stroke-dasharray="2 4"/>
</svg>
