<svg width="50" height="51" viewBox="0 0 50 51" fill="none" xmlns="http://www.w3.org/2000/svg">
<path d="M5 3C5 1.89543 5.89543 1 7 1H43C44.1046 1 45 1.89543 45 3V28C45 29.1046 44.1046 30 43 30H7C5.89543 30 5 29.1046 5 28V3Z" stroke="#212529"/>
<path d="M0 16C0 13.7909 1.79086 12 4 12H11.8249C12.2628 12 12.6887 12.1437 13.037 12.4091L19.0576 16.9963C19.4059 17.2617 19.8318 17.4054 20.2697 17.4054H46C48.2091 17.4054 50 19.1963 50 21.4054V46.2432C50 48.4524 48.2091 50.2432 46 50.2432H4C1.79086 50.2432 0 48.4524 0 46.2432V16Z" fill="#7BE0B8"/>
</svg>
