<svg width="23" height="37" viewBox="0 0 23 37" fill="none" xmlns="http://www.w3.org/2000/svg">
<path d="M21.8 16.7998C17.215 16.7998 14.862 18.103 13.7829 19.4052C12.9854 20.3675 13.5199 21.7886 14.7022 22.1938C18.1004 23.3581 20.7781 19.3198 21.8 16.7998Z" stroke="white"/>
<path d="M1.00005 16.7998C5.58508 16.7998 7.93805 18.103 9.01716 19.4052C9.81463 20.3675 9.2802 21.7886 8.09786 22.1938C4.69968 23.3581 2.02199 19.3198 1.00005 16.7998Z" stroke="white"/>
<path d="M12.9999 20.7998H11.3999" stroke="white"/>
<path d="M9.7999 20.7998H11.3999" stroke="white"/>
<circle cx="11.3999" cy="8" r="7.5" fill="#9C68E7" stroke="white"/>
<path d="M13.05 4.7998C13.8 6.25435 14.2 9.23617 9.80005 9.52708L13.8 12.7998" stroke="white"/>
<path d="M8.19995 4.7998H15.4" stroke="white"/>
<path d="M8.19995 7.19971H15.4" stroke="white"/>
<path d="M20.5238 24H1.95238L1 27.3962H2.90476L5.7619 36H16.4762L19.3333 27.3962H21L20.5238 24Z" fill="#9C68E7" stroke="white"/>
<path d="M11.3999 16V24" stroke="white"/>
</svg>
