<svg width="54" height="54" viewBox="0 0 54 54" fill="none" xmlns="http://www.w3.org/2000/svg">
<path d="M22.9925 9.36512C24.5011 5.83965 29.4989 5.83966 31.0075 9.36512C31.939 11.542 34.438 12.5772 36.636 11.6966C40.1957 10.2704 43.7296 13.8043 42.3034 17.364C41.4228 19.562 42.458 22.061 44.6349 22.9925C48.1603 24.5011 48.1603 29.4989 44.6349 31.0075C42.458 31.939 41.4228 34.438 42.3034 36.636C43.7296 40.1957 40.1957 43.7296 36.636 42.3034C34.438 41.4228 31.939 42.458 31.0075 44.6349C29.4989 48.1603 24.5011 48.1603 22.9925 44.6349C22.061 42.458 19.562 41.4228 17.364 42.3034C13.8043 43.7296 10.2704 40.1957 11.6966 36.636C12.5772 34.438 11.542 31.939 9.36512 31.0075C5.83965 29.4989 5.83966 24.5011 9.36512 22.9925C11.542 22.061 12.5772 19.562 11.6966 17.364C10.2704 13.8043 13.8043 10.2704 17.364 11.6966C19.562 12.5772 22.061 11.542 22.9925 9.36512Z" fill="#7BE0B8"/>
<path d="M29.4436 24.226V24.586H31.9636V25.522H29.3716C29.2756 26.374 29.0476 27.034 28.6876 27.502C28.3396 27.958 27.8116 28.288 27.1036 28.492C26.3956 28.684 25.4356 28.78 24.2236 28.78V30.472C24.2236 32.272 25.0156 33.172 26.5996 33.172C27.3676 33.172 27.9436 32.95 28.3276 32.506C28.7116 32.062 28.9036 31.426 28.9036 30.598H30.0736C30.0616 31.774 29.7556 32.668 29.1556 33.28C28.5556 33.88 27.6976 34.18 26.5816 34.18C25.4176 34.18 24.5356 33.856 23.9356 33.208C23.3356 32.548 23.0356 31.636 23.0356 30.472V27.88C24.4396 27.88 25.4776 27.826 26.1496 27.718C26.8336 27.61 27.3256 27.394 27.6256 27.07C27.9376 26.746 28.1296 26.23 28.2016 25.522H22.1716V24.586H28.2556V24.208V22.354H22.1716V21.4H31.9636V22.354H29.4436V24.226Z" fill="#212529"/>
<circle cx="27" cy="27" r="26.5" stroke="#212529"/>
</svg>
