<svg width="162" height="43" viewBox="0 0 162 43" fill="none" xmlns="http://www.w3.org/2000/svg">
<g id="surface1">
<path id="Vector" fill-rule="evenodd" clip-rule="evenodd" d="M24.5611 42.25C11.0279 42.25 0 32.7616 0 21.12C0 9.48839 11.0279 0 24.5611 0C38.0844 0 49.1122 9.48839 49.1122 21.12C49.1122 32.7616 38.0844 42.25 24.5611 42.25Z" fill="#004A8F"/>
<path id="Vector_2" fill-rule="evenodd" clip-rule="evenodd" d="M40.3182 23.2632L43.055 23.3839C41.425 34.764 30.6286 35.5991 25.1851 24.5712L25.8995 23.3839C31.5341 26.9559 38.1247 28.3042 40.3182 23.2632Z" fill="white"/>
<path id="Vector_3" fill-rule="evenodd" clip-rule="evenodd" d="M21.7337 6.7013L27.2074 4.91028L27.4488 35.8909L21.4922 37.9134L21.7337 6.7013Z" fill="#ED1C24"/>
<path id="Vector_4" fill-rule="evenodd" clip-rule="evenodd" d="M40.4386 19.0875H42.934C41.968 13.8854 39.3318 10.6053 34.2405 10.1525C29.9943 10.233 26.372 12.6981 23.3937 17.5379C21.4316 20.5263 18.2823 25.2152 14.4587 25.7686C9.85037 26.4327 7.1739 22.3777 9.16617 18.8862C10.3736 16.7531 13.6437 15.8676 15.9278 16.0789C15.9378 16.0789 15.958 16.089 15.968 16.089C18.0609 16.3003 19.9928 16.8336 21.6429 17.8398L21.6731 13.4528C20.6368 12.5673 19.7916 11.6819 18.5741 11.0782C16.9239 10.2531 15.314 9.99148 13.7443 10.2732C6.80161 11.8026 5.52375 17.4775 6.84186 25.0441C9.53845 33.8282 17.9603 34.5023 22.8001 28.8576C26.1205 24.8932 34.3612 11.4806 40.4386 19.0875Z" fill="white"/>
<path id="Vector_5" fill-rule="evenodd" clip-rule="evenodd" d="M77.5369 26.5936C81.8434 26.5936 85.2443 24.0983 85.2443 19.7918C85.2443 15.4853 81.8434 12.7585 77.5369 12.7585C73.2203 12.7585 69.8194 15.4853 69.8194 19.7918C69.8194 24.0983 73.2203 26.5936 77.5369 26.5936ZM77.5369 23.4241C75.4943 23.4241 74.5888 21.6029 74.5888 19.7918C74.5888 17.7492 75.4943 15.928 77.5369 15.928C79.5795 15.928 80.485 17.7492 80.485 19.7918C80.485 21.6029 79.5795 23.4241 77.5369 23.4241ZM84.7915 16.3908H87.2869V21.6029C87.2869 24.7825 88.4239 26.5936 92.509 26.5936C93.636 26.5936 94.3202 26.3622 95.2257 26.3622L95.0044 23.4241C94.5516 23.4241 94.0888 23.6455 93.636 23.6455C92.2776 23.6455 91.8248 22.7399 91.8248 21.1501V16.3908H95.0044V13.2113H91.8248V8.67334L87.5183 10.2631V13.2113H84.7915V16.3908ZM110.872 26.3622H115.41V19.7918H115.641L119.274 26.3622H124.717L119.727 19.1076L124.264 13.2113H119.274L115.641 18.6548H115.41V8.67334L110.872 10.2631V26.3622ZM57.7954 26.3622H62.3333V19.7918L65.9657 26.3622H71.4092L66.6499 19.1076L71.1878 13.2113H66.1971L62.3333 18.6548V8.67334L57.7954 10.0418V26.3622ZM109.292 26.3622C109.061 25.2353 109.061 24.3297 109.061 23.1927V18.202C109.061 14.1168 106.113 12.7585 102.712 12.7585C100.901 12.7585 99.0895 12.9798 97.4897 13.6641V16.8436C98.8581 16.1594 100.216 15.928 101.806 15.928C103.396 15.928 104.754 16.3908 104.754 18.202C104.302 17.9706 103.396 17.9706 102.712 17.9706C100.216 17.9706 95.6785 18.4334 95.6785 22.5085C95.6785 25.4667 98.1739 26.5936 100.669 26.5936C102.712 26.5936 103.849 25.9094 104.986 24.3297C104.986 25.0038 105.207 25.688 105.207 26.3622H109.292ZM99.9951 22.0658C99.9951 20.9288 101.353 20.476 102.943 20.476C103.617 20.476 104.302 20.476 104.754 20.476C104.754 22.0658 103.617 23.6455 102.038 23.6455C100.901 23.6455 99.9951 22.9713 99.9951 22.0658Z" fill="#ED1C24"/>
<path id="Vector_6" fill-rule="evenodd" clip-rule="evenodd" d="M126.207 9.3576C126.559 9.3576 126.911 9.44816 127.253 9.62928C127.595 9.81039 127.857 10.072 128.048 10.4141C128.239 10.7562 128.33 11.1184 128.33 11.4907C128.33 11.853 128.239 12.2051 128.048 12.5472C127.867 12.8893 127.605 13.1509 127.263 13.3321C126.931 13.5232 126.569 13.6138 126.207 13.6138C125.834 13.6138 125.482 13.5232 125.14 13.3321C124.808 13.1509 124.536 12.8893 124.355 12.5472C124.164 12.2051 124.063 11.853 124.063 11.4907C124.063 11.1184 124.164 10.7562 124.355 10.4141C124.546 10.072 124.818 9.81039 125.15 9.62928C125.492 9.44816 125.844 9.3576 126.207 9.3576ZM126.207 9.70977C125.905 9.70977 125.613 9.78021 125.331 9.9412C125.039 10.0921 124.818 10.3135 124.667 10.5952C124.506 10.877 124.426 11.1788 124.426 11.4907C124.426 11.7926 124.506 12.0844 124.657 12.3661C124.818 12.6479 125.039 12.8692 125.321 13.0302C125.603 13.1811 125.895 13.2616 126.207 13.2616C126.509 13.2616 126.8 13.1811 127.092 13.0302C127.374 12.8692 127.585 12.6479 127.746 12.3661C127.907 12.0844 127.978 11.7926 127.978 11.4907C127.978 11.1788 127.897 10.877 127.746 10.5952C127.585 10.3135 127.364 10.0921 127.072 9.9412C126.79 9.78021 126.498 9.70977 126.207 9.70977ZM125.271 12.6579V10.3739H126.056C126.327 10.3739 126.519 10.394 126.639 10.4342C126.76 10.4745 126.861 10.555 126.931 10.6556C127.002 10.7663 127.042 10.877 127.042 10.9977C127.042 11.1587 126.981 11.3096 126.861 11.4304C126.74 11.5511 126.579 11.6215 126.378 11.6417C126.458 11.6718 126.529 11.7121 126.579 11.7624C126.67 11.853 126.78 12.0039 126.911 12.2152L127.193 12.6579H126.75L126.539 12.3057C126.378 12.014 126.247 11.8429 126.146 11.7725C126.086 11.7121 125.985 11.692 125.854 11.692H125.633V12.6579H125.271ZM125.633 11.37H126.086C126.307 11.37 126.448 11.3398 126.529 11.2794C126.609 11.209 126.639 11.1285 126.639 11.0279C126.639 10.9574 126.629 10.8971 126.589 10.8468C126.549 10.7864 126.498 10.7461 126.428 10.726C126.358 10.6958 126.237 10.6858 126.056 10.6858H125.633V11.37Z" fill="#004A8F"/>
<path id="Vector_7" d="M63.5006 38.668H62.2731L59.2042 35.0759C59.0935 34.9551 59.0331 34.8646 58.9929 34.8143H58.9727V38.668H58.1074V30.8297H58.9727V34.5124H58.9929C59.0432 34.442 59.1136 34.3514 59.2042 34.2508L62.1825 30.8297H63.2591L59.8582 34.5929L63.5006 38.668ZM63.9031 35.9412C63.9031 35.0155 64.1647 34.281 64.6678 33.7376C65.1709 33.2044 65.8652 32.9428 66.7405 32.9428C67.5656 32.9428 68.2096 33.1943 68.6724 33.7175C69.1453 34.2307 69.3768 34.9451 69.3768 35.8607C69.3768 36.7462 69.1252 37.4505 68.6221 37.9938C68.109 38.5372 67.4449 38.7988 66.6097 38.7988C65.8048 38.7988 65.1508 38.5472 64.6477 38.024C64.1546 37.5008 63.9031 36.8065 63.9031 35.9412ZM64.7684 35.911C64.7684 36.565 64.9395 37.0983 65.2816 37.4907C65.6337 37.8832 66.0966 38.0844 66.6701 38.0844C67.2537 38.0844 67.7065 37.8932 68.0385 37.5109C68.3505 37.1184 68.5215 36.5852 68.5215 35.8909C68.5215 35.1765 68.3605 34.6231 68.0385 34.2407C67.7166 33.8483 67.2638 33.6571 66.6701 33.6571C66.0865 33.6571 65.6237 33.8584 65.2816 34.2609C64.9395 34.6633 64.7684 35.2067 64.7684 35.911ZM73.3714 38.6177C73.1701 38.7284 72.8984 38.7887 72.5563 38.7887C71.6005 38.7887 71.1175 38.2554 71.1175 37.1688V33.798H70.1415V33.0736H71.1175V31.6951L71.9526 31.4234V33.0736H73.3714V33.798H71.9526V37.0178C71.9526 37.4002 72.0231 37.6719 72.1438 37.8328C72.2746 37.9938 72.496 38.0743 72.7878 38.0743C73.0192 38.0743 73.2204 38.014 73.3714 37.8832V38.6177ZM74.7197 33.466C75.2731 33.1138 75.8969 32.9428 76.6113 32.9428C77.9093 32.9428 78.5532 33.627 78.5532 35.0155V38.668H77.708V37.7926H77.6779C77.2955 38.4667 76.722 38.7988 75.9573 38.7988C75.4039 38.7988 74.9712 38.6579 74.6492 38.3561C74.3272 38.0643 74.1763 37.6719 74.1763 37.1889C74.1763 36.1525 74.7901 35.5488 76.0176 35.3677L77.708 35.1262C77.708 34.1602 77.3156 33.6672 76.5409 33.6672C75.8667 33.6672 75.2529 33.8986 74.7197 34.3615V33.466ZM76.3396 36.0116C75.8566 36.0821 75.5246 36.1927 75.3334 36.3638C75.1423 36.5248 75.0517 36.7864 75.0517 37.1285C75.0517 37.4102 75.1523 37.6417 75.3535 37.8127C75.5548 37.9938 75.8164 38.0743 76.1384 38.0743C76.5912 38.0743 76.9635 37.9133 77.2653 37.6014C77.5571 37.2794 77.708 36.877 77.708 36.394V35.8305L76.3396 36.0116ZM84.852 38.668H83.6546L81.1291 35.9915H81.109V38.668H80.2638V30.387H81.109V35.6393H81.1291L83.5238 33.0736H84.6407L82.0145 35.7802L84.852 38.668ZM95.5679 38.668V33.3754C95.5679 32.9729 95.5981 32.4698 95.6484 31.8561H95.6283C95.5277 32.2284 95.4472 32.4799 95.3868 32.6006L92.66 38.668H92.2777L89.5409 32.6409C89.4704 32.4799 89.4 32.2284 89.3195 31.8561H89.2893C89.3195 32.1378 89.3396 32.6409 89.3396 33.3654V38.668H88.4944V30.8297H89.6214L92.0765 36.3537C92.2676 36.7864 92.3884 37.0983 92.4387 37.2794H92.4789C92.5796 37.0078 92.7003 36.6858 92.8512 36.3236L95.3667 30.8297H96.4232V38.668H95.5679ZM98.5161 33.466C99.0695 33.1138 99.6933 32.9428 100.408 32.9428C101.706 32.9428 102.35 33.627 102.35 35.0155V38.668H101.504V37.7926H101.474C101.092 38.4667 100.518 38.7988 99.7537 38.7988C99.2003 38.7988 98.7676 38.6579 98.4457 38.3561C98.1237 38.0643 97.9727 37.6719 97.9727 37.1889C97.9727 36.1525 98.5865 35.5488 99.8141 35.3677L101.504 35.1262C101.504 34.1602 101.112 33.6672 100.337 33.6672C99.6631 33.6672 99.0494 33.8986 98.5161 34.3615V33.466ZM100.126 36.0116C99.6531 36.0821 99.321 36.1927 99.1299 36.3638C98.9387 36.5248 98.8481 36.7864 98.8481 37.1285C98.8481 37.4102 98.9487 37.6417 99.15 37.8127C99.3512 37.9938 99.6128 38.0743 99.9348 38.0743C100.388 38.0743 100.76 37.9133 101.052 37.6014C101.354 37.2794 101.504 36.877 101.504 36.394V35.8305L100.126 36.0116ZM108.659 38.668H107.823V35.4381C107.823 34.2508 107.381 33.6571 106.495 33.6571C106.042 33.6571 105.66 33.8282 105.358 34.1804C105.056 34.5225 104.905 34.9652 104.905 35.4985V38.668H104.06V30.387H104.905V34.0093H104.926C105.358 33.2949 105.972 32.9428 106.777 32.9428C108.035 32.9428 108.659 33.6974 108.659 35.2268V38.668ZM110.258 31.0612C110.258 30.9002 110.319 30.7593 110.419 30.6587C110.53 30.548 110.661 30.4876 110.812 30.4876C110.963 30.4876 111.104 30.548 111.214 30.6587C111.325 30.7694 111.375 30.9002 111.375 31.0612C111.375 31.202 111.325 31.3328 111.214 31.4435C111.104 31.5542 110.963 31.6146 110.812 31.6146C110.651 31.6146 110.52 31.5643 110.419 31.4536C110.319 31.3429 110.258 31.2121 110.258 31.0612ZM110.379 38.668V33.0736H111.214V38.668H110.379ZM117.664 38.668H116.819V35.4683C116.819 34.2609 116.376 33.6571 115.491 33.6571C115.028 33.6571 114.645 33.8282 114.354 34.1804C114.052 34.5225 113.911 34.9551 113.911 35.4784V38.668H113.066V33.0736H113.911V34.0093H113.931C114.354 33.2949 114.967 32.9428 115.772 32.9428C116.386 32.9428 116.849 33.1339 117.181 33.5364C117.503 33.9288 117.664 34.5023 117.664 35.2469V38.668ZM124.104 38.668H123.258V37.7121H123.238C122.826 38.4366 122.182 38.7988 121.306 38.7988C120.602 38.7988 120.039 38.5472 119.616 38.0441C119.203 37.541 118.992 36.8568 118.992 36.0016C118.992 35.0859 119.224 34.3414 119.696 33.7779C120.159 33.2245 120.783 32.9428 121.548 32.9428C122.323 32.9428 122.886 33.2446 123.238 33.8584H123.258V30.387H124.104V38.668ZM123.258 35.2972C123.258 34.8445 123.107 34.452 122.795 34.1401C122.484 33.8181 122.101 33.6571 121.648 33.6571C121.085 33.6571 120.652 33.8684 120.33 34.281C120.008 34.6935 119.847 35.2469 119.847 35.9613C119.847 36.6053 120.008 37.1184 120.31 37.5008C120.612 37.8932 121.025 38.0844 121.538 38.0844C122.041 38.0844 122.443 37.9033 122.775 37.541C123.097 37.1788 123.258 36.716 123.258 36.1525V35.2972ZM128.813 33.9389C128.662 33.8181 128.44 33.7578 128.148 33.7578C127.746 33.7578 127.424 33.9489 127.172 34.3212C126.911 34.7036 126.79 35.1966 126.79 35.8104V38.668H125.945V33.0736H126.79V34.2307H126.81C126.941 33.8282 127.132 33.5263 127.404 33.305C127.665 33.0836 127.947 32.9729 128.269 32.9729C128.511 32.9729 128.692 33.0031 128.813 33.0534V33.9389ZM129.929 33.466C130.483 33.1138 131.107 32.9428 131.821 32.9428C133.119 32.9428 133.763 33.627 133.763 35.0155V38.668H132.918V37.7926H132.888C132.505 38.4667 131.932 38.7988 131.167 38.7988C130.614 38.7988 130.181 38.6579 129.859 38.3561C129.537 38.0643 129.386 37.6719 129.386 37.1889C129.386 36.1525 130 35.5488 131.227 35.3677L132.918 35.1262C132.918 34.1602 132.525 33.6672 131.751 33.6672C131.076 33.6672 130.473 33.8986 129.929 34.3615V33.466ZM131.549 36.0116C131.066 36.0821 130.734 36.1927 130.543 36.3638C130.362 36.5248 130.261 36.7864 130.261 37.1285C130.261 37.4102 130.362 37.6417 130.563 37.8127C130.765 37.9938 131.026 38.0743 131.358 38.0743C131.801 38.0743 132.173 37.9133 132.475 37.6014C132.767 37.2794 132.918 36.877 132.918 36.394V35.8305L131.549 36.0116ZM138.19 38.668V30.8297H140.384C141.028 30.8297 141.561 30.9907 141.953 31.3228C142.356 31.6448 142.557 32.0774 142.557 32.6208C142.557 33.0635 142.436 33.4458 142.205 33.7779C141.963 34.0999 141.631 34.3414 141.209 34.4923V34.5124C141.732 34.5627 142.145 34.7539 142.467 35.096C142.789 35.4381 142.95 35.8808 142.95 36.4242C142.95 37.0883 142.708 37.6316 142.235 38.0441C141.752 38.4567 141.148 38.668 140.424 38.668H138.19ZM139.045 31.6246V34.2106H140.001C140.515 34.2106 140.927 34.0797 141.219 33.8383C141.511 33.5867 141.652 33.2345 141.652 32.7918C141.652 32.0171 141.148 31.6246 140.132 31.6246H139.045ZM139.045 35.0054V37.8731H140.323C140.857 37.8731 141.279 37.7423 141.591 37.4807C141.893 37.2291 142.044 36.8669 142.044 36.4141C142.044 35.4683 141.4 35.0054 140.112 35.0054H139.045ZM144.569 33.466C145.123 33.1138 145.747 32.9428 146.451 32.9428C147.759 32.9428 148.403 33.627 148.403 35.0155V38.668H147.558V37.7926H147.528C147.145 38.4667 146.572 38.7988 145.807 38.7988C145.254 38.7988 144.821 38.6579 144.499 38.3561C144.177 38.0643 144.016 37.6719 144.016 37.1889C144.016 36.1525 144.64 35.5488 145.867 35.3677L147.558 35.1262C147.558 34.1602 147.165 33.6672 146.391 33.6672C145.717 33.6672 145.103 33.8986 144.569 34.3615V33.466ZM146.179 36.0116C145.706 36.0821 145.374 36.1927 145.183 36.3638C144.992 36.5248 144.902 36.7864 144.902 37.1285C144.902 37.4102 145.002 37.6417 145.203 37.8127C145.405 37.9938 145.666 38.0743 145.988 38.0743C146.441 38.0743 146.813 37.9133 147.105 37.6014C147.407 37.2794 147.558 36.877 147.558 36.394V35.8305L146.179 36.0116ZM154.712 38.668H153.867V35.4683C153.867 34.2609 153.424 33.6571 152.549 33.6571C152.076 33.6571 151.703 33.8282 151.402 34.1804C151.11 34.5225 150.959 34.9551 150.959 35.4784V38.668H150.114V33.0736H150.959V34.0093H150.979C151.402 33.2949 152.015 32.9428 152.82 32.9428C153.434 32.9428 153.907 33.1339 154.229 33.5364C154.551 33.9288 154.712 34.5023 154.712 35.2469V38.668ZM161.011 38.668H159.803L157.288 35.9915H157.268V38.668H156.422V30.387H157.268V35.6393H157.288L159.682 33.0736H160.799L158.163 35.7802L161.011 38.668Z" fill="#003974"/>
</g>
</svg>
