<svg width="62" height="51" viewBox="0 0 62 51" fill="none" xmlns="http://www.w3.org/2000/svg">
<path d="M45.7422 16.1094H48.5832C51.597 16.1094 54.4875 17.3066 56.6186 19.4378C58.7498 21.5689 59.947 24.4594 59.947 27.4733C59.947 30.4872 58.7498 33.3776 56.6186 35.5087C54.4875 37.6399 51.597 38.8372 48.5832 38.8372H45.7422" stroke="#7BE0B8" stroke-width="3" stroke-linecap="square" stroke-linejoin="round"/>
<path d="M0 14.0703H45.4556V39.6391C45.4556 42.653 44.2583 45.5434 42.1271 47.6745C39.996 49.8057 37.1056 51.0029 34.0917 51.0029H11.3639C8.35 51.0029 5.45955 49.8057 3.32841 47.6745C1.19726 45.5434 0 42.653 0 39.6391V14.0703Z" fill="#7BE0B8"/>
<path d="M11.3672 1V9.52292" stroke="#212529" stroke-width="1.5" stroke-linecap="round" stroke-linejoin="round"/>
<path d="M22.7266 1V9.52292" stroke="#212529" stroke-width="1.5" stroke-linecap="round" stroke-linejoin="round"/>
<path d="M34.0938 1V9.52292" stroke="#212529" stroke-width="1.5" stroke-linecap="round" stroke-linejoin="round"/>
</svg>
