<svg width="19" height="20" viewBox="0 0 19 20" fill="#49D49D" xmlns="http://www.w3.org/2000/svg">
<path d="M5.83464 9.16675L9.16797 1.66675C9.83101 1.66675 10.4669 1.93014 10.9357 2.39898C11.4046 2.86782 11.668 3.50371 11.668 4.16675V7.50008H16.3846C16.6262 7.49735 16.8655 7.54717 17.0859 7.6461C17.3064 7.74502 17.5026 7.89069 17.6612 8.07301C17.8197 8.25533 17.9367 8.46993 18.0041 8.70196C18.0714 8.93398 18.0876 9.17788 18.0513 9.41675L16.9013 16.9167C16.841 17.3142 16.6392 17.6764 16.3329 17.9368C16.0266 18.1971 15.6366 18.338 15.2346 18.3334H5.83464M5.83464 9.16675V18.3334M5.83464 9.16675H3.33464C2.89261 9.16675 2.46868 9.34234 2.15612 9.6549C1.84356 9.96746 1.66797 10.3914 1.66797 10.8334V16.6667C1.66797 17.1088 1.84356 17.5327 2.15612 17.8453C2.46868 18.1578 2.89261 18.3334 3.33464 18.3334H5.83464" stroke="#212529" stroke-width="1" stroke-linecap="round" stroke-linejoin="round" fill="#49D49D"/>
</svg>
