<svg width="34" height="34" viewBox="0 0 34 34" fill="none" xmlns="http://www.w3.org/2000/svg">
<path fill-rule="evenodd" clip-rule="evenodd" d="M1.75 17C1.75 8.57766 8.57766 1.75 17 1.75C25.4223 1.75 32.25 8.57766 32.25 17C32.25 25.4223 25.4223 32.25 17 32.25C8.57766 32.25 1.75 25.4223 1.75 17ZM17 0.25C7.74923 0.25 0.25 7.74923 0.25 17C0.25 26.2508 7.74923 33.75 17 33.75C26.2508 33.75 33.75 26.2508 33.75 17C33.75 7.74923 26.2508 0.25 17 0.25ZM9.70312 14.6016H12.8799V24.1466H9.70312V14.6016ZM13.0895 11.6487C13.0689 10.7128 12.3997 10 11.3129 10C10.2261 10 9.51562 10.7128 9.51562 11.6487C9.51562 12.5652 10.2051 13.2986 11.2717 13.2986H11.292C12.3997 13.2986 13.0895 12.5652 13.0895 11.6487ZM20.6735 14.377C22.764 14.377 24.3312 15.7415 24.3312 18.6733L24.3311 24.1461H21.1544V19.0395C21.1544 17.7569 20.6947 16.8816 19.5447 16.8816C18.667 16.8816 18.1442 17.4717 17.9146 18.0416C17.8306 18.2458 17.81 18.5304 17.81 18.8156V24.1464H14.6328C14.6328 24.1464 14.6747 15.497 14.6328 14.6013H17.81V15.9533C18.2317 15.3034 18.9868 14.377 20.6735 14.377Z" fill="#212529"/>
</svg>
