<svg width="51" height="40" viewBox="0 0 51 40" fill="none" xmlns="http://www.w3.org/2000/svg">
<path d="M24.0491 9V0L8.54907 5.5C1.57223 8.28505 -0.346302 14.9854 0.0490754 18V30.5C0.0490754 37.3 5.71574 38 8.54907 37.5L26.0491 31V22L8.54907 28.5V19C8.54907 15.4 10.5491 13.8333 11.5491 13.5L24.0491 9Z" fill="#49D49D"/>
<path d="M26.0496 31V40L41.5496 34.5C48.5264 31.715 50.4449 25.0146 50.0496 22V9.5C50.0496 2.7 44.3829 2 41.5496 2.5L24.0496 9V18L41.5496 11.5V21C41.5496 24.6 39.5496 26.1667 38.5496 26.5L26.0496 31Z" fill="#A882DD"/>
</svg>
