<svg width="85" height="85" viewBox="0 0 85 85" fill="none" xmlns="http://www.w3.org/2000/svg">
<circle cx="42.5" cy="42.5" r="42.5" fill="#7BE0B8"/>
<path d="M38.2842 23.9956C39.8673 20.296 45.1118 20.296 46.6949 23.9956C47.6725 26.28 50.2949 27.3662 52.6015 26.4421C56.3369 24.9456 60.0453 28.654 58.5487 32.3894C57.6246 34.696 58.7109 37.3184 60.9953 38.2959C64.6949 39.879 64.6949 45.1236 60.9953 46.7067C58.7109 47.6842 57.6246 50.3066 58.5487 52.6132C60.0453 56.3486 56.3369 60.057 52.6015 58.5605C50.2949 57.6364 47.6725 58.7226 46.6949 61.007C45.1118 64.7066 39.8673 64.7066 38.2842 61.007C37.3067 58.7226 34.6842 57.6364 32.3777 58.5605C28.6423 60.057 24.9338 56.3486 26.4304 52.6132C27.3545 50.3066 26.2683 47.6842 23.9838 46.7067C20.2843 45.1236 20.2843 39.879 23.9838 38.2959C26.2683 37.3184 27.3545 34.696 26.4304 32.3894C24.9338 28.654 28.6423 24.9456 32.3777 26.4421C34.6842 27.3662 37.3067 26.28 38.2842 23.9956Z" fill="#49D49D" stroke="#212529" stroke-width="1.5"/>
<path d="M45.7498 38.1711V38.6511H49.1098V39.8991H45.6538C45.5258 41.0351 45.2218 41.9151 44.7418 42.5391C44.2778 43.1471 43.5738 43.5871 42.6298 43.8591C41.6858 44.1151 40.4058 44.2431 38.7898 44.2431V46.4991C38.7898 48.8991 39.8458 50.0991 41.9578 50.0991C42.9818 50.0991 43.7498 49.8031 44.2618 49.2111C44.7738 48.6191 45.0298 47.7711 45.0298 46.6671H46.5898C46.5738 48.2351 46.1658 49.4271 45.3658 50.2431C44.5658 51.0431 43.4218 51.4431 41.9338 51.4431C40.3818 51.4431 39.2058 51.0111 38.4058 50.1471C37.6058 49.2671 37.2058 48.0511 37.2058 46.4991V43.0431C39.0778 43.0431 40.4618 42.9711 41.3578 42.8271C42.2698 42.6831 42.9258 42.3951 43.3258 41.9631C43.7418 41.5311 43.9978 40.8431 44.0938 39.8991H36.0538V38.6511H44.1658V38.1471V35.6751H36.0538V34.4031H49.1098V35.6751H45.7498V38.1711Z" fill="#212529"/>
</svg>
