<svg width="420" height="266" viewBox="0 0 420 266" fill="none" xmlns="http://www.w3.org/2000/svg">
<g clip-path="url(#clip0_8162_8737)">
<path d="M349.527 68.8066H415.514V0.0207596H349.527V68.8066Z" fill="#DADBD8"/>
<path d="M353.993 68.8066H419.98V0.0207596H353.993V68.8066Z" fill="#FAFAF9"/>
<path d="M419.961 68.786H354.015V0.0406647H419.961V68.786ZM353.974 68.8271H420.002V0.000114441H353.974V68.8271Z" fill="#DADBD8"/>
<path d="M362.866 59.5596H411.111V9.26687H362.866V59.5596Z" fill="white"/>
<path d="M411.112 59.8944C411.074 59.9399 411.532 60.4657 412.303 61.279C413.073 62.0923 414.155 63.1924 415.369 64.3884C416.583 65.5838 417.699 66.6489 418.521 67.4051C419.344 68.1612 419.874 68.6084 419.915 68.5666C419.957 68.5243 419.502 68.0009 418.731 67.1882C417.961 66.3749 416.875 65.2717 415.657 64.0727C414.44 62.8742 413.322 61.806 412.5 61.0505C411.677 60.2943 411.15 59.8496 411.112 59.8944Z" fill="#DADBD8"/>
<path d="M362.866 59.7708C362.821 59.7333 362.294 60.1916 361.482 60.9613C360.668 61.7322 359.568 62.8145 358.372 64.0283C357.177 65.2427 356.112 66.3582 355.355 67.1801C354.599 68.0032 354.152 68.5333 354.194 68.5745C354.236 68.6163 354.76 68.1611 355.572 67.3908C356.386 66.6199 357.489 65.5345 358.688 64.317C359.886 63.0995 360.954 61.9822 361.71 61.159C362.466 60.3365 362.911 59.8089 362.866 59.7708Z" fill="#DADBD8"/>
<path d="M362.996 9.4021C363.034 9.35726 362.576 8.83084 361.805 8.01816C361.035 7.20487 359.952 6.10409 358.738 4.90872C357.525 3.71274 356.409 2.64824 355.586 1.89146C354.764 1.1359 354.234 0.688693 354.192 0.730463C354.151 0.772233 354.606 1.29559 355.376 2.10888C356.147 2.92217 357.233 4.02481 358.45 5.22387C359.667 6.42292 360.785 7.49052 361.608 8.24668C362.43 9.00223 362.958 9.44755 362.996 9.4021Z" fill="#DADBD8"/>
<path d="M411.244 9.52514C411.289 9.56323 411.815 9.10499 412.628 8.33469C413.441 7.5644 414.541 6.48082 415.737 5.26764C416.933 4.05323 417.998 2.93832 418.754 2.11582C419.51 1.29331 419.957 0.763214 419.915 0.721444C419.874 0.679673 419.35 1.13483 418.537 1.90574C417.724 2.67604 416.621 3.76207 415.422 4.97955C414.223 6.19642 413.155 7.31499 412.4 8.13689C411.643 8.96001 411.199 9.48644 411.244 9.52514Z" fill="#DADBD8"/>
<path d="M362.996 59.5605C363 59.5574 363.003 59.4745 363.006 59.316C363.009 59.1446 363.013 58.9136 363.017 58.6145C363.022 57.9836 363.03 57.077 363.039 55.8994C363.05 53.5167 363.067 50.051 363.088 45.6497C363.111 36.8411 363.143 24.2928 363.182 9.26777L362.996 9.45391C377.041 9.4619 393.536 9.47171 411.105 9.48154H411.11L410.897 9.26777C410.908 27.7272 410.918 44.9968 410.927 59.5605L411.11 59.3774C396.693 59.4161 384.689 59.4481 376.273 59.4708C372.068 59.4917 368.76 59.5076 366.487 59.5187C365.364 59.5285 364.5 59.5347 363.898 59.5402C363.614 59.5445 363.393 59.5482 363.229 59.55C363.078 59.5537 363 59.5574 362.996 59.5605C362.993 59.5642 363.065 59.5672 363.209 59.5709C363.368 59.574 363.582 59.5764 363.858 59.5814C364.452 59.5863 365.304 59.593 366.412 59.6029C368.675 59.6139 371.969 59.6299 376.156 59.6508C384.6 59.6729 396.644 59.7054 411.11 59.7441H411.294L411.294 59.5605C411.303 44.9968 411.313 27.7272 411.324 9.26777V9.05464H411.11H411.105C393.536 9.06446 377.041 9.07368 362.996 9.08166H362.809L362.81 9.26777C362.849 24.3419 362.882 36.9314 362.904 45.7689C362.926 50.1517 362.942 53.6039 362.953 55.9762C362.963 57.1384 362.97 58.0334 362.975 58.655C362.98 58.9462 362.983 59.1704 362.986 59.3369C362.989 59.4886 362.993 59.5642 362.996 59.5605Z" fill="#DADBD8"/>
<path d="M378.94 42.4629H395.039V26.3641H378.94V42.4629Z" fill="#E7E8E5"/>
<path d="M20.4168 3.17593V65.3584H109.728L112.945 3.61084L20.4168 3.17593Z" fill="#DADBD8"/>
<path d="M23.6343 3.61179V65.2285H112.945V3.61179H23.6343Z" fill="white"/>
<path d="M112.521 64.8037H24.0568V4.03463H112.521V64.8037ZM23.2097 65.6514H113.367V3.18755H23.2097V65.6514Z" fill="#DADBD8"/>
<path d="M33.3069 11.2668V57.5723H103.271V11.2668H33.3069Z" fill="white"/>
<path d="M33.3071 11.2664C33.3071 11.2664 33.4275 11.2743 33.6517 11.2786C33.8894 11.2811 34.218 11.2848 34.6468 11.2897C35.5338 11.2958 36.8201 11.3038 38.489 11.3149C41.8503 11.3272 46.7362 11.3456 52.9072 11.3689C65.2454 11.3935 82.709 11.4279 103.272 11.4685L103.07 11.2664C103.063 25.4142 103.057 41.0904 103.051 57.5663V57.5718L103.272 57.3513C76.879 57.3685 52.546 57.3839 33.3071 57.3962L33.4834 57.5718C33.4441 43.4805 33.4121 31.9267 33.39 23.8804C33.371 19.8594 33.3562 16.7174 33.3458 14.5638C33.3372 13.4999 33.331 12.6829 33.3261 12.1159C33.3194 11.5606 33.3071 11.2664 33.3071 11.2664C33.3071 11.2664 33.2942 11.5354 33.288 12.079C33.2831 12.6386 33.277 13.4439 33.2684 14.4943C33.2579 16.6381 33.2432 19.7672 33.2235 23.7717C33.2014 31.8432 33.1701 43.4344 33.1308 57.5718L33.1302 57.7475L33.3071 57.7481C52.546 57.7604 76.879 57.7758 103.272 57.793H103.492V57.5718V57.5663C103.486 41.0904 103.48 25.4142 103.474 11.2664L103.474 11.0636H103.272C82.6549 11.1048 65.1452 11.1386 52.7745 11.1638C46.6226 11.1865 41.7527 11.2049 38.4018 11.2178C36.7507 11.2283 35.4779 11.2369 34.6007 11.2424C34.1812 11.2473 33.8599 11.251 33.6283 11.2547C33.4109 11.2584 33.3071 11.2664 33.3071 11.2664Z" fill="#DADBD8"/>
<path d="M112.945 3.43775C112.908 3.38984 112.324 3.77253 111.41 4.43225C110.496 5.09198 109.252 6.02749 107.909 7.10246C106.565 8.17805 105.383 9.19529 104.551 9.95699C103.719 10.7187 103.233 11.2212 103.272 11.266C103.355 11.3594 105.503 9.58905 108.185 7.44709C110.868 5.30759 113.024 3.53788 112.945 3.43775Z" fill="#DADBD8"/>
<path d="M23.6331 3.61092C23.5576 3.70675 25.662 5.49795 28.3329 7.61165C31.0043 9.72597 33.2305 11.3618 33.3066 11.2666C33.3822 11.1707 31.2783 9.38014 28.6068 7.26582C25.936 5.15212 23.7087 3.51571 23.6331 3.61092Z" fill="#DADBD8"/>
<path d="M23.7062 65.2363C27.0251 62.5464 30.3446 59.856 33.6641 57.1661L23.7062 65.2363Z" fill="white"/>
<path d="M33.6621 57.1662C33.5853 57.071 31.2935 58.8014 28.5446 61.03C25.7939 63.2592 23.6274 65.1425 23.7042 65.2365C23.781 65.3317 26.0716 63.6019 28.8223 61.3727C31.5711 59.1442 33.7389 57.2602 33.6621 57.1662Z" fill="#DADBD8"/>
<path d="M112.943 65.2274C113.019 65.1316 110.936 63.3594 108.293 61.2685C105.649 59.1775 103.445 57.5595 103.369 57.6553C103.294 57.7506 105.376 59.5227 108.019 61.6143C110.663 63.7053 112.868 65.3227 112.943 65.2274Z" fill="#DADBD8"/>
<path d="M45.0436 25.6935V41.1982H89.0664V25.6935H45.0436Z" fill="#F3F2F1"/>
<path d="M339.998 220.176V249.792H248.922V220.176H339.998Z" fill="#F3F2F1"/>
<path d="M343.82 211.896V220.176H245.738V211.896H296.69H343.82Z" fill="#DADBD8"/>
<path d="M294.778 249.792H248.922V220.176H245.737V211.896H296.689V219.41L294.778 249.792Z" fill="#DADBD8"/>
<path d="M327.26 224.953V229.41H308.79V224.953H327.26Z" fill="#DADBD8"/>
<path d="M305.92 244.397H329.637V234.984H305.92V244.397Z" fill="white"/>
<path d="M64.1541 166.812L85.0859 251.449H79.5766L58.1282 166.812H64.1541Z" fill="#F3F2F1"/>
<path d="M24.726 166.813L5.14061 251.45H10.6506L30.752 166.813H24.726Z" fill="#F3F2F1"/>
<path d="M41.0915 250.206H47.5058L48.4609 153.065H42.0473L41.0915 250.206Z" fill="#F3F2F1"/>
<path d="M0.00208282 154.001H90.5078V96.0158H0.00208282V154.001Z" fill="#E7E8E5"/>
<path d="M22.5144 171.523H67.9414V165.924H22.5144V171.523Z" fill="#F3F2F1"/>
<path d="M84.4938 146.436C84.4717 146.436 84.4508 146.77 84.4318 147.497H84.5553C84.6486 144.662 84.7168 135.266 84.7168 124.132C84.691 117.413 84.6683 111.334 84.6511 106.858C84.6222 104.694 84.5983 102.921 84.5804 101.624C84.5632 101.046 84.5491 100.575 84.5387 100.201C84.5239 99.8752 84.5086 99.7045 84.4938 99.7045C84.4779 99.7045 84.4631 99.8752 84.4484 100.201C84.4373 100.575 84.4238 101.046 84.4066 101.624C84.3894 102.921 84.3654 104.694 84.3359 106.858C84.3187 111.334 84.2954 117.413 84.2702 124.132C84.2702 135.266 84.3384 144.662 84.4318 147.497H84.5553C84.5356 146.77 84.5153 146.436 84.4938 146.436Z" fill="#F3F2F1"/>
<path d="M77.7581 146.435C77.7366 146.435 77.7151 146.769 77.6954 147.496H77.8195C77.9129 144.661 77.9805 135.265 77.9805 124.131C77.9553 117.412 77.9326 111.333 77.9154 106.857C77.8865 104.693 77.8625 102.92 77.8441 101.623C77.8275 101.045 77.814 100.574 77.8023 100.2C77.7882 99.8742 77.7728 99.7035 77.7581 99.7035C77.7421 99.7035 77.7274 99.8742 77.7133 100.2C77.7016 100.574 77.6881 101.045 77.6709 101.623C77.6537 102.92 77.6291 104.693 77.6002 106.857C77.5837 111.333 77.5603 117.412 77.5351 124.131C77.5351 135.265 77.6027 144.661 77.6954 147.496H77.8195C77.7999 146.769 77.779 146.435 77.7581 146.435Z" fill="#F3F2F1"/>
<path d="M71.0212 146.436C71.0003 146.436 70.9794 146.77 70.9591 147.497H71.0838C71.1766 144.662 71.2441 135.266 71.2441 124.132C71.219 117.413 71.1962 111.334 71.179 106.858C71.1495 104.694 71.1256 102.921 71.1084 101.624C71.0912 101.046 71.0777 100.575 71.066 100.201C71.0519 99.8752 71.0365 99.7045 71.0212 99.7045C71.0064 99.7045 70.9911 99.8752 70.9763 100.201C70.9653 100.575 70.9517 101.046 70.9345 101.624C70.9167 102.921 70.8928 104.694 70.8633 106.858C70.8467 111.334 70.824 117.413 70.7988 124.132C70.7988 135.266 70.8664 144.662 70.9591 147.497H71.0838C71.0636 146.77 71.0427 146.436 71.0212 146.436Z" fill="#F3F2F1"/>
<path d="M64.2848 146.436C64.2633 146.436 64.243 146.77 64.2234 147.497H64.3475C64.4402 144.662 64.5078 135.266 64.5078 124.132C64.4826 117.413 64.4593 111.334 64.4427 106.858C64.4132 104.694 64.3892 102.921 64.372 101.624C64.3548 101.046 64.3407 100.575 64.3297 100.201C64.3155 99.8752 64.3008 99.7045 64.2848 99.7045C64.2701 99.7045 64.2547 99.8752 64.24 100.201C64.2289 100.575 64.2154 101.046 64.1988 101.624C64.1804 102.921 64.1564 104.694 64.127 106.858C64.1104 111.334 64.0876 117.413 64.0618 124.132C64.0618 135.266 64.13 144.662 64.2234 147.497H64.3475C64.3278 146.77 64.3063 146.436 64.2848 146.436Z" fill="#F3F2F1"/>
<path d="M57.5479 146.436C57.5264 146.436 57.5061 146.77 57.4865 147.497H57.6099C57.7027 144.662 57.7715 135.266 57.7715 124.132C57.7457 117.413 57.723 111.334 57.7058 106.858C57.6763 104.694 57.6523 102.921 57.6351 101.624C57.6179 101.046 57.6038 100.575 57.5934 100.201C57.5786 99.8752 57.5639 99.7045 57.5479 99.7045C57.5326 99.7045 57.5178 99.8752 57.5031 100.201C57.4926 100.575 57.4779 101.046 57.4613 101.624C57.4435 102.921 57.4195 104.694 57.3907 106.858C57.3735 111.334 57.3507 117.413 57.3249 124.132C57.3249 135.266 57.3931 144.662 57.4865 147.497H57.6099C57.5903 146.77 57.57 146.436 57.5479 146.436Z" fill="#F3F2F1"/>
<path d="M50.8128 146.436C50.7907 146.436 50.7698 146.77 50.7501 147.497H50.8742C50.967 144.662 51.0352 135.266 51.0352 124.132C51.01 117.413 50.9872 111.334 50.97 106.858C50.9412 104.694 50.9166 102.921 50.8988 101.624C50.8822 101.046 50.8681 100.575 50.857 100.201C50.8429 99.8752 50.8275 99.7045 50.8128 99.7045C50.7968 99.7045 50.7821 99.8752 50.7673 100.201C50.7563 100.575 50.7421 101.046 50.7256 101.624C50.7084 102.921 50.6844 104.694 50.6549 106.858C50.6377 111.334 50.6144 117.413 50.5892 124.132C50.5892 135.266 50.6574 144.662 50.7501 147.497H50.8742C50.8546 146.77 50.8343 146.436 50.8128 146.436Z" fill="#F3F2F1"/>
<path d="M44.0784 146.436C44.0569 146.436 44.0354 146.77 44.0158 147.497H44.1398C44.2332 144.662 44.3008 135.266 44.3008 124.132C44.2756 117.413 44.2529 111.334 44.2357 106.858C44.2068 104.694 44.1828 102.921 44.1644 101.624C44.1478 101.046 44.1343 100.575 44.1226 100.201C44.1085 99.8752 44.0931 99.7045 44.0778 99.7045C44.0624 99.7045 44.0477 99.8752 44.0329 100.201C44.0219 100.575 44.0078 101.046 43.9912 101.624C43.9734 102.921 43.95 104.694 43.9205 106.858C43.9033 111.334 43.88 117.413 43.8548 124.132C43.8548 135.266 43.923 144.662 44.0158 147.497H44.1398C44.1202 146.77 44.0993 146.436 44.0784 146.436Z" fill="#F3F2F1"/>
<path d="M37.3395 146.436C37.3186 146.436 37.2977 146.77 37.2775 147.497H37.4016C37.4949 144.662 37.5625 135.266 37.5625 124.132C37.5373 117.413 37.514 111.334 37.4974 106.858C37.4679 104.694 37.4439 102.921 37.4267 101.624C37.4095 101.046 37.396 100.575 37.3844 100.201C37.3702 99.8752 37.3549 99.7045 37.3395 99.7045C37.3248 99.7045 37.3088 99.8752 37.2947 100.201C37.2836 100.575 37.2701 101.046 37.2529 101.624C37.2351 102.921 37.2111 104.694 37.1823 106.858C37.1651 111.334 37.1423 117.413 37.1165 124.132C37.1165 135.266 37.1847 144.662 37.2775 147.497H37.4016C37.3819 146.77 37.361 146.436 37.3395 146.436Z" fill="#F3F2F1"/>
<path d="M30.6052 146.436C30.5837 146.436 30.5634 146.77 30.5437 147.497H30.6672C30.7605 144.662 30.8281 135.266 30.8281 124.132C30.8029 117.413 30.7796 111.334 30.763 106.858C30.7335 104.694 30.7096 102.921 30.6924 101.624C30.6752 101.046 30.661 100.575 30.65 100.201C30.6359 99.8752 30.6205 99.7045 30.6052 99.7045C30.5898 99.7045 30.5744 99.8752 30.5603 100.201C30.5493 100.575 30.5357 101.046 30.5179 101.624C30.5007 102.921 30.4768 104.694 30.4473 106.858C30.4307 111.334 30.408 117.413 30.3822 124.132C30.3822 135.266 30.4504 144.662 30.5437 147.497H30.6672C30.6475 146.77 30.6267 146.436 30.6052 146.436Z" fill="#F3F2F1"/>
<path d="M23.8662 146.435C23.8447 146.435 23.8239 146.769 23.8048 147.496H23.9283C24.0211 144.661 24.0898 135.265 24.0898 124.131C24.064 117.412 24.0407 111.333 24.0241 106.857C23.9946 104.693 23.9707 102.92 23.9535 101.623C23.9363 101.045 23.9222 100.574 23.9117 100.2C23.8964 99.8742 23.8816 99.7035 23.8662 99.7035C23.8509 99.7035 23.8355 99.8742 23.8214 100.2C23.8103 100.574 23.7962 101.045 23.7797 101.623C23.7618 102.92 23.7379 104.693 23.7084 106.857C23.6918 111.333 23.6685 117.412 23.6433 124.131C23.6433 135.265 23.7114 144.661 23.8048 147.496H23.9283C23.9086 146.769 23.8877 146.435 23.8662 146.435Z" fill="#F3F2F1"/>
<path d="M17.1325 146.435C17.111 146.435 17.0901 146.769 17.0704 147.496H17.1945C17.2873 144.661 17.3555 135.265 17.3555 124.131C17.3303 117.412 17.3076 111.333 17.2904 106.857C17.2609 104.693 17.2369 102.92 17.2191 101.623C17.2025 101.045 17.1884 100.574 17.1779 100.2C17.1626 99.8742 17.1479 99.7035 17.1325 99.7035C17.1171 99.7035 17.1024 99.8742 17.0877 100.2C17.0766 100.574 17.0625 101.045 17.0459 101.623C17.0287 102.92 17.0041 104.693 16.9752 106.857C16.958 111.333 16.9347 117.412 16.9095 124.131C16.9095 135.265 16.9777 144.661 17.0704 147.496H17.1945C17.1749 146.769 17.1546 146.435 17.1325 146.435Z" fill="#F3F2F1"/>
<path d="M10.3948 146.435C10.3727 146.435 10.3518 146.769 10.3322 147.496H10.4562C10.5496 144.661 10.6172 135.265 10.6172 124.131C10.592 117.412 10.5687 111.333 10.5515 106.857C10.5226 104.693 10.4987 102.92 10.4808 101.623C10.4643 101.045 10.4501 100.574 10.4391 100.2C10.4243 99.8742 10.4096 99.7035 10.3942 99.7035C10.3789 99.7035 10.3641 99.8742 10.3494 100.2C10.3383 100.574 10.3242 101.045 10.3076 101.623C10.2898 102.92 10.2658 104.693 10.2364 106.857C10.2192 111.333 10.1964 117.412 10.1712 124.131C10.1712 135.265 10.2394 144.661 10.3322 147.496H10.4562C10.4366 146.769 10.4157 146.435 10.3948 146.435Z" fill="#F3F2F1"/>
<path d="M3.65984 146.435C3.63834 146.435 3.61747 146.769 3.59781 147.496H3.7219C3.81527 144.661 3.88281 135.265 3.88281 124.131C3.85763 117.412 3.83431 111.333 3.81773 106.857C3.78824 104.693 3.76428 102.92 3.74646 101.623C3.72988 101.045 3.71635 100.574 3.70468 100.2C3.69055 99.8742 3.6752 99.7035 3.65984 99.7035C3.64448 99.7035 3.62913 99.8742 3.615 100.2C3.60394 100.574 3.59043 101.045 3.57262 101.623C3.55542 102.92 3.53147 104.693 3.50198 106.857C3.4854 111.333 3.46267 117.412 3.43687 124.131C3.43687 135.265 3.50506 144.661 3.59781 147.496H3.7219C3.70224 146.769 3.68134 146.435 3.65984 146.435Z" fill="#F3F2F1"/>
<path d="M19.1845 249.792C19.1845 249.88 106.461 249.952 214.097 249.952C321.77 249.952 409.027 249.88 409.027 249.792C409.027 249.704 321.77 249.631 214.097 249.631C106.461 249.631 19.1845 249.704 19.1845 249.792Z" fill="#17282F"/>
<path d="M79.8007 185.841C79.8019 184.899 79.8462 129.723 79.9193 39.4466L79.8007 39.5651C156.991 39.5762 260.687 39.5903 374.432 39.6063H374.453L374.293 39.4466C374.297 91.047 374.3 140.575 374.303 185.841L374.453 185.691C202.474 185.778 81.1938 185.84 79.8007 185.841C81.1926 185.842 202.474 185.904 374.453 185.992H374.604V185.841C374.607 140.575 374.61 91.047 374.613 39.4466V39.2868H374.453H374.432C260.687 39.3028 156.991 39.3169 79.8007 39.328H79.6821L79.6828 39.4466C79.7552 129.723 79.8001 184.901 79.8007 185.841Z" fill="#17282F"/>
<path d="M335.099 120.784H336.104V104.199H335.099V120.784Z" fill="#844FCF"/>
<path d="M79.8008 185.842H374.453V39.4473H79.8008V185.842Z" fill="white"/>
<path d="M113.321 84.1301C111.319 84.1301 109.863 83.2851 109.59 81.2441L111.345 80.7761C111.488 82.3101 112.177 82.6741 113.36 82.6741C114.543 82.6741 115.011 82.3361 115.011 81.4911C115.011 80.7111 114.66 80.5551 113.659 80.3601L112.112 80.0611C110.968 79.8401 109.811 79.2031 109.811 77.4481C109.811 75.8361 111.15 74.7701 113.113 74.7701C115.115 74.7701 116.48 75.6801 116.649 77.6041L115.011 78.0591C114.933 76.5381 114.192 76.2521 113.1 76.2521C112.008 76.2521 111.592 76.5641 111.592 77.3701C111.592 78.1761 112.021 78.3581 112.97 78.5271L114.4 78.8001C115.869 79.0731 116.779 79.8011 116.779 81.2571C116.779 82.9861 115.44 84.1301 113.321 84.1301Z" fill="#212529"/>
<path d="M123.955 80.7241C123.955 80.9321 123.955 81.0751 123.942 81.3351H119.418C119.535 82.3361 120.003 82.7521 120.991 82.7521C121.745 82.7521 122.07 82.5441 122.382 81.8551L123.812 82.4661C123.383 83.5711 122.382 84.1301 120.952 84.1301C119.002 84.1301 117.702 82.8301 117.702 80.8541C117.702 78.8521 119.015 77.5001 120.9 77.5001C122.72 77.5001 123.955 78.7611 123.955 80.7241ZM120.913 78.8261C120.003 78.8261 119.548 79.2551 119.431 80.2041H122.317C122.278 79.2031 121.836 78.8261 120.913 78.8261Z" fill="#212529"/>
<path d="M129.386 79.0861H127.54V82.5441H129.23V84.0001H127.865C126.682 84.0001 125.889 83.2071 125.889 82.0241V79.0861H124.667V77.6301H125.889V75.7321H127.54V77.6301H129.386V79.0861Z" fill="#212529"/>
<path d="M130.267 79.5541H134.375V80.9451H130.267V79.5541Z" fill="#212529"/>
<path d="M140.501 77.6301H142.152V84.0001H140.501V82.5051C140.189 83.5451 139.526 84.1301 138.382 84.1301C136.874 84.1301 136.12 83.2331 136.12 81.4391V77.6301H137.771V81.3481C137.771 82.2061 138.213 82.6351 138.993 82.6351C139.916 82.6351 140.501 81.9851 140.501 80.6721V77.6301Z" fill="#212529"/>
<path d="M147.957 77.5001C149.725 77.5001 150.765 78.8261 150.765 80.8281C150.765 82.8041 149.686 84.1301 147.866 84.1301C146.826 84.1301 146.072 83.5971 145.669 82.6351V86.2101H144.018V77.6301H145.669V79.0341C146.072 78.0461 146.878 77.5001 147.957 77.5001ZM147.372 82.6351C148.581 82.6351 149.101 82.0761 149.101 80.8281C149.101 79.5541 148.581 78.9951 147.372 78.9951C146.137 78.9951 145.604 79.5541 145.604 80.8281C145.604 82.0761 146.137 82.6351 147.372 82.6351Z" fill="#212529"/>
<path d="M158.932 74.9001C161.142 74.9001 162.156 76.0181 162.156 77.6171C162.156 79.2421 161.142 80.4121 158.932 80.4121H157.164V84.0001H155.461V74.9001H158.932ZM158.997 78.9171C160.011 78.9171 160.375 78.5791 160.375 77.6561C160.375 76.7851 160.011 76.4081 158.997 76.4081H157.164V78.9171H158.997Z" fill="#212529"/>
<path d="M166.825 77.5261C167.059 77.5261 167.358 77.5261 167.592 77.6171V79.1771C167.358 79.0861 167.15 79.0471 166.734 79.0471C165.694 79.0471 164.966 79.7491 164.966 81.3611V84.0001H163.315V77.6301H164.966V79.4371C165.135 78.4751 165.603 77.5261 166.825 77.5261Z" fill="#212529"/>
<path d="M171.522 77.5001C173.381 77.5001 174.928 78.7871 174.928 80.8281C174.928 82.8561 173.381 84.1301 171.522 84.1301C169.65 84.1301 168.103 82.8561 168.103 80.8281C168.103 78.7871 169.65 77.5001 171.522 77.5001ZM171.522 82.6351C172.744 82.6351 173.264 82.0761 173.264 80.8281C173.264 79.5541 172.744 78.9951 171.522 78.9951C170.3 78.9951 169.767 79.5541 169.767 80.8281C169.767 82.0761 170.3 82.6351 171.522 82.6351Z" fill="#212529"/>
<path d="M180.436 77.6301V79.0861H178.551V84.0001H176.9V79.0861H175.561V77.6301H176.9V76.5251C176.9 75.3421 177.693 74.5491 178.876 74.5491H180.397V76.0051H178.551V77.6301H180.436Z" fill="#212529"/>
<path d="M182.415 76.5641C181.726 76.5641 181.336 76.1871 181.336 75.5111C181.336 74.8611 181.713 74.4971 182.415 74.4971C183.104 74.4971 183.494 74.8611 183.494 75.5111C183.494 76.1871 183.104 76.5641 182.415 76.5641ZM181.596 84.0001V77.6301H183.247V84.0001H181.596Z" fill="#212529"/>
<path d="M185.1 84.0001V74.9001H186.751V84.0001H185.1Z" fill="#212529"/>
<path d="M194.389 80.7241C194.389 80.9321 194.389 81.0751 194.376 81.3351H189.852C189.969 82.3361 190.437 82.7521 191.425 82.7521C192.179 82.7521 192.504 82.5441 192.816 81.8551L194.246 82.4661C193.817 83.5711 192.816 84.1301 191.386 84.1301C189.436 84.1301 188.136 82.8301 188.136 80.8541C188.136 78.8521 189.449 77.5001 191.334 77.5001C193.154 77.5001 194.389 78.7611 194.389 80.7241ZM191.347 78.8261C190.437 78.8261 189.982 79.2551 189.865 80.2041H192.751C192.712 79.2031 192.27 78.8261 191.347 78.8261Z" fill="#212529"/>
<path d="M374.453 57.6094H79.8008V39.4473H374.453V57.6094Z" fill="#DADBD8"/>
<path d="M342.702 130H112.298C110.477 130 109 128.465 109 126.572V97.4277C109 95.5344 110.477 94 112.298 94H342.702C344.523 94 346 95.5344 346 97.4277V126.572C346 128.465 344.523 130 342.702 130Z" fill="#FAFAF9"/>
<path d="M342.629 129.842C342.62 129.812 343.122 129.902 343.968 129.528C344.376 129.331 344.872 129.002 345.266 128.433C345.67 127.877 345.947 127.077 345.892 126.154C345.886 122.462 345.876 117.023 345.863 110.02C345.859 106.517 345.855 102.623 345.85 98.3604C345.84 97.8253 345.888 97.2852 345.753 96.7717C345.63 96.2563 345.389 95.7613 345.034 95.3594C344.686 94.9537 344.237 94.6307 343.73 94.4458C343.48 94.3447 343.212 94.2947 342.944 94.259C342.676 94.2399 342.396 94.2423 342.115 94.2436C339.872 94.246 337.543 94.2479 335.13 94.2504C325.477 94.2571 314.487 94.2651 302.339 94.2738C253.739 94.2861 186.608 94.3027 112.464 94.3206C111.356 94.3151 110.268 94.9488 109.73 95.9487C109.451 96.4388 109.316 97.0066 109.312 97.5744V99.3572C109.312 101.732 109.312 104.1 109.312 106.46C109.311 111.18 109.311 115.869 109.311 120.523C109.311 121.687 109.311 122.848 109.311 124.008V125.745C109.311 126.332 109.286 126.89 109.455 127.416C109.776 128.466 110.641 129.327 111.681 129.58C112.189 129.727 112.745 129.671 113.307 129.683H114.976C119.421 129.683 123.831 129.684 128.202 129.684C145.685 129.687 162.55 129.691 178.616 129.694C210.746 129.707 239.68 129.718 263.978 129.728C288.275 129.749 307.936 129.766 321.527 129.779C328.319 129.792 333.594 129.802 337.173 129.809C338.96 129.816 340.323 129.821 341.242 129.825C342.159 129.83 342.629 129.842 342.629 129.842C342.629 129.842 342.159 129.853 341.242 129.858C340.323 129.861 338.96 129.867 337.173 129.874C333.594 129.88 328.319 129.891 321.527 129.904C307.936 129.916 288.275 129.933 263.978 129.955C239.68 129.964 210.746 129.976 178.616 129.989C162.55 129.992 145.685 129.995 128.202 129.998C123.831 129.999 119.421 129.999 114.976 130H113.307H112.472C112.182 129.992 111.888 129.969 111.606 129.888C110.463 129.609 109.512 128.667 109.16 127.511C108.974 126.929 109.002 126.31 109.001 125.745V124.008C109.001 122.848 109.001 121.687 109.001 120.523C109.001 115.869 109.001 111.18 109 106.46C109 104.1 109 101.732 109 99.3572V97.5744C109.005 96.9548 109.154 96.3266 109.46 95.7884C110.051 94.6911 111.249 93.9921 112.464 94.0001C186.608 94.0186 253.739 94.0352 302.339 94.0469C314.487 94.0555 325.477 94.0636 335.13 94.071C337.543 94.0728 339.872 94.0753 342.115 94.0771C342.396 94.0771 342.674 94.074 342.959 94.095C343.241 94.1326 343.521 94.1862 343.784 94.2929C344.315 94.4877 344.786 94.8274 345.15 95.254C345.521 95.6756 345.773 96.1941 345.901 96.7341C346.04 97.2809 345.989 97.8339 345.998 98.3604C345.993 102.623 345.988 106.517 345.985 110.02C345.972 117.023 345.962 122.462 345.956 126.154C346.005 127.083 345.718 127.903 345.305 128.462C344.9 129.036 344.396 129.363 343.981 129.558C343.558 129.751 343.208 129.799 342.979 129.83C342.747 129.842 342.629 129.842 342.629 129.842Z" fill="#17282F"/>
<path d="M333.361 165H281.006C273.823 165 268 159.177 268 151.994C268 144.811 273.823 138.988 281.006 138.988H333.361C340.544 138.988 346.367 144.811 346.367 151.994C346.367 159.177 340.544 165 333.361 165Z" fill="#844FCF"/>
<path d="M292.46 155.77C291.993 155.77 291.573 155.69 291.2 155.53C290.827 155.363 290.533 155.13 290.32 154.83C290.107 154.53 290 154.18 290 153.78H291.22C291.247 154.08 291.363 154.327 291.57 154.52C291.783 154.713 292.08 154.81 292.46 154.81C292.853 154.81 293.16 154.717 293.38 154.53C293.6 154.337 293.71 154.09 293.71 153.79C293.71 153.557 293.64 153.367 293.5 153.22C293.367 153.073 293.197 152.96 292.99 152.88C292.79 152.8 292.51 152.713 292.15 152.62C291.697 152.5 291.327 152.38 291.04 152.26C290.76 152.133 290.52 151.94 290.32 151.68C290.12 151.42 290.02 151.073 290.02 150.64C290.02 150.24 290.12 149.89 290.32 149.59C290.52 149.29 290.8 149.06 291.16 148.9C291.52 148.74 291.937 148.66 292.41 148.66C293.083 148.66 293.633 148.83 294.06 149.17C294.493 149.503 294.733 149.963 294.78 150.55H293.52C293.5 150.297 293.38 150.08 293.16 149.9C292.94 149.72 292.65 149.63 292.29 149.63C291.963 149.63 291.697 149.713 291.49 149.88C291.283 150.047 291.18 150.287 291.18 150.6C291.18 150.813 291.243 150.99 291.37 151.13C291.503 151.263 291.67 151.37 291.87 151.45C292.07 151.53 292.343 151.617 292.69 151.71C293.15 151.837 293.523 151.963 293.81 152.09C294.103 152.217 294.35 152.413 294.55 152.68C294.757 152.94 294.86 153.29 294.86 153.73C294.86 154.083 294.763 154.417 294.57 154.73C294.383 155.043 294.107 155.297 293.74 155.49C293.38 155.677 292.953 155.77 292.46 155.77Z" fill="white"/>
<path d="M301.195 150.19V155.7H300.055V155.05C299.875 155.277 299.638 155.457 299.345 155.59C299.058 155.717 298.752 155.78 298.425 155.78C297.992 155.78 297.602 155.69 297.255 155.51C296.915 155.33 296.645 155.063 296.445 154.71C296.252 154.357 296.155 153.93 296.155 153.43V150.19H297.285V153.26C297.285 153.753 297.408 154.133 297.655 154.4C297.902 154.66 298.238 154.79 298.665 154.79C299.092 154.79 299.428 154.66 299.675 154.4C299.928 154.133 300.055 153.753 300.055 153.26V150.19H301.195Z" fill="white"/>
<path d="M303.839 151.01C304.033 150.743 304.296 150.527 304.629 150.36C304.969 150.187 305.346 150.1 305.759 150.1C306.246 150.1 306.686 150.217 307.079 150.45C307.473 150.683 307.783 151.017 308.009 151.45C308.236 151.877 308.349 152.367 308.349 152.92C308.349 153.473 308.236 153.97 308.009 154.41C307.783 154.843 307.469 155.183 307.069 155.43C306.676 155.67 306.239 155.79 305.759 155.79C305.333 155.79 304.953 155.707 304.619 155.54C304.293 155.373 304.033 155.16 303.839 154.9V155.7H302.699V148.3H303.839V151.01ZM307.189 152.92C307.189 152.54 307.109 152.213 306.949 151.94C306.796 151.66 306.589 151.45 306.329 151.31C306.076 151.163 305.803 151.09 305.509 151.09C305.223 151.09 304.949 151.163 304.689 151.31C304.436 151.457 304.229 151.67 304.069 151.95C303.916 152.23 303.839 152.56 303.839 152.94C303.839 153.32 303.916 153.653 304.069 153.94C304.229 154.22 304.436 154.433 304.689 154.58C304.949 154.727 305.223 154.8 305.509 154.8C305.803 154.8 306.076 154.727 306.329 154.58C306.589 154.427 306.796 154.207 306.949 153.92C307.109 153.633 307.189 153.3 307.189 152.92Z" fill="white"/>
<path d="M316.147 150.1C316.58 150.1 316.967 150.19 317.307 150.37C317.653 150.55 317.923 150.817 318.117 151.17C318.317 151.523 318.417 151.95 318.417 152.45V155.7H317.287V152.62C317.287 152.127 317.163 151.75 316.917 151.49C316.67 151.223 316.333 151.09 315.907 151.09C315.48 151.09 315.14 151.223 314.887 151.49C314.64 151.75 314.517 152.127 314.517 152.62V155.7H313.387V152.62C313.387 152.127 313.263 151.75 313.017 151.49C312.77 151.223 312.433 151.09 312.007 151.09C311.58 151.09 311.24 151.223 310.987 151.49C310.74 151.75 310.617 152.127 310.617 152.62V155.7H309.477V150.19H310.617V150.82C310.803 150.593 311.04 150.417 311.327 150.29C311.613 150.163 311.92 150.1 312.247 150.1C312.687 150.1 313.08 150.193 313.427 150.38C313.773 150.567 314.04 150.837 314.227 151.19C314.393 150.857 314.653 150.593 315.007 150.4C315.36 150.2 315.74 150.1 316.147 150.1Z" fill="white"/>
<path d="M320.447 149.46C320.241 149.46 320.067 149.39 319.927 149.25C319.787 149.11 319.717 148.937 319.717 148.73C319.717 148.523 319.787 148.35 319.927 148.21C320.067 148.07 320.241 148 320.447 148C320.647 148 320.817 148.07 320.957 148.21C321.097 148.35 321.167 148.523 321.167 148.73C321.167 148.937 321.097 149.11 320.957 149.25C320.817 149.39 320.647 149.46 320.447 149.46ZM321.007 150.19V155.7H319.867V150.19H321.007Z" fill="white"/>
<path d="M323.834 151.12V154.17C323.834 154.377 323.881 154.527 323.974 154.62C324.074 154.707 324.241 154.75 324.474 154.75H325.174V155.7H324.274C323.761 155.7 323.367 155.58 323.094 155.34C322.821 155.1 322.684 154.71 322.684 154.17V151.12H322.034V150.19H322.684V148.82H323.834V150.19H325.174V151.12H323.834Z" fill="white"/>
<path d="M93.507 47.8117C93.507 49.426 92.1985 50.7344 90.5844 50.7344C88.9703 50.7344 87.6621 49.426 87.6621 47.8117C87.6621 46.1974 88.9703 44.889 90.5844 44.889C92.1985 44.889 93.507 46.1974 93.507 47.8117Z" fill="white"/>
<path d="M104.277 47.8117C104.277 49.426 102.968 50.7344 101.354 50.7344C99.74 50.7344 98.4316 49.426 98.4316 47.8117C98.4316 46.1974 99.74 44.889 101.354 44.889C102.968 44.889 104.277 46.1974 104.277 47.8117Z" fill="white"/>
<path d="M115.044 47.8117C115.044 49.426 113.736 50.7344 112.122 50.7344C110.508 50.7344 109.199 49.426 109.199 47.8117C109.199 46.1974 110.508 44.889 112.122 44.889C113.736 44.889 115.044 46.1974 115.044 47.8117Z" fill="white"/>
<path d="M372.09 181.372C368.279 179.406 363.791 179.15 359.56 179.85C357.287 180.225 354.917 180.906 353.37 182.613C351.823 184.321 351.53 187.326 353.306 188.793C354.363 189.665 355.838 189.799 357.209 189.783C360.521 189.744 364.196 189.161 366.843 191.154C368.352 192.291 369.357 194.182 371.163 194.741C372.929 195.288 374.922 194.245 375.858 192.651C376.794 191.057 376.825 189.065 376.389 187.269C376.389 187.269 375.929 183.353 372.09 181.372Z" fill="#33535F"/>
<path d="M380.823 164.516C378.492 167.845 373.963 166.743 371.862 164.711C369.762 162.679 368.875 159.735 368.067 156.927C366.221 150.511 364.359 143.781 365.732 137.247C366.142 135.294 366.872 133.346 368.245 131.896C369.618 130.447 371.729 129.585 373.658 130.095C375.942 130.698 377.361 132.936 378.387 135.063C381.403 141.317 382.999 148.252 383.023 155.196C383.034 158.438 382.652 161.839 380.823 164.516Z" fill="#33535F"/>
<path d="M387.222 169.292C384.692 166.29 384.212 161.909 385.338 158.148C386.464 154.385 389.008 151.185 391.939 148.572C395.376 145.508 399.417 143.124 403.76 141.597C405.469 140.996 407.272 140.521 409.076 140.694C410.88 140.866 412.696 141.788 413.538 143.393C414.782 145.766 413.589 148.644 412.299 150.991C410.026 155.128 407.427 159.085 404.535 162.814C402.207 165.814 399.542 168.774 395.995 170.13C392.449 171.486 388.764 171.326 386.884 168.867" fill="#33535F"/>
<path d="M380.981 214.727C380.937 214.729 380.866 214.19 380.77 213.214C380.663 212.114 380.528 210.731 380.368 209.087C380.176 207.35 379.922 205.283 379.44 203.032C378.959 200.787 378.206 198.354 377.239 195.886C376.238 193.434 375.017 191.204 373.59 189.42C372.173 187.63 370.526 186.334 368.977 185.586C367.433 184.823 366.049 184.514 365.092 184.376C364.127 184.277 363.587 184.2 363.586 184.158C363.586 184.114 364.127 184.108 365.118 184.134C366.101 184.2 367.542 184.449 369.17 185.188C370.802 185.912 372.55 187.229 374.036 189.057C375.534 190.878 376.799 193.156 377.818 195.652C378.802 198.163 379.543 200.622 380.003 202.915C380.461 205.205 380.671 207.295 380.808 209.046C380.939 210.8 380.989 212.219 381.013 213.199C381.034 214.18 381.023 214.724 380.981 214.727Z" fill="#17282F"/>
<path d="M380.696 211.551C380.675 211.55 380.661 211.308 380.656 210.849C380.657 210.321 380.659 209.657 380.661 208.842C380.666 207.1 380.665 204.58 380.572 201.467C380.418 195.242 379.882 188.543 378.846 179.099C377.866 170.218 376.55 159.882 375.162 153.163C374.864 151.634 374.564 150.259 374.282 149.055C374.013 147.847 373.783 146.807 373.561 145.965C373.371 145.173 373.216 144.527 373.092 144.014C372.991 143.566 372.949 143.328 372.969 143.322C372.99 143.316 373.073 143.543 373.213 143.98C373.366 144.485 373.559 145.122 373.796 145.903C374.054 146.737 374.319 147.771 374.621 148.973C374.937 150.172 375.267 151.545 375.594 153.07C376.967 159.159 378.422 167.67 379.467 177.137C380.504 186.601 380.972 195.219 381.013 201.46C381.05 204.579 380.984 207.105 380.904 208.848C380.854 209.663 380.814 210.327 380.781 210.853C380.747 211.312 380.718 211.551 380.696 211.551Z" fill="#17282F"/>
<path d="M380.655 194.93C380.611 194.928 380.619 194.183 380.669 192.833C380.746 191.485 380.931 189.538 381.311 187.153C381.713 184.773 382.275 181.948 383.158 178.878C383.541 177.475 384.44 174.111 386.619 169.086C389.489 162.276 393.388 156.71 396.781 153.262C397.577 152.347 398.463 151.686 399.172 151.04C399.539 150.73 399.863 150.42 400.193 150.175C400.525 149.946 400.834 149.734 401.121 149.536C402.237 148.772 402.862 148.37 402.886 148.406C402.986 148.542 400.385 150.073 397.1 153.567C393.83 157.053 390.039 162.582 387.192 169.334C385.604 172.996 384.497 176.263 383.711 179.036C382.804 182.077 382.201 184.873 381.746 187.229C381.313 189.59 381.062 191.518 380.911 192.853C380.787 194.19 380.697 194.932 380.655 194.93Z" fill="#17282F"/>
<path d="M396.719 224.249L391.763 249.531H368.365L364.075 224.249H396.719Z" fill="#844FCF"/>
<path d="M399.551 215.256V224.249H360.578V215.256H399.551Z" fill="#844FCF"/>
<path d="M365.272 231.707C365.265 231.712 365.31 231.783 365.403 231.917C365.514 232.071 365.653 232.262 365.823 232.497C366.223 233.03 366.772 233.761 367.463 234.682L367.536 234.78L367.606 234.678C368.636 233.194 370.013 231.21 371.633 228.875H371.402C372.6 230.643 373.934 232.611 375.367 234.725L375.491 234.908L375.63 234.735C377.094 232.921 378.683 230.952 380.333 228.907L380.062 228.903C380.143 229.011 380.232 229.126 380.321 229.242C381.779 231.147 383.191 232.99 384.526 234.733L384.666 234.916L384.795 234.726C386.223 232.621 387.556 230.656 388.762 228.878L388.532 228.89C390.486 231.21 392.145 233.178 393.417 234.688L393.504 234.791L393.57 234.676C394.214 233.549 394.728 232.649 395.1 231.998C395.26 231.708 395.389 231.473 395.492 231.285C395.579 231.123 395.62 231.037 395.612 231.031C395.605 231.027 395.549 231.103 395.448 231.257C395.334 231.437 395.191 231.664 395.014 231.944C394.624 232.583 394.084 233.465 393.408 234.571L393.561 234.559C392.309 233.03 390.678 231.038 388.754 228.69L388.633 228.541L388.523 228.701C387.306 230.47 385.96 232.428 384.52 234.522L384.79 234.514C383.458 232.768 382.05 230.922 380.594 229.015C380.506 228.899 380.418 228.783 380.336 228.676L380.202 228.501L380.065 228.673C378.419 230.721 376.834 232.695 375.375 234.512L375.638 234.523C374.191 232.42 372.844 230.462 371.634 228.704L371.517 228.534L371.402 228.704C369.816 231.064 368.468 233.069 367.459 234.569L367.603 234.565C366.884 233.667 366.313 232.954 365.897 232.435C365.712 232.212 365.562 232.031 365.441 231.885C365.335 231.762 365.278 231.701 365.272 231.707Z" fill="white"/>
<path d="M363.669 224.099C363.669 224.2 371.014 224.281 380.072 224.281C389.133 224.281 396.477 224.2 396.477 224.099C396.477 223.998 389.133 223.916 380.072 223.916C371.014 223.916 363.669 223.998 363.669 224.099Z" fill="#17282F"/>
<path d="M146.242 146.607L141.485 151.712C141.485 151.712 121.589 185.078 118.747 187.22C115.904 189.363 111.158 191.831 108.31 191.451C105.462 191.071 97.9054 185.946 97.9054 185.946L104.504 165.672L112.011 163.616L132.28 140.127L146.242 146.607Z" fill="#F8A58D"/>
<path d="M142.436 150.629C144.126 148.594 148.483 144.411 148.483 144.411L150.318 142.451C150.403 142.609 150.466 142.783 150.523 142.953C150.63 143.279 150.738 143.621 150.99 143.854C151.465 144.293 152.24 144.151 152.805 143.833C153.987 143.17 154.766 141.841 154.767 140.484C154.767 139.181 154.045 137.909 152.939 137.221C152.845 136.89 152.689 136.556 152.435 136.23C150.877 134.23 147.226 134.499 147.226 134.499L147.772 133.722C147.772 133.722 150.261 132.171 154.4 134.796C155.018 135.187 155.763 135.372 156.485 135.25C156.927 135.176 157.355 134.988 157.597 134.576C158.202 133.55 157.632 132.855 155.07 131.181C152.508 129.507 149.485 128.742 147.565 129.454C145.646 130.166 144.941 130.569 144.941 130.569C144.941 130.569 149.461 123.272 149.729 122.799C150.503 121.43 150.539 119.936 149.677 119.328C149.124 118.939 148.141 118.858 147.19 120.424C146.368 121.779 136.178 134.59 136.178 134.59L132.003 140.523L142.436 150.629Z" fill="#F8A58D"/>
<path d="M133.514 140.751C134.155 141.429 135.285 141.346 136.114 140.919C136.942 140.491 137.602 139.795 138.398 139.309C140.778 137.855 144.03 138.449 146.337 136.883C146.659 136.664 146.987 136.294 146.842 135.933C146.707 135.599 146.271 135.533 145.911 135.519C142.835 135.392 139.758 135.265 136.682 135.138" fill="#F8A58D"/>
<path d="M136.681 135.139C136.682 135.103 137.039 135.082 137.683 135.077C138.327 135.072 139.258 135.082 140.408 135.106C141.605 135.139 142.963 135.175 144.447 135.216C144.828 135.229 145.218 135.242 145.614 135.255C145.983 135.296 146.483 135.185 146.948 135.624C147.17 135.855 147.179 136.251 147.043 136.493C146.917 136.743 146.736 136.913 146.541 137.058C146.159 137.314 145.766 137.532 145.338 137.696C143.626 138.356 141.918 138.385 140.474 138.75C139.751 138.92 139.087 139.156 138.527 139.486C137.968 139.815 137.491 140.229 137.012 140.565C136.077 141.288 135.015 141.5 134.362 141.312C133.689 141.135 133.49 140.751 133.513 140.751C133.545 140.709 133.789 141.016 134.402 141.111C135.013 141.213 135.92 140.992 136.791 140.265C137.24 139.924 137.704 139.489 138.301 139.112C138.898 138.736 139.606 138.469 140.358 138.278C141.856 137.879 143.562 137.823 145.143 137.207C145.536 137.059 145.903 136.851 146.232 136.635C146.546 136.415 146.715 136.099 146.559 135.963C146.412 135.788 145.989 135.77 145.593 135.758C145.197 135.738 144.808 135.719 144.427 135.701C142.945 135.619 141.588 135.544 140.393 135.478C139.245 135.407 138.316 135.34 137.675 135.282C137.033 135.224 136.679 135.175 136.681 135.139Z" fill="#F68260"/>
<path d="M147.103 134.477C147.153 134.525 147.45 133.816 148.443 133.358C148.93 133.136 149.583 133.055 150.28 133.209C150.98 133.355 151.702 133.705 152.434 134.129C153.169 134.552 153.886 134.973 154.614 135.208C155.337 135.44 156.041 135.512 156.621 135.376C157.21 135.248 157.573 134.84 157.694 134.544C157.821 134.242 157.813 134.06 157.799 134.058C157.768 134.049 157.729 134.222 157.576 134.482C157.426 134.738 157.098 135.054 156.57 135.141C156.052 135.235 155.39 135.146 154.714 134.912C154.035 134.675 153.345 134.26 152.603 133.834C151.862 133.405 151.098 133.042 150.341 132.902C149.587 132.751 148.856 132.869 148.34 133.141C147.817 133.407 147.494 133.767 147.314 134.029C147.135 134.296 147.086 134.469 147.103 134.477Z" fill="#F68260"/>
<path d="M150.019 122.266C149.976 122.244 149.644 122.805 149.111 123.711C148.513 124.717 147.801 125.917 147.014 127.242C146.207 128.556 145.477 129.744 144.864 130.742C144.31 131.635 143.968 132.19 144.008 132.218C144.045 132.244 144.457 131.737 145.065 130.874C145.673 130.013 146.472 128.795 147.305 127.418C148.136 126.041 148.842 124.766 149.322 123.826C149.802 122.888 150.06 122.286 150.019 122.266Z" fill="#F68260"/>
<path d="M147.753 137.135C147.751 137.161 147.944 137.179 148.279 137.228C148.598 137.282 149.133 137.381 149.438 137.86C149.587 138.091 149.592 138.397 149.447 138.7C149.312 139.004 149.061 139.284 148.802 139.606C148.549 139.919 148.258 140.336 148.278 140.859C148.303 141.367 148.605 141.839 149.041 142.118C149.488 142.406 150.033 142.438 150.49 142.32C150.953 142.197 151.356 141.966 151.652 141.63C152.193 140.976 152.519 140.312 152.764 139.737C153 139.159 153.116 138.657 153.126 138.303C153.136 137.948 153.06 137.76 153.045 137.765C153.014 137.771 153.043 137.959 152.995 138.291C152.945 138.622 152.8 139.092 152.544 139.64C152.283 140.179 151.929 140.831 151.419 141.42C150.93 141.952 149.947 142.287 149.225 141.832C148.872 141.608 148.631 141.222 148.61 140.843C148.589 140.461 148.806 140.109 149.049 139.799C149.289 139.483 149.558 139.176 149.706 138.81C149.87 138.459 149.851 138.01 149.641 137.73C149.224 137.159 148.618 137.116 148.292 137.097C147.943 137.088 147.754 137.114 147.753 137.135Z" fill="#F68260"/>
<path d="M150.505 142.024C150.493 142.013 150.358 142.145 150.294 142.464C150.234 142.77 150.276 143.291 150.687 143.733C151.09 144.165 151.839 144.409 152.593 144.214C153.346 144.026 154.032 143.459 154.483 142.721C154.936 141.978 155.112 141.131 155.048 140.383C154.99 139.629 154.698 138.996 154.378 138.539C154.055 138.077 153.7 137.784 153.442 137.614C153.181 137.444 153.017 137.388 153.008 137.405C152.967 137.457 153.607 137.768 154.177 138.671C154.453 139.117 154.699 139.715 154.735 140.405C154.778 141.091 154.607 141.865 154.193 142.544C153.781 143.219 153.163 143.735 152.514 143.912C151.868 144.095 151.215 143.908 150.856 143.563C150.49 143.214 150.408 142.76 150.425 142.479C150.443 142.188 150.531 142.037 150.505 142.024Z" fill="#F68260"/>
<path d="M142.476 143.852C142.493 143.827 142.262 143.614 141.77 143.436C141.286 143.26 140.511 143.15 139.681 143.431L139.884 143.653C140.039 143.326 140.189 142.962 140.317 142.577C141.04 140.431 140.75 138.571 140.668 138.599C140.563 138.597 140.694 140.406 139.994 142.47C139.87 142.842 139.73 143.196 139.589 143.516L139.432 143.87L139.791 143.737C140.529 143.466 141.242 143.52 141.712 143.632C142.189 143.745 142.453 143.892 142.476 143.852Z" fill="#F68260"/>
<path d="M150.205 131.46C150.116 131.453 150.079 132.15 150.555 132.818C151.025 133.49 151.696 133.688 151.718 133.601C151.761 133.511 151.239 133.209 150.833 132.622C150.415 132.043 150.304 131.45 150.205 131.46Z" fill="#F68260"/>
<path d="M158.095 248.418C158.095 248.418 166.103 250.148 173.252 249.077C179.955 248.072 194.963 249.112 194.957 257.945C194.952 267.798 174.939 265.364 167.131 263.802C159.323 262.24 151.548 260.825 151.548 260.825L158.095 248.418Z" fill="#33535F"/>
<path d="M176.068 261.04C176.171 261.063 176.605 259.528 177.035 257.611C177.466 255.694 177.732 254.121 177.628 254.098C177.525 254.075 177.092 255.609 176.661 257.527C176.23 259.443 175.964 261.017 176.068 261.04Z" fill="#17282F"/>
<path d="M173.336 261.17C173.441 261.184 173.744 259.61 174.012 257.654C174.281 255.697 174.413 254.1 174.308 254.086C174.203 254.071 173.9 255.645 173.633 257.602C173.363 259.558 173.231 261.155 173.336 261.17Z" fill="#17282F"/>
<path d="M170.7 260.14C170.805 260.152 171.058 258.777 171.263 257.068C171.469 255.358 171.552 253.962 171.446 253.95C171.341 253.937 171.089 255.312 170.882 257.022C170.676 258.731 170.595 260.127 170.7 260.14Z" fill="#17282F"/>
<path d="M166.557 259.106C166.65 259.147 167.219 257.998 167.587 256.469C167.961 254.94 167.983 253.658 167.882 253.652C167.771 253.642 167.58 254.882 167.214 256.378C166.854 257.875 166.454 259.065 166.557 259.106Z" fill="#17282F"/>
<path d="M165.67 255.505C165.671 255.483 165.3 255.42 164.624 255.435C163.949 255.455 162.958 255.564 161.812 255.985C161.523 256.094 161.223 256.233 160.947 256.452C160.673 256.663 160.415 257.006 160.404 257.428C160.395 258.3 161.353 258.928 162.217 258.746C163.092 258.579 163.757 257.939 164.307 257.257C164.865 256.561 165.267 255.709 165.49 254.795C165.929 252.956 165.603 251.056 164.609 249.693C164.464 249.529 164.265 249.373 164.014 249.335C163.772 249.293 163.509 249.388 163.348 249.543C163.02 249.854 162.905 250.247 162.846 250.618C162.754 251.341 162.805 252.025 162.953 252.622C163.24 253.824 163.841 254.658 164.303 255.148C164.539 255.394 164.743 255.563 164.888 255.666C165.034 255.769 165.114 255.818 165.122 255.807C165.144 255.779 164.843 255.556 164.415 255.049C163.999 254.542 163.458 253.716 163.217 252.562C163.093 251.989 163.061 251.341 163.162 250.665C163.213 250.347 163.34 250.001 163.571 249.797C163.797 249.588 164.122 249.647 164.343 249.925C165.208 251.142 165.544 252.983 165.117 254.704C164.907 255.568 164.531 256.37 164.012 257.026C163.501 257.674 162.87 258.261 162.154 258.398C161.47 258.566 160.708 258.033 160.722 257.436C160.723 257.138 160.9 256.872 161.134 256.68C161.367 256.486 161.641 256.348 161.91 256.238C163.01 255.797 163.972 255.648 164.633 255.585C165.297 255.524 165.668 255.536 165.67 255.505Z" fill="#17282F"/>
<path d="M152.34 259.522C152.339 259.529 152.407 259.55 152.542 259.586C152.698 259.625 152.896 259.674 153.143 259.735C153.7 259.863 154.476 260.039 155.464 260.264C157.484 260.708 160.414 261.332 164.054 262.035C167.695 262.732 172.042 263.531 176.918 264.195C179.348 264.522 181.951 264.817 184.646 264.58C185.991 264.482 187.36 264.25 188.695 263.806C189.355 263.569 190.018 263.31 190.636 262.943C191.257 262.576 191.853 262.176 192.343 261.568L192.314 261.602C192.561 261.363 192.82 261.089 193.01 260.766C193.829 259.458 193.855 257.834 193.418 256.455C192.969 255.046 191.966 253.923 190.85 253.099C189.72 252.275 188.462 251.702 187.201 251.29C186.563 251.109 185.941 250.889 185.308 250.747C184.672 250.62 184.051 250.451 183.423 250.364C178.405 249.572 173.84 249.975 170.047 249.976C168.146 250.011 166.428 249.96 164.923 249.867C163.419 249.754 162.131 249.583 161.089 249.383C160.573 249.274 160.112 249.177 159.708 249.093C159.322 248.983 158.991 248.888 158.713 248.81C158.461 248.739 158.258 248.684 158.099 248.639C157.96 248.604 157.887 248.588 157.885 248.595C157.883 248.601 157.951 248.629 158.086 248.677C158.243 248.73 158.441 248.798 158.691 248.883C158.967 248.972 159.295 249.079 159.679 249.203C160.083 249.298 160.544 249.407 161.059 249.529C162.102 249.754 163.397 249.946 164.906 250.082C166.418 250.194 168.144 250.265 170.049 250.247C171.02 250.255 172.04 250.238 173.103 250.219C176.205 250.167 179.677 250.115 183.365 250.713C183.984 250.801 184.596 250.97 185.222 251.096C185.846 251.24 186.456 251.458 187.083 251.638C188.321 252.044 189.542 252.608 190.627 253.401C191.698 254.195 192.64 255.262 193.054 256.571C193.464 257.863 193.428 259.382 192.686 260.562C192.514 260.855 192.28 261.099 192.058 261.316L192.045 261.328L192.028 261.349C191.622 261.853 191.031 262.272 190.446 262.611C189.855 262.963 189.212 263.214 188.573 263.446C187.278 263.879 185.938 264.108 184.615 264.208C181.962 264.446 179.395 264.164 176.963 263.847C172.098 263.205 167.747 262.434 164.103 261.771C160.46 261.103 157.522 260.52 155.495 260.121C154.5 259.925 153.719 259.771 153.159 259.661C152.909 259.614 152.708 259.578 152.55 259.548C152.413 259.525 152.342 259.516 152.34 259.522Z" fill="#17282F"/>
<path d="M181.621 264.266C181.678 264.266 181.724 263.481 181.815 262.219C181.906 260.956 182.056 259.214 182.311 257.302C182.569 255.388 182.881 253.669 183.126 252.426C183.37 251.184 183.532 250.415 183.478 250.4C183.43 250.388 183.175 251.133 182.862 252.367C182.548 253.599 182.19 255.324 181.931 257.251C181.674 259.176 181.565 260.934 181.544 262.206C181.522 263.479 181.572 264.265 181.621 264.266Z" fill="#17282F"/>
<path d="M155.391 261.536C153.047 261.098 151.547 260.825 151.547 260.825L155.391 261.536ZM160.558 248.845L160.559 248.844L159.088 248.418L158.984 248.589C159.39 248.662 159.923 248.751 160.558 248.845Z" fill="#8C8F8F"/>
<path d="M155.487 261.554L155.958 260.372C155.788 260.335 155.624 260.299 155.465 260.264C154.477 260.039 153.7 259.862 153.143 259.735C152.896 259.673 152.699 259.624 152.543 259.586C152.412 259.551 152.344 259.529 152.341 259.522L151.549 260.825C151.549 260.825 153.049 261.097 155.393 261.536L155.487 261.554ZM156.018 260.223L160.354 249.362C160.115 249.305 159.89 249.252 159.68 249.202C159.34 249.092 159.044 248.996 158.789 248.914L152.342 259.52C152.343 259.519 152.346 259.519 152.35 259.519C152.374 259.519 152.441 259.529 152.551 259.547C152.708 259.577 152.909 259.614 153.159 259.661C153.72 259.771 154.501 259.924 155.495 260.12C155.663 260.153 155.837 260.187 156.018 260.223ZM160.404 249.238L160.561 248.845C159.926 248.751 159.393 248.661 158.987 248.589L158.833 248.842C159.084 248.914 159.376 248.998 159.709 249.092C159.924 249.137 160.156 249.186 160.404 249.238Z" fill="#1A2C33"/>
<path d="M155.957 260.372L156.016 260.223C155.836 260.187 155.661 260.153 155.494 260.12C154.499 259.924 153.718 259.771 153.158 259.661C152.908 259.614 152.707 259.577 152.55 259.548C152.44 259.529 152.372 259.52 152.349 259.52C152.344 259.52 152.342 259.52 152.341 259.52L152.339 259.522C152.343 259.529 152.411 259.551 152.541 259.586C152.697 259.624 152.895 259.674 153.142 259.735C153.699 259.862 154.475 260.039 155.463 260.264C155.622 260.299 155.787 260.335 155.957 260.372ZM160.353 249.362L160.402 249.238C160.154 249.186 159.923 249.137 159.707 249.092C159.374 248.998 159.083 248.914 158.831 248.842L158.787 248.914C159.042 248.996 159.338 249.092 159.678 249.202C159.888 249.252 160.113 249.305 160.353 249.362Z" fill="#0C1418"/>
<path d="M109.08 219.189L97.1608 192.598L104.062 169.78C106.154 162.861 105.665 155.416 102.684 148.83L91.0513 126.28L80.6628 122.577L56.2868 119.328C55.8556 119.472 54.6319 119.544 47.4124 121.944C41.3453 123.962 36.2063 128.093 32.9329 133.585L52.6257 191.024C52.6257 191.024 39.2697 220.249 40.9442 233.647L109.08 219.189Z" fill="#844FCF"/>
<path d="M89.0992 125.688C89.0992 125.688 102.734 128.707 107.706 147.313L113.822 167.125L102.632 167.814L89.0992 125.688Z" fill="#844FCF"/>
<path d="M103.645 168.459C103.655 168.463 103.697 168.367 103.769 168.182C103.838 167.996 103.953 167.726 104.064 167.365C104.28 166.643 104.54 165.575 104.641 164.223C104.86 161.534 104.326 157.717 102.544 153.982C102.101 153.052 101.603 152.167 101.104 151.344C100.612 150.512 100.142 149.708 99.7202 148.929C98.8645 147.377 98.2668 145.897 97.846 144.625C97.4252 143.351 97.1224 142.306 96.9013 141.588C96.7962 141.254 96.7109 140.98 96.6427 140.761C96.5806 140.573 96.5432 140.476 96.534 140.478C96.5247 140.481 96.5432 140.584 96.5874 140.777C96.6427 141 96.7109 141.278 96.795 141.618C96.9842 142.346 97.2576 143.399 97.655 144.687C98.053 145.972 98.6415 147.482 99.4904 149.052C99.9081 149.84 100.375 150.649 100.864 151.485C101.365 152.318 101.848 153.181 102.288 154.103C104.049 157.795 104.607 161.551 104.441 164.211C104.367 165.547 104.139 166.609 103.959 167.335C103.752 168.054 103.623 168.45 103.645 168.459Z" fill="#17282F"/>
<path d="M137.489 230.098C137.553 230.183 143.949 225.519 151.773 219.683C159.601 213.846 165.893 209.046 165.83 208.96C165.766 208.876 159.372 213.538 151.544 219.376C143.72 225.212 137.426 230.013 137.489 230.098Z" fill="#33535F"/>
<path d="M42.0468 230.976L61.3969 215.07C63.5309 203.22 74.4489 194.365 87.1071 195.518C91.8769 195.952 96.4065 197.808 100.11 200.846L111.327 209.638C128.763 204.883 155.269 197.45 168.89 193.621C174.46 192.054 180.433 192.958 185.29 196.102L185.546 196.268C192.676 200.883 196.145 209.474 194.221 217.746C192.998 222.999 189.726 227.539 185.127 230.356C178.247 234.571 167.59 241.074 158.428 246.553L159.644 247.505L151.548 260.824L134.878 255.685C123.609 254.077 99.8188 250.983 99.8188 250.983L106.622 246.973L105.065 246.493C92.1085 257.532 76.2653 262.614 56.6511 254.051C46.9696 249.513 40.927 238.607 42.0468 230.976Z" fill="#17282F"/>
<path d="M75.2031 229.202C75.1982 229.207 75.2517 229.256 75.3598 229.349C75.4863 229.452 75.646 229.584 75.8463 229.749C76.3014 230.113 76.936 230.619 77.7419 231.263C78.1578 231.591 78.6173 231.954 79.1191 232.349C79.6216 232.748 80.2137 233.118 80.8249 233.549C81.4435 233.973 82.1032 234.426 82.8029 234.905C83.1542 235.142 83.5099 235.397 83.8858 235.639C84.2704 235.871 84.6641 236.108 85.0677 236.351C86.6857 237.317 88.432 238.423 90.4112 239.422C91.3928 239.935 92.3941 240.496 93.4519 241.019C94.5188 241.525 95.6165 242.045 96.7419 242.579C101.274 244.645 106.35 246.722 111.792 248.573C122.666 252.32 132.72 255.018 139.92 257.201C141.725 257.732 143.353 258.228 144.777 258.679C146.205 259.12 147.435 259.5 148.431 259.84C149.412 260.158 150.183 260.408 150.736 260.588C150.984 260.665 151.182 260.725 151.339 260.774C151.476 260.814 151.546 260.831 151.549 260.825C151.551 260.818 151.484 260.789 151.352 260.736C151.199 260.679 151.004 260.607 150.762 260.515C150.214 260.319 149.45 260.046 148.479 259.698C147.489 259.337 146.265 258.936 144.843 258.475C143.423 258.004 141.8 257.488 139.999 256.941C132.814 254.69 122.773 251.952 111.918 248.211C106.485 246.363 101.418 244.3 96.8893 242.257C95.7646 241.73 94.6675 241.216 93.6011 240.717C92.5433 240.2 91.5427 239.647 90.5611 239.141C88.5801 238.157 86.8319 237.067 85.2096 236.119C84.8054 235.881 84.4098 235.649 84.0241 235.422C83.6469 235.183 83.2894 234.934 82.9362 234.701C82.2328 234.231 81.5688 233.787 80.9466 233.373C80.3311 232.951 79.7346 232.591 79.2272 232.201C78.7192 231.816 78.2542 231.463 77.8328 231.144C77.0085 230.525 76.3598 230.038 75.8954 229.689C75.6853 229.537 75.517 229.414 75.385 229.319C75.2689 229.236 75.2075 229.197 75.2031 229.202Z" fill="#33535F"/>
<path d="M73.7584 235.429C73.7485 235.454 73.9623 235.564 74.3591 235.743C74.7541 235.925 75.337 236.162 76.0668 236.433C77.5238 236.977 79.5816 237.621 81.9048 238.122C84.2298 238.62 86.3705 238.878 87.9228 238.981C88.698 239.033 89.3276 239.057 89.7631 239.053C90.198 239.053 90.4382 239.04 90.4394 239.013C90.4419 238.955 89.4849 238.883 87.9473 238.71C86.4092 238.539 84.2931 238.241 81.9859 237.747C79.6799 237.25 77.6276 236.652 76.1546 236.177C74.6822 235.703 73.7799 235.374 73.7584 235.429Z" fill="#33535F"/>
<path d="M102.491 203.086C102.427 203.17 115.169 213.182 130.949 225.446C146.733 237.715 159.578 247.589 159.642 247.505C159.707 247.422 146.969 237.412 131.183 225.143C115.404 212.878 102.557 203.002 102.491 203.086Z" fill="#33535F"/>
<path d="M56.6726 246.053C56.6874 246.053 56.7009 245.91 56.7125 245.638C56.7211 245.318 56.731 244.926 56.7433 244.451C56.7537 243.42 56.7985 241.929 56.8882 240.09C57.0639 236.411 57.5301 231.336 58.5596 225.813C59.5984 220.288 61.0008 215.388 62.1679 211.896C62.7496 210.149 63.2471 208.742 63.6108 207.778C63.7705 207.33 63.9032 206.962 64.0113 206.66C64.0991 206.402 64.1378 206.264 64.1243 206.259C64.1108 206.253 64.0451 206.38 63.9314 206.628C63.8031 206.921 63.6458 207.281 63.456 207.717C63.0444 208.664 62.5027 210.058 61.8822 211.798C60.639 215.276 59.1844 220.186 58.1401 225.734C57.1063 231.281 56.6855 236.385 56.5872 240.078C56.5356 241.924 56.5363 243.42 56.5768 244.452C56.5971 244.927 56.613 245.319 56.6266 245.64C56.6425 245.912 56.6579 246.053 56.6726 246.053Z" fill="#33535F"/>
<path d="M105.814 245.852C105.809 245.846 105.753 245.888 105.648 245.973C105.527 246.077 105.377 246.205 105.192 246.362C104.789 246.7 104.23 247.238 103.456 247.868C101.903 249.118 99.5909 250.864 96.4606 252.573C93.3358 254.278 89.38 255.908 84.7895 256.961C84.2207 257.113 83.6341 257.216 83.0401 257.319C82.4473 257.421 81.849 257.54 81.2403 257.633C80.016 257.76 78.7721 257.966 77.4908 258C74.9373 258.188 72.2775 258.079 69.5851 257.764C68.9131 257.67 68.2448 257.578 67.5814 257.485C66.9247 257.351 66.273 257.218 65.6256 257.086C64.3301 256.825 63.0757 256.463 61.857 256.075C59.4264 255.278 57.156 254.281 55.1204 253.108C51.0244 250.784 47.9494 247.725 45.988 244.767C43.9941 241.813 43.0629 239.032 42.6163 237.102C42.3989 236.13 42.2834 235.364 42.2207 234.842C42.1912 234.602 42.1679 234.407 42.1489 234.248C42.1304 234.115 42.1169 234.046 42.1095 234.047C42.1022 234.047 42.1009 234.116 42.1052 234.251C42.1132 234.411 42.123 234.609 42.1353 234.851C42.1703 235.377 42.26 236.152 42.4535 237.137C42.854 239.094 43.7508 241.922 45.7368 244.935C47.6889 247.949 50.7891 251.078 54.9238 253.448C56.9791 254.645 59.2722 255.661 61.7274 256.473C62.9584 256.867 64.2244 257.235 65.5328 257.5C66.187 257.634 66.8455 257.769 67.5089 257.905C68.1797 257.998 68.8548 258.093 69.5329 258.187C72.2529 258.507 74.9397 258.612 77.5166 258.418C78.8096 258.38 80.0646 258.169 81.2992 258.036C81.9135 257.941 82.5161 257.819 83.1144 257.713C83.7133 257.607 84.3043 257.5 84.878 257.344C89.5028 256.26 93.479 254.588 96.6056 252.837C99.739 251.083 102.037 249.289 103.563 247.995C104.323 247.343 104.866 246.783 105.251 246.425C105.424 246.255 105.564 246.117 105.679 246.005C105.773 245.909 105.819 245.857 105.814 245.852Z" fill="#33535F"/>
<path d="M96.6643 249.793C100.023 248.002 103.793 249.061 107.006 250.144C109.144 250.864 111.367 252.006 113.54 251.395C115.111 250.953 116.279 249.68 117.479 248.573C122.317 244.11 128.99 241.676 135.576 242.089C137.447 242.206 139.274 242.959 140.546 244.335C143.844 247.909 141.357 252.558 138.409 255.562C133.205 260.865 126.119 264.284 118.729 265.056C112.587 265.697 104.141 264.848 97.9113 262.181C94.0702 260.537 92.0997 256.006 94.1151 252.347C94.7029 251.28 95.5605 250.382 96.6643 249.793Z" fill="#33535F"/>
<path d="M114.598 265.26C116.051 265.26 117.445 265.19 118.737 265.056C125.689 264.33 132.372 261.261 137.473 256.485L137.467 256.483C132.366 261.261 125.683 264.33 118.729 265.056C117.439 265.19 116.046 265.259 114.594 265.26C114.595 265.26 114.597 265.26 114.598 265.26Z" fill="#8C8F8F"/>
<path d="M137.472 256.484C137.476 256.481 137.48 256.477 137.484 256.473C137.482 256.472 137.481 256.472 137.479 256.471C137.474 256.475 137.47 256.479 137.466 256.483L137.472 256.484ZM137.729 256.241C137.961 256.018 138.191 255.792 138.417 255.562C139.53 254.427 140.573 253.056 141.266 251.599C140.571 253.057 139.522 254.427 138.409 255.562C138.184 255.791 137.955 256.017 137.723 256.239C137.725 256.24 137.727 256.241 137.729 256.241Z" fill="#0C1418"/>
<path d="M137.486 256.473C137.568 256.396 137.65 256.318 137.73 256.241C137.729 256.24 137.727 256.24 137.725 256.239C137.644 256.316 137.562 256.394 137.48 256.471C137.482 256.471 137.484 256.472 137.486 256.473Z" fill="#1A2C33"/>
<path d="M114.595 265.26C116.047 265.259 117.44 265.19 118.731 265.056C125.684 264.33 132.367 261.261 137.468 256.483C137.472 256.479 137.476 256.476 137.48 256.471C137.562 256.395 137.644 256.317 137.725 256.24C137.957 256.017 138.186 255.791 138.41 255.562C139.524 254.427 140.573 253.057 141.267 251.599C141.562 250.978 141.794 250.341 141.939 249.7C141.719 248.832 141.286 247.987 140.555 247.195C139.283 245.817 137.455 245.065 135.585 244.948C135.103 244.918 134.62 244.903 134.137 244.903C128.031 244.903 121.972 247.297 117.488 251.432C116.288 252.539 115.12 253.812 113.549 254.254C113.117 254.375 112.682 254.428 112.247 254.428C110.495 254.428 108.728 253.581 107.015 253.003C105.053 252.342 102.884 251.69 100.727 251.69C99.3516 251.69 97.9812 251.955 96.674 252.652C95.5696 253.241 94.7114 254.139 94.1248 255.206C93.822 255.755 93.6192 256.325 93.489 256.901C93.9872 259.159 95.6107 261.193 97.9198 262.181C102.839 264.287 109.138 265.259 114.595 265.26Z" fill="#1A2C33"/>
<path d="M93.4876 256.901C93.5496 256.922 93.5324 256.08 94.3113 254.912C94.7014 254.34 95.2825 253.698 96.1081 253.154C96.9207 252.604 97.9736 252.129 99.1948 251.972C101.689 251.679 104.578 252.729 107.788 253.597C109.374 254.017 111.107 254.66 113.004 254.422C113.93 254.302 114.859 253.995 115.687 253.493C116.512 252.999 117.262 252.388 117.993 251.756C120.759 249.056 124.04 247.366 127.177 246.299C128.746 245.772 130.287 245.426 131.746 245.239C133.206 245.046 134.581 245.022 135.811 245.215C137.04 245.406 138.107 245.809 138.955 246.311C139.8 246.823 140.426 247.416 140.881 247.944C141.772 249.024 142.073 249.762 142.121 249.734C142.121 249.734 141.884 248.97 141.017 247.833C140.574 247.275 139.947 246.646 139.087 246.097C138.224 245.557 137.126 245.117 135.863 244.899C134.599 244.68 133.183 244.688 131.701 244.868C130.215 245.042 128.645 245.381 127.046 245.904C125.447 246.425 123.822 247.136 122.225 248.032C121.436 248.492 120.631 248.969 119.878 249.559C119.131 250.145 118.424 250.789 117.698 251.415C116.974 252.041 116.241 252.636 115.458 253.107C114.679 253.581 113.821 253.865 112.948 253.983C111.19 254.215 109.505 253.615 107.896 253.196C104.702 252.36 101.762 251.314 99.1554 251.655C96.5681 252.067 94.9016 253.622 94.1639 254.816C93.7855 255.427 93.6166 255.966 93.5417 256.333C93.4796 256.703 93.4765 256.9 93.4876 256.901Z" fill="#17282F"/>
<path d="M93.4876 256.901C93.5496 256.922 93.5324 256.08 94.3113 254.912C94.7014 254.34 95.2825 253.698 96.1081 253.154C96.9207 252.604 97.9736 252.129 99.1948 251.972C101.689 251.679 104.578 252.729 107.788 253.597C109.374 254.017 111.107 254.66 113.004 254.422C113.93 254.302 114.859 253.995 115.687 253.493C116.512 252.999 117.262 252.388 117.993 251.756C120.759 249.056 124.04 247.366 127.177 246.299C128.746 245.772 130.287 245.426 131.746 245.239C133.206 245.046 134.581 245.022 135.811 245.215C137.04 245.406 138.107 245.809 138.955 246.311C139.8 246.823 140.426 247.416 140.881 247.944C141.772 249.024 142.073 249.762 142.121 249.734C142.121 249.734 141.884 248.97 141.017 247.833C140.574 247.275 139.947 246.646 139.087 246.097C138.224 245.557 137.126 245.117 135.863 244.899C134.599 244.68 133.183 244.688 131.701 244.868C130.215 245.042 128.645 245.381 127.046 245.904C125.447 246.425 123.822 247.136 122.225 248.032C121.436 248.492 120.631 248.969 119.878 249.559C119.131 250.145 118.424 250.789 117.698 251.415C116.974 252.041 116.241 252.636 115.458 253.107C114.679 253.581 113.821 253.865 112.948 253.983C111.19 254.215 109.505 253.615 107.896 253.196C104.702 252.36 101.762 251.314 99.1554 251.655C96.5681 252.067 94.9016 253.622 94.1639 254.816C93.7855 255.427 93.6166 255.966 93.5417 256.333C93.4796 256.703 93.4765 256.9 93.4876 256.901Z" fill="#17282F"/>
<path d="M135.14 256.093C135.171 256.042 134.523 255.574 133.42 254.901C132.318 254.229 130.754 253.366 128.971 252.526C127.187 251.688 125.524 251.035 124.303 250.615C123.082 250.194 122.307 249.995 122.288 250.051C122.267 250.113 123.003 250.419 124.189 250.913C125.375 251.408 127.007 252.102 128.779 252.935C130.55 253.768 132.126 254.581 133.263 255.18C134.401 255.777 135.106 256.149 135.14 256.093Z" fill="#17282F"/>
<path d="M133.986 259.451C134.04 259.338 131.103 257.806 127.427 256.028C123.749 254.251 120.725 252.901 120.671 253.013C120.617 253.125 123.553 254.657 127.23 256.435C130.907 258.212 133.932 259.562 133.986 259.451Z" fill="#17282F"/>
<path d="M120.072 260.908C120.138 261.014 123.717 258.878 128.063 256.14C132.412 253.4 135.882 251.094 135.815 250.989C135.75 250.884 132.172 253.018 127.823 255.758C123.477 258.497 120.005 260.803 120.072 260.908Z" fill="#17282F"/>
<path d="M118.058 257.422C118.099 257.472 118.758 257.01 119.811 256.251C120.864 255.492 122.316 254.444 123.941 253.316C125.568 252.189 127.059 251.197 128.139 250.477C129.219 249.757 129.883 249.303 129.85 249.247C129.82 249.196 129.097 249.554 127.971 250.207C126.844 250.859 125.318 251.813 123.684 252.945C122.051 254.078 120.622 255.172 119.616 255.998C118.61 256.824 118.021 257.375 118.058 257.422Z" fill="#17282F"/>
<path d="M92.3909 119.328C92.4646 119.309 92.077 118.732 92.2589 117.639C92.3528 117.103 92.5893 116.462 93.0273 115.822C93.4653 115.181 94.1152 114.555 94.8547 113.87C95.5943 113.192 96.4193 112.377 97.044 111.318C97.6718 110.269 98.1343 109.018 98.3162 107.65C98.5029 106.287 98.3751 104.795 97.8985 103.379C97.4384 101.955 96.7068 100.609 95.9887 99.2523C95.2645 97.899 94.6041 96.5648 94.2288 95.203C93.8424 93.8442 93.8087 92.4769 94.1465 91.2305C94.8283 88.7249 96.3229 86.7488 97.0803 84.8427C97.9114 82.9545 97.9881 81.186 97.6988 80.0692C97.5643 79.5053 97.3684 79.0956 97.2111 78.8382C97.0545 78.5796 96.9421 78.4648 96.9267 78.4752C96.8659 78.5065 97.2559 79.0281 97.4433 80.1208C97.6386 81.2056 97.501 82.8519 96.6454 84.6529C95.8659 86.4773 94.3234 88.403 93.5488 91.0733C93.1655 92.405 93.1901 93.9376 93.5943 95.375C93.9844 96.8234 94.6686 98.2068 95.3959 99.5668C96.1177 100.927 96.8315 102.239 97.2738 103.584C97.732 104.921 97.8598 106.289 97.7031 107.573C97.5489 108.855 97.1343 110.038 96.5637 111.037C95.9961 112.044 95.2491 112.823 94.5255 113.528C93.8074 114.236 93.1526 114.909 92.7134 115.617C92.2754 116.323 92.0598 117.022 91.9996 117.604C91.9431 118.189 92.0439 118.645 92.1569 118.928C92.2675 119.214 92.3786 119.335 92.3909 119.328Z" fill="#17282F"/>
<path d="M57.3633 107.173C56.5021 109.368 54.1568 110.826 51.7992 110.832C49.4417 110.838 47.1744 109.494 45.863 107.535C44.5509 105.576 44.159 103.074 44.5871 100.756C44.7806 99.707 45.1338 98.659 45.0122 97.5988C44.839 96.0963 43.7456 94.8549 43.3703 93.3892C42.6958 90.7497 44.6246 87.9615 47.1363 86.9056C49.6481 85.8497 52.5302 86.1765 55.1544 86.9087" fill="#17282F"/>
<path d="M95.6141 76.6427C98.0344 79.0765 97.1105 82.2695 95.9809 84.4323C94.8512 86.5951 93.4961 88.7875 93.4703 91.2267C93.4439 93.7213 94.8144 95.9892 95.4987 98.3885C96.3617 101.413 96.1019 104.744 94.78 107.598C93.7848 109.748 92.2277 111.6 91.2209 113.745C90.2129 115.89 89.8406 118.589 91.2111 120.522C89.9045 120.313 88.816 119.32 88.23 118.134C87.644 116.947 87.5009 115.589 87.5285 114.266C87.6323 109.243 90.039 104.363 89.4371 99.375C89.0869 96.4744 87.7257 93.6912 87.9186 90.7765C88.1109 87.8519 89.8259 85.2886 91.0667 82.6337C92.3063 79.9776 93.0416 76.6667 91.388 74.2459" fill="#17282F"/>
<path d="M89.6678 67.115C92.6323 67.4983 95.5716 69.0494 97.0046 71.6723C98.4377 74.2952 97.9445 78.0079 95.4954 79.7211C93.1864 81.3372 89.9111 80.804 87.5394 79.2819C85.7887 78.159 84.3317 76.5047 83.6965 74.5243C83.062 72.5439 83.3292 70.2361 84.6161 68.6016C85.9024 66.9676 88.247 66.1654 90.193 66.8988" fill="#17282F"/>
<path d="M92.0879 66.812C90.7813 63.2056 87.5749 60.4832 83.9624 59.1944C80.3498 57.9063 76.3731 57.9309 72.6039 58.6397C68.8341 59.3486 65.2247 60.7141 61.638 62.0723C59.0267 63.0612 56.3577 64.0834 54.2354 65.8973C52.1353 67.6922 50.7015 70.1647 49.747 72.7575C47.9545 77.6305 47.8802 81.1988 49.9804 85.9471C50.8944 88.0135 50.1499 90.3268 50.9694 92.4331C51.7882 94.5395 55.5887 97.0457 54.408 98.9727" fill="#17282F"/>
<path d="M56.2864 119.328L57.8534 73.1012C57.9253 71.0305 59.5685 69.3584 61.6385 69.2515L83.0759 65.0505C89.8875 64.7004 93.9398 73.2836 94.0006 80.1038C94.0682 87.6815 93.8514 96.9354 92.6517 102.522C90.2395 113.754 81.4776 114.726 81.4776 114.726C81.477 114.704 81.23 119.11 81.0009 123.068L81.367 140.479L56.2864 119.328Z" fill="#F8A58D"/>
<path d="M91.0779 88.2535C91.0637 89.0219 90.4016 89.6436 89.5981 89.6436C88.7965 89.6429 88.157 89.0213 88.1711 88.2522C88.1853 87.4838 88.8487 86.8609 89.6497 86.8609C90.4531 86.8609 91.0932 87.4844 91.0779 88.2535Z" fill="#17282F"/>
<path d="M91.7778 84.0675C91.5873 84.2474 90.5308 83.3727 88.9669 83.2922C87.406 83.1897 86.2143 83.9317 86.0558 83.7315C85.9766 83.6424 86.1793 83.3101 86.6984 82.9734C87.2094 82.6374 88.0676 82.3303 89.0412 82.3874C90.0148 82.4452 90.8152 82.8481 91.2661 83.2407C91.7268 83.6356 91.8711 83.987 91.7778 84.0675Z" fill="#17282F"/>
<path d="M76.6013 88.0282C76.5872 88.7967 75.9238 89.4189 75.1209 89.4189C74.3193 89.4183 73.6793 88.7961 73.6946 88.027C73.7081 87.2586 74.3715 86.6357 75.1732 86.6363C75.976 86.6363 76.6155 87.2598 76.6013 88.0282Z" fill="#17282F"/>
<path d="M76.3523 84.2619C76.1613 84.4413 75.1035 83.5672 73.5408 83.4867C71.9799 83.3835 70.7883 84.1262 70.6292 83.9259C70.5505 83.8363 70.7514 83.5045 71.2723 83.1673C71.7834 82.8319 72.6415 82.5248 73.6158 82.5813C74.5894 82.6397 75.3885 83.0426 75.84 83.4351C76.3001 83.8301 76.4451 84.1815 76.3523 84.2619Z" fill="#17282F"/>
<path d="M81.3985 96.1644C81.3955 96.0753 82.3765 95.9599 83.9625 95.8444C84.3642 95.8241 84.7463 95.7651 84.8286 95.4967C84.9373 95.2129 84.7942 94.7737 84.6253 94.2989C84.3022 93.3124 83.9644 92.2779 83.6093 91.1944C82.2039 86.7772 81.2087 83.1536 81.3875 83.0983C81.5656 83.0436 82.8501 86.5794 84.2555 90.9966C84.5928 92.0857 84.9146 93.1238 85.2211 94.1165C85.3477 94.5784 85.5799 95.1073 85.3434 95.6945C85.2199 95.9869 84.9152 96.1878 84.6554 96.243C84.3949 96.3069 84.1701 96.2996 83.9723 96.3008C82.3826 96.3002 81.3992 96.2541 81.3985 96.1644Z" fill="#17282F"/>
<path d="M81.4785 114.726C81.4785 114.726 73.8296 114.805 66.5235 109.858C66.5235 109.858 69.9302 117.855 81.3274 117.409L81.4785 114.726Z" fill="#F68260"/>
<path d="M77.2955 79.7221C77.118 80.1392 75.5675 79.8529 73.7217 79.9752C71.8721 80.0599 70.3641 80.5164 70.1411 80.122C70.0422 79.934 70.3217 79.5477 70.9421 79.1686C71.5576 78.7896 72.5244 78.4506 73.6326 78.3873C74.7401 78.3265 75.7395 78.5556 76.3925 78.8634C77.051 79.1717 77.3723 79.5243 77.2955 79.7221Z" fill="#17282F"/>
<path d="M91.407 80.2453C91.1121 80.5856 90.0549 80.1587 88.7607 80.0714C87.4695 79.9381 86.3558 80.1808 86.123 79.7956C86.0223 79.6089 86.2146 79.2625 86.7121 78.9522C87.2023 78.6433 88.007 78.4117 88.8958 78.4866C89.7841 78.5634 90.5378 78.9271 90.969 79.3147C91.407 79.7047 91.5372 80.0782 91.407 80.2453Z" fill="#17282F"/>
<path d="M80.5334 99.7237C80.0462 99.0025 79.1488 98.5719 78.2304 98.6205C77.5941 98.6542 76.9387 98.9251 76.5265 99.4196C76.1143 99.9141 75.9939 100.641 76.317 101.151C76.6807 101.726 77.4958 101.898 78.2022 101.738C78.9092 101.578 79.5327 101.152 80.1261 100.727C80.2901 100.609 80.4578 100.486 80.5653 100.318C80.6734 100.151 80.7072 99.9252 80.5929 99.7753" fill="#F68260"/>
<path d="M76.9937 97.0198C77.2314 97.0185 77.1491 98.6015 78.4427 99.7981C79.7345 100.999 81.4311 100.912 81.4311 101.134C81.4483 101.234 81.0392 101.421 80.3254 101.402C79.6264 101.388 78.6184 101.108 77.8266 100.376C77.0372 99.6433 76.7313 98.7041 76.7129 98.0524C76.6883 97.3871 76.8862 97.005 76.9937 97.0198Z" fill="#17282F"/>
<path d="M92.2795 69.8521C91.538 73.4075 85.8395 73.6747 82.3185 72.7859C79.8061 75.7135 75.7231 77.2062 71.9146 76.5876C71.3968 76.5041 70.8538 76.3861 70.3605 76.5636C69.8372 76.7522 69.4864 77.2301 69.1295 77.6558C67.5355 79.5594 65.2111 80.8359 62.7491 81.1602C62.0685 84.7132 59.0058 87.6819 55.4338 88.252C55.4338 88.252 54.3029 87.6113 54.97 83.0552C55.6377 78.4992 55.677 68.9467 55.677 68.9467L68.3973 64.0123L83.3824 62.0822C83.3824 62.0822 93.5332 63.8366 92.2795 69.8521Z" fill="#17282F"/>
<path d="M50.1607 86.4714C50.2596 86.4917 50.1871 85.2171 51.1104 83.3307C51.5766 82.4056 52.326 81.3478 53.4864 80.4854C54.635 79.6248 56.1996 78.962 57.9705 78.8852L58.1683 78.876L58.2291 78.6825C58.7814 76.9048 59.7482 74.9797 61.454 73.6523C63.0997 72.3488 65.6956 71.799 67.7159 72.9538L68.0494 73.1443L68.2012 72.7769C68.2534 72.6492 68.3105 72.5116 68.3676 72.3727C69.727 69.1742 73.0219 67.2571 75.9827 67.1306C76.7346 67.1029 77.4428 67.1803 78.1726 67.3148C78.8956 67.4359 79.6689 67.547 80.4171 67.3376C81.1721 67.1226 81.7126 66.6072 82.166 66.1582C82.6199 65.6919 83.0345 65.2816 83.5087 64.9782C85.4363 63.7423 87.4929 63.9099 88.6815 64.2791C89.9162 64.6655 90.4629 65.1858 90.5028 65.1262C90.5175 65.1084 90.3855 64.9825 90.1164 64.757C89.8296 64.5611 89.399 64.257 88.765 64.0316C87.5482 63.5733 85.386 63.2932 83.2526 64.5789C82.1653 65.1821 81.4718 66.4671 80.2697 66.8013C79.0639 67.1152 77.5866 66.4106 75.9569 66.5132C72.7658 66.6207 69.2381 68.6337 67.7497 72.1117C67.6877 72.2622 67.6262 72.4127 67.5691 72.5515L68.0544 72.3746C65.7036 71.0502 62.8595 71.7069 61.0597 73.1455C59.212 74.6117 58.2316 76.6622 57.6849 78.5203L57.9429 78.3176C56.0411 78.4319 54.3967 79.1752 53.205 80.1181C52.0011 81.0653 51.2523 82.2066 50.8137 83.1894C50.3683 84.1796 50.2166 85.0242 50.1582 85.5937C50.1042 86.1655 50.1361 86.4708 50.1607 86.4714Z" fill="#33535F"/>
<path d="M70.4124 75.5934C70.4001 75.6302 70.7171 75.7813 71.3283 75.9533C71.9377 76.1259 72.8566 76.2758 74.0028 76.2525C76.256 76.2353 79.5908 75.269 81.9607 72.5282L81.543 72.6043C81.6579 72.6639 81.7819 72.7284 81.9066 72.7935C83.5682 73.6074 85.3877 73.7979 86.9547 73.5497C88.5352 73.3028 89.8393 72.6074 90.7662 71.8678C91.7005 71.1221 92.2792 70.3352 92.6127 69.7695C92.9457 69.1988 93.0525 68.8481 93.0169 68.8309C92.91 68.7547 92.3172 70.1442 90.48 71.4894C89.5659 72.1418 88.3319 72.7419 86.865 72.9379C85.4074 73.1357 83.7286 72.9391 82.2015 72.1909C82.0872 72.1313 81.9736 72.0724 81.8679 72.0171L81.6241 71.8912L81.4502 72.0933C79.2468 74.6523 76.1343 75.6517 73.9789 75.7856C71.7773 75.949 70.4401 75.4662 70.4124 75.5934Z" fill="#33535F"/>
<path d="M77.1681 69.2511C77.1829 69.4495 78.8291 69.3991 80.7303 69.9618C82.6394 70.5005 84.0049 71.4207 84.1229 71.2609C84.2445 71.1381 82.9705 69.9016 80.9164 69.3174C78.8678 68.716 77.1307 69.0827 77.1681 69.2511Z" fill="#33535F"/>
<path d="M81.4798 69.1224C81.6205 69.2502 82.2261 68.803 82.9872 68.3184C83.744 67.8276 84.4019 67.4615 84.3441 67.2809C84.2938 67.1076 83.4657 67.2102 82.6242 67.7538C81.7802 68.2938 81.3434 69.0045 81.4798 69.1224Z" fill="#33535F"/>
<path d="M63.5018 74.7167C63.5626 74.9053 65.0215 74.5207 66.8238 74.6835C68.6285 74.8205 70.0038 75.4415 70.0941 75.2658C70.1967 75.1252 68.8496 74.1706 66.8791 74.0152C64.9109 73.8432 63.4244 74.5613 63.5018 74.7167Z" fill="#33535F"/>
<path d="M60.02 80.607C60.0034 80.7778 62.1447 80.9891 64.6534 80.2551C67.1682 79.5382 68.8661 78.2175 68.761 78.0818C68.6566 77.9122 66.8703 78.9282 64.4673 79.6107C62.071 80.3146 60.0181 80.408 60.02 80.607Z" fill="#33535F"/>
<path d="M52.0393 84.5068C52.1818 84.645 53.2942 83.5277 55.0848 83.0215C56.865 82.4791 58.4043 82.817 58.4498 82.6247C58.5376 82.4699 56.8944 81.7795 54.8956 82.3784C52.8906 82.9552 51.882 84.4245 52.0393 84.5068Z" fill="#33535F"/>
<path d="M53.1813 68.2452C53.236 68.2667 53.3828 67.8761 53.8189 67.295C54.2575 66.72 55.0438 65.9989 56.2152 65.427C58.5494 64.2918 62.227 63.5842 66.2278 63.7629C70.2475 63.9417 73.8066 64.9159 76.3343 65.6868C78.8663 66.4768 80.4106 67.0536 80.4487 66.9577C80.4653 66.9166 80.1016 66.7176 79.421 66.4117C78.7398 66.1051 77.7422 65.6893 76.4848 65.2366C73.9755 64.3446 70.3765 63.277 66.2566 63.0934C62.1478 62.914 58.3983 63.7027 55.994 65.0074C54.7925 65.6616 53.997 66.4927 53.6039 67.1476C53.2114 67.8091 53.1487 68.2373 53.1813 68.2452Z" fill="#33535F"/>
<path d="M51.915 74.3346C52.0397 74.3862 52.3892 72.9641 53.8389 71.2393C55.2517 69.5169 57.9023 67.6495 61.2476 66.8908C64.604 66.1408 67.7797 66.4332 70.0237 66.7103C72.2805 67.0039 73.673 67.2742 73.6951 67.1728C73.713 67.0936 72.3597 66.6593 70.0949 66.241C67.8473 65.8423 64.5954 65.4572 61.0983 66.2367C57.5952 67.0291 54.8482 69.0623 53.4691 70.9426C52.7664 71.8787 52.3469 72.7362 52.1405 73.3524C51.9292 73.9672 51.8776 74.3241 51.915 74.3346Z" fill="#33535F"/>
<path d="M94.0838 81.4591C94.0948 81.5199 95.1329 81.2361 96.2681 80.0119C97.3818 78.8411 98.4948 76.5413 97.9764 73.9712C97.4174 71.409 95.4739 69.7505 93.9824 69.127C92.451 68.4624 91.3865 68.6203 91.4013 68.6805C91.3853 68.8027 92.4038 68.826 93.7748 69.554C95.1207 70.2426 96.824 71.8224 97.3203 74.1094C97.7853 76.4018 96.8609 78.5327 95.9063 79.7048C94.9431 80.9229 94.0199 81.3541 94.0838 81.4591Z" fill="#33535F"/>
<path d="M46.8498 96.6445C46.9137 96.5413 45.7662 95.935 44.1446 94.7181C43.3521 94.0977 42.4664 93.2605 41.8601 92.1063C41.2464 90.9699 41.0468 89.4766 41.6654 88.1153C42.2483 86.7541 43.3896 85.7424 44.5801 85.2867C45.7902 84.8296 47.015 84.8653 47.9819 85.0698C49.9482 85.5109 50.9089 86.4587 50.9783 86.3487C51.0041 86.3205 50.8014 86.0631 50.337 85.7001C49.8689 85.3505 49.1269 84.888 48.0943 84.6091C47.0746 84.3296 45.7367 84.2283 44.3663 84.7068C43.0045 85.1914 41.7127 86.3063 41.0486 87.8512C40.3373 89.3943 40.5996 91.1763 41.3159 92.3986C42.0161 93.6548 43.0063 94.5056 43.8626 95.1002C44.7293 95.6948 45.4824 96.0726 46.0039 96.3238C46.5273 96.5714 46.8283 96.6844 46.8498 96.6445Z" fill="#17282F"/>
<path d="M46.3212 96.7083C46.2795 96.6917 46.0897 97.0376 45.7985 97.6862C45.5092 98.3355 45.1099 99.287 44.734 100.511C44.3654 101.732 44.011 103.245 44.0214 104.968C44.03 106.672 44.409 108.625 45.5479 110.311C46.6953 111.991 48.4865 113.061 50.2427 113.286C52.0204 113.553 53.639 112.784 54.5285 111.825C55.4597 110.869 55.8166 109.79 55.8565 109.064C55.9038 108.328 55.7441 107.942 55.7152 107.951C55.6538 107.959 55.7195 108.354 55.5973 109.029C55.4837 109.697 55.0862 110.657 54.1974 111.485C53.33 112.321 51.9117 112.94 50.3281 112.674C48.7654 112.445 47.1401 111.455 46.1032 109.934C45.0614 108.395 44.6799 106.58 44.6394 104.958C44.5957 103.324 44.8875 101.851 45.1904 100.638C45.8378 98.2133 46.4294 96.7483 46.3212 96.7083Z" fill="#17282F"/>
<path d="M63.8666 75.5028C65.28 78.3187 64.1989 81.7303 62.7498 84.5283C61.302 87.3263 59.4537 90.0979 59.3321 93.2466C59.1287 98.5201 63.8408 103.183 63.1897 108.42C62.8027 111.536 60.3112 114.279 57.2472 114.963C59.7424 113.285 59.9691 109.617 59.0151 106.765C58.0618 103.915 53.4474 96.4003 52.7784 93.469C50.5314 83.6235 51.4903 82.4791 54.932 79.0177" fill="#17282F"/>
<path d="M54.375 82.522C54.3683 82.6031 55.0679 82.764 56.2031 82.6C57.3254 82.4452 58.8868 81.8825 60.1934 80.6779C61.4993 79.4715 62.1848 77.9604 62.4293 76.8541C62.6836 75.7355 62.5792 75.0248 62.4981 75.0254C62.39 75.0187 62.3169 75.703 61.9606 76.7177C61.6136 77.7276 60.9158 79.0716 59.7253 80.1712C58.5349 81.2683 57.1393 81.8567 56.1054 82.1227C55.0649 82.3961 54.3763 82.4139 54.375 82.522Z" fill="#33535F"/>
<path d="M58.475 111.832C58.4903 111.851 58.6095 111.774 58.8263 111.608C59.0401 111.44 59.3337 111.159 59.6544 110.748C60.2772 109.933 61.0113 108.5 60.9867 106.593C60.983 105.65 60.757 104.603 60.2207 103.611C59.6802 102.622 58.854 101.766 58.0296 100.899C57.1954 100.034 56.3993 99.1026 55.8999 97.9404C55.3889 96.7899 55.137 95.4729 55.1954 94.1393C55.255 92.8002 55.6358 91.5299 56.2747 90.4322C56.9 89.3247 57.7078 88.3627 58.4744 87.437C60.0549 85.6145 61.3092 83.7563 62.0451 82.0591C62.8006 80.3637 63.0636 78.8581 63.1084 77.8298C63.1508 76.796 63.0279 76.2328 62.9942 76.2371C62.851 76.2131 63.1913 78.5848 61.6022 81.8545C60.8252 83.4824 59.5911 85.2306 57.9885 87.0267C57.2077 87.9444 56.3637 88.9211 55.6874 90.0974C54.997 91.2627 54.567 92.6657 54.5068 94.108C54.4429 95.5515 54.7205 96.9723 55.282 98.2156C55.8318 99.4736 56.7243 100.49 57.5714 101.34C58.4166 102.201 59.2102 103.002 59.7225 103.893C60.2275 104.778 60.4664 105.731 60.499 106.608C60.5844 108.381 59.9664 109.767 59.4351 110.594C58.881 111.427 58.4313 111.784 58.475 111.832Z" fill="#33535F"/>
<path d="M53.2249 82.1511C53.1972 82.1222 52.9208 82.3182 52.5019 82.7617C52.0792 83.2015 51.5522 83.9294 51.0933 84.9288C50.1578 86.9105 49.7401 90.1059 50.734 93.3333C51.7371 96.5471 53.5983 98.9968 54.989 100.622C56.4049 102.252 57.4019 103.135 57.4639 103.077C57.5419 103.006 56.6697 102.002 55.3686 100.314C54.0873 98.6295 52.3495 96.2001 51.3937 93.1312C50.452 90.0678 50.7678 87.0468 51.543 85.1174C52.3041 83.1536 53.3293 82.2396 53.2249 82.1511Z" fill="#33535F"/>
<path d="M100.338 166.343L106.682 154.64C107.103 153.862 107.916 153.379 108.799 153.379H153.959C154.853 153.379 155.673 153.874 156.09 154.665L111.323 184.75L91.5155 187.024C91.0898 186.216 91.0757 185.253 91.478 184.433L100.338 166.343Z" fill="#17282F"/>
<mask id="mask0_8162_8737" style="mask-type:luminance" maskUnits="userSpaceOnUse" x="48" y="193" width="4" height="7">
<path d="M49.0443 199.556C49.9817 197.18 50.8257 195.162 51.459 193.684C49.7747 194.626 48.2709 196.028 48.392 197.871C48.4337 198.496 48.6739 199.067 49.0443 199.556Z" fill="white"/>
</mask>
<g mask="url(#mask0_8162_8737)">
<path d="M51.459 199.556H48.2708V193.684H51.459V199.556Z" fill="#A7A9A8"/>
</g>
<path d="M52.9739 201.334C54.4359 201.334 55.8929 200.875 57.2916 200.402C64.5707 197.944 71.6802 194.986 78.5539 191.552C81.3986 190.132 84.4085 188.59 87.5351 188.59C87.9153 188.59 88.2974 188.612 88.6813 188.661C90.3294 188.87 91.8952 189.553 93.5506 189.694C93.6256 189.701 93.7036 189.704 93.784 189.704C95.4659 189.704 98.1509 188.317 98.7345 186.843C98.8542 186.625 98.9525 186.397 99.0293 186.162L91.5174 187.025C91.0917 186.216 91.0776 185.253 91.4799 184.433L94.6305 177.999C93.7147 177.678 92.7613 177.537 91.7987 177.537C89.599 177.537 87.3502 178.279 85.3852 179.333C82.4692 180.897 79.944 183.101 77.0925 184.779C69.6341 189.17 60.5159 189.671 52.582 193.129C52.2091 193.292 51.8295 193.477 51.4585 193.684C50.8252 195.162 49.9812 197.18 49.0438 199.556C49.7343 200.466 50.8774 201.093 52.0316 201.266C52.3455 201.312 52.66 201.334 52.9739 201.334Z" fill="#7241B7"/>
<path d="M91.518 187.024L99.0299 186.162C99.9758 183.268 97.7669 179.232 94.9204 178.107C94.8246 178.069 94.7282 178.033 94.6311 177.999L91.4805 184.433C91.0782 185.253 91.0923 186.216 91.518 187.024Z" fill="#0F191D"/>
<path d="M91.5168 187.024L107.354 156.014C107.778 155.186 108.629 154.665 109.558 154.665H156.309L138.891 186.036L91.5168 187.024Z" fill="#33535F"/>
<path d="M128.165 165.821C127.512 166.344 126.559 166.239 126.037 165.586C125.514 164.933 125.619 163.981 126.271 163.457C126.924 162.935 127.877 163.04 128.399 163.692C128.923 164.345 128.818 165.297 128.165 165.821Z" fill="#E7E8E5"/>
<path d="M87.0254 170.845L91.7301 167.212C93.662 164.814 96.576 163.421 99.6547 163.421H102.217L103.966 165.388C103.966 165.388 116.512 165.935 116.974 167.481L116.984 167.981L116.991 168.273L106.261 168.995C106.261 168.995 115.39 168.966 115.935 168.986C116.537 169.008 118.483 168.833 118.443 169.904C118.41 170.785 117.368 171.48 115.791 171.71C115.142 171.805 107.235 172.492 107.235 172.492C107.235 172.492 115.537 172.412 115.938 172.41C116.914 172.406 116.79 173.97 116.211 174.166C115.752 174.321 104.606 177.574 104.606 177.574C104.606 177.574 106.48 178.831 108.01 178.722C109.54 178.613 112.164 176.645 112.709 177.574C113.256 178.503 113.147 179.049 112.819 179.269C112.491 179.487 108.885 181.344 107.683 181.673C106.48 182.001 96.6651 183.554 96.6651 183.554L88.5242 182.511L87.0254 170.845Z" fill="#F8A58D"/>
<path d="M108.236 165.538C108.237 165.462 106.266 165.39 103.834 165.377C101.403 165.364 99.4308 165.416 99.4308 165.492C99.4302 165.568 101.401 165.639 103.833 165.652C106.265 165.665 108.236 165.614 108.236 165.538Z" fill="#F68260"/>
<path d="M87.0252 170.844L52.4886 177.418L49.0241 133.996C49.0241 133.996 39.7099 126.163 34.7835 131.508C29.8559 136.853 29.4922 143.179 29.8073 146.33C30.1237 149.483 33.2607 186.589 35.8652 192.868C39.5054 201.648 48.8288 201.176 51.432 200.538C54.0365 199.899 91.1875 182.33 91.1875 182.33L87.0252 170.844Z" fill="#F8A58D"/>
<path d="M50.2969 133.772C51.5132 143.577 53.9045 158.58 54.0391 168.459C54.0391 168.859 30.2871 170.845 30.2871 170.845C30.2871 170.845 29.0488 148.477 29.9431 141.674C30.9585 133.956 36.7357 128.635 36.7357 128.635H44.1887L50.2969 133.772Z" fill="#844FCF"/>
<path d="M30.285 170.845C30.285 170.855 30.4514 170.849 30.7665 170.827C31.1099 170.8 31.5681 170.765 32.1437 170.719C33.3716 170.608 35.0953 170.452 37.217 170.26C41.5322 169.839 47.4593 169.261 54.0528 168.618L54.207 168.603L54.196 168.447C54.1757 168.142 54.1536 167.814 54.1315 167.485C53.6517 160.656 53.218 154.475 52.9011 149.964C52.7297 147.746 52.5903 145.942 52.4914 144.656C52.4379 144.053 52.3955 143.573 52.3636 143.214C52.331 142.885 52.3083 142.712 52.2979 142.713C52.2868 142.714 52.2874 142.888 52.2991 143.218C52.3163 143.578 52.339 144.059 52.3673 144.664C52.4416 145.951 52.5467 147.759 52.675 149.979C52.9674 154.492 53.3692 160.675 53.812 167.507C53.8342 167.837 53.8569 168.165 53.8778 168.469L54.0209 168.3C47.431 168.98 41.5076 169.593 37.1948 170.039C35.0769 170.273 33.3563 170.463 32.1315 170.598C31.559 170.668 31.1025 170.723 30.7598 170.765C30.4471 170.807 30.2837 170.834 30.285 170.845Z" fill="#17282F"/>
</g>
<defs>
<clipPath id="clip0_8162_8737">
<rect width="420" height="265.26" fill="white"/>
</clipPath>
</defs>
</svg>
