<svg width="110" height="111" viewBox="0 0 110 111" fill="none" xmlns="http://www.w3.org/2000/svg">
<circle cx="55" cy="55.3086" r="55" fill="white"/>
<circle cx="55.393" cy="54.9157" r="20.8214" fill="#F2F5FA"/>
<path d="M54.9999 9.7373C29.8315 9.7373 9.42847 30.1404 9.42847 55.3087C9.42847 73.5547 20.1515 89.2962 35.6395 96.5751C22.4231 89.9164 13.357 76.2248 13.357 60.4159C13.357 38.0681 31.4735 19.9516 53.8213 19.9516C64.1368 19.9516 73.5507 23.8115 80.6975 30.1659L87.607 23.4727C79.3318 14.9983 67.7802 9.7373 54.9999 9.7373Z" fill="url(#paint0_linear_111_1549)"/>
<path d="M51.7595 47.8444L89.8666 20.7373C81.7476 32.1302 64.5668 56.0944 60.7954 60.8087C58.086 64.1954 54.4034 63.7299 51.6702 62.4709C49.7738 61.5973 48.232 60.0023 47.5702 58.022C45.9175 53.0767 49.4303 49.2863 51.7595 47.8444Z" fill="#2D2D2D"/>
<defs>
<linearGradient id="paint0_linear_111_1549" x1="9.42847" y1="76.7372" x2="86.3042" y2="39.2175" gradientUnits="userSpaceOnUse">
<stop stop-color="#49D49D"/>
<stop offset="1" stop-color="#844FCF"/>
</linearGradient>
</defs>
</svg>
