<svg width="6665" height="1081" viewBox="0 0 6665 1081" fill="none" xmlns="http://www.w3.org/2000/svg">
<path d="M2036.99 533.999C2158.38 505.639 2207.16 436.439 2207.16 346.82C2207.16 225.437 2114.14 146.027 1962.12 146.027H1616.12V940.121H1992.75C2137.96 940.121 2235.52 855.04 2235.52 716.641C2235.52 633.828 2186.74 555.553 2036.99 533.999ZM1763.6 277.62H1945.11C2010.9 277.62 2050.61 307.115 2050.61 370.643C2050.61 442.111 2016.58 477.278 1946.24 477.278H1763.6V277.62ZM1962.12 808.529H1763.6V600.93H1953.05C2032.46 600.93 2078.97 632.694 2078.97 698.49C2078.97 774.496 2040.4 808.529 1962.12 808.529Z" fill="#ECFEF7"/>
<path d="M2708.51 384.256V509.042C2673.34 421.691 2604.14 372.911 2508.85 372.911C2353.44 372.911 2262.68 488.622 2262.68 663.323C2262.68 835.755 2356.84 951.466 2515.66 951.466C2607.55 951.466 2674.48 903.82 2708.51 818.739V940.121H2852.58V384.256H2708.51ZM2558.77 821.007C2454.4 821.007 2407.89 772.227 2407.89 663.323C2407.89 552.15 2454.4 503.37 2558.77 503.37C2666.54 503.37 2713.05 552.15 2713.05 663.323C2713.05 772.227 2666.54 821.007 2558.77 821.007Z" fill="#ECFEF7"/>
<path d="M3285.88 372.911C3186.05 372.911 3129.33 423.96 3102.1 513.58V384.256H2958.03V940.121H3102.1V674.667C3102.1 560.091 3152.01 503.37 3232.56 503.37C3301.76 503.37 3340.33 540.806 3340.33 615.677V940.121H3484.4V607.736C3484.4 451.186 3417.47 372.911 3285.88 372.911Z" fill="#ECFEF7"/>
<path d="M3959.23 940.121H4131.66L3912.71 612.274L4124.85 384.256H3944.48L3806.08 556.687L3727.8 681.474V146.027H3583.73V940.121H3727.8V809.663L3823.09 707.565L3959.23 940.121Z" fill="#ECFEF7"/>
<path d="M4464.06 951.467C4648.97 951.467 4765.81 851.638 4765.81 700.76C4765.81 573.705 4686.4 510.178 4558.21 486.355L4433.43 462.532C4350.62 447.785 4313.18 431.903 4313.18 361.569C4313.18 291.235 4349.48 264.008 4444.77 264.008C4540.06 264.008 4604.73 288.966 4611.53 421.693L4754.47 381.988C4739.72 214.094 4620.61 134.685 4445.91 134.685C4274.61 134.685 4157.76 227.707 4157.76 368.375C4157.76 521.522 4258.73 577.108 4358.56 596.394L4493.55 622.485C4580.9 639.502 4611.53 653.115 4611.53 721.18C4611.53 794.917 4570.69 824.412 4467.46 824.412C4364.23 824.412 4304.1 792.648 4291.63 658.787L4138.48 699.626C4162.3 877.73 4289.36 951.467 4464.06 951.467Z" fill="#ECFEF7"/>
<path d="M5235.52 384.257V509.043C5200.35 421.693 5131.15 372.913 5035.86 372.913C4880.44 372.913 4789.69 488.624 4789.69 663.324C4789.69 835.756 4883.85 951.467 5042.66 951.467C5134.55 951.467 5201.48 903.821 5235.52 818.74V940.123H5379.59V384.257H5235.52ZM5085.77 821.009C4981.41 821.009 4934.89 772.229 4934.89 663.324C4934.89 552.151 4981.41 503.371 5085.77 503.371C5193.54 503.371 5240.05 552.151 5240.05 663.324C5240.05 772.229 5193.54 821.009 5085.77 821.009Z" fill="#ECFEF7"/>
<path d="M5835.57 511.312V384.257H5674.48V218.632H5530.41V384.257H5423.78V511.312H5530.41V767.691C5530.41 870.923 5599.61 940.123 5702.84 940.123H5821.96V813.068H5674.48V511.312H5835.57Z" fill="#ECFEF7"/>
<path d="M6221.45 372.913C6121.62 372.913 6064.9 423.962 6037.68 513.581V146.029H5893.6V940.123H6037.68V674.669C6037.68 560.092 6087.59 503.371 6168.13 503.371C6237.33 503.371 6275.9 540.807 6275.9 615.679V940.123H6419.97V607.738C6419.97 451.188 6353.04 372.913 6221.45 372.913Z" fill="#ECFEF7"/>
<path d="M6519.31 940.123H6663.38V384.257H6519.31V940.123Z" fill="#ECFEF7"/>
<path d="M6517.49 152.488H6664.09V291.705H6517.49V152.488Z" fill="#ECFEF7"/>
<path d="M1114.54 605.009C1114.54 652.32 1085.09 694.632 1040.73 711.069L696.231 838.642V1080.01L1119.33 923.189C1252.42 873.877 1340.75 746.941 1340.75 605.009L1340.75 255.533C1340.75 124.747 1210.83 33.7014 1087.89 78.3452L644.609 241.357V480.751L1114.54 309.336L1114.54 605.009Z" fill="#A882DD"/>
<path d="M226.315 475.012C226.315 427.702 255.761 385.39 300.124 368.952L644.624 241.379V0.0108967L221.53 156.832C88.44 206.144 0.10268 333.08 0.102717 475.012L0.102778 824.489C0.102784 955.275 130.03 1046.32 252.961 1001.68L696.246 838.664V599.27L226.315 770.685L226.315 475.012Z" fill="#49D49D"/>
</svg>
