<svg width="135" height="135" viewBox="0 0 135 135" fill="none" xmlns="http://www.w3.org/2000/svg">
<g id="Group 2610974">
<g id="Ellipse 817" opacity="0.5" filter="url(#filter0_f_12459_28729)">
<circle cx="67.5" cy="67.5" r="37.5" fill="url(#paint0_linear_12459_28729)"/>
</g>
<g id="Ellipse 818">
<circle cx="67.5" cy="51.5" r="37.5" fill="white"/>
<circle cx="67.5" cy="51.5" r="37" stroke="#8D9CA5" stroke-opacity="0.1"/>
</g>
<g id="Group 2609869">
<path id="Vector 1" d="M67.2515 42.7265V35.9766L55.6266 40.1015C50.394 42.1903 48.9551 47.2156 49.2517 49.4765V58.8514C49.2517 63.9514 53.5016 64.4764 55.6266 64.1014L68.7515 59.2264V52.4765L55.6266 57.3514V50.2265C55.6266 47.5265 57.1266 46.3515 57.8766 46.1015L67.2515 42.7265Z" fill="#49D49D"/>
<path id="Vector 2" d="M68.7485 59.2266V65.9766L80.3734 61.8516C85.606 59.7628 87.0449 54.7376 86.7483 52.4766V43.1017C86.7483 38.0017 82.4984 37.4767 80.3734 37.8517L67.2485 42.7267V49.4767L80.3734 44.6017V51.7266C80.3734 54.4266 78.8734 55.6016 78.1234 55.8516L68.7485 59.2266Z" fill="#A882DD"/>
</g>
</g>
<defs>
<filter id="filter0_f_12459_28729" x="0" y="0" width="135" height="135" filterUnits="userSpaceOnUse" color-interpolation-filters="sRGB">
<feFlood flood-opacity="0" result="BackgroundImageFix"/>
<feBlend mode="normal" in="SourceGraphic" in2="BackgroundImageFix" result="shape"/>
<feGaussianBlur stdDeviation="15" result="effect1_foregroundBlur_12459_28729"/>
</filter>
<linearGradient id="paint0_linear_12459_28729" x1="30" y1="53" x2="105" y2="87" gradientUnits="userSpaceOnUse">
<stop stop-color="#60FFC0"/>
<stop offset="1" stop-color="#B886FF"/>
</linearGradient>
</defs>
</svg>
