<svg width="20" height="21" viewBox="0 0 20 21" fill="none" xmlns="http://www.w3.org/2000/svg">
<g id="map-pin" clip-path="url(#clip0_5667_19648)">
<path id="Vector" d="M17.5 8.83398C17.5 14.6673 10 19.6673 10 19.6673C10 19.6673 2.5 14.6673 2.5 8.83398C2.5 6.84486 3.29018 4.93721 4.6967 3.53068C6.10322 2.12416 8.01088 1.33398 10 1.33398C11.9891 1.33398 13.8968 2.12416 15.3033 3.53068C16.7098 4.93721 17.5 6.84486 17.5 8.83398Z" stroke="#8D9CA5" stroke-width="1.5" stroke-linecap="round" stroke-linejoin="round"/>
<path id="Vector_2" d="M10 11.334C11.3807 11.334 12.5 10.2147 12.5 8.83398C12.5 7.45327 11.3807 6.33398 10 6.33398C8.61929 6.33398 7.5 7.45327 7.5 8.83398C7.5 10.2147 8.61929 11.334 10 11.334Z" stroke="#8D9CA5" stroke-width="1.5" stroke-linecap="round" stroke-linejoin="round"/>
</g>
<defs>
<clipPath id="clip0_5667_19648">
<rect width="20" height="20" fill="white" transform="translate(0 0.5)"/>
</clipPath>
</defs>
</svg>
