<svg width="112" height="72" viewBox="0 0 112 72" fill="none" xmlns="http://www.w3.org/2000/svg">
<path d="M43 14.551L51.9237 17.4042C51.6449 10.6993 54.4336 8.63077 58.8954 8.63077C63.915 8.63077 66.0065 10.7706 66.0065 15.407C66.0065 23.8951 53.9455 22.6825 53.9455 32.1692V34.3091H61.8932V28.8881C68.5861 27.2476 75 23.1818 75 14.6224C75 5.92028 68.2375 0 59.1046 0C51.2266 0 43.976 4.35105 43 14.551ZM57.9194 51C61.7538 51 63.8453 48.9315 63.8453 45.1511C63.8453 41.442 61.6841 39.3734 57.9194 39.3734C54.1547 39.3734 52.0632 41.442 52.0632 45.1511C52.1329 48.9315 54.2244 51 57.9194 51Z" fill="#49D49D"/>
<path d="M1.32059 49.2667L1.42919 49.6532L1.83006 49.6307L8.55908 49.2517L9.27529 49.2114L8.9896 48.5534C8.04173 46.3702 7.94396 44.8712 8.34109 43.8158C8.7335 42.7729 9.66075 42.0294 11.0933 41.4764C12.7218 40.8477 13.9038 40.796 14.7931 41.1781C15.6789 41.5587 16.4024 42.4253 16.9855 43.9354C17.9647 46.472 16.6879 48.2386 15.178 50.3277C15.1504 50.3659 15.1228 50.4042 15.095 50.4426C14.3424 51.4847 13.548 52.6115 13.1158 53.9022C12.6755 55.2172 12.615 56.6849 13.278 58.4023L13.8371 59.8506L14.0172 60.317L14.4837 60.1369L19.8127 58.0796L20.2792 57.8996L20.0991 57.4331L18.8223 54.1258C20.7684 52.7083 22.5281 50.9104 23.5591 48.7413C24.6543 46.4372 24.9122 43.7433 23.7436 40.7163C21.3558 34.5309 14.9599 32.1998 8.61834 34.648C5.89382 35.6998 3.53957 37.4814 2.13076 39.9568C0.71682 42.4413 0.283552 45.5758 1.32059 49.2667ZM15.4078 67.6757L15.4077 67.6758L15.4112 67.6842C15.9612 69.0349 16.7808 70.0048 17.8568 70.485C18.9351 70.9662 20.1834 70.9167 21.5093 70.4048C22.8768 69.8769 23.8603 69.068 24.3432 67.9826C24.8262 66.8968 24.7667 65.6278 24.2408 64.2657C23.7218 62.9213 22.9029 61.9604 21.8138 61.4915C20.7267 61.0235 19.4574 61.0833 18.1113 61.603C16.765 62.1227 15.7946 62.9278 15.316 64.0033C14.8372 65.0791 14.8904 66.3355 15.4078 67.6757Z" stroke="#212529"/>
<path d="M90.3873 42.5493L90.2472 42.9256L90.5844 43.1436L95.4263 46.2743L96.0287 46.6638L96.1857 45.9639C96.6296 43.9846 97.3115 42.9212 98.0952 42.407C98.8677 41.9001 99.8591 41.8496 101.119 42.1871C102.553 42.5714 103.375 43.1242 103.783 43.8133C104.189 44.499 104.256 45.44 103.9 46.7689C103.308 48.9776 101.571 49.5433 99.4634 50.2298C99.4291 50.2409 99.3947 50.2521 99.3602 50.2634C98.3156 50.6038 97.1882 50.985 96.2285 51.6664C95.2479 52.3627 94.456 53.3607 94.0438 54.8988L93.7001 56.1817L93.5707 56.6647L94.0536 56.7941L98.7742 58.0589L99.2572 58.1884L99.3866 57.7054L100.157 54.8292C102.207 54.8243 104.321 54.4652 106.125 53.4871C108.061 52.4375 109.61 50.6895 110.334 47.9887C111.814 42.4654 108.538 37.594 102.888 36.0801C100.462 35.4301 97.9192 35.4735 95.6791 36.4824C93.4296 37.4956 91.5373 39.4595 90.3873 42.5493ZM90.8404 62.3821L90.8403 62.3821L90.8381 62.391C90.5342 63.614 90.6102 64.718 91.1238 65.6132C91.6385 66.5105 92.5451 67.1149 93.7326 67.4331C94.9563 67.761 96.0649 67.6997 96.9673 67.1806C97.8701 66.6613 98.4777 65.735 98.8043 64.5161C99.127 63.3119 99.0467 62.2137 98.5179 61.3195C97.9902 60.4272 97.0642 59.8197 95.8592 59.4968C94.654 59.1739 93.5565 59.2394 92.6622 59.7536C91.7676 60.268 91.1619 61.1822 90.8404 62.3821Z" stroke="#A882DD"/>
</svg>
