<svg width="297" height="268" viewBox="0 0 297 268" fill="none" xmlns="http://www.w3.org/2000/svg">
<path d="M53.5 27L57.1462 36.8538L67 40.5L57.1462 44.1462L53.5 54L49.8538 44.1462L40 40.5L49.8538 36.8538L53.5 27Z" fill="white"/>
<path d="M220 239L222.701 246.299L230 249L222.701 251.701L220 259L217.299 251.701L210 249L217.299 246.299L220 239Z" fill="white"/>
<circle opacity="0.2" cx="152" cy="134" r="133.5" stroke="white"/>
<path d="M226.731 16.7105L9.59851 110.029L54.0417 237.165C55.0001 239.313 59.4066 243.69 65.349 242.123L288.52 202.772L292.856 184.629L226.731 16.7105Z" fill="url(#paint0_linear_7683_19238)"/>
<path d="M43.1306 76.5007C42.747 74.3251 44.1996 72.2505 46.3752 71.8668L263.186 33.6373C265.361 33.2537 267.436 34.7063 267.82 36.8819L295.17 191.995C295.918 196.237 293.867 200.483 290.078 202.533L65.3892 242.152C69.1711 239.733 71.127 235.277 70.3474 230.855L43.1306 76.5007Z" fill="url(#paint1_linear_7683_19238)"/>
<path d="M125.091 87.6973L127.617 75.4122L133.368 74.3981L133.507 75.1859C133.073 75.2623 132.727 75.3708 132.467 75.5113C132.219 75.6364 132.042 75.8233 131.937 76.072C131.832 76.3207 131.788 76.6466 131.805 77.0498C131.832 77.4375 131.898 77.9269 132.002 78.5177L133.35 86.1599C133.466 86.8164 133.583 87.3304 133.703 87.702C133.823 88.0735 133.98 88.3504 134.175 88.5327C134.369 88.715 134.617 88.8135 134.917 88.8283C135.231 88.8407 135.632 88.8106 136.12 88.7381L136.259 89.5259L128.853 90.8317L128.714 90.0439C129.197 89.9451 129.578 89.8374 129.855 89.7208C130.143 89.5888 130.349 89.4104 130.472 89.1856C130.608 88.9586 130.671 88.6631 130.661 88.2994C130.648 87.9224 130.588 87.4254 130.479 86.8083L128.854 77.5904L128.755 77.6078L125.756 91.5809L124.298 91.8379L116.524 79.7645L116.445 79.7784L118.046 88.8583C118.162 89.5149 118.28 90.0289 118.399 90.4004C118.519 90.772 118.676 91.0489 118.871 91.2312C119.065 91.4135 119.313 91.512 119.613 91.5267C119.927 91.5391 120.328 91.5091 120.816 91.4365L120.955 92.2244L114.888 93.2941L114.749 92.5062C115.233 92.4074 115.62 92.2986 115.91 92.1797C116.198 92.0476 116.404 91.8692 116.527 91.6445C116.663 91.4174 116.726 91.122 116.716 90.7582C116.703 90.3813 116.643 89.8843 116.534 89.2671L115.138 81.3493C115.041 80.7978 114.933 80.3428 114.816 79.9844C114.699 79.626 114.549 79.3545 114.368 79.1699C114.184 78.9721 113.947 78.8582 113.658 78.828C113.379 78.7824 113.016 78.7989 112.57 78.8777L112.431 78.0898L118.399 77.0375L125.013 87.7112L125.091 87.6973Z" fill="#8B57D5"/>
<path d="M143.968 79.5151C144.808 79.3669 145.48 79.2214 145.983 79.0786C146.486 78.9358 146.861 78.7613 147.109 78.5551C147.368 78.3334 147.529 78.0546 147.591 77.7187C147.654 77.3827 147.67 76.9397 147.641 76.3898L148.37 76.2613L149.387 82.0323L148.659 82.1608C148.487 81.6494 148.308 81.2478 148.121 80.9558C147.934 80.6638 147.683 80.4645 147.366 80.3578C147.047 80.2381 146.635 80.2025 146.129 80.2511C145.634 80.2842 144.972 80.3737 144.145 80.5196L144.861 84.577C144.935 84.9972 145.05 85.3425 145.206 85.6128C145.375 85.8809 145.607 86.0836 145.902 86.2212C146.195 86.3456 146.565 86.4089 147.012 86.4113C147.457 86.4006 147.994 86.3396 148.625 86.2285C149.373 86.0965 149.994 85.9329 150.488 85.7375C150.994 85.5399 151.395 85.2796 151.69 84.9568C151.985 84.634 152.2 84.2374 152.333 83.767C152.465 83.2836 152.544 82.6942 152.57 81.9991L153.358 81.8602L153.838 86.4262L140.484 88.7808L140.345 87.993C140.776 87.9035 141.124 87.8016 141.388 87.6873C141.652 87.573 141.843 87.4243 141.959 87.2413C142.076 87.0583 142.135 86.8177 142.137 86.5195C142.138 86.2214 142.098 85.8425 142.017 85.383L140.413 76.2833C140.332 75.8238 140.241 75.4607 140.14 75.1943C140.049 74.9123 139.925 74.7041 139.765 74.5697C139.604 74.4222 139.394 74.3441 139.135 74.3356C138.887 74.3116 138.564 74.3212 138.165 74.3644L138.027 73.5766L150.475 71.3817L151.293 75.2178L150.446 75.3672C150.27 74.8296 150.066 74.3985 149.832 74.0741C149.597 73.7365 149.309 73.4893 148.97 73.3325C148.629 73.1625 148.209 73.081 147.709 73.0879C147.22 73.0793 146.627 73.1364 145.932 73.2591L143.706 73.6515C143.364 73.7117 143.162 73.7947 143.1 73.9005C143.035 73.9932 143.03 74.1971 143.086 74.5123L143.968 79.5151Z" fill="#8B57D5"/>
<path d="M158.48 85.6077L158.341 84.8198C158.772 84.7303 159.114 84.6361 159.368 84.5373C159.632 84.423 159.822 84.2744 159.939 84.0913C160.066 83.8928 160.132 83.6511 160.136 83.3661C160.137 83.068 160.097 82.6825 160.013 82.2098L158.409 73.1102C158.328 72.6506 158.243 72.2864 158.155 72.0176C158.065 71.7357 157.94 71.5275 157.781 71.3931C157.62 71.2456 157.416 71.1664 157.17 71.1555C156.936 71.1292 156.632 71.1354 156.26 71.1739L156.121 70.3861L163.605 69.0664C164.866 68.8441 166.063 68.8361 167.196 69.0425C168.329 69.2489 169.344 69.6318 170.242 70.1911C171.139 70.7504 171.889 71.4712 172.491 72.3533C173.094 73.2354 173.494 74.2411 173.693 75.3704C173.883 76.4471 173.854 77.4744 173.607 78.4522C173.358 79.4168 172.922 80.2857 172.3 81.0588C171.691 81.8295 170.907 82.489 169.948 83.0373C168.999 83.5701 167.914 83.9441 166.693 84.1595L158.48 85.6077ZM161.316 70.7089C161.093 70.7482 161.001 70.8795 161.04 71.1028L162.836 81.2857C162.97 82.0473 163.306 82.5702 163.843 82.8545C164.381 83.1388 165.142 83.1942 166.127 83.0205C167.847 82.7172 169.075 81.9659 169.811 80.7665C170.561 79.5647 170.761 77.9725 170.411 75.9898C170.226 74.9393 169.936 74.0224 169.54 73.2392C169.145 72.4559 168.661 71.8237 168.089 71.3424C167.514 70.848 166.859 70.51 166.123 70.3284C165.4 70.1445 164.618 70.1266 163.778 70.2748L161.316 70.7089Z" fill="#8B57D5"/>
<path d="M186.354 80.6927L179.323 81.9325L179.184 81.1447C179.628 81.0528 179.976 80.9509 180.227 80.8389C180.489 80.7115 180.674 80.5366 180.784 80.3142C180.894 80.0918 180.944 79.7987 180.934 79.4349C180.921 79.0579 180.861 78.5609 180.752 77.9438L179.356 70.0259C179.259 69.4744 179.152 69.026 179.037 68.6808C178.933 68.32 178.797 68.0462 178.629 67.8593C178.46 67.6723 178.244 67.5615 177.981 67.5267C177.728 67.4764 177.396 67.4741 176.985 67.5196L176.846 66.7317L183.483 65.5613L183.622 66.3492C183.22 66.4472 182.902 66.5642 182.669 66.7001C182.446 66.8206 182.288 66.9974 182.194 67.2307C182.099 67.4639 182.058 67.769 182.071 68.1459C182.094 68.5074 182.154 68.9639 182.251 69.5154L183.647 77.4332C183.756 78.0504 183.863 78.5393 183.967 78.9C184.082 79.2453 184.229 79.5037 184.408 79.6752C184.6 79.8443 184.835 79.9452 185.111 79.9777C185.399 79.9947 185.767 79.9704 186.216 79.9048L186.354 80.6927Z" fill="#8B57D5"/>
<path d="M199.071 73.7185L193.497 74.7014C193.125 76.2021 192.987 77.2216 193.082 77.7599C193.151 78.1539 193.339 78.3779 193.647 78.432C193.967 78.4838 194.423 78.4576 195.014 78.3534L195.153 79.1412L189.756 80.0928L189.617 79.305C189.925 79.21 190.185 79.1101 190.397 79.005C190.622 78.8977 190.809 78.7699 190.959 78.6216C191.122 78.471 191.253 78.2922 191.352 78.0853C191.448 77.8651 191.531 77.6068 191.601 77.3102L194.492 63.4171L195.95 63.1601L202.686 73.8326C203.079 74.4536 203.402 74.9383 203.653 75.2867C203.917 75.6328 204.172 75.8923 204.42 76.0654C204.678 76.223 204.951 76.3169 205.241 76.347C205.544 76.3749 205.922 76.3691 206.375 76.3298L206.518 77.1373L199.072 78.4501L198.93 77.6426C199.556 77.5052 199.997 77.3597 200.254 77.206C200.512 77.0523 200.612 76.8179 200.557 76.5028C200.524 76.319 200.437 76.0907 200.294 75.818C200.151 75.5454 199.964 75.2128 199.732 74.8204L199.071 73.7185ZM193.741 73.4397L198.429 72.6132L195.112 67.0446L195.033 67.0585L193.741 73.4397Z" fill="#8B57D5"/>
<path fill-rule="evenodd" clip-rule="evenodd" d="M150.671 86.2028C150.67 86.203 150.67 86.2032 150.669 86.2033L150.488 85.7375L150.672 86.2024C150.671 86.2026 150.671 86.2027 150.671 86.2028ZM158.631 71.8639C158.631 71.8643 158.631 71.8647 158.631 71.8651L158.155 72.0176L158.63 71.862C158.63 71.8627 158.631 71.8633 158.631 71.8639ZM178.04 67.0289C178.047 67.0303 178.055 67.0317 178.063 67.0332C178.43 67.0852 178.751 67.2482 179 67.5247C179.236 67.7864 179.399 68.1356 179.515 68.5321C179.639 68.908 179.75 69.3795 179.848 69.9391L181.244 77.8569C181.355 78.4843 181.42 79.0076 181.433 79.4185L181.433 79.4211C181.445 79.831 181.391 80.2138 181.232 80.5354C181.094 80.817 180.879 81.0356 180.613 81.1973L184.876 80.4456C184.578 80.3833 184.308 80.2533 184.078 80.0506L184.07 80.0436L184.062 80.0364C183.803 79.7885 183.622 79.4471 183.493 79.0581L183.489 79.0485L183.487 79.0388C183.375 78.6535 183.265 78.1448 183.155 77.5201L181.759 69.6022C181.66 69.0412 181.596 68.5648 181.572 68.1778L181.571 68.17L181.571 68.1622C181.557 67.7472 181.6 67.3652 181.73 67.0433C181.867 66.7041 182.103 66.4398 182.424 66.2643C182.431 66.2602 182.438 66.2562 182.445 66.2522L178.04 67.0289ZM160.67 70.5501C160.819 70.3375 161.042 70.2495 161.229 70.2165L163.691 69.7824C164.591 69.6238 165.444 69.6401 166.244 69.8434C167.055 70.0436 167.78 70.4173 168.413 70.9614C169.044 71.4928 169.566 72.1815 169.987 73.0139C170.408 73.849 170.711 74.8143 170.903 75.9029C171.265 77.9555 171.073 79.6865 170.237 81.0295C169.408 82.3785 168.037 83.1914 166.214 83.5129C165.184 83.6944 164.291 83.6569 163.61 83.2965C162.9 82.921 162.496 82.2408 162.343 81.3725L160.548 71.1896C160.515 71.0021 160.521 70.7627 160.67 70.5501ZM161.56 71.1735L163.865 70.7672C164.645 70.6295 165.354 70.6488 166 70.813L166.003 70.8138C166.663 70.9766 167.248 71.2782 167.763 71.7214L167.767 71.7251C168.279 72.156 168.724 72.7313 169.094 73.4645C169.463 74.1959 169.74 75.0643 169.919 76.0766C170.256 77.9887 170.048 79.4417 169.387 80.5019L169.385 80.5049C168.741 81.5538 167.656 82.2432 166.04 82.5281C165.1 82.6939 164.471 82.6207 164.077 82.4125C163.712 82.2194 163.443 81.8537 163.328 81.1989L161.56 71.1735ZM195.288 68.3178L194.377 72.82L197.629 72.2466L195.288 68.3178Z" fill="#8B57D5"/>
<path opacity="0.2" d="M65.0859 113.754L256.631 79.9793" stroke="#844FCF"/>
<path opacity="0.2" d="M140.656 116.168L196.79 106.27" stroke="#844FCF" stroke-width="3"/>
<path opacity="0.2" d="M142.047 124.047L198.181 114.149" stroke="#844FCF" stroke-width="3"/>
<path opacity="0.2" d="M143.438 131.926L199.572 122.028" stroke="#844FCF" stroke-width="3"/>
<path opacity="0.2" d="M144.82 139.803L200.954 129.905" stroke="#844FCF" stroke-width="3"/>
<path opacity="0.2" d="M146.211 147.682L202.345 137.784" stroke="#844FCF" stroke-width="3"/>
<path opacity="0.2" d="M147.602 155.561L203.736 145.663" stroke="#844FCF" stroke-width="3"/>
<path opacity="0.2" d="M148.992 163.439L205.126 153.542" stroke="#844FCF" stroke-width="3"/>
<path opacity="0.2" d="M150.383 171.318L206.517 161.42" stroke="#844FCF" stroke-width="3"/>
<path opacity="0.2" d="M151.766 179.195L207.9 169.297" stroke="#844FCF" stroke-width="3"/>
<path opacity="0.2" d="M153.156 187.074L209.29 177.176" stroke="#844FCF" stroke-width="3"/>
<path opacity="0.2" d="M154.547 194.953L210.681 185.055" stroke="#844FCF" stroke-width="3"/>
<path opacity="0.2" d="M155.938 202.83L212.072 192.932" stroke="#844FCF" stroke-width="3"/>
<path opacity="0.2" d="M157.328 210.709L213.462 200.811" stroke="#844FCF" stroke-width="3"/>
<path opacity="0.2" d="M203.68 105.055L259.814 95.1567" stroke="#844FCF" stroke-width="3"/>
<path opacity="0.2" d="M205.07 112.934L261.204 103.036" stroke="#844FCF" stroke-width="3"/>
<path opacity="0.2" d="M206.461 120.811L262.595 110.913" stroke="#844FCF" stroke-width="3"/>
<path opacity="0.2" d="M207.852 128.689L263.986 118.792" stroke="#844FCF" stroke-width="3"/>
<path opacity="0.2" d="M209.242 136.568L265.376 126.67" stroke="#844FCF" stroke-width="3"/>
<path opacity="0.2" d="M210.633 144.447L266.767 134.549" stroke="#844FCF" stroke-width="3"/>
<path opacity="0.2" d="M212.016 152.324L268.15 142.426" stroke="#844FCF" stroke-width="3"/>
<path opacity="0.2" d="M213.406 160.203L269.54 150.305" stroke="#844FCF" stroke-width="3"/>
<path opacity="0.2" d="M214.797 168.084L270.931 158.186" stroke="#844FCF" stroke-width="3"/>
<path opacity="0.2" d="M216.188 175.961L272.322 166.063" stroke="#844FCF" stroke-width="3"/>
<path opacity="0.2" d="M217.578 183.84L273.712 173.942" stroke="#844FCF" stroke-width="3"/>
<path opacity="0.2" d="M218.961 191.719L275.095 181.821" stroke="#844FCF" stroke-width="3"/>
<path opacity="0.2" d="M220.352 199.598L276.486 189.7" stroke="#844FCF" stroke-width="3"/>
<rect opacity="0.3" x="68.5938" y="127.859" width="63" height="97" transform="rotate(-10 68.5938 127.859)" fill="#844FCF"/>
<defs>
<linearGradient id="paint0_linear_7683_19238" x1="16.0162" y1="73.0103" x2="178.554" y2="244.2" gradientUnits="userSpaceOnUse">
<stop stop-color="#8F56E0"/>
<stop offset="1" stop-color="#A170E7"/>
</linearGradient>
<linearGradient id="paint1_linear_7683_19238" x1="47.9978" y1="78.6617" x2="290.721" y2="200.709" gradientUnits="userSpaceOnUse">
<stop stop-color="#C095FF"/>
<stop offset="1" stop-color="#915CDB"/>
</linearGradient>
</defs>
</svg>
