<svg width="24" height="32" viewBox="0 0 24 32" fill="none" xmlns="http://www.w3.org/2000/svg">
<g id="Group 48095798">
<circle id="Ellipse 1246" cx="4.32553" cy="11.3529" r="3.15365" fill="#7BE0B8" stroke="#212529" stroke-linecap="round" stroke-linejoin="round"/>
<circle id="Ellipse 1252" cx="19.4271" cy="11.3529" r="3.15365" fill="#7BE0B8" stroke="#212529" stroke-linecap="round" stroke-linejoin="round"/>
<path id="Ellipse 1251" d="M0.5 30.9998C0.5 31.276 0.723858 31.4998 1 31.4998H22.9767C23.2529 31.4998 23.4767 31.276 23.4767 30.9998C23.4767 27.811 22.1748 25.4475 20.0533 23.8976C17.9522 22.3626 15.0897 21.6543 11.9884 21.6543C8.88703 21.6543 6.0245 22.3626 3.92346 23.8976C1.80198 25.4475 0.5 27.811 0.5 30.9998Z" fill="#7BE0B8" stroke="#212529" stroke-linecap="round" stroke-linejoin="round"/>
<rect id="Rectangle 9834" x="7.82812" y="7.90039" width="8.25083" height="20.9585" rx="4.12542" fill="#7BE0B8" stroke="#212529" stroke-linecap="round" stroke-linejoin="round"/>
<path id="Rectangle 9833" d="M11.9482 0.5C6.60169 0.5 2.43758 5.13944 3.01325 10.4548L3.46092 14.5883C3.93027 18.922 7.58916 22.206 11.9482 22.206C16.3072 22.206 19.9661 18.922 20.4354 14.5883L20.8831 10.4548C21.4588 5.13944 17.2946 0.5 11.9482 0.5Z" fill="#7BE0B8" stroke="#212529" stroke-linecap="round" stroke-linejoin="round"/>
<path id="Vector 3560" d="M3.5032 14.5C3.00195 13.5 3.65599 5.49673 7.98224 4.88672C8.50299 6.01043 10.578 9.17759 14.712 8.85653C13.8974 8.58898 12.1963 6.69269 11.9079 5.24791C13.0562 6.11745 16.3421 7.5 19.002 7.5C19.3758 8.26252 20.4705 10.872 20.5025 14.5" stroke="#212529" stroke-linecap="round" stroke-linejoin="round"/>
</g>
</svg>
