<svg width="1341" height="1081" viewBox="0 0 1341 1081" fill="none" xmlns="http://www.w3.org/2000/svg">
<path d="M1114.54 605.009C1114.54 652.32 1085.09 694.632 1040.73 711.069L696.231 838.642V1080.01L1119.33 923.189C1252.42 873.877 1340.75 746.941 1340.75 605.009L1340.75 255.533C1340.75 124.747 1210.83 33.7014 1087.89 78.3452L644.609 241.357V480.751L1114.54 309.336L1114.54 605.009Z" fill="#A882DD"/>
<path d="M226.315 475.012C226.315 427.701 255.761 385.389 300.124 368.952L644.624 241.379V0.0106526L221.53 156.832C88.44 206.144 0.10268 333.08 0.102717 475.012L0.102778 824.489C0.102784 955.274 130.03 1046.32 252.961 1001.68L696.246 838.664V599.27L226.315 770.685L226.315 475.012Z" fill="#49D49D"/>
</svg>
