<svg width="60" height="60" viewBox="0 0 60 60" fill="none" xmlns="http://www.w3.org/2000/svg">
<circle cx="30" cy="30" r="30" fill="#7BE0B8"/>
<path d="M41.2339 38.0853V25.3835C41.2339 24.7533 40.9368 24.1599 40.4322 23.7823L31.4988 17.097C30.7884 16.5653 29.8126 16.5653 29.1022 17.097L20.1689 23.7823C19.6643 24.1599 19.3672 24.7533 19.3672 25.3835V38.0853C19.3672 39.2902 20.3223 40.2671 21.5005 40.2671H39.1005C40.2787 40.2671 41.2339 39.2902 41.2339 38.0853Z" fill="#49D49D" stroke="#212529" stroke-linecap="round" stroke-linejoin="round"/>
<path d="M30.3031 43.7996C33.9482 43.7996 36.9031 40.8447 36.9031 37.1996C36.9031 33.5545 33.9482 30.5996 30.3031 30.5996C26.658 30.5996 23.7031 33.5545 23.7031 37.1996C23.7031 40.8447 26.658 43.7996 30.3031 43.7996Z" fill="#49D49D" stroke="#212529" stroke-linecap="round" stroke-linejoin="round"/>
<path d="M27.8984 36.4289H31.1098C31.0636 36.7231 30.9689 36.9278 30.8364 37.0567L30.8364 37.0567L30.835 37.0581C30.6917 37.203 30.4456 37.3097 30.0776 37.3641L30.0773 37.3641C29.7145 37.4187 29.1483 37.4467 28.3749 37.4467H28.2749V37.5467V38.8853C28.2749 39.5052 28.446 40.0038 28.7995 40.3679L28.7995 40.3679L28.8001 40.3685C29.1558 40.7283 29.6718 40.9002 30.3304 40.9002C30.962 40.9002 31.4631 40.741 31.8183 40.4084L31.8183 40.4084L31.819 40.4077C32.1751 40.0676 32.3493 39.5765 32.3562 38.9514L32.3573 38.8503H32.2562H31.6109H31.5109V38.9503C31.5109 39.3622 31.4091 39.6629 31.2198 39.8678C31.033 40.0701 30.7463 40.1796 30.3403 40.1796C29.9206 40.1796 29.6238 40.0683 29.4305 39.8626C29.2361 39.6557 29.1301 39.3361 29.1301 38.8853V38.1111C29.7557 38.1063 30.261 38.0566 30.6429 37.9597L30.6429 37.9597L30.6443 37.9593C31.0483 37.8503 31.3603 37.6711 31.5692 37.4148C31.7697 37.1707 31.8965 36.8394 31.9566 36.4289H33.2984H33.3984V36.3289V35.8455V35.7455H33.2984H32.0087V35.6596V34.7929H33.2984H33.3984V34.6929V34.2002V34.1002H33.2984H27.8984H27.7984V34.2002V34.6929V34.7929H27.8984H31.1536V35.6503V35.7455H27.8984H27.7984V35.8455V36.3289V36.4289H27.8984Z" fill="#212529" stroke="#212529" stroke-width="0.2"/>
<path d="M17.3984 24.3006H42.5984" stroke="#212529" stroke-linecap="round"/>
</svg>
