<svg width="32" height="37" viewBox="0 0 32 37" fill="none" xmlns="http://www.w3.org/2000/svg">
<circle cx="15.7097" cy="7.74193" r="7.24193" stroke="white"/>
<path d="M22.4259 13.1611H10.0389C7.87074 13.1611 6.8132 14.7095 6.55544 15.4837L5.39415 19.3547L5.21369 19.084C4.84276 18.5276 4.2183 18.1934 3.54959 18.1934H1.52319C1.21351 20.0515 2.94254 20.774 3.84577 20.9031C3.20045 21.4192 1.75498 23.3031 1.13562 26.7095C0.51627 30.116 2.16788 32.2579 3.07111 32.9031V33.9998C3.07111 35.1044 3.96654 35.9998 5.07111 35.9998H6.87756C7.98213 35.9998 8.87756 35.1044 8.87756 33.9998V33.2902H23.5872V33.9998C23.5872 35.1044 24.4827 35.9998 25.5872 35.9998H27.3937C28.4983 35.9998 29.3937 35.1044 29.3937 33.9998V32.9031C30.0389 32.774 31.3292 31.5095 31.3292 27.4837C31.3292 23.4579 29.2647 21.4192 28.2324 20.9031C31.0195 20.9031 31.2001 19.0966 30.9421 18.1934H28.6737C28.1433 18.1934 27.6346 18.4041 27.2595 18.7792L27.0711 18.9676C26.9421 18.4515 26.5292 17.0321 25.9098 15.4837C25.2905 13.9353 23.3292 13.2902 22.4259 13.1611Z" fill="#9C68E7" stroke="white"/>
<path d="M6.16846 33.2905H26.2975" stroke="white"/>
<path d="M6.94263 20.5161H25.9104" stroke="white"/>
<path d="M10.0393 28.2578C8.54327 25.5151 5.94314 25.0978 4.17847 25.3087C3.50546 25.3891 3.07153 26.0053 3.07153 26.6831C3.07153 27.5528 3.77655 28.2578 4.64623 28.2578H10.0393Z" stroke="white"/>
<path d="M22.4263 28.2578C23.9223 25.5151 26.5224 25.0978 28.2871 25.3087C28.9601 25.3891 29.394 26.0053 29.394 26.6831C29.394 27.5528 28.689 28.2578 27.8193 28.2578H22.4263Z" stroke="white"/>
<path d="M18.4195 4.64502L13.3872 10.8386" stroke="white"/>
<circle cx="14.1614" cy="5.80642" r="0.774194" fill="white"/>
<circle cx="18.0322" cy="9.67751" r="0.774194" fill="white"/>
</svg>
