<svg width="36" height="26" viewBox="0 0 36 26" fill="none" xmlns="http://www.w3.org/2000/svg">
<g id="Group 48095774">
<rect id="Rectangle 9802" x="0.5" y="0.5" width="35" height="24.8776" rx="1.5" stroke="#212529"/>
<rect id="Rectangle 9803" x="6.13281" y="0.5" width="23.7347" height="24.8776" fill="#7BE0B8" stroke="#212529"/>
<path id="Polygon 24" d="M20.9141 11.8681C21.5807 12.253 21.5807 13.2153 20.9141 13.6002L16.1998 16.322C15.5331 16.7069 14.6998 16.2258 14.6998 15.456L14.6998 10.0124C14.6998 9.24257 15.5331 8.76145 16.1998 9.14635L20.9141 11.8681Z" stroke="#212529"/>
<path id="Vector 3526" d="M0.859375 5.17529H6.03489" stroke="#212529"/>
<path id="Vector 3531" d="M30.1875 5.17529H35.2487" stroke="#212529"/>
<path id="Vector 3527" d="M0.859375 10.3511H6.03489" stroke="#212529"/>
<path id="Vector 3532" d="M30.1875 10.3511H35.2487" stroke="#212529"/>
<path id="Vector 3528" d="M0.859375 15.5264H6.03489" stroke="#212529"/>
<path id="Vector 3533" d="M30.1875 15.5264H35.2487" stroke="#212529"/>
<path id="Vector 3529" d="M0.859375 20.7021H6.03489" stroke="#212529"/>
<path id="Vector 3534" d="M30.1875 20.7021H35.2487" stroke="#212529"/>
</g>
</svg>
