<svg width="32" height="32" viewBox="0 0 32 32" fill="none" xmlns="http://www.w3.org/2000/svg">
<g id="Group 1000001773">
<circle id="Ellipse 1270" cx="15.6667" cy="16.3332" r="15.1667" fill="#7BE0B8" stroke="#212529"/>
<path id="Ellipse 1271" d="M15.6693 31.4998C18.4768 31.4998 20.9471 29.7125 22.6908 26.9725C24.4382 24.2266 25.5026 20.4637 25.5026 16.3332C25.5026 12.2027 24.4382 8.43975 22.6908 5.69383C20.9471 2.95384 18.4768 1.1665 15.6693 1.1665C12.8617 1.1665 10.3914 2.95384 8.64778 5.69383C6.90037 8.43975 5.83594 12.2027 5.83594 16.3332C5.83594 20.4637 6.90037 24.2266 8.64778 26.9725C10.3914 29.7125 12.8617 31.4998 15.6693 31.4998Z" fill="#7BE0B8" stroke="#212529"/>
<path id="Vector 3571" d="M15.6641 1V31" stroke="black" stroke-linejoin="round"/>
<path id="Vector 3572" d="M3 8.3335H28.3333" stroke="black" stroke-linecap="round" stroke-linejoin="round"/>
<path id="Vector 3573" d="M3 23.6665H28.3333" stroke="black" stroke-linecap="round" stroke-linejoin="round"/>
<path id="Ellipse 1274" d="M15.6667 23.4998C19.6247 23.4998 22.8333 20.2912 22.8333 16.3332C22.8333 12.3751 19.6247 9.1665 15.6667 9.1665C11.7086 9.1665 8.5 12.3751 8.5 16.3332C8.5 20.2912 11.7086 23.4998 15.6667 23.4998Z" fill="#7BE0B8" stroke="#212529"/>
<g id="Group 1000001771">
<path id="Vector" d="M18.3295 19.6664V18.8583C18.3295 18.4297 18.1859 18.0186 17.9301 17.7156C17.6744 17.4125 17.3276 17.2422 16.9659 17.2422H14.2386C13.877 17.2422 13.5301 17.4125 13.2744 17.7156C13.0187 18.0186 12.875 18.4297 12.875 18.8583V19.6664" stroke="black" stroke-linecap="round" stroke-linejoin="round"/>
<path id="Vector_2" d="M15.6011 16.0303C16.4379 16.0303 17.1162 15.3519 17.1162 14.5152C17.1162 13.6784 16.4379 13 15.6011 13C14.7643 13 14.0859 13.6784 14.0859 14.5152C14.0859 15.3519 14.7643 16.0303 15.6011 16.0303Z" stroke="black" stroke-linecap="round" stroke-linejoin="round"/>
</g>
</g>
</svg>
