<svg width="438" height="282" viewBox="0 0 438 282" fill="none" xmlns="http://www.w3.org/2000/svg">
<path d="M75 94.8662C71.2205 92.2423 66.9493 90.6129 62.514 90.1028C60.4708 89.8704 58.2443 89.9382 56.6115 91.313C56.4221 91.4318 56.2653 91.6053 56.1577 91.8149C56.0501 92.0246 55.9957 92.2627 56.0003 92.5038C56.0954 92.8469 56.3004 93.1396 56.5765 93.3268C59.2289 95.4218 62.3475 96.6727 65.5948 96.944C68.8421 97.2153 72.0945 96.4968 75 94.8662Z" fill="#49D49D"/>
<path d="M75 94C72.1742 91.9384 69.5383 89.6328 67.1232 87.1102C64.691 84.5724 62.9822 81.4403 62.1714 78.0339C62.011 77.5306 61.9624 76.9989 62.0288 76.4752C62.0953 75.9516 62.2752 75.4483 62.5562 75C68.8337 79.8475 73.777 86.178 75 94Z" fill="#49D49D"/>
<path d="M75.3647 94.2813C74.8381 90.9609 74.8821 87.564 75.4945 84.2609C76.1239 80.9357 77.8852 77.9874 80.4296 76C81.3998 78.4783 80.9796 81.287 80.2997 83.8561C79.2352 87.8325 77.5815 91.596 75.4029 95" fill="#49D49D"/>
<path d="M81 106C77.3561 106.435 74.1864 108.329 71.4659 110.765C68.726 113.218 66.8178 116.442 66 120C69.5774 119.779 72.6556 117.293 74.8103 114.505C76.9651 111.716 78.5374 108.665 80.9501 106.057" fill="#49D49D"/>
<path d="M82.7943 107C81.221 103.235 80.6697 99.1599 81.1904 95.1435C81.7111 91.1272 83.2873 87.2968 85.7761 84C88.0466 91.6323 87.2168 100.253 82.7943 107Z" fill="#49D49D"/>
<path d="M90.9233 117.034C87.5093 116.824 84.1076 117.6 81.1429 119.263C78.1783 120.927 75.782 123.405 74.2534 126.389C74.0488 126.788 73.8613 127.303 74.1426 127.66C74.287 127.796 74.4633 127.897 74.6564 127.952C74.8495 128.007 75.0534 128.015 75.2505 127.976C78.5316 127.768 81.4463 125.84 83.8497 123.647C86.253 121.454 88.341 118.92 91 117" fill="#49D49D"/>
<path d="M90.4861 117C88.6258 111.389 88.5096 105.396 90.1513 99.7245C90.8028 97.5004 91.8886 95.1573 94.0784 94.1217C94.1665 94.0664 94.2658 94.0288 94.3702 94.0113C94.4745 93.9938 94.5816 93.9967 94.6846 94.0198C94.8602 94.1114 94.995 94.259 95.0647 94.4358C95.7931 95.9913 96.1037 97.6906 95.9695 99.385C95.8404 101.075 95.565 102.753 95.1461 104.402C94.4494 107.467 94.0874 110.769 92.2958 113.409C91.8718 114.045 91.491 114.706 91.1557 115.387C90.8118 116.058 90.8118 116.295 90.5042 116.83" fill="#49D49D"/>
<path d="M112.552 120C111.078 113.973 112.647 106.657 116.179 101.715C116.439 101.351 116.786 100.961 117.212 101.003C117.858 101.063 118 101.995 118 102.699C117.731 108.901 115.843 114.897 112.552 120Z" fill="#49D49D"/>
<path d="M114 121.297C117.773 122.173 121.693 122.231 125.491 121.468C129.289 120.704 132.874 119.137 136 116.874C132.321 115.045 128.112 114.535 124.094 115.431C120.111 116.326 116.47 118.09 114 121.297Z" fill="#E0E0E0"/>
<path d="M115 117C119.351 109.992 127.693 105.409 136 105C135.047 108.34 132.269 110.933 129.132 112.506C125.994 114.078 122.497 114.753 119.045 115.419C117.706 115.677 115.863 115.961 115 117Z" fill="#E0E0E0"/>
<path d="M112.603 97.5926C113.742 93.7403 114.521 89.7669 114.93 85.7356C115.209 81.688 114.689 77.467 112.812 74C109.307 81.584 108.935 90.468 112.51 98" fill="#49D49D"/>
<path d="M125 90.9962C129.693 82.628 139.284 75.9404 149 75C145.258 84.1345 135.044 91.1878 125 90.9962Z" fill="#49D49D"/>
<path d="M123 92.3305C129.643 93.3436 135.308 97.5984 141.546 100.173C142.855 100.812 144.31 101.088 145.761 100.975C146.432 100.967 147.084 100.753 147.629 100.362C148.175 99.9712 148.587 99.4223 148.811 98.7892C149.036 98.1562 149.061 97.4696 148.883 96.8219C148.705 96.1742 148.334 95.5967 147.818 95.1671C146.938 94.3548 145.903 93.7288 144.775 93.3267C138.031 90.4986 130.747 90.431 123.624 92.1448" fill="#49D49D"/>
<path d="M119 97.3256C120.519 97.7619 121.037 98.5573 122.234 99.5838C126.327 103.091 131.169 105.597 136.382 106.906C136.916 107.043 137.629 107.094 137.901 106.606C138.172 106.119 137.833 105.657 137.527 105.272C135.257 102.583 132.307 100.564 128.989 99.4298C125.73 98.2066 122.896 96.7269 119 97.0433" fill="#49D49D"/>
<path d="M115 68.7384C117.662 71.3302 120.809 73.3054 124.237 74.5374C127.665 75.7694 131.3 76.2309 134.907 75.8922C135.237 75.8971 135.559 75.7769 135.812 75.5532C136.315 74.9708 135.714 74.0842 135.129 73.6061C129.276 68.7906 122.187 66.7914 115 68.7384Z" fill="#49D49D"/>
<path d="M120 66.6985C123.687 63.9645 127.964 62.1466 132.483 61.3932C137.002 60.6398 141.633 60.9723 146 62.3636C142.6 65.5394 138.233 67.467 133.608 67.8343C129.04 68.258 124.433 67.8676 120 66.6812" fill="#49D49D"/>
<path d="M118 53C117.322 47.0118 117.764 42.2886 117.283 36.2751C117.283 35.7944 117.116 35.2208 116.595 35.0437C115.868 34.8076 115.259 35.5751 115.023 36.2161C114.006 39.0007 113.743 41.948 114.253 44.8333C114.764 47.7185 116.036 50.4656 117.971 52.865" fill="#49D49D"/>
<path d="M117 54C121.161 51.4501 124.748 48.1431 127.556 44.27C129.638 41.5605 131.397 38.3058 130.922 35C129.454 35.0358 128.013 35.3753 126.698 35.9949C125.383 36.6145 124.227 37.4991 123.31 38.587C121.492 40.774 120.172 43.2951 119.432 45.991C118.589 48.6579 117.996 51.3843 117 54Z" fill="#49D49D"/>
<path d="M127.116 51C135.852 47.6956 143.941 42.8203 151 36.6041C148.143 35.4305 144.874 36.1313 142.026 37.3049C135.556 39.8196 130.211 44.6704 127 50.9409" fill="#49D49D"/>
<path d="M120.008 57.4483C124.495 57.9728 129.049 58.3373 133.502 57.5194C137.955 56.7016 142.013 54.9149 146.104 53.0748C146.456 52.9667 146.756 52.7222 146.945 52.3903C147.011 52.1894 147.018 51.9717 146.964 51.7666C146.91 51.5615 146.797 51.379 146.642 51.2435C146.325 50.9837 145.958 50.8015 145.567 50.7102C141.122 49.4035 136.325 50.0168 131.956 51.5991C127.789 53.1062 123.782 55.0696 120 57.4572" fill="#49D49D"/>
<path d="M93.7242 68.6985C91.3791 62.5343 91.5273 55.3484 93.5567 49C94.987 51.8308 95.1609 55.4322 94.8968 58.7906C94.6326 62.1491 93.8466 65.6248 93.8015 69" fill="#49D49D"/>
<path d="M80.6691 63.0021C76.9867 62.9569 73.3349 63.6341 69.9478 64.9904C66.5606 66.3468 63.5129 68.3523 61 70.8783C64.709 71.294 68.4648 70.6388 71.7667 69.0002C75.0468 67.3691 78.1406 65.4278 81 63.2066" fill="#49D49D"/>
<path d="M73 59.3672C69.1152 59.058 65.3789 58.5856 61.6512 59.7107C59.7672 60.2341 58.0195 61.15 56.5268 62.3963C55.0342 63.6426 53.8314 65.1902 53 66.934C56.6659 67.2263 60.3443 66.544 63.6504 64.9586C66.9318 63.3757 70.061 61.5043 73 59.3672Z" fill="#49D49D"/>
<path d="M85.5675 60.3242C82.1076 57.8988 78.5525 55.4271 74.5216 54.4181C70.4908 53.409 65.8112 54.1589 63 57.4082C66.2697 59.4633 70.2226 59.704 74.0113 59.704C77.7999 59.704 82.4363 59.6484 86 61" fill="#49D49D"/>
<path d="M85.7728 60C79.8041 54.24 77.5441 43.8857 79.9438 36C84.6643 43.0927 86.7252 51.5779 85.7728 60Z" fill="#49D49D"/>
<path d="M102 43.9313C103.009 41.3544 103.721 38.6487 104.628 36.0203C105.456 33.371 106.724 30.913 108.367 28.7708C110.041 26.6062 112.424 25.2517 115 25C114.176 28.9752 112.606 32.7181 110.39 35.9895C108.175 39.261 105.363 41.9892 102.133 44" fill="#49D49D"/>
<path d="M99 47C97.1875 44.561 95.0954 41.251 92.6477 39.4342C90.1999 37.6175 86.9983 36.5141 84 37.211C85.5502 39.8733 87.7133 42.1445 90.3174 43.844C92.9214 45.5434 95.8945 46.624 99 47Z" fill="#49D49D"/>
<path d="M99.2175 43.9313C97.8709 40.933 96.8732 37.7968 96.243 34.5816C95.6331 31.3087 96.1791 27.9309 97.7919 25C101.101 31.0958 102.192 37.638 99.4287 44" fill="#49D49D"/>
<path d="M102.008 25C103.784 18.9468 109.185 14.4328 115.014 12.3748C115.735 12.0697 116.516 11.9481 117.292 12.0202C117.679 12.0652 118.044 12.2271 118.342 12.4855C118.64 12.744 118.857 13.0875 118.967 13.473C119.176 14.5107 118.347 15.436 117.569 16.1191C113.014 20.1363 107.718 23.1575 102 25" fill="#49D49D"/>
<path d="M102.104 20.6966C102.305 16.7252 102.521 12.6926 103.594 8.93122C104.666 5.16979 106.81 1.64453 109.893 0C110.422 4.00636 108.91 7.99523 107.101 11.4417C105.291 14.8883 103.095 18.1511 102 22" fill="#49D49D"/>
<path d="M102 23C100.397 18.4271 100.233 12.6151 97.4466 8.63047C95.4886 5.84927 92.3559 3.95057 90.6711 1C89.6538 3.83005 89.7975 6.936 91.0718 9.6645C92.337 12.3631 94.0824 14.82 96.2263 16.9206C98.2935 19.0778 100.069 20.7091 101.991 23" fill="#49D49D"/>
<path d="M101.54 152C101.261 152 101.021 122.891 101.001 87.0042C100.981 51.1175 101.181 22 101.46 22C101.739 22 101.979 51.1005 101.999 87.0042C102.019 122.908 101.799 152 101.54 152Z" fill="#E0E0E0"/>
<path d="M127 64C126.66 64.1867 126.302 64.3335 125.932 64.438L122.97 65.5019C120.467 66.3959 117.062 67.7279 113.349 69.3639C109.636 70.9999 106.199 72.4214 104.221 74.2541C103.434 74.9592 102.808 75.8494 102.394 76.8556C102.11 77.5708 102.06 78.0088 102.019 77.9999C101.977 77.9909 102.019 77.8926 102.019 77.687C102.059 77.382 102.129 77.0824 102.227 76.793C102.6 75.7254 103.213 74.7733 104.013 74.0216C105.21 72.9336 106.548 72.0364 107.984 71.3575C109.57 70.5708 111.322 69.7394 113.191 68.9259C116.912 67.2899 120.367 66.0115 122.886 65.1801C124.138 64.7599 125.173 64.447 125.882 64.2414C126.248 64.1281 126.622 64.0473 127 64Z" fill="#E0E0E0"/>
<path d="M136 44C136 44 135.894 44.1264 135.674 44.3286L134.712 45.1713L131.096 48.3144L119.055 58.5863C114.362 62.5888 110.296 66.406 107.482 69.2795C106.07 70.712 104.968 71.9001 104.209 72.7343L103.327 73.6865C103.124 73.9056 103.009 74.0152 103.001 73.9983C102.992 73.9815 103.071 73.8635 103.256 73.636C103.442 73.4085 103.706 73.0546 104.068 72.6248C104.791 71.7822 105.832 70.5434 107.244 69.0772C110.868 65.292 114.695 61.689 118.711 58.2829C123.43 54.2972 127.717 50.6991 130.84 48.129L134.545 45.0954L135.568 44.2528C135.7 44.1514 135.845 44.0664 136 44Z" fill="#E0E0E0"/>
<path d="M114.012 63C113.868 62.9411 115.043 60.7778 116.155 58.0505C117.268 55.3232 117.856 53 118 53C117.878 54.7646 117.419 56.5027 116.64 58.1515C116.14 59.3405 115.562 60.5066 114.909 61.6448C114.685 62.1272 114.384 62.583 114.012 63Z" fill="#E0E0E0"/>
<path d="M102 81C101.72 80.7342 101.47 80.4393 101.256 80.1207L99.3417 77.7466C97.745 75.7418 95.5312 72.972 93.0454 69.9384C90.5595 66.9049 88.2823 64.1791 86.622 62.2182L84.6714 59.8793C84.4218 59.6056 84.1971 59.3114 84 59C84.2949 59.2347 84.5653 59.4968 84.8075 59.7826C85.3065 60.3102 86.005 61.0751 86.8669 62.0336C88.5817 63.9504 90.9042 66.6499 93.3992 69.6834C95.8942 72.717 98.0625 75.522 99.5958 77.5971C100.367 78.6259 100.984 79.4612 101.41 80.0504C101.637 80.3481 101.835 80.666 102 81Z" fill="#E0E0E0"/>
<path d="M96 74C94.8359 72.5935 94.0017 70.8973 93.5695 69.0581C93.1184 67.4302 92.9329 65.7277 93.0215 64.0291H93.216C93.1276 64.4167 93.0657 64.6202 93.0304 64.6105C92.995 64.6008 93.0304 64.3876 93.0304 64H93.2248C93.3237 65.641 93.5844 67.2655 94.0026 68.845C94.5464 70.6171 95.2142 72.3406 96 74Z" fill="#E0E0E0"/>
<path d="M89 64C88.4854 63.573 87.9219 63.2194 87.3234 62.948C85.8079 62.4578 84.2135 62.3189 82.6448 62.5405C81.0584 62.6773 79.4849 62.953 77.9399 63.365C77.3056 63.5838 76.6572 63.7517 76 63.8673C76.5767 63.4962 77.2007 63.2184 77.8521 63.0428C79.4008 62.5385 80.9964 62.2207 82.6097 62.0951C84.2373 61.864 85.8924 62.0557 87.4375 62.6542C88.0869 62.8942 88.639 63.3698 89 64Z" fill="#E0E0E0"/>
<path d="M87 61.9924C87 62.0685 86.0317 61.5643 84.4582 60.9746C82.4069 60.2135 80.2787 59.7311 78.121 59.5383C75.9601 59.3645 73.788 59.4859 71.6542 59.8997C70.0202 60.2231 69.0605 60.5656 69 60.48C69.2118 60.3444 69.4384 60.2389 69.6744 60.1661C70.3017 59.9234 70.9428 59.7264 71.5937 59.5763C75.9198 58.5341 80.4287 58.9112 84.562 60.6607C85.1823 60.9236 85.7885 61.2253 86.3775 61.5643C86.603 61.6726 86.8127 61.8169 87 61.9924Z" fill="#E0E0E0"/>
<path d="M102 53C101.088 50.8888 100.337 48.7323 99.7533 46.5433C99.0056 44.3942 98.4201 42.2089 98 40C98.9256 42.1054 99.6797 44.2596 100.257 46.448C101.005 48.5994 101.588 50.7878 102 53Z" fill="#E0E0E0"/>
<path d="M102 53C101.411 51.4745 100.734 49.9973 99.9727 48.5787C99.1114 47.2487 98.113 46.0468 97 45C97.4247 45.1233 97.8186 45.361 98.1499 45.6939C98.9932 46.4167 99.7273 47.2978 100.322 48.3011C101.227 49.6682 101.806 51.2891 102 53Z" fill="#E0E0E0"/>
<path d="M102 136C101.948 136 101.862 135.311 101.535 134.091C101.045 132.371 100.384 130.701 99.5627 129.105C97.5215 125.044 93.8182 119.856 89.1158 114.735C86.7818 112.129 84.5167 109.69 82.5962 107.327C80.8714 105.259 79.3136 103.064 77.9368 100.76C77.0117 99.205 76.2223 97.5765 75.577 95.8919C75.3617 95.2949 75.2067 94.824 75.1206 94.4961C75.0581 94.3366 75.0176 94.1698 75 94C75 94 75.2498 94.6643 75.7321 95.833C76.4288 97.5076 77.2521 99.1293 78.1952 100.685C79.6023 102.947 81.1738 105.108 82.8976 107.151C84.8268 109.48 87.0919 111.918 89.4345 114.525C94.1541 119.696 97.8488 124.918 99.8297 129.046C100.638 130.656 101.262 132.348 101.69 134.091C101.804 134.569 101.893 135.051 101.957 135.538C101.984 135.69 101.999 135.845 102 136Z" fill="#E0E0E0"/>
<path d="M125 110.004C124.612 110.255 124.209 110.48 123.791 110.677C122.704 111.295 121.66 111.986 120.667 112.747C119.204 113.887 117.832 115.14 116.564 116.495C115.117 118.019 113.636 119.791 112.121 121.682C109.091 125.489 106.256 128.854 104.562 131.545C103.875 132.594 103.241 133.677 102.664 134.79C102.467 135.207 102.245 135.61 102 136C102 136 102 135.881 102.111 135.659C102.221 135.438 102.323 135.114 102.511 134.714C103.042 133.569 103.642 132.456 104.307 131.383C105.958 128.632 108.767 125.217 111.789 121.418C113.313 119.518 114.811 117.747 116.283 116.231C117.578 114.873 118.984 113.628 120.489 112.508C121.505 111.758 122.584 111.097 123.715 110.532C124.115 110.336 124.447 110.209 124.66 110.115C124.872 110.021 124.991 109.987 125 110.004Z" fill="#E0E0E0"/>
<path d="M125 119.029C124.154 119.21 123.296 119.333 122.432 119.395C120.373 119.595 118.338 119.982 116.354 120.552C114.392 121.177 112.552 122.117 110.909 123.332C109.651 124.273 109.06 125.055 109 124.997C109.094 124.788 109.225 124.597 109.385 124.431C109.783 123.945 110.231 123.499 110.721 123.099C112.342 121.785 114.208 120.785 116.217 120.153C118.229 119.572 120.303 119.218 122.398 119.096C123.261 118.997 124.132 118.974 125 119.029Z" fill="#E0E0E0"/>
<path d="M110.011 124C109.88 123.92 110.979 122.094 111.834 119.638C112.689 117.181 112.819 114.982 112.965 115C113.023 115.475 113.009 115.957 112.925 116.428C112.802 117.571 112.561 118.695 112.208 119.779C111.84 120.857 111.368 121.888 110.8 122.856C110.593 123.28 110.326 123.665 110.011 124Z" fill="#E0E0E0"/>
<path d="M132 88C131.878 88.0928 131.742 88.1664 131.597 88.218L130.423 88.7547C129.903 88.9727 129.274 89.2578 128.57 89.5932C127.865 89.9286 127.035 90.3395 126.171 90.851L124.804 91.6308C124.326 91.9075 123.856 92.2345 123.353 92.5448C122.347 93.1569 121.332 93.9116 120.258 94.683C115.63 98.121 111.596 102.293 108.315 107.034C107.577 108.141 106.856 109.181 106.286 110.204C105.984 110.715 105.682 111.202 105.447 111.68L104.717 113.08C104.231 113.919 103.879 114.799 103.535 115.52C103.191 116.241 102.931 116.87 102.696 117.398C102.461 117.927 102.327 118.279 102.201 118.598C102.145 118.737 102.078 118.872 102 119C102.019 118.85 102.059 118.703 102.117 118.564C102.226 118.245 102.369 117.834 102.545 117.34C102.761 116.69 103.01 116.052 103.292 115.428C103.61 114.69 103.946 113.835 104.424 112.912L105.128 111.495C105.38 111.009 105.682 110.514 105.967 110.003C106.537 108.955 107.25 107.906 107.98 106.783C111.255 101.984 115.322 97.7758 120.007 94.3392C121.105 93.5762 122.129 92.8215 123.152 92.2178C123.663 91.9075 124.141 91.5889 124.62 91.3205L126.012 90.5659C126.85 90.0628 127.689 89.7273 128.452 89.35C129.216 88.9727 129.811 88.7379 130.339 88.5115L131.555 88.0503C131.701 88.0181 131.85 88.0012 132 88Z" fill="#E0E0E0"/>
<path d="M114 100C114.179 99.4211 114.532 98.9085 115.014 98.5294C116.148 97.5708 117.589 97.0298 119.088 97C120.562 97.0018 122.022 97.2873 123.384 97.8403C123.957 98.0204 124.501 98.2778 125 98.605C124.413 98.4943 123.838 98.3311 123.281 98.1176C121.936 97.6701 120.525 97.4403 119.105 97.437C117.697 97.4653 116.336 97.9335 115.22 98.7731C114.786 99.1553 114.379 99.5651 114 100Z" fill="#E0E0E0"/>
<path d="M111 101.998C112.528 99.8388 112.912 97.3499 112.08 95C112.388 95.2945 112.595 95.6374 112.685 96.0008C113.302 97.7257 113.006 99.5555 111.853 101.13C111.464 101.724 111.054 102.029 111 101.998Z" fill="#E0E0E0"/>
<path d="M81 141C81.6428 152.16 85.0653 163.524 90.3292 175H113.227C118.247 163.635 121.435 152.296 122 141H81Z" fill="#E0E0E0"/>
<path d="M118 162.51C118 162.776 111.065 163 102.5 163C93.9353 163 87 162.776 87 162.51C87 162.245 93.9353 162 102.5 162C111.065 162 118 162.224 118 162.51Z" fill="#FAFAFA"/>
<path d="M102.5 148C103.167 151.661 103.167 155.339 102.5 159C101.833 155.339 101.833 151.661 102.5 148Z" fill="#FAFAFA"/>
<path d="M114.5 148C114.945 149.825 115.093 151.664 114.944 153.5C115.093 155.336 114.945 157.175 114.5 159C114.055 157.175 113.907 155.336 114.056 153.5C113.907 151.664 114.055 149.825 114.5 148Z" fill="#FAFAFA"/>
<path d="M121 148.49C121 148.776 112.269 149 101.496 149C90.7229 149 82 148.776 82 148.49C82 148.204 90.7229 148 101.496 148C112.269 148 121 148.224 121 148.49Z" fill="#FAFAFA"/>
<path d="M171.688 51.6523C171.238 50.2945 170.39 49.1066 169.256 48.2456C168.122 47.3847 166.756 46.8911 165.338 46.8303C166.073 44.7481 164.661 42.3456 162.655 41.4689C161.626 41.0935 160.531 40.9407 159.44 41.0206C158.348 41.1005 157.286 41.4112 156.321 41.9326C154.926 42.5985 153.623 43.5258 152.143 43.8714C150.163 44.3267 148.116 43.6944 146.094 43.627C144.018 43.5871 141.972 44.1236 140.179 45.1777C138.385 46.2317 136.914 47.7629 135.924 49.6038C135.248 50.8936 134.83 52.3182 134.086 53.5743C133.484 54.5774 132.699 55.4542 132.106 56.4658C131.277 57.9466 130.901 59.6412 131.022 61.3372C131.144 63.0331 131.76 64.6551 132.791 66L161.277 59.3994C162.447 60.2163 163.842 60.6441 165.265 60.623C166.688 60.6019 168.07 60.133 169.216 59.2818C170.363 58.4306 171.217 57.2395 171.66 55.8747C172.104 54.51 172.113 53.0397 171.688 51.6691V51.6523Z" fill="#263238"/>
<path d="M238.974 159.674L210.638 157L209 171L241 169.942L238.974 159.674Z" fill="#FFBF9D"/>
<path d="M260.307 167.498C260.128 167.761 259.879 167.964 259.589 168.081C259.3 168.198 258.985 168.224 258.681 168.156C258.551 168.12 258.425 168.069 258.305 168.005C257.449 167.57 257.834 165.713 257.834 165.713L253.71 164.309C253.71 164.309 247.652 167.081 245.325 169.204C242.997 171.328 238.308 168.529 238.308 168.529L238 158.881L246.899 152.848C246.899 152.848 246.351 153.212 247.096 151.96C247.84 150.707 250.21 151.595 250.21 151.595C250.698 150.982 252.332 151 252.332 151L259.032 152.937C259.715 153.134 260.346 153.487 260.88 153.972C261.413 154.456 261.834 155.059 262.113 155.735L264.278 160.951C264.278 160.951 265.287 164.62 264.919 165.393C264.763 165.704 264.503 165.944 264.187 166.068C263.872 166.193 263.523 166.193 263.208 166.068C263.208 166.068 262.523 168.254 261.95 168.245C261.371 168.118 260.82 167.88 260.324 167.543L260.307 167.498Z" fill="#FFBF9D"/>
<path d="M247.393 168.487C247.55 168.414 247.7 168.326 247.842 168.223L249.088 167.441C250.654 166.492 252.269 165.644 253.925 164.902H253.825L257.822 166.376L257.706 166.158C257.644 166.527 257.617 166.902 257.623 167.277C257.619 167.687 257.726 168.089 257.93 168.433C258.063 168.609 258.239 168.738 258.437 168.806C258.618 168.893 258.813 168.939 259.011 168.942C259.418 168.943 259.813 168.785 260.124 168.496C260.202 168.424 260.275 168.345 260.34 168.26L260.39 168.196L260.133 168.251L260.257 168.333C260.418 168.443 260.584 168.544 260.756 168.633C260.93 168.729 261.111 168.812 261.296 168.879C261.393 168.92 261.493 168.95 261.595 168.969C261.723 169.01 261.858 169.01 261.986 168.969C262.19 168.845 262.359 168.663 262.476 168.442C262.584 168.255 262.681 168.06 262.767 167.859C262.939 167.46 263.088 167.05 263.216 166.631L262.95 166.768C263.218 166.884 263.51 166.917 263.794 166.864C264.078 166.811 264.344 166.674 264.562 166.467C264.787 166.244 264.934 165.942 264.977 165.612C265.008 165.31 265.008 165.005 264.977 164.702C264.831 163.543 264.609 162.397 264.313 161.272L263.191 158.424L262.484 156.605C262.267 155.982 261.988 155.387 261.653 154.83C261.299 154.29 260.846 153.834 260.324 153.493C259.804 153.178 259.244 152.951 258.662 152.82L252.521 151H252.471C252.088 151.005 251.707 151.048 251.332 151.127C250.932 151.186 250.559 151.384 250.269 151.691H250.51C250.197 151.464 249.838 151.323 249.464 151.282C249.091 151.24 248.713 151.3 248.366 151.455C247.747 151.8 247.274 152.393 247.044 153.111L247.111 153.02L241.152 157.251L239.548 158.424C239.356 158.555 239.173 158.701 239 158.861C239.21 158.764 239.41 158.646 239.598 158.506L241.26 157.414L247.285 153.32V153.266C247.491 152.644 247.903 152.13 248.44 151.828C248.737 151.704 249.056 151.66 249.371 151.699C249.687 151.739 249.989 151.861 250.252 152.055L250.385 152.146L250.493 152.019C250.726 151.793 251.015 151.647 251.324 151.601C251.672 151.527 252.025 151.49 252.379 151.491L258.504 153.384C259.042 153.508 259.56 153.719 260.041 154.012C260.512 154.324 260.919 154.739 261.238 155.231C261.55 155.758 261.807 156.323 262.002 156.914C262.243 157.515 262.476 158.115 262.717 158.734L263.839 161.582C264.13 162.682 264.35 163.804 264.495 164.939C264.52 165.202 264.52 165.467 264.495 165.73C264.466 165.955 264.366 166.161 264.213 166.313C264.051 166.462 263.855 166.561 263.646 166.599C263.437 166.637 263.222 166.614 263.025 166.531L262.825 166.458L262.759 166.668C262.643 167.069 262.502 167.462 262.335 167.841C262.219 168.191 262.025 168.504 261.77 168.751C261.712 168.759 261.653 168.759 261.595 168.751L261.354 168.678C261.188 168.615 261.022 168.533 260.856 168.451C260.693 168.366 260.535 168.272 260.382 168.169L260.266 168.096L260.008 168.151V168.205C259.954 168.27 259.896 168.331 259.834 168.387C259.602 168.606 259.308 168.731 259.002 168.742C258.848 168.741 258.696 168.707 258.554 168.642C258.415 168.606 258.292 168.519 258.205 168.396C257.931 167.793 257.866 167.101 258.022 166.449V166.276L257.881 166.231L253.875 164.812H253.825H253.775C252.121 165.584 250.516 166.477 248.972 167.486C248.432 167.841 248.025 168.132 247.751 168.342C247.628 168.381 247.509 168.43 247.393 168.487Z" fill="#FF9A6C"/>
<path d="M251 155C251.645 155.418 252.343 155.747 253.076 155.98C254.859 156.646 256.721 157.078 258.617 157.264L258.412 157.078C258.48 157.433 258.54 157.796 258.634 158.168C259.117 160.264 260.001 162.248 261.238 164.014C261.611 164.542 262.02 165.045 262.463 165.517C262.778 165.855 262.974 166.016 262.999 165.999C263.025 165.982 262.37 165.196 261.501 163.836C260.372 162.062 259.552 160.111 259.076 158.066C258.991 157.712 258.923 157.348 258.863 157.011V156.833H258.693C256.831 156.653 254.994 156.276 253.213 155.71C252.489 155.431 251.751 155.194 251 155Z" fill="#FF9A6C"/>
<path d="M257 160C257.161 162.684 258.234 165.193 259.994 167C260.086 166.912 259.055 165.584 258.236 163.648C257.417 161.712 257.113 159.976 257 160Z" fill="#FF9A6C"/>
<path d="M237 165.684C237 165.684 237.062 165.753 237.203 165.849C237.412 165.986 237.63 166.111 237.855 166.222C238.708 166.633 239.631 166.886 240.577 166.969C242.031 167.099 243.491 166.819 244.789 166.161C246.445 165.326 247.755 163.951 248.499 162.271L248.217 162.401C249.842 162.978 251.542 163.323 253.266 163.426C253.906 163.461 254.547 163.461 255.187 163.426C255.828 163.428 256.465 163.325 257.072 163.122C257.412 163.01 257.697 162.778 257.874 162.471C257.949 162.313 257.991 162.141 257.999 161.967C258.006 161.793 257.979 161.619 257.918 161.455C257.793 161.13 257.543 160.868 257.222 160.725L256.447 160.395C254.394 159.527 252.499 158.893 250.904 158.381C249.31 157.868 247.988 157.512 247.08 157.287C246.613 157.142 246.132 157.046 245.644 157C246.095 157.181 246.557 157.334 247.027 157.46C247.908 157.738 249.213 158.146 250.799 158.693C252.385 159.24 254.244 159.935 256.279 160.795L257.046 161.125C257.253 161.221 257.414 161.392 257.495 161.602C257.54 161.708 257.563 161.822 257.563 161.937C257.563 162.051 257.54 162.165 257.495 162.271C257.366 162.481 257.162 162.636 256.923 162.705C256.354 162.887 255.758 162.975 255.16 162.966C254.543 162.966 253.918 162.966 253.283 162.966C251.603 162.864 249.945 162.531 248.358 161.976L248.155 161.906L248.076 162.097C247.368 163.702 246.125 165.02 244.551 165.831C243.32 166.475 241.934 166.775 240.542 166.7C239.633 166.642 238.74 166.436 237.899 166.092C237.317 165.866 237.018 165.684 237 165.684Z" fill="#FF9A6C"/>
<path d="M147.963 123C144.644 122.926 141.486 121.537 139.166 119.133C136.847 116.728 135.551 113.499 135.556 110.138L135.028 67.4856C134.535 56.0364 140.526 46.1895 151.529 46H152.55C162.805 46.4394 171.008 54.9939 171.408 65.6678C171.783 75.6008 172.183 85.1892 171.91 90.496C171.34 101.489 160.609 102.557 160.609 102.557C160.609 102.557 160.609 106.649 160.609 109.879C160.637 111.579 160.332 113.266 159.711 114.845C159.091 116.424 158.167 117.863 156.993 119.077C155.819 120.292 154.419 121.259 152.873 121.922C151.328 122.585 149.667 122.931 147.989 122.94L147.963 123Z" fill="#FFBF9D"/>
<path d="M161 102.891C155.952 102.662 151.084 100.961 147 98C147 98 150.072 106.525 160.974 105.974L161 102.891Z" fill="#FF9A6C"/>
<path d="M167 75.4696C166.989 75.8733 166.828 76.2572 166.548 76.542C166.269 76.8267 165.894 76.9904 165.5 76.9991C165.307 77.006 165.114 76.9733 164.934 76.9028C164.753 76.8323 164.588 76.7254 164.448 76.5886C164.309 76.4517 164.197 76.2875 164.12 76.1058C164.043 75.924 164.002 75.7283 164 75.5301C164.004 75.1244 164.164 74.7367 164.445 74.4506C164.725 74.1645 165.104 74.0029 165.5 74.0006C165.693 73.9949 165.885 74.0285 166.065 74.0994C166.245 74.1703 166.41 74.2772 166.549 74.4138C166.689 74.5505 166.8 74.7142 166.878 74.8954C166.955 75.0766 166.997 75.2718 167 75.4696Z" fill="#263238"/>
<path d="M168.974 70.97C168.779 71.1852 167.675 70.1747 166.053 70.1092C164.432 70.0437 163.218 70.8951 163.048 70.6612C162.878 70.4273 163.175 70.1654 163.702 69.7256C164.42 69.2119 165.266 68.9599 166.121 69.0052C166.963 69.0314 167.774 69.3599 168.431 69.9408C168.915 70.4648 169.067 70.8671 168.974 70.97Z" fill="#263238"/>
<path d="M153 75.4786C152.993 75.8814 152.832 76.2658 152.55 76.5499C152.269 76.8339 151.889 76.9954 151.492 76.9998C151.298 77.0032 151.105 76.9675 150.925 76.8949C150.744 76.8222 150.58 76.714 150.441 76.5765C150.303 76.4391 150.192 76.275 150.116 76.0939C150.041 75.9128 150.001 75.7183 150 75.5216C150.007 75.1187 150.168 74.7344 150.45 74.4503C150.731 74.1662 151.111 74.0048 151.508 74.0004C151.703 73.9958 151.896 74.0307 152.077 74.1029C152.257 74.1751 152.422 74.2833 152.561 74.421C152.7 74.5587 152.811 74.7232 152.886 74.9049C152.961 75.0865 153 75.2815 153 75.4786Z" fill="#263238"/>
<path d="M152.975 70.97C152.779 71.1852 151.667 70.1747 150.054 70.1092C148.441 70.0437 147.218 70.8951 147.049 70.6612C146.879 70.4273 147.167 70.1654 147.702 69.7256C148.42 69.2119 149.267 68.9599 150.122 69.0052C150.963 69.0347 151.773 69.3629 152.431 69.9408C152.907 70.4648 153.068 70.8764 152.975 70.97Z" fill="#263238"/>
<path d="M158.182 83.8287C158.975 83.5764 159.792 83.4424 160.614 83.4302C160.996 83.4302 161.393 83.3306 161.432 83.0226C161.479 82.5556 161.405 82.083 161.222 81.664C160.902 80.55 160.567 79.3816 160.224 78.1588C158.829 73.1591 157.886 69.1014 158.011 69.0018C158.136 68.9022 159.445 72.9237 160.832 77.9233C161.167 79.1551 161.487 80.3235 161.783 81.4466C162.012 82.0124 162.062 82.6539 161.923 83.2581C161.863 83.4126 161.774 83.5492 161.662 83.6575C161.55 83.7657 161.418 83.8429 161.276 83.8831C161.065 83.9423 160.847 83.9696 160.63 83.9646C159.812 84.0402 158.99 83.9946 158.182 83.8287Z" fill="#263238"/>
<path d="M153.978 65.767C153.722 66.3763 152.048 65.6178 149.99 65.4437C147.932 65.2697 146.203 65.6054 146.011 64.9464C145.929 64.6355 146.295 64.1008 147.036 63.7029C148.008 63.1407 149.066 62.9102 150.118 63.0314C151.171 63.1134 152.194 63.54 153.1 64.2749C153.786 64.8593 154.088 65.4686 153.978 65.767Z" fill="#263238"/>
<path d="M168.952 65.8471C168.634 66.2271 167.399 65.7866 165.986 65.7262C164.573 65.6657 163.307 65.9075 163.035 65.493C162.911 65.2943 163.113 64.9143 163.657 64.5688C164.406 64.1511 165.241 63.9577 166.078 64.0077C166.915 64.0577 167.727 64.3493 168.432 64.8538C168.929 65.2597 169.092 65.6657 168.952 65.8471Z" fill="#263238"/>
<path d="M136 76.4304C135.802 76.3481 128.076 74.0021 128.001 81.1883C127.925 88.3746 135.962 86.9505 135.981 86.7612C136 86.5719 136 76.4304 136 76.4304Z" fill="#FFBF9D"/>
<path d="M132.994 83.4532C132.994 83.4532 132.874 83.5396 132.675 83.626C132.536 83.6837 132.385 83.7134 132.234 83.7134C132.082 83.7134 131.932 83.6837 131.792 83.626C131.084 83.3511 130.487 82.1964 130.471 80.9553C130.454 80.3691 130.571 79.7867 130.813 79.2508C130.876 79.0392 130.99 78.8459 131.145 78.6872C131.3 78.5285 131.492 78.4093 131.704 78.3397C131.842 78.3042 131.987 78.3188 132.115 78.3809C132.242 78.4429 132.342 78.5483 132.397 78.6774C132.492 78.866 132.445 79.0073 132.484 79.0152C132.524 79.023 132.628 78.9052 132.572 78.6224C132.541 78.4515 132.448 78.2977 132.309 78.1904C132.222 78.1159 132.119 78.0611 132.007 78.0299C131.896 77.9987 131.779 77.9918 131.665 78.0098C131.384 78.064 131.123 78.1886 130.905 78.3716C130.688 78.5545 130.521 78.7897 130.423 79.0545C130.131 79.6487 129.986 80.3029 130.001 80.9632C130.001 82.3456 130.717 83.6495 131.688 83.948C131.869 84.0017 132.06 84.014 132.246 83.984C132.432 83.9541 132.609 83.8827 132.763 83.7752C132.978 83.6181 133.018 83.4689 132.994 83.4532Z" fill="#FF9A6C"/>
<path d="M140.703 57.0382C140.872 56.0914 141.298 55.2085 141.936 54.4852C142.574 53.7618 143.398 53.2254 144.32 52.9341C145.91 52.4026 147.634 52.4236 149.21 52.9935C153.297 54.4689 160.302 56.6821 162.085 55.266C164.696 53.2309 165.328 51.8742 165.328 51.8742L166.77 53.4344C167.939 52.773 164.423 48.8894 161.539 47.5496C157.188 45.5315 150.541 44.285 146.522 45.4467C141.684 46.8458 137.665 49.2964 135.233 53.7991C132.891 58.3956 131.789 63.5172 132.033 68.6638C132.033 70.2325 131.786 74.7266 133.305 75.0743C134.491 75.3372 136.001 75.8629 135.916 78.1185C135.857 78.9419 136.126 79.7554 136.667 80.3825C137.989 81.8241 139.61 80.4673 140.361 79.1106C141.957 76.2106 142.136 72.7509 142.273 69.4269C142.5 67.0691 142.347 64.6904 141.82 62.3804C141.27 60.9108 140.878 59.3872 140.651 57.8353C140.64 57.5686 140.658 57.3014 140.703 57.0382Z" fill="#263238"/>
<path d="M158.996 87.3119C159.042 87.4367 158.682 87.7534 157.954 87.9166C156.987 88.1169 155.984 87.9537 155.122 87.4559C154.258 86.9671 153.58 86.1845 153.204 85.2388C152.927 84.519 152.973 84.0391 153.102 84.0007C153.231 83.9623 153.96 85.5939 155.611 86.5249C157.262 87.4559 158.922 87.0336 158.996 87.3119Z" fill="#263238"/>
<path d="M166.321 186.942L131.635 179.3L109.339 124C109.339 124 79.546 130.616 74.636 147.32C70.3664 161.724 61.6052 225.392 81.5527 264.638C84.0945 269.582 87.9517 273.727 92.6985 276.614C97.4452 279.501 102.897 281.019 108.451 281H260.251C269.507 281.001 278.438 277.587 285.337 271.412C292.237 265.236 296.622 256.732 297.653 247.524C298.507 239.831 299.104 232.539 298.985 227.786L274.614 209.065L166.321 186.942Z" fill="#455A64"/>
<g opacity="0.3">
<path d="M259.025 206.433C269.722 220.405 282.737 232.94 298.299 241.166L299.043 222.2L270.295 201.738L259.025 206.433Z" fill="black"/>
</g>
<path d="M144.719 113.576C144.719 114.578 152.544 117.823 156.076 116.396C161.462 114.238 160.793 110 160.793 110L163.782 113.16L193.736 158.941L216 173.678L180.364 185L143 141.954L144.719 113.576Z" fill="#F5F5F5"/>
<path d="M134.487 98L133.685 99.4895L130.064 106.192L115 115.729L145.981 152.29L160.113 185.471L194 196C194 196 177.876 171.389 172.866 158.805C167.856 146.221 167.348 146.82 162.778 137.592C159.671 131.091 156.908 124.433 154.5 117.646L134.487 98Z" fill="#A882DD"/>
<path d="M206.644 163.996L213.158 170.181L215 174L190.784 162.533L173.302 137.587C173.302 137.587 167.075 123.523 164.937 118.482C162.681 113.183 161 110.181 161 110.181V106L169.813 114.103L177.172 116.331L189.474 136.116L206.644 163.996Z" fill="#A882DD"/>
<path d="M198.862 140.772C198.862 140.772 195.876 134.392 193.439 129.087C187.948 117.135 175 116 175 116L189.312 155.776L206.842 168.236C206.842 168.236 211.836 169.955 212.462 168.236C212.462 168.236 216.109 155.046 215.997 154.994C215.886 154.942 203.521 151.237 203.521 151.237L198.545 140.058" fill="#A882DD"/>
<path d="M225.142 128.735L208 157L225.953 156.479L241.783 130.291C241.922 130.061 241.997 129.799 242 129.531C242.003 129.263 241.935 128.999 241.801 128.766C241.668 128.534 241.474 128.34 241.24 128.205C241.006 128.071 240.74 128 240.47 128H226.454C226.19 128 225.93 128.067 225.7 128.196C225.47 128.325 225.278 128.511 225.142 128.735Z" fill="#263238"/>
<path d="M160 159.93L202.756 154.888L209.941 142.409L215.568 139.346C216.035 139.09 216.565 138.972 217.097 139.005C217.629 139.039 218.141 139.222 218.571 139.534L219.105 139.918L223.278 139.397C223.989 139.305 224.711 139.446 225.334 139.798L228.294 141.504C228.508 141.628 228.685 141.805 228.809 142.018C228.932 142.23 228.998 142.47 229 142.716C229 142.922 228.954 143.126 228.865 143.312C228.776 143.499 228.648 143.664 228.488 143.796C228.327 143.928 228.14 144.023 227.939 144.075C227.737 144.127 227.527 144.135 227.322 144.098L224.448 143.577L220.043 145.002C220.043 145.002 222.882 145.3 223.244 147.433C223.605 149.565 222.168 149.617 222.168 149.617C222.168 149.617 225.154 151.323 223.028 153.882C223.028 153.882 225.524 155.528 222.727 158.65C220.843 160.766 207.239 167.658 207.239 167.658L160 185V159.93Z" fill="#FFBF9D"/>
<path d="M222.828 154C222.828 154 223.128 154 223.484 154.384C223.716 154.667 223.877 155.007 223.952 155.372C224.027 155.737 224.014 156.117 223.914 156.475C223.561 157.49 222.963 158.39 222.179 159.087C221.304 159.989 220.357 160.811 219.35 161.545C217.509 162.844 215.564 163.972 213.537 164.916C212.725 165.359 211.876 165.722 211 166C211.781 165.488 212.593 165.032 213.432 164.634C215.396 163.62 217.292 162.465 219.107 161.178C220.1 160.46 221.038 159.661 221.912 158.788C222.664 158.152 223.252 157.328 223.622 156.39C223.725 156.075 223.754 155.739 223.709 155.409C223.664 155.08 223.545 154.767 223.363 154.495C223.207 154.305 223.027 154.138 222.828 154Z" fill="#FF9A6C"/>
<path d="M224 144C223.235 144.532 222.415 144.938 221.56 145.208C220.741 145.611 219.879 145.877 219 146C219.762 145.46 220.583 145.053 221.44 144.791C222.258 144.384 223.12 144.118 224 144Z" fill="#FF9A6C"/>
<path d="M220.7 154C220.565 154 220.619 153.275 220.431 152.491C220.243 151.708 219.92 151.108 220.018 151.011C220.117 150.915 220.673 151.437 220.915 152.365C221.157 153.294 220.816 154 220.7 154Z" fill="#FF9A6C"/>
<path d="M116.768 115C115.359 115.85 103.433 124.009 105.173 137.37C106.913 150.731 133.312 180.937 138.821 181.515L160 185V160.021L149.814 159.443L136.504 133.299L116.768 115Z" fill="#A882DD"/>
<path d="M160 158.679C159.755 158.724 159.506 158.747 159.256 158.746L157.15 158.831L149.676 159H149.576L149.509 158.915L144.226 151.731C141.075 147.428 138.25 143.515 136.218 140.666L133.836 137.285C133.523 136.88 133.243 136.451 133 136C133.353 136.365 133.677 136.758 133.97 137.175L136.477 140.472C138.576 143.261 141.493 147.149 144.594 151.46L149.835 158.67L149.668 158.586H157.141H159.248C159.501 158.585 159.754 158.617 160 158.679Z" fill="#263238"/>
<path d="M155 120.734C154.838 120.504 154.697 120.262 154.579 120.009L153.521 117.906H153.753C152.972 118.982 152.279 120.113 151.68 121.289C150.922 122.854 150.021 124.354 148.989 125.772L148.817 126L148.636 125.78C147.243 124.15 145.652 122.43 143.94 120.661C140.2 116.806 136.622 113.464 134.068 111.018L131.049 108.109C130.668 107.767 130.317 107.396 130 107C130.422 107.3 130.818 107.629 131.187 107.986L134.309 110.79C136.889 113.178 140.544 116.496 144.302 120.351C146.022 122.128 147.604 123.873 148.989 125.511H148.627C149.654 124.114 150.563 122.642 151.345 121.109C151.971 119.929 152.705 118.803 153.538 117.743L153.676 117.564L153.762 117.759C154.149 118.64 154.467 119.349 154.708 119.911C154.842 120.173 154.94 120.449 155 120.734Z" fill="#263238"/>
<path d="M169.875 114.375C170.171 114.743 170.395 115.155 170.539 115.594C170.993 116.707 171.38 117.843 171.699 118.995L172 120L171.31 119.176C170.322 118.036 169.238 116.971 168.07 115.989C167.043 115.116 166.042 114.342 165.131 113.568L165.502 113.436C165.374 114.786 165.33 116.142 165.37 117.496C165.403 118.034 165.328 118.574 165.148 119.086C165.095 119.086 165.148 118.501 165.086 117.505C164.971 116.134 164.971 114.758 165.086 113.387L165.131 113L165.458 113.255C166.343 113.972 167.406 114.771 168.441 115.66C169.634 116.662 170.725 117.765 171.699 118.954L171.31 119.127C170.929 117.702 170.619 116.516 170.336 115.701C170.149 115.27 169.995 114.827 169.875 114.375Z" fill="#263238"/>
<path d="M201 156C200.627 155.702 200.279 155.374 199.96 155.018L197.276 152.213C196.148 151.007 194.811 149.659 193.342 147.989C192.669 147.096 192.074 146.14 191.375 145.202C190.665 144.189 190.056 143.106 189.557 141.969C188.516 139.665 187.729 137.387 187.021 135.324C186.313 133.261 185.693 131.395 185.124 129.859C184.556 128.322 184.032 127.09 183.629 126.286C183.393 125.872 183.182 125.442 183 125C183 125 183.096 125.089 183.227 125.286C183.435 125.571 183.624 125.87 183.796 126.179C184.423 127.331 184.975 128.525 185.448 129.751C186.068 131.288 186.724 133.136 187.45 135.19C188.175 137.245 188.971 139.504 190.002 141.782C190.487 142.887 191.072 143.942 191.751 144.934C192.459 145.89 193.053 146.881 193.692 147.73C195.064 149.328 196.437 150.775 197.512 151.99L200.091 154.893C200.424 155.235 200.728 155.605 201 156Z" fill="#263238"/>
<path d="M212.734 169.279L293.618 167.003C294.9 166.969 296.174 167.206 297.357 167.699C300.299 168.952 305.59 172.172 309.217 179.884C314.474 191.046 339 238.274 339 238.274L314.2 251L283.782 194.498L190 186.513L191.089 179.008L212.734 169.279Z" fill="#263238"/>
<path d="M320.164 262.862L307.704 241.25L328.024 231.662L338.232 252.356L338.32 252.535L338.507 252.604L338.68 252.135C338.507 252.604 338.507 252.604 338.507 252.604L338.508 252.604L338.511 252.606L338.525 252.611L338.578 252.63L338.788 252.708L339.588 253.004C340.278 253.259 341.268 253.624 342.465 254.065C344.861 254.946 348.089 256.131 351.418 257.342C358.058 259.758 365.152 262.299 366.803 262.734L366.813 262.736L366.823 262.738C367.149 262.81 367.455 262.958 367.714 263.172C367.971 263.385 368.176 263.656 368.311 263.964C368.457 264.324 368.52 264.712 368.494 265.1C368.469 265.491 368.355 265.869 368.162 266.207C367.968 266.545 367.701 266.833 367.381 267.05C367.061 267.266 366.696 267.405 366.315 267.457L366.315 267.456L366.305 267.458L327.554 273.433L327.553 273.433C326.816 273.548 326.063 273.515 325.338 273.335C324.613 273.156 323.93 272.834 323.327 272.387C322.725 271.94 322.216 271.378 321.828 270.731C321.441 270.085 321.183 269.367 321.07 268.62L321.07 268.62L320.226 263.037L320.211 262.944L320.164 262.862Z" fill="#E0E0E0" stroke="#B4B4B4"/>
<path d="M317 246C316.015 244.965 315.126 243.835 314.347 242.626C313.451 241.501 312.664 240.286 312 239C312.981 240.037 313.867 241.166 314.645 242.374C315.542 243.5 316.331 244.715 317 246Z" fill="#263238"/>
<path d="M324.992 243C323.824 241.887 322.839 240.618 322.071 239.234C321.166 237.924 320.468 236.498 320 235.001C320.129 234.941 321.109 236.807 322.487 239.009C323.864 241.212 325.112 242.922 324.992 243Z" fill="#263238"/>
<path d="M188.4 180.119C188.4 180.119 271.432 171.672 275.467 172.01C282.915 172.633 296.65 184.55 321.023 201.149C333.651 209.855 345.371 219.845 356 230.964L348.211 249C348.211 249 293.613 228.809 285.039 221.548C277.924 215.49 264.94 206.922 264.94 206.922L232.914 207.251L209.104 209.38C203.231 209.907 197.322 208.92 191.926 206.51C186.529 204.099 181.821 200.344 178.239 195.593L169 183.347L188.4 180.119Z" fill="#263238"/>
<path d="M264.079 206.941C264.079 206.941 264.216 207.018 264.464 207.189L265.583 207.96L269.898 211C273.649 213.681 279.152 217.534 285.902 222.647C286.329 222.964 286.756 223.332 287.183 223.615L288.559 224.471C289.55 224.968 290.541 225.516 291.592 226.004L294.805 227.503L298.223 229.001C302.842 231.005 307.824 233.095 313.167 235.27C323.83 239.612 335.792 244.331 348.703 249.306L348.421 249.435L355.487 231.451L355.539 231.708L345.832 221.791C343.551 219.812 341.107 217.706 338.612 215.625C323.731 203.333 308.166 191.896 291.994 181.369C289.804 179.49 287.441 177.824 284.936 176.393C282.558 175.005 280.026 173.902 277.391 173.105C276.742 172.933 276.093 172.796 275.452 172.634L273.512 172.334L271.573 172.231H262.174L237.062 172.18L220.759 172.111H216.487H215.376C215.251 172.119 215.125 172.119 215 172.111H215.376H216.487H220.759L237.062 172.051L262.174 172H271.573L273.546 172.094L275.529 172.394C276.178 172.557 276.836 172.694 277.494 172.874C280.162 173.667 282.726 174.777 285.133 176.179C287.67 177.617 290.062 179.298 292.276 181.198C308.48 191.71 324.068 203.147 338.962 215.453C341.466 217.534 343.91 219.641 346.191 221.628L355.897 231.553L356 231.665L355.949 231.81L348.857 249.794L348.78 250L348.575 249.923C335.664 244.93 323.702 240.186 313.047 235.818C307.724 233.634 302.734 231.536 298.12 229.507L294.702 227.991L291.455 226.312C290.413 225.807 289.413 225.259 288.422 224.754L287.012 223.897C286.551 223.615 286.158 223.246 285.731 222.93C279.015 217.791 273.529 213.895 269.812 211.171L265.54 208.08L264.447 207.275C264.182 207.043 264.079 206.941 264.079 206.941Z" fill="#455A64"/>
<path d="M330 244.394L353.461 253.685L357.363 257.941C357.931 258.56 358.615 259.06 359.375 259.412C360.135 259.765 360.956 259.963 361.792 259.995C362.628 260.028 363.462 259.894 364.247 259.602C365.031 259.309 365.751 258.864 366.365 258.291L395.961 230.69C396.316 230.371 396.593 229.975 396.772 229.531C396.95 229.087 397.026 228.608 396.992 228.13C396.959 227.653 396.817 227.189 396.578 226.775C396.339 226.361 396.009 226.008 395.614 225.743C395.253 225.517 394.845 225.379 394.423 225.341C394 225.303 393.575 225.366 393.181 225.524C389.939 226.697 363.341 233.326 363.341 233.326L345.502 219L330 244.394Z" fill="#E0E0E0"/>
<path d="M330 244.334C330 244.334 330.078 244.187 330.251 243.893L331.039 242.595C331.741 241.428 332.771 239.741 334.079 237.579C336.746 233.193 340.592 226.897 345.337 219.164L345.433 219L345.589 219.121L363.368 233.237H363.186L379 229.258L387.357 227.087C388.769 226.706 390.198 226.335 391.618 225.919L392.675 225.591C393.042 225.45 393.427 225.36 393.818 225.323C394.226 225.306 394.633 225.374 395.013 225.523C395.394 225.672 395.739 225.898 396.026 226.188C396.59 226.75 396.932 227.497 396.991 228.29C397.05 229.084 396.821 229.873 396.347 230.512C396.11 230.826 395.843 231.115 395.55 231.377L394.745 232.121L393.143 233.6L386.855 239.404L374.965 250.371L369.431 255.474L366.781 257.922C366.35 258.338 365.88 258.712 365.378 259.037C364.145 259.793 362.696 260.118 361.259 259.962C359.821 259.805 358.476 259.176 357.436 258.173C355.946 256.624 354.595 255.111 353.27 253.684H353.331C346.117 250.812 340.28 248.494 336.218 246.868L331.611 245.008L330.416 244.524L330.026 244.36C330.026 244.36 330.182 244.403 330.468 244.515L331.689 244.974L336.365 246.773L353.444 253.389C354.777 254.808 356.154 256.33 357.609 257.844C358.39 258.588 359.353 259.114 360.402 259.371C361.45 259.627 362.548 259.605 363.585 259.306C364.125 259.15 364.641 258.92 365.118 258.622C365.597 258.307 366.044 257.945 366.451 257.541C367.317 256.737 368.183 255.915 369.101 255.093C370.891 253.433 372.733 251.726 374.627 249.973C378.403 246.513 382.378 242.794 386.5 238.988C388.556 237.08 390.648 235.142 392.779 233.176L394.381 231.697C394.924 231.226 395.439 230.724 395.923 230.192C396.335 229.639 396.536 228.956 396.489 228.267C396.441 227.579 396.148 226.93 395.663 226.438C395.416 226.196 395.122 226.007 394.798 225.885C394.475 225.763 394.129 225.71 393.783 225.729C393.433 225.764 393.089 225.849 392.762 225.98L391.679 226.309C390.25 226.724 388.83 227.096 387.409 227.476L379.044 229.639L363.23 233.591H363.126L363.048 233.531L345.363 219.381H345.615L334.278 237.596L331.135 242.604L330.268 243.91C330.113 244.169 330 244.334 330 244.334Z" fill="#263238"/>
<path d="M387.996 237C387.434 236.832 386.926 236.555 386.51 236.192C385.439 235.355 384.674 234.272 384.304 233.074C383.958 231.884 383.907 230.646 384.153 229.438C384.196 228.935 384.36 228.446 384.635 228C384.683 228.494 384.657 228.99 384.56 229.478C384.437 230.64 384.536 231.81 384.853 232.944C385.21 234.063 385.879 235.091 386.803 235.942C387.513 236.588 388.053 236.927 387.996 237Z" fill="#263238"/>
<path d="M250.304 207.172C248.513 198.664 244.854 189.958 237.612 185.176C232.119 181.536 225.324 180.643 218.76 179.836L82.11 163C80.8845 184.575 90.1053 211.431 99.5147 230.885C100.971 233.907 102.66 236.998 105.453 238.844C108.881 241.093 113.234 241.068 117.314 240.965C163.289 239.788 209.282 237.831 255 232.791C252.429 224.489 252.086 215.672 250.304 207.172Z" fill="#455A64"/>
<path d="M133 168.999C132.455 169.006 131.91 168.971 131.37 168.893L126.95 168.409C123.222 167.968 118.082 167.325 112.413 166.533C106.744 165.74 101.613 164.938 97.9203 164.277C96.0653 163.943 94.5744 163.67 93.5863 163.396C93.0484 163.305 92.5181 163.173 92 163C92.5446 163.026 93.0864 163.094 93.6209 163.203L98.007 163.89C101.717 164.454 106.84 165.202 112.509 165.995L127.028 168.013L131.431 168.656C131.962 168.728 132.487 168.843 133 168.999Z" fill="#263238"/>
<path d="M133 281C132.946 280.916 132.899 280.828 132.862 280.735C132.758 280.539 132.637 280.274 132.481 279.95L131.081 276.902L130.07 274.742C129.724 273.888 129.387 273.034 128.998 272.061C128.255 270.14 127.321 267.971 126.526 265.487C126.111 264.257 125.662 262.968 125.221 261.619C124.78 260.27 124.356 258.836 123.967 257.35C123.103 254.422 122.36 251.228 121.564 247.882C118.357 233.275 117.306 218.286 118.444 203.382C118.764 199.967 119.015 196.705 119.499 193.683C119.732 192.172 119.888 190.703 120.147 189.303C120.406 187.903 120.666 186.571 120.908 185.29C121.348 182.729 121.971 180.449 122.437 178.46C122.688 177.453 122.896 176.522 123.129 175.668C123.362 174.814 123.613 174.046 123.82 173.346C124.227 171.971 124.555 170.895 124.78 170.136L125.048 169.282C125.072 169.185 125.107 169.09 125.152 169C125.145 169.099 125.125 169.197 125.091 169.29L124.875 170.144L124.011 173.371L123.362 175.702C123.146 176.556 122.947 177.504 122.714 178.503C122.265 180.518 121.668 182.772 121.253 185.333C121.029 186.605 120.778 187.946 120.527 189.337C120.277 190.729 120.13 192.197 119.914 193.709C119.438 196.723 119.205 199.975 118.894 203.391C117.826 218.261 118.873 233.205 122.005 247.788C122.792 251.126 123.475 254.319 124.365 257.239C124.789 258.708 125.143 260.133 125.584 261.508C126.025 262.883 126.448 264.146 126.863 265.376C127.632 267.86 128.54 270.029 129.257 271.967C129.638 272.932 129.957 273.837 130.295 274.656L131.263 276.868L132.576 279.95L132.914 280.761C132.951 280.837 132.98 280.918 133 281Z" fill="#263238"/>
<path d="M132 237.833C130.169 238.056 128.327 238.056 126.496 237.833C124.652 237.83 122.813 237.606 121 237.162C122.834 236.946 124.679 236.946 126.513 237.162C128.353 237.169 130.189 237.394 132 237.833Z" fill="#263238"/>
<path d="M131 244C128.999 243.843 127.042 243.383 125.212 242.64C123.32 242.036 121.557 241.145 120 240.007C120.081 239.894 122.364 241.126 125.392 242.221C128.421 243.316 131.027 243.823 131 244Z" fill="#263238"/>
<path d="M119 201.033C117.823 202.156 116.47 202.784 115.08 202.854C113.706 203.18 112.3 202.958 111 202.209C111 201.965 112.823 202.381 115.033 202.051C117.243 201.721 118.943 200.818 119 201.033Z" fill="#263238"/>
<path d="M121 198.876C119.864 199.144 118.682 198.975 117.641 198.395C116.546 197.957 115.615 197.113 115 196C115.876 196.754 116.815 197.412 117.802 197.964C119.474 198.785 121 198.727 121 198.876Z" fill="#263238"/>
<path d="M168.772 52.7988C168.44 51.9405 167.904 51.1737 167.211 50.5629C166.518 49.9522 165.687 49.5152 164.788 49.2888C162.978 48.845 161.08 48.9138 159.308 49.4875L142 53.4114C144.506 55.067 149.66 56.6233 152.617 56.9379C156.936 57.3932 159.976 57.4346 162.549 55.9611C162.716 56.3839 162.972 56.7667 163.3 57.0842C163.627 57.4018 164.019 57.6469 164.45 57.8034C164.88 57.9598 165.339 58.0241 165.796 57.9919C166.253 57.9598 166.698 57.8319 167.101 57.6167C167.882 57.1133 168.471 56.3656 168.773 55.4926C169.076 54.6197 169.076 53.6715 168.772 52.7988Z" fill="#263238"/>
<path d="M346 239C342.491 238.229 339.117 236.883 336 235.01C336.05 234.887 338.25 235.893 341 236.987C343.75 238.082 346.033 238.876 346 239Z" fill="#263238"/>
<path d="M351 231C349.288 230.267 347.613 229.444 345.981 228.534C344.278 227.783 342.616 226.937 341 226C342.808 226.467 344.554 227.163 346.198 228.073C347.912 228.832 349.526 229.816 351 231Z" fill="#263238"/>
<path d="M208.958 177.56L244.52 178L287.464 169.366C288.138 169.223 288.754 168.875 289.23 168.37C289.706 167.864 290.019 167.224 290.128 166.534L295.969 127.318C296.035 126.868 295.995 126.409 295.853 125.977C295.711 125.545 295.471 125.154 295.151 124.834C294.832 124.514 294.443 124.275 294.015 124.137C293.588 123.999 293.134 123.964 292.691 124.037L248.803 131.281C248.194 131.382 247.635 131.68 247.207 132.129C246.779 132.579 246.505 133.157 246.427 133.777L241.532 173.657L209.009 173.493C208.478 173.493 207.968 173.707 207.592 174.087C207.215 174.467 207.002 174.983 207 175.522C206.998 176.054 207.202 176.566 207.568 176.947C207.934 177.328 208.433 177.548 208.958 177.56Z" fill="#E0E0E0"/>
<path d="M209.019 177.365C208.787 177.382 208.555 177.344 208.341 177.254C208.016 177.137 207.727 176.94 207.5 176.68C207.273 176.42 207.116 176.107 207.044 175.77C206.986 175.494 206.985 175.209 207.041 174.932C207.097 174.656 207.208 174.394 207.369 174.162C207.53 173.93 207.736 173.733 207.976 173.583C208.215 173.434 208.482 173.334 208.761 173.291C210.075 173.24 211.56 173.291 213.26 173.291L241.855 173.36L241.7 173.497C243.108 162.098 244.782 148.624 246.628 133.632C246.735 133.131 246.964 132.665 247.295 132.275C247.626 131.884 248.048 131.581 248.525 131.393C248.993 131.243 249.477 131.142 249.967 131.093L251.392 130.853L257.169 129.918L269.076 127.971L281.412 125.981L287.713 124.961L290.898 124.437L292.494 124.18C293.042 124.061 293.6 124.001 294.16 124C294.772 124.053 295.356 124.286 295.837 124.669C296.318 125.052 296.675 125.568 296.864 126.153C297.026 126.732 297.044 127.341 296.915 127.928L296.658 129.592C296.326 131.811 295.994 134.015 295.662 136.205C295.001 140.571 294.349 144.885 293.705 149.113C293.061 153.341 292.434 157.484 291.825 161.55L291.361 164.569C291.284 165.075 291.215 165.572 291.138 166.07C291.089 166.596 290.946 167.111 290.717 167.588C290.476 168.061 290.134 168.474 289.713 168.799C289.293 169.124 288.807 169.352 288.288 169.466L285.386 170.041L244.911 178L218.625 177.614L211.526 177.485L209.611 177.443H211.457L218.565 177.485L244.851 177.734L285.309 169.672L288.202 169.089C288.66 168.989 289.091 168.789 289.462 168.503C289.833 168.216 290.136 167.851 290.348 167.433C290.557 166.997 290.682 166.526 290.717 166.044L290.949 164.543C291.095 163.539 291.25 162.527 291.404 161.515L293.276 149.079C293.911 144.853 294.56 140.565 295.224 136.213C295.55 134.029 295.882 131.825 296.22 129.601L296.469 127.937C296.602 127.422 296.602 126.882 296.469 126.367C296.31 125.866 296.005 125.424 295.594 125.095C295.183 124.767 294.684 124.568 294.16 124.523C293.637 124.528 293.117 124.585 292.606 124.695L291.001 124.961L287.824 125.475L281.515 126.496L269.188 128.503L257.281 130.433L251.503 131.368L250.078 131.599C249.615 131.644 249.157 131.739 248.714 131.882C248.302 132.042 247.937 132.303 247.652 132.64C247.367 132.977 247.171 133.38 247.082 133.812C245.194 148.753 243.494 162.244 242.061 173.634V173.772H241.915L213.32 173.566C211.603 173.566 210.118 173.514 208.839 173.566C208.55 173.606 208.273 173.709 208.03 173.87C207.786 174.03 207.582 174.243 207.431 174.492C207.282 174.738 207.189 175.013 207.158 175.299C207.127 175.584 207.159 175.873 207.251 176.145C207.344 176.417 207.495 176.666 207.693 176.874C207.892 177.081 208.133 177.243 208.401 177.348C208.605 177.378 208.813 177.384 209.019 177.365Z" fill="#263238"/>
<path d="M250.991 133C251.116 133 249.884 143.32 248.233 156.026C246.581 168.731 245.144 179.017 245.01 179C244.876 178.983 246.126 168.68 247.777 155.974C249.429 143.269 250.866 132.983 250.991 133Z" fill="#263238"/>
<path d="M269.492 148.554C268.505 150.615 269.05 152.93 270.705 153.729C272.36 154.529 274.466 153.494 275.491 151.434C276.516 149.373 275.933 147.058 274.278 146.268C272.623 145.478 270.479 146.494 269.492 148.554Z" fill="white"/>
<path d="M286.707 66H204.285C203.148 66 202.059 66.447 201.255 67.2426C200.451 68.0382 200 69.1173 200 70.2425V107.424C200 108.549 200.451 109.628 201.255 110.424C202.059 111.22 203.148 111.666 204.285 111.666H238.863L246.207 121L252.334 111.666H286.715C287.852 111.666 288.941 111.22 289.745 110.424C290.549 109.628 291 108.549 291 107.424V70.251C291.001 69.6925 290.891 69.1392 290.675 68.6229C290.46 68.1066 290.144 67.6376 289.745 67.2426C289.346 66.8476 288.872 66.5346 288.351 66.3213C287.83 66.1081 287.271 65.9989 286.707 66Z" fill="white"/>
<path d="M286.547 66.194H286.961C287.366 66.2239 287.765 66.3133 288.143 66.4593C288.766 66.6932 289.324 67.0684 289.774 67.5549C290.406 68.229 290.803 69.0875 290.904 70.0028C290.982 74.0856 290.965 80.0257 290.99 87.5492C290.99 91.3067 290.99 95.4665 290.99 99.9686C290.99 102.22 290.99 104.565 290.99 106.987C291.017 107.61 290.988 108.235 290.904 108.853C290.778 109.489 290.51 110.089 290.119 110.608C289.725 111.145 289.214 111.588 288.624 111.904C288.034 112.219 287.38 112.399 286.711 112.431H251.89L252.062 112.337L245.902 121.752L245.738 122L245.557 121.769L238.154 112.354L238.327 112.439H204.851C204.247 112.439 203.678 112.439 203.039 112.439C202.103 112.333 201.223 111.941 200.521 111.317C199.82 110.693 199.331 109.868 199.122 108.956C199.018 108.366 198.98 107.765 199.01 107.167V105.455C199.01 100.805 199.01 96.2397 199.01 91.7604V78.485C199.01 76.3167 199.01 74.1769 199.01 72.0656V70.4822C199.011 69.6573 199.24 68.8486 199.674 68.1449C200.108 67.4412 200.729 66.8698 201.469 66.4936C201.953 66.2435 202.48 66.084 203.022 66.0228C203.566 65.9715 204.066 66.0228 204.584 66.0228H213.66H225.135H245.747L275.59 66.0913L283.7 66.1341L275.59 66.1769L245.747 66.2454H225.135H204.601C204.092 66.2454 203.566 66.2454 203.082 66.2454C202.59 66.2974 202.113 66.4427 201.676 66.6733C201.006 67.0167 200.445 67.5359 200.052 68.1744C199.66 68.8128 199.451 69.546 199.45 70.2939V78.2967C199.45 82.6191 199.45 87.0442 199.45 91.5378V107.004C199.421 107.577 199.456 108.151 199.554 108.716C199.68 109.26 199.918 109.772 200.252 110.221C200.586 110.67 201.009 111.046 201.495 111.327C201.981 111.611 202.522 111.789 203.082 111.849C203.635 111.9 204.256 111.849 204.808 111.849H238.456L238.517 111.934L245.911 121.35H245.565L251.734 111.934L251.795 111.84H251.907H286.711C287.635 111.8 288.519 111.454 289.222 110.859C289.925 110.264 290.408 109.452 290.594 108.554C290.675 107.955 290.704 107.351 290.68 106.747C290.68 104.325 290.68 101.98 290.68 99.729C290.68 95.2268 290.68 91.067 290.68 87.3096C290.68 79.7946 290.74 73.8288 290.68 69.7718C290.595 69.0063 290.303 68.2779 289.835 67.6633C289.367 67.0487 288.741 66.5707 288.023 66.2796C287.537 66.1812 287.041 66.1524 286.547 66.194Z" fill="#263238"/>
<path d="M222.84 74H214.16C213.519 74 213 74.4877 213 75.0894V80.9106C213 81.5123 213.519 82 214.16 82H222.84C223.481 82 224 81.5123 224 80.9106V75.0894C224 74.4877 223.481 74 222.84 74Z" fill="#A882DD"/>
<path d="M214.021 74.1841L217.934 78.3963C218.143 78.6825 218.442 78.8899 218.781 78.9859C218.994 79.0184 219.211 78.9945 219.411 78.9166C219.612 78.8387 219.789 78.7095 219.925 78.5416C220.636 77.8068 221.314 77.0464 222.008 76.303C222.703 75.5597 223.33 74.8933 223.982 74.1841C223.996 74.1628 224.002 74.1372 223.999 74.1118C223.997 74.0864 223.986 74.0627 223.968 74.0447C223.95 74.0266 223.926 74.0153 223.901 74.0127C223.876 74.0101 223.851 74.0163 223.829 74.0303L220.094 78.046C219.923 78.2702 219.723 78.4712 219.501 78.6441C218.942 79.003 218.468 78.6441 218.095 78.2425C217.383 77.4907 216.68 76.7302 215.977 75.9698L214.182 74.0303C214.088 73.9363 213.936 74.0816 214.029 74.1841H214.021Z" fill="white"/>
<path d="M213.235 81.9688L217.38 78.6388L217.962 78.1733C218.084 78.0786 217.883 77.9365 217.772 78.0312C216.386 79.1438 215 80.2486 213.626 81.3612L213.034 81.8267C212.922 81.9214 213.112 82.0635 213.235 81.9688Z" fill="white"/>
<path d="M223.971 81.7927L221.505 78.5181L221.149 78.0433C221.071 77.9369 220.95 78.0433 221.022 78.1825L223.488 81.457C223.609 81.6208 223.729 81.7763 223.843 81.94C223.957 82.1038 224.049 81.8909 223.971 81.7927Z" fill="white"/>
<path d="M232.048 80.9713V77.9923L230.736 80.4444H230.273L228.969 78.0498V80.9713H228V76H228.858L230.504 79.1226L232.142 76.0287H233V81L232.048 80.9713Z" fill="#263238"/>
<path d="M236.997 79.312H234.842C234.886 79.553 234.993 79.7644 235.143 79.907C235.294 80.0495 235.478 80.1138 235.661 80.0878C235.793 80.0963 235.925 80.0679 236.048 80.0045C236.172 79.9411 236.285 79.844 236.379 79.7193L236.825 80.369C236.673 80.5827 236.488 80.7489 236.283 80.8561C236.078 80.9633 235.858 81.0089 235.639 80.9896C235.433 81.0181 235.224 80.9879 235.027 80.901C234.83 80.8142 234.648 80.6726 234.494 80.4854C234.339 80.2981 234.216 80.0694 234.131 79.8139C234.046 79.5584 234.002 79.2818 234.001 79.0018C233.994 78.7312 234.03 78.4619 234.105 78.2111C234.181 77.9603 234.294 77.7335 234.438 77.5453C234.582 77.3572 234.754 77.2118 234.942 77.1186C235.131 77.0254 235.331 76.9864 235.531 77.0042C235.73 76.9983 235.927 77.0481 236.111 77.1504C236.295 77.2526 236.461 77.4052 236.598 77.5984C236.736 77.7915 236.843 78.0212 236.911 78.2727C236.98 78.5243 237.009 78.7923 236.997 79.0599C236.997 79.0599 236.997 79.2248 236.997 79.312ZM234.842 78.6623H236.279C236.279 78.4052 236.203 78.1585 236.068 77.9767C235.934 77.7948 235.751 77.6926 235.56 77.6926C235.37 77.6926 235.187 77.7948 235.052 77.9767C234.917 78.1585 234.842 78.4052 234.842 78.6623Z" fill="#263238"/>
<path d="M237 80.5806L237.432 79.7731C237.893 80.0188 238.422 80.1499 238.961 80.1526C239.56 80.1526 239.781 80.0066 239.781 79.7926C239.781 79.1602 237.111 79.7926 237.111 78.2554C237.111 77.5258 237.864 77.0004 239.15 77.0004C239.741 76.9921 240.326 77.1089 240.856 77.3409L240.424 78.1387C240.035 77.9476 239.595 77.8502 239.15 77.8565C238.573 77.8565 238.33 78.0122 238.33 78.2165C238.33 78.8781 241 78.2165 241 79.7634C241 80.4834 240.235 80.999 238.917 80.999C238.247 81.0136 237.584 80.8691 237 80.5806Z" fill="#263238"/>
<path d="M241 80.5808L241.316 79.7733C241.665 80.0179 242.064 80.1489 242.471 80.1527C242.911 80.1527 243.078 80.0068 243.078 79.7927C243.078 79.1604 241.075 79.7927 241.075 78.2556C241.075 77.5259 241.64 77.0005 242.612 77.0005C243.053 76.9911 243.49 77.108 243.884 77.341L243.568 78.1388C243.276 77.949 242.946 77.8517 242.612 77.8567C242.18 77.8567 241.997 78.0123 241.997 78.2167C241.997 78.8782 244 78.2166 244 79.7636C244 80.4835 243.427 80.9992 242.429 80.9992C241.929 81.0125 241.436 80.868 241 80.5808Z" fill="#263238"/>
<path d="M247 78.7199V80.9342H246.137V80.4486C246.033 80.6377 245.889 80.7883 245.72 80.8841C245.551 80.98 245.364 81.0174 245.179 80.9925C244.435 80.9925 244 80.4875 244 79.8173C244 79.1472 244.388 78.6616 245.354 78.6616H246.09C246.09 78.176 245.852 77.8944 245.361 77.8944C245.035 77.8916 244.715 78.0175 244.451 78.2537L244.127 77.4671C244.532 77.1485 245.007 76.9862 245.488 77.0009C246.438 77.0009 247 77.5545 247 78.7199ZM246.082 79.6911V79.2929H245.456C245.029 79.2929 244.887 79.4871 244.887 79.7494C244.887 80.0116 245.084 80.2155 245.409 80.2155C245.551 80.2311 245.694 80.1905 245.817 80.0997C245.939 80.0089 246.035 79.8725 246.09 79.7105L246.082 79.6911Z" fill="#263238"/>
<path d="M251.992 77.0561V80.0374C252.017 80.305 251.981 80.5748 251.887 80.8269C251.793 81.079 251.642 81.307 251.447 81.494C251.251 81.681 251.016 81.8223 250.758 81.9074C250.499 81.9926 250.225 82.0195 249.955 81.9861C249.311 82.0175 248.674 81.8444 248.136 81.4922L248.555 80.7468C248.929 81.0105 249.377 81.1518 249.837 81.1509C250.583 81.1509 250.901 80.8187 250.901 80.1721V80.0195C250.754 80.1721 250.576 80.2913 250.378 80.3689C250.18 80.4464 249.968 80.4804 249.755 80.4685C249.29 80.4685 248.843 80.2859 248.514 79.9608C248.185 79.6358 248 79.195 248 78.7353C248 78.2757 248.185 77.8348 248.514 77.5098C248.843 77.1848 249.29 77.0022 249.755 77.0022C249.982 76.9898 250.208 77.0296 250.416 77.1185C250.625 77.2073 250.809 77.3427 250.955 77.5141V77.0561H251.992ZM250.955 78.7353C250.964 78.5453 250.915 78.3571 250.814 78.1953C250.712 78.0335 250.564 77.9058 250.387 77.829C250.211 77.7521 250.016 77.7297 249.826 77.7646C249.637 77.7995 249.463 77.8902 249.326 78.0247C249.19 78.1592 249.098 78.3313 249.063 78.5183C249.028 78.7053 249.05 78.8985 249.128 79.0725C249.206 79.2465 249.335 79.3931 249.499 79.4932C249.663 79.5933 249.854 79.6422 250.046 79.6333C250.287 79.6333 250.519 79.5387 250.689 79.3703C250.86 79.2019 250.955 78.9735 250.955 78.7353Z" fill="#263238"/>
<path d="M255.961 79.3123H253.105C253.164 79.5534 253.306 79.7648 253.505 79.9075C253.705 80.0501 253.948 80.1144 254.19 80.0884C254.365 80.0975 254.54 80.0694 254.704 80.0059C254.868 79.9425 255.017 79.845 255.142 79.7198L255.732 80.3697C255.531 80.5835 255.286 80.7498 255.014 80.857C254.743 80.9643 254.452 81.0098 254.162 80.9906C253.889 81.0176 253.614 80.9863 253.354 80.8988C253.093 80.8112 252.854 80.6694 252.651 80.4822C252.447 80.2951 252.285 80.0668 252.173 79.8119C252.061 79.557 252.002 79.2811 252.001 79.0019C251.993 78.7322 252.039 78.4636 252.139 78.2134C252.238 77.9632 252.387 77.7368 252.577 77.5487C252.767 77.3606 252.993 77.215 253.242 77.1211C253.49 77.0273 253.755 76.9872 254.019 77.0036C254.281 76.9927 254.542 77.0371 254.787 77.1341C255.031 77.231 255.253 77.3784 255.439 77.5669C255.625 77.7554 255.771 77.9811 255.867 78.2297C255.963 78.4783 256.008 78.7445 255.999 79.0116C255.98 79.0601 255.97 79.225 255.961 79.3123ZM253.105 78.6624H255.009C255.009 78.4051 254.909 78.1584 254.73 77.9764C254.552 77.7945 254.309 77.6923 254.057 77.6923C253.805 77.6923 253.562 77.7945 253.384 77.9764C253.205 78.1584 253.105 78.4051 253.105 78.6624Z" fill="#263238"/>
<path d="M257 80.5808L257.324 79.7733C257.673 80.0193 258.072 80.1504 258.479 80.1527C258.92 80.1527 259.086 80.0068 259.086 79.7927C259.086 79.1603 257.083 79.7927 257.083 78.2555C257.083 77.5258 257.648 77.0004 258.621 77.0004C259.062 76.9922 259.498 77.109 259.892 77.3409L259.576 78.1387C259.284 77.9498 258.955 77.8525 258.621 77.8566C258.188 77.8566 257.997 78.0123 257.997 78.2166C257.997 78.8782 260 78.2166 260 79.7635C260 80.4835 259.435 80.9992 258.438 80.9992C257.935 81.0124 257.439 80.8679 257 80.5808Z" fill="#263238"/>
<path d="M262.004 78.6389C261.976 78.1398 262.098 77.6437 262.355 77.2148C262.612 76.7859 262.992 76.4439 263.446 76.233C263.899 76.0222 264.406 75.9522 264.9 76.0321C265.393 76.112 265.852 76.3382 266.216 76.6813C266.58 77.0244 266.832 77.4687 266.941 77.9567C267.049 78.4447 267.008 78.954 266.824 79.4188C266.64 79.8835 266.32 80.2823 265.906 80.5635C265.493 80.8448 265.004 80.9955 264.504 80.9963C264.183 81.0142 263.861 80.9666 263.559 80.8563C263.257 80.746 262.981 80.5753 262.747 80.3547C262.513 80.1341 262.326 79.8682 262.199 79.5732C262.071 79.2782 262.005 78.9603 262.004 78.6389ZM265.93 78.6389C265.925 78.3561 265.836 78.0812 265.675 77.8487C265.514 77.6163 265.287 77.4366 265.024 77.3324C264.761 77.2282 264.473 77.2041 264.196 77.263C263.919 77.322 263.666 77.4615 263.468 77.6639C263.271 77.8663 263.137 78.1226 263.085 78.4006C263.033 78.6785 263.064 78.9657 263.175 79.226C263.285 79.4863 263.471 79.7081 263.707 79.8634C263.944 80.0188 264.221 80.1008 264.504 80.0991C264.695 80.1029 264.885 80.0674 265.062 79.9949C265.239 79.9224 265.4 79.8144 265.533 79.6776C265.667 79.5407 265.771 79.378 265.839 79.1993C265.908 79.0207 265.938 78.8299 265.93 78.6389Z" fill="#263238"/>
<path d="M268.102 76.9597H267V76H270V76.9597H268.898V81H268.102V76.9597Z" fill="#263238"/>
<path d="M276 77.8112C276 78.9287 275.029 79.6224 273.478 79.6224H272.362V81H271V76H273.5C275.029 76 276 76.6936 276 77.8112ZM274.638 77.8112C274.638 77.262 274.225 76.9441 273.411 76.9441H272.295V78.6782H273.411C274.225 78.6782 274.638 78.3603 274.638 77.8112Z" fill="#263238"/>
<line y1="281.5" x2="433" y2="281.5" stroke="#DADADA"/>
<path d="M224.846 97.444V95.464L230.732 87.04H233.666V95.248H235.25V97.444H233.666V100H231.146V97.444H224.846ZM231.308 89.74L227.618 95.248H231.308V89.74ZM238.02 97.156C239.172 96.196 240.09 95.398 240.774 94.762C241.458 94.114 242.028 93.442 242.484 92.746C242.94 92.05 243.168 91.366 243.168 90.694C243.168 90.082 243.024 89.602 242.736 89.254C242.448 88.906 242.004 88.732 241.404 88.732C240.804 88.732 240.342 88.936 240.018 89.344C239.694 89.74 239.526 90.286 239.514 90.982H237.066C237.114 89.542 237.54 88.45 238.344 87.706C239.16 86.962 240.192 86.59 241.44 86.59C242.808 86.59 243.858 86.956 244.59 87.688C245.322 88.408 245.688 89.362 245.688 90.55C245.688 91.486 245.436 92.38 244.932 93.232C244.428 94.084 243.852 94.828 243.204 95.464C242.556 96.088 241.71 96.844 240.666 97.732H245.976V99.82H237.084V97.948L238.02 97.156ZM247.974 90.334C248.034 89.134 248.454 88.21 249.234 87.562C250.026 86.902 251.064 86.572 252.348 86.572C253.224 86.572 253.974 86.728 254.598 87.04C255.222 87.34 255.69 87.754 256.002 88.282C256.326 88.798 256.488 89.386 256.488 90.046C256.488 90.802 256.29 91.444 255.894 91.972C255.51 92.488 255.048 92.836 254.508 93.016V93.088C255.204 93.304 255.744 93.688 256.128 94.24C256.524 94.792 256.722 95.5 256.722 96.364C256.722 97.084 256.554 97.726 256.218 98.29C255.894 98.854 255.408 99.298 254.76 99.622C254.124 99.934 253.356 100.09 252.456 100.09C251.1 100.09 249.996 99.748 249.144 99.064C248.292 98.38 247.842 97.372 247.794 96.04H250.242C250.266 96.628 250.464 97.102 250.836 97.462C251.22 97.81 251.742 97.984 252.402 97.984C253.014 97.984 253.482 97.816 253.806 97.48C254.142 97.132 254.31 96.688 254.31 96.148C254.31 95.428 254.082 94.912 253.626 94.6C253.17 94.288 252.462 94.132 251.502 94.132H250.98V92.062H251.502C253.206 92.062 254.058 91.492 254.058 90.352C254.058 89.836 253.902 89.434 253.59 89.146C253.29 88.858 252.852 88.714 252.276 88.714C251.712 88.714 251.274 88.87 250.962 89.182C250.662 89.482 250.488 89.866 250.44 90.334H247.974ZM259.088 93.268C259.088 91.192 259.46 89.566 260.204 88.39C260.96 87.214 262.208 86.626 263.948 86.626C265.688 86.626 266.93 87.214 267.674 88.39C268.43 89.566 268.808 91.192 268.808 93.268C268.808 95.356 268.43 96.994 267.674 98.182C266.93 99.37 265.688 99.964 263.948 99.964C262.208 99.964 260.96 99.37 260.204 98.182C259.46 96.994 259.088 95.356 259.088 93.268ZM266.324 93.268C266.324 92.38 266.264 91.636 266.144 91.036C266.036 90.424 265.808 89.926 265.46 89.542C265.124 89.158 264.62 88.966 263.948 88.966C263.276 88.966 262.766 89.158 262.418 89.542C262.082 89.926 261.854 90.424 261.734 91.036C261.626 91.636 261.572 92.38 261.572 93.268C261.572 94.18 261.626 94.948 261.734 95.572C261.842 96.184 262.07 96.682 262.418 97.066C262.766 97.438 263.276 97.624 263.948 97.624C264.62 97.624 265.13 97.438 265.478 97.066C265.826 96.682 266.054 96.184 266.162 95.572C266.27 94.948 266.324 94.18 266.324 93.268Z" fill="#363636"/>
</svg>
