<svg width="917" height="109" viewBox="0 0 917 109" fill="none" xmlns="http://www.w3.org/2000/svg">
<path d="M54.0234 0.499994C83.8734 0.499994 108.173 22.25 108.173 54.5C108.173 86.45 83.8734 108.5 54.0234 108.5C24.3234 108.5 0.0234379 86.45 0.0234379 54.5C0.0234379 22.25 24.3234 0.499994 54.0234 0.499994ZM54.0234 90.5C78.4734 90.5 87.6234 80.6 87.6234 54.35C87.6234 28.25 78.4734 18.5 54.0234 18.5C29.7234 18.5 20.5734 28.25 20.5734 54.35C20.5734 80.6 29.7234 90.5 54.0234 90.5ZM174.741 33.5H193.791V107H174.741V89.75C171.141 101.75 163.491 108.5 150.291 108.5C132.891 108.5 124.191 98.15 124.191 77.45V33.5H143.241V76.4C143.241 86.3 148.341 91.25 157.341 91.25C167.991 91.25 174.741 83.75 174.741 68.6V33.5ZM255.821 32.3C258.521 32.3 261.971 32.3 264.671 33.35V51.35C261.971 50.3 259.571 49.85 254.771 49.85C242.771 49.85 234.371 57.95 234.371 76.55V107H215.321V33.5H234.371V54.35C236.321 43.25 241.721 32.3 255.821 32.3ZM356.491 1.99999C381.991 1.99999 393.691 14.9 393.691 33.35C393.691 52.1 381.991 65.6 356.491 65.6H336.091V107H316.441V1.99999H356.491ZM357.241 48.35C368.941 48.35 373.141 44.45 373.141 33.8C373.141 23.75 368.941 19.4 357.241 19.4H336.091V48.35H357.241ZM456.957 33.5H476.007V107H456.957V90.95C452.457 102.2 443.607 108.5 431.457 108.5C410.457 108.5 398.007 93.2 398.007 70.4C398.007 47.3 410.007 32 430.557 32C443.157 32 452.307 38.45 456.957 50V33.5ZM437.157 91.25C451.407 91.25 457.557 84.8 457.557 70.4C457.557 55.7 451.407 49.25 437.157 49.25C423.357 49.25 417.207 55.7 417.207 70.4C417.207 84.8 423.357 91.25 437.157 91.25ZM537.95 32.3C540.65 32.3 544.1 32.3 546.8 33.35V51.35C544.1 50.3 541.7 49.85 536.9 49.85C524.9 49.85 516.5 57.95 516.5 76.55V107H497.45V33.5H516.5V54.35C518.45 43.25 523.85 32.3 537.95 32.3ZM606.935 50.3H585.635V90.2H605.135V107H589.385C575.735 107 566.585 97.85 566.585 84.2V50.3H552.485V33.5H566.585V11.6H585.635V33.5H606.935V50.3ZM665.459 32C682.859 32 691.709 42.35 691.709 63.05V107H672.659V64.1C672.659 54.2 667.559 49.25 658.409 49.25C647.759 49.25 641.159 56.75 641.159 71.9V107H622.109V33.5H641.159V50.6C644.759 38.75 652.259 32 665.459 32ZM779.093 69.2C779.093 71.6 779.093 73.25 778.943 76.25H726.743C728.093 87.8 733.493 92.6 744.893 92.6C753.593 92.6 757.343 90.2 760.943 82.25L777.443 89.3C772.493 102.05 760.943 108.5 744.443 108.5C721.943 108.5 706.943 93.5 706.943 70.7C706.943 47.6 722.093 32 743.843 32C764.843 32 779.093 46.55 779.093 69.2ZM743.993 47.3C733.493 47.3 728.243 52.25 726.893 63.2H760.193C759.743 51.65 754.643 47.3 743.993 47.3ZM835.9 32.3C838.6 32.3 842.05 32.3 844.75 33.35V51.35C842.05 50.3 839.65 49.85 834.85 49.85C822.85 49.85 814.45 57.95 814.45 76.55V107H795.4V33.5H814.45V54.35C816.4 43.25 821.8 32.3 835.9 32.3ZM884.195 108.5C865.295 108.5 853.895 98.75 851.795 86.75L870.695 81.8C872.045 91.4 876.995 93.95 885.395 93.95C893.495 93.95 897.395 91.55 897.395 86.45C897.395 81.95 895.295 79.7 886.595 78.35L874.295 76.4C861.245 74.3 853.445 66.95 853.445 54.35C853.445 40.25 864.395 32 882.845 32C902.645 32 912.395 40.25 914.795 53.6L895.895 57.65C894.995 48.05 891.095 45.8 883.445 45.8C875.945 45.8 872.495 48.2 872.495 53.45C872.495 57.5 874.595 60.05 881.795 61.1L896.645 63.35C908.795 65 916.295 72.35 916.295 84.35C916.295 99.5 904.445 108.5 884.195 108.5Z" fill="url(#paint0_linear_4040_12849)"/>
<defs>
<linearGradient id="paint0_linear_4040_12849" x1="458.052" y1="0.499998" x2="457" y2="182" gradientUnits="userSpaceOnUse">
<stop stop-color="#EEECF4"/>
<stop offset="1" stop-color="#F9F8FD"/>
</linearGradient>
</defs>
</svg>
