<svg width="16" height="16" viewBox="0 0 16 16" fill="none" xmlns="http://www.w3.org/2000/svg">
<g clip-path="url(#clip0_7168_16111)">
<path d="M14.6693 7.38625V7.99958C14.6685 9.4372 14.2029 10.836 13.3422 11.9875C12.4814 13.1389 11.2715 13.9812 9.89284 14.3889C8.51422 14.7965 7.04078 14.7475 5.69225 14.2493C4.34372 13.7511 3.19237 12.8303 2.40991 11.6243C1.62745 10.4183 1.2558 8.99163 1.35039 7.55713C1.44498 6.12263 2.00074 4.75714 2.93479 3.6643C3.86884 2.57146 5.13113 1.80984 6.5334 1.49301C7.93567 1.17619 9.40278 1.32114 10.7159 1.90625" stroke="#49D49D" stroke-width="1.6" stroke-linecap="round" stroke-linejoin="round"/>
<path d="M14.6667 2.66699L8 9.34033L6 7.34033" stroke="#49D49D" stroke-width="1.6" stroke-linecap="round" stroke-linejoin="round"/>
</g>
<defs>
<clipPath id="clip0_7168_16111">
<rect width="16" height="16" fill="white"/>
</clipPath>
</defs>
</svg>
