<svg width="337" height="40" viewBox="0 0 337 40" fill="none" xmlns="http://www.w3.org/2000/svg">
<path d="M20.0586 0.205857C31.0036 0.205857 39.9136 8.18086 39.9136 20.0059C39.9136 31.7209 31.0036 39.8059 20.0586 39.8059C9.16859 39.8059 0.258594 31.7209 0.258594 20.0059C0.258594 8.18086 9.16859 0.205857 20.0586 0.205857ZM20.0586 33.2059C29.0236 33.2059 32.3786 29.5759 32.3786 19.9509C32.3786 10.3809 29.0236 6.80586 20.0586 6.80586C11.1486 6.80586 7.79359 10.3809 7.79359 19.9509C7.79359 29.5759 11.1486 33.2059 20.0586 33.2059ZM64.3216 12.3059H71.3066V39.2559H64.3216V32.9309C63.0016 37.3309 60.1966 39.8059 55.3566 39.8059C48.9766 39.8059 45.7866 36.0109 45.7866 28.4209V12.3059H52.7716V28.0359C52.7716 31.6659 54.6416 33.4809 57.9416 33.4809C61.8466 33.4809 64.3216 30.7309 64.3216 25.1759V12.3059ZM94.0512 11.8659C95.0412 11.8659 96.3062 11.8659 97.2962 12.2509V18.8509C96.3062 18.4659 95.4262 18.3009 93.6662 18.3009C89.2662 18.3009 86.1862 21.2709 86.1862 28.0909V39.2559H79.2012V12.3059H86.1862V19.9509C86.9012 15.8809 88.8812 11.8659 94.0512 11.8659ZM130.964 0.755857C140.314 0.755857 144.604 5.48586 144.604 12.2509C144.604 19.1259 140.314 24.0759 130.964 24.0759H123.484V39.2559H116.279V0.755857H130.964ZM131.239 17.7509C135.529 17.7509 137.069 16.3209 137.069 12.4159C137.069 8.73086 135.529 7.13586 131.239 7.13586H123.484V17.7509H131.239ZM167.801 12.3059H174.786V39.2559H167.801V33.3709C166.151 37.4959 162.906 39.8059 158.451 39.8059C150.751 39.8059 146.186 34.1959 146.186 25.8359C146.186 17.3659 150.586 11.7559 158.121 11.7559C162.741 11.7559 166.096 14.1209 167.801 18.3559V12.3059ZM160.541 33.4809C165.766 33.4809 168.021 31.1159 168.021 25.8359C168.021 20.4459 165.766 18.0809 160.541 18.0809C155.481 18.0809 153.226 20.4459 153.226 25.8359C153.226 31.1159 155.481 33.4809 160.541 33.4809ZM197.498 11.8659C198.488 11.8659 199.753 11.8659 200.743 12.2509V18.8509C199.753 18.4659 198.873 18.3009 197.113 18.3009C192.713 18.3009 189.633 21.2709 189.633 28.0909V39.2559H182.648V12.3059H189.633V19.9509C190.348 15.8809 192.328 11.8659 197.498 11.8659ZM222.793 18.4659H214.983V33.0959H222.133V39.2559H216.358C211.353 39.2559 207.998 35.9009 207.998 30.8959V18.4659H202.828V12.3059H207.998V4.27586H214.983V12.3059H222.793V18.4659ZM244.251 11.7559C250.631 11.7559 253.876 15.5509 253.876 23.1409V39.2559H246.891V23.5259C246.891 19.8959 245.021 18.0809 241.666 18.0809C237.761 18.0809 235.341 20.8309 235.341 26.3859V39.2559H228.356V12.3059H235.341V18.5759C236.661 14.2309 239.411 11.7559 244.251 11.7559ZM285.917 25.3959C285.917 26.2759 285.917 26.8809 285.862 27.9809H266.722C267.217 32.2159 269.197 33.9759 273.377 33.9759C276.567 33.9759 277.942 33.0959 279.262 30.1809L285.312 32.7659C283.497 37.4409 279.262 39.8059 273.212 39.8059C264.962 39.8059 259.462 34.3059 259.462 25.9459C259.462 17.4759 265.017 11.7559 272.992 11.7559C280.692 11.7559 285.917 17.0909 285.917 25.3959ZM273.047 17.3659C269.197 17.3659 267.272 19.1809 266.777 23.1959H278.987C278.822 18.9609 276.952 17.3659 273.047 17.3659ZM306.747 11.8659C307.737 11.8659 309.002 11.8659 309.992 12.2509V18.8509C309.002 18.4659 308.122 18.3009 306.362 18.3009C301.962 18.3009 298.882 21.2709 298.882 28.0909V39.2559H291.897V12.3059H298.882V19.9509C299.597 15.8809 301.577 11.8659 306.747 11.8659ZM324.455 39.8059C317.525 39.8059 313.345 36.2309 312.575 31.8309L319.505 30.0159C320 33.5359 321.815 34.4709 324.895 34.4709C327.865 34.4709 329.295 33.5909 329.295 31.7209C329.295 30.0709 328.525 29.2459 325.335 28.7509L320.825 28.0359C316.04 27.2659 313.18 24.5709 313.18 19.9509C313.18 14.7809 317.195 11.7559 323.96 11.7559C331.22 11.7559 334.795 14.7809 335.675 19.6759L328.745 21.1609C328.415 17.6409 326.985 16.8159 324.18 16.8159C321.43 16.8159 320.165 17.6959 320.165 19.6209C320.165 21.1059 320.935 22.0409 323.575 22.4259L329.02 23.2509C333.475 23.8559 336.225 26.5509 336.225 30.9509C336.225 36.5059 331.88 39.8059 324.455 39.8059Z" fill="url(#paint0_linear_3968_11412)"/>
<defs>
<linearGradient id="paint0_linear_3968_11412" x1="168.203" y1="-0.207777" x2="168.203" y2="50.2559" gradientUnits="userSpaceOnUse">
<stop stop-color="#EEECF4"/>
<stop offset="1" stop-color="#F9F8FD"/>
</linearGradient>
</defs>
</svg>
