<svg width="540" height="527" viewBox="0 0 540 527" fill="none" xmlns="http://www.w3.org/2000/svg">
<path fill-rule="evenodd" clip-rule="evenodd" d="M115.065 23.7096L97.2108 41.5639L144.822 63.3855C151.435 68.0145 161.288 80.645 147.798 94.1351L122.999 118.933C117.803 125.698 100.705 135.184 81.3388 126.869L39.678 107.03L57.5323 89.1759L9.92133 67.3542C3.30852 62.7252 -6.54458 50.0948 6.94557 36.6046L31.7436 11.8066C36.9397 5.04176 54.0383 -4.4447 73.4044 3.87118L115.065 23.7096ZM91.258 105.046L57.5323 89.1759L75.3882 71.3219L27.7759 49.4996L46.6225 30.6531C53.7643 23.5112 60.84 24.3709 63.4851 25.6935L97.2108 41.5639L79.3549 59.4178L126.967 81.2401L108.121 100.087C100.979 107.229 93.9031 106.369 91.258 105.046Z" fill="#F8F8F8"/>
<path fill-rule="evenodd" clip-rule="evenodd" d="M182.85 195.131C188.643 189.338 190.706 180.45 181.739 168.468C192.214 174.975 200.467 173.547 206.736 167.278C215.227 158.787 214.274 146.725 203.641 136.092L179.438 111.889L123.89 167.436L150.236 193.782C160.393 203.939 173.169 204.812 182.85 195.131ZM166.583 145.376L180.549 131.41L193.246 144.106C197.848 148.709 198.562 153.549 194.118 157.993C189.119 162.993 184.279 163.072 179.359 158.152L166.583 145.376ZM173.169 182.91C167.852 188.227 162.774 187.91 157.298 182.434L143.411 168.547L157.933 154.026L171.185 167.278C176.74 172.832 177.772 178.308 173.169 182.91Z" fill="#F8F8F8"/>
<path fill-rule="evenodd" clip-rule="evenodd" d="M250.059 215.838L239.981 205.76L231.252 214.489C234.902 205.919 233.474 197.666 226.808 191C215.936 180.129 201.494 181.874 189.274 194.095C177.212 206.157 175.704 220.837 186.814 231.947C193.241 238.374 201.256 239.723 209.588 236.152L201.097 244.643L211.175 254.721L250.059 215.838ZM220.777 225.598C213.159 233.216 206.493 233.375 198.955 225.836C191.654 218.536 191.813 211.87 199.431 204.252C207.207 196.476 213.873 196.317 221.174 203.617C228.712 211.156 228.554 217.822 220.777 225.598Z" fill="#F8F8F8"/>
<path d="M279.416 276.46C290.367 265.51 291.16 255.352 281.955 246.147C274.972 239.164 267.433 238.767 259.26 243.132L268.306 234.086L258.228 224.008L219.345 262.891L229.423 272.969L247.992 254.4C256.006 246.385 263.466 245.909 269.1 251.543C273.94 256.384 274.02 261.701 268.782 266.938L246.087 289.633L256.165 299.711L279.416 276.46Z" fill="#F8F8F8"/>
<path d="M296.918 307.929L290.173 333.719L302.235 345.781L309.853 307.532L340.642 306.421L328.025 293.804L306.282 296.185L292.078 299.438L329.533 261.983L319.455 251.905L263.907 307.453L273.985 317.531L283.111 308.405L296.918 307.929Z" fill="#F8F8F8"/>
<path d="M320.264 330.164C309.472 344.289 313.201 358.334 325.422 370.555C338.356 383.489 353.513 384.68 364.067 374.126C372.955 365.238 371.844 355.24 364.543 344.606L357.481 334.211C352.719 327.386 351.212 323.657 356.132 318.737C361.052 313.817 365.495 314.452 372.161 321.117C378.827 327.783 381.604 334.052 372.796 343.813L385.572 351.034C396.285 338.258 393.507 324.371 381.287 312.15C369.304 300.168 354.624 298.502 344.784 308.341C334.071 319.054 337.245 330.005 342.879 338.337L350.497 349.605C355.417 356.906 356.608 360.001 351.846 364.762C346.688 369.92 341.769 369.126 334.547 361.905C327.326 354.684 325.342 348.256 333.833 338.02L320.264 330.164Z" fill="#F8F8F8"/>
<path fill-rule="evenodd" clip-rule="evenodd" d="M429.934 395.714L419.856 385.636L411.127 394.365C414.778 385.794 413.349 377.542 406.684 370.876C395.812 360.005 381.37 361.75 369.149 373.971C357.088 386.033 355.58 400.713 366.689 411.823C373.117 418.25 381.132 419.599 389.464 416.028L380.973 424.519L391.051 434.597L429.934 395.714ZM400.653 405.474C393.035 413.092 386.369 413.251 378.83 405.712C371.53 398.412 371.689 391.746 379.307 384.128C387.083 376.351 393.749 376.193 401.05 383.493C408.588 391.032 408.429 397.698 400.653 405.474Z" fill="#F8F8F8"/>
<path d="M442.469 426.023L453.737 437.291L462.624 428.404L451.356 417.136L462.942 405.55L452.864 395.472L441.278 407.058L433.819 399.598L424.931 408.486L432.391 415.945L414.457 433.879C407.235 441.1 407.235 450.782 414.457 458.003L422.789 466.335L431.676 457.447L421.36 447.131L442.469 426.023Z" fill="#F8F8F8"/>
<path d="M488.665 485.71C499.616 474.759 500.409 464.601 491.204 455.396C484.221 448.413 476.682 448.017 468.509 452.381L494.22 426.67L484.142 416.592L428.594 472.14L438.672 482.218L457.241 463.649C465.255 455.634 472.715 455.158 478.349 460.792C483.189 465.633 483.269 470.95 478.031 476.187L455.336 498.882L465.414 508.96L488.665 485.71Z" fill="#F8F8F8"/>
<path d="M523.387 463.297C519.261 467.423 519.34 472.105 523.546 476.311C527.752 480.517 532.433 480.596 536.56 476.47C540.527 472.502 540.369 467.9 536.163 463.694C531.878 459.409 527.355 459.329 523.387 463.297Z" fill="#F8F8F8"/>
<path d="M512.039 477.819L473.156 516.702L483.234 526.78L522.117 487.897L512.039 477.819Z" fill="#F8F8F8"/>
</svg>
