<svg width="60" height="60" viewBox="0 0 60 60" fill="none" xmlns="http://www.w3.org/2000/svg">
<circle cx="30" cy="30" r="30" fill="#7BE0B8"/>
<path d="M35.993 37.7987V31.7987C35.993 30.5257 35.4873 29.3048 34.5871 28.4046C33.6869 27.5044 32.466 26.9987 31.193 26.9987H21.593C20.3199 26.9987 19.099 27.5044 18.1989 28.4046C17.2987 29.3048 16.793 30.5257 16.793 31.7987V37.7987" fill="#49D49D"/>
<path d="M35.993 37.7987V31.7987C35.993 30.5257 35.4873 29.3048 34.5871 28.4046C33.6869 27.5044 32.466 26.9987 31.193 26.9987H21.593C20.3199 26.9987 19.099 27.5044 18.1989 28.4046C17.2987 29.3048 16.793 30.5257 16.793 31.7987V37.7987H35.993Z" stroke="#212529" stroke-linecap="round" stroke-linejoin="round"/>
<path d="M36.5883 44.3997C40.2334 44.3997 43.1883 41.4448 43.1883 37.7997C43.1883 34.1546 40.2334 31.1997 36.5883 31.1997C32.9432 31.1997 29.9883 34.1546 29.9883 37.7997C29.9883 41.4448 32.9432 44.3997 36.5883 44.3997Z" fill="#49D49D" stroke="#212529" stroke-linecap="round" stroke-linejoin="round"/>
<path d="M34.1992 37.0271H37.4105C37.3643 37.3212 37.2697 37.526 37.1372 37.6548L37.1372 37.6548L37.1358 37.6562C36.9925 37.8012 36.7464 37.9078 36.3783 37.9622L36.3781 37.9623C36.0153 38.0169 35.4491 38.0448 34.6757 38.0448H34.5757V38.1448V39.4834C34.5757 40.1033 34.7468 40.6019 35.1003 40.966L35.1003 40.966L35.1009 40.9667C35.4566 41.3264 35.9726 41.4983 36.6312 41.4983C37.2628 41.4983 37.7638 41.3392 38.119 41.0065L38.119 41.0065L38.1198 41.0059C38.4759 40.6657 38.6501 40.1747 38.6569 39.5496L38.658 39.4485H38.5569H37.9117H37.8117V39.5485C37.8117 39.9603 37.7099 40.2611 37.5206 40.466C37.3338 40.6682 37.0471 40.7778 36.6411 40.7778C36.2214 40.7778 35.9246 40.6664 35.7313 40.4607C35.5369 40.2538 35.4308 39.9343 35.4308 39.4834V38.7092C36.0565 38.7045 36.5618 38.6548 36.9437 38.5578L36.9437 38.5578L36.9451 38.5574C37.3491 38.4484 37.6611 38.2692 37.87 38.013C38.0705 37.7688 38.1973 37.4375 38.2574 37.0271H39.5992H39.6992V36.9271V36.4437V36.3437H39.5992H38.3095V36.2578V35.391H39.5992H39.6992V35.291V34.7983V34.6983H39.5992H34.1992H34.0992V34.7983V35.291V35.391H34.1992H37.4544V36.2485V36.3437H34.1992H34.0992V36.4437V36.9271V37.0271H34.1992Z" fill="#212529" stroke="#212529" stroke-width="0.2"/>
<path d="M26.6992 24.5991C29.1845 24.5991 31.1992 22.5844 31.1992 20.0991C31.1992 17.6138 29.1845 15.5991 26.6992 15.5991C24.2139 15.5991 22.1992 17.6138 22.1992 20.0991C22.1992 22.5844 24.2139 24.5991 26.6992 24.5991Z" fill="#49D49D" stroke="#212529" stroke-linecap="round" stroke-linejoin="round"/>
</svg>
