<svg width="42" height="34" viewBox="0 0 42 34" fill="none" xmlns="http://www.w3.org/2000/svg">
<path d="M8.14282 18.7807V19.981C8.14282 21.0418 8.55572 22.0729 9.35295 22.7728C19.968 32.0919 32.9075 27.2781 39.4645 22.776C40.4634 22.0901 41 20.933 41 19.7212V14.3678C41 13.7468 40.8516 13.1253 40.3953 12.7041C39.7555 12.1136 38.5966 11.3193 36.7143 10.5664" stroke="white"/>
<path d="M33.8572 25.9233V26.7435C33.8572 28.0233 33.2533 29.2471 32.1586 29.9099C21.5926 36.3065 9.003 32.7078 2.54858 28.4725C1.53544 27.8077 1.00003 26.647 1.00003 25.4352V20.0818C1.00003 19.4608 1.09849 18.8289 1.3512 18.2617C1.75841 17.3476 2.5956 15.9993 4.57146 15.209" stroke="white"/>
<path d="M4.92847 14.5317V9.00266C4.92847 7.7392 5.52171 6.53457 6.57398 5.83524C19.3029 -2.62436 30.3809 1.7507 35.4846 5.89191C36.3084 6.56035 36.7142 7.59078 36.7142 8.65164V14.9363C36.7142 16.2281 36.0943 17.4582 34.9989 18.143C22.8057 25.7653 11.5923 21.4252 6.26828 17.3968C5.37917 16.7241 4.92847 15.6466 4.92847 14.5317Z" fill="#9C68E7" stroke="white"/>
<path d="M23.1429 4.85205C24.2143 6.28062 24.7857 9.20919 18.5 9.49491L24.2143 12.7092" stroke="white"/>
<path d="M17.0715 4.85205H25.2858" stroke="white"/>
<path d="M17.0715 7.35205H25.2858" stroke="white"/>
<path d="M7.78564 13.7803C11.9523 16.7565 23.1428 20.9231 34.5714 13.7803" stroke="white"/>
</svg>
