<svg width="55" height="55" viewBox="0 0 55 55" fill="none" xmlns="http://www.w3.org/2000/svg">
<circle cx="32.8134" cy="2.90964" r="2.40964" stroke="#212529"/>
<circle cx="22.187" cy="2.90964" r="2.40964" stroke="#212529"/>
<path d="M32.8135 5.81934V14.0543" stroke="#212529"/>
<path d="M22.187 5.81934V13.0543" stroke="#212529"/>
<circle cx="52.0242" cy="32.747" r="2.40964" transform="rotate(90 52.0242 32.747)" stroke="#212529"/>
<circle cx="52.0242" cy="22.1206" r="2.40964" transform="rotate(90 52.0242 22.1206)" stroke="#212529"/>
<path d="M49.1145 32.7471L41.8796 32.7471" stroke="#212529"/>
<path d="M49.1145 22.1206L42.5 22.1206" stroke="#212529"/>
<circle cx="2.90964" cy="2.90964" r="2.40964" transform="matrix(1 0 0 -1 29.9038 54.8674)" stroke="#212529"/>
<circle cx="2.90964" cy="2.90964" r="2.40964" transform="matrix(1 0 0 -1 19.2773 54.8674)" stroke="#212529"/>
<path d="M32.8135 49.0481V41.8132" stroke="#212529"/>
<path d="M22.187 49.0481V41.8132" stroke="#212529"/>
<circle cx="2.90964" cy="2.90964" r="2.40964" transform="matrix(-4.37114e-08 1 1 4.37114e-08 0.0664062 29.8374)" stroke="#212529"/>
<circle cx="2.90964" cy="2.90964" r="2.40964" transform="matrix(-4.37114e-08 1 1 4.37114e-08 0.0664062 19.2109)" stroke="#212529"/>
<path d="M5.88574 32.7471L14.1207 32.7471" stroke="#212529"/>
<path d="M5.88574 22.1206L14.1207 22.1206" stroke="#212529"/>
<rect x="12.5364" y="12.47" width="29.9277" height="29.9277" rx="4" fill="#7BE0B8"/>
<path d="M21.1261 31.2891L25.0541 22.5601H26.6503L30.5907 31.2891H28.8948L25.5155 23.4206H26.1639L22.7971 31.2891H21.1261ZM22.9342 29.2689L23.3707 27.997H28.0843L28.5207 29.2689H22.9342ZM31.7009 31.2891V22.5601H33.3219V31.2891H31.7009Z" fill="#212529"/>
</svg>
