<svg width="512" height="512" viewBox="0 0 512 512" fill="none" xmlns="http://www.w3.org/2000/svg">
<path d="M463.676 91.9271H411.785L423.967 80.3011C432.427 72.3088 437.146 61.5338 437.096 50.323C437.046 39.1121 432.232 28.3737 423.701 20.4466C415.17 12.5195 403.614 8.04596 391.55 8.00035C379.486 7.95474 367.891 12.3408 359.291 20.2031L286.107 88.2116L231.495 37.4611C223.404 29.9419 212.573 25.515 201.14 25.0545C189.708 24.594 178.505 28.1333 169.744 34.9737C160.983 41.814 155.3 51.4583 153.817 62.0024C152.334 72.5465 155.159 83.2241 161.734 91.9271H106.324C93.512 91.9404 81.229 96.6759 72.1696 105.095C63.1102 113.513 58.0143 124.928 58 136.833V189.468C58 191.375 58.8153 193.204 60.2666 194.553C61.7179 195.902 63.6862 196.659 65.7386 196.659H86.6613V392.095C86.6757 404.001 91.7716 415.415 100.831 423.833C109.89 432.252 122.173 436.987 134.985 437H435.015C447.827 436.987 460.11 432.252 469.169 423.833C478.228 415.415 483.324 404.001 483.339 392.095V196.659H504.261C506.314 196.659 508.282 195.902 509.733 194.553C511.185 193.204 512 191.375 512 189.468V136.833C511.986 124.928 506.89 113.513 497.83 105.095C488.771 96.6759 476.488 91.9404 463.676 91.9271ZM370.235 30.3704C375.918 25.1062 383.619 22.1558 391.644 22.1682C399.669 22.1805 407.359 25.1547 413.024 30.4364C418.689 35.7181 421.864 42.8746 421.851 50.3317C421.837 57.7887 418.637 64.9355 412.953 70.1997L390.176 91.9235H303.997L370.235 30.3704ZM242.438 182.277V106.31H285.172C285.215 106.31 285.258 106.321 285.301 106.321C285.343 106.321 285.388 106.31 285.43 106.31H330.142V182.277H242.438ZM177.763 87.3942C174.953 84.7833 172.725 81.6837 171.204 78.2724C169.683 74.861 168.901 71.2048 168.901 67.5123C168.901 63.8199 169.683 60.1636 171.204 56.7523C172.724 53.3409 174.953 50.2412 177.762 47.6303C180.572 45.0193 183.908 42.9481 187.579 41.535C191.249 40.122 195.184 39.3946 199.157 39.3946C203.131 39.3945 207.065 40.1217 210.736 41.5347C214.407 42.9477 217.743 45.0188 220.553 47.6297L268.219 91.9247H182.641L177.763 87.3942ZM73.4773 136.833C73.4885 128.741 76.9528 120.984 83.1103 115.262C89.2678 109.54 97.6159 106.32 106.324 106.31H226.96V182.277H73.4773V136.833ZM467.861 392.095C467.85 400.187 464.385 407.944 458.228 413.666C452.07 419.388 443.723 422.607 435.015 422.617H134.985C126.277 422.607 117.93 419.388 111.772 413.666C105.615 407.944 102.15 400.187 102.139 392.095V196.659H467.861V392.095ZM496.523 182.277H345.619V106.31H463.676C472.384 106.32 480.732 109.54 486.89 115.262C493.047 120.984 496.511 128.741 496.523 136.833V182.277Z" fill="url(#paint0_linear_5105_12660)"/>
<path d="M217.643 327.75L216.359 352.599C216.287 354.007 216.716 355.397 217.577 356.537C218.438 357.678 219.679 358.5 221.093 358.869L246.048 365.369L260.184 386.201C260.985 387.381 262.181 388.262 263.574 388.698C264.967 389.133 266.473 389.097 267.842 388.596L292.002 379.742L316.162 388.596C317.531 389.097 319.037 389.133 320.43 388.698C321.823 388.262 323.019 387.381 323.82 386.201L337.956 365.369L362.911 358.869C364.325 358.5 365.566 357.678 366.427 356.537C367.288 355.397 367.718 354.007 367.645 352.599L366.361 327.75L382.58 308.375C383.499 307.277 384 305.91 384 304.5C384 303.09 383.499 301.723 382.58 300.625L366.353 281.25L367.636 256.401C367.709 254.993 367.279 253.603 366.418 252.463C365.557 251.322 364.317 250.5 362.903 250.131L337.948 243.631L323.812 222.799C323.011 221.619 321.815 220.738 320.422 220.302C319.028 219.867 317.523 219.903 316.154 220.405L291.998 229.262L267.838 220.409C266.469 219.907 264.963 219.871 263.57 220.306C262.177 220.742 260.981 221.623 260.18 222.803L246.044 243.631L221.089 250.131C219.675 250.5 218.434 251.322 217.573 252.463C216.712 253.603 216.282 254.993 216.355 256.401L217.639 281.25L201.42 300.625C200.501 301.723 200 303.09 200 304.5C200 305.91 200.501 307.277 201.42 308.375L217.643 327.75ZM229.173 287.167C230.161 285.987 230.664 284.499 230.585 282.985L229.433 260.755L251.758 254.94C253.278 254.544 254.594 253.624 255.455 252.355L268.1 233.722L289.713 241.649C291.184 242.189 292.811 242.189 294.283 241.649L315.891 233.722L328.536 252.355C329.397 253.624 330.712 254.544 332.232 254.94L354.557 260.755L353.41 282.985C353.332 284.499 353.834 285.987 354.822 287.167L369.337 304.5L354.828 321.833C353.84 323.013 353.337 324.501 353.416 326.015L354.568 348.245L332.243 354.06C330.723 354.456 329.407 355.376 328.546 356.645L315.901 375.278L294.293 367.351C292.822 366.812 291.195 366.812 289.724 367.351L268.11 375.278L255.466 356.645C254.604 355.376 253.289 354.456 251.769 354.06L229.444 348.245L230.596 326.015C230.675 324.501 230.172 323.013 229.184 321.833L214.664 304.5L229.173 287.167Z" fill="url(#paint1_linear_5105_12660)"/>
<path d="M264.501 299C268.753 299 272.91 297.797 276.446 295.545C279.981 293.292 282.737 290.09 284.364 286.344C285.991 282.598 286.416 278.477 285.587 274.5C284.757 270.523 282.709 266.871 279.702 264.004C276.696 261.137 272.865 259.185 268.694 258.394C264.523 257.603 260.201 258.009 256.272 259.561C252.344 261.112 248.986 263.74 246.623 267.111C244.261 270.482 243 274.446 243 278.5C243.006 283.935 245.274 289.146 249.305 292.989C253.335 296.833 258.801 298.994 264.501 299ZM264.501 270.461C266.169 270.461 267.799 270.933 269.186 271.816C270.573 272.7 271.653 273.956 272.291 275.425C272.929 276.894 273.096 278.511 272.77 280.071C272.445 281.63 271.642 283.063 270.462 284.187C269.283 285.312 267.78 286.077 266.144 286.387C264.508 286.697 262.813 286.538 261.272 285.929C259.731 285.32 258.414 284.29 257.488 282.967C256.561 281.645 256.067 280.09 256.067 278.5C256.07 276.368 256.959 274.324 258.54 272.817C260.122 271.31 262.265 270.462 264.501 270.461Z" fill="url(#paint2_linear_5105_12660)"/>
<path d="M294 335.5C294 339.555 295.232 343.518 297.539 346.889C299.847 350.261 303.127 352.888 306.964 354.44C310.801 355.991 315.024 356.397 319.097 355.606C323.171 354.815 326.913 352.862 329.85 349.995C332.786 347.128 334.786 343.475 335.597 339.499C336.407 335.522 335.991 331.4 334.401 327.654C332.812 323.908 330.12 320.707 326.666 318.454C323.213 316.202 319.152 315 314.999 315C309.431 315.006 304.094 317.168 300.157 321.011C296.22 324.854 294.006 330.065 294 335.5ZM323.236 335.5C323.236 337.09 322.752 338.645 321.847 339.967C320.942 341.289 319.656 342.32 318.151 342.928C316.646 343.537 314.99 343.696 313.392 343.386C311.794 343.076 310.327 342.31 309.175 341.186C308.023 340.061 307.238 338.628 306.921 337.069C306.603 335.509 306.766 333.892 307.389 332.423C308.013 330.954 309.068 329.698 310.423 328.815C311.777 327.931 313.37 327.459 314.999 327.459C317.183 327.462 319.276 328.31 320.821 329.817C322.365 331.324 323.233 333.368 323.236 335.5Z" fill="url(#paint3_linear_5105_12660)"/>
<path d="M264.919 344.996C266.346 345.892 268.084 346.205 269.751 345.867C271.418 345.529 272.878 344.567 273.809 343.193L320.956 273.571C321.417 272.89 321.735 272.128 321.89 271.33C322.045 270.531 322.036 269.71 321.862 268.915C321.688 268.119 321.354 267.365 320.877 266.694C320.4 266.023 319.791 265.449 319.084 265.005C318.377 264.561 317.587 264.256 316.757 264.106C315.928 263.956 315.076 263.965 314.25 264.133C313.424 264.3 312.64 264.622 311.944 265.082C311.247 265.541 310.651 266.127 310.19 266.808L263.043 336.43C262.582 337.111 262.265 337.873 262.11 338.672C261.954 339.471 261.964 340.292 262.138 341.088C262.312 341.883 262.648 342.638 263.125 343.308C263.602 343.979 264.211 344.553 264.919 344.996Z" fill="url(#paint4_linear_5105_12660)"/>
<defs>
<linearGradient id="paint0_linear_5105_12660" x1="285" y1="495.65" x2="285" y2="-37.7651" gradientUnits="userSpaceOnUse">
<stop offset="0.322" stop-color="#A882DD"/>
<stop offset="0.466" stop-color="#B074EE"/>
<stop offset="0.752" stop-color="#D8A1DD"/>
<stop offset="0.898" stop-color="#EFBAD3"/>
</linearGradient>
<linearGradient id="paint1_linear_5105_12660" x1="291.998" y1="467.151" x2="291.998" y2="9.00299" gradientUnits="userSpaceOnUse">
<stop offset="0.322" stop-color="#A163F5"/>
<stop offset="0.466" stop-color="#B074EE"/>
<stop offset="0.752" stop-color="#D8A1DD"/>
<stop offset="0.898" stop-color="#EFBAD3"/>
</linearGradient>
<linearGradient id="paint2_linear_5105_12660" x1="264.5" y1="470.519" x2="264.5" y2="8.43043" gradientUnits="userSpaceOnUse">
<stop offset="0.322" stop-color="#A163F5"/>
<stop offset="0.466" stop-color="#B074EE"/>
<stop offset="0.752" stop-color="#D8A1DD"/>
<stop offset="0.898" stop-color="#EFBAD3"/>
</linearGradient>
<linearGradient id="paint3_linear_5105_12660" x1="314.999" y1="470.439" x2="314.999" y2="8.35042" gradientUnits="userSpaceOnUse">
<stop offset="0.322" stop-color="#A163F5"/>
<stop offset="0.466" stop-color="#B074EE"/>
<stop offset="0.752" stop-color="#D8A1DD"/>
<stop offset="0.898" stop-color="#EFBAD3"/>
</linearGradient>
<linearGradient id="paint4_linear_5105_12660" x1="292.003" y1="469.694" x2="292.003" y2="10.6048" gradientUnits="userSpaceOnUse">
<stop offset="0.322" stop-color="#A163F5"/>
<stop offset="0.466" stop-color="#B074EE"/>
<stop offset="0.752" stop-color="#D8A1DD"/>
<stop offset="0.898" stop-color="#EFBAD3"/>
</linearGradient>
</defs>
</svg>
