<svg width="130" height="130" viewBox="0 0 130 130" fill="none" xmlns="http://www.w3.org/2000/svg">
<circle cx="65" cy="65" r="65" fill="#F3F4F5"/>
<circle cx="65" cy="65" r="50" fill="#7BE0B8"/>
<path d="M81.4066 72.2015V57.7985C81.406 57.1671 81.2393 56.5469 80.9233 56.0002C80.6073 55.4536 80.1531 54.9996 79.6063 54.6839L67.0037 47.4824C66.4563 47.1664 65.8354 47 65.2033 47C64.5713 47 63.9503 47.1664 63.403 47.4824L50.8004 54.6839C50.2535 54.9996 49.7993 55.4536 49.4833 56.0002C49.1673 56.5469 49.0006 57.1671 49 57.7985V72.2015C49.0006 72.8329 49.1673 73.4531 49.4833 73.9998C49.7993 74.5464 50.2535 75.0004 50.8004 75.3161L63.403 82.5176C63.9503 82.8336 64.5713 83 65.2033 83C65.8354 83 66.4563 82.8336 67.0037 82.5176L79.6063 75.3161C80.1531 75.0004 80.6073 74.5464 80.9233 73.9998C81.2393 73.4531 81.406 72.8329 81.4066 72.2015Z" fill="#49D49D" stroke="#212529" strokeWidth="1.5" strokeLinecap="round" strokeLinejoin="round"/>
<path d="M61 61L70 70" stroke="#212529" strokeWidth="1.5" strokeLinecap="round" strokeLinejoin="round"/>
<path d="M61 70L70 61" stroke="#212529" strokeWidth="1.5" strokeLinecap="round" strokeLinejoin="round"/>
</svg>
