<svg width="70" height="59" viewBox="0 0 70 59" fill="none" xmlns="http://www.w3.org/2000/svg">
<path d="M2 9.99999C2 5.58172 5.58172 2 10 2H60C64.4183 2 68 5.58172 68 10V48.3333C68 52.7516 64.4183 56.3333 60 56.3333H10C5.58172 56.3333 2 52.7516 2 48.3333V9.99999Z" stroke="#D3C0EE" stroke-width="4"/>
<path fill-rule="evenodd" clip-rule="evenodd" d="M28.1974 12.3154H40.8363C42.1326 17.5006 47.966 19.121 47.966 19.121V33.7043C46.9937 36.513 42.9752 42.908 34.6789 46.0191C31.6542 44.7228 24.8919 40.4451 22.04 33.7043V19.121C23.7684 18.5809 27.4197 16.4636 28.1974 12.3154ZM34.0794 34.334L43.6072 24.8062L41.9573 23.1562L33.9852 31.1284L28.974 26.674L27.4238 28.418L34.0794 34.334Z" fill="#844FCF"/>
<path d="M40.8363 12.3154L41.3214 12.1942L41.2267 11.8154H40.8363V12.3154ZM28.1974 12.3154V11.8154H27.7825L27.706 12.2233L28.1974 12.3154ZM47.966 19.121H48.466V18.7409L48.0998 18.6392L47.966 19.121ZM47.966 33.7043L48.4385 33.8679L48.466 33.7884V33.7043H47.966ZM34.6789 46.0191L34.482 46.4787L34.6665 46.5578L34.8545 46.4873L34.6789 46.0191ZM22.04 33.7043H21.54V33.8057L21.5796 33.8991L22.04 33.7043ZM22.04 19.121L21.8909 18.6437L21.54 18.7534V19.121H22.04ZM43.6072 24.8062L43.9608 25.1597L44.3143 24.8062L43.9608 24.4526L43.6072 24.8062ZM34.0794 34.334L33.7472 34.7077L34.0995 35.0209L34.4329 34.6876L34.0794 34.334ZM41.9573 23.1562L42.3108 22.8027L41.9573 22.4491L41.6037 22.8027L41.9573 23.1562ZM33.9852 31.1284L33.653 31.5021L34.0053 31.8153L34.3387 31.4819L33.9852 31.1284ZM28.974 26.674L29.3062 26.3003L28.9325 25.9682L28.6003 26.3419L28.974 26.674ZM27.4238 28.418L27.0501 28.0858L26.7179 28.4595L27.0916 28.7917L27.4238 28.418ZM40.8363 11.8154H28.1974V12.8154H40.8363V11.8154ZM47.966 19.121C48.0998 18.6392 48.0999 18.6393 48.1001 18.6393C48.1001 18.6393 48.1002 18.6393 48.1002 18.6394C48.1003 18.6394 48.1003 18.6394 48.1002 18.6393C48.1 18.6393 48.0994 18.6391 48.0985 18.6389C48.0967 18.6383 48.0935 18.6374 48.0889 18.6361C48.0799 18.6335 48.0655 18.6292 48.0461 18.6233C48.0072 18.6114 47.9484 18.5929 47.872 18.5673C47.7192 18.5159 47.4966 18.4361 47.2242 18.3243C46.6786 18.1002 45.938 17.7493 45.1598 17.2434C43.5984 16.2286 41.9276 14.6189 41.3214 12.1942L40.3513 12.4367C41.0414 15.1971 42.9353 16.9902 44.6148 18.0819C45.4569 18.6293 46.2556 19.0075 46.8443 19.2493C47.139 19.3704 47.3823 19.4577 47.5536 19.5152C47.6392 19.544 47.7069 19.5653 47.7542 19.5798C47.7778 19.587 47.7964 19.5924 47.8095 19.5963C47.816 19.5982 47.8212 19.5996 47.825 19.6007C47.8269 19.6013 47.8284 19.6017 47.8296 19.602C47.8302 19.6022 47.8307 19.6024 47.8312 19.6025C47.8314 19.6025 47.8316 19.6026 47.8317 19.6026C47.8319 19.6027 47.8321 19.6027 47.966 19.121ZM48.466 33.7043V19.121H47.466V33.7043H48.466ZM34.8545 46.4873C43.3077 43.3173 47.424 36.7984 48.4385 33.8679L47.4935 33.5408C46.5635 36.2275 42.6427 42.4987 34.5034 45.551L34.8545 46.4873ZM21.5796 33.8991C23.0448 37.3625 25.5065 40.1767 27.9697 42.2834C30.4324 44.3896 32.9222 45.8102 34.482 46.4787L34.8759 45.5596C33.411 44.9317 31.0072 43.5653 28.6196 41.5234C26.2326 39.4819 23.8871 36.7869 22.5005 33.5095L21.5796 33.8991ZM21.54 19.121V33.7043H22.54V19.121H21.54ZM27.706 12.2233C26.9762 16.1159 23.5283 18.1321 21.8909 18.6437L22.1892 19.5982C24.0086 19.0297 27.8632 16.8113 28.6889 12.4076L27.706 12.2233ZM43.2537 24.4526L33.7258 33.9805L34.4329 34.6876L43.9608 25.1597L43.2537 24.4526ZM41.6037 23.5098L43.2537 25.1597L43.9608 24.4526L42.3108 22.8027L41.6037 23.5098ZM34.3387 31.4819L42.3108 23.5098L41.6037 22.8027L33.6316 30.7748L34.3387 31.4819ZM28.6418 27.0478L33.653 31.5021L34.3173 30.7547L29.3062 26.3003L28.6418 27.0478ZM27.7975 28.7502L29.3477 27.0062L28.6003 26.3419L27.0501 28.0858L27.7975 28.7502ZM34.4115 33.9603L27.756 28.0443L27.0916 28.7917L33.7472 34.7077L34.4115 33.9603Z" fill="#212529"/>
<circle cx="12.314" cy="27.8716" r="2.74074" stroke="#D3C0EE"/>
<circle cx="57.6861" cy="27.8716" r="2.74074" stroke="#D3C0EE"/>
</svg>
