<svg width="304" height="52" viewBox="0 0 304 52" fill="none" xmlns="http://www.w3.org/2000/svg">
<path d="M19.637 0.599997C31.877 0.599997 37.493 6.792 37.493 15.648C37.493 24.648 31.877 31.128 19.637 31.128H9.84497V51H0.412969V0.599997H19.637ZM19.997 22.848C25.613 22.848 27.629 20.976 27.629 15.864C27.629 11.04 25.613 8.952 19.997 8.952H9.84497V22.848H19.997ZM63.3545 15.144C64.6505 15.144 66.3065 15.144 67.6025 15.648V24.288C66.3065 23.784 65.1545 23.568 62.8505 23.568C57.0905 23.568 53.0585 27.456 53.0585 36.384V51H43.9145V15.72H53.0585V25.728C53.9945 20.4 56.5865 15.144 63.3545 15.144ZM89.3678 15C99.6638 15 108.232 22.128 108.232 33.432C108.232 44.664 99.6638 51.72 89.3678 51.72C78.9998 51.72 70.4318 44.664 70.4318 33.432C70.4318 22.128 78.9998 15 89.3678 15ZM89.3678 43.44C96.1358 43.44 99.0158 40.344 99.0158 33.432C99.0158 26.376 96.1358 23.28 89.3678 23.28C82.5998 23.28 79.6478 26.376 79.6478 33.432C79.6478 40.344 82.5998 43.44 89.3678 43.44ZM141.689 0.599997H150.833V51H141.689V43.296C139.529 48.696 135.281 51.72 129.449 51.72C119.369 51.72 113.393 44.376 113.393 33.432C113.393 22.344 119.153 15 129.017 15C135.065 15 139.457 18.096 141.689 23.64V0.599997ZM132.185 43.44C139.025 43.44 141.977 40.344 141.977 33.432C141.977 26.376 139.025 23.28 132.185 23.28C125.561 23.28 122.609 26.376 122.609 33.432C122.609 40.344 125.561 43.44 132.185 43.44ZM185.1 15.72H194.244V51H185.1V42.72C183.372 48.48 179.7 51.72 173.364 51.72C165.012 51.72 160.836 46.752 160.836 36.816V15.72H169.98V36.312C169.98 41.064 172.428 43.44 176.748 43.44C181.86 43.44 185.1 39.84 185.1 32.568V15.72ZM220.563 43.44C225.603 43.44 228.051 41.496 229.203 35.592L238.203 37.752C235.755 47.76 228.771 51.72 220.563 51.72C209.547 51.72 201.987 44.376 201.987 33.432C201.987 22.344 209.547 15 220.563 15C229.131 15 235.899 19.32 238.203 28.968L229.203 31.128C228.123 25.224 225.675 23.28 220.563 23.28C214.011 23.28 211.203 26.304 211.203 33.432C211.203 40.416 214.011 43.44 220.563 43.44ZM268.241 23.784H258.017V42.936H267.377V51H259.817C253.265 51 248.873 46.608 248.873 40.056V23.784H242.105V15.72H248.873V5.208H258.017V15.72H268.241V23.784ZM288.052 51.72C278.98 51.72 273.508 47.04 272.5 41.28L281.572 38.904C282.22 43.512 284.596 44.736 288.628 44.736C292.516 44.736 294.388 43.584 294.388 41.136C294.388 38.976 293.38 37.896 289.204 37.248L283.3 36.312C277.036 35.304 273.292 31.776 273.292 25.728C273.292 18.96 278.548 15 287.404 15C296.908 15 301.588 18.96 302.74 25.368L293.668 27.312C293.236 22.704 291.364 21.624 287.692 21.624C284.092 21.624 282.436 22.776 282.436 25.296C282.436 27.24 283.444 28.464 286.9 28.968L294.028 30.048C299.86 30.84 303.46 34.368 303.46 40.128C303.46 47.4 297.772 51.72 288.052 51.72Z" fill="url(#paint0_linear_508_6263)"/>
<defs>
<linearGradient id="paint0_linear_508_6263" x1="150.186" y1="-0.354546" x2="150.186" y2="65" gradientUnits="userSpaceOnUse">
<stop stop-color="#E8EDF1"/>
<stop offset="1" stop-color="#E8EDF1" stop-opacity="0"/>
</linearGradient>
</defs>
</svg>
