<svg width="502" height="502" viewBox="0 0 502 502" fill="none" xmlns="http://www.w3.org/2000/svg">
<path d="M48.5004 226.4L38.9004 223.6C53.9004 172.7 86.8004 128.7 131.7 99.8999L137.1 108.3C94.3004 135.8 62.8004 177.8 48.5004 226.4Z" fill="#0074FF"/>
<path d="M436.501 185.4C419.401 154 394.501 127.2 364.301 107.9L369.701 99.5C401.301 119.7 427.501 147.7 445.301 180.6L436.501 185.4Z" fill="#0074FF"/>
<path d="M251 206.7L210 182.7C181.6 166.1 164 135.4 164 102.6V50.2H174C194.9 50.2 214.9 41.2 228.7 25.4L251 0L273.3 25.4C287.1 41.1 307.1 50.2 328 50.2H338V102.7C338 135.5 320.4 166.2 292 182.8L251 206.7Z" fill="#0074FF"/>
<path d="M184 69.5998V102.6C184 128.4 197.8 152.4 220.1 165.4L251 183.5L281.9 165.4C304.1 152.4 318 128.3 318 102.6V69.5998C295 67.0998 273.7 56.0998 258.3 38.5998L251 30.2998L243.7 38.5998C228.3 56.0998 207 67.0998 184 69.5998Z" fill="#4C63AE"/>
<path d="M258.3 38.5998L251 30.2998V183.6L281.9 165.5C304.2 152.4 318 128.5 318 102.7V69.6998C295 67.0998 273.7 56.0998 258.3 38.5998Z" fill="#1F3F77"/>
<path d="M354 302L64 241V441L354 502V302Z" fill="#3A944A"/>
<path d="M354 302L64 256V441L354 502V302Z" fill="#2B6E37"/>
<path d="M354 302L25 266.7V466.7L354 502V302Z" fill="#3A944A"/>
<path d="M354 302L25 283.7V466.7L354 502V302Z" fill="#2B6E37"/>
<path d="M0 302H354V502H0V302Z" fill="#3A944A"/>
<path d="M304 327H50C50 340.8 38.8 352 25 352V452C38.8 452 50 463.2 50 477H304C304 463.2 315.2 452 329 452V352C315.2 352 304 340.8 304 327Z" fill="#4EC864"/>
<path d="M177 452C204.614 452 227 429.614 227 402C227 374.386 204.614 352 177 352C149.386 352 127 374.386 127 402C127 429.614 149.386 452 177 452Z" fill="#3A944A"/>
<path d="M57 397H97V407H57V397Z" fill="#3A944A"/>
<path d="M257 397H297V407H257V397Z" fill="#3A944A"/>
<path d="M334 452H354V502H334C328.5 502 324 497.5 324 492V462C324 456.5 328.5 452 334 452Z" fill="#2B6E37"/>
<path d="M309 402H354V452H309C303.5 452 299 447.5 299 442V412C299 406.5 303.5 402 309 402Z" fill="#2B6E37"/>
<path d="M334 352H354V402H334C328.5 402 324 397.5 324 392V362C324 356.5 328.5 352 334 352Z" fill="#2B6E37"/>
<path d="M353.998 351.6V302L286.898 287.9C292.198 321.6 319.698 348 353.998 351.6Z" fill="#2B6E37"/>
<path d="M240.999 140.3C239.799 140.3 238.699 139.9 237.699 139.1L209.699 114.8L216.299 107.3L240.999 128.8L286.699 89L293.299 96.5L244.299 139.2C243.299 139.9 242.199 140.3 240.999 140.3Z" fill="#EBEADF"/>
<path d="M364 452H492C497.5 452 502 456.5 502 462V492C502 497.5 497.5 502 492 502H364C358.5 502 354 497.5 354 492V462C354 456.5 358.5 452 364 452Z" fill="#F8D707"/>
<path d="M339 402H467C472.5 402 477 406.5 477 412V442C477 447.5 472.5 452 467 452H339C333.5 452 329 447.5 329 442V412C329 406.5 333.5 402 339 402Z" fill="#F8D707"/>
<path d="M339 402H467C472.5 402 477 406.5 477 412V417C477 422.5 472.5 427 467 427H339C333.5 427 329 422.5 329 417V412C329 406.5 333.5 402 339 402Z" fill="#FFFA5A"/>
<path d="M364 352H492C497.5 352 502 356.5 502 362V392C502 397.5 497.5 402 492 402H364C358.5 402 354 397.5 354 392V362C354 356.5 358.5 352 364 352Z" fill="#F8D707"/>
<path d="M364 352H492C497.5 352 502 356.5 502 362V367C502 372.5 497.5 377 492 377H364C358.5 377 354 372.5 354 367V362C354 356.5 358.5 352 364 352Z" fill="#FFFA5A"/>
<path d="M364 452H492C497.5 452 502 456.5 502 462V467C502 472.5 497.5 477 492 477H364C358.5 477 354 472.5 354 467V462C354 456.5 358.5 452 364 452Z" fill="#FFFA5A"/>
<path d="M379 352H389V402H379V352Z" fill="#EDA900"/>
<path d="M408 352H418V402H408V352Z" fill="#EDA900"/>
<path d="M438 352H448V402H438V352Z" fill="#EDA900"/>
<path d="M467 352H477V402H467V352Z" fill="#EDA900"/>
<path d="M379 452H389V502H379V452Z" fill="#EDA900"/>
<path d="M408 452H418V502H408V452Z" fill="#EDA900"/>
<path d="M438 452H448V502H438V452Z" fill="#EDA900"/>
<path d="M467 452H477V502H467V452Z" fill="#EDA900"/>
<path d="M349 402H359V452H349V402Z" fill="#EDA900"/>
<path d="M373 402H383V452H373V402Z" fill="#EDA900"/>
<path d="M398 402H408V452H398V402Z" fill="#EDA900"/>
<path d="M423 402H433V452H423V402Z" fill="#EDA900"/>
<path d="M447 402H457V452H447V402Z" fill="#EDA900"/>
<path d="M392 200H426C468 200 502 234 502 276C502 318 468 352 426 352H392C350 352 316 318 316 276C316 234 350 200 392 200Z" fill="#EDA900"/>
<path d="M331.5 230H395V220H340.6C337.3 223.1 334.3 226.4 331.5 230Z" fill="#F8D707"/>
<path d="M453.098 205C444.698 201.8 435.498 200 425.998 200H391.998C382.398 200 373.298 201.8 364.898 205H453.098Z" fill="#F8D707"/>
<path d="M364.898 347C373.298 350.2 382.498 352 391.998 352H425.998C435.598 352 444.698 350.2 453.098 347H364.898Z" fill="#F8D707"/>
<path d="M318.699 256H362.999V246H322.199C320.799 249.2 319.599 252.6 318.699 256Z" fill="#F8D707"/>
<path d="M316 276C316 277.7 316.1 279.3 316.2 281H355V271H316.2C316.1 272.7 316 274.3 316 276Z" fill="#F8D707"/>
<path d="M322.199 306H362.999V296H318.699C319.599 299.4 320.799 302.8 322.199 306Z" fill="#F8D707"/>
<path d="M340.6 332H395V322H331.5C334.3 325.6 337.3 328.9 340.6 332Z" fill="#F8D707"/>
<path d="M426 200H414C372 200 338 234 338 276C338 318 372 352 414 352H426C468 352 502 318 502 276C502 234 468 200 426 200Z" fill="#FFFA5A"/>
<path d="M426 352C467.974 352 502 317.974 502 276C502 234.026 467.974 200 426 200C384.026 200 350 234.026 350 276C350 317.974 384.026 352 426 352Z" fill="#F8D707"/>
<path d="M426 326C453.614 326 476 303.614 476 276C476 248.386 453.614 226 426 226C398.386 226 376 248.386 376 276C376 303.614 398.386 326 426 326Z" fill="#EDA900"/>
<path d="M426 226C424 226 422 226.1 420 226.4C444.8 229.4 464 250.4 464 276C464 301.6 444.8 322.7 420 325.6C422 325.8 424 326 426 326C453.6 326 476 303.6 476 276C476 248.4 453.6 226 426 226Z" fill="#FFFA5A"/>
<path d="M426.347 307.788C425.357 307.788 424.418 307.375 423.748 306.653L403.949 285.328C402.618 283.894 402.701 281.646 404.134 280.316C404.794 279.708 405.65 279.367 406.547 279.367H416.344C419.747 279.367 422.83 277.367 424.222 274.273H409.827C407.867 274.242 406.3 272.623 406.341 270.664C406.372 268.746 407.919 267.209 409.827 267.179H424.212C422.809 264.085 419.737 262.095 416.344 262.095H406.547C404.588 262.095 403 260.507 403 258.547C403 256.588 404.588 255 406.547 255H437.453C439.412 255 441 256.588 441 258.547C441 260.507 439.412 262.095 437.453 262.095H429.492C430.513 263.642 431.255 265.364 431.668 267.179H437.463C439.422 267.209 440.99 268.828 440.948 270.788C440.918 272.706 439.371 274.242 437.463 274.273H431.678C430.018 281.409 423.665 286.462 416.344 286.472H414.694L428.955 301.837C430.286 303.271 430.203 305.519 428.77 306.849C428.11 307.447 427.244 307.788 426.347 307.788Z" fill="#FFFA5A"/>
</svg>
