<svg width="48" height="39" viewBox="0 0 48 39" fill="none" xmlns="http://www.w3.org/2000/svg">
<path d="M9.21436 21.4477V22.828C9.21436 24.048 9.68919 25.2337 10.606 26.0386C22.8133 36.7556 37.6938 31.2196 45.2342 26.0423C46.3831 25.2535 47.0001 23.9228 47.0001 22.5292V16.3728C47.0001 15.6587 46.8295 14.9439 46.3047 14.4596C45.5689 13.7805 44.2362 12.8671 42.0715 12.0012" stroke="#212529" strokeWidth="1.5" strokeLinecap="round" strokeLinejoin="round"/>
<path d="M38.7856 29.6619V30.6052C38.7856 32.0769 38.0912 33.4843 36.8322 34.2465C24.6814 41.6026 10.2033 37.4641 2.78076 32.5935C1.61565 31.8289 0.999932 30.4942 0.999932 29.1006V22.9442C0.999932 22.2301 1.11315 21.5034 1.40377 20.8511C1.87207 19.7999 2.83483 18.2494 5.10707 17.3405" stroke="#212529" strokeWidth="1.5" strokeLinecap="round" strokeLinejoin="round"/>
<path d="M5.51782 16.5614V10.2031C5.51782 8.75008 6.20006 7.36476 7.41016 6.56053C22.0485 -3.16802 34.7882 1.86331 40.6573 6.6257C41.6047 7.3944 42.0714 8.5794 42.0714 9.79939V17.0268C42.0714 18.5123 41.3585 19.927 40.0988 20.7145C26.0767 29.4801 13.1812 24.489 7.05861 19.8563C6.03613 19.0827 5.51782 17.8436 5.51782 16.5614Z" fill="#7BE0B8" stroke="#212529" strokeWidth="1.5" strokeLinecap="round" strokeLinejoin="round"/>
<path d="M26.4643 5.42969C27.6964 7.07255 27.3536 11.4404 20.125 11.769L27.6964 14.4654" stroke="#212529" strokeWidth="1.5" strokeLinecap="round" strokeLinejoin="round"/>
<path d="M19.4822 5.42969H28.9286" stroke="#212529" strokeWidth="1.5" strokeLinecap="round"/>
<path d="M19.4822 8.30469H28.9286" stroke="#212529" strokeWidth="1.5" strokeLinecap="round" strokeLinejoin="round"/>
<path d="M8.80347 15.6976C13.5951 19.1203 26.4642 23.9119 39.607 15.6976" stroke="#212529" strokeWidth="1.5" strokeLinecap="round" strokeLinejoin="round"/>
</svg>
