<svg width="16" height="16" viewBox="0 0 16 16" fill="none" xmlns="http://www.w3.org/2000/svg">
<g clip-path="url(#clip0_9570_18080)">
<path d="M0.667969 2.66797V6.66797H4.66797" stroke="#212529" stroke-width="1.5" stroke-linecap="round" stroke-linejoin="round"/>
<path d="M15.332 13.332V9.33203H11.332" stroke="#212529" stroke-width="1.5" stroke-linecap="round" stroke-linejoin="round"/>
<path d="M13.6613 5.99842C13.3232 5.04295 12.7485 4.18869 11.991 3.51537C11.2334 2.84205 10.3177 2.3716 9.32911 2.14793C8.34056 1.92426 7.31147 1.95465 6.33784 2.23627C5.36422 2.51789 4.4778 3.04157 3.7613 3.75842L0.667969 6.66509M15.3346 9.33176L12.2413 12.2384C11.5248 12.9553 10.6384 13.479 9.66476 13.7606C8.69114 14.0422 7.66204 14.0726 6.67349 13.8489C5.68495 13.6252 4.76917 13.1548 4.01161 12.4815C3.25406 11.8082 2.67941 10.9539 2.3413 9.99842" stroke="#212529" stroke-width="1.5" stroke-linecap="round" stroke-linejoin="round"/>
</g>
<defs>
<clipPath id="clip0_9570_18080">
<rect width="16" height="16" fill="white"/>
</clipPath>
</defs>
</svg>
