<svg width="30" height="32" viewBox="0 0 30 32" fill="none" xmlns="http://www.w3.org/2000/svg">
<g id="Group 48095800">
<path id="Rectangle 9821" d="M22.4141 16.0879C22.1379 16.0879 21.9141 16.3117 21.9141 16.5879V25.1173C21.9141 25.3934 22.1379 25.6173 22.4141 25.6173H25.2376C25.5137 25.6173 25.7376 25.3934 25.7376 25.1173V16.5879C25.7376 16.3117 25.5137 16.0879 25.2376 16.0879H22.4141Z" fill="#7BE0B8" stroke="#212529" stroke-linejoin="round"/>
<path id="Rectangle 9820" d="M4.41406 16.0879C4.13792 16.0879 3.91406 16.3117 3.91406 16.5879V25.1173C3.91406 25.3934 4.13792 25.6173 4.41406 25.6173H7.23759C7.51373 25.6173 7.73759 25.3934 7.73759 25.1173V16.5879C7.73759 16.3117 7.51373 16.0879 7.23759 16.0879H4.41406Z" fill="#7BE0B8" stroke="#212529" stroke-linejoin="round"/>
<path id="Rectangle 9815" d="M3.53125 12.8535C3.25511 12.8535 3.03125 13.0774 3.03125 13.3535V16.5888C3.03125 16.865 3.25511 17.0888 3.53125 17.0888H8.11949C8.39563 17.0888 8.61949 16.865 8.61949 16.5888V13.3535C8.61949 13.0774 8.39563 12.8535 8.11949 12.8535H3.53125Z" fill="#7BE0B8" stroke="#212529" stroke-linejoin="round"/>
<path id="Rectangle 9816" d="M21.5312 12.8535C21.2551 12.8535 21.0312 13.0774 21.0312 13.3535V16.5888C21.0312 16.865 21.2551 17.0888 21.5312 17.0888H26.1195C26.3956 17.0888 26.6195 16.865 26.6195 16.5888V13.3535C26.6195 13.0774 26.3956 12.8535 26.1195 12.8535H21.5312Z" fill="#7BE0B8" stroke="#212529" stroke-linejoin="round"/>
<path id="Rectangle 9817" d="M3.53125 24.6172C3.25511 24.6172 3.03125 24.841 3.03125 25.1172V28.3525C3.03125 28.6286 3.25511 28.8525 3.53125 28.8525H8.11949C8.39563 28.8525 8.61949 28.6286 8.61949 28.3525V25.1172C8.61949 24.841 8.39563 24.6172 8.11949 24.6172H3.53125Z" fill="#7BE0B8" stroke="#212529" stroke-linejoin="round"/>
<path id="Rectangle 9818" d="M21.5312 24.6172C21.2551 24.6172 21.0312 24.841 21.0312 25.1172V28.3525C21.0312 28.6286 21.2551 28.8525 21.5312 28.8525H26.1195C26.3956 28.8525 26.6195 28.6286 26.6195 28.3525V25.1172C26.6195 24.841 26.3956 24.6172 26.1195 24.6172H21.5312Z" fill="#7BE0B8" stroke="#212529" stroke-linejoin="round"/>
<path id="Vector 3545" d="M15.3038 0.627172C15.1148 0.458278 14.8293 0.457528 14.6394 0.625426L0.668798 12.9784C0.513103 13.116 0.458803 13.3357 0.532407 13.53C0.606011 13.7244 0.79217 13.8529 1 13.8529H28.7941C29.0015 13.8529 29.1873 13.725 29.2612 13.5312C29.3352 13.3375 29.2819 13.1183 29.1273 12.9801L15.3038 0.627172Z" fill="#7BE0B8" stroke="#212529" stroke-linecap="round" stroke-linejoin="round"/>
<path id="Vector 3546" d="M15.3634 4.62123C15.1766 4.46024 14.9003 4.45952 14.7126 4.61952L7.67559 10.6195C7.51619 10.7554 7.45841 10.9763 7.53083 11.1729C7.60325 11.3694 7.79052 11.5 8 11.5H22C22.209 11.5 22.3959 11.37 22.4687 11.1741C22.5415 10.9782 22.4847 10.7577 22.3264 10.6212L15.3634 4.62123Z" stroke="#212529" stroke-linecap="round" stroke-linejoin="round"/>
<rect id="Rectangle 9819" x="-0.5" y="0.5" width="26.5882" height="3.64706" transform="matrix(1 0 0 -1 2.17188 32)" fill="#7BE0B8" stroke="#212529" stroke-linejoin="round"/>
<path id="Vector 271" d="M16.0381 17.7656C16.5896 18.8886 16.8837 21.1908 13.6484 21.4154L16.5896 23.9421" stroke="#212529" stroke-linecap="round" stroke-linejoin="round"/>
<path id="Vector 272" d="M12.1719 17.7656H17.7601" stroke="#212529" stroke-linecap="round" stroke-linejoin="round"/>
<path id="Vector 273" d="M12.1719 19.5293H17.7601" stroke="#212529" stroke-linecap="round" stroke-linejoin="round"/>
</g>
</svg>
