<svg width="512" height="512" viewBox="0 0 512 512" fill="none" xmlns="http://www.w3.org/2000/svg">
<g clip-path="url(#clip0_5105_12645)">
<path d="M388.941 512.079C321.086 512.079 265.883 454.188 265.883 383.032C265.883 311.871 321.086 253.98 388.941 253.98C456.796 253.98 512 311.871 512 383.032C512 454.188 456.796 512.079 388.941 512.079ZM388.941 261.747C325.171 261.747 273.289 316.157 273.289 383.032C273.289 449.907 325.171 504.312 388.941 504.312C452.712 504.312 504.593 449.907 504.593 383.032C504.593 316.157 452.712 261.747 388.941 261.747Z" fill="#A882DD"/>
<path d="M388.946 484.957C442.626 484.957 486.142 439.323 486.142 383.029C486.142 326.736 442.626 281.102 388.946 281.102C335.266 281.102 291.75 326.736 291.75 383.029C291.75 439.323 335.266 484.957 388.946 484.957Z" fill="#ECE3FF"/>
<path d="M388.946 488.842C333.311 488.842 288.047 441.376 288.047 383.03C288.047 324.684 333.311 277.219 388.946 277.219C444.582 277.219 489.844 324.684 489.844 383.03C489.844 441.376 444.582 488.842 388.946 488.842ZM388.946 284.986C337.394 284.986 295.453 328.97 295.453 383.03C295.453 437.091 337.394 481.075 388.946 481.075C440.497 481.075 482.437 437.091 482.437 383.03C482.437 328.97 440.497 284.986 388.946 284.986Z" fill="#A882DD"/>
<path d="M478.81 418.69L382.859 387.024V279.434H390.266V381.328L481.034 411.28L478.81 418.69Z" fill="#A882DD"/>
<path d="M397.39 484.685L385.035 391.115L312.527 446.12L308.188 439.824L390.68 377.25L404.727 483.623L397.39 484.685Z" fill="#A882DD"/>
<path d="M354.859 512.07H38V58.8984H120.725V66.6653H45.4063V504.303H354.859V512.07Z" fill="#A882DD"/>
<path d="M358.569 262.811H351.163V66.6653H275.844V58.8984H358.569V262.811Z" fill="#A882DD"/>
<path d="M299.016 286.715H275.504V203.563H299.016V286.715Z" fill="#ECE3FF"/>
<path d="M302.707 290.591H271.789V199.672H302.707V290.591ZM279.195 282.824H295.301V207.439H279.195V282.824Z" fill="#A882DD"/>
<path d="M258.205 290.598H227.289V151.66H258.205V290.598ZM234.695 282.831H250.799V159.427H234.695V282.831Z" fill="#A882DD"/>
<path d="M210.055 286.715H186.544V176.624H210.055V286.715Z" fill="#ECE3FF"/>
<path d="M213.744 290.602H182.828V172.746H213.744V290.602ZM190.234 282.835H206.338V180.513H190.234V282.835Z" fill="#A882DD"/>
<path d="M169.252 290.605H138.336V126.785H169.252V290.605ZM145.742 282.838H161.846V134.552H145.742V282.838Z" fill="#A882DD"/>
<path d="M121.086 286.715H97.5748V212.01H121.086V286.715Z" fill="#ECE3FF"/>
<path d="M124.775 290.594H93.8594V208.121H124.775V290.594ZM101.266 282.827H117.369V215.888H101.266V282.827Z" fill="#A882DD"/>
<path d="M260.787 40.6492H228.954C223.787 40.6492 219.406 37.1673 217.394 32.1765C214.243 24.3643 206.866 18.8828 198.269 18.8828C189.671 18.8828 182.295 24.3643 179.144 32.1765C177.131 37.1673 172.751 40.6492 167.583 40.6492H135.752C127.445 40.6492 120.711 47.7109 120.711 56.4222V91.9321H275.827V56.4213C275.827 47.7106 269.093 40.6492 260.787 40.6492Z" fill="#ECE3FF"/>
<path d="M279.529 95.8158H117.008V56.4243C117.008 45.5856 125.416 36.7683 135.751 36.7683H167.582C171.092 36.7683 174.215 34.4322 175.733 30.6664C179.57 21.1513 188.416 15 198.269 15C208.12 15 216.965 21.1513 220.804 30.6664C222.323 34.4322 225.444 36.7683 228.953 36.7683H260.786C271.121 36.7683 279.529 45.5856 279.529 56.4243V95.8158ZM124.414 88.049H272.123V56.4243C272.123 49.8672 267.037 44.5351 260.786 44.5351H228.953C222.514 44.5351 216.64 40.2801 213.983 33.6927C211.306 27.056 205.138 22.7668 198.269 22.7668C191.398 22.7668 185.23 27.056 182.554 33.6927C179.898 40.2801 174.021 44.5351 167.582 44.5351H135.751C129.5 44.5351 124.414 49.8672 124.414 56.4243V88.049Z" fill="#A882DD"/>
<path d="M94.8438 326.176H278.148V333.943H94.8438V326.176Z" fill="#A882DD"/>
<path d="M94.8438 359.789H269.768V367.556H94.8438V359.789Z" fill="#A882DD"/>
<path d="M94.8438 393.422H269.587V401.189H94.8438V393.422Z" fill="#A882DD"/>
<path d="M94.8438 427.051H226.038V434.818H94.8438V427.051Z" fill="#A882DD"/>
<path d="M311.69 482.301H63.8594V75.5898H120.708V83.3567H71.2656V474.534H311.69V482.301Z" fill="#A882DD"/>
<path d="M332.694 274.793H325.288V83.3567H275.844V75.5898H332.694V274.793Z" fill="#A882DD"/>
</g>
<defs>
<clipPath id="clip0_5105_12645">
<rect width="512" height="512" fill="white"/>
</clipPath>
</defs>
</svg>
