<svg width="20" height="20" viewBox="0 0 20 20" fill="none" xmlns="http://www.w3.org/2000/svg">
<g id="ri-dashboard-2-fill" clip-path="url(#clip0_3134_378)">
<g id="Group">
<path id="Vector" d="M10.0003 1.66602C14.6028 1.66602 18.3337 5.39685 18.3337 9.99935C18.3337 14.6018 14.6028 18.3327 10.0003 18.3327C5.39783 18.3327 1.66699 14.6018 1.66699 9.99935C1.66699 5.39685 5.39783 1.66602 10.0003 1.66602ZM10.0003 4.16602C6.77866 4.16602 4.16699 6.77768 4.16699 9.99935C4.16699 11.5427 4.76699 12.9468 5.74533 13.9902L5.87533 14.1235L7.05366 12.946C6.30033 12.191 5.83366 11.1493 5.83366 9.99935C5.83366 7.69852 7.69949 5.83268 10.0003 5.83268C10.3737 5.83268 10.7353 5.88185 11.0795 5.97435L12.382 4.67268C11.6545 4.34768 10.8487 4.16602 10.0003 4.16602ZM15.327 7.61852L14.0262 8.92018C14.1178 9.26435 14.167 9.62602 14.167 9.99935C14.167 11.1493 13.7003 12.191 12.947 12.946L14.1253 14.1243C15.1803 13.0685 15.8337 11.6102 15.8337 9.99935C15.8337 9.15102 15.6528 8.34518 15.327 7.61852ZM13.5353 5.28518L10.4312 8.38852C10.2937 8.35185 10.1495 8.33268 10.0003 8.33268C9.07949 8.33268 8.33366 9.07852 8.33366 9.99935C8.33366 10.9202 9.07949 11.666 10.0003 11.666C10.9212 11.666 11.667 10.9202 11.667 9.99935C11.667 9.85018 11.6478 9.70602 11.6112 9.56852L14.7145 6.46352L13.5353 5.28518Z" fill="#0B77F3"/>
</g>
</g>
<defs>
<clipPath id="clip0_3134_378">
<rect width="20" height="20" fill="white"/>
</clipPath>
</defs>
</svg>
