<svg width="38" height="29" viewBox="0 0 38 29" fill="none" xmlns="http://www.w3.org/2000/svg">
<g id="Group 48095801">
<rect id="Rectangle 9824" x="0.5" y="7.69922" width="37" height="20.8" fill="#7BE0B8" stroke="#212529" stroke-linejoin="round"/>
<path id="Rectangle 9826" d="M37 1H1V6.76H37V1Z" fill="#7BE0B8"/>
<path id="Rectangle 9825" d="M37 6.76V1H1V6.76" stroke="#212529" stroke-linejoin="round"/>
<path id="Ellipse 1222" d="M11.1484 6.76C12.5164 3.35993 15.5172 1 18.999 1C22.4808 1 25.4816 3.35993 26.8496 6.76" stroke="#212529" stroke-linejoin="round"/>
<path id="Ellipse 1219" d="M18.9994 28.4992C24.109 28.4992 28.1394 23.7769 28.1394 18.0992C28.1394 12.4216 24.109 7.69922 18.9994 7.69922C13.8897 7.69922 9.85938 12.4216 9.85938 18.0992C9.85938 23.7769 13.8897 28.4992 18.9994 28.4992Z" fill="#7BE0B8" stroke="#212529" stroke-linejoin="round"/>
<path id="Vector 3547" d="M20.4327 13.9609C21.2169 15.5973 21.0775 18.9518 16.4766 19.2791L20.6592 22.9609" stroke="#212529" stroke-linecap="round" stroke-linejoin="round"/>
<path id="Vector 3548" d="M15.0391 13.9609H22.5991" stroke="#212529" stroke-linecap="round" stroke-linejoin="round"/>
<path id="Vector 3551" d="M15.0391 16.8398H22.5991" stroke="#212529" stroke-linecap="round" stroke-linejoin="round"/>
<circle id="Ellipse 1220" cx="32.1422" cy="18.4605" r="0.9" fill="#7BE0B8"/>
<circle id="Ellipse 1221" cx="5.86094" cy="18.4605" r="0.9" fill="#7BE0B8"/>
</g>
</svg>
