<svg width="36" height="36" viewBox="0 0 36 36" fill="none" xmlns="http://www.w3.org/2000/svg">
<path d="M18 36C27.9411 36 36 27.9411 36 18C36 8.05887 27.9411 0 18 0C8.05887 0 0 8.05887 0 18C0 27.9411 8.05887 36 18 36Z" fill="#B18FE0"/>
<path d="M30.96 17.9991C30.96 10.8415 25.1576 5.03906 18 5.03906" stroke="#212529" stroke-linecap="round" stroke-linejoin="round"/>
<path d="M5.03906 17.9991C5.03906 10.8415 10.8415 5.03906 17.9991 5.03906" stroke="#212529" stroke-linecap="round" stroke-linejoin="round" stroke-dasharray="2 4"/>
<path d="M17.0069 16.677L26.6398 9.35938C24.5875 12.4349 20.2444 18.9041 19.291 20.1767C19.2341 20.2526 19.1755 20.3214 19.1155 20.3835C17.675 21.8733 15.0968 18.9082 16.3712 17.274C16.5761 17.0113 16.8085 16.8081 17.0069 16.677Z" fill="#212529"/>
</svg>
