<svg width="36" height="37" viewBox="0 0 36 37" fill="none" xmlns="http://www.w3.org/2000/svg">
<ellipse cx="5.04951" cy="5.04956" rx="5.04951" ry="5.04956" transform="matrix(0.980726 0.195386 -0.195382 0.980727 14.7344 13.8491)" fill="#F2F5FA"/>
<path d="M29.5412 11.3723C24.5565 5.36769 15.6951 4.50176 9.74879 9.43817C5.43795 13.0169 3.84254 18.6626 5.19025 23.7853C4.1459 19.3262 5.58516 14.4778 9.32023 11.3771C14.6002 6.99394 22.4684 7.76282 26.8945 13.0945C28.9375 15.5555 29.89 18.5585 29.8041 21.5099L32.7539 21.8456C33.1172 18.2092 32.0723 14.4214 29.5412 11.3723Z" fill="url(#paint0_linear_2695_8035)"/>
<path d="M18.27 17.876L28.3575 13.3445C25.9485 15.6138 20.8576 20.3823 19.7653 21.3022C19.5988 21.4425 19.4302 21.5404 19.2623 21.6037C17.6839 22.199 16.2089 19.5933 17.42 18.419C17.6959 18.1515 18.0164 17.9709 18.27 17.876Z" fill="#2D2D2D"/>
<defs>
<linearGradient id="paint0_linear_2695_8035" x1="4.68605" y1="13.641" x2="28.8589" y2="24.4371" gradientUnits="userSpaceOnUse">
<stop stop-color="#A882DD"/>
<stop offset="1" stop-color="#49D49D"/>
</linearGradient>
</defs>
</svg>
