<svg width="70" height="70" viewBox="0 0 70 70" fill="none" xmlns="http://www.w3.org/2000/svg">
<path d="M40.3265 32.632H40.8265V32.132V28.0346C40.8265 25.0429 38.4013 22.6177 35.4096 22.6177C32.4179 22.6177 29.9927 25.0429 29.9927 28.0346V32.132V32.632H30.4927H40.3265ZM27.2148 32.632H27.7148V32.132V28.0346C27.7148 23.7848 31.1599 20.3397 35.4096 20.3397C39.6594 20.3397 43.1045 23.7848 43.1045 28.0346V32.132V32.632H43.6045H45.9759C47.1056 32.632 48.0214 33.5478 48.0214 34.6775V47.6152C48.0214 48.7449 47.1056 49.6607 45.9759 49.6607H24.8433C23.7136 49.6607 22.7979 48.7449 22.7979 47.6152V34.6775C22.7979 33.5478 23.7136 32.632 24.8433 32.632H27.2148ZM33.2706 39.0976C33.2706 40.1578 33.9179 41.0668 34.8388 41.4509L34.0998 45.1458L33.9802 45.7438H34.5901H37.0486H37.6585L37.5389 45.1458L36.7999 41.4509C37.7208 41.0667 38.3681 40.1578 38.3681 39.0976C38.3681 37.69 37.227 36.5489 35.8193 36.5489C34.4117 36.5489 33.2706 37.69 33.2706 39.0976Z" fill="#844FCF" stroke="#212529"/>
<circle cx="34.9987" cy="35.0006" r="31.1891" stroke="#D3C0EE" stroke-width="4" stroke-dasharray="30 10"/>
<circle opacity="0.5" cx="35" cy="35" r="26.1333" transform="rotate(-23.317 35 35)" stroke="#D3C0EE" stroke-dasharray="15 15"/>
</svg>
