<svg width="25" height="32" viewBox="0 0 25 32" fill="none" xmlns="http://www.w3.org/2000/svg">
<g id="Group 48095796">
<circle id="Ellipse 1256" cx="6.05006" cy="6.43483" r="4.09694" fill="#7BE0B8" stroke="#212529" stroke-linejoin="round"/>
<path id="Ellipse 1254" d="M4.25255 15.1223C6.32503 15.1223 8.0051 13.4422 8.0051 11.3697C8.0051 9.29726 6.32503 7.61719 4.25255 7.61719C2.18007 7.61719 0.5 9.29726 0.5 11.3697C0.5 13.4422 2.18007 15.1223 4.25255 15.1223Z" fill="#7BE0B8" stroke="#212529" stroke-linejoin="round"/>
<path id="Ellipse 1255" d="M18.6432 2.33669C20.7157 2.33669 22.3957 4.01677 22.3957 6.08925C22.3957 8.16172 20.7157 9.8418 18.6432 9.8418C16.5707 9.8418 14.8906 8.16172 14.8906 6.08925C14.8906 4.01677 16.5707 2.33669 18.6432 2.33669Z" fill="#7BE0B8" stroke="#212529" stroke-linejoin="round"/>
<path id="Ellipse 1259" d="M0.578125 30.9997C0.578125 31.2759 0.801983 31.4997 1.07812 31.4997H23.5781C23.8543 31.4997 24.0781 31.2759 24.0781 30.9997C24.0781 27.7391 22.7473 25.3109 20.5797 23.7137C18.4316 22.1309 15.5034 21.3926 12.3281 21.3926C9.15281 21.3926 6.22461 22.1309 4.07657 23.7137C1.90894 25.3109 0.578125 27.7391 0.578125 30.9997Z" fill="#7BE0B8" stroke="#212529" stroke-linejoin="round"/>
<rect id="Rectangle 9836" x="8.07812" y="7.3125" width="8.42347" height="21.4337" rx="4.21173" fill="#7BE0B8" stroke="#212529" stroke-linejoin="round"/>
<circle id="Ellipse 1257" cx="3.59694" cy="3.59694" r="4.09694" transform="matrix(1 0 0 -1 16.3047 14.623)" fill="#7BE0B8" stroke="#212529" stroke-linejoin="round"/>
<rect id="Rectangle 9835" x="3.64062" y="0.5" width="17.301" height="21.4337" rx="8.65051" fill="#7BE0B8" stroke="#212529" stroke-linejoin="round"/>
<circle id="Ellipse 1253" cx="7.84821" cy="10.0689" r="2.91071" fill="#7BE0B8" stroke="#212529" stroke-linejoin="round"/>
<circle id="Ellipse 1258" cx="16.6529" cy="10.0689" r="2.91071" fill="#7BE0B8" stroke="#212529" stroke-linejoin="round"/>
<path id="Vector 3561" d="M11.3281 10.0301C12.0594 9.70944 12.4719 9.70278 13.2031 10.0301" stroke="#212529" stroke-linecap="round" stroke-linejoin="round"/>
<path id="Vector 3562" d="M8.0044 15.9328C7.98531 16.0756 8.02882 16.2198 8.12376 16.3283C8.21871 16.4368 8.35585 16.499 8.5 16.499H10.8473C11.5006 16.499 11.9718 16.3018 12.2859 16.035C12.4785 16.1664 12.7012 16.2547 12.9099 16.3163C13.4021 16.4617 13.9694 16.5024 14.342 16.499H16C16.2761 16.499 16.5 16.2751 16.5 15.999C16.5 15.3377 16.0847 14.9319 15.6744 14.7163C15.2773 14.5075 14.8242 14.4359 14.5248 14.4279L14.5248 14.4277H14.5115H10.8473C8.99227 14.4277 8.10271 15.197 8.0044 15.9328Z" fill="#7BE0B8" stroke="#212529" stroke-linejoin="round"/>
</g>
</svg>
