<svg width="278" height="289" viewBox="0 0 278 289" fill="none" xmlns="http://www.w3.org/2000/svg">
<circle opacity="0.2" cx="134" cy="134" r="133.5" stroke="white"/>
<rect x="12" y="118" width="243.297" height="170.646" rx="11.2637" fill="#9364D6"/>
<rect x="12" y="118" width="243.297" height="170.646" rx="11.2637" fill="url(#paint0_linear_9127_19960)"/>
<rect opacity="0.5" x="12" y="148.977" width="243.297" height="31.5385" fill="#824BD0"/>
<path d="M196 98.2335L190.144 118.309H72L77.8563 98.2335H196ZM143.039 238L75.692 159.477L75.5647 143.721H106.628C115.625 143.721 123.051 142.239 128.908 139.274C134.849 136.225 139.305 132.116 142.275 126.949C145.246 121.782 146.731 115.98 146.731 109.542C146.731 102.342 145.331 96.0311 142.53 90.6099C139.729 85.1039 135.316 80.8262 129.29 77.7768C123.348 74.6426 115.54 73.0756 105.864 73.0756H72.2546L78.2382 53H105.864C120.632 53 132.812 55.2447 142.402 59.7342C152.078 64.139 159.292 70.5767 164.045 79.0474C168.798 87.5181 171.175 97.7676 171.175 109.796C171.175 120.13 169.18 129.406 165.191 137.622C161.287 145.754 154.794 152.149 145.713 156.808C136.716 161.467 124.579 163.797 109.302 163.797L171.938 236.475V238H143.039ZM196 53L190.144 73.0756H94.9158L100.772 53H196Z" fill="#F9F8F9"/>
<path d="M196 98.2335L190.144 118.309H72L77.8563 98.2335H196ZM143.039 238L75.692 159.477L75.5647 143.721H106.628C115.625 143.721 123.051 142.239 128.908 139.274C134.849 136.225 139.305 132.116 142.275 126.949C145.246 121.782 146.731 115.98 146.731 109.542C146.731 102.342 145.331 96.0311 142.53 90.6099C139.729 85.1039 135.316 80.8262 129.29 77.7768C123.348 74.6426 115.54 73.0756 105.864 73.0756H72.2546L78.2382 53H105.864C120.632 53 132.812 55.2447 142.402 59.7342C152.078 64.139 159.292 70.5767 164.045 79.0474C168.798 87.5181 171.175 97.7676 171.175 109.796C171.175 120.13 169.18 129.406 165.191 137.622C161.287 145.754 154.794 152.149 145.713 156.808C136.716 161.467 124.579 163.797 109.302 163.797L171.938 236.475V238H143.039ZM196 53L190.144 73.0756H94.9158L100.772 53H196Z" fill="url(#paint1_linear_9127_19960)"/>
<path d="M28.5 33L32.9565 45.0435L45 49.5L32.9565 53.9565L28.5 66L24.0435 53.9565L12 49.5L24.0435 45.0435L28.5 33Z" fill="white"/>
<path d="M268 134L270.701 141.299L278 144L270.701 146.701L268 154L265.299 146.701L258 144L265.299 141.299L268 134Z" fill="white"/>
<defs>
<linearGradient id="paint0_linear_9127_19960" x1="23.6603" y1="134.585" x2="136.504" y2="311.763" gradientUnits="userSpaceOnUse">
<stop stop-color="#8B51DD"/>
<stop offset="1" stop-color="#905DDA"/>
</linearGradient>
<linearGradient id="paint1_linear_9127_19960" x1="72.5" y1="50" x2="268.487" y2="116.351" gradientUnits="userSpaceOnUse">
<stop stop-color="#C095FF"/>
<stop offset="1" stop-color="#915CDB"/>
</linearGradient>
</defs>
</svg>
