<svg width="130" height="130" viewBox="0 0 130 130" fill="none" xmlns="http://www.w3.org/2000/svg">
<circle cx="65" cy="65" r="65" fill="#F3F4F5"/>
<circle cx="65" cy="65" r="50" fill="#7BE0B8"/>
<path d="M79.9991 76.4608V80.977C80.0008 81.3962 79.9147 81.8112 79.7464 82.1954C79.5781 82.5795 79.3313 82.9243 79.0217 83.2078C78.7122 83.4912 78.3467 83.707 77.9488 83.8413C77.5508 83.9756 77.1292 84.0255 76.7108 83.9878C72.0692 83.4844 67.6106 81.9015 63.6934 79.3662C60.0488 77.0549 56.9589 73.9711 54.643 70.3338C52.0938 66.4065 50.5074 61.9351 50.0122 57.2819C49.9745 56.8656 50.0241 56.4461 50.1578 56.0499C50.2915 55.6538 50.5063 55.2898 50.7887 54.9811C51.0711 54.6724 51.4148 54.4257 51.7979 54.2569C52.181 54.088 52.5951 54.0005 53.0139 54.0001H57.5391C58.2712 53.993 58.9808 54.2517 59.5359 54.7281C60.0909 55.2044 60.4534 55.866 60.5559 56.5894C60.7469 58.0347 61.1011 59.4538 61.6118 60.8196C61.8147 61.3584 61.8586 61.944 61.7383 62.507C61.618 63.07 61.3386 63.5867 60.933 63.996L59.0173 65.9079C61.1646 69.6767 64.2914 72.7973 68.0677 74.9403L69.9833 73.0284C70.3935 72.6237 70.9112 72.3448 71.4753 72.2247C72.0394 72.1046 72.6262 72.1485 73.1661 72.351C74.5346 72.8607 75.9565 73.2142 77.4046 73.4048C78.1374 73.508 78.8065 73.8763 79.2849 74.4398C79.7633 75.0032 80.0174 75.7225 79.9991 76.4608Z" fill="#49D49D" stroke="#212529" strokeWidth="1.5" strokeLinecap="round" strokeLinejoin="round"/>
<path d="M69 55L78 64" stroke="#212529" strokeWidth="1.5" strokeLinecap="round" strokeLinejoin="round"/>
<path d="M69 64L78 55" stroke="#212529" strokeWidth="1.5" strokeLinecap="round" strokeLinejoin="round"/>
</svg>
