<svg width="126" height="110" viewBox="0 0 126 110" fill="none" xmlns="http://www.w3.org/2000/svg">
<mask id="path-1-outside-1_4287_12505" maskUnits="userSpaceOnUse" x="2" y="17" width="123" height="76" fill="black">
<rect fill="white" x="2" y="17" width="123" height="76"/>
<path d="M32.5605 19C49.4605 19 61.2606 32 61.2606 55C61.2606 78 49.4606 91 32.5606 91C15.7606 91 4.06055 78 4.06055 55C4.06055 32 15.7605 19 32.5605 19ZM32.5606 79.4C44.4606 79.4 47.7606 74.1 47.7606 55C47.7606 35.9 44.4606 30.6 32.5606 30.6C20.7606 30.6 17.4606 35.9 17.4606 55C17.4606 74.1 20.7606 79.4 32.5606 79.4ZM105.795 53.6C116.595 55.8 122.695 62.2 122.695 70.9C122.695 82.1 112.795 91 96.0949 91C78.9949 91 68.8949 82.3 68.3949 68.3L82.3949 66.7C82.5949 75.4 87.4949 79.5 96.4949 79.5C104.795 79.5 109.595 76.1 109.595 69.3C109.595 63 104.795 59.5 94.5949 59.7L87.5949 59.8L87.5949 48.5L94.8949 48.6C103.995 48.8 107.595 45.2 107.595 39.6C107.595 33.6 103.695 30.5 96.0949 30.5C87.9949 30.5 83.6949 34 83.6949 43.3L69.7949 41.6C69.8949 27.3 79.6949 19 95.7949 19C110.895 19 120.595 27 120.595 37.6C120.595 45.6 115.195 51.2 105.795 53.6Z"/>
</mask>
<path d="M32.5605 20.5C40.596 20.5 47.3346 23.5749 52.0919 29.3306C56.8729 35.115 59.7606 43.7428 59.7606 55L62.7606 55C62.7606 43.2571 59.7482 33.8849 54.4042 27.4194C49.0365 20.9251 41.4251 17.5 32.5605 17.5L32.5605 20.5ZM59.7606 55C59.7606 66.2571 56.8729 74.8849 52.0919 80.6694C47.3346 86.4251 40.596 89.5 32.5606 89.5L32.5606 92.5C41.4251 92.5 49.0365 89.0749 54.4042 82.5806C59.7482 76.115 62.7606 66.7428 62.7606 55L59.7606 55ZM32.5606 89.5C24.5786 89.5 17.8911 86.4279 13.1702 80.6736C8.42471 74.8893 5.56055 66.26 5.56055 55L2.56055 55C2.56055 66.74 5.54639 76.1107 10.8509 82.5764C16.18 89.0721 23.7425 92.5 32.5606 92.5L32.5606 89.5ZM5.56055 55C5.56055 43.74 8.42471 35.1107 13.1702 29.3264C17.8911 23.5721 24.5786 20.5 32.5605 20.5L32.5605 17.5C23.7425 17.5 16.18 20.9279 10.8509 27.4236C5.54639 33.8893 2.56055 43.26 2.56055 55L5.56055 55ZM32.5606 80.9C38.7101 80.9 43.1757 79.5231 45.8963 75.1556C48.4636 71.034 49.2606 64.5168 49.2606 55L46.2606 55C46.2606 64.5832 45.4075 70.266 43.3499 73.5694C41.4454 76.6269 38.311 77.9 32.5606 77.9L32.5606 80.9ZM49.2606 55C49.2606 45.4832 48.4636 38.966 45.8963 34.8444C43.1757 30.4769 38.7101 29.1 32.5605 29.1L32.5605 32.1C38.311 32.1 41.4454 33.3731 43.3499 36.4306C45.4075 39.734 46.2606 45.4167 46.2606 55L49.2606 55ZM32.5605 29.1C26.4564 29.1 22.0165 30.4795 19.3104 34.8475C16.7579 38.9677 15.9606 45.4825 15.9606 55L18.9606 55C18.9606 45.4175 19.8132 39.7323 21.8607 36.4275C23.7546 33.3705 26.8647 32.1 32.5605 32.1L32.5605 29.1ZM15.9606 55C15.9606 64.5175 16.7579 71.0323 19.3104 75.1525C22.0165 79.5205 26.4564 80.9 32.5606 80.9L32.5606 77.9C26.8647 77.9 23.7546 76.6295 21.8607 73.5725C19.8132 70.2677 18.9606 64.5824 18.9606 55L15.9606 55ZM105.795 53.6L105.424 52.1466L105.496 55.0698L105.795 53.6ZM68.3949 68.3L68.2246 66.8097L66.8464 66.9672L66.8959 68.3535L68.3949 68.3ZM82.3949 66.7L83.8945 66.6655L83.8568 65.0232L82.2246 65.2097L82.3949 66.7ZM94.5949 59.7L94.6164 61.1999L94.6243 61.1997L94.5949 59.7ZM87.5949 59.8L86.0949 59.8L86.0949 61.3216L87.6164 61.2998L87.5949 59.8ZM87.5949 48.5L87.6155 47.0001L86.0949 46.9793L86.0949 48.5L87.5949 48.5ZM94.8949 48.6L94.9279 47.1003L94.9155 47.1001L94.8949 48.6ZM83.6949 43.3L83.5128 44.7889L85.1949 44.9946L85.1949 43.3L83.6949 43.3ZM69.7949 41.6L68.295 41.5895L68.2856 42.9266L69.6128 43.0889L69.7949 41.6ZM105.496 55.0698C110.68 56.1259 114.605 58.1636 117.218 60.8571C119.813 63.5307 121.195 66.9273 121.195 70.9L124.195 70.9C124.195 66.1727 122.527 62.0193 119.371 58.7678C116.235 55.5364 111.71 53.2741 106.094 52.1302L105.496 55.0698ZM121.195 70.9C121.195 76.0233 118.944 80.6229 114.724 83.9756C110.485 87.3438 104.188 89.5 96.0949 89.5L96.0949 92.5C104.702 92.5 111.705 90.2062 116.591 86.3244C121.496 82.4271 124.195 76.9767 124.195 70.9L121.195 70.9ZM96.0949 89.5C87.7865 89.5 81.361 87.3867 76.9784 83.7462C72.6222 80.1275 70.1307 74.8745 69.894 68.2465L66.8959 68.3535C67.1592 75.7255 69.9677 81.8225 75.0615 86.0538C80.1289 90.2633 87.3034 92.5 96.0949 92.5L96.0949 89.5ZM68.5652 69.7903L82.5652 68.1903L82.2246 65.2097L68.2246 66.8097L68.5652 69.7903ZM80.8953 66.7345C81.0016 71.3585 82.3696 75.012 85.148 77.4833C87.9005 79.9316 91.7934 81 96.4949 81L96.4949 78C92.1964 78 89.1393 77.0184 87.1418 75.2417C85.1702 73.488 83.9882 70.7415 83.8945 66.6655L80.8953 66.7345ZM96.4949 81C100.815 81 104.464 80.1205 107.065 78.1444C109.734 76.1166 111.095 73.0908 111.095 69.3L108.095 69.3C108.095 72.3092 107.056 74.3834 105.25 75.7556C103.376 77.1795 100.475 78 96.4949 78L96.4949 81ZM111.095 69.3C111.095 65.7093 109.692 62.7597 106.748 60.8115C103.905 58.9307 99.7964 58.0977 94.5655 58.2003L94.6243 61.1997C99.5935 61.1023 102.985 61.9193 105.092 63.3135C107.098 64.6403 108.095 66.5907 108.095 69.3L111.095 69.3ZM94.5735 58.2001L87.5735 58.3001L87.6164 61.2998L94.6164 61.1998L94.5735 58.2001ZM89.0949 59.8L89.0949 48.5L86.0949 48.5L86.0949 59.8L89.0949 59.8ZM87.5744 49.9999L94.8744 50.0999L94.9155 47.1001L87.6155 47.0001L87.5744 49.9999ZM94.862 50.0996C99.5733 50.2032 103.15 49.3361 105.575 47.4618C108.067 45.5352 109.095 42.7417 109.095 39.6L106.095 39.6C106.095 42.0583 105.323 43.8647 103.74 45.0882C102.09 46.3639 99.3166 47.1968 94.9279 47.1004L94.862 50.0996ZM109.095 39.6C109.095 36.2509 107.988 33.4952 105.626 31.6242C103.328 29.8032 100.062 29 96.0949 29L96.0949 32C99.7278 32 102.212 32.7468 103.763 33.9758C105.252 35.1548 106.095 36.9491 106.095 39.6L109.095 39.6ZM96.0949 29C91.8657 29 88.2995 29.9089 85.8097 32.3391C83.3137 34.7753 82.1949 38.4504 82.1949 43.3L85.1949 43.3C85.1949 38.8496 86.2262 36.1247 87.9052 34.4859C89.5904 32.841 92.2241 32 96.0949 32L96.0949 29ZM83.877 41.8111L69.977 40.1111L69.6128 43.0889L83.5128 44.7889L83.877 41.8111ZM71.2949 41.6105C71.3424 34.8218 73.6776 29.6096 77.775 26.073C81.9005 22.5122 87.9878 20.5 95.7949 20.5L95.7949 17.5C87.5021 17.5 80.6394 19.6378 75.8148 23.802C70.9623 27.9904 68.3475 34.0782 68.295 41.5895L71.2949 41.6105ZM95.7949 20.5C103.092 20.5 108.947 22.4333 112.942 25.5129C116.914 28.5754 119.095 32.7992 119.095 37.6L122.095 37.6C122.095 31.8008 119.426 26.7246 114.773 23.1371C110.143 19.5667 103.598 17.5 95.7949 17.5L95.7949 20.5ZM119.095 37.6C119.095 41.234 117.88 44.2637 115.624 46.6754C113.347 49.1107 109.931 50.9959 105.424 52.1466L106.166 55.0534C111.059 53.8041 115.043 51.6893 117.816 48.7246C120.61 45.7363 122.095 41.966 122.095 37.6L119.095 37.6Z" fill="#49D49D" mask="url(#path-1-outside-1_4287_12505)"/>
</svg>
