<svg width="130" height="125" viewBox="0 0 130 125" fill="none" xmlns="http://www.w3.org/2000/svg">
<circle cx="67.5" cy="62.5" r="62.5" fill="white"/>
<path d="M25 49C25 46.7909 26.7909 45 29 45H97C99.2091 45 101 46.7909 101 49V90C101 92.2091 99.2091 94 97 94H29C26.7909 94 25 92.2091 25 90V49Z" fill="#936EC7"/>
<path d="M35 43H111V78C111 80.2091 109.209 82 107 82H39C36.7909 82 35 80.2091 35 78V43Z" fill="#A882DD"/>
<path d="M35 33C35 30.7909 36.7909 29 39 29H107C109.209 29 111 30.7909 111 33V78C111 80.2091 109.209 82 107 82H39C36.7909 82 35 80.2091 35 78V33Z" fill="#936EC7"/>
<path d="M35 47H111V78C111 80.2091 109.209 82 107 82H39C36.7909 82 35 80.2091 35 78V47Z" fill="#A882DD"/>
<path d="M35 33C35 30.7909 36.7909 29 39 29H107C109.209 29 111 30.7909 111 33V40H35V33Z" fill="#A882DD"/>
<path d="M111 6L113.161 11.8393L119 14L113.161 16.1607L111 22L108.839 16.1607L103 14L108.839 11.8393L111 6Z" fill="#A882DD"/>
<path d="M5 56L6.35045 59.6495L10 61L6.35045 62.3505L5 66L3.64955 62.3505L0 61L3.64955 59.6495L5 56Z" fill="#A882DD"/>
<path d="M83 108L83.8103 110.19L86 111L83.8103 111.81L83 114L82.1897 111.81L80 111L82.1897 110.19L83 108Z" fill="#A882DD"/>
</svg>
