<svg width="133" height="106" viewBox="0 0 133 106" fill="none" xmlns="http://www.w3.org/2000/svg">
<path d="M12.5 13L15.8761 21.7589L25 25L15.8761 28.2411L12.5 37L9.12387 28.2411L0 25L9.12387 21.7589L12.5 13Z" fill="#49D49D"/>
<path d="M118.448 93L120.19 97.7068L124.897 99.4485L120.19 101.19L118.448 105.897L116.707 101.19L112 99.4485L116.707 97.7068L118.448 93Z" fill="#49D49D"/>
<path d="M127.5 8L128.985 12.0145L133 13.5L128.985 14.9855L127.5 19L126.015 14.9855L122 13.5L126.015 12.0145L127.5 8Z" fill="#49D49D"/>
<circle cx="75" cy="53" r="52.5" stroke="#49D49D"/>
<circle cx="75" cy="53" r="38" fill="#49D49D"/>
<path d="M58.6364 49.6451H63.5455V69H58.6364C58.2024 69 57.7862 68.8301 57.4793 68.5276C57.1724 68.2251 57 67.8149 57 67.3871V51.258C57 50.8303 57.1724 50.42 57.4793 50.1175C57.7862 49.815 58.2024 49.6451 58.6364 49.6451ZM67.2976 47.5596L77.7704 37.237C77.9096 37.0994 78.0945 37.016 78.2911 37.0021C78.4877 36.9881 78.6828 37.0447 78.8405 37.1612L80.2364 38.1935C80.624 38.4803 80.9168 38.8739 81.0779 39.3245C81.2389 39.7752 81.261 40.2628 81.1413 40.7257L79.2545 48.0322H89.7273C90.5953 48.0322 91.4277 48.3721 92.0414 48.977C92.6552 49.582 93 50.4025 93 51.258V54.6516C93.0004 55.0731 92.917 55.4907 92.7545 55.8806L87.69 68.0016C87.5665 68.2971 87.3566 68.5498 87.0871 68.7276C86.8176 68.9053 86.5006 69.0001 86.1764 69H68.4545C68.0206 69 67.6043 68.8301 67.2975 68.5276C66.9906 68.2251 66.8182 67.8149 66.8182 67.3871V48.7C66.8183 48.2722 66.9907 47.862 67.2976 47.5596Z" fill="white"/>
</svg>
