<svg width="51" height="42" viewBox="0 0 51 42" fill="none" xmlns="http://www.w3.org/2000/svg">
<path d="M41 16V5C41 2.79086 39.2091 1 37 1H5C2.79086 1 1 2.79086 1 5V27C1 29.2091 2.79086 31 5 31H25" stroke="#212529"/>
<circle cx="37.5" cy="28.5" r="13" fill="#7BE0B8" stroke="black"/>
<path d="M39.9992 25.226V25.586H42.5192V26.522H39.9272C39.8312 27.374 39.6032 28.034 39.2432 28.502C38.8952 28.958 38.3672 29.288 37.6592 29.492C36.9512 29.684 35.9912 29.78 34.7792 29.78V31.472C34.7792 33.272 35.5712 34.172 37.1552 34.172C37.9232 34.172 38.4992 33.95 38.8832 33.506C39.2672 33.062 39.4592 32.426 39.4592 31.598H40.6292C40.6172 32.774 40.3112 33.668 39.7112 34.28C39.1112 34.88 38.2532 35.18 37.1372 35.18C35.9732 35.18 35.0912 34.856 34.4912 34.208C33.8912 33.548 33.5912 32.636 33.5912 31.472V28.88C34.9952 28.88 36.0332 28.826 36.7052 28.718C37.3892 28.61 37.8812 28.394 38.1812 28.07C38.4932 27.746 38.6852 27.23 38.7572 26.522H32.7272V25.586H38.8112V25.208V23.354H32.7272V22.4H42.5192V23.354H39.9992V25.226Z" fill="#212529"/>
<circle cx="9.5" cy="11.5" r="3" stroke="#212529"/>
<circle cx="17.5" cy="11.5" r="3" stroke="#212529"/>
</svg>
