<svg width="512" height="497" viewBox="0 0 512 497" fill="none" xmlns="http://www.w3.org/2000/svg">
<path d="M408 152.32H72C54.3269 152.32 40 166.647 40 184.32V408.32C40 425.993 54.3269 440.32 72 440.32H408C425.673 440.32 440 425.993 440 408.32V184.32C440 166.647 425.673 152.32 408 152.32Z" fill="#647499"/>
<path d="M440 200.32H40C22.3269 200.32 8 214.647 8 232.32V456.32C8 473.993 22.3269 488.32 40 488.32H440C457.673 488.32 472 473.993 472 456.32V232.32C472 214.647 457.673 200.32 440 200.32Z" fill="#96A1C3"/>
<path d="M472 232.32V282.08C454.458 294.007 434.227 301.387 413.125 303.557C392.024 305.727 370.714 302.618 351.111 294.511C331.509 286.403 314.229 273.551 300.825 257.11C287.421 240.669 278.313 221.154 274.32 200.32H440C448.487 200.32 456.627 203.692 462.628 209.693C468.629 215.694 472 223.833 472 232.32Z" fill="#647499"/>
<path d="M440 464.32H40C31.5131 464.32 23.3737 460.949 17.3726 454.948C11.3714 448.947 8 440.807 8 432.32V456.32C8 464.807 11.3714 472.947 17.3726 478.948C23.3737 484.949 31.5131 488.32 40 488.32H440C448.487 488.32 456.626 484.949 462.627 478.948C468.629 472.947 472 464.807 472 456.32V432.32C472 440.807 468.629 448.947 462.627 454.948C456.626 460.949 448.487 464.32 440 464.32Z" fill="#647499"/>
<path d="M384 40.3203H416V88.3203H384V40.3203Z" fill="#96A1C3"/>
<path d="M473.523 125.361L450.883 102.721L473.523 80.1608C474.943 78.4386 476.709 77.0327 478.705 76.0336C480.701 75.0345 482.885 74.4642 485.115 74.3594C487.345 74.2546 489.572 74.6177 491.653 75.4252C493.734 76.2327 495.624 77.4668 497.199 79.0482C498.775 80.6296 500.003 82.5232 500.803 84.6073C501.603 86.6915 501.958 88.92 501.845 91.1496C501.733 93.3792 501.155 95.5605 500.148 97.5533C499.142 99.5461 497.73 101.306 496.003 102.721L473.523 125.361Z" fill="#96A1C3"/>
<path d="M349.121 102.72L326.481 125.36L304.001 102.72C302.398 101.262 301.107 99.4932 300.208 97.5212C299.308 95.5491 298.819 93.4149 298.77 91.2481C298.72 89.0812 299.112 86.9269 299.92 84.9159C300.728 82.9048 301.937 81.079 303.472 79.5491C305.007 78.0192 306.837 76.8172 308.851 76.0161C310.865 75.2149 313.021 74.8312 315.187 74.8884C317.354 74.9455 319.487 75.4423 321.455 76.3485C323.424 77.2547 325.189 78.5515 326.641 80.1602L349.121 102.72Z" fill="#96A1C3"/>
<path d="M440 272.32V416.32C429.391 416.32 419.217 420.535 411.716 428.036C404.214 435.537 400 445.712 400 456.32H80C80 445.712 75.7857 435.537 68.2843 428.036C60.7828 420.535 50.6087 416.32 40 416.32V272.32C50.6087 272.32 60.7828 268.106 68.2843 260.605C75.7857 253.103 80 242.929 80 232.32H400C400 242.929 404.214 253.103 411.716 260.605C419.217 268.106 429.391 272.32 440 272.32Z" fill="#CCD3EB"/>
<path d="M440.001 272.32V297.92C410.595 307.579 378.685 306.256 350.179 294.195C321.674 282.133 298.504 260.152 284.961 232.32H400.001C400.001 237.573 401.036 242.775 403.046 247.628C405.056 252.481 408.002 256.89 411.717 260.605C415.431 264.319 419.841 267.265 424.694 269.275C429.547 271.286 434.748 272.32 440.001 272.32Z" fill="#96A1C3"/>
<path d="M240 416.32C279.765 416.32 312 384.085 312 344.32C312 304.556 279.765 272.32 240 272.32C200.235 272.32 168 304.556 168 344.32C168 384.085 200.235 416.32 240 416.32Z" fill="#F5F7FF"/>
<path d="M88 360.32H128C132.243 360.32 136.313 358.635 139.314 355.634C142.314 352.633 144 348.564 144 344.32C144 340.077 142.314 336.007 139.314 333.007C136.313 330.006 132.243 328.32 128 328.32H88C83.7565 328.32 79.6869 330.006 76.6863 333.007C73.6857 336.007 72 340.077 72 344.32C72 348.564 73.6857 352.633 76.6863 355.634C79.6869 358.635 83.7565 360.32 88 360.32Z" fill="#F5F7FF"/>
<path d="M352 360.32H392C396.243 360.32 400.313 358.635 403.314 355.634C406.314 352.633 408 348.564 408 344.32C408 340.077 406.314 336.007 403.314 333.007C400.313 330.006 396.243 328.32 392 328.32H352C347.757 328.32 343.687 330.006 340.686 333.007C337.686 336.007 336 340.077 336 344.32C336 348.564 337.686 352.633 340.686 355.634C343.687 358.635 347.757 360.32 352 360.32Z" fill="#F5F7FF"/>
<path d="M400 280.32C457.438 280.32 504 233.758 504 176.32C504 118.883 457.438 72.3203 400 72.3203C342.562 72.3203 296 118.883 296 176.32C296 233.758 342.562 280.32 400 280.32Z" fill="#F5F7FF"/>
<path d="M400 256.32C374.5 256.314 349.891 246.939 330.849 229.978C311.808 213.016 299.662 189.65 296.72 164.32C294.995 178.907 296.379 193.694 300.781 207.707C305.183 221.721 312.504 234.642 322.262 245.622C332.019 256.601 343.991 265.389 357.39 271.407C370.79 277.425 385.311 280.537 400 280.537C414.689 280.537 429.21 277.425 442.61 271.407C456.009 265.389 467.981 256.601 477.738 245.622C487.496 234.642 494.817 221.721 499.219 207.707C503.621 193.694 505.005 178.907 503.28 164.32C500.338 189.65 488.192 213.016 469.151 229.978C450.109 246.939 425.5 256.314 400 256.32Z" fill="#CCD3EB"/>
<path d="M400 240.32C435.346 240.32 464 211.667 464 176.32C464 140.974 435.346 112.32 400 112.32C364.654 112.32 336 140.974 336 176.32C336 211.667 364.654 240.32 400 240.32Z" fill="#CCD3EB"/>
<path d="M464 176.32H400V112.32C416.974 112.32 433.252 119.063 445.255 131.065C457.257 143.068 464 159.346 464 176.32Z" fill="#0074FF"/>
<path d="M424 40.3203H376C371.757 40.3203 367.687 38.6346 364.686 35.634C361.686 32.6334 360 28.5638 360 24.3203C360 20.0768 361.686 16.0072 364.686 13.0066C367.687 10.006 371.757 8.32031 376 8.32031H424C428.243 8.32031 432.313 10.006 435.314 13.0066C438.314 16.0072 440 20.0768 440 24.3203C440 28.5638 438.314 32.6334 435.314 35.634C432.313 38.6346 428.243 40.3203 424 40.3203Z" fill="#0074FF"/>
<path d="M232 208.32C234.122 208.32 236.157 207.477 237.657 205.977C239.157 204.477 240 202.442 240 200.32C240 198.199 239.157 196.164 237.657 194.663C236.157 193.163 234.122 192.32 232 192.32H216C213.878 192.32 211.843 193.163 210.343 194.663C208.843 196.164 208 198.199 208 200.32C208 202.442 208.843 204.477 210.343 205.977C211.843 207.477 213.878 208.32 216 208.32H232Z" fill="#033C59"/>
<path d="M472 280.32C469.878 280.32 467.843 281.163 466.343 282.663C464.843 284.164 464 286.199 464 288.32V456.32C464 462.686 461.471 468.79 456.971 473.291C452.47 477.792 446.365 480.32 440 480.32H40C33.6348 480.32 27.5303 477.792 23.0294 473.291C18.5286 468.79 16 462.686 16 456.32V232.32C16 225.955 18.5286 219.851 23.0294 215.35C27.5303 210.849 33.6348 208.32 40 208.32H184C186.122 208.32 188.157 207.477 189.657 205.977C191.157 204.477 192 202.442 192 200.32C192 198.199 191.157 196.164 189.657 194.663C188.157 193.163 186.122 192.32 184 192.32H48V184.32C48 177.955 50.5286 171.851 55.0294 167.35C59.5303 162.849 65.6348 160.32 72 160.32H289.28C287.6 170.921 287.6 181.72 289.28 192.32H264C261.878 192.32 259.843 193.163 258.343 194.663C256.843 196.164 256 198.199 256 200.32C256 202.442 256.843 204.477 258.343 205.977C259.843 207.477 261.878 208.32 264 208.32H292.72C294.396 213.803 296.481 219.151 298.96 224.32H80C77.8783 224.32 75.8434 225.163 74.3431 226.663C72.8429 228.164 72 230.199 72 232.32C72 240.807 68.6286 248.947 62.6274 254.948C56.6263 260.949 48.4869 264.32 40 264.32C37.8783 264.32 35.8434 265.163 34.3431 266.663C32.8429 268.164 32 270.199 32 272.32V416.32C32 418.442 32.8429 420.477 34.3431 421.977C35.8434 423.477 37.8783 424.32 40 424.32C48.4869 424.32 56.6263 427.692 62.6274 433.693C68.6286 439.694 72 447.833 72 456.32C72 458.442 72.8429 460.477 74.3431 461.977C75.8434 463.477 77.8783 464.32 80 464.32H400C402.122 464.32 404.157 463.477 405.657 461.977C407.157 460.477 408 458.442 408 456.32C408 447.833 411.371 439.694 417.373 433.693C423.374 427.692 431.513 424.32 440 424.32C442.122 424.32 444.157 423.477 445.657 421.977C447.157 420.477 448 418.442 448 416.32V277.36C462.328 270.534 475.042 260.739 485.299 248.627C495.555 236.515 503.12 222.361 507.493 207.103C511.865 191.846 512.944 175.833 510.66 160.127C508.375 144.421 502.778 129.38 494.24 116C502.24 108 508.8 103.12 508.8 91.5203C508.812 86.7698 507.413 82.1227 504.782 78.1675C502.151 74.2124 498.405 71.1271 494.019 69.3024C489.632 67.4777 484.804 66.9957 480.143 67.9175C475.483 68.8392 471.201 71.1233 467.84 74.4803L460.32 82.0803C449.207 74.9248 436.908 69.8049 424 66.9603V48.3203C430.365 48.3203 436.47 45.7917 440.971 41.2909C445.471 36.79 448 30.6855 448 24.3203C448 17.9551 445.471 11.8506 440.971 7.34975C436.47 2.84888 430.365 0.320313 424 0.320312H376C369.635 0.320313 363.53 2.84888 359.029 7.34975C354.529 11.8506 352 17.9551 352 24.3203C352 30.6855 354.529 36.79 359.029 41.2909C363.53 45.7917 369.635 48.3203 376 48.3203V66.9603C363.092 69.8049 350.793 74.9248 339.68 82.0803L332.16 74.4803C327.559 70.1489 321.479 67.7369 315.16 67.7369C308.841 67.7369 302.761 70.1489 298.16 74.4803C293.666 78.9803 291.141 85.0803 291.141 91.4403C291.141 97.8003 293.666 103.9 298.16 108.4L305.76 116C300.105 124.781 295.715 134.315 292.72 144.32H72C61.3913 144.32 51.2172 148.535 43.7157 156.036C36.2143 163.537 32 173.712 32 184.32V193.12C22.9651 194.965 14.8448 199.874 9.01355 207.017C3.18227 214.16 -0.0018812 223.099 8.33826e-07 232.32V456.32C8.33826e-07 466.929 4.21427 477.103 11.7157 484.605C19.2172 492.106 29.3913 496.32 40 496.32H440C450.609 496.32 460.783 492.106 468.284 484.605C475.786 477.103 480 466.929 480 456.32V288.32C480 286.199 479.157 284.164 477.657 282.663C476.157 281.163 474.122 280.32 472 280.32ZM432 408.96C422.163 410.617 413.086 415.298 406.032 422.352C398.978 429.406 394.297 438.483 392.64 448.32H87.36C85.7029 438.483 81.022 429.406 73.968 422.352C66.9139 415.298 57.8373 410.617 48 408.96V279.6C57.8261 277.948 66.8945 273.279 73.9474 266.24C81.0002 259.202 85.6878 250.143 87.36 240.32H308.24C321.705 259.623 340.909 274.193 363.125 281.962C385.341 289.731 409.44 290.304 432 283.6V408.96ZM400 272.32C381.013 272.32 362.452 266.69 346.665 256.141C330.878 245.593 318.574 230.6 311.308 213.058C304.042 195.516 302.14 176.214 305.845 157.592C309.549 138.969 318.692 121.864 332.118 108.438C345.544 95.0122 362.649 85.8691 381.271 82.1649C399.894 78.4607 419.196 80.3619 436.738 87.6279C454.279 94.8939 469.272 107.198 479.821 122.986C490.37 138.773 496 157.333 496 176.32C496 201.781 485.886 226.199 467.882 244.203C449.879 262.206 425.461 272.32 400 272.32ZM479.2 86.0003C480.328 84.8947 481.758 84.1476 483.31 83.8534C484.862 83.5591 486.466 83.7308 487.92 84.3468C489.374 84.9628 490.614 85.9955 491.482 87.3148C492.351 88.6341 492.809 90.1809 492.8 91.7603C492.8 95.7603 491.12 96.7203 484.8 103.28C481.277 99.2639 477.481 95.495 473.44 92.0003L479.2 86.0003ZM368 24.3203C368 22.1986 368.843 20.1637 370.343 18.6635C371.843 17.1632 373.878 16.3203 376 16.3203H424C426.122 16.3203 428.157 17.1632 429.657 18.6635C431.157 20.1637 432 22.1986 432 24.3203C432 26.442 431.157 28.4769 429.657 29.9772C428.157 31.4775 426.122 32.3203 424 32.3203H376C373.878 32.3203 371.843 31.4775 370.343 29.9772C368.843 28.4769 368 26.442 368 24.3203ZM392 48.3203H408V64.7203C402.681 64.1603 397.319 64.1603 392 64.7203V48.3203ZM309.52 97.1203C308.77 96.3766 308.175 95.4918 307.769 94.5169C307.363 93.542 307.154 92.4964 307.154 91.4403C307.154 90.3842 307.363 89.3386 307.769 88.3637C308.175 87.3888 308.77 86.504 309.52 85.7603C311.019 84.2703 313.047 83.434 315.16 83.434C317.273 83.434 319.301 84.2703 320.8 85.7603L326.8 91.7603C322.739 95.2341 318.942 99.0045 315.44 103.04L309.52 97.1203Z" fill="#033C59"/>
<path d="M400 104.32C385.76 104.32 371.839 108.543 359.999 116.454C348.159 124.366 338.93 135.611 333.481 148.767C328.031 161.923 326.605 176.4 329.383 190.367C332.162 204.333 339.019 217.163 349.088 227.232C359.158 237.301 371.987 244.159 385.954 246.937C399.92 249.715 414.397 248.289 427.553 242.84C440.71 237.39 451.954 228.162 459.866 216.321C467.777 204.481 472 190.561 472 176.32C472 157.225 464.414 138.911 450.912 125.409C437.409 111.906 419.096 104.32 400 104.32ZM455.36 168.32H408V120.96C419.944 122.697 431.007 128.245 439.541 136.78C448.075 145.314 453.624 156.377 455.36 168.32ZM400 232.32C385.917 232.212 372.393 226.801 362.121 217.167C351.849 207.532 345.584 194.381 344.575 180.335C343.566 166.288 347.887 152.376 356.676 141.373C365.465 130.369 378.078 123.081 392 120.96V176.32C392 178.442 392.843 180.477 394.343 181.977C395.843 183.477 397.878 184.32 400 184.32H455.36C453.438 197.637 446.786 209.817 436.62 218.631C426.454 227.445 413.455 232.305 400 232.32Z" fill="#033C59"/>
<path d="M296 24.3203H168C165.878 24.3203 163.843 25.1632 162.343 26.6635C160.843 28.1638 160 30.1986 160 32.3203C160 34.442 160.843 36.4769 162.343 37.9772C163.843 39.4775 165.878 40.3203 168 40.3203H296C298.122 40.3203 300.157 39.4775 301.657 37.9772C303.157 36.4769 304 34.442 304 32.3203C304 30.1986 303.157 28.1638 301.657 26.6635C300.157 25.1632 298.122 24.3203 296 24.3203Z" fill="#CCD3EB"/>
<path d="M264 72.3203H80C77.8783 72.3203 75.8434 73.1632 74.3431 74.6635C72.8429 76.1638 72 78.1986 72 80.3203C72 82.442 72.8429 84.4769 74.3431 85.9772C75.8434 87.4775 77.8783 88.3203 80 88.3203H264C266.122 88.3203 268.157 87.4775 269.657 85.9772C271.157 84.4769 272 82.442 272 80.3203C272 78.1986 271.157 76.1638 269.657 74.6635C268.157 73.1632 266.122 72.3203 264 72.3203Z" fill="#CCD3EB"/>
<path d="M120 40.3203H136C138.122 40.3203 140.157 39.4775 141.657 37.9772C143.157 36.4769 144 34.442 144 32.3203C144 30.1986 143.157 28.1638 141.657 26.6635C140.157 25.1632 138.122 24.3203 136 24.3203H120C117.878 24.3203 115.843 25.1632 114.343 26.6635C112.843 28.1638 112 30.1986 112 32.3203C112 34.442 112.843 36.4769 114.343 37.9772C115.843 39.4775 117.878 40.3203 120 40.3203Z" fill="#CCD3EB"/>
<path d="M245.684 380.9C244.298 380.9 242.985 380.323 242.046 379.312L214.328 349.458C212.466 347.451 212.581 344.304 214.588 342.442C215.512 341.59 216.71 341.113 217.966 341.113H231.681C236.445 341.113 240.761 338.313 242.71 333.982H222.557C219.814 333.938 217.62 331.672 217.677 328.929C217.721 326.244 219.886 324.093 222.557 324.049H242.696C240.732 319.719 236.43 316.932 231.681 316.932H217.966C215.223 316.932 213 314.709 213 311.966C213 309.223 215.223 307 217.966 307H261.232C263.975 307 266.198 309.223 266.198 311.966C266.198 314.709 263.975 316.932 261.232 316.932H250.087C251.517 319.098 252.556 321.509 253.133 324.049H261.247C263.99 324.093 266.184 326.359 266.126 329.102C266.083 331.787 263.918 333.938 261.247 333.982H253.148C250.824 343.972 241.931 351.046 231.681 351.06H229.371L249.337 372.571C251.199 374.577 251.083 377.724 249.077 379.587C248.153 380.424 246.94 380.9 245.684 380.9Z" fill="#0074FF"/>
</svg>
