<svg width="31" height="32" viewBox="0 0 31 32" fill="none" xmlns="http://www.w3.org/2000/svg">
<g id="Union">
<mask id="path-1-outside-1_4040_13088" maskUnits="userSpaceOnUse" x="-1" y="-1" width="32" height="33" fill="black">
<rect fill="white" x="-1" y="-1" width="32" height="33"/>
<path fill-rule="evenodd" clip-rule="evenodd" d="M29.4421 1.01351L27.617 1.95086C25.2985 3.14161 23.1935 4.70864 21.3877 6.58818L19.7468 8.3147L5.54476 3.7732C5.48576 3.75434 5.42171 3.75945 5.36645 3.78744L2.28976 5.34578C2.11633 5.43362 2.1178 5.68181 2.29224 5.7676L12.1731 10.6268C12.2015 10.6407 12.2268 10.6603 12.2475 10.6843L14.7448 13.5775L13.5385 14.8467C12.4342 15.9962 11.4492 17.2547 10.5989 18.6029L8.1977 22.4101L2.14314 21.2374C2.10228 21.2295 2.06028 21.2437 2.03263 21.2748L1.02979 22.4031C0.978084 22.4613 0.995968 22.5528 1.06578 22.5872L6.42129 25.2266L5.96503 25.9501C5.82511 26.1719 6.09768 26.4221 6.30676 26.2637L6.97634 25.7564L9.88192 30.9397C9.92154 31.0104 10.019 31.0209 10.0728 30.9604L11.0713 29.8369C11.0974 29.8076 11.1072 29.7671 11.0973 29.7291L9.56155 23.7979L13.5367 20.7864C14.6427 19.9485 15.6726 19.0146 16.6143 17.9956L18.0303 16.4318L20.4787 18.0027C20.5086 18.0218 20.5337 18.0475 20.5523 18.0777L26.7896 28.2388C26.8916 28.4049 27.1396 28.3826 27.2102 28.2009L28.3974 25.1479C28.4194 25.0913 28.4187 25.0285 28.3955 24.9724L22.7215 11.2511L24.6546 9.11629C26.298 7.33793 27.6576 5.31696 28.6855 3.12452L29.6027 1.16839C29.6504 1.06661 29.5421 0.962158 29.4421 1.01351Z"/>
</mask>
<path fill-rule="evenodd" clip-rule="evenodd" d="M29.4421 1.01351L27.617 1.95086C25.2985 3.14161 23.1935 4.70864 21.3877 6.58818L19.7468 8.3147L5.54476 3.7732C5.48576 3.75434 5.42171 3.75945 5.36645 3.78744L2.28976 5.34578C2.11633 5.43362 2.1178 5.68181 2.29224 5.7676L12.1731 10.6268C12.2015 10.6407 12.2268 10.6603 12.2475 10.6843L14.7448 13.5775L13.5385 14.8467C12.4342 15.9962 11.4492 17.2547 10.5989 18.6029L8.1977 22.4101L2.14314 21.2374C2.10228 21.2295 2.06028 21.2437 2.03263 21.2748L1.02979 22.4031C0.978084 22.4613 0.995968 22.5528 1.06578 22.5872L6.42129 25.2266L5.96503 25.9501C5.82511 26.1719 6.09768 26.4221 6.30676 26.2637L6.97634 25.7564L9.88192 30.9397C9.92154 31.0104 10.019 31.0209 10.0728 30.9604L11.0713 29.8369C11.0974 29.8076 11.1072 29.7671 11.0973 29.7291L9.56155 23.7979L13.5367 20.7864C14.6427 19.9485 15.6726 19.0146 16.6143 17.9956L18.0303 16.4318L20.4787 18.0027C20.5086 18.0218 20.5337 18.0475 20.5523 18.0777L26.7896 28.2388C26.8916 28.4049 27.1396 28.3826 27.2102 28.2009L28.3974 25.1479C28.4194 25.0913 28.4187 25.0285 28.3955 24.9724L22.7215 11.2511L24.6546 9.11629C26.298 7.33793 27.6576 5.31696 28.6855 3.12452L29.6027 1.16839C29.6504 1.06661 29.5421 0.962158 29.4421 1.01351Z" fill="#7BE0B8"/>
<path d="M27.617 1.95086L27.1602 1.06132L27.1602 1.06132L27.617 1.95086ZM29.4421 1.01351L29.899 1.90305L29.899 1.90305L29.4421 1.01351ZM21.3877 6.58818L20.6666 5.89535L20.6629 5.89926L21.3877 6.58818ZM19.7468 8.3147L19.4422 9.26718L20.0396 9.4582L20.4716 9.00361L19.7468 8.3147ZM5.54476 3.7732L5.24017 4.72569L5.24017 4.72569L5.54476 3.7732ZM5.36645 3.78744L5.8183 4.67953L5.8183 4.67953L5.36645 3.78744ZM2.28976 5.34578L2.7416 6.23788H2.7416L2.28976 5.34578ZM2.29224 5.7676L1.85094 6.66495L1.85094 6.66496L2.29224 5.7676ZM12.1731 10.6268L12.6144 9.72941H12.6144L12.1731 10.6268ZM12.2475 10.6843L11.4905 11.3377L11.4905 11.3377L12.2475 10.6843ZM14.7448 13.5775L15.4696 14.2664L16.0937 13.6098L15.5018 12.9241L14.7448 13.5775ZM13.5385 14.8467L14.2596 15.5395L14.2634 15.5356L13.5385 14.8467ZM10.5989 18.6029L9.75307 18.0695L10.5989 18.6029ZM8.1977 22.4101L8.00754 23.3919L8.67878 23.5219L9.04352 22.9436L8.1977 22.4101ZM2.14314 21.2374L2.3333 20.2556L2.33329 20.2556L2.14314 21.2374ZM2.03263 21.2748L1.28518 20.6105L1.28517 20.6105L2.03263 21.2748ZM1.02979 22.4031L0.282332 21.7388L0.282324 21.7388L1.02979 22.4031ZM1.06578 22.5872L0.623697 23.4841L0.623704 23.4841L1.06578 22.5872ZM6.42129 25.2266L7.26712 25.7601L7.85962 24.8207L6.86337 24.3297L6.42129 25.2266ZM5.96503 25.9501L6.81085 26.4835L6.81085 26.4835L5.96503 25.9501ZM6.30676 26.2637L5.7029 25.4666L5.70289 25.4666L6.30676 26.2637ZM6.97634 25.7564L7.84864 25.2675L7.28738 24.2662L6.37248 24.9593L6.97634 25.7564ZM9.88192 30.9397L9.00963 31.4287L9.00963 31.4287L9.88192 30.9397ZM10.0728 30.9604L9.32537 30.2961L10.0728 30.9604ZM11.0713 29.8369L10.3239 29.1726L10.3239 29.1726L11.0713 29.8369ZM11.0973 29.7291L10.1292 29.9797L10.1292 29.9798L11.0973 29.7291ZM9.56155 23.7979L8.95769 23.0008L8.4264 23.4033L8.59348 24.0486L9.56155 23.7979ZM13.5367 20.7864L12.9328 19.9893L13.5367 20.7864ZM16.6143 17.9956L17.3488 18.6743L17.3556 18.6668L16.6143 17.9956ZM18.0303 16.4318L18.5704 15.5901L17.8575 15.1328L17.2891 15.7606L18.0303 16.4318ZM20.4787 18.0027L21.0187 17.161L21.0187 17.161L20.4787 18.0027ZM20.5523 18.0777L19.7 18.6008L19.7001 18.6009L20.5523 18.0777ZM26.7896 28.2388L27.6419 27.7157L27.6419 27.7157L26.7896 28.2388ZM27.2102 28.2009L26.2782 27.8385L26.2782 27.8385L27.2102 28.2009ZM28.3974 25.1479L27.4654 24.7855L27.4654 24.7855L28.3974 25.1479ZM28.3955 24.9724L29.3196 24.5903V24.5903L28.3955 24.9724ZM22.7215 11.2511L21.9803 10.5799L21.5557 11.0487L21.7974 11.6332L22.7215 11.2511ZM24.6546 9.11629L23.9201 8.43755L23.9133 8.44507L24.6546 9.11629ZM28.6855 3.12452L27.7801 2.70001V2.70001L28.6855 3.12452ZM29.6027 1.16839L30.5081 1.5929V1.5929L29.6027 1.16839ZM28.0739 2.8404L29.899 1.90305L28.9853 0.123969L27.1602 1.06132L28.0739 2.8404ZM22.1088 7.28099C23.838 5.48119 25.8537 3.98064 28.0739 2.8404L27.1602 1.06132C24.7433 2.30258 22.549 3.93609 20.6666 5.89536L22.1088 7.28099ZM20.4716 9.00361L22.1126 7.2771L20.6629 5.89926L19.0219 7.62578L20.4716 9.00361ZM20.0514 7.36221L5.84934 2.82072L5.24017 4.72569L19.4422 9.26718L20.0514 7.36221ZM5.84934 2.82072C5.54006 2.72182 5.20428 2.74862 4.9146 2.89534L5.8183 4.67953C5.63913 4.77028 5.43146 4.78686 5.24017 4.72569L5.84934 2.82072ZM4.9146 2.89534L1.83791 4.45368L2.7416 6.23788L5.8183 4.67953L4.9146 2.89534ZM1.83791 4.45368C0.928775 4.91416 0.936451 6.21523 1.85094 6.66495L2.73355 4.87024C3.29914 5.14839 3.30389 5.95308 2.7416 6.23788L1.83791 4.45368ZM1.85094 6.66496L11.7318 11.5241L12.6144 9.72941L2.73354 4.87024L1.85094 6.66496ZM11.7318 11.5241C11.6396 11.4788 11.5576 11.4154 11.4905 11.3377L13.0045 10.0309C12.8961 9.9052 12.7634 9.80267 12.6144 9.72941L11.7318 11.5241ZM11.4905 11.3377L13.9878 14.2309L15.5018 12.9241L13.0045 10.0309L11.4905 11.3377ZM14.2634 15.5356L15.4696 14.2664L14.02 12.8886L12.8137 14.1578L14.2634 15.5356ZM11.4447 19.1364C12.259 17.8453 13.2021 16.6402 14.2596 15.5395L12.8174 14.1539C11.6662 15.3521 10.6395 16.664 9.75307 18.0695L11.4447 19.1364ZM9.04352 22.9436L11.4447 19.1364L9.75307 18.0695L7.35188 21.8766L9.04352 22.9436ZM8.38786 21.4283L2.3333 20.2556L1.95298 22.2191L8.00754 23.3919L8.38786 21.4283ZM2.33329 20.2556C1.94577 20.1806 1.54739 20.3154 1.28518 20.6105L2.78008 21.9391C2.57316 22.1719 2.2588 22.2784 1.95299 22.2191L2.33329 20.2556ZM1.28517 20.6105L0.282332 21.7388L1.77725 23.0675L2.78009 21.9391L1.28517 20.6105ZM0.282324 21.7388C-0.208057 22.2906 -0.0384505 23.1578 0.623697 23.4841L1.50787 21.6902C2.03039 21.9477 2.16423 22.632 1.77725 23.0674L0.282324 21.7388ZM0.623704 23.4841L5.97922 26.1236L6.86337 24.3297L1.50786 21.6902L0.623704 23.4841ZM6.81085 26.4835L7.26712 25.7601L5.57547 24.6932L5.11921 25.4166L6.81085 26.4835ZM5.70289 25.4666C6.38076 24.9531 7.26454 25.7642 6.81085 26.4835L5.11921 25.4166C4.38567 26.5796 5.8146 27.8911 6.91062 27.0608L5.70289 25.4666ZM6.37248 24.9593L5.7029 25.4666L6.91062 27.0608L7.5802 26.5535L6.37248 24.9593ZM6.10405 26.2454L9.00963 31.4287L10.7542 30.4507L7.84864 25.2675L6.10405 26.2454ZM9.00963 31.4287C9.38539 32.099 10.3098 32.1991 10.8203 31.6247L9.32537 30.2961C9.72821 29.8428 10.4577 29.9218 10.7542 30.4507L9.00963 31.4287ZM10.8203 31.6247L11.8188 30.5012L10.3239 29.1726L9.32537 30.2961L10.8203 31.6247ZM11.8188 30.5012C12.0663 30.2227 12.1588 29.8391 12.0654 29.4784L10.1292 29.9798C10.0555 29.6951 10.1285 29.3924 10.3239 29.1726L11.8188 30.5012ZM12.0654 29.4784L10.5296 23.5473L8.59348 24.0486L10.1292 29.9797L12.0654 29.4784ZM12.9328 19.9893L8.95769 23.0008L10.1654 24.595L14.1406 21.5835L12.9328 19.9893ZM15.8799 17.3169C14.9781 18.2927 13.9919 19.187 12.9328 19.9893L14.1406 21.5835C15.2935 20.7101 16.367 19.7366 17.3487 18.6743L15.8799 17.3169ZM17.2891 15.7606L15.873 17.3244L17.3556 18.6668L18.7716 17.103L17.2891 15.7606ZM17.4903 17.2734L19.9387 18.8443L21.0187 17.161L18.5704 15.5901L17.4903 17.2734ZM19.9387 18.8443C19.8419 18.7822 19.7603 18.699 19.7 18.6008L21.4046 17.5546C21.3072 17.396 21.1753 17.2615 21.0187 17.161L19.9387 18.8443ZM19.7001 18.6009L25.9374 28.762L27.6419 27.7157L21.4046 17.5546L19.7001 18.6009ZM25.9374 28.762C26.4719 29.6327 27.772 29.5156 28.1423 28.5633L26.2782 27.8385C26.5072 27.2496 27.3113 27.1772 27.6419 27.7157L25.9374 28.762ZM28.1423 28.5634L29.3294 25.5103L27.4654 24.7855L26.2782 27.8385L28.1423 28.5634ZM29.3294 25.5103C29.4447 25.2138 29.4412 24.8842 29.3196 24.5903L27.4714 25.3545C27.3962 25.1727 27.3941 24.9689 27.4654 24.7855L29.3294 25.5103ZM29.3196 24.5903L23.6456 10.8689L21.7974 11.6332L27.4714 25.3545L29.3196 24.5903ZM23.9133 8.44507L21.9803 10.5799L23.4628 11.9223L25.3958 9.7875L23.9133 8.44507ZM27.7801 2.70001C26.7958 4.79944 25.4939 6.73467 23.9202 8.43759L25.389 9.79498C27.1021 7.94118 28.5194 5.83448 29.591 3.54903L27.7801 2.70001ZM28.6973 0.743879L27.7801 2.70001L29.591 3.54903L30.5081 1.5929L28.6973 0.743879ZM29.899 1.90305C29.1506 2.28743 28.3401 1.50561 28.6973 0.743879L30.5081 1.5929C30.9607 0.627617 29.9337 -0.36311 28.9853 0.12397L29.899 1.90305Z" fill="#212529" mask="url(#path-1-outside-1_4040_13088)"/>
</g>
</svg>
