<svg width="53" height="50" viewBox="0 0 53 50" fill="none" xmlns="http://www.w3.org/2000/svg">
<path d="M31.2223 2.00227C33.1828 1.1015 35.5044 1.9179 36.4697 3.84751L37.8786 6.66408C38.4305 7.76751 39.4608 8.55449 40.6706 8.79674L43.7585 9.4151C45.8741 9.83874 47.2725 11.8638 46.9192 13.9923L46.4034 17.099C46.2014 18.3162 46.5723 19.5584 47.4087 20.4655L49.5434 22.7808C51.006 24.3671 50.9469 26.8273 49.41 28.3416L47.1667 30.5519C46.2878 31.4178 45.8577 32.6409 46.0012 33.8663L46.3673 36.9942C46.6182 39.1371 45.1243 41.0929 42.9909 41.4146L39.8768 41.8841C38.6568 42.0681 37.59 42.8047 36.9857 43.8804L35.4434 46.6262C34.3867 48.5073 32.0286 49.2114 30.1136 48.2177L27.3182 46.7672C26.2231 46.1989 24.927 46.1678 23.8059 46.6829L20.9442 47.9977C18.9837 48.8985 16.662 48.0821 15.6968 46.1525L14.2879 43.3359C13.736 42.2325 12.7057 41.4455 11.4959 41.2033L8.40793 40.5849C6.29238 40.1613 4.89401 38.1362 5.24733 36.0077L5.76304 32.901C5.96508 31.6838 5.59414 30.4416 4.75781 29.5345L2.62304 27.2192C1.16053 25.6329 1.21955 23.1727 2.75645 21.6584L4.99979 19.4481C5.87865 18.5822 6.30874 17.3591 6.16529 16.1337L5.79915 13.0058C5.54831 10.8629 7.04217 8.90715 9.17561 8.58545L12.2897 8.11588C13.5097 7.93191 14.5765 7.19525 15.1808 6.11955L16.7231 3.37379C17.7797 1.49268 20.1378 0.788549 22.0529 1.78229L24.8483 3.23282C25.9434 3.80108 27.2395 3.83217 28.3606 3.31708L31.2223 2.00227Z" fill="#7BE0B8"/>
<path d="M18 25.3171L23.4878 30.1951L33.8537 18" stroke="black" stroke-width="1.5" stroke-linecap="round"/>
</svg>
