<svg  viewBox="0 0 56 56" fill="none" xmlns="http://www.w3.org/2000/svg">
<path d="M36.1363 17.3023L23.5398 21.8212L16.6088 26.8075C16.6088 26.8075 11.9451 29.4889 11.9451 37.2917C11.9451 37.2917 11.8704 44.3273 11.9336 50.1575C11.9482 51.5116 12.5959 52.8104 13.7423 53.5312C15.7158 54.7715 19.5924 55.9697 26.6406 54.2077C38.3877 51.2709 43.4783 43.4397 43.8698 41.5792C44.2614 39.7193 45.1424 15.7361 36.1363 17.3023Z" fill="#384052"/>
<path d="M36.136 17.3027L23.5397 21.8204L21.876 23.0175C20.8396 24.8709 19.7829 24.5237 25.0376 30.0109C30.7933 36.0215 35.732 50.3733 35.732 50.3733C38.7265 38.4572 38.428 25.8253 36.136 17.3027Z" fill="white"/>
<path d="M23.5391 17.5422V21.8204C23.5391 21.8204 25.5689 24.9669 31.5886 25.7514C32.1431 25.8232 34.7823 25.9558 35.1548 25.5393C36.0169 24.5742 35.5478 22.3419 35.1537 17.655V14.7931L23.5391 17.5422Z" fill="#F7C9A4"/>
<path d="M31.5889 25.3251C32.6996 25.4357 33.5582 26.1416 33.835 26.8116L32.7696 28.6194L33.6561 29.3136C35.023 32.4655 36.7991 37.3287 37.7508 42.0226L35.7317 50.3734L32.021 42.1606L31.1002 29.9049L31.5434 28.8293L29.6211 27.7914C30.0253 26.7968 30.7013 25.7165 31.5889 25.3251Z" fill="#ED5E72"/>
<path d="M34.0428 27.9959C34.0428 27.9959 33.3593 25.8614 31.5898 25.3253C31.5898 25.3253 35.1979 21.2067 34.2059 18.4989L36.1206 20.0122C36.1206 20.0122 37.2064 23.5454 34.0428 27.9959Z" fill="#E3E6F0"/>
<path d="M33.8828 18.3011C33.8828 18.3011 35.7669 15.3966 39.1684 21.587L37.7916 23.8143L40.0188 23.7332C40.0188 23.7332 42.6632 37.4863 35.7325 50.3734C35.7325 50.3734 41.1498 25.2417 33.8828 18.3011Z" fill="#282E3A"/>
<path d="M36.8442 7.59569C36.8442 7.59569 39.0819 19.7141 33.5021 21.869C27.9223 24.024 21.6249 18.4468 20.416 12.572C19.207 6.69722 32.732 2.5605 36.8442 7.59569Z" fill="#F8D5B4"/>
<path d="M23.5389 21.8213C22.4496 22.2259 22.0986 24.6852 23.0714 25.5095C25.5296 27.5909 30.6187 28.8295 30.6187 28.8295C30.8599 27.0866 31.5886 25.3251 31.5886 25.3251C24.6716 23.422 23.5389 21.8213 23.5389 21.8213Z" fill="#E3E6F0"/>
<path d="M35.7329 50.3734C35.7329 50.3734 31.7199 34.5011 26.7298 29.331C21.7398 24.1603 22.5467 23.2475 23.5405 21.8212C23.5502 21.4701 19.1689 22.8353 21.1882 28.8293C21.8608 30.8264 23.0774 32.0981 23.0774 32.0981L25.0759 30.3487L24.1535 33.5003C24.1535 33.5003 28.6736 41.8859 35.7329 50.3734Z" fill="#282E3A"/>
<path d="M26.7495 0.933914C26.7495 0.933914 19.7587 1.15646 20.077 9.76702C20.175 12.4194 20.4508 13.9883 21.7736 16.289C22.3018 17.2077 23.0095 18.1424 23.9099 18.9746C23.9099 18.9746 21.5984 13.2175 23.1296 11.701C24.6361 10.2091 24.9151 13.5421 24.7367 14.4225H25.5867C25.6421 13.8746 25.3949 12.8979 25.9645 12.3143C26.8378 11.4186 27.3758 10.2817 27.1666 9.38801C27.1666 9.38801 29.7445 10.98 32.5877 9.72871C35.4309 8.47801 36.682 8.93307 36.9473 7.15126C37.2126 5.36956 38.1225 0.478858 26.7495 0.933914Z" fill="#895F4C"/>
</svg>
