<svg width="801" height="97" viewBox="0 0 801 97" fill="none" xmlns="http://www.w3.org/2000/svg">
<path d="M118.53 0.499994L105.84 62.465L103.275 77.315L99.63 62.465L81.675 0.499994H57.645L39.825 62.465L36.315 77.18L33.75 62.465L21.06 0.499994H0.945L24.57 95H47.79L66.285 35.465L69.795 19.805L73.17 35.33L91.665 95H114.885L138.51 0.499994H118.53ZM188.217 27.5C176.337 27.5 169.587 33.575 166.347 44.24V0.499994H149.202V95H166.347V63.41C166.347 49.775 172.287 43.025 181.872 43.025C190.107 43.025 194.697 47.48 194.697 56.39V95H211.842V55.445C211.842 36.815 203.877 27.5 188.217 27.5ZM261.058 27.5C241.618 27.5 225.553 40.865 225.553 62.06C225.553 83.12 241.618 96.35 261.058 96.35C280.363 96.35 296.428 83.12 296.428 62.06C296.428 40.865 280.363 27.5 261.058 27.5ZM261.058 80.825C248.368 80.825 242.833 75.02 242.833 62.06C242.833 48.83 248.368 43.025 261.058 43.025C273.748 43.025 279.148 48.83 279.148 62.06C279.148 75.02 273.748 80.825 261.058 80.825ZM452.207 0.499994L439.517 62.465L436.952 77.315L433.307 62.465L415.352 0.499994H391.322L373.502 62.465L369.992 77.18L367.427 62.465L354.737 0.499994H334.622L358.247 95H381.467L399.962 35.465L403.472 19.805L406.847 35.33L425.342 95H448.562L472.187 0.499994H452.207ZM540.713 60.98C540.713 40.595 527.888 27.5 508.988 27.5C489.413 27.5 475.778 41.54 475.778 62.33C475.778 82.85 489.278 96.35 509.528 96.35C524.378 96.35 534.773 90.545 539.228 79.07L524.378 72.725C521.138 79.88 517.763 82.04 509.933 82.04C499.673 82.04 494.813 77.72 493.598 67.325H540.578C540.713 64.625 540.713 63.14 540.713 60.98ZM509.123 41.27C518.708 41.27 523.298 45.185 523.703 55.58H493.733C494.948 45.725 499.673 41.27 509.123 41.27ZM655.051 95H674.086L639.526 0.499994H614.551L579.721 95H598.756L606.856 72.455H646.951L655.051 95ZM612.526 56.66L621.436 31.55L626.971 14.945L632.236 31.55L641.281 56.66H612.526ZM721.829 27.77C709.139 27.77 704.279 37.625 702.524 47.615V28.85H685.379V95H702.524V67.595C702.524 50.855 710.084 43.565 720.884 43.565C725.204 43.565 727.364 43.97 729.794 44.915V28.715C727.364 27.77 724.259 27.77 721.829 27.77ZM800.034 60.98C800.034 40.595 787.209 27.5 768.309 27.5C748.734 27.5 735.099 41.54 735.099 62.33C735.099 82.85 748.599 96.35 768.849 96.35C783.699 96.35 794.094 90.545 798.549 79.07L783.699 72.725C780.459 79.88 777.084 82.04 769.254 82.04C758.994 82.04 754.134 77.72 752.919 67.325H799.899C800.034 64.625 800.034 63.14 800.034 60.98ZM768.444 41.27C778.029 41.27 782.619 45.185 783.024 55.58H753.054C754.269 45.725 758.994 41.27 768.444 41.27Z" fill="url(#paint0_linear_820_2412)"/>
<defs>
<linearGradient id="paint0_linear_820_2412" x1="402.98" y1="-0.263637" x2="402.98" y2="123" gradientUnits="userSpaceOnUse">
<stop stop-color="#E8EDF1"/>
<stop offset="1" stop-color="#E8EDF1" stop-opacity="0"/>
</linearGradient>
</defs>
</svg>
