<svg width="25" height="32" viewBox="0 0 25 32" fill="none" xmlns="http://www.w3.org/2000/svg">
<g id="Group 48095797">
<rect id="Rectangle 9830" x="3.55469" y="0.576172" width="17.2623" height="21.3851" rx="8.63115" fill="#7BE0B8" stroke="#212529" stroke-linejoin="round"/>
<path id="Rectangle 9832" d="M21.9221 25.8553C22.1982 25.8553 22.4221 25.6314 22.4221 25.3553V10.7345C22.4221 5.08213 17.8399 0.5 12.1876 0.5C6.53526 0.5 1.95312 5.08213 1.95312 10.7345V25.3553C1.95312 25.6314 2.17698 25.8553 2.45312 25.8553H21.9221Z" fill="#7BE0B8" stroke="#212529" stroke-linejoin="round"/>
<path id="Ellipse 1244" d="M0.5 31.0003C0.5 31.2765 0.723858 31.5003 1 31.5003H23.4466C23.7227 31.5003 23.9466 31.2765 23.9466 31.0003C23.9466 27.7471 22.6187 25.3255 20.4558 23.7331C18.3125 22.1551 15.391 21.4199 12.2233 21.4199C9.05552 21.4199 6.13402 22.1551 3.99078 23.7331C1.82787 25.3255 0.5 27.7471 0.5 31.0003Z" fill="#7BE0B8" stroke="#212529" stroke-linejoin="round"/>
<rect id="Rectangle 9831" x="7.98438" y="15.2363" width="8.40584" height="13.5212" rx="4.20292" fill="#7BE0B8" stroke="#212529" stroke-linejoin="round"/>
<g id="Subtract">
<mask id="path-5-outside-1_4206_17386" maskUnits="userSpaceOnUse" x="4.57812" y="4.05176" width="16" height="19" fill="black">
<rect fill="white" x="4.57812" y="4.05176" width="16" height="19"/>
<path fill-rule="evenodd" clip-rule="evenodd" d="M18.7865 12.482C18.3663 12.5633 17.9323 12.6059 17.4884 12.6059C13.7356 12.6059 10.6934 9.56363 10.6934 5.81083C10.6934 5.55424 10.7076 5.30096 10.7353 5.05176C7.78391 5.71149 5.57812 8.34661 5.57812 11.4969V14.8563C5.57812 18.5036 8.53492 21.4604 12.1823 21.4604C15.8297 21.4604 18.7865 18.5036 18.7865 14.8563V12.482Z"/>
</mask>
<path fill-rule="evenodd" clip-rule="evenodd" d="M18.7865 12.482C18.3663 12.5633 17.9323 12.6059 17.4884 12.6059C13.7356 12.6059 10.6934 9.56363 10.6934 5.81083C10.6934 5.55424 10.7076 5.30096 10.7353 5.05176C7.78391 5.71149 5.57812 8.34661 5.57812 11.4969V14.8563C5.57812 18.5036 8.53492 21.4604 12.1823 21.4604C15.8297 21.4604 18.7865 18.5036 18.7865 14.8563V12.482Z" fill="#7BE0B8"/>
<path d="M18.7865 12.482H19.7865C19.7865 12.1835 19.6531 11.9007 19.4229 11.7107C19.1927 11.5207 18.8896 11.4435 18.5966 11.5002L18.7865 12.482ZM10.7353 5.05176L11.7292 5.16223C11.7648 4.8412 11.6433 4.5227 11.4027 4.30711C11.1622 4.09152 10.8324 4.00538 10.5171 4.07584L10.7353 5.05176ZM18.5966 11.5002C18.2386 11.5695 17.8683 11.6059 17.4884 11.6059V13.6059C17.9964 13.6059 18.494 13.5572 18.9764 13.4638L18.5966 11.5002ZM17.4884 11.6059C14.2879 11.6059 11.6934 9.01135 11.6934 5.81083H9.69336C9.69336 10.1159 13.1833 13.6059 17.4884 13.6059V11.6059ZM11.6934 5.81083C11.6934 5.59122 11.7055 5.37483 11.7292 5.16223L9.7414 4.94129C9.70963 5.2271 9.69336 5.51726 9.69336 5.81083H11.6934ZM6.57812 11.4969C6.57812 8.82488 8.44915 6.58747 10.9534 6.02767L10.5171 4.07584C7.11867 4.83552 4.57812 7.86834 4.57812 11.4969H6.57812ZM6.57812 14.8563V11.4969H4.57812V14.8563H6.57812ZM12.1823 20.4604C9.0872 20.4604 6.57812 17.9514 6.57812 14.8563H4.57812C4.57812 19.0559 7.98263 22.4604 12.1823 22.4604V20.4604ZM17.7865 14.8563C17.7865 17.9514 15.2774 20.4604 12.1823 20.4604V22.4604C16.382 22.4604 19.7865 19.0559 19.7865 14.8563H17.7865ZM17.7865 12.482V14.8563H19.7865V12.482H17.7865Z" fill="#212529" mask="url(#path-5-outside-1_4206_17386)"/>
</g>
</g>
</svg>
