<svg width="58" height="51" viewBox="0 0 58 51" fill="none" xmlns="http://www.w3.org/2000/svg">
<path d="M52.9055 4.42036C51.5048 3.01898 49.8417 1.9073 48.0112 1.14884C46.1808 0.390381 44.2188 0 42.2374 0C40.256 0 38.294 0.390381 36.4635 1.14884C34.6331 1.9073 32.97 3.01898 31.5692 4.42036L28.6622 7.32737L25.7552 4.42036C22.9258 1.59099 19.0884 0.00146656 15.0871 0.00146659C11.0857 0.00146662 7.24827 1.59099 4.4189 4.42036C1.58952 7.24973 2.98123e-08 11.0872 0 15.0885C-2.98123e-08 19.0899 1.58952 22.9273 4.4189 25.7567L7.3259 28.6637L28.6622 50L49.9985 28.6637L52.9055 25.7567C54.3069 24.356 55.4186 22.6928 56.1771 20.8624C56.9355 19.0319 57.3259 17.0699 57.3259 15.0885C57.3259 13.1071 56.9355 11.1452 56.1771 9.31467C55.4186 7.4842 54.3069 5.82109 52.9055 4.42036Z" fill="#7BE0B8"/>
<path d="M50.873 33.6212C50.3705 33.137 49.7737 32.7528 49.117 32.4907C48.4602 32.2286 47.7562 32.0938 47.0453 32.0938C46.3344 32.0938 45.6304 32.2286 44.9737 32.4907C44.3169 32.7528 43.7202 33.137 43.2176 33.6212L42.1746 34.6257L41.1315 33.6212C40.1164 32.6435 38.7395 32.0943 37.3038 32.0943C35.8682 32.0943 34.4913 32.6435 33.4761 33.6212C32.4609 34.5989 31.8906 35.9249 31.8906 37.3076C31.8906 38.6902 32.4609 40.0163 33.4761 40.994L34.5191 41.9985L42.1746 49.3712L49.83 41.9985L50.873 40.994C51.3758 40.5099 51.7747 39.9353 52.0468 39.3027C52.319 38.6702 52.4591 37.9923 52.4591 37.3076C52.4591 36.6229 52.319 35.945 52.0468 35.3124C51.7747 34.6799 51.3758 34.1052 50.873 33.6212Z" stroke="#212529" stroke-width="1.5" stroke-linecap="round" stroke-linejoin="round"/>
</svg>
