<svg width="32" height="32" viewBox="0 0 32 32" fill="none" xmlns="http://www.w3.org/2000/svg">
<path d="M0 16C0 7.16344 7.16344 0 16 0C24.8366 0 32 7.16344 32 16C32 24.8366 24.8366 32 16 32C7.16344 32 0 24.8366 0 16Z" fill="#A29FAD"/>
<path d="M23.6344 11.3343C24 12.7599 24 15.7359 24 15.7359C24 15.7359 24 18.7119 23.6344 20.1375C23.4312 20.9255 22.8368 21.5455 22.084 21.7551C20.7168 22.1359 16 22.1359 16 22.1359C16 22.1359 11.2856 22.1359 9.916 21.7551C9.16 21.5423 8.5664 20.9231 8.3656 20.1375C8 18.7119 8 15.7359 8 15.7359C8 15.7359 8 12.7599 8.3656 11.3343C8.5688 10.5463 9.1632 9.92634 9.916 9.71674C11.2856 9.33594 16 9.33594 16 9.33594C16 9.33594 20.7168 9.33594 22.084 9.71674C22.84 9.92954 23.4336 10.5487 23.6344 11.3343ZM14.4 18.5359L19.2 15.7359L14.4 12.9359V18.5359Z" fill="#10172A"/>
</svg>
